<svg width="10" height="11" viewBox="0 0 10 11"  xmlns="http://www.w3.org/2000/svg">
<path d="M9.95926 4.76637V5.2381C9.95433 5.24973 9.95244 5.26243 9.95375 5.275C9.95161 5.31374 9.95038 5.35249 9.94824 5.39124C9.94211 5.4921 9.93048 5.59235 9.91761 5.69229C9.8972 5.83744 9.87086 5.98094 9.83861 6.12281C9.6226 7.06644 9.13784 7.92656 8.44342 8.59828C7.85363 9.17125 7.13168 9.58857 6.34207 9.81296C6.1785 9.85942 6.0126 9.89719 5.84506 9.92612C5.74983 9.94242 5.65428 9.95687 5.55843 9.96733C5.47391 9.97686 5.38939 9.98517 5.30426 9.98978C5.25496 9.99255 5.20566 9.99439 5.15666 9.99685C5.14719 9.99787 5.13779 9.99941 5.12849 10.0015H4.84431C4.8342 9.9993 4.82398 9.99776 4.81368 9.99685C4.71691 9.99439 4.62076 9.98732 4.5243 9.97871C4.43467 9.97071 4.34546 9.96046 4.25665 9.94796C4.12661 9.92869 3.99758 9.90429 3.86958 9.87477C3.48905 9.78787 3.1202 9.65573 2.77082 9.48115C1.75426 8.97245 0.94054 8.13125 0.46369 7.09609C0.312394 6.76647 0.197783 6.42109 0.121937 6.06623C0.0977452 5.95429 0.0772278 5.84174 0.0606914 5.72796C0.0502796 5.656 0.0423176 5.58374 0.0349681 5.5127C0.028231 5.44505 0.0230251 5.3774 0.0184317 5.30975C0.0150631 5.25655 0.0138382 5.20304 0.0113884 5.14984C0.0113884 5.12862 0.00832608 5.1074 0.00618247 5.08618C0.00618247 5.0828 0.00281394 5.07973 0.000976562 5.07634V4.93643C0.0031068 4.93176 0.00445203 4.92677 0.00495755 4.92167C0.00710116 4.89768 0.00955099 4.87339 0.0101635 4.84909C0.0132258 4.72886 0.0218002 4.60892 0.0337431 4.489C0.0433383 4.39244 0.0557917 4.29629 0.0711032 4.20055C0.09356 4.06176 0.121733 3.92409 0.155623 3.78756C0.348348 3.0193 0.719676 2.30786 1.23916 1.71159C1.75864 1.11531 2.41147 0.651179 3.14412 0.357257C3.41689 0.247779 3.69895 0.163279 3.98686 0.104789C4.08547 0.0848007 4.18407 0.0666575 4.28391 0.053742C4.35097 0.0448241 4.41803 0.0365213 4.4854 0.029756C4.55277 0.0229907 4.61616 0.0180705 4.6817 0.0137653C4.74049 0.0100752 4.7996 0.00823012 4.85839 0.00546251C4.86693 0.00457181 4.87541 0.00323747 4.88381 0.00146484H5.08684C5.10001 0.00300241 5.11348 0.00546251 5.12665 0.00607753C5.26772 0.0101777 5.40838 0.0204281 5.54863 0.0368288C5.63897 0.0469767 5.7287 0.0592772 5.81842 0.0746528C5.97562 0.101304 6.13119 0.13554 6.28512 0.177362C7.08434 0.395 7.81702 0.809055 8.41703 1.38216C9.01704 1.95526 9.4655 2.66938 9.72193 3.46006C9.78458 3.65382 9.8351 3.85132 9.87321 4.0514C9.89128 4.14581 9.9072 4.24022 9.91914 4.33555C9.92649 4.39336 9.93415 4.45086 9.93966 4.50898C9.94609 4.57848 9.95375 4.64798 9.95344 4.71809C9.95344 4.72978 9.95344 4.74146 9.95497 4.75284C9.95588 4.7575 9.95732 4.76204 9.95926 4.76637ZM6.48263 4.81865C6.48263 4.81865 5.2424 4.81865 4.41375 4.81865H4.38772L4.38465 4.81711C4.38465 4.81496 4.38159 4.8125 4.38159 4.80973C4.38159 4.37675 4.38159 3.94378 4.38159 3.5108C4.38208 3.50711 4.383 3.5035 4.38435 3.50003C4.39844 3.49584 4.41324 3.49458 4.42783 3.49634H7.11347C7.1251 3.49634 7.13674 3.49634 7.14838 3.49634C7.15548 3.49563 7.16254 3.4945 7.16951 3.49296V3.45422C7.16951 3.11636 7.16951 2.7781 7.16951 2.43942C7.16951 2.43081 7.16951 2.4219 7.16951 2.41329C7.16868 2.40716 7.16745 2.4011 7.16583 2.39514H3.20843C3.19985 2.39514 3.19097 2.39514 3.1824 2.39514C3.17642 2.39592 3.17048 2.39705 3.16464 2.39852C3.16464 2.41421 3.16464 2.42928 3.16464 2.44311C3.16464 3.21969 3.16464 3.99636 3.16464 4.77314C3.16464 4.7839 3.16464 4.79435 3.16464 4.80389C3.16415 4.80896 3.16333 4.81399 3.16219 4.81896C3.1555 4.82014 3.14875 4.82096 3.14197 4.82142H2.7203C2.7081 4.81949 2.69561 4.82132 2.68447 4.82664C2.68447 4.83618 2.68447 4.84663 2.68447 4.8574C2.68447 5.20017 2.68447 5.54284 2.68447 5.88541C2.68414 5.89125 2.68414 5.8971 2.68447 5.90294C2.68547 5.90885 2.6868 5.9147 2.68845 5.92047H3.13034C3.14147 5.91895 3.15281 5.92011 3.16341 5.92385C3.16341 5.93738 3.16341 5.9506 3.16341 5.96413C3.16341 6.65624 3.16341 7.34845 3.16341 8.04076C3.16341 8.05153 3.16341 8.06229 3.16341 8.07152C3.16414 8.07753 3.16526 8.08349 3.16678 8.08935C3.17933 8.08935 3.19097 8.08935 3.2023 8.08935H4.34209C4.34883 8.08935 4.35556 8.08935 4.3623 8.08935C4.3682 8.08839 4.37403 8.08705 4.37976 8.08535C4.37976 8.07059 4.37976 8.05706 4.37976 8.04384C4.37976 7.35173 4.37976 6.65952 4.37976 5.96721C4.37976 5.95644 4.37976 5.94599 4.37976 5.93646C4.38028 5.93129 4.3811 5.92616 4.38221 5.92108C4.3917 5.92108 4.40027 5.92108 4.40854 5.92108C4.54083 5.92108 4.67343 5.92108 4.80664 5.92108C5.4978 5.92108 6.46028 5.92108 6.47253 5.92108C6.47712 5.92108 6.48968 5.91278 6.48968 5.91001C6.48968 5.55268 6.48968 5.19545 6.48968 4.83833C6.48903 4.83128 6.4866 4.8245 6.48263 4.81865Z" fill="#F8EA3E"/>
</svg>
