<svg width="19" height="19" viewBox="0 0 19 19"  xmlns="http://www.w3.org/2000/svg">
<path fill-rule="evenodd" clip-rule="evenodd" d="M4.73818 3.87675C4.08544 3.87675 3.55646 3.31087 3.55107 2.60954L3.55119 2.59858L3.55107 2.5877C3.55657 1.88646 4.0855 1.3207 4.73818 1.3207C5.39349 1.3207 5.92533 1.8924 5.92533 2.59872C5.92533 3.30505 5.39349 3.87675 4.73818 3.87675ZM4.73833 5.11211C3.64616 5.11211 2.72636 4.31846 2.44934 3.23759H0.791456C0.356167 3.23759 2.18609e-05 3.05054 2.18609e-05 2.59858C2.18609e-05 2.14662 0.356167 1.95957 0.791456 1.95957H2.42901C2.67855 0.835539 3.61771 0 4.73833 0C5.85893 0 6.79807 0.83551 7.04764 1.95951H18.2037C18.639 1.95951 18.9951 2.16743 18.9951 2.59852C18.9951 3.02961 18.639 3.23753 18.2037 3.23753H7.02733C6.75033 4.31843 5.83052 5.11211 4.73833 5.11211ZM14.2356 10.6928C13.5795 10.6928 13.0484 10.1211 13.0484 9.41475C13.0484 8.70843 13.5795 8.13673 14.2356 8.13673C14.8909 8.13673 15.4227 8.70843 15.4227 9.41475C15.4227 10.1211 14.8909 10.6928 14.2356 10.6928ZM0.791435 10.0538H11.9467C12.2237 11.1347 13.1435 11.9283 14.2356 11.9283C15.3278 11.9283 16.2476 11.1347 16.5246 10.0538H18.2086C18.6439 10.0538 19 9.86677 19 9.41481C19 8.96285 18.6439 8.7758 18.2086 8.7758H16.545C16.2954 7.65175 15.3563 6.8162 14.2356 6.8162C13.115 6.8162 12.1758 7.65175 11.9263 8.7758H0.791435C0.356146 8.7758 0 8.98372 0 9.41481C0 9.8459 0.356146 10.0538 0.791435 10.0538ZM9.11228 16.444L9.11242 16.432C9.10651 15.7311 8.57774 15.1658 7.92532 15.1658C7.27001 15.1658 6.73817 15.7375 6.73817 16.4438C6.73817 17.1502 7.27001 17.7219 7.92532 17.7219C8.57768 17.7219 9.10641 17.1567 9.11242 16.4559L9.11228 16.444ZM7.92523 13.8879C9.03169 13.8879 9.96124 14.7024 10.2248 15.8049H18.2035C18.6388 15.8049 18.9949 15.9373 18.9949 16.444C18.9949 16.9506 18.6388 17.083 18.2035 17.083H10.2247C9.96118 18.1855 9.03165 19 7.92523 19C6.81881 19 5.88928 18.1855 5.62572 17.083H0.791486C0.356197 17.083 5.18248e-05 16.92 5.18248e-05 16.444C5.18248e-05 15.9679 0.356197 15.8049 0.791486 15.8049H5.6257C5.88921 14.7024 6.81877 13.8879 7.92523 13.8879Z" />
</svg>
