<svg width="10" height="11" viewBox="0 0 10 11"  xmlns="http://www.w3.org/2000/svg">
<mask id="path-1-inside-1" >
<path d="M7.69231 0.857178H10V10.0635H7.69231V0.857178ZM3.84615 3.48756H6.15385V10.0635H3.84615V3.48756ZM2.30769 6.11795H0V10.0635H2.30769V6.11795Z"/>
</mask>
<path d="M7.69231 0.857178H10V10.0635H7.69231V0.857178ZM3.84615 3.48756H6.15385V10.0635H3.84615V3.48756ZM2.30769 6.11795H0V10.0635H2.30769V6.11795Z" />
<path d="M7.69231 0.857178V-0.142822H6.69231V0.857178H7.69231ZM10 0.857178H11V-0.142822H10V0.857178ZM10 10.0635V11.0635H11V10.0635H10ZM7.69231 10.0635H6.69231V11.0635H7.69231V10.0635ZM3.84615 3.48756V2.48756H2.84615V3.48756H3.84615ZM6.15385 3.48756H7.15385V2.48756H6.15385V3.48756ZM6.15385 10.0635V11.0635H7.15385V10.0635H6.15385ZM3.84615 10.0635H2.84615V11.0635H3.84615V10.0635ZM2.30769 6.11795H3.30769V5.11795H2.30769V6.11795ZM0 6.11795V5.11795H-1V6.11795H0ZM0 10.0635H-1V11.0635H0V10.0635ZM2.30769 10.0635V11.0635H3.30769V10.0635H2.30769ZM7.69231 1.85718H10V-0.142822H7.69231V1.85718ZM9 0.857178V10.0635H11V0.857178H9ZM10 9.06353H7.69231V11.0635H10V9.06353ZM8.69231 10.0635V0.857178H6.69231V10.0635H8.69231ZM3.84615 4.48756H6.15385V2.48756H3.84615V4.48756ZM5.15385 3.48756V10.0635H7.15385V3.48756H5.15385ZM6.15385 9.06353H3.84615V11.0635H6.15385V9.06353ZM4.84615 10.0635V3.48756H2.84615V10.0635H4.84615ZM2.30769 5.11795H0V7.11795H2.30769V5.11795ZM-1 6.11795V10.0635H1V6.11795H-1ZM0 11.0635H2.30769V9.06353H0V11.0635ZM3.30769 10.0635V6.11795H1.30769V10.0635H3.30769Z"  mask="url(#path-1-inside-1)"/>
</svg>
