<svg width="10" height="11" viewBox="0 0 10 11"  xmlns="http://www.w3.org/2000/svg">
<mask id="path-1-inside-1" >
<path d="M7.69231 0.876953H10V10.877H7.69231V0.876953ZM3.84615 3.7341H6.15385V10.877H3.84615V3.7341ZM2.30769 6.59124H0V10.877H2.30769V6.59124Z"/>
</mask>
<path d="M7.69231 0.876953H10V10.877H7.69231V0.876953ZM3.84615 3.7341H6.15385V10.877H3.84615V3.7341ZM2.30769 6.59124H0V10.877H2.30769V6.59124Z" />
<path d="M7.69231 0.876953V-0.123047H6.69231V0.876953H7.69231ZM10 0.876953H11V-0.123047H10V0.876953ZM10 10.877V11.877H11V10.877H10ZM7.69231 10.877H6.69231V11.877H7.69231V10.877ZM3.84615 3.7341V2.7341H2.84615V3.7341H3.84615ZM6.15385 3.7341H7.15385V2.7341H6.15385V3.7341ZM6.15385 10.877V11.877H7.15385V10.877H6.15385ZM3.84615 10.877H2.84615V11.877H3.84615V10.877ZM2.30769 6.59124H3.30769V5.59124H2.30769V6.59124ZM0 6.59124V5.59124H-1V6.59124H0ZM0 10.877H-1V11.877H0V10.877ZM2.30769 10.877V11.877H3.30769V10.877H2.30769ZM7.69231 1.87695H10V-0.123047H7.69231V1.87695ZM9 0.876953V10.877H11V0.876953H9ZM10 9.87695H7.69231V11.877H10V9.87695ZM8.69231 10.877V0.876953H6.69231V10.877H8.69231ZM3.84615 4.7341H6.15385V2.7341H3.84615V4.7341ZM5.15385 3.7341V10.877H7.15385V3.7341H5.15385ZM6.15385 9.87695H3.84615V11.877H6.15385V9.87695ZM4.84615 10.877V3.7341H2.84615V10.877H4.84615ZM2.30769 5.59124H0V7.59124H2.30769V5.59124ZM-1 6.59124V10.877H1V6.59124H-1ZM0 11.877H2.30769V9.87695H0V11.877ZM3.30769 10.877V6.59124H1.30769V10.877H3.30769Z"  mask="url(#path-1-inside-1)"/>
</svg>
