<svg width="17" height="16" viewBox="0 0 17 16"  xmlns="http://www.w3.org/2000/svg">
<path d="M16.0048 7.62385V8.37861C15.9969 8.39722 15.9939 8.41754 15.996 8.43765C15.9925 8.49965 15.9906 8.56164 15.9871 8.62363C15.9773 8.78502 15.9586 8.94542 15.9379 9.10532C15.9051 9.33756 15.8628 9.56716 15.8109 9.79415C15.4638 11.304 14.6847 12.6801 13.5686 13.7549C12.6207 14.6717 11.4604 15.3394 10.1913 15.6984C9.92844 15.7727 9.66181 15.8332 9.39255 15.8795C9.23949 15.9055 9.08593 15.9287 8.93188 15.9454C8.79604 15.9606 8.6602 15.9739 8.52338 15.9813C8.44414 15.9857 8.3649 15.9887 8.28615 15.9926C8.27094 15.9943 8.25582 15.9967 8.24088 16H7.78414C7.7679 15.9965 7.75147 15.9941 7.73493 15.9926C7.5794 15.9887 7.42486 15.9774 7.26983 15.9636C7.12578 15.9508 6.9824 15.9344 6.83967 15.9144C6.63066 15.8836 6.4233 15.8445 6.21757 15.7973C5.60599 15.6582 5.01318 15.4468 4.45167 15.1675C2.81786 14.3536 1.51006 13.0077 0.743667 11.3514C0.500507 10.824 0.316305 10.2714 0.194407 9.70362C0.155525 9.52452 0.12255 9.34444 0.0959729 9.1624C0.0792392 9.04726 0.0664428 8.93164 0.0546307 8.81798C0.043803 8.70974 0.0354362 8.60149 0.0280536 8.49325C0.0226398 8.40813 0.0206711 8.32252 0.0167337 8.2374C0.0167337 8.20345 0.0118121 8.1695 0.00836687 8.13555C0.00836687 8.13014 0.00295301 8.12522 0 8.11981V7.89594C0.00342369 7.88847 0.00558573 7.88049 0.0063982 7.87232C0.00984338 7.83394 0.0137807 7.79507 0.0147651 7.7562C0.0196868 7.56382 0.0334675 7.37193 0.0526621 7.18005C0.0680834 7.02555 0.0880982 6.87172 0.112707 6.71853C0.148799 6.49647 0.194079 6.27621 0.248545 6.05775C0.558291 4.82854 1.15509 3.69024 1.98999 2.7362C2.82489 1.78215 3.87412 1.03954 5.05162 0.569267C5.49001 0.394102 5.94334 0.258903 6.40607 0.165319C6.56455 0.133337 6.72303 0.104308 6.88347 0.0836434C6.99126 0.0693748 7.09904 0.0560903 7.20732 0.0452658C7.3156 0.0344414 7.41748 0.0265691 7.5228 0.0196808C7.6173 0.0137766 7.71229 0.0108244 7.80678 0.00639626C7.8205 0.00497114 7.83413 0.00283619 7.84763 0H8.17394C8.1951 0.0024601 8.21676 0.00639626 8.23792 0.0073803C8.46465 0.0139406 8.69072 0.0303412 8.91613 0.0565823C9.06132 0.072819 9.20553 0.0924998 9.34973 0.117101C9.60238 0.159742 9.8524 0.214521 10.0998 0.281435C11.3843 0.629656 12.5618 1.29214 13.5262 2.20911C14.4905 3.12608 15.2113 4.26866 15.6234 5.53375C15.7241 5.84376 15.8053 6.15976 15.8665 6.4799C15.8956 6.63095 15.9212 6.782 15.9404 6.93453C15.9522 7.02703 15.9645 7.11904 15.9733 7.21203C15.9837 7.32323 15.996 7.43442 15.9955 7.5466C15.9955 7.5653 15.9955 7.584 15.9979 7.6022C15.9994 7.60966 16.0017 7.61692 16.0048 7.62385ZM10.4172 7.70749C10.4172 7.70749 8.42396 7.70749 7.09215 7.70749H7.05032L7.0454 7.70503C7.0454 7.70159 7.04048 7.69765 7.04048 7.69322C7.04048 7.00046 7.04048 6.3077 7.04048 5.61493C7.04125 5.60903 7.04274 5.60325 7.0449 5.59771C7.06755 5.591 7.09134 5.58899 7.11479 5.59181H11.4311C11.4498 5.59181 11.4685 5.59181 11.4872 5.59181C11.4986 5.59066 11.51 5.58885 11.5212 5.58639V5.5244C11.5212 4.98383 11.5212 4.44261 11.5212 3.90073C11.5212 3.88696 11.5212 3.87269 11.5212 3.85891C11.5199 3.84912 11.5179 3.83942 11.5153 3.82988H5.15498C5.1412 3.82988 5.12692 3.82988 5.11314 3.82988C5.10353 3.83112 5.094 3.83293 5.0846 3.8353C5.0846 3.86039 5.0846 3.8845 5.0846 3.90664C5.0846 5.14915 5.0846 6.39183 5.0846 7.63467C5.0846 7.65189 5.0846 7.66862 5.0846 7.68388C5.08381 7.69199 5.08249 7.70004 5.08066 7.70799C5.06991 7.70988 5.05907 7.71119 5.04818 7.71192H4.37046C4.35086 7.70884 4.33079 7.71176 4.31288 7.72029C4.31288 7.73554 4.31288 7.75227 4.31288 7.76949C4.31288 8.31793 4.31288 8.8662 4.31288 9.41431C4.31235 9.42365 4.31235 9.43301 4.31288 9.44236C4.31449 9.45181 4.31663 9.46118 4.31927 9.4704H5.02947C5.04737 9.46798 5.06559 9.46983 5.08263 9.47581C5.08263 9.49746 5.08263 9.51862 5.08263 9.54027C5.08263 10.6476 5.08263 11.7552 5.08263 12.8629C5.08263 12.8801 5.08263 12.8973 5.08263 12.9121C5.08379 12.9217 5.0856 12.9312 5.08804 12.9406C5.10822 12.9406 5.12692 12.9406 5.14513 12.9406H6.97699C6.98781 12.9406 6.99864 12.9406 7.00947 12.9406C7.01895 12.9391 7.02831 12.9369 7.03752 12.9342C7.03752 12.9106 7.03752 12.889 7.03752 12.8678C7.03752 11.7604 7.03752 10.6529 7.03752 9.54519C7.03752 9.52797 7.03752 9.51124 7.03752 9.49599C7.03836 9.48772 7.03968 9.4795 7.04146 9.47138C7.05672 9.47138 7.0705 9.47138 7.08379 9.47138C7.2964 9.47138 7.50951 9.47138 7.72361 9.47138C8.83443 9.47138 10.3813 9.47138 10.401 9.47138C10.4084 9.47138 10.4286 9.4581 10.4286 9.45367C10.4286 8.88195 10.4286 8.31038 10.4286 7.73898C10.4275 7.7277 10.4236 7.71686 10.4172 7.70749Z" fill="#F8EA3E"/>
</svg>
