<svg width="27" height="16" viewBox="0 0 27 16"  xmlns="http://www.w3.org/2000/svg">
<path d="M3.78473 0C4.43978 0 4.99779 0.0972885 5.45875 0.267502C5.91971 0.437715 6.30789 0.705217 6.62328 1.02133C6.93867 1.33744 7.15702 1.72643 7.30259 2.16412C7.44815 2.60181 7.52094 3.08813 7.52094 3.62309L5.14336 4.23099C5.14336 3.6474 5.0463 3.18544 4.82795 2.8207C4.6096 2.45596 4.26995 2.2857 3.78473 2.2857C3.49359 2.2857 3.27525 2.33438 3.08116 2.45596C2.91134 2.57754 2.76577 2.72341 2.66872 2.91794C2.57168 3.11247 2.4989 3.307 2.47464 3.52585C2.42611 3.74469 2.42611 3.96356 2.42611 4.15809V12.1581C2.42611 12.304 2.45037 12.4742 2.47464 12.6444C2.4989 12.8146 2.57168 12.9849 2.66872 13.1551C2.76577 13.3253 2.91134 13.4469 3.08116 13.5442C3.25099 13.6414 3.46933 13.7143 3.7362 13.7143C4.63386 13.7143 5.09483 13.0578 5.09483 11.769C5.50727 11.842 5.89545 11.915 6.30789 11.9636C6.72033 12.0122 7.1085 12.0851 7.52094 12.1338C7.49668 13.3252 7.15703 14.2736 6.5505 14.9545C5.91971 15.6353 4.99778 16 3.78473 16C2.49889 16 1.52845 15.6839 0.921919 15.0274C0.315391 14.3708 0 13.4225 0 12.1581V4.32823C0 3.74464 0.0727804 3.18542 0.194086 2.67478C0.315391 2.16414 0.533735 1.70211 0.824869 1.31305C1.116 0.923991 1.52845 0.607928 2.01367 0.389083C2.47463 0.121605 3.08115 0 3.78473 0Z" />
<path d="M9.19141 15.8553V13.1318H11.7146V15.8553H9.19141Z" />
<path d="M19.7259 7.63868C20.4052 7.85752 20.8905 8.29529 21.1573 8.92751C21.4242 9.55973 21.5455 10.2892 21.5455 11.0916C21.5455 12.7451 21.2059 13.9366 20.5023 14.7147C19.7987 15.4928 18.7312 15.8576 17.2998 15.8576H14.0488V0.125H17.4697C18.8525 0.125 19.8472 0.489743 20.478 1.21923C21.1088 1.94871 21.4242 3.01865 21.4242 4.40467C21.4242 5.13416 21.3029 5.76633 21.0603 6.30129C20.8177 6.83624 20.381 7.24962 19.7745 7.5171V7.63868H19.7259ZM19.0709 4.45323C19.0709 3.72375 18.9253 3.21313 18.6342 2.89702C18.3431 2.58091 17.8821 2.4107 17.2028 2.4107H16.4264V6.47155H17.227C17.8578 6.47155 18.3188 6.30131 18.6099 5.96088C18.9253 5.62046 19.0709 5.10977 19.0709 4.45323ZM19.2165 10.897C19.2165 10.1675 19.0709 9.60831 18.804 9.24357C18.5371 8.87883 18.0519 8.70857 17.3726 8.70857H16.4507V13.5961H17.4211C17.8093 13.5961 18.1247 13.5232 18.3673 13.3773C18.6099 13.2314 18.7797 13.0369 18.9011 12.7938C19.0224 12.5506 19.1194 12.2588 19.1437 11.9427C19.1922 11.6023 19.2165 11.2618 19.2165 10.897Z" />
<path d="M23.6562 15.8553V13.1318H26.1794V15.8553H23.6562Z" />
</svg>
