<svg width="934" height="1496" viewBox="0 0 934 1496"  xmlns="http://www.w3.org/2000/svg">
<path fill-rule="evenodd" clip-rule="evenodd" d="M437.799 794.183C437.799 799.483 436.598 803.483 434.198 806.183C431.799 808.883 428.099 810.282 422.999 810.282C417.898 810.282 414.198 808.983 411.898 806.383C409.598 803.782 408.398 800.083 408.398 795.183V764.583C408.398 762.183 408.698 759.982 409.198 758.083C409.799 756.083 410.599 754.382 411.799 752.982C412.999 751.583 414.499 750.483 416.398 749.683C418.298 748.883 420.498 748.482 423.098 748.482C425.898 748.482 428.198 748.883 430.098 749.583C431.998 750.282 433.498 751.383 434.598 752.782C435.698 754.182 436.499 755.883 436.999 757.883C437.499 759.883 437.698 762.083 437.698 764.583V794.183H437.799ZM428.299 763.782C428.299 762.083 427.898 760.583 427.198 759.282C426.499 757.982 425.098 757.282 423.098 757.282C421.998 757.282 421.098 757.482 420.398 757.982C419.698 758.482 419.198 759.083 418.799 759.782C418.399 760.482 418.198 761.283 417.999 762.183L417.969 762.447C417.88 763.241 417.799 763.962 417.799 764.683V795.282C417.799 796.883 418.198 798.282 418.999 799.482C419.799 800.782 421.098 801.383 423.098 801.383C424.998 801.383 426.398 800.683 427.198 799.383C427.999 798.083 428.398 796.482 428.398 794.583V763.782H428.299Z" />
<path fill-rule="evenodd" clip-rule="evenodd" d="M328.701 821.282V809.782H352.901V821.282H360.801V801.183H357.001V748.982H329.801L328.701 785.883C328.601 789.683 328.301 792.682 327.701 794.982C327.101 797.282 326.001 799.383 324.401 801.083L320.801 801.883V821.282H328.701ZM336.501 794.883C336.901 792.383 337.101 789.383 337.201 785.883L337.901 757.782H347.601V801.183H334.501C335.501 799.483 336.201 797.383 336.501 794.883Z" />
<path fill-rule="evenodd" clip-rule="evenodd" d="M396.698 782.982C395.698 780.482 393.898 778.882 391.198 777.982H391.298V777.582C393.698 776.582 395.298 774.982 396.298 772.882C397.198 770.782 397.698 768.382 397.698 765.582C397.698 760.182 396.498 756.082 394.098 753.282C391.598 750.482 387.798 749.082 382.398 749.082H369.098V809.882H381.698C387.198 809.882 391.398 808.382 394.098 805.382C396.798 802.382 398.198 797.682 398.198 791.382C398.198 788.182 397.698 785.382 396.698 782.982ZM386.998 759.682C388.098 760.882 388.698 762.882 388.698 765.682C388.698 768.182 388.098 770.182 386.998 771.582C385.798 772.882 383.998 773.582 381.598 773.582H378.498V757.882H381.498C384.098 757.882 385.898 758.482 386.998 759.682ZM387.598 784.182C388.698 785.582 389.198 787.682 389.198 790.582C389.198 791.982 389.098 793.282 388.998 794.682C388.798 795.982 388.498 797.082 387.998 797.982C387.498 798.882 386.798 799.582 385.898 800.182C384.998 800.682 383.798 800.982 382.298 800.982H378.498V782.082H382.098C384.698 782.082 386.598 782.782 387.598 784.182Z" />
<path fill-rule="evenodd" clip-rule="evenodd" d="M474.299 753.383C471.699 750.483 467.599 748.982 461.999 748.982V749.083H448.699V809.883H458.099V786.583H461.899C464.999 786.583 467.599 786.083 469.699 785.183C471.699 784.283 473.399 782.982 474.699 781.282C475.999 779.583 476.899 777.583 477.399 775.282C477.899 772.883 478.199 770.382 478.199 767.482C478.199 760.982 476.899 756.282 474.299 753.383ZM457.999 777.383V757.683H461.499C464.399 757.683 466.399 758.583 467.499 760.282C468.599 762.083 469.099 764.383 469.099 767.383C469.099 770.683 468.499 773.183 467.399 774.883C466.199 776.583 464.199 777.383 461.299 777.383H457.999Z" />
<path fill-rule="evenodd" clip-rule="evenodd" d="M515.699 794.183C515.699 799.483 514.499 803.483 512.099 806.183C509.699 808.883 505.999 810.282 500.899 810.282C495.799 810.282 492.099 808.983 489.799 806.383C487.499 803.782 486.299 800.083 486.299 795.183V764.583C486.299 762.183 486.599 759.982 487.099 758.083C487.699 756.083 488.499 754.382 489.699 752.982C490.899 751.583 492.399 750.483 494.299 749.683C496.199 748.883 498.399 748.482 500.999 748.482C503.799 748.482 506.099 748.883 507.999 749.583C509.899 750.282 511.399 751.383 512.499 752.782C513.599 754.182 514.399 755.883 514.899 757.883C515.399 759.883 515.599 762.083 515.599 764.583V794.183H515.699ZM506.199 763.782C506.199 762.083 505.799 760.583 505.099 759.282C504.399 757.982 502.999 757.282 500.999 757.282C499.899 757.282 498.999 757.482 498.299 757.982C497.599 758.482 497.099 759.083 496.699 759.782C496.299 760.482 496.099 761.283 495.899 762.183L495.869 762.447C495.78 763.241 495.699 763.962 495.699 764.683V795.282C495.699 796.883 496.099 798.282 496.899 799.482C497.699 800.782 498.999 801.383 500.999 801.383C502.899 801.383 504.299 800.683 505.099 799.383C505.899 798.083 506.299 796.482 506.299 794.583V763.782H506.199Z" />
<path fill-rule="evenodd" clip-rule="evenodd" d="M554.1 782.982C553.1 780.482 551.3 778.882 548.6 777.982H548.7V777.582C551.1 776.582 552.7 774.982 553.7 772.882C554.6 770.782 555.1 768.382 555.1 765.582C555.1 760.182 553.9 756.082 551.5 753.282C549 750.482 545.2 749.082 539.8 749.082H526.5V809.882H539.1C544.6 809.882 548.8 808.382 551.5 805.382C554.2 802.382 555.6 797.682 555.6 791.382C555.6 788.182 555.1 785.382 554.1 782.982ZM544.3 759.682C545.4 760.882 546 762.882 546 765.682C546 768.182 545.5 770.182 544.3 771.582C543.1 772.882 541.3 773.582 538.9 773.582H535.8V757.882H538.8C541.4 757.882 543.2 758.482 544.3 759.682ZM545 784.182C546.1 785.582 546.6 787.682 546.6 790.582C546.6 791.895 546.512 793.12 546.419 794.421L546.418 794.428L546.4 794.682C546.2 795.982 545.9 797.082 545.4 797.982C544.9 798.882 544.2 799.582 543.3 800.182C542.4 800.682 541.2 800.982 539.7 800.982H535.9V782.082H539.5C542.1 782.082 544 782.782 545 784.182Z" />
<path fill-rule="evenodd" clip-rule="evenodd" d="M588.1 809.783L585.7 797.083H574.5L573.3 803.383C573.27 803.539 573.241 803.694 573.212 803.85C573.16 804.135 573.109 804.421 573.059 804.706C573.005 805.014 572.953 805.323 572.901 805.631C572.85 805.932 572.8 806.232 572.75 806.533C572.669 807.014 572.589 807.496 572.507 807.977C572.468 808.2 572.429 808.422 572.39 808.645C572.329 808.991 572.266 809.337 572.2 809.683H562.6C563.691 804.115 564.813 798.577 565.932 793.052L565.961 792.908C566.882 788.36 567.801 783.822 568.7 779.283C569.608 774.696 570.537 770.109 571.468 765.513C572.587 759.988 573.708 754.45 574.8 748.883H585.3L597.6 809.683H588.1V809.783ZM579.8 763.083C579.564 764.732 579.329 766.382 579.093 768.026C578.729 770.567 578.364 773.093 578 775.583C577.4 779.783 576.7 783.983 575.9 788.283H584.2L580.3 763.083H579.8Z" />
<path fill-rule="evenodd" clip-rule="evenodd" d="M606.4 790.482L603 809.782H612.5L615.4 792.583C616 789.383 616.9 787.083 618.3 785.782C619.7 784.482 621.2 783.883 622.8 783.883H625.2V809.782H634.6V748.982H620.7C615.7 748.982 611.8 750.482 608.9 753.583C606 756.683 604.6 761.183 604.6 767.183C604.6 770.483 605.2 773.283 606.2 775.683C607.3 778.083 609.2 779.782 612 780.982C610.4 781.882 609.2 783.183 608.3 784.883C607.4 786.583 606.8 788.482 606.4 790.482ZM615.6 760.383C616.8 758.683 618.7 757.782 621.6 757.782V757.883H625.3V775.083H621.5C619.2 775.083 617.4 774.483 616 773.383C614.6 772.183 613.9 770.183 613.9 767.183C613.9 764.383 614.5 762.083 615.6 760.383Z" />
<path d="M696.199 748.982V809.782H686.799V757.782H677.599V781.183C677.599 786.083 677.399 790.182 677.099 793.482C676.799 796.782 676.099 799.583 675.199 801.883C674.299 804.183 672.999 805.982 671.399 807.482C669.799 808.882 667.799 810.182 665.299 811.282L661.699 804.282C663.199 803.383 664.499 802.483 665.399 801.383C666.399 800.383 667.099 799.083 667.699 797.583C668.299 796.083 668.699 794.183 668.899 792.083C669.099 789.883 669.199 787.183 669.199 783.883V748.982H696.199Z" />
<path d="M716.299 809.782L728.999 771.683H729.299V809.782H738.599V748.982H729.399L716.699 787.482H716.399V748.982H707.199V809.782H716.299Z" />
<path d="M758.9 757.782V809.782H749.5V748.982H775.8V757.782H758.9Z" />
<path fill-rule="evenodd" clip-rule="evenodd" d="M795.999 797.083L798.398 809.783V809.683H807.898L795.598 748.883H785.098C784.007 754.451 782.885 759.99 781.766 765.516C780.835 770.111 779.907 774.697 778.999 779.283C778.09 783.869 777.161 788.456 776.231 793.052C775.112 798.577 773.99 804.115 772.898 809.683H782.499C782.898 807.583 783.198 805.483 783.598 803.383L784.799 797.083H795.999ZM789.294 769.403C789.595 767.304 789.897 765.194 790.198 763.083H790.698L794.598 788.283H786.299C787.099 783.983 787.798 779.783 788.398 775.583C788.697 773.543 788.995 771.479 789.294 769.403Z" />
<path fill-rule="evenodd" clip-rule="evenodd" d="M629.3 961.283C629.3 963.483 629 965.383 628.3 967.083C627.6 968.783 626.6 970.283 625.3 971.483C624 972.683 622.5 973.683 620.8 974.283C619.1 974.883 617.2 975.283 615.3 975.283C613.3 975.283 611.4 974.983 609.6 974.283C607.9 973.683 606.3 972.683 605.1 971.483C603.8 970.283 602.8 968.783 602.1 967.083C601.4 965.383 601.1 963.383 601.1 961.283V927.583C601.1 925.383 601.5 923.483 602.2 921.683C602.9 919.983 603.9 918.483 605.2 917.183C606.5 915.983 608 914.983 609.7 914.383C611.4 913.783 613.3 913.383 615.3 913.383C619.5 913.383 622.9 914.683 625.5 917.183C628.1 919.683 629.4 923.083 629.4 927.483V961.283H629.3ZM617.7 927.083C617.7 926.283 617.5 925.683 617 925.283C616.5 924.883 615.9 924.583 615.3 924.583C614.7 924.583 614.1 924.783 613.5 925.283C612.9 925.683 612.7 926.283 612.7 927.083V961.783C612.7 962.483 613 963.083 613.5 963.483C614.1 963.883 614.6 964.183 615.3 964.183C615.9 964.183 616.5 963.983 617 963.483C617.5 963.083 617.7 962.483 617.7 961.783V927.083Z" />
<path d="M339.5 974.782V946.782H325.4V974.782H318.5V913.982H325.4V940.683H339.5V913.982H346.4V974.782H339.5Z" />
<path fill-rule="evenodd" clip-rule="evenodd" d="M380.1 974.782L377.3 961.282H363.8L361.1 974.782H354.5L367.4 913.982H373.9L387 974.782H380.1ZM370.4 926.482L367.9 940.583L365 954.782H376.2L373.2 940.383L370.8 926.383H370.4V926.482Z" />
<path fill-rule="evenodd" clip-rule="evenodd" d="M406.4 938.582H401.4V920.482H419V914.082H394.5V974.882H406.9C410 974.882 412.5 974.482 414.5 973.582C416.5 972.782 418 971.482 419.2 969.882C420.4 968.282 421.2 966.282 421.6 963.982C422.1 961.682 422.3 959.082 422.3 956.282C422.3 953.682 422.1 951.282 421.7 949.182C421.2 946.982 420.5 945.182 419.3 943.582C418.2 941.982 416.6 940.782 414.5 939.882C412.4 938.982 409.7 938.582 406.4 938.582ZM406.3 968.182H401.4V944.982H406.1C408.2 944.982 409.8 945.282 411.1 945.882C412.4 946.482 413.3 947.382 414 948.382C414.7 949.382 415.1 950.582 415.3 951.982C415.5 953.382 415.6 954.782 415.6 956.382C415.6 957.982 415.5 959.482 415.3 960.982C415.1 962.482 414.6 963.682 414 964.782C413.4 965.782 412.4 966.682 411.2 967.282C410 967.882 408.3 968.182 406.3 968.182Z" />
<path d="M431.301 974.782V913.982H457.301V920.383H438.201V940.683H454.801V947.083H438.201V968.383H457.301V974.782H431.301Z" />
<path fill-rule="evenodd" clip-rule="evenodd" d="M485.5 915.183C483.5 914.383 481 913.982 477.9 913.982H465.5V974.782H472.4V950.282H477.4C480.7 950.282 483.4 949.782 485.5 948.883C487.5 947.983 489.1 946.682 490.3 944.982C491.5 943.282 492.3 941.383 492.7 939.183C493.1 936.883 493.3 934.583 493.3 931.982C493.3 929.182 493 926.583 492.6 924.383C492.2 922.083 491.4 920.183 490.2 918.683C489.1 917.183 487.5 915.983 485.5 915.183ZM477.1 943.982H472.4V920.482H477.3C479.3 920.482 481 920.782 482.2 921.383C483.4 921.983 484.4 922.782 485 923.883C485.7 924.983 486.1 926.183 486.3 927.683C486.5 929.083 486.6 930.682 486.6 932.282C486.6 933.883 486.5 935.383 486.3 936.782C486.1 938.182 485.7 939.382 485 940.482C484.3 941.482 483.4 942.382 482.1 942.982C480.9 943.682 479.2 943.982 477.1 943.982Z" />
<path d="M523.699 932.083L508.299 974.782H501.799V913.982H508.399V956.982L508.699 957.083L523.899 913.982H530.399V974.782H523.799V932.083H523.699Z" />
<path d="M586.198 970.982C588.698 968.182 589.898 964.082 589.898 958.782H590.098V946.082C590.098 942.582 589.198 939.682 587.498 937.482C585.798 935.282 582.998 934.182 578.998 934.182C578.198 934.182 577.198 934.382 575.998 934.682C574.798 935.082 573.898 935.582 573.298 936.282L572.998 936.182V925.182H589.198V914.082H561.998V947.982H571.698C572.198 946.582 572.798 945.782 573.598 945.382C574.298 944.982 574.898 944.782 575.398 944.782C576.998 944.782 577.798 945.582 577.798 947.182V960.182C577.798 961.782 577.498 962.782 576.898 963.282C576.298 963.782 575.598 963.982 574.998 963.982C574.931 963.982 574.859 963.977 574.783 963.968C574.71 963.96 574.634 963.948 574.555 963.933C574.348 963.894 574.123 963.838 573.898 963.782C573.498 963.582 573.098 963.282 572.798 962.782C572.498 962.282 572.198 961.582 572.098 960.682C571.898 959.682 571.898 958.482 572.098 956.882L560.798 958.282C560.498 963.982 561.598 968.282 564.098 971.082C566.598 973.882 570.198 975.282 574.798 975.282C579.898 975.282 583.698 973.882 586.198 970.982Z" />
<path d="M324.699 1079.58L340.099 1036.88H340.199V1079.58H346.799V1018.78H340.299L325.099 1061.88L324.799 1061.78V1018.78H318.199V1079.58H324.699Z" />
<path d="M397.301 1079.58V1025.18H384.201V1079.58H377.301V1018.78H404.201V1079.58H397.301Z" />
<path d="M415.699 1018.78V1079.58H441.699V1073.18H422.599V1051.88H439.199V1045.48H422.599V1025.18H441.699V1018.78H415.699Z" />
<path fill-rule="evenodd" clip-rule="evenodd" d="M462.201 1018.78C465.301 1018.78 467.801 1019.18 469.801 1019.98C471.801 1020.78 473.401 1021.98 474.501 1023.48C475.701 1024.98 476.501 1026.88 476.901 1029.18C477.301 1031.38 477.601 1033.98 477.601 1036.78C477.601 1039.38 477.401 1041.68 477.001 1043.98C476.601 1046.18 475.801 1048.08 474.601 1049.78C473.401 1051.48 471.801 1052.78 469.801 1053.68C467.701 1054.58 465.001 1055.08 461.701 1055.08H456.701V1079.58H449.801V1018.78H462.201ZM456.701 1048.78H461.401C463.501 1048.78 465.201 1048.48 466.401 1047.78C467.701 1047.18 468.601 1046.28 469.301 1045.28C470.001 1044.18 470.401 1042.98 470.601 1041.58C470.801 1040.18 470.901 1038.68 470.901 1037.08C470.901 1035.48 470.801 1033.88 470.601 1032.48C470.401 1030.98 470.001 1029.78 469.301 1028.68C468.701 1027.58 467.701 1026.78 466.501 1026.18C465.301 1025.58 463.601 1025.28 461.601 1025.28H456.701V1048.78Z" />
<path d="M486.5 1018.78V1079.58H512.5V1073.18H493.4V1051.88H510V1045.48H493.4V1025.18H512.5V1018.78H486.5Z" />
<path d="M542.199 1036.88L526.799 1079.58H520.299V1018.78H526.899V1061.78L527.199 1061.88L542.399 1018.78H548.899V1079.58H542.299V1036.88H542.199Z" />
<path d="M528.943 1007.23C529.009 1007.45 529.091 1007.67 529.199 1007.88C529.499 1008.48 529.899 1009.08 530.399 1009.68C530.899 1010.28 531.499 1010.68 532.199 1011.08C532.899 1011.38 533.699 1011.58 534.599 1011.58C535.499 1011.58 536.399 1011.38 537.099 1011.08C537.799 1010.78 538.499 1010.28 538.999 1009.68C539.499 1009.08 539.899 1008.58 540.199 1007.88C540.499 1007.28 540.599 1006.58 540.599 1006.08H546.099C545.999 1007.18 545.699 1008.38 545.199 1009.58C544.699 1010.88 543.999 1011.98 543.099 1012.98C542.199 1013.98 540.999 1014.88 539.599 1015.58C538.199 1016.28 536.499 1016.58 534.599 1016.58C532.399 1016.58 530.599 1016.28 529.199 1015.58C527.699 1014.88 526.599 1013.98 525.699 1012.98C524.799 1011.98 524.099 1010.78 523.699 1009.58C523.299 1008.28 523.099 1007.18 523.099 1006.08H528.699C528.763 1006.47 528.827 1006.85 528.943 1007.23Z" />
<path fill-rule="evenodd" clip-rule="evenodd" d="M556.199 1091.18H562.299V1079.58H587.599V1091.18H593.699V1073.58H590.599V1018.78H564.799L563.799 1055.28C563.699 1058.18 563.499 1060.78 563.299 1062.88C563.099 1064.98 562.699 1066.78 562.299 1068.18C561.899 1069.58 561.399 1070.78 560.799 1071.58C560.199 1072.48 559.599 1073.08 558.799 1073.58L556.199 1073.98V1091.18ZM583.799 1024.78V1073.58H566.499C567.699 1071.68 568.599 1069.38 569.099 1066.48C569.699 1063.68 569.999 1060.08 570.099 1055.68L571.099 1024.78H583.799Z" />
<path d="M623.199 1036.88L607.799 1079.58H601.299V1018.78H607.899V1061.78L608.199 1061.88L623.399 1018.78H629.899V1079.58H623.299V1036.88H623.199Z" />
<path fill-rule="evenodd" clip-rule="evenodd" d="M344.8 1157.38C343.8 1154.98 342 1153.28 339.3 1152.48H339.2V1152.08C341.6 1150.78 343.3 1149.18 344.2 1147.28C345.1 1145.48 345.6 1142.88 345.6 1139.68C345.6 1134.58 344.6 1130.58 342.4 1127.78C340.2 1124.98 336.5 1123.58 331.3 1123.58H318.5V1184.28H330.2C335.7 1184.28 339.7 1182.88 342.3 1180.08C344.9 1177.18 346.2 1172.68 346.2 1166.38C346.2 1162.88 345.8 1159.88 344.8 1157.38ZM336.9 1132.38C338.3 1134.08 339 1136.48 339 1139.58C339 1142.68 338.3 1145.18 336.8 1146.78C335.4 1148.48 333.1 1149.28 329.9 1149.28H325.3V1129.88H330C333.2 1129.88 335.5 1130.68 336.9 1132.38ZM337.6 1158.08C338.9 1159.88 339.5 1162.48 339.5 1165.78C339.5 1167.48 339.4 1168.98 339.1 1170.58C338.9 1172.08 338.5 1173.38 337.9 1174.48C337.3 1175.58 336.4 1176.48 335.3 1177.18C334.1 1177.88 332.6 1178.18 330.7 1178.18H325.3V1155.38H330.4C333.9 1155.38 336.3 1156.28 337.6 1158.08Z" />
<path d="M385.6 1153.78C385.6 1159.38 385.4 1163.98 385 1167.68C384.6 1171.28 383.9 1174.28 383 1176.68C382.1 1179.08 380.9 1180.88 379.5 1182.28C378 1183.68 376.2 1184.98 374.1 1186.08L371 1181.08C371.946 1180.43 372.787 1179.72 373.598 1179.03L373.608 1179.03C373.804 1178.86 373.998 1178.7 374.192 1178.54C374.295 1178.45 374.397 1178.37 374.5 1178.28C375.5 1177.28 376.5 1176.08 377.2 1174.48C378 1172.98 378.5 1170.98 378.9 1168.58C379.3 1166.18 379.5 1163.08 379.5 1159.18V1123.58H404.8V1184.38H397.9V1129.98H385.7V1153.78H385.6Z" />
<path fill-rule="evenodd" clip-rule="evenodd" d="M454.001 1180.48C456.101 1177.48 457.101 1173.38 457.101 1167.98V1139.88C457.101 1137.48 456.901 1135.18 456.601 1133.18C456.201 1131.18 455.601 1129.38 454.601 1127.88C453.701 1126.38 452.301 1125.18 450.501 1124.38C448.701 1123.48 446.401 1123.08 443.501 1123.08C440.801 1123.08 438.501 1123.48 436.801 1124.48C435.101 1125.38 433.701 1126.68 432.701 1128.28C431.701 1129.88 431.001 1131.78 430.701 1133.78C430.401 1135.88 430.201 1137.88 430.201 1140.08V1150.28H423.201V1123.58H416.301V1184.28H423.201V1156.28H430.201V1169.98C430.201 1172.18 430.401 1174.28 430.901 1176.08C431.401 1177.88 432.201 1179.48 433.301 1180.78C434.301 1182.18 435.701 1183.18 437.401 1183.88C439.101 1184.58 441.101 1184.98 443.501 1184.98C448.401 1184.98 451.901 1183.48 454.001 1180.48ZM450.001 1135.58C450.101 1136.68 450.201 1137.78 450.201 1138.78H450.101V1168.78C450.101 1170.08 450.001 1171.18 449.801 1172.38C449.601 1173.58 449.301 1174.58 448.801 1175.48C448.301 1176.38 447.701 1177.08 446.801 1177.68C445.901 1178.28 444.801 1178.58 443.401 1178.58C442.101 1178.58 440.901 1178.38 440.101 1177.78C439.201 1177.28 438.601 1176.58 438.101 1175.68C437.601 1174.78 437.301 1173.88 437.201 1172.88L437.174 1172.62V1172.61C437.083 1171.72 437.001 1170.9 437.001 1170.08V1140.68C437.001 1139.78 437.001 1138.68 437.101 1137.38C437.201 1136.08 437.401 1134.88 437.801 1133.68C438.201 1132.48 438.801 1131.48 439.701 1130.68C440.601 1129.78 441.801 1129.38 443.501 1129.38C445.001 1129.38 446.201 1129.68 447.101 1130.28C448 1130.88 448.601 1131.68 449.101 1132.58C449.601 1133.48 449.901 1134.48 450.001 1135.58Z" />
<path fill-rule="evenodd" clip-rule="evenodd" d="M474.699 1148.08H479.699C482.999 1148.08 485.699 1148.48 487.799 1149.38C489.899 1150.28 491.499 1151.48 492.599 1153.08C493.799 1154.68 494.499 1156.48 494.999 1158.68C495.399 1160.78 495.599 1163.18 495.599 1165.78C495.599 1168.58 495.399 1171.18 494.899 1173.48C494.499 1175.78 493.699 1177.78 492.499 1179.38C491.299 1180.98 489.799 1182.28 487.799 1183.08C485.799 1183.98 483.299 1184.38 480.199 1184.38H467.799V1123.58H492.299V1129.98H474.699V1148.08ZM474.699 1177.78H479.599C481.599 1177.78 483.299 1177.48 484.499 1176.88C485.699 1176.28 486.699 1175.38 487.299 1174.38C487.899 1173.28 488.399 1172.08 488.599 1170.58C488.799 1169.08 488.899 1167.58 488.899 1165.98C488.899 1164.38 488.799 1162.98 488.599 1161.58C488.399 1160.18 487.999 1158.98 487.299 1157.98C486.599 1156.98 485.699 1156.08 484.399 1155.48C483.099 1154.88 481.499 1154.58 479.399 1154.58H474.699V1177.78Z" />
<path d="M510.799 1184.38L526.199 1141.68H526.299V1184.38H532.899V1123.58H526.399L511.199 1166.68L510.899 1166.58V1123.58H504.299V1184.38H510.799Z" />
<path d="M557.3 1129.98V1184.38H550.4V1129.98H540.1V1123.58H567.6V1129.98H557.3Z" />
<path d="M575 1123.58V1184.38H601V1177.98H581.9V1156.68H598.5V1150.28H581.9V1129.98H601V1123.58H575Z" />
<path d="M618.7 1153.78C618.7 1159.38 618.5 1163.98 618.1 1167.68C617.7 1171.28 617 1174.28 616.1 1176.68C615.2 1179.08 614 1180.88 612.6 1182.28C611.1 1183.68 609.3 1184.98 607.2 1186.08L604.1 1181.08C605.046 1180.43 605.886 1179.72 606.698 1179.03C607.001 1178.78 607.3 1178.53 607.6 1178.28C608.6 1177.28 609.6 1176.08 610.3 1174.48C611.1 1172.98 611.6 1170.98 612 1168.58C612.4 1166.18 612.6 1163.08 612.6 1159.18V1123.58H637.9V1184.38H631V1129.98H618.8V1153.78H618.7Z" />
<path fill-rule="evenodd" clip-rule="evenodd" d="M649.1 1123.58V1184.38H661.5C664.6 1184.38 667.1 1183.98 669.1 1183.08C671.1 1182.28 672.6 1180.98 673.8 1179.38C675 1177.78 675.8 1175.78 676.2 1173.48C676.7 1171.18 676.9 1168.58 676.9 1165.78C676.9 1163.18 676.7 1160.78 676.3 1158.68C675.8 1156.48 675.1 1154.68 673.9 1153.08C672.8 1151.48 671.2 1150.28 669.1 1149.38C667 1148.48 664.3 1148.08 661 1148.08H656V1123.58H649.1ZM660.9 1177.78H656V1154.58H660.7C662.8 1154.58 664.4 1154.88 665.7 1155.48C667 1156.08 667.9 1156.98 668.6 1157.98C669.3 1158.98 669.7 1160.18 669.9 1161.58C670.008 1162.34 670.087 1163.1 670.137 1163.9C670.157 1164.22 670.173 1164.55 670.183 1164.89C670.194 1165.24 670.2 1165.61 670.2 1165.98C670.2 1167.58 670.1 1169.08 669.9 1170.58C669.7 1172.08 669.2 1173.28 668.6 1174.38C668 1175.38 667 1176.28 665.8 1176.88C664.6 1177.48 662.9 1177.78 660.9 1177.78Z" />
<path d="M699.1 1123.08C703.8 1123.08 707.2 1124.38 709.4 1126.88C711.5 1129.48 712.6 1132.78 712.6 1136.88L705.7 1138.08C705.8 1135.38 705.3 1133.28 704.3 1131.68C703.3 1130.08 701.5 1129.28 699.1 1129.28C697.7 1129.28 696.6 1129.58 695.7 1130.28C694.8 1130.88 694.1 1131.68 693.6 1132.68C693.1 1133.68 692.8 1134.68 692.6 1135.88C692.475 1136.63 692.389 1137.34 692.343 1138.01C692.314 1138.42 692.3 1138.81 692.3 1139.18V1169.88C692.3 1170.19 692.312 1170.49 692.334 1170.8L692.341 1170.89L692.352 1171.02L692.365 1171.15C692.38 1171.3 692.397 1171.45 692.418 1171.6C692.465 1171.95 692.525 1172.31 692.6 1172.68C692.8 1173.68 693.1 1174.68 693.6 1175.48C694.1 1176.28 694.8 1177.08 695.6 1177.58C696.4 1178.18 697.6 1178.48 699 1178.48C701.3 1178.48 702.9 1177.78 704 1176.38C705.1 1174.98 705.6 1172.78 705.7 1169.78L712.8 1170.98C712.7 1175.38 711.5 1178.78 709.3 1181.18C707.1 1183.58 703.7 1184.88 699.2 1184.88C694.6 1184.88 691.2 1183.58 688.9 1181.08C686.6 1178.48 685.5 1174.88 685.5 1170.28V1140.28C685.5 1138.08 685.7 1135.98 686.1 1133.98C686.5 1131.88 687.2 1130.08 688.2 1128.48C689.2 1126.88 690.6 1125.58 692.4 1124.58C694 1123.58 696.3 1123.08 699.1 1123.08Z" />
<path d="M721.699 1123.58V1184.38H728.799V1156.58H732.299C733.299 1156.58 734.399 1156.68 735.399 1156.88C736.399 1157.08 737.399 1157.48 738.299 1158.18C739.199 1158.88 739.999 1159.78 740.699 1161.08C741.399 1162.28 741.899 1163.98 742.399 1165.98L746.299 1184.28H753.199L748.799 1164.68C748.199 1161.68 747.199 1159.18 745.999 1157.08C744.799 1155.08 743.099 1153.58 740.799 1152.78C742.499 1152.08 743.999 1150.78 745.299 1148.78C746.599 1146.78 747.599 1144.28 748.199 1141.28L752.199 1123.48H745.899L741.699 1141.08C741.199 1143.08 740.599 1144.68 739.799 1145.88C738.999 1147.08 738.199 1147.98 737.299 1148.58C736.399 1149.18 735.499 1149.58 734.499 1149.78C733.499 1149.98 732.599 1150.08 731.699 1150.08H728.599V1123.58H721.699Z" />
<path d="M772.699 1157.58L780.699 1123.58H787.299L775.099 1170.28C774.199 1173.68 773.299 1176.38 772.299 1178.38C771.299 1180.38 770.299 1181.78 769.199 1182.78C768.199 1183.78 767.099 1184.38 765.999 1184.58C765.475 1184.73 764.95 1184.82 764.416 1184.9C763.828 1184.98 763.227 1185.03 762.599 1185.08H759.299V1179.78H762.399C763.599 1179.78 764.799 1179.18 765.799 1177.88C766.899 1176.58 767.799 1174.68 768.499 1171.98L769.499 1168.28L756.299 1123.68H763.099L772.299 1157.68L772.699 1157.58Z" />
<path fill-rule="evenodd" clip-rule="evenodd" d="M832.399 1180.48C834.499 1177.48 835.499 1173.38 835.499 1167.98V1139.88C835.499 1137.48 835.299 1135.18 834.999 1133.18C834.599 1131.18 833.999 1129.38 832.999 1127.88C832.099 1126.38 830.699 1125.18 828.899 1124.38C827.099 1123.48 824.799 1123.08 821.899 1123.08C819.199 1123.08 816.899 1123.48 815.199 1124.48C813.499 1125.38 812.099 1126.68 811.099 1128.28C810.099 1129.88 809.399 1131.78 809.099 1133.78C808.799 1135.88 808.599 1137.88 808.599 1140.08V1150.28H801.599V1123.58H794.699V1184.28H801.599V1156.28H808.599V1169.98C808.599 1172.18 808.799 1174.28 809.299 1176.08C809.799 1177.88 810.599 1179.48 811.699 1180.78C812.699 1182.18 814.099 1183.18 815.799 1183.88C817.499 1184.58 819.499 1184.98 821.899 1184.98C826.799 1184.98 830.299 1183.48 832.399 1180.48ZM828.399 1135.58C828.499 1136.68 828.599 1137.78 828.599 1138.78H828.499V1168.78C828.499 1170.08 828.399 1171.18 828.199 1172.38C827.999 1173.58 827.699 1174.58 827.199 1175.48C826.699 1176.38 826.099 1177.08 825.199 1177.68C824.299 1178.28 823.199 1178.58 821.799 1178.58C820.499 1178.58 819.299 1178.38 818.499 1177.78C817.599 1177.28 816.999 1176.58 816.499 1175.68C815.999 1174.78 815.699 1173.88 815.599 1172.88C815.499 1171.88 815.399 1170.98 815.399 1170.08V1140.68C815.399 1139.78 815.399 1138.68 815.499 1137.38C815.599 1136.08 815.799 1134.88 816.199 1133.68C816.599 1132.48 817.199 1131.48 818.099 1130.68C818.999 1129.78 820.199 1129.38 821.899 1129.38C823.399 1129.38 824.599 1129.68 825.499 1130.28C826.399 1130.88 826.999 1131.68 827.499 1132.58C827.999 1133.48 828.299 1134.48 828.399 1135.58Z" />
<path d="M328.1 1258.58C328.1 1264.18 327.9 1268.78 327.5 1272.48C327.1 1276.08 326.4 1279.08 325.5 1281.48C324.6 1283.88 323.4 1285.68 322 1287.08C320.5 1288.48 318.7 1289.78 316.6 1290.88L313.5 1285.88C314.446 1285.23 315.287 1284.52 316.098 1283.84L316.108 1283.83C316.249 1283.71 316.39 1283.59 316.53 1283.47C316.687 1283.34 316.844 1283.21 317 1283.08C318 1282.08 319 1280.88 319.7 1279.28C320.5 1277.78 321 1275.78 321.4 1273.38C321.8 1270.98 322 1267.88 322 1263.98V1228.38H347.3V1289.18H340.4V1234.78H328.2V1258.58H328.1Z" />
<path d="M364.801 1289.18L380.201 1246.48H380.301V1289.18H386.901V1228.38H380.401L365.201 1271.48L364.901 1271.38V1228.38H358.301V1289.18H364.801Z" />
<path d="M405.201 1234.78V1289.18H398.301V1228.38H422.901V1234.78H405.201Z" />
<path d="M451.701 1228.38L443.701 1262.38L443.301 1262.48L434.101 1228.48H427.301L440.501 1273.08L439.501 1276.78C438.801 1279.48 437.901 1281.38 436.801 1282.68C435.801 1283.98 434.601 1284.58 433.401 1284.58H430.301V1289.88H433.601C434.801 1289.78 435.901 1289.68 437.001 1289.38C438.101 1289.18 439.201 1288.58 440.201 1287.58C441.301 1286.58 442.301 1285.18 443.301 1283.18C444.301 1281.18 445.201 1278.48 446.101 1275.08L458.301 1228.38H451.701Z" />
<path d="M687.999 913.781H690.499C690.599 913.781 690.698 913.781 690.799 913.881H690.801C691.1 913.881 691.399 913.881 691.698 913.981C693.098 914.081 694.599 914.281 695.999 914.581C698.999 915.181 701.898 916.181 704.698 917.681C708.698 919.781 712.099 922.481 714.999 925.881C718.198 929.681 720.398 933.981 721.698 938.781C722.098 940.181 722.299 941.581 722.499 942.981C722.599 943.881 722.698 944.781 722.698 945.781V949.081C722.698 949.581 722.698 950.081 722.598 950.581C722.498 951.781 722.299 953.081 721.999 954.281C721.398 957.281 720.398 960.081 718.999 962.781C717.299 966.081 714.999 969.081 712.299 971.681C711.299 972.681 710.298 973.481 709.098 974.381C708.998 974.481 708.899 974.581 708.799 974.581L708.7 974.682C706.8 976.082 704.8 977.182 702.6 978.082C700.3 979.082 697.8 979.882 695.3 980.281C693.9 980.481 692.6 980.681 691.2 980.781H687.5C687.4 980.781 687.3 980.782 687.2 980.682L684.2 980.382C682.3 980.082 680.5 979.682 678.7 979.082C675.5 977.981 672.6 976.481 669.8 974.582C669.736 974.517 669.671 974.453 669.607 974.415C669.571 974.394 669.536 974.382 669.5 974.382C669.562 974.32 669.624 974.296 669.709 974.264C669.762 974.244 669.823 974.22 669.9 974.182C673.05 971.882 676.225 969.582 679.4 967.282C682.575 964.982 685.75 962.682 688.9 960.382C688.948 960.333 688.997 960.285 689.045 960.248C689.097 960.208 689.148 960.182 689.2 960.182C689.3 960.282 689.4 960.281 689.5 960.382C690.5 961.082 691.5 961.882 692.5 962.582C695.15 964.531 697.8 966.457 700.45 968.382C703.1 970.307 705.75 972.232 708.4 974.182C708.514 974.22 708.6 974.258 708.673 974.291C708.682 974.295 708.691 974.299 708.7 974.303C708.699 974.296 708.698 974.288 708.698 974.281C708.471 973.586 708.244 972.893 708.017 972.201L707.689 971.201C706.329 967.056 704.981 962.951 703.698 958.781C703.3 957.587 702.927 956.417 702.553 955.248L702.548 955.231C702.173 954.056 701.798 952.881 701.398 951.681C701.398 951.647 701.387 951.614 701.372 951.58C701.365 951.563 701.357 951.547 701.349 951.531C701.324 951.481 701.299 951.431 701.299 951.381C701.399 951.281 701.499 951.281 701.499 951.181C704.094 949.293 706.668 947.428 709.241 945.563L709.904 945.082C712.561 943.157 715.218 941.231 717.898 939.281C718.348 938.931 718.823 938.606 719.298 938.281C719.773 937.956 720.249 937.631 720.698 937.281C720.76 937.281 720.784 937.244 720.793 937.192C720.799 937.159 720.799 937.12 720.799 937.081H696.598V936.881L689.398 914.681C689.398 914.581 689.299 914.481 689.299 914.381V914.181C688.899 915.481 688.499 916.781 687.999 918.081C687.599 919.381 687.198 920.681 686.799 921.881C686.399 923.181 685.999 924.481 685.499 925.781C685.099 927.081 684.698 928.381 684.198 929.681C683.799 930.981 683.398 932.281 682.999 933.481C682.599 934.781 682.198 936.081 681.698 937.381H658.21C661.225 939.581 664.262 941.781 667.299 943.981C670.474 946.281 673.649 948.581 676.799 950.881C676.834 950.916 676.868 950.939 676.903 950.958C676.918 950.966 676.934 950.974 676.95 950.982C677 951.007 677.049 951.031 677.099 951.081C677.099 951.131 677.074 951.181 677.049 951.231C677.024 951.281 676.999 951.331 676.999 951.381C676.924 951.583 676.854 951.785 676.788 951.985C676.741 952.126 676.696 952.268 676.651 952.407C676.508 952.852 676.37 953.283 676.199 953.681L676.184 953.729C674.089 960.213 671.994 966.697 669.799 973.281L669.499 974.181C669.449 974.131 669.399 974.106 669.349 974.081C669.299 974.056 669.249 974.031 669.199 973.981C666.099 971.681 663.399 968.881 661.299 965.581C657.899 960.381 655.999 954.781 655.799 948.581C655.799 948.581 655.699 948.281 655.699 947.981V946.581C655.799 946.381 655.799 946.081 655.799 945.781V944.981C655.899 943.781 655.999 942.581 656.199 941.381C656.499 939.881 656.799 938.481 657.299 937.081C657.299 937.051 657.309 937.02 657.322 936.989C657.351 936.92 657.399 936.851 657.399 936.781C657.447 936.829 657.494 936.876 657.552 936.923C659.259 931.888 662.138 927.442 665.898 923.681C669.499 920.181 673.598 917.681 678.398 915.981C681.398 914.981 684.498 914.381 687.598 914.181C687.668 913.903 687.787 913.867 687.886 913.837C687.929 913.823 687.968 913.812 687.999 913.781Z" fill="#FFED00"/>
<path d="M574.841 416.698C574.841 416.498 574.841 416.298 574.841 415.998C574.841 414.798 574.641 413.499 574.542 412.299C574.442 411.099 574.242 409.999 574.142 408.799C573.942 407.1 573.642 405.4 573.342 403.8C572.642 400.001 571.643 396.202 570.543 392.503C566.645 379.905 560.748 368.408 552.751 358.01C542.756 345.112 530.461 335.014 515.968 327.616C509.071 324.116 501.874 321.417 494.377 319.617C491.879 319.017 489.38 318.418 486.881 318.018C484.982 317.718 483.183 317.418 481.283 317.218C479.784 317.018 478.185 316.818 476.685 316.718C475.186 316.618 473.687 316.418 472.187 316.418C471.688 316.418 471.188 316.418 470.688 316.418C470.488 316.418 470.288 316.418 470.089 316.318H464.391C464.191 316.318 464.091 316.418 463.891 316.418C463.691 316.418 463.491 316.418 463.191 316.418C461.492 316.418 459.893 316.518 458.194 316.718C457.194 316.818 456.295 316.918 455.295 317.018C454.595 317.118 453.996 317.218 453.296 317.218C449.298 317.718 445.299 318.418 441.401 319.417C434.704 321.117 428.307 323.517 422.01 326.516C415.213 329.815 408.816 333.614 402.719 338.114C396.322 342.813 390.424 348.212 385.227 354.31C379.929 360.509 375.531 367.208 371.833 374.506C368.234 381.605 365.435 389.103 363.436 396.802C362.537 400.001 361.837 403.3 361.237 406.6C360.937 408 360.738 409.399 360.638 410.799C360.338 412.999 360.138 415.298 359.838 417.498C359.838 417.698 359.938 430.595 359.938 430.595C360.038 431.495 360.138 431.995 360.238 432.695C360.338 433.294 360.338 433.994 360.438 434.594C360.638 436.494 360.838 438.393 361.037 440.193C361.337 442.693 361.837 445.192 362.337 447.692C363.736 453.79 365.635 459.689 368.034 465.488C374.032 479.785 382.528 492.283 393.823 502.881C405.118 513.478 418.112 521.277 432.805 526.376C437.003 527.776 441.202 528.975 445.6 529.875C447.499 530.275 449.398 530.675 451.397 530.875C452.596 531.075 453.696 531.175 454.895 531.375C455.695 531.475 456.594 531.575 457.394 531.675C459.093 531.775 460.793 531.975 462.492 532.075C462.692 532.075 462.892 532.075 462.992 532.175H472.088C472.288 532.075 472.487 532.075 472.587 532.075C473.687 531.975 474.786 531.875 475.886 531.875C476.885 531.775 477.885 531.675 478.884 531.575C479.484 531.475 480.184 531.475 480.784 531.375C487.581 530.575 494.178 529.075 500.575 526.976C511.27 523.476 521.265 518.477 530.361 511.879C544.455 501.681 555.35 488.883 563.346 473.486C567.345 465.688 570.343 457.49 572.442 448.891C573.042 446.192 573.642 443.392 574.042 440.593C574.342 438.593 574.541 436.694 574.841 434.694C574.941 433.694 574.941 432.695 575.041 431.795C575.041 431.495 575.041 431.095 575.241 430.795V417.898C575.241 417.798 575.141 417.598 575.141 417.498C574.841 416.998 574.841 416.898 574.841 416.698ZM536.858 353.51C537.658 353.61 538.458 353.61 539.257 353.71C539.857 353.81 540.457 354.01 540.856 354.51C541.556 355.31 542.356 356.11 543.056 357.01C549.053 363.708 554.051 371.107 557.949 379.205C559.848 383.105 561.547 387.104 562.947 391.203C563.047 391.403 563.146 391.703 563.146 391.903C563.246 392.203 563.146 392.303 562.847 392.303C562.647 392.303 562.447 392.303 562.247 392.303C561.048 392.203 559.848 392.103 558.649 392.003C558.349 392.003 558.049 392.003 557.749 391.903C553.951 391.703 550.152 391.603 546.254 391.703C544.355 391.703 542.456 391.803 540.557 392.003C539.457 392.103 538.258 392.203 537.158 392.303C536.359 392.403 535.559 392.403 534.759 392.503C533.46 392.703 532.061 392.803 530.761 393.003C529.462 393.203 528.162 393.402 526.863 393.602C525.064 393.902 523.264 394.302 521.465 394.602C517.467 395.402 513.569 396.402 509.771 397.602C494.378 402.301 480.084 409.099 466.79 418.197C465.59 418.997 464.391 419.897 463.191 420.697C462.992 420.797 462.792 420.997 462.692 421.097C462.292 421.297 461.792 421.397 461.292 421.197C459.793 420.397 458.194 419.697 456.694 418.897C448.498 414.598 440.602 409.699 433.305 404.1C429.907 401.501 426.708 398.801 423.609 395.902C423.41 395.802 423.31 395.602 423.11 395.402C422.71 395.002 422.71 395.002 423.11 394.702C425.908 392.503 428.807 390.203 431.706 388.104C440.902 381.405 450.497 375.306 460.693 370.207C468.389 366.308 476.286 362.909 484.482 360.109C489.28 358.509 494.277 357.01 499.175 355.91C501.574 355.41 503.973 354.91 506.372 354.51C508.271 354.21 510.27 353.91 512.169 353.61C513.669 353.41 515.268 353.311 516.767 353.111C521.066 352.711 525.364 352.711 529.762 352.811C531.261 352.811 532.76 353.011 534.16 353.111C535.159 353.41 536.059 353.51 536.858 353.51ZM455.695 329.015C460.293 327.016 465.091 325.316 469.988 324.016C470.688 323.816 471.388 323.716 471.988 323.517C472.987 323.317 473.887 323.317 474.886 323.317C476.186 323.317 477.385 323.417 478.685 323.517C481.383 323.816 484.082 324.216 486.781 324.716C495.577 326.416 503.973 329.215 512.07 333.115C519.466 336.814 526.363 341.313 532.66 346.612C532.86 346.812 533.06 347.012 533.26 347.212C533.26 347.312 533.16 347.412 533.16 347.412C533.06 347.412 532.86 347.412 532.76 347.412C532.061 347.412 531.461 347.412 530.761 347.312C527.862 347.212 525.064 347.212 522.165 347.312C520.466 347.412 518.767 347.512 517.067 347.612C516.068 347.712 515.068 347.812 514.069 347.912C513.369 348.012 512.769 348.012 512.07 348.112C509.671 348.312 507.272 348.711 504.973 349.111C500.375 349.911 495.877 350.911 491.379 352.211C483.682 354.41 476.086 357.11 468.789 360.309C456.495 365.708 444.8 372.307 433.805 379.905C429.007 383.205 424.309 386.704 419.811 390.403C419.511 390.603 419.311 390.803 419.011 391.003C418.911 391.103 418.711 391.103 418.711 391.003C418.612 390.903 418.512 390.803 418.412 390.703C416.113 388.004 413.814 385.404 411.515 382.705C410.115 381.005 408.716 379.205 407.517 377.406C406.517 375.906 405.417 374.406 404.418 373.007C403.818 372.107 403.818 372.007 404.418 371.107C405.817 369.007 407.417 366.908 408.916 364.908C417.112 354.51 426.708 345.812 437.803 338.613C443.4 335.114 449.398 331.815 455.695 329.015ZM453.296 324.016C453.396 323.916 453.396 323.916 453.296 324.016C453.396 324.016 453.396 324.016 453.296 324.016ZM395.122 353.211C395.322 352.911 395.622 352.711 395.822 352.411C397.421 350.911 399.02 349.311 400.72 347.912C405.717 343.613 411.015 339.713 416.812 336.414C424.209 332.115 431.906 328.915 440.102 326.616C443.001 325.816 445.899 325.116 448.898 324.616C449.997 324.416 451.097 324.216 452.296 324.016C452.596 324.016 452.896 323.916 453.096 323.916C453.196 323.916 453.296 323.916 453.296 324.016C453.096 324.216 452.896 324.316 452.696 324.416C451.097 325.116 449.598 325.916 447.998 326.616C435.904 332.615 425.009 340.313 415.413 349.711C410.315 354.71 405.617 360.109 401.319 365.908C401.12 366.108 401.02 366.408 400.82 366.608C400.72 366.708 400.52 366.708 400.52 366.608C400.42 366.408 400.32 366.108 400.22 365.908C399.32 363.908 398.421 361.909 397.521 359.809C396.821 358.21 396.022 356.51 395.322 354.91C395.222 354.61 395.122 354.41 395.022 354.11C394.822 353.81 394.822 353.51 395.122 353.211ZM372.832 388.104C373.532 386.204 374.232 384.404 375.131 382.605C378.93 374.006 383.927 366.208 389.924 359.009C390.024 358.809 390.224 358.709 390.424 358.509C390.424 358.509 390.524 358.509 390.624 358.509C390.724 358.709 390.824 359.009 390.924 359.209C392.323 362.809 394.023 366.308 395.922 369.707C399.42 376.206 403.618 382.205 408.316 387.804C413.514 394.002 419.211 399.601 425.408 404.8C432.505 410.699 440.102 415.898 447.998 420.497C451.497 422.497 454.995 424.396 458.594 426.196C458.894 426.296 459.193 426.496 459.393 426.596C460.093 426.996 460.693 427.596 461.093 428.395C461.392 428.995 461.592 429.595 461.892 430.095C463.891 434.794 465.491 439.693 466.79 444.692C467.59 447.692 468.189 450.691 468.789 453.79C468.789 453.99 468.889 454.19 468.889 454.39C468.889 454.49 468.889 454.59 468.889 454.69C468.889 454.79 468.789 454.89 468.689 454.89C468.589 454.89 468.489 454.89 468.389 454.89C466.49 454.49 464.691 454.19 462.792 453.79C460.093 453.191 457.394 452.491 454.695 451.691C445.2 448.791 436.104 444.692 427.508 439.693C420.311 435.494 413.414 430.695 406.917 425.496C399.22 419.297 392.024 412.499 385.327 405.2C381.129 400.601 377.13 395.802 373.332 390.803C373.132 390.603 373.032 390.403 372.832 390.203C372.632 389.403 372.532 388.803 372.832 388.104ZM367.235 433.694C366.835 432.994 366.535 432.295 366.535 431.495C366.535 430.995 366.435 430.395 366.435 429.895C366.235 426.196 366.235 422.597 366.435 418.897C366.535 417.598 366.635 416.298 366.735 414.898C366.835 414.198 366.835 413.498 366.935 412.699C367.534 407.2 368.534 401.801 370.033 396.402C370.133 396.202 370.133 396.002 370.233 395.802C370.233 395.702 370.433 395.702 370.433 395.702C370.633 395.902 370.733 396.102 370.933 396.302C372.232 397.902 373.532 399.401 374.831 401.001C381.029 408.399 387.526 415.398 394.622 421.897C402.319 428.895 410.415 435.294 419.211 440.793C427.408 445.992 435.904 450.291 444.9 453.89C449.298 455.59 453.696 457.09 458.294 458.29C460.893 458.989 463.491 459.489 466.19 459.889C466.99 459.989 467.789 460.089 468.489 460.289C468.689 460.289 468.989 460.389 469.189 460.489C469.489 460.589 469.689 460.789 469.789 461.089C469.889 461.289 469.889 461.489 469.988 461.689C470.088 462.789 470.288 463.788 470.288 464.888C470.388 466.288 470.488 467.688 470.588 469.187C470.588 469.787 470.688 470.287 470.688 470.887C470.688 472.487 470.788 474.186 470.788 475.986C470.788 477.786 470.688 479.785 470.588 481.685C470.488 483.084 470.388 484.384 470.288 485.784C470.188 486.684 470.088 487.684 469.988 488.583C469.889 489.783 469.689 490.983 469.589 492.183C469.389 493.582 469.189 495.082 468.889 496.482C468.789 497.082 468.589 497.682 468.489 498.381C468.489 498.481 468.389 498.581 468.389 498.781C468.389 498.881 468.189 498.981 468.089 498.981C467.49 498.881 466.89 498.781 466.19 498.681C464.891 498.481 463.691 498.181 462.392 497.981C458.494 497.282 454.695 496.582 450.897 495.682C445 494.182 439.202 492.383 433.505 490.083C419.211 484.484 406.317 476.586 394.622 466.488C385.327 458.489 377.33 449.391 370.533 439.193C369.534 437.394 368.334 435.494 367.235 433.694ZM462.892 517.278C461.992 519.377 461.192 521.477 460.293 523.576C460.193 523.876 459.993 524.176 459.893 524.376C459.793 524.576 459.493 524.776 459.293 524.776C459.093 524.776 458.893 524.776 458.693 524.776C458.094 524.776 457.394 524.676 456.794 524.576C456.095 524.476 455.395 524.376 454.695 524.376C439.502 522.477 425.409 517.478 412.614 509.079C404.418 503.68 397.121 497.382 390.624 489.983C383.627 481.985 378.13 472.986 374.032 463.188C371.933 458.089 370.233 452.891 368.934 447.592C368.934 447.492 368.934 447.392 368.934 447.192V447.092C369.034 447.092 369.034 447.092 369.134 447.092C369.334 447.292 369.534 447.492 369.634 447.792C373.732 452.991 378.03 457.989 382.728 462.689C392.024 472.087 402.419 480.085 413.914 486.584C421.41 490.783 429.207 494.282 437.403 497.082C442.601 498.881 447.898 500.381 453.296 501.581C455.995 502.181 458.694 502.78 461.492 503.18C463.092 503.48 464.691 503.68 466.39 503.98C466.59 503.98 466.89 504.08 467.09 504.18C467.09 504.38 467.09 504.48 466.99 504.68C466.39 506.88 465.79 508.979 465.091 511.079C464.491 513.378 463.691 515.278 462.892 517.278ZM504.773 511.479C504.073 513.478 503.273 515.478 502.374 517.478C502.274 517.678 502.174 517.977 502.074 518.177C501.674 518.977 501.075 519.477 500.275 519.777C498.576 520.377 496.876 520.877 495.177 521.477C491.979 522.377 488.88 523.176 485.582 523.776C483.682 524.076 481.883 524.376 479.984 524.576C478.385 524.776 476.885 524.876 475.286 525.076C472.287 525.276 469.289 525.376 466.29 525.276C466.19 525.276 466.09 525.276 465.89 525.276C465.89 525.176 465.89 525.076 465.89 524.976C465.99 524.576 466.19 524.276 466.29 523.876C467.39 521.277 468.489 518.577 469.489 515.878C471.388 510.679 472.887 505.48 473.987 500.081C474.486 497.782 474.886 495.382 475.186 493.082C475.386 491.883 475.486 490.683 475.686 489.383C475.886 487.684 475.986 485.884 476.186 484.184C476.186 484.084 476.186 483.984 476.186 483.884C476.386 479.985 476.485 475.986 476.385 472.087C476.286 469.987 476.186 467.888 475.986 465.888C475.786 463.888 475.586 461.789 475.286 459.789C474.986 457.19 474.586 454.69 474.087 452.091C473.087 446.992 471.788 441.993 470.188 437.094C469.089 433.694 467.789 430.295 466.39 426.996C466.29 426.796 466.19 426.496 466.09 426.296C465.99 426.096 466.09 425.896 466.19 425.796C466.39 425.596 466.59 425.396 466.89 425.296C473.287 420.597 479.984 416.498 487.081 412.999C489.18 411.899 491.279 410.899 493.378 409.999C493.578 409.899 493.678 409.899 493.878 409.799C494.078 409.699 494.178 409.799 494.278 409.899C494.378 409.999 494.377 410.099 494.477 410.199C497.076 417.298 499.875 424.396 502.374 431.495C503.673 435.294 504.973 439.193 505.972 443.092C506.872 446.392 507.572 449.691 508.171 452.991C508.571 455.09 508.871 457.29 509.171 459.489C509.371 460.789 509.471 462.089 509.671 463.388C509.771 464.388 509.871 465.288 509.97 466.288C510.07 467.188 510.17 468.187 510.17 469.087C510.37 473.186 510.47 477.186 510.37 481.285C510.27 482.885 510.27 484.484 510.071 485.984C509.971 486.984 509.871 487.984 509.771 488.983C509.671 490.083 509.571 491.283 509.371 492.383C509.071 494.082 508.871 495.782 508.471 497.482C507.771 502.181 506.472 506.88 504.773 511.479ZM548.953 465.788C548.853 467.888 548.653 470.087 548.353 472.187C547.953 475.286 547.554 478.285 546.954 481.385C546.554 483.184 546.254 484.984 545.754 486.784C545.754 486.984 545.654 487.184 545.654 487.284C545.454 488.084 545.055 488.883 544.455 489.483C542.956 491.283 541.356 493.083 539.657 494.782C533.46 501.081 526.663 506.58 519.066 511.079C516.068 512.878 512.969 514.478 509.771 515.978C509.571 516.078 509.471 516.178 509.271 516.178C509.271 516.178 509.171 516.178 509.171 516.078C509.171 515.978 509.171 515.978 509.171 515.878C509.271 515.578 509.371 515.178 509.471 514.878C510.37 512.379 511.17 509.879 511.97 507.28C512.969 503.88 513.769 500.481 514.368 497.082C514.668 495.282 514.968 493.482 515.268 491.683C515.468 490.283 515.568 488.883 515.768 487.484C515.868 486.284 515.968 485.084 516.068 483.884C516.068 483.784 516.068 483.584 516.068 483.484C516.168 480.485 516.268 477.386 516.168 474.386C516.168 473.686 516.168 473.087 516.068 472.387C516.068 470.487 515.868 468.687 515.768 466.788C515.668 465.788 515.568 464.788 515.468 463.788C515.368 462.489 515.168 461.189 514.968 459.789C514.868 458.789 514.668 457.79 514.569 456.79C514.269 455.09 514.069 453.39 513.769 451.791C513.169 448.591 512.469 445.492 511.67 442.393C510.27 436.994 508.671 431.795 506.872 426.496C504.873 420.897 502.674 415.398 500.275 409.999C499.875 409.199 499.575 408.399 499.275 407.6C499.275 407.5 499.375 407.4 499.375 407.4H499.475H499.575C501.774 406.5 503.973 405.6 506.272 404.9C507.572 404.5 508.971 404.2 510.27 403.8C515.768 402.501 521.265 401.101 526.763 399.801C527.862 399.501 529.062 399.201 530.161 399.001C530.461 398.901 530.861 398.801 531.161 398.801C531.661 398.701 532.06 398.901 532.36 399.201C532.56 399.401 532.66 399.501 532.76 399.701C532.96 400.001 533.06 400.201 533.26 400.501C537.358 407.4 540.657 414.698 543.256 422.397C544.855 427.196 546.154 432.095 547.054 437.094C547.454 439.393 547.853 441.593 548.153 443.892C548.453 445.892 548.653 447.892 548.853 449.891C548.953 451.291 549.053 452.791 549.153 454.29C549.253 455.99 549.253 457.69 549.353 459.389C549.253 461.289 549.053 463.588 548.953 465.788ZM568.344 428.695C568.244 430.095 568.144 431.495 568.044 432.995C567.944 433.794 567.944 434.594 567.844 435.394C567.644 437.194 567.445 438.993 567.145 440.693C566.745 443.292 566.245 445.792 565.645 448.292C563.946 455.49 561.347 462.389 558.149 468.987C556.949 471.387 555.65 473.786 554.251 476.186C554.151 476.386 554.051 476.586 553.851 476.686H553.751L553.651 476.586C553.651 476.386 553.651 476.186 553.651 475.886C553.851 474.586 553.951 473.186 554.151 471.887C554.251 471.087 554.35 470.287 554.35 469.387C554.45 468.587 554.451 467.788 554.551 466.888C554.75 463.089 554.85 459.289 554.75 455.39C554.65 453.29 554.55 451.091 554.35 448.991C554.15 446.992 553.951 444.892 553.651 442.893C553.351 440.693 553.051 438.593 552.651 436.394C552.051 432.995 551.252 429.695 550.352 426.396C547.653 416.798 543.855 407.6 538.957 398.901C538.857 398.701 538.757 398.601 538.658 398.402C538.358 397.802 538.358 397.702 539.057 397.702C540.357 397.602 541.556 397.502 542.856 397.402C542.956 397.402 543.156 397.402 543.256 397.402C545.954 397.302 548.753 397.102 551.452 397.202C553.451 397.302 555.35 397.302 557.349 397.502C558.748 397.602 560.248 397.702 561.647 397.902C562.547 398.002 563.446 398.002 564.246 398.102C564.446 398.102 564.546 398.102 564.746 398.102C564.946 398.102 565.146 398.302 565.246 398.501C565.346 398.601 565.345 398.701 565.345 398.801C565.445 399.001 565.446 399.201 565.546 399.401C566.245 402.201 566.745 405 567.245 407.9C567.545 409.599 567.744 411.299 567.944 412.999C568.344 417.198 568.544 420.197 568.544 424.096C568.444 425.596 568.444 427.096 568.344 428.695ZM933.78 209.839C933.68 207.74 933.58 205.74 933.58 203.541C932.68 203.441 931.981 203.241 931.281 203.241C929.182 203.141 927.083 203.041 924.984 202.941C912.989 202.541 901.394 199.741 889.999 195.842C876.106 191.143 863.312 184.245 851.417 175.846C818.832 152.951 786.846 129.456 755.16 105.36C737.468 91.8631 719.476 78.9656 700.685 67.068C684.892 57.07 668.699 48.0718 651.707 40.2733C637.713 33.8746 623.22 29.2755 608.026 26.776C600.13 25.4763 592.233 24.5765 584.337 24.6765C582.838 24.6765 581.438 24.7765 579.939 25.0764C573.842 26.1762 569.544 29.6755 566.845 35.2743C563.646 41.973 558.949 47.3719 552.551 51.1712C541.256 57.8698 529.762 57.9698 518.067 52.071C511.87 48.9716 506.272 44.8725 501.075 40.3734C496.677 36.4742 492.478 32.3749 488.78 27.7758C482.183 19.6775 475.686 11.4791 469.089 3.28075C468.489 2.48091 467.789 1.68107 466.89 0.78125C466.09 1.78105 465.49 2.58099 464.891 3.38083C461.692 7.77994 458.693 12.279 455.395 16.6781C449.098 25.1764 442.201 33.1748 434.105 40.1734C429.207 44.4725 423.909 48.1718 418.312 51.4711C403.818 60.0694 383.527 56.5701 372.832 42.5729C370.733 39.7735 368.834 36.9741 367.335 33.8747C364.236 27.476 359.238 24.7764 352.241 24.7764C330.451 24.6765 309.661 29.2755 289.67 37.7738C272.977 44.7724 256.984 53.3707 241.491 62.7688C222.8 74.1665 204.908 86.7641 187.416 99.8615C161.427 119.158 135.539 138.454 109.451 157.65C101.254 163.649 92.9581 169.547 84.6619 175.446C72.4673 184.045 59.4733 191.143 45.2797 196.042C32.9852 200.341 20.2908 202.841 7.19671 203.441C4.79779 203.541 2.39892 203.741 0 203.941V1238.03C0.099955 1239.13 0.399722 1240.33 0.399722 1241.43C0.399722 1247.23 0.399722 1252.93 0.399722 1258.73C0.399722 1260.33 0.599779 1261.83 0.799689 1263.43C1.09955 1266.03 1.29937 1268.63 1.69919 1271.23C3.99815 1287.72 11.2949 1301.62 23.1895 1313.12C34.6843 1324.22 47.8785 1332.71 63.2716 1337.51C69.2689 1339.31 75.1661 1341.41 81.1634 1343.31C101.954 1350.11 122.745 1356.71 143.835 1362.41C166.725 1368.61 189.615 1375.11 212.304 1381.9C249.987 1393.2 287.271 1405.6 323.954 1419.7C349.842 1429.69 375.331 1440.39 400.42 1452.29C414.413 1458.99 428.007 1466.29 440.901 1475.09C449.298 1480.78 457.294 1487.08 464.691 1494.08C465.191 1494.58 465.99 1494.88 465.99 1495.78H467.29C467.69 1495.28 467.989 1494.78 468.389 1494.38C474.686 1489.58 480.983 1484.68 487.381 1479.98C498.675 1471.59 510.77 1464.59 523.164 1457.99C539.857 1449.19 557.049 1441.59 574.441 1434.29C625.518 1412.8 677.695 1394.8 730.971 1379.5C757.659 1371.81 784.547 1364.51 811.235 1356.91C826.828 1352.51 842.321 1347.91 857.814 1343.11C868.609 1339.81 879.004 1335.41 889 1329.91C896.097 1326.02 902.794 1321.52 908.791 1316.12C919.986 1306.12 927.882 1294.02 931.681 1279.42C932.68 1275.43 933.38 1271.43 933.48 1267.33C933.48 1266.23 933.78 1265.13 933.98 1263.93V213.139C934.08 212.039 933.78 210.939 933.78 209.839ZM863.012 200.741C867.709 202.841 872.108 204.94 876.606 206.74C881.203 208.54 885.801 210.239 890.499 211.739C895.097 213.139 899.795 214.338 904.493 215.338C909.291 216.338 914.188 217.038 919.186 217.938C919.286 218.438 919.386 219.037 919.386 219.637C919.386 220.537 919.386 221.537 919.386 222.437C919.386 340.313 919.386 458.189 919.386 576.066C919.386 577.565 919.486 578.965 919.186 580.365C917.987 580.765 917.087 580.065 916.188 579.665C900.095 573.166 885.102 564.568 871.808 553.37C841.921 528.475 822.73 496.882 814.233 458.889C814.134 458.589 814.134 458.289 814.034 457.99C813.034 454.49 813.134 451.091 813.834 447.492C818.032 426.596 822.23 405.6 826.328 384.704C830.026 366.208 833.725 347.812 837.423 329.315C840.022 316.218 842.621 303.021 845.22 289.923C849.318 269.327 853.416 248.732 857.514 228.036C859.113 220.137 860.613 212.239 862.112 204.34C862.312 203.341 862.512 202.041 863.012 200.741ZM811.335 165.948C827.428 176.946 842.621 189.043 859.313 198.642C859.313 199.241 859.413 199.641 859.313 200.041C843.52 279.625 827.628 359.209 811.835 438.793C811.835 438.993 811.635 439.093 811.335 439.493C811.235 438.893 811.035 438.493 811.035 438.093C810.935 436.694 810.735 435.394 810.635 433.994C810.335 426.596 810.035 419.197 809.836 411.699C809.536 401.601 808.736 391.603 807.537 381.705C805.537 365.308 802.439 349.111 798.041 333.115C794.742 321.217 790.944 309.519 786.346 298.022C785.746 296.522 785.547 295.122 785.946 293.423C789.545 275.726 793.043 257.93 796.541 240.233C800.24 221.737 803.838 203.341 807.437 184.844C808.536 179.346 809.636 173.747 810.735 168.248C810.835 167.548 811.135 166.848 811.335 165.948ZM763.157 130.255C778.05 141.253 792.943 152.351 807.736 163.349C807.736 163.749 807.836 164.049 807.736 164.349C799.54 205.44 791.444 246.632 783.247 287.724C783.247 287.924 783.048 288.024 782.848 288.224C782.248 288.424 782.148 287.924 781.948 287.624C781.348 286.424 780.848 285.124 780.249 283.924C770.753 262.629 759.258 242.533 745.664 223.537C745.565 223.437 745.565 223.337 745.465 223.237C743.765 221.537 743.665 219.537 744.165 217.138C748.863 193.943 753.461 170.747 758.059 147.652C759.258 141.753 760.358 135.754 761.657 129.455C762.457 129.955 762.857 130.055 763.157 130.255ZM708.981 91.0632C710.28 90.9632 710.98 91.863 711.78 92.4629C718.477 97.162 725.174 101.861 731.771 106.66C740.267 112.959 748.663 119.357 757.159 125.756C757.559 126.056 757.959 126.456 758.559 126.856C758.459 127.656 758.459 128.656 758.259 129.555C752.661 157.55 747.164 185.544 741.566 213.539C741.366 214.338 741.166 215.138 740.867 215.938C739.467 215.538 739.067 214.538 738.468 213.739C732.37 205.94 725.873 198.342 719.176 191.043C711.88 183.245 704.283 175.746 696.287 168.648C694.187 166.748 693.788 167.248 694.587 163.549C699.185 140.453 703.783 117.358 708.381 94.2625C708.481 93.0627 708.781 92.063 708.981 91.0632ZM229.897 172.947C229.897 145.952 229.897 118.958 229.897 91.8631V88.1637C230.296 87.7638 230.596 87.4639 230.896 87.2639C250.387 74.1665 270.678 62.369 292.169 52.8709C304.563 47.372 317.457 43.3727 330.851 41.2731C337.848 40.1733 346.544 39.3736 353.641 39.8735C354.041 40.5734 354.64 41.4732 355.14 42.373C358.739 48.9717 363.237 54.8704 369.034 59.6695C376.531 65.8682 385.027 69.3675 394.622 70.6672C406.317 72.2669 417.012 69.7674 427.108 63.7686C437.103 57.8698 445.999 50.5713 453.896 42.073C457.994 37.5739 461.792 32.8748 465.69 28.1758C466.39 27.3759 466.99 26.5761 467.79 25.5763C468.789 26.7761 469.589 27.6759 470.288 28.6757C475.286 34.8744 480.284 41.0732 485.981 46.6721C493.378 53.9706 501.674 60.2694 510.87 65.0684C518.267 68.9676 526.063 71.0672 534.359 70.9672C550.252 70.8673 563.347 64.5685 573.542 52.371C576.341 49.0717 578.939 45.6723 580.439 41.5731C580.939 40.1734 581.938 39.5735 583.337 39.6735C586.036 39.6735 588.835 39.6735 591.534 39.8735C608.826 41.1732 625.418 45.1724 641.311 52.071C657.404 59.0696 672.697 67.3679 687.591 76.5661C692.888 79.8654 698.186 83.3647 703.483 86.764C704.183 87.1639 704.883 87.7638 705.383 88.1637C705.482 88.3637 705.483 88.4637 705.483 88.5637C705.483 88.6637 705.583 88.7637 705.483 88.8637C705.383 89.3636 705.382 89.8634 705.282 90.4633C700.485 114.558 695.687 138.654 690.889 163.049C690.289 162.849 689.69 162.849 689.39 162.649C688.09 161.749 686.991 160.649 685.691 159.649C647.609 128.356 604.728 106.26 557.249 93.2627C540.857 88.7636 524.264 85.5643 507.372 83.6646C490.379 81.665 473.387 80.8652 456.295 81.4651C371.833 84.3645 292.868 118.358 233.695 174.047C232.595 175.046 231.596 176.046 230.596 176.946C229.697 176.646 229.897 176.046 229.897 175.546C229.897 174.646 229.897 173.847 229.897 172.947ZM232.395 180.245C266.98 146.652 307.062 121.757 352.341 105.16C370.133 98.6616 388.425 93.6626 407.117 90.2633C417.412 88.3637 427.807 87.064 438.203 86.0642C451.397 84.8644 464.491 84.6645 477.685 84.8645C488.18 85.0644 498.576 86.0641 508.971 87.2639C527.663 89.5634 546.154 93.3627 564.146 98.7616C664.501 128.756 738.168 199.241 776.151 283.225C787.046 307.32 795.142 332.415 800.24 358.41C802.839 371.707 804.738 385.004 805.537 398.501C806.037 406.5 806.437 414.598 806.537 422.697C807.037 457.39 816.133 489.483 835.324 518.477C855.115 548.271 881.803 569.767 914.988 583.264C916.288 583.764 917.687 584.364 918.887 584.764C919.086 585.064 919.186 585.164 919.186 585.264C919.186 585.364 919.286 585.464 919.286 585.564C919.286 586.264 919.386 587.064 919.386 587.764C919.386 604.86 919.386 621.857 919.386 638.953C919.386 639.253 919.286 639.553 919.186 639.853C919.186 639.953 919.086 640.053 918.986 640.153C917.787 640.453 916.787 639.853 915.688 639.553C901.694 635.454 888.2 630.155 875.306 623.356C826.328 597.661 791.244 559.069 770.153 507.979C763.556 491.983 759.058 475.286 756.46 458.189C755.26 450.291 754.36 442.393 754.061 434.494C754.061 433.794 754.061 432.995 753.961 432.295C753.261 428.795 753.361 425.196 753.461 421.697C753.661 412.599 753.061 403.5 752.061 394.402C749.063 365.408 741.866 337.414 730.271 310.619C715.778 277.126 695.787 247.232 669.999 221.437C639.013 190.543 602.729 168.148 561.447 153.651C546.554 148.452 531.261 144.453 515.568 141.853C505.373 140.153 495.077 138.954 484.682 138.354C472.287 137.654 459.993 137.754 447.698 138.654C427.208 140.153 407.017 143.853 387.326 149.751C351.042 160.649 317.957 177.846 288.47 201.641C266.98 218.937 248.388 239.034 232.795 261.829C232.095 262.829 231.396 263.829 230.696 264.828C230.496 264.728 230.296 264.628 230.096 264.628V261.529C230.096 236.534 230.096 211.439 230.096 186.444C229.897 182.045 229.497 183.045 232.395 180.245ZM218.801 1366.91C218.801 1367.11 218.601 1367.31 218.502 1367.61C217.702 1367.41 216.902 1367.31 216.103 1367.11C190.714 1359.41 165.026 1352.51 139.437 1345.31C118.647 1339.51 98.1559 1332.81 77.7651 1326.12C74.8664 1325.22 72.0674 1324.12 69.0688 1323.32C55.9747 1319.42 44.7799 1312.32 34.7844 1303.02C29.4868 1298.12 25.1887 1292.52 21.9901 1286.02C18.8915 1279.72 16.9924 1273.13 16.4926 1266.23C16.1927 1262.83 15.9928 1259.33 15.9928 1255.93C15.9928 911.399 15.9928 566.968 15.9928 222.437V217.838C19.1914 217.338 21.9902 216.938 24.7889 216.538C41.7812 213.939 57.774 208.24 72.9672 200.241C80.6637 196.142 87.9603 191.543 95.0571 186.444C117.847 170.347 140.337 153.651 162.727 136.954C178.92 124.856 195.112 112.859 211.405 100.761C213.204 99.4614 215.003 98.1618 216.802 96.962C217.302 96.6621 217.802 96.3621 218.202 96.0622C218.502 96.1622 218.602 96.2621 218.702 96.2621C218.802 96.3621 218.801 96.4621 218.801 96.5621C218.801 519.177 218.901 941.792 218.901 1364.41C218.901 1365.31 218.801 1366.11 218.801 1366.91ZM231.496 269.827C256.085 231.835 288.07 201.741 327.253 179.145C353.741 163.849 382.028 153.251 412.015 147.052C421.71 145.052 431.606 143.653 441.501 142.653C454.995 141.253 468.489 141.153 481.983 141.653C491.479 142.053 500.974 143.053 510.37 144.552C524.964 146.852 539.357 150.151 553.351 154.65C638.113 181.645 704.383 246.032 733.87 330.015C739.667 346.612 743.965 363.708 746.564 381.105C748.563 394.602 749.363 408.1 749.762 421.797C750.062 433.095 750.662 444.392 752.261 455.59C753.961 467.088 756.36 478.485 759.758 489.583C781.748 562.369 837.623 618.857 910.09 641.753C912.689 642.553 915.288 643.352 917.887 644.152C918.287 644.252 918.687 644.452 918.986 644.552C919.386 647.152 919.486 693.142 918.986 696.242C918.487 696.342 917.887 696.442 917.287 696.442C914.488 696.442 911.59 696.542 908.791 696.442C907.392 696.342 905.892 696.142 904.493 695.742C879.204 688.743 855.415 678.545 832.925 665.048C764.856 624.356 725.374 561.069 708.681 504.28C704.283 489.283 701.085 474.086 699.185 458.589C698.286 451.191 697.486 443.792 697.386 436.394C697.386 436.094 697.386 435.794 697.386 435.494C696.487 430.395 696.886 425.296 696.786 420.097C696.087 381.805 686.391 345.912 667.899 312.319C632.215 247.632 575.941 216.238 531.461 203.641C520.966 200.641 510.37 198.442 499.575 196.842C490.279 195.442 480.883 194.742 471.388 194.542C461.392 194.342 451.497 194.942 441.601 196.142C429.707 197.542 418.012 199.841 406.517 203.041C342.646 220.837 289.67 265.628 261.382 325.616C252.586 344.312 246.389 363.808 242.791 384.104C241.391 391.803 240.592 399.601 239.992 407.5C239.292 416.798 239.192 426.096 239.692 435.394C240.692 455.59 244.39 475.286 250.687 494.482C262.882 531.375 282.873 563.368 311.16 590.063C339.647 616.858 372.932 634.954 410.715 644.952C423.01 648.151 435.404 650.251 448.098 651.451C460.093 652.55 472.187 652.65 484.182 651.751C530.361 648.151 571.943 632.154 608.626 603.86C627.817 589.063 644.11 571.367 657.704 551.271C658.304 550.371 658.703 549.271 660.103 548.671C661.902 552.171 663.102 555.87 664.701 559.369C666.4 562.968 667.899 566.668 669.599 570.267C671.198 573.766 672.997 577.266 674.696 580.665C676.496 584.164 678.395 587.663 680.294 591.163C682.193 594.562 684.092 597.861 685.991 601.161C685.891 602.46 684.992 603.06 684.392 603.86C676.096 613.858 667.2 623.256 657.504 632.055C623.819 662.649 584.837 683.744 540.957 695.742C538.957 696.342 536.858 696.542 534.759 696.542C490.379 696.542 445.999 696.542 401.619 696.542C399.62 696.542 397.721 696.342 395.722 695.842C334.349 679.445 273.077 640.953 231.396 576.766C230.296 575.066 229.796 573.266 229.796 571.167C229.796 472.587 229.796 374.106 229.796 275.526C229.896 273.327 230.396 271.627 231.496 269.827ZM679.194 692.442C680.694 691.243 682.193 690.143 683.592 688.943C684.992 687.843 686.391 686.644 687.691 685.544C689.09 684.444 690.389 683.244 691.789 682.045C693.188 680.845 694.587 679.545 695.987 678.345C697.286 677.145 698.586 675.946 699.885 674.746C701.184 673.546 702.484 672.346 703.783 671.147C705.183 669.847 706.482 668.547 707.881 667.248C709.181 665.948 710.38 664.748 711.68 663.448C712.879 662.149 714.179 660.949 715.378 659.649C716.677 658.249 717.977 656.85 719.276 655.55C720.476 654.25 721.475 652.85 723.075 651.751C725.873 654.25 728.072 657.15 730.671 659.749C733.17 662.249 735.669 664.848 738.168 667.347C740.767 669.947 743.465 672.446 746.064 674.946C748.763 677.445 751.462 679.845 754.26 682.245C756.959 684.544 759.658 686.844 762.457 689.143C765.256 691.443 768.154 693.642 771.053 695.942C770.553 696.242 770.453 696.442 770.253 696.442C738.667 696.442 707.082 696.442 674.696 696.442C676.396 694.542 677.895 693.542 679.194 692.442ZM670.098 694.942C668.799 695.942 667.4 696.342 665.8 696.342C629.017 696.342 592.334 696.342 555.55 696.342H553.051C553.851 695.342 554.65 695.242 555.35 695.042C565.146 691.943 574.641 688.243 584.037 684.044C623.719 666.348 657.504 640.953 685.591 607.76C686.391 606.86 686.991 605.66 688.39 605.16C690.389 607.459 691.789 610.159 693.488 612.658C695.187 615.058 696.786 617.557 698.386 619.957C700.085 622.457 701.884 624.956 703.683 627.355C705.383 629.755 707.182 632.054 708.981 634.354C710.88 636.754 712.779 639.153 714.678 641.453C716.478 643.752 718.377 645.952 720.376 648.351C719.976 649.051 719.676 649.651 719.176 650.151C704.283 666.748 687.99 681.645 670.098 694.942ZM753.861 676.946C701.884 630.255 667.599 572.966 650.307 505.38C647.009 492.483 644.71 479.385 643.011 466.188C641.711 455.99 641.111 445.792 640.412 435.494C639.912 428.395 640.212 421.297 639.812 414.198C638.912 397.802 635.814 381.805 630.316 366.308C622.12 343.313 609.926 322.717 593.033 305.12C569.944 281.025 542.256 264.728 509.87 256.53C495.377 252.831 480.684 251.231 465.69 251.331C415.513 251.631 361.737 275.926 328.252 323.317C313.659 344.012 303.963 366.708 299.265 391.503C296.766 404.5 295.667 417.598 296.367 430.895C298.166 466.788 309.761 499.281 331.751 527.876C356.14 559.569 387.925 580.065 426.508 590.063C443.001 594.362 459.893 596.062 476.885 594.962C524.364 591.963 564.346 573.066 596.332 537.874C616.922 515.178 629.817 488.483 636.414 458.689C636.713 457.19 637.013 455.59 637.413 454.09C637.413 453.99 637.513 453.99 637.613 453.89C638.513 454.59 638.313 455.59 638.413 456.49C638.912 463.188 639.812 469.787 640.912 476.386C643.81 494.782 648.108 512.878 654.006 530.675C655.105 533.874 656.205 536.974 657.304 540.173C658.603 544.072 658.703 543.172 656.604 546.472C649.008 558.069 640.512 568.967 630.916 578.965C603.828 607.16 571.443 626.956 534.16 638.553C522.365 642.253 510.27 644.952 498.076 646.552C483.283 648.551 468.489 649.051 453.596 648.051C415.413 645.452 380.129 634.054 347.843 613.558C305.662 586.864 275.876 549.871 257.884 503.38C251.887 487.984 247.888 472.087 245.489 455.79C243.19 440.193 242.491 424.496 243.69 408.799C248.088 350.311 271.278 300.321 313.659 259.729C341.147 233.335 373.732 215.538 410.515 205.64C422.21 202.441 434.205 200.341 446.299 199.141C457.194 198.042 467.989 197.642 478.884 198.242C508.271 199.741 536.359 206.64 563.047 219.037C619.121 245.032 661.302 292.023 681.393 350.911C685.491 363.009 688.69 375.406 690.689 388.004C692.388 399.001 693.388 409.999 693.488 421.097C693.588 426.496 693.688 431.995 694.088 437.394C694.587 444.792 695.087 452.191 695.987 459.589C697.286 469.987 699.085 480.285 701.584 490.483C710.98 528.775 727.273 563.868 750.962 595.362C780.849 635.154 818.731 664.848 864.211 684.944C872.707 688.743 881.403 692.043 890.299 694.942C891.099 695.242 891.799 695.442 892.498 696.142C891.899 696.142 891.399 696.242 890.799 696.242C888.3 696.242 885.801 696.242 883.302 696.242H782.548C781.748 696.242 780.849 696.142 780.049 696.242C778.749 696.342 777.65 695.842 776.55 695.042C768.554 689.443 761.057 683.444 753.861 676.946ZM636.314 422.397C635.914 499.881 586.236 561.969 520.066 583.364C510.071 586.564 499.875 588.863 489.48 590.263C478.285 591.763 467.19 592.063 455.995 591.263C385.626 585.964 329.452 539.273 308.561 477.686C304.063 464.488 301.264 450.891 300.165 436.894C299.265 424.796 299.465 412.799 301.064 400.901C308.161 348.811 338.048 305.92 378.53 280.525C397.321 268.728 417.612 261.129 439.402 257.33C452.996 255.03 466.69 254.23 480.384 255.43C525.563 259.429 563.646 278.026 593.933 311.819C614.623 334.914 627.617 362.009 633.315 392.603C635.414 402.701 636.114 412.899 636.314 422.397ZM242.591 675.846C239.192 672.746 235.794 669.647 232.495 666.448C229.497 663.548 229.897 664.548 229.897 660.549C229.897 652.95 229.897 645.252 229.897 637.653C229.897 620.257 229.897 602.86 229.897 585.564V582.165C230.096 582.065 230.296 582.065 230.496 581.965C268.279 637.454 319.356 675.246 383.028 696.342C382.228 696.342 381.528 696.442 380.729 696.442C374.831 696.442 369.034 696.442 363.137 696.442C332.95 696.442 302.864 696.442 272.677 696.442C271.978 696.442 271.178 696.342 270.478 696.442C268.679 696.642 267.28 696.042 265.88 694.942C257.984 688.843 250.087 682.544 242.591 675.846ZM260.982 696.242H230.296C230.196 695.742 229.996 695.242 229.996 694.742C229.996 686.844 229.996 678.845 229.996 670.947C229.996 670.547 230.097 670.247 230.196 669.947C230.496 669.847 230.596 669.847 230.696 669.847C230.796 669.847 230.896 669.947 230.996 670.047C231.196 670.247 231.496 670.447 231.696 670.647C237.793 676.046 243.79 681.545 249.987 686.843C253.586 689.943 257.284 692.742 260.982 695.742C260.882 695.642 260.882 695.842 260.982 696.242ZM918.087 1272.63C915.988 1282.82 911.39 1291.72 904.393 1299.42C899.395 1304.92 893.698 1309.42 887.501 1313.32C879.204 1318.52 870.308 1322.52 861.212 1325.92C850.817 1329.81 840.122 1332.91 829.527 1335.91C800.54 1344.11 771.553 1352.31 742.566 1360.41C704.183 1371.21 666.2 1383.1 628.717 1396.8C600.83 1407 573.242 1418 546.054 1430.19C528.162 1438.19 510.77 1446.99 494.078 1457.39C486.081 1462.39 478.385 1467.89 470.988 1473.69C469.988 1474.49 468.989 1475.19 467.889 1475.99C467.39 1475.69 466.99 1475.49 466.59 1475.19C451.697 1462.79 435.304 1452.79 418.112 1443.99C401.619 1435.49 384.627 1428.09 367.635 1420.9C330.851 1405.2 293.268 1391.6 255.185 1379.4C247.389 1376.91 239.592 1374.51 231.896 1372.01C231.396 1371.81 230.896 1371.71 230.296 1371.51C230.196 1370.81 230.096 1370.11 229.996 1369.41C229.996 1368.51 229.996 1367.51 229.996 1366.61C229.996 1197.34 229.996 1027.98 229.996 858.709C229.996 857.209 229.797 855.61 230.196 853.91C230.796 853.81 231.396 853.71 231.995 853.71C232.895 853.71 233.895 853.71 234.794 853.71C461.292 853.71 687.891 853.71 914.389 853.71C915.888 853.71 917.287 853.71 918.986 853.71C919.086 854.51 919.186 854.91 919.286 855.31C919.286 856.209 919.286 857.209 919.286 858.109C919.286 991.382 919.286 1124.66 919.286 1258.03C919.386 1262.63 919.086 1267.63 918.087 1272.63ZM919.086 841.912C918.587 842.012 917.987 842.112 917.387 842.212C916.488 842.312 915.488 842.212 914.588 842.212C687.99 842.212 461.392 842.212 234.794 842.212C233.395 842.212 231.896 842.212 230.296 842.112C230.196 841.313 229.996 840.713 229.996 840.213C229.996 839.413 229.996 838.513 229.996 837.713C229.996 795.722 229.996 753.73 229.996 711.739C229.996 710.439 229.897 709.039 230.096 707.939C230.396 707.639 230.496 707.54 230.496 707.54C230.596 707.54 230.696 707.439 230.796 707.439C459.293 707.439 687.79 707.339 916.288 707.339C917.087 707.339 917.987 707.339 919.186 707.339C919.286 708.139 919.386 708.639 919.386 709.139C919.686 718.537 919.486 839.013 919.086 841.912Z" fill="url(#paint0_linear)"/>
<defs>
<linearGradient id="paint0_linear" x1="817.988" y1="134.375" x2="107.209" y2="1365.17" gradientUnits="userSpaceOnUse">
<stop stop-color="#9BADB7"/>
<stop offset="0.5393" stop-color="#607883"/>
<stop offset="1" stop-color="#2B444D"/>
</linearGradient>
</defs>
</svg>
