<svg width="25" height="16" viewBox="0 0 25 16"  xmlns="http://www.w3.org/2000/svg">
<path d="M2.47704 2.32853V6.68982H6.49916V9.06647H2.47704V16.0004H0V0.0253906H7.11229V2.35304H2.47704V2.32853Z" />
<path d="M6.81836 15.9747V13.2061H9.39349V15.9747H6.81836Z" />
<path d="M17.5616 7.62C18.2728 7.84052 18.7388 8.28154 19.0086 8.91858C19.2784 9.55562 19.401 10.2907 19.401 11.1237C19.401 12.7898 19.0331 14.0149 18.3219 14.799C17.6107 15.583 16.507 15.975 15.0355 15.975H11.7246V0H15.2072C16.6051 0 17.6352 0.367524 18.2728 1.10257C18.9105 1.83762 19.2293 2.91569 19.2293 4.33678C19.2293 5.07183 19.1067 5.70888 18.8614 6.27241C18.6162 6.81145 18.1747 7.22797 17.5371 7.52199V7.62H17.5616ZM16.8994 4.38579C16.8994 3.65074 16.7523 3.11171 16.458 2.79319C16.1637 2.47467 15.6732 2.30315 15.011 2.30315H14.2262V6.44393H15.0355C15.6732 6.44393 16.1391 6.27241 16.458 5.90489C16.7523 5.56187 16.8994 5.04733 16.8994 4.38579ZM17.0221 10.9277C17.0221 10.1682 16.8749 9.62913 16.6051 9.26161C16.3353 8.89409 15.8448 8.72257 15.1581 8.72257H14.2262V13.6719H15.2072C15.5996 13.6719 15.9184 13.5984 16.1637 13.4514C16.4089 13.3044 16.5806 13.1083 16.7032 12.8633C16.8258 12.6183 16.9239 12.3243 16.9485 11.9813C17.022 11.6383 17.0221 11.2952 17.0221 10.9277Z" />
<path d="M21.5566 15.9747V13.2061H24.1318V15.9747H21.5566Z" />
</svg>
