<svg width="16" height="16" viewBox="0 0 16 16"  xmlns="http://www.w3.org/2000/svg">
<path d="M7.71324 0H8.31025C8.33416 0 8.358 0 8.38191 0.0239038H8.38243C8.45391 0.0239038 8.52533 0.0239038 8.59681 0.0477494C8.93111 0.0716532 9.28938 0.119403 9.62368 0.191056C10.3401 0.334362 11.0326 0.573167 11.7013 0.931375C12.6565 1.43289 13.4685 2.07765 14.161 2.88956C14.9251 3.79704 15.4505 4.82385 15.761 5.97013C15.8565 6.30443 15.9043 6.63879 15.952 6.9731C15.9759 7.188 15.9998 7.40296 15.9998 7.64176V8.42983C15.9998 8.54923 15.9998 8.66864 15.9759 8.78804C15.952 9.07459 15.9043 9.38505 15.8326 9.67161C15.6893 10.388 15.4505 11.0567 15.1162 11.7015C14.7102 12.4895 14.161 13.2059 13.5162 13.8268C13.2774 14.0657 13.0385 14.2567 12.752 14.4716C12.7281 14.4955 12.7043 14.5194 12.6804 14.5194L12.6568 14.5433C12.2031 14.8776 11.7255 15.1403 11.2001 15.3552C10.6508 15.594 10.0539 15.7851 9.45688 15.8806C9.12258 15.9283 8.81206 15.9761 8.47776 16H7.59419C7.57028 16 7.54644 16.0001 7.52254 15.9762L6.80612 15.9045C6.35241 15.8328 5.92255 15.7373 5.49269 15.594C4.72853 15.3313 4.03602 14.9731 3.36735 14.5194C3.35196 14.504 3.33657 14.4886 3.32117 14.4797C3.31266 14.4747 3.30421 14.4717 3.2957 14.4717C3.31045 14.4569 3.3252 14.4513 3.34555 14.4436C3.3582 14.4387 3.37295 14.4331 3.3912 14.4239C4.14341 13.8747 4.90163 13.3254 5.65984 12.7762C6.41806 12.2269 7.17628 11.6777 7.92849 11.1284C7.94009 11.1168 7.95164 11.1053 7.96324 11.0964C7.97554 11.087 7.98784 11.0807 8.00015 11.0807C8.02405 11.1046 8.0479 11.1045 8.0718 11.1284C8.3106 11.2956 8.54941 11.4866 8.78821 11.6538C9.42102 12.1194 10.0538 12.5791 10.6867 13.0388C11.3196 13.4986 11.9524 13.9583 12.5852 14.4239C12.6125 14.433 12.6329 14.4421 12.6503 14.4499C12.6525 14.4509 12.6547 14.4519 12.6568 14.4528C12.6566 14.4511 12.6565 14.4494 12.6565 14.4477C12.6022 14.2817 12.5479 14.1161 12.4937 13.951L12.4154 13.7121C12.0906 12.7224 11.7688 11.742 11.4625 10.7462C11.3673 10.461 11.2782 10.1816 11.189 9.90237L11.1878 9.89852C11.0983 9.61791 11.0087 9.3373 10.9132 9.05075C10.9132 9.04264 10.9105 9.03454 10.9069 9.02644C10.9052 9.02259 10.9032 9.01874 10.9013 9.01489C10.8954 9.003 10.8894 8.99105 10.8894 8.9791C10.9133 8.95519 10.9371 8.95525 10.9371 8.93135C11.557 8.4805 12.1717 8.03495 12.786 7.5897L12.9444 7.47479C13.5788 7.01502 14.2133 6.55513 14.8535 6.08953C14.9609 6.00593 15.0743 5.92833 15.1878 5.85073C15.3013 5.77313 15.4147 5.69553 15.5222 5.61192C15.5368 5.61192 15.5425 5.60294 15.5447 5.59052C15.5461 5.58265 15.5461 5.57344 15.5461 5.56417H9.76693V5.51642L8.04755 0.21496C8.04755 0.191056 8.0237 0.16721 8.0237 0.143306V0.095557C7.9282 0.406015 7.83264 0.716415 7.71324 1.02687C7.61774 1.33733 7.52219 1.64779 7.42669 1.93434C7.33119 2.2448 7.23563 2.5552 7.11623 2.86566C7.02073 3.17612 6.92517 3.48658 6.80577 3.79704C6.71027 4.10749 6.61471 4.41789 6.51922 4.70445C6.42372 5.01491 6.32816 5.32537 6.20876 5.63582H0.599695C1.31967 6.16118 2.04494 6.6866 2.77016 7.21196C3.52838 7.76117 4.2866 8.31043 5.03881 8.85969C5.04709 8.86797 5.05531 8.87339 5.06353 8.87788C5.06726 8.87992 5.07099 8.88179 5.07473 8.88365C5.08662 8.8896 5.09851 8.89555 5.11041 8.90744C5.11041 8.91939 5.10446 8.93135 5.09851 8.9433C5.09257 8.95519 5.08656 8.96714 5.08656 8.9791C5.06854 9.02725 5.05199 9.07541 5.03619 9.12316C5.02499 9.15703 5.01415 9.19073 5.00342 9.22414C4.96932 9.33037 4.93632 9.43321 4.8955 9.52836L4.89183 9.53973C4.39154 11.0882 3.89125 12.6366 3.36718 14.2089L3.29552 14.4239C3.28357 14.4119 3.27162 14.406 3.25967 14.4C3.24777 14.394 3.23582 14.388 3.22387 14.3761C2.48355 13.8268 1.83885 13.1582 1.33733 12.3701C0.525418 11.1283 0.0716532 9.79101 0.0239038 8.31043C0.0239038 8.31043 0 8.23878 0 8.16712V7.83282C0.0239038 7.78507 0.0239038 7.71342 0.0239038 7.64176V7.45071C0.0478077 7.16415 0.0716532 6.8776 0.119403 6.59104C0.191056 6.23284 0.262709 5.89847 0.382111 5.56417C0.382111 5.55682 0.384385 5.54948 0.387475 5.54213C0.39453 5.52557 0.405957 5.50908 0.405957 5.49252C0.417268 5.50383 0.428578 5.51508 0.442396 5.52639C0.849985 4.32403 1.53754 3.26229 2.43563 2.36421C3.29535 1.52839 4.27441 0.931317 5.42069 0.52536C6.1371 0.286554 6.87737 0.143306 7.61768 0.095557C7.63436 0.0289761 7.66264 0.0204057 7.68631 0.0132346C7.69657 0.0100863 7.70601 0.00722945 7.71324 0Z" fill="#FFED00"/>
</svg>
