<svg width="16" height="11" viewBox="0 0 16 11"  xmlns="http://www.w3.org/2000/svg">
<g opacity="0.5">
<path d="M0.710322 10.7484H0V0.876953H0.710322V10.7484Z" fill="#FFFEFE"/>
<path d="M3.43322 10.7484H2.7229V3.79469H3.43322V10.7484ZM2.59859 1.78312C2.59859 1.63745 2.642 1.51534 2.72882 1.4168C2.81564 1.31397 2.93402 1.26256 3.08398 1.26256C3.23394 1.26256 3.35232 1.31397 3.43914 1.4168C3.52991 1.51534 3.57529 1.63745 3.57529 1.78312C3.57529 1.9288 3.52991 2.0509 3.43914 2.14945C3.35232 2.24799 3.23394 2.29726 3.08398 2.29726C2.93402 2.29726 2.81564 2.24799 2.72882 2.14945C2.642 2.0509 2.59859 1.9288 2.59859 1.78312Z" fill="#FFFEFE"/>
<path d="M7.35775 9.68801L9.30522 3.79469H10.0333L7.64188 10.7484H7.06963L4.66445 3.79469H5.39253L7.35775 9.68801Z" fill="#FFFEFE"/>
<path d="M13.5967 10.877C13.0522 10.877 12.5589 10.7313 12.1169 10.4399C11.6789 10.1486 11.3375 9.74371 11.0929 9.22528C10.8482 8.70257 10.7259 8.11774 10.7259 7.47078V7.19443C10.7259 6.52605 10.8442 5.92408 11.081 5.38852C11.3217 4.85296 11.6552 4.43308 12.0814 4.12888C12.5076 3.8204 12.9693 3.66616 13.4665 3.66616C14.2439 3.66616 14.8595 3.95536 15.3134 4.53377C15.7711 5.10789 16 5.89409 16 6.89238V7.32297H11.4303V7.47078C11.4303 8.25913 11.6374 8.9168 12.0518 9.44379C12.4701 9.9665 12.9949 10.2279 13.6263 10.2279C14.0052 10.2279 14.3386 10.1529 14.6267 10.0029C14.9187 9.85296 15.1831 9.61303 15.4199 9.28312L15.8639 9.64945C15.343 10.4678 14.5872 10.877 13.5967 10.877ZM13.4665 4.32168C12.9338 4.32168 12.4839 4.53377 12.1169 4.95793C11.7539 5.38209 11.5329 5.95193 11.4539 6.66744H15.2956V6.58389C15.2759 5.91551 15.1003 5.37138 14.7688 4.9515C14.4373 4.53162 14.0032 4.32168 13.4665 4.32168Z" fill="#FFFEFE"/>
</g>
</svg>
