<svg width="50" height="40" viewBox="0 0 50 40"  xmlns="http://www.w3.org/2000/svg">
<path d="M20.7188 17.8457H21.0887H21.4587H22.4205H22.7905H23.1605H24.2703H24.5663H24.8622H26.1941H26.638H27.3779H27.5999H27.8219H27.8959H28.1918H28.5618H29.0057H30.6336H31.0035H31.3735H36.1089L32.8533 11.0857C32.7053 10.7142 32.3353 10.5657 31.9654 10.5657C31.8174 10.5657 31.6694 10.5657 31.5214 10.64L28.8578 11.9771L28.5618 12.1257L28.2658 12.2742L24.3443 14.2057L24.0483 14.3542L23.7524 14.4285L23.1605 14.7257L13.6156 19.4057C13.3936 19.5542 13.1717 19.7028 13.0977 20C13.0237 20.2228 13.0237 20.52 13.1717 20.7428L15.2434 24.9028L15.3914 25.2L15.5394 25.4971L15.9093 26.24L16.0573 26.5371L16.2053 26.8342L18.573 31.7371V29.1371V28.6171V28.0971V26.4628L18.277 26.6114L17.5371 25.0514L17.4631 24.8285L17.9071 24.6057L18.647 24.2342V23.64V23.2685L18.499 23.3428L17.9071 23.64L17.1672 24.0114L16.9452 23.64L16.7972 23.3428L16.6492 23.0457L15.9093 21.4857L18.647 20.1485V19.2571C18.647 18.3657 19.3636 17.8457 20.1775 17.8457H20.7188Z" fill="#FFCC0D"/>
<path d="M18.4991 25.9428V25.0514L18.2031 25.2742L18.4991 25.9428Z" fill="#FFCC0D"/>
<path d="M16.6172 21.9118L17.3152 23.4171L18.499 22.8228V21.6343V21.1143V20.9657L16.6172 21.9118Z" fill="#FFCC0D"/>
<path d="M15.5394 27.6514L13.9856 26.4629L14.7995 25.4229L14.3556 24.6057L13.3197 25.9429L11.0999 24.2343L12.9497 21.7829L12.5798 20.9657C12.4318 20.5943 12.4318 20.1486 12.5798 19.7771C12.7277 19.4057 13.0237 19.0343 13.3937 18.8857L27.7479 11.8286L21.8286 7.22286C21.6807 7.07429 21.4587 7 21.2367 7C20.9408 7 20.6448 7.14857 20.4228 7.37143L8.21429 23.12C7.84434 23.5657 7.99232 24.16 8.36228 24.5314L17.9811 32.1086L15.6874 27.4286L15.5394 27.6514Z" fill="#4D63CE"/>
<path d="M13.3196 22.3772L14.1335 24.0115L13.2456 25.1258L11.9878 24.0858L13.3196 22.3772Z" fill="#4D63CE"/>
<path d="M14.8733 26.3885L15.0953 26.0171L15.4652 26.8342L14.8733 26.3885Z" fill="#4D63CE"/>
<path d="M22.7904 23.7142H22.4204H22.0505H21.6805V23.4914V23.1942V22.8971V22.0799H23.3823H24.0482H24.1962V22.3028V23.1942V23.4914V23.7142H23.7523H23.0863H22.7904ZM37.2926 28.3199C37.0706 28.3199 36.8487 28.3942 36.6267 28.4685C36.5527 28.5428 36.4787 28.5428 36.4047 28.6171C36.3307 28.6914 36.2567 28.7657 36.1827 28.8399C36.0348 29.0628 35.8868 29.3599 35.8868 29.7314C35.8868 30.0285 36.0348 30.3257 36.1827 30.6228C36.2567 30.6971 36.3307 30.7714 36.4047 30.8457C36.4787 30.9199 36.5527 30.9942 36.6267 30.9942C36.8487 31.1428 37.0706 31.1428 37.2926 31.1428C38.1065 31.1428 38.6984 30.4742 38.6984 29.7314C38.6984 28.9142 38.1065 28.3199 37.2926 28.3199ZM40.0303 18.4399C40.5482 18.4399 40.9922 18.8857 40.9922 19.4057V31.9599C40.9922 32.4799 40.5482 32.9257 40.0303 32.9257H20.2747H20.1267C19.9787 32.9257 19.8307 32.8514 19.6827 32.7771C19.6088 32.7028 19.5348 32.6285 19.4608 32.5542L19.3868 32.4799C19.3868 32.4057 19.3128 32.4057 19.3128 32.3314C19.1648 32.2571 19.0908 32.1085 19.0908 32.0342C19.0908 27.8742 19.0908 23.6399 19.0908 19.4799C19.0908 18.9599 19.5348 18.5142 20.0527 18.5142C26.7119 18.4399 33.3711 18.4399 40.0303 18.4399ZM21.0886 23.4914V23.787V24.2342H21.6065H21.9765H22.0505H22.4204H22.6424H23.3083H24.8621V23.4914V23.1942V22.8971V22.0057V21.7085V21.4857H24.6401L21.0886 21.4812V23.1942V23.4914ZM24.1222 30.3257V30.0285V29.7314H22.1984H21.8285H21.4585H21.3845V29.8057V30.0285V30.3257H21.7545H24.1222ZM28.7097 30.3257V30.0285V29.7314H26.9339H26.268H26.046V29.8799V30.0285V30.1771V30.3257H28.7097ZM31.0034 27.0571H31.6693H32.3352H37.0706V25.1257H36.4047H35.7388H35.0729H25.824H25.454H25.0101H21.6805H21.5325H21.3106H21.0886V25.3485V25.4228V25.7942V27.0571H23.5303H23.9002H24.2702H24.3442H25.0101H31.0034ZM36.1827 31.3657C36.4787 31.5885 36.9227 31.7371 37.2926 31.7371C38.4025 31.7371 39.2904 30.8457 39.2904 29.7314C39.2904 28.6171 38.4025 27.7257 37.2926 27.7257C36.8487 27.7257 36.4787 27.8742 36.1827 28.0971C35.8868 27.8742 35.4428 27.7257 35.0729 27.7257C33.963 27.7257 33.0751 28.6171 33.0751 29.7314C33.0751 30.8457 33.963 31.7371 35.0729 31.7371C35.5168 31.7371 35.8868 31.5885 36.1827 31.3657ZM34.481 25.7199H33.815H25.3061H24.9361H24.5662H21.6805V26.4628H23.9742H24.3442H24.7141H24.8621H25.528H26.194H32.1872H32.8532H33.5191H36.4047V25.7199H35.0729H34.481ZM33.6671 29.7314C33.6671 28.9142 34.333 28.3199 35.0729 28.3199C35.2949 28.3199 35.5168 28.3942 35.7388 28.4685C35.4428 28.8399 35.2949 29.2114 35.2949 29.7314C35.2949 30.1771 35.4428 30.6228 35.7388 30.9942C35.5168 31.1428 35.2949 31.1428 35.0729 31.1428C34.259 31.1428 33.6671 30.4742 33.6671 29.7314Z" fill="#499E6B"/>
</svg>
