<svg width="50" height="40" viewBox="0 0 50 40"  xmlns="http://www.w3.org/2000/svg">
<path d="M12 7V33H38V7H12ZM30.6145 27.8754C29.3333 29.3826 27.4493 30.3623 24.9623 30.3623C22.4754 30.3623 20.5913 29.3826 19.3101 27.8754C18.029 26.3681 17.3507 24.3333 17.3507 22.0725C17.3507 19.2087 18.3304 16.1188 19.7623 13.7072C20.5159 12.5014 21.3449 11.5217 22.1739 10.8435C23.0783 10.1652 23.9826 9.71304 24.887 9.71304C25.7913 9.71304 26.6957 10.0899 27.6 10.8435C28.5797 11.5217 29.4087 12.5014 30.087 13.7072C31.5942 16.0435 32.5739 19.2087 32.5739 22.0725C32.5739 24.258 31.8957 26.3681 30.6145 27.8754Z" fill="#FF1228"/>
<path d="M30.6144 27.8753C29.3332 29.3826 27.4491 30.3623 24.9622 30.3623C22.4752 30.3623 20.5912 29.3826 19.31 27.8753C18.0288 26.3681 17.3506 24.3333 17.3506 22.0724C17.3506 19.2087 18.3303 16.1188 19.7622 13.7072C20.5158 12.5014 21.3448 11.5217 22.1738 10.8434C23.0781 10.1652 23.9825 9.71301 24.8868 9.71301C25.7912 9.71301 26.6955 10.0898 27.5999 10.8434C28.5796 11.5217 29.4086 12.5014 30.0868 13.7072C31.5941 16.0434 32.5738 19.2087 32.5738 22.0724C32.5738 24.2579 31.8955 26.3681 30.6144 27.8753Z" />
</svg>
