<svg width="50" height="40" viewBox="0 0 50 40"  xmlns="http://www.w3.org/2000/svg">
<path d="M30.939 25.0439C30.6375 25.0439 30.4115 25.1172 30.2607 25.3373C30.0347 25.5573 30.0347 25.9241 30.11 26.2175C30.1854 26.5109 30.3361 26.8043 30.6375 27.0243C30.8636 27.2443 31.2404 27.3177 31.5419 27.3177C31.8433 27.3177 32.2202 27.171 32.3709 26.951C32.5216 26.7309 32.597 26.4375 32.5216 26.1441C32.4462 25.8507 32.2202 25.6307 31.9941 25.4106C31.6926 25.1906 31.3158 25.0439 30.939 25.0439Z" fill="#FF8D2C"/>
<path d="M33.6517 23.2102C33.4257 23.0635 33.0488 23.1368 32.8981 23.4302C32.8228 23.5769 32.8228 23.797 32.8228 24.017C32.8981 24.2371 32.9735 24.4571 33.1242 24.6772C33.2749 24.8972 33.4257 25.0439 33.501 25.1906C33.6517 25.264 33.8025 25.4107 33.9532 25.4107C34.1039 25.4107 34.2546 25.264 34.33 25.1173C34.4054 24.9706 34.4054 24.7505 34.4054 24.4571C34.4054 24.3104 34.33 24.017 34.1793 23.797C34.1039 23.5036 33.9532 23.2835 33.6517 23.2102Z" fill="#FF8D2C"/>
<path d="M34.9313 29.0051C33.6505 28.3449 32.3696 28.0515 31.1641 27.8315C28.2256 27.1713 26.7187 25.631 25.6638 23.8706C25.5885 23.7973 25.5885 23.7239 25.5131 23.6506C25.5131 23.6506 25.4378 23.5772 25.3625 23.5772C25.2871 23.5772 25.2118 23.5772 25.1364 23.5772C25.0611 23.5772 25.0611 23.6506 25.0611 23.7239C25.0611 23.7973 25.0611 23.7973 24.9857 23.8706C24.9857 23.944 24.9857 24.0907 24.9857 24.164C24.9857 24.7508 24.9857 25.411 25.1364 25.9978H24.9857C20.7664 25.9978 17.3758 22.6971 17.3758 18.6629C17.3758 14.6287 20.7664 11.328 24.9857 11.328C29.2051 11.328 32.5956 14.6287 32.5956 18.6629C32.5956 18.8829 32.5956 19.103 32.5956 19.323C31.8422 19.2497 31.0134 19.2497 30.2599 19.323C30.1846 19.323 30.1092 19.323 30.0339 19.3964C29.9585 19.3964 29.8832 19.4697 29.8832 19.6164C29.8832 19.7631 29.9585 19.7631 30.0339 19.8365C30.1092 19.8365 30.1846 19.9098 30.2599 19.9098C31.5408 20.1298 32.5956 20.6433 33.3491 21.3768C34.1025 22.1103 34.63 23.2105 34.856 24.5308C34.856 24.6041 34.9313 24.7508 35.082 24.7508C35.1574 24.7508 35.3081 24.7508 35.3834 24.6775C38.1712 20.1298 37.4931 14.4086 33.6505 10.5945C29.7325 6.70702 23.7802 5.90018 19.0334 8.54074C14.362 11.1079 12.0263 16.4624 13.3825 21.5968C14.7387 26.6579 19.4855 30.252 24.9857 30.252C25.7392 30.252 26.568 30.1786 27.3968 30.1053C28.4516 30.0319 29.5818 29.8852 30.938 29.8852C33.123 29.8852 35.5341 30.6187 38.2465 32.8925C38.4726 33.0392 38.6986 33.0392 38.8493 32.8925C38.9247 32.8192 39 32.7458 39 32.5991C39 32.4524 39 32.3791 38.8493 32.2324C37.5684 30.6921 36.2122 29.6652 34.9313 29.0051Z" fill="#FF8D2C"/>
</svg>
