<svg width="50" height="40" viewBox="0 0 50 40"  xmlns="http://www.w3.org/2000/svg">
<path d="M44.5 17.1C44.7 17.5 44.7 17.9 44.5 18.5C44.3 19 44 19.6 43.5 20.2C42.7 21.1 41.3 22.5 40.1 23.7C39.5 24.3 38.9 24.8 38.5 25.2C38.3 25.4 38.1 25.5 38 25.7C38 25.6 38 25.7 38 25.7L37.5 26.2H38.2V26V26.2L44 26H44.1L44.2 25.9L44 25.7L44.2 25.9C47.8 22.3 49.1 20.1 49.4 17.3C49.5 15.8 49 14.4 47.9 13.3C46.7 12.2 45 11.7 43.2 12H43V12.2V16.1V16.4H43.3C43.8 16.4 44.3 16.7 44.5 17.1Z" />
<path d="M30.5 14.5V14.3L27 14.8H26.8V15V30.2V30.5H27H30.5H30.8V30.2V14.5V14.3H30.5V14.5Z" />
<path d="M21.6999 26.8H21.3999V27V30.2V30.5H21.6999H26.0999H26.2999V30.2V26.9V26.6L26.0999 26.7L21.6999 26.8Z" />
<path d="M36.1999 26.6V26.3L31.1999 26.5H30.8999V26.7V30.2V30.5H31.1999H36.1999H36.4999V30.2V26.6V26.3H36.1999V26.6Z" />
<path d="M36.1999 13.7V13.5L31.0999 14.2H30.8999V14.5V18V18.2H31.1999L36.2999 17.6L36.1999 17.4L36.2999 17.6H36.4999V17.4V13.7V13.4L36.1999 13.5V13.7Z" />
<path d="M49.2001 25.9L37.4001 26.3H37.1001V26.6V30.3V30.5H37.4001H49.2001H49.5001V30.2V26.2V25.9H49.2001Z" />
<path d="M37.6 20.2L41.3 19.9H41.5V19.7C41.4 18.5 41.6 17.8 41.8 17.4C42 17 42.3 16.8 42.6 16.7L42.5 16.5L42.6 16.7L42.8 16.6V16.4V12.5V12.1L42.5 12.2C40.7 12.6 39.4 13.4 38.5 14.8C37.6 16.1 37.3 17.9 37.4 20V20.3L37.6 20.2Z" />
<path d="M9.2 17.6H9.1V17.4L2.2 18.3L2.3 18.6H2.2V18.3L2 18.4V18.6V21.2V21.5L2.3 21.4L4.2 21.2V21.3V30.2V30.5H4.5H7H7.2V30.2V21.1V20.9L9.2 20.7L9.1 20.4H9.2V20.7L9.4 20.6V20.4V17.6V17.3L9.1 17.4L9.2 17.6Z" />
<path d="M34.4999 24.2H34.6999V24V20.3V20H34.4999L31.0999 20.3L30.8999 20.4V20.6V24.1V24.4H31.1999L34.4999 24.2Z" />
<path d="M13.2 16.8H13H12.7L10 17.2L10.1 17.5L10 17.2L9.80005 17.3V17.5V30.2V30.5H10.1H12.7H13H13.2H17.1H17.3V30.2V27.2V26.9H17.1L13.2 27L13 27.1V25.4H13.3L15.8 25.2H16V25V21.9V21.7H15.7L13.2 21.9H13V20.2H13.3L17.1 19.8H17.3V19.5V16.5V16.2H17L13.2 16.8Z" />
<path d="M18.1 16.1V16.3V16.1H17.8V16.3V30.2V30.5H18.1H21.1H21.4V30.2V15.9V15.6H21.1L18.1 16.1Z" />
</svg>
