<svg width="50" height="40" viewBox="0 0 50 40"  xmlns="http://www.w3.org/2000/svg">
<path d="M28.0392 15.5656V7L27.9647 7.0758C27.4431 7.53061 26.8471 7.98542 26.3255 8.44023C23.4196 10.8659 20.5137 13.2915 17.5333 15.6414C16.4157 16.551 15.4471 17.4606 15 18.8251V31.6356C15 31.7114 15.0745 31.863 15.149 32.0146C15.298 32.1662 15.4471 32.3178 15.5961 32.4694C15.9686 32.7726 16.4902 33 16.8627 33H33.6275C33.702 33 33.702 33 33.7765 33C33.851 33 33.9255 33 34 33V17.688C32.3608 17.688 30.7216 17.688 29.0824 17.688C28.7098 17.688 28.4118 17.688 28.0392 17.688C28.0392 17.0058 28.0392 16.3236 28.0392 15.5656Z" fill="#FFCC0D"/>
<path d="M30.9453 17.7325C30.9453 18.5639 30.9453 19.2442 30.9453 19.6221C31.0198 21.8139 30.9453 24.0058 30.9453 26.1977C30.9453 26.4244 30.8708 26.5756 30.8708 26.6511L30.7963 26.7267C30.7963 26.7267 30.7218 26.8023 30.6472 26.8023C30.6472 26.8023 30.5727 26.8023 30.5727 26.8779C30.5727 26.8779 30.4982 26.8779 30.4982 26.9535C28.71 27.5581 26.9963 28.1628 25.208 28.7674C24.3884 29.0698 23.5688 29.2965 22.7492 29.5988C21.6316 29.9767 20.5139 30.3546 19.3963 30.7325L19.2472 30.8081C19.0237 30.8837 18.8002 30.9593 18.5767 31.0349C19.2472 30.5058 19.9923 30.0523 20.6629 29.5232C20.6629 29.5232 20.7374 29.5232 20.7374 29.4477C21.6316 28.7674 22.6002 28.1628 23.4943 27.4825C24.8355 26.5 24.761 26.5756 25.5806 25.9709C26.2512 25.5174 26.7727 25.1395 27.1453 24.9128C27.2943 24.7616 27.5178 24.6105 27.6669 24.3837C27.9649 24.0814 28.0394 23.7035 28.1139 23.4767C28.1139 21.5872 28.1139 19.6221 28.1139 17.7325C29.008 17.7325 29.9767 17.7325 30.9453 17.7325Z" fill="#E7AD09"/>
<path d="M22.4509 18.564C22.4509 18.0349 22.749 17.5059 23.047 17.0524C23.4196 16.5989 23.8666 16.2966 24.3882 16.221C24.7607 16.1454 25.1333 16.221 25.4313 16.4477C25.7294 16.6745 25.8039 17.0524 25.8039 17.4303C25.8039 17.9593 25.5803 18.4884 25.2078 18.9419C24.8352 19.3954 24.3882 19.6977 23.8666 19.8489C23.4941 19.9245 23.1215 19.8489 22.8235 19.6221C22.5999 19.3198 22.4509 18.9419 22.4509 18.564H22.6745H22.4509Z" fill="black"/>
</svg>
