<svg width="15" height="18" viewBox="0 0 15 18"  xmlns="http://www.w3.org/2000/svg">
<path d="M14.3209 18H5.06911C4.889 18 4.71627 17.9284 4.58891 17.8011C4.46155 17.6737 4.39 17.5009 4.39 17.3208V14.1328C4.39 13.9527 4.54984 13.7805 4.54984 13.7805C4.54984 13.7805 4.7461 13.6317 4.89198 13.6305C5.04065 13.6292 5.24191 13.7805 5.24191 13.7805C5.24191 13.7805 5.39188 13.9527 5.39188 14.1328V17H14.0002V1H5.39188C5.39188 1 5.39188 3.69137 5.39188 3.86717C5.39188 4.04297 5.35363 4.11874 5.24691 4.22547C5.14103 4.33135 5.00071 4.37047 4.89198 4.37047C4.78325 4.37047 4.64747 4.32533 4.54205 4.22047C4.43556 4.11455 4.39 3.98047 4.39 3.86717V0.679245C4.39 0.499098 4.46155 0.326329 4.58891 0.198946C4.71627 0.0715631 4.889 0 5.06911 0H14.3209C14.501 0 14.6737 0.0715631 14.8011 0.198946C14.9285 0.326329 15 0.499098 15 0.679245V17.3208C15 17.5009 14.9285 17.6737 14.8011 17.8011C14.6737 17.9284 14.501 18 14.3209 18Z" />
<path d="M9.54545 9.42791H0.454545C0.203636 9.42791 0 9.23587 0 8.99924C0 8.7626 0.203636 8.57056 0.454545 8.57056H9.54545C9.79636 8.57056 10 8.7626 10 8.99924C10 9.23587 9.79636 9.42791 9.54545 9.42791Z" />
<path d="M7.00018 12C6.89044 12 6.7807 11.958 6.69668 11.8748C6.52949 11.7076 6.52949 11.4359 6.69668 11.2687L8.96524 9.00011L6.69668 6.73154C6.52949 6.56436 6.52949 6.29257 6.69668 6.12539C6.86386 5.9582 7.13564 5.9582 7.30283 6.12539L9.8749 8.69746C10.0421 8.86464 10.0421 9.13643 9.8749 9.30361L7.30283 11.8757C7.21967 11.958 7.10992 12 7.00018 12Z" />
</svg>
