<svg width="135" height="36" viewBox="0 0 135 36"  xmlns="http://www.w3.org/2000/svg">
<path d="M64.6065 11.386C64.3352 10.1209 63.7475 8.99132 62.8884 7.9973C61.5321 6.46109 59.6333 5.51226 57.5535 5.46708C57.011 5.46708 56.4685 5.51226 55.9259 5.60262C55.0669 5.78335 54.2984 6.14482 53.575 6.68701C53.4846 6.77737 53.3941 6.82256 53.3037 6.91292L53.2585 6.9581H53.2133C53.2133 6.91292 53.2133 6.82256 53.2133 6.77737C53.2133 4.74415 53.2133 2.66575 53.2133 0.632535C53.2133 0.54217 53.2133 0.451804 53.2133 0.361439C53.2133 0.225891 53.2133 0.225891 53.0324 0.225891C52.4899 0.225891 51.9474 0.225891 51.4049 0.225891C50.7719 0.225891 50.0937 0.225891 49.4608 0.225891C49.4156 0.225891 49.3704 0.225891 49.2799 0.225891L49.2347 0.271074C49.2347 0.316256 49.2347 0.406622 49.2347 0.451804C49.2347 7.09365 49.2347 13.6903 49.2347 20.3322C49.2347 20.3773 49.2347 20.4225 49.2347 20.4677V20.5129C49.2347 20.5129 49.2347 20.5581 49.2799 20.5581C49.3251 20.5581 49.3704 20.5581 49.4156 20.5581C50.5911 20.5581 51.7665 20.5581 52.942 20.5581C52.9872 20.5581 53.0324 20.5581 53.0777 20.5581C53.1229 20.5581 53.1229 20.5129 53.1229 20.5129C53.1229 20.4677 53.1229 20.4225 53.1229 20.3773C53.1229 20.0611 53.1229 19.7448 53.1229 19.4285C53.1229 19.3833 53.1229 19.3833 53.1229 19.3381C53.1229 19.3381 53.1229 19.3381 53.1681 19.3381C53.2133 19.3381 53.2585 19.3833 53.3037 19.4285C53.801 19.8352 54.3888 20.1966 55.0217 20.4225C55.5191 20.6033 56.0164 20.7388 56.5589 20.784C56.6041 20.784 56.6493 20.784 56.6493 20.8292H57.9152C57.9604 20.784 57.9604 20.784 58.0057 20.784C58.1865 20.784 58.3221 20.7388 58.503 20.7388C59.0003 20.6484 59.4524 20.5129 59.9497 20.3322C61.2608 19.8352 62.3459 18.9767 63.2049 17.8923C64.1544 16.6724 64.6517 15.2717 64.7873 13.7355C64.8325 13.3289 64.8325 12.877 64.7873 12.4704C64.6969 12.0186 64.6517 11.7023 64.6065 11.386ZM59.9949 16.2657C59.4524 16.7176 58.8195 17.0338 58.1413 17.1694C57.7796 17.2597 57.3727 17.2597 57.011 17.2597C56.1972 17.1694 55.4286 16.8983 54.7957 16.3561C53.9819 15.7235 53.4846 14.9102 53.3037 13.9162C53.2585 13.5999 53.2133 13.2837 53.2133 12.9222C53.2585 11.3408 54.1175 10.0757 55.293 9.39797C55.7451 9.12687 56.1972 8.94614 56.6945 8.90096C57.1014 8.85577 57.4631 8.85577 57.87 8.90096C59.1359 9.0365 60.3114 9.80461 60.9444 11.0245C61.1704 11.4764 61.3513 11.9282 61.4417 12.4252C61.4869 12.6511 61.4869 12.877 61.4869 13.0578C61.4417 14.2777 60.8992 15.4976 59.9949 16.2657Z" />
<path d="M80.6564 10.7986C80.5208 10.2113 80.3399 9.66908 80.0235 9.12689C79.1644 7.50032 77.6273 6.28038 75.7736 5.87374C75.4119 5.78338 75.0502 5.73819 74.6886 5.69301C74.3721 5.64783 74.0556 5.64783 73.7391 5.64783C73.3774 5.64783 73.061 5.64783 72.6993 5.69301C72.2924 5.73819 71.9307 5.78338 71.569 5.91892C70.4387 6.19002 69.4893 6.73221 68.6303 7.5455C68.0878 8.04251 67.6809 8.62988 67.3192 9.26244C66.7314 10.2565 66.4149 11.386 66.3245 12.5156C66.2793 13.2837 66.3245 14.0066 66.4602 14.7747C66.5506 15.2265 66.641 15.6784 66.8218 16.1302C67.3192 17.4857 68.133 18.5701 69.3537 19.3833C69.7606 19.6544 70.2127 19.8804 70.6648 20.1063C71.5238 20.4677 72.428 20.6936 73.3774 20.784C73.4227 20.784 73.4679 20.784 73.5131 20.8292H74.9598C75.005 20.784 75.0502 20.784 75.0955 20.784C75.4119 20.784 75.7284 20.7388 76.0449 20.6485C76.5422 20.5581 77.0395 20.4677 77.4916 20.3322C78.4411 20.0611 79.3001 19.5641 80.0235 18.8863L80.0687 18.8412C80.0687 18.796 80.0235 18.7508 79.9782 18.7056C79.7974 18.4797 79.6166 18.299 79.4357 18.0731C78.9836 17.576 78.5315 17.0339 78.0342 16.5368C77.989 16.4917 77.9438 16.4465 77.8985 16.4013H77.8533L77.8081 16.4465C77.7629 16.4917 77.6725 16.5368 77.6273 16.582C77.1752 16.8531 76.7231 17.079 76.2709 17.2598C75.9093 17.3953 75.5476 17.4857 75.1407 17.5309C74.8242 17.576 74.5077 17.576 74.1912 17.576C73.92 17.576 73.6487 17.5309 73.4226 17.4857C72.9705 17.3953 72.5184 17.2598 72.1115 17.079C71.8855 16.9887 71.6594 16.8983 71.4334 16.7628C71.0265 16.4917 70.6648 16.1754 70.4387 15.7687C70.3031 15.5428 70.2127 15.3169 70.1223 15.0458C70.077 14.9103 70.0318 14.7747 70.0318 14.6392C70.0318 14.594 70.0318 14.594 70.0318 14.5488C70.0318 14.5488 70.0318 14.5036 70.077 14.5036C70.1222 14.5036 70.2127 14.5036 70.2579 14.5036C73.6939 14.5036 77.1752 14.5036 80.6112 14.5036C80.6564 14.5036 80.7016 14.5036 80.792 14.5036H80.8373C80.8373 14.5036 80.8825 14.5036 80.8825 14.4584C80.8825 14.4133 80.8825 14.4133 80.8825 14.3681C80.8825 14.0518 80.8825 13.7355 80.8825 13.4192C80.8825 12.9222 80.8825 12.4252 80.8373 11.9282C80.792 11.5216 80.7016 11.1601 80.6564 10.7986ZM77.1752 11.4312C77.1752 11.4312 77.1752 11.4764 77.13 11.4764C77.0847 11.4764 77.0395 11.4764 76.9943 11.4764C75.9545 11.4764 74.9146 11.4764 73.8296 11.4764H73.6487C72.5184 11.4764 71.4334 11.4764 70.3031 11.4764C70.2579 11.4764 70.2127 11.4764 70.1223 11.4764L70.077 11.4312C70.077 11.386 70.077 11.2957 70.1223 11.2505C70.2127 10.7986 70.3935 10.392 70.71 10.0757C71.2073 9.44317 71.8403 9.03652 72.5636 8.81061C72.9705 8.67506 73.3322 8.62988 73.7391 8.67506C74.3721 8.72025 74.9598 8.85579 75.5024 9.17207C75.7736 9.30762 76.0449 9.48835 76.2709 9.71426C76.5874 9.98536 76.8135 10.3016 76.9491 10.6631C77.0847 10.889 77.1752 11.1601 77.1752 11.4312Z" />
<path d="M89.0204 17.2598C88.7039 17.2598 88.4327 17.2146 88.1614 17.079C87.7093 16.8983 87.3476 16.6272 87.1216 16.2206C86.9859 15.9946 86.8503 15.7236 86.8051 15.4525C86.7147 15.1814 86.6695 14.9103 86.6242 14.6392C86.6242 14.5488 86.6242 14.5036 86.6242 14.4133C86.6242 13.3289 86.579 12.2445 86.579 11.1601C86.579 10.6179 86.579 10.0305 86.579 9.48835C86.579 9.44317 86.579 9.3528 86.579 9.30762C86.6242 9.17207 86.579 9.17207 86.7599 9.17207C87.6189 9.17207 88.4779 9.17207 89.3821 9.17207C89.4273 9.17207 89.4725 9.17207 89.563 9.17207C89.6082 9.17207 89.6082 9.12689 89.6534 9.08171C89.6534 9.03653 89.6534 9.03653 89.6534 8.99134C89.6534 7.99732 89.6534 7.04849 89.6534 6.05447C89.6534 6.00929 89.6534 5.96411 89.6534 5.91892C89.6534 5.91892 89.6534 5.87374 89.6082 5.87374C89.563 5.87374 89.5177 5.87374 89.4273 5.87374C88.5683 5.87374 87.7093 5.87374 86.8955 5.87374C86.8051 5.87374 86.7147 5.87374 86.6242 5.87374C86.579 5.78338 86.6242 5.69301 86.6242 5.60265C86.6242 3.79534 86.6242 1.94285 86.6242 0.135548C86.6242 0.0903653 86.6242 0.0451826 86.6242 0H82.8717C82.8717 0.0451826 82.8717 0.0903653 82.8717 0.180731C82.8717 0.813287 82.8717 1.49103 82.8717 2.12358C82.8717 3.56943 82.8717 5.01527 82.8717 6.46112C82.8717 7.36477 82.8717 8.26842 82.8717 9.17207C82.8717 9.84981 82.8717 10.5276 82.8717 11.2053C82.8717 11.8378 82.8717 12.4704 82.8717 13.103C82.8717 13.7807 82.9169 14.5036 82.9621 15.1814C83.0074 15.4976 83.0526 15.8591 83.0978 16.1754C83.1882 16.6724 83.3238 17.1694 83.5499 17.6212C83.7759 18.1634 84.1376 18.6604 84.5445 19.1123C84.9966 19.6093 85.5392 19.9707 86.1721 20.1966C86.7599 20.4225 87.3476 20.5581 87.9354 20.6485C87.9806 20.6485 88.0258 20.6485 88.071 20.6936H89.2917C89.3369 20.6485 89.3369 20.6485 89.3821 20.6485C89.5177 20.6485 89.6082 20.6033 89.7438 20.6033C89.789 20.6033 89.8342 20.6033 89.8794 20.5581V17.2598C89.563 17.3049 89.2917 17.3049 89.0204 17.2598Z" />
<path d="M117.323 17.2598C117.006 17.2598 116.735 17.2146 116.464 17.079C116.011 16.8983 115.65 16.6272 115.424 16.2206C115.288 15.9946 115.152 15.7236 115.107 15.4525C115.017 15.1814 114.972 14.9103 114.926 14.6392C114.926 14.5488 114.926 14.5036 114.926 14.4133C114.926 13.3289 114.881 12.2445 114.881 11.1601C114.881 10.6179 114.881 10.0305 114.881 9.48835C114.881 9.44317 114.881 9.3528 114.881 9.30762C114.926 9.17207 114.881 9.17207 115.062 9.17207C115.921 9.17207 116.78 9.17207 117.684 9.17207C117.729 9.17207 117.775 9.17207 117.865 9.17207C117.91 9.17207 117.91 9.12689 117.955 9.08171C117.955 9.03653 117.955 9.03653 117.955 8.99134C117.955 7.99732 117.955 7.04849 117.955 6.05447C117.955 6.00929 117.955 5.96411 117.955 5.91892C117.955 5.91892 117.955 5.87374 117.91 5.87374C117.865 5.87374 117.82 5.87374 117.729 5.87374C116.87 5.87374 116.011 5.87374 115.198 5.87374C115.107 5.87374 115.017 5.87374 114.926 5.87374C114.881 5.78338 114.926 5.69301 114.926 5.60265C114.926 3.79534 114.926 1.94285 114.926 0.135548C114.926 0.0903653 114.926 0.0451826 114.926 0H111.174C111.174 0.0451826 111.174 0.0903653 111.174 0.180731C111.174 0.813287 111.174 1.49103 111.174 2.12358C111.174 3.56943 111.174 5.01527 111.174 6.46112C111.174 7.36477 111.174 8.26842 111.174 9.17207C111.174 9.84981 111.174 10.5276 111.174 11.2053C111.174 11.8378 111.174 12.4704 111.174 13.103C111.174 13.7807 111.219 14.5036 111.264 15.1814C111.309 15.4976 111.355 15.8591 111.4 16.1754C111.49 16.6724 111.626 17.1694 111.852 17.6212C112.078 18.1634 112.44 18.6604 112.847 19.1123C113.299 19.6093 113.841 19.9707 114.474 20.1966C115.062 20.4225 115.65 20.5581 116.237 20.6485C116.283 20.6485 116.328 20.6485 116.373 20.6936H117.594C117.639 20.6485 117.639 20.6485 117.684 20.6485C117.82 20.6485 117.91 20.6033 118.046 20.6033C118.091 20.6033 118.136 20.6033 118.182 20.5581V17.2598C117.82 17.3049 117.594 17.3049 117.323 17.2598Z" />
<path d="M30.1557 0.316284C29.9296 1.49103 29.7035 2.66578 29.4775 3.84053C29.2966 4.74418 28.5281 8.17806 28.3472 9.08171C28.1664 9.98537 27.4882 13.5096 27.3074 14.4133C26.9457 16.3109 26.584 18.2086 26.2223 20.1063C26.1319 20.6033 25.9962 21.0551 25.8154 21.5069C25.092 23.3142 23.9165 24.7601 22.2437 25.7993C19.6667 27.3355 16.9541 27.5162 14.1962 26.3867C12.5686 25.7089 11.3027 24.5794 10.3532 23.1335C9.44903 21.778 8.99692 20.2418 8.95171 18.6152C8.95171 17.9827 8.99692 17.3953 9.08734 16.8079C9.26818 15.6332 8.59002 14.7295 7.41453 14.5036C6.41989 14.3229 5.42525 14.097 4.43061 13.9163C3.84287 13.7807 3.25512 13.6903 2.66738 13.5548C1.62753 13.3741 0.632888 14.0066 0.406833 15.0458C0.135567 16.2658 0.0451449 17.5309 0.0903559 18.796C0.180778 22.4106 1.26584 25.6637 3.39076 28.6006C4.43061 30.0916 5.69652 31.4019 7.18848 32.4863C9.44903 34.1581 11.9808 35.2876 14.7839 35.7395C16.095 35.9654 17.4062 36.0557 18.7173 35.9654C21.882 35.7846 24.8208 34.8358 27.4882 33.0737C29.2514 31.8989 30.7434 30.4983 32.0093 28.7813C33.4109 26.8385 34.4055 24.7149 34.948 22.4106C35.1289 21.7329 35.2193 21.0551 35.3549 20.3774C35.7166 18.4797 36.0783 16.582 36.44 14.6844C36.9825 11.9282 38.6101 3.97608 39.1526 1.21994L39.3335 0.316284H30.1557Z" fill="url(#paint0_linear)"/>
<path d="M43.6738 27.0192C43.5834 27.0192 43.493 27.0192 43.3573 27.0192C42.0914 26.9289 40.9159 26.5674 39.8309 25.98C38.4745 25.2571 37.4347 24.2179 36.6209 22.9528C35.8523 21.778 35.4454 20.5129 35.3098 19.1123C35.2646 18.6604 35.3098 18.2538 35.2646 17.802C35.2194 17.2146 35.1741 16.582 35.1289 15.9947C34.9933 14.7296 34.6768 13.5096 34.2699 12.3349C33.3205 9.6691 31.7833 7.36479 29.7488 5.42193C28.3925 4.11164 26.8101 3.07244 25.0921 2.25915C22.5151 1.03922 19.7572 0.497028 16.9089 0.632576C15.8691 0.677758 14.8292 0.813306 13.7893 1.03922C10.3533 1.80732 7.36939 3.47908 4.928 6.05449C2.75787 8.26844 1.31112 10.9342 0.542532 13.9163C0.180844 15.2717 0 16.6724 0 18.1183C0 18.4345 0.045211 18.7056 0.180844 18.9767C0.542532 19.7448 1.2207 20.1515 2.0797 20.1515C3.7073 20.1515 5.3349 20.1515 6.91728 20.1515C7.55023 20.1515 8.04755 19.9256 8.45445 19.4286C8.77093 19.0219 8.90656 18.5701 8.90656 18.0279C8.90656 17.1242 9.08741 16.3109 9.35867 15.4525C10.6698 11.612 14.5579 8.99136 18.8982 9.62392C20.7971 9.89502 22.4246 10.7083 23.7358 12.0638C25.4538 13.7807 26.3128 15.8591 26.3128 18.2538C26.3128 19.79 26.4936 21.281 26.9005 22.7721C27.7595 26.0252 29.4323 28.8265 31.8737 31.1309C33.4561 32.6219 35.2646 33.7966 37.2991 34.6099C38.6554 35.1521 40.0569 35.5136 41.5037 35.7395C42.1818 35.8298 42.9052 35.9202 43.6286 35.875V27.0192H43.6738Z" fill="url(#paint1_linear)"/>
<path d="M105.206 11.7927L96.0281 17.8923V5.73822L105.206 11.7927Z" fill="url(#paint2_linear)"/>
<path d="M129.665 20.5581L135 5.4671H131.021L127.676 16.0398L124.104 5.4671H120.171L125.596 20.5581H129.665Z" />
<defs>
<linearGradient id="paint0_linear" x1="0.72755" y1="12.9465" x2="35.4629" y2="19.6692" gradientUnits="userSpaceOnUse">
<stop offset="0.2816" stop-color="#06A099"/>
<stop offset="0.777" stop-color="#047582"/>
</linearGradient>
<linearGradient id="paint1_linear" x1="0.00298397" y1="18.2619" x2="45.7675" y2="18.2619" gradientUnits="userSpaceOnUse">
<stop offset="0.4562" stop-color="#06A099"/>
<stop offset="0.9527" stop-color="#047582"/>
</linearGradient>
<linearGradient id="paint2_linear" x1="101.386" y1="15.62" x2="93.7744" y2="8.00369" gradientUnits="userSpaceOnUse">
<stop offset="0.4562" stop-color="#06A099"/>
<stop offset="0.9527" stop-color="#047582"/>
</linearGradient>
</defs>
</svg>
