<svg width="10" height="10" viewBox="0 0 10 10"  xmlns="http://www.w3.org/2000/svg">
<g opacity="0.5">
<path d="M8.73992 8.62122C8.73992 9.07314 8.37263 9.45427 7.92071 9.45427H1.36552C0.913593 9.45427 0.546309 9.07314 0.546309 8.62122V2.06602C0.546309 1.6141 0.913593 1.26015 1.36552 1.26015H5.18917V0.714355H1.36552C0.612482 0.714355 0 1.3135 0 2.06653V8.62122C0 9.37425 0.612482 10.0001 1.36552 10.0001H7.9202C8.67323 10.0001 9.28571 9.37374 9.28571 8.62122V4.8109H8.73941V8.62122H8.73992Z" />
<path d="M9.65661 0.332676C9.21435 -0.110892 8.4426 -0.110892 7.99979 0.332676L4.07061 4.26859C4.03321 4.30606 4.00625 4.35344 3.9936 4.40469L3.57994 6.0638C3.55519 6.16353 3.58435 6.26933 3.65695 6.34261C3.71251 6.39827 3.78732 6.42857 3.86378 6.42857C3.88744 6.42857 3.91109 6.42582 3.93474 6.41975L5.59157 6.00484C5.64327 5.99217 5.69003 5.96517 5.72743 5.9277L9.65661 1.99179C9.87774 1.77028 9.99986 1.47548 9.99986 1.16196C9.99986 0.848428 9.87829 0.554185 9.65661 0.332676ZM5.37099 5.45548L4.26644 5.73209L4.54257 4.62565L7.79296 1.36969L8.62137 2.19952L5.37099 5.45548ZM9.24241 1.57687L9.03558 1.78405L8.20717 0.954223L8.414 0.74704C8.63513 0.525532 9.02128 0.525532 9.24241 0.74704C9.35297 0.857795 9.41403 1.00492 9.41403 1.16196C9.41403 1.319 9.35297 1.46612 9.24241 1.57687Z" />
</g>
</svg>
