
<svg width="121" height="36" viewBox="0 0 121 36" fill="none" xmlns="http://www.w3.org/2000/svg">
<path d="M95.1491 17.9853C95.1099 17.9853 95.1099 17.9853 95.0706 17.946C94.6779 17.9067 94.2459 17.8282 93.8532 17.6711C93.382 17.4748 92.9108 17.2392 92.5181 16.8857C92.4788 16.8465 92.4788 16.8465 92.4396 16.8072H92.4003C92.4003 16.8465 92.4003 16.8465 92.4003 16.8857C92.4003 17.1214 92.4003 17.3962 92.4003 17.6319C92.4003 17.6711 92.4003 17.7104 92.4003 17.7497C92.4003 17.7889 92.361 17.7889 92.361 17.7889C92.3218 17.7889 92.2825 17.7889 92.2432 17.7889C91.34 17.7889 90.3976 17.7889 89.4944 17.7889C89.4551 17.7889 89.4158 17.7889 89.3766 17.7889C89.3766 17.7889 89.3373 17.7889 89.3373 17.7497V17.7104C89.3373 17.6711 89.3373 17.6319 89.3373 17.5926C89.3373 12.4483 89.3373 7.30407 89.3373 2.12054C89.3373 2.08127 89.3373 2.00273 89.3373 1.96346C89.3373 1.96346 89.3373 1.92419 89.3766 1.92419C89.4158 1.92419 89.4551 1.92419 89.4944 1.92419C90.0049 1.92419 90.5154 1.92419 90.9866 1.92419C91.4186 1.92419 91.8113 1.92419 92.2432 1.92419C92.361 1.92419 92.361 1.92419 92.361 2.042C92.361 2.12054 92.361 2.19908 92.361 2.27762C92.361 3.88765 92.361 5.45842 92.361 7.06845C92.361 7.10772 92.361 7.14699 92.361 7.22553C92.361 7.22553 92.361 7.22553 92.4003 7.22553C92.4003 7.22553 92.4396 7.22553 92.4396 7.18626C92.5181 7.14699 92.5966 7.06845 92.6359 7.02918C93.1857 6.59722 93.7747 6.36161 94.4423 6.20453C94.8742 6.12599 95.3062 6.08673 95.7382 6.08673C97.3482 6.12599 98.8404 6.87211 99.9007 8.05018C100.568 8.7963 101 9.69949 101.236 10.6812C101.275 10.9168 101.314 11.1917 101.354 11.4273C101.393 11.7415 101.393 12.0949 101.354 12.4091C101.275 13.5871 100.882 14.6867 100.136 15.6291C99.4687 16.4931 98.6441 17.1214 97.6231 17.514C97.2697 17.6711 96.877 17.7497 96.5236 17.8282C96.4057 17.8675 96.2487 17.8675 96.1309 17.8675C96.0916 17.8675 96.0916 17.8675 96.0523 17.9067C95.8167 17.9853 95.4633 17.9853 95.1491 17.9853ZM98.8404 12.0556C98.8404 11.8986 98.8404 11.7415 98.8012 11.5844C98.7226 11.1917 98.6048 10.8383 98.4085 10.4849C97.898 9.54241 96.9948 8.95337 96.0131 8.83557C95.6989 8.7963 95.424 8.7963 95.1099 8.83557C94.7172 8.9141 94.3637 9.03191 94.0103 9.22826C93.1071 9.77803 92.4396 10.7598 92.4003 11.9771C92.4003 12.2127 92.4003 12.4876 92.4788 12.7232C92.6359 13.5086 93.0286 14.1369 93.6569 14.6474C94.1674 15.0401 94.7564 15.2757 95.3847 15.315C95.6596 15.3542 95.9738 15.315 96.2487 15.2757C96.7984 15.1579 97.2697 14.9223 97.7016 14.5689C98.4085 13.9406 98.8404 13.0374 98.8404 12.0556ZM46.7695 11.9378C46.8088 11.8986 46.8088 11.8986 46.8088 11.8593C46.8088 11.82 46.8088 11.7808 46.8088 11.7415C46.8481 10.9561 47.0444 10.2493 47.3586 9.54241C48.0654 8.05018 49.4006 6.83284 51.1677 6.32234C51.4818 6.2438 51.7567 6.20453 52.0709 6.16526C52.4243 6.12599 52.7777 6.12599 53.1311 6.16526C53.9165 6.20453 54.6234 6.44015 55.2909 6.83284C55.4873 6.95065 55.6836 7.10772 55.88 7.2648C55.9192 7.2648 55.9192 7.30407 55.9585 7.30407H55.9978C55.9978 7.2648 55.9978 7.2648 55.9978 7.22553C55.9978 6.95065 55.9978 6.67576 55.9978 6.40088C55.9978 6.20453 55.9978 6.20453 55.9978 6.16526C56.0763 6.12599 56.1549 6.16526 56.1941 6.16526C57.058 6.16526 57.9612 6.16526 58.8252 6.16526C58.8644 6.16526 58.9037 6.16526 58.9822 6.16526C58.9822 6.16526 59.0215 6.16526 59.0215 6.20453V6.2438C59.0215 6.28307 59.0215 6.32234 59.0215 6.36161C59.0215 10.1314 59.0215 13.9013 59.0215 17.6319C59.0215 17.8675 59.0608 17.8675 58.8252 17.8675C57.922 17.8675 57.0581 17.8675 56.1549 17.8675C56.1156 17.8675 56.0763 17.8675 56.0371 17.8675C55.9978 17.8675 55.9978 17.8675 55.9978 17.8282C55.9978 17.7889 55.9978 17.7497 55.9978 17.7104C55.9978 17.4748 55.9978 17.2392 55.9978 16.9643V16.925V16.8857H55.9585C55.9192 16.8857 55.9192 16.925 55.88 16.925C55.2909 17.4355 54.5841 17.7497 53.838 17.9067C53.6809 17.946 53.4846 17.9853 53.3275 17.9853C53.2882 17.9853 53.2489 17.9853 53.2489 18.0245C52.9348 18.0245 52.5814 18.0245 52.2672 18.0245C52.2672 18.0245 52.2279 18.0245 52.1887 17.9853C52.1101 17.9853 52.0316 17.9853 51.9531 17.946C51.6782 17.9067 51.4426 17.8675 51.2069 17.7889C50.1859 17.514 49.322 17.0036 48.5759 16.2574C47.5549 15.2364 46.8873 13.862 46.8088 12.3698C46.8088 12.3305 46.8088 12.2913 46.8088 12.252C46.8088 12.2127 46.8088 12.2127 46.7695 12.1734C46.7695 12.1342 46.7695 12.0164 46.7695 11.9378ZM49.4791 12.0556C49.4791 13.862 50.9321 15.315 52.7384 15.315C54.5448 15.315 56.0371 13.862 56.0371 12.0556C56.0371 10.21 54.5448 8.75703 52.7777 8.75703C50.9713 8.7963 49.4791 10.2493 49.4791 12.0556ZM79.7949 17.9853C79.7556 17.9853 79.7556 17.9853 79.7164 17.946C77.4387 17.7497 75.436 16.1789 74.6506 13.9406C74.5328 13.5871 74.4543 13.2337 74.415 12.841C74.3757 12.4483 74.3365 12.0164 74.3757 11.6237C74.4543 10.4456 74.847 9.4246 75.5538 8.48214C76.2999 7.50042 77.2817 6.79357 78.4597 6.40088C78.7739 6.28307 79.1273 6.20453 79.4415 6.16526C79.8734 6.08673 80.3054 6.08673 80.7373 6.12599C81.6013 6.20453 82.3867 6.44015 83.0935 6.91138C83.2506 6.98992 83.3684 7.10772 83.4862 7.22553L83.5255 7.2648C83.5255 7.22553 83.5255 7.18626 83.5255 7.18626C83.5255 6.91138 83.5255 6.59722 83.5255 6.32234C83.5255 6.28307 83.5255 6.2438 83.5255 6.20453C83.5255 6.16526 83.5255 6.16526 83.5647 6.16526C83.604 6.16526 83.604 6.16526 83.6433 6.16526C84.5857 6.16526 85.4889 6.16526 86.4314 6.16526C86.4706 6.16526 86.5099 6.16526 86.5492 6.16526L86.5885 6.20453V6.2438C86.5885 6.28307 86.5885 6.32234 86.5885 6.36161C86.5885 10.1314 86.5885 13.9013 86.5885 17.6711C86.5885 17.7104 86.5885 17.7889 86.5885 17.8282C86.5885 17.8675 86.5492 17.8675 86.5492 17.8675C86.5099 17.8675 86.4706 17.8675 86.4706 17.8675C85.5282 17.8675 84.625 17.8675 83.6825 17.8675C83.6433 17.8675 83.604 17.8675 83.5647 17.8675C83.5647 17.8675 83.5255 17.8675 83.5255 17.8282C83.5255 17.7889 83.5255 17.7497 83.5255 17.7104C83.5255 17.4748 83.5255 17.1999 83.5255 16.9643C83.5255 16.925 83.5255 16.925 83.5255 16.8857C83.5255 16.8857 83.5255 16.8857 83.4862 16.8857C83.4469 16.925 83.4469 16.925 83.4077 16.9643C83.172 17.1606 82.8972 17.357 82.583 17.514C82.1903 17.7104 81.7976 17.8675 81.3657 17.946C81.1693 17.9853 81.0122 18.0245 80.8159 18.0245C80.7766 18.0245 80.7373 18.0245 80.7373 18.0638C80.4232 17.9853 80.109 17.9853 79.7949 17.9853ZM83.5647 12.0556C83.5647 10.2493 82.1118 8.7963 80.3054 8.75703C78.499 8.75703 77.046 10.21 77.0068 12.0164C77.0068 13.8227 78.4597 15.2757 80.2661 15.315C82.0725 15.3542 83.5647 13.862 83.5647 12.0556ZM108.226 17.9853C108.186 17.9853 108.147 17.9853 108.108 17.946C107.401 17.8675 106.694 17.7104 106.027 17.4355C105.673 17.2784 105.32 17.1214 105.006 16.8857C104.063 16.2574 103.396 15.4328 103.042 14.3725C102.924 14.0191 102.846 13.7049 102.767 13.3515C102.65 12.7625 102.65 12.2127 102.689 11.6237C102.728 10.7205 103.003 9.85656 103.435 9.07118C103.71 8.59995 104.063 8.12872 104.456 7.73603C105.084 7.10772 105.87 6.71503 106.734 6.47942C107.008 6.40088 107.323 6.36161 107.637 6.32234C107.912 6.28307 108.186 6.28307 108.461 6.28307C108.697 6.28307 108.972 6.28307 109.207 6.32234C109.482 6.36161 109.757 6.40088 110.032 6.47942C111.446 6.83284 112.624 7.73603 113.331 9.03191C113.566 9.4246 113.723 9.89583 113.802 10.3278C113.881 10.6027 113.92 10.8776 113.92 11.1524C113.959 11.5451 113.959 11.9378 113.959 12.2913C113.959 12.5269 113.959 12.8018 113.959 13.0374C113.959 13.0766 113.959 13.0766 113.959 13.1159C113.959 13.1159 113.959 13.1552 113.92 13.1552H113.881C113.841 13.1552 113.802 13.1552 113.763 13.1552C111.092 13.1552 108.422 13.1552 105.713 13.1552C105.673 13.1552 105.595 13.1552 105.555 13.1552C105.555 13.1552 105.516 13.1552 105.516 13.1944C105.516 13.2337 105.516 13.2337 105.516 13.273C105.555 13.3908 105.555 13.4693 105.595 13.5871C105.634 13.7835 105.752 13.9798 105.83 14.1369C106.027 14.4511 106.302 14.7259 106.616 14.9223C106.773 15.0401 106.969 15.1186 107.126 15.1579C107.44 15.315 107.794 15.3935 108.147 15.4721C108.344 15.5113 108.54 15.5506 108.776 15.5506C109.011 15.5506 109.247 15.5506 109.482 15.5113C109.797 15.4721 110.071 15.3935 110.346 15.315C110.7 15.1972 111.053 15.0008 111.407 14.8045C111.446 14.7652 111.524 14.7259 111.564 14.6867C111.564 14.6867 111.603 14.6867 111.603 14.6474H111.642C111.681 14.6867 111.721 14.7259 111.721 14.7259C112.074 15.1186 112.428 15.5113 112.781 15.904C112.938 16.0611 113.056 16.2182 113.213 16.3752C113.252 16.4145 113.252 16.4145 113.291 16.4538L113.252 16.4931C112.663 17.0036 112.035 17.3962 111.249 17.5926C110.857 17.7104 110.503 17.7889 110.111 17.8675C109.875 17.9067 109.639 17.946 109.365 17.946C109.325 17.946 109.286 17.946 109.247 17.9853C108.972 17.9853 108.579 17.9853 108.226 17.9853ZM108.304 10.8383C108.344 10.8383 108.422 10.8383 108.461 10.8383C109.286 10.8383 110.071 10.8383 110.896 10.8383C110.935 10.8383 110.975 10.8383 111.014 10.8383C111.014 10.8383 111.053 10.8383 111.053 10.799C111.053 10.799 111.053 10.799 111.053 10.7598C111.053 10.5634 111.014 10.3671 110.935 10.1707C110.818 9.89583 110.621 9.66022 110.386 9.4246C110.189 9.26753 109.993 9.11045 109.797 8.99264C109.365 8.75703 108.893 8.63922 108.422 8.63922C108.108 8.59995 107.794 8.63922 107.519 8.75703C106.93 8.9141 106.459 9.26753 106.066 9.73876C105.83 10.0136 105.713 10.3278 105.634 10.6812C105.634 10.7205 105.634 10.7598 105.595 10.8383C105.595 10.8383 105.595 10.8776 105.634 10.8776C105.673 10.8776 105.713 10.8776 105.752 10.8776C106.576 10.8383 107.44 10.8383 108.304 10.8383ZM120.438 17.9853C120.478 17.946 120.478 17.9853 120.517 17.946C120.596 17.946 120.713 17.9067 120.792 17.9067C120.831 17.9067 120.831 17.9067 120.87 17.8675C120.87 17.0036 120.87 16.1396 120.87 15.2757C120.674 15.2757 120.478 15.2757 120.281 15.2757C120.046 15.2757 119.81 15.2364 119.614 15.1579C119.26 15.0401 118.986 14.8045 118.789 14.4903C118.671 14.294 118.593 14.0976 118.514 13.9013C118.436 13.7049 118.396 13.4693 118.396 13.273C118.396 13.2337 118.396 13.1552 118.396 13.1159C118.396 12.2913 118.357 11.4273 118.357 10.6027C118.357 10.1707 118.357 9.73876 118.357 9.3068C118.357 9.26753 118.357 9.22826 118.357 9.18899C118.396 9.07118 118.357 9.07118 118.514 9.07118C119.182 9.07118 119.849 9.07118 120.517 9.07118C120.556 9.07118 120.596 9.07118 120.635 9.07118C120.674 9.07118 120.674 9.03191 120.674 8.99264C120.674 8.95337 120.674 8.95337 120.674 8.9141C120.674 8.16799 120.674 7.38261 120.674 6.63649C120.674 6.59722 120.674 6.55796 120.674 6.51869C120.674 6.51869 120.674 6.47942 120.635 6.47942C120.596 6.47942 120.556 6.47942 120.517 6.47942C119.849 6.47942 119.182 6.47942 118.554 6.47942C118.475 6.47942 118.396 6.47942 118.357 6.47942C118.318 6.40088 118.357 6.36161 118.357 6.28307C118.357 4.86938 118.357 3.45569 118.357 2.042C118.357 2.00273 118.357 1.96346 118.357 1.96346C117.375 1.96346 116.394 1.96346 115.451 1.96346C115.451 2.00273 115.451 2.042 115.451 2.08127C115.451 2.59177 115.451 3.10227 115.451 3.61277C115.451 4.75157 115.451 5.85111 115.451 6.98992C115.451 7.69676 115.451 8.40361 115.451 9.11045C115.451 9.62095 115.451 10.1707 115.451 10.6812C115.451 11.1917 115.451 11.6629 115.451 12.1734C115.451 12.7232 115.491 13.2337 115.53 13.7835C115.569 14.0584 115.608 14.294 115.648 14.5689C115.726 14.9616 115.844 15.315 116.001 15.6684C116.197 16.1004 116.433 16.4931 116.786 16.8072C117.14 17.1606 117.572 17.4748 118.043 17.6711C118.475 17.8675 118.946 17.9853 119.417 18.0245C119.457 18.0245 119.496 18.0245 119.535 18.0638C119.81 17.9853 120.124 17.9853 120.438 17.9853ZM71.1949 17.9853C71.1949 17.946 71.1949 17.9067 71.1949 17.9067C71.1949 15.1972 71.1949 12.4876 71.1949 9.73876C71.1949 9.54241 71.1949 9.58168 71.352 9.58168C72.0196 9.58168 72.6872 9.58168 73.3548 9.58168C73.394 9.58168 73.4333 9.58168 73.4726 9.58168C73.4726 9.58168 73.4726 9.58168 73.5118 9.58168C73.5118 9.54241 73.5118 9.50314 73.5118 9.50314C73.5118 8.71776 73.5118 7.93238 73.5118 7.14699C73.5118 7.10772 73.5118 7.10772 73.5118 7.06845C73.5118 7.06845 73.5118 7.02918 73.4726 7.02918C73.4333 7.02918 73.394 7.02918 73.3548 7.02918C72.6872 7.02918 72.0589 7.02918 71.3913 7.02918C71.352 7.02918 71.3128 7.02918 71.2735 7.02918C71.2342 7.02918 71.2342 7.02918 71.2342 6.98992C71.2342 6.91138 71.2342 6.79357 71.2342 6.71503C71.2735 6.47942 71.3128 6.28307 71.352 6.04746C71.4306 5.81184 71.5091 5.6155 71.6269 5.41915C71.8233 5.105 72.0981 4.90865 72.4123 4.79084C72.6086 4.7123 72.805 4.67304 73.0406 4.67304C73.1977 4.67304 73.394 4.67304 73.5511 4.67304C73.7082 4.67304 73.7082 4.67304 73.7082 4.51596C73.7082 3.76984 73.7082 3.02373 73.7082 2.23835C73.7082 2.19908 73.7082 2.15981 73.7082 2.15981V2.12054C73.7082 2.12054 73.7082 2.08127 73.6689 2.08127H73.6296C73.5118 2.00273 73.3155 1.96346 73.1584 1.96346C73.1191 1.96346 73.0799 1.96346 73.0406 1.92419C72.8835 1.92419 72.7264 1.92419 72.6086 1.92419C72.5694 1.96346 72.5301 1.96346 72.4908 1.96346C72.3337 1.96346 72.1767 2.00273 72.0196 2.00273C71.6662 2.042 71.3128 2.15981 70.9986 2.27762C70.0169 2.67031 69.31 3.33788 68.8781 4.28034C68.721 4.63377 68.6032 4.94792 68.5246 5.34061C68.4854 5.57623 68.4461 5.81184 68.4068 6.00819C68.3676 6.2438 68.3676 6.47942 68.3283 6.71503C68.3283 7.02919 68.289 7.30407 68.289 7.61822C68.289 8.59995 68.289 9.54241 68.289 10.5241C68.289 11.0739 68.289 11.6629 68.289 12.2127C68.289 14.0976 68.289 15.9433 68.289 17.8282C68.289 17.8675 68.289 17.9067 68.289 17.946C68.289 17.9853 68.289 17.9853 68.289 18.0245C69.2708 17.9853 70.2132 17.9853 71.1949 17.9853ZM61.3384 1.96346C61.3384 2.00273 61.3384 2.08127 61.3384 2.12054C61.3384 5.2228 61.3384 8.32507 61.3384 11.4273C61.3384 11.8986 61.3384 12.3305 61.3384 12.8018C61.3384 12.9981 61.3384 13.1944 61.3777 13.3908C61.3777 13.5871 61.4169 13.8227 61.4562 14.0191C61.4955 14.2547 61.5347 14.4511 61.574 14.6867C61.6525 15.0401 61.7703 15.4328 61.9274 15.7469C62.3201 16.5323 62.8699 17.1214 63.6553 17.4748C64.0087 17.6711 64.4014 17.7889 64.7548 17.8675C64.9511 17.9067 65.1082 17.946 65.3046 17.946C65.3438 17.946 65.3438 17.946 65.3831 17.9853C65.6973 17.9853 66.0507 17.9853 66.3648 17.9853C66.4041 17.946 66.4041 17.9853 66.4434 17.946C66.5612 17.946 66.6397 17.9067 66.7575 17.9067C66.8361 17.9067 66.8361 17.8675 66.8361 17.8282C66.8361 17.7889 66.8361 17.7497 66.8361 17.7497C66.8361 17.0036 66.8361 16.2574 66.8361 15.5113C66.8361 15.4721 66.8361 15.4328 66.8361 15.4328V15.3935C66.8361 15.3542 66.8361 15.3542 66.7968 15.3542C66.7575 15.3542 66.7183 15.3542 66.679 15.3542C66.5219 15.3542 66.4041 15.3542 66.247 15.3542C66.0507 15.3542 65.8543 15.315 65.6973 15.2757C65.3831 15.1972 65.1475 15.0401 64.9119 14.8437C64.7941 14.6867 64.6763 14.5296 64.5977 14.3725C64.5192 14.2154 64.4799 14.0584 64.4406 13.862C64.3621 13.6264 64.3228 13.3515 64.3228 13.1159C64.3228 12.6839 64.3228 12.2127 64.3228 11.7808C64.3228 10.7205 64.3228 9.62095 64.3228 8.56068C64.3228 8.05018 64.3228 7.57895 64.3228 7.06845C64.3228 6.2438 64.3228 5.45842 64.3228 4.63377C64.3228 4.24107 64.3228 3.84838 64.3228 3.49496C64.3228 3.02373 64.3228 2.5525 64.3228 2.08127C64.3228 2.042 64.3228 2.00273 64.3228 1.96346C63.2626 1.96346 62.2808 1.96346 61.3384 1.96346Z" fill="white"/>
<path d="M30.4431 0C30.2075 1.17807 29.9718 2.39542 29.7362 3.57349C29.5399 4.43742 28.7545 7.93237 28.5974 8.83556C28.4011 9.73875 27.7335 13.273 27.5372 14.2154C27.1837 16.1396 26.791 18.0245 26.4376 19.9487C26.3591 20.42 26.202 20.8912 26.0449 21.3624C25.2988 23.2081 24.1207 24.661 22.4322 25.682C19.8404 27.2528 17.1308 27.4099 14.3427 26.2711C12.6934 25.6035 11.4368 24.4647 10.4551 22.9725C9.55189 21.598 9.08066 20.0665 9.04139 18.4172C9.04139 17.7889 9.08066 17.1999 9.1592 16.5716C9.31627 15.3935 8.6487 14.4511 7.47062 14.2154C6.44962 14.0191 5.46789 13.8227 4.4469 13.6264C3.85786 13.5086 3.26882 13.3908 2.64051 13.273C1.58025 13.0766 0.559249 13.7442 0.323634 14.8045C0.0487501 16.0611 -0.0297882 17.3177 0.009481 18.6136C0.127288 22.2656 1.22682 25.5642 3.30809 28.5094C4.36836 30.0016 5.66424 31.3368 7.1172 32.4363C9.39481 34.1642 11.9473 35.2637 14.7747 35.7349C16.1098 35.9705 17.4057 36.0491 18.7409 35.9705C21.9609 35.7742 24.9061 34.8317 27.5764 33.0646C29.3435 31.8866 30.875 30.4729 32.1317 28.745C33.5846 26.7816 34.5663 24.661 35.1161 22.3049C35.2732 21.6373 35.391 20.9305 35.5088 20.2629C35.8622 18.3387 36.2549 16.4145 36.6083 14.4903C37.1581 11.7022 38.8074 3.6913 39.3179 0.903191L39.5143 0H30.4431V0Z" fill="url(#paint0_linear)"/>
<path d="M44.0717 26.9388C43.9539 26.9388 43.8754 26.9388 43.7576 26.9388C42.5009 26.821 41.3229 26.4676 40.1841 25.8785C38.8096 25.1717 37.7494 24.1114 36.9247 22.8155C36.1786 21.6375 35.7074 20.3416 35.6288 18.9671C35.5896 18.5352 35.6288 18.1032 35.5896 17.632C35.5503 17.043 35.511 16.4147 35.4325 15.8256C35.2754 14.569 35.0005 13.3517 34.5686 12.1343C33.5868 9.46401 32.0946 7.10786 30.0134 5.14441C28.6389 3.84852 27.0682 2.78826 25.3403 1.9636C22.7093 0.746259 19.9605 0.196491 17.0545 0.314298C15.9943 0.353567 14.934 0.471375 13.913 0.70699C10.4573 1.49237 7.47286 3.18095 4.9989 5.73344C2.79983 8.01105 1.34687 10.6814 0.561487 13.7051C0.208064 15.1188 0.0117188 16.5325 0.0117188 17.9462C0.0117188 18.2603 0.0509879 18.5352 0.208065 18.8101C0.600756 19.5955 1.22906 19.9881 2.09298 19.9881C3.74229 19.9881 5.35232 19.9881 7.00163 19.9881C7.62994 19.9881 8.14043 19.7525 8.5724 19.242C8.92582 18.8493 9.04363 18.3388 9.04363 17.8283C9.04363 16.9252 9.2007 16.0612 9.51486 15.2366C10.8107 11.3882 14.7377 8.67863 19.1358 9.34621C21.0207 9.62109 22.67 10.4457 24.0444 11.8202C25.7723 13.548 26.6362 15.6293 26.6362 18.1032C26.6362 19.6347 26.8326 21.1662 27.2252 22.6585C28.0892 25.9571 29.7777 28.7452 32.2517 31.1013C33.8617 32.6328 35.6681 33.8109 37.7101 34.6355C39.0845 35.1853 40.4589 35.578 41.9512 35.7744C42.658 35.8529 43.3649 35.9314 44.0717 35.9314V26.9388Z" fill="url(#paint1_linear)"/>
<defs>
<linearGradient id="paint0_linear" x1="0.735086" y1="12.7507" x2="35.773" y2="19.5277" gradientUnits="userSpaceOnUse">
<stop offset="0.2816" stop-color="#00A099"/>
<stop offset="0.777" stop-color="#007581"/>
</linearGradient>
<linearGradient id="paint1_linear" x1="0.00637814" y1="18.1156" x2="46.1674" y2="18.1156" gradientUnits="userSpaceOnUse">
<stop offset="0.4562" stop-color="#00A099"/>
<stop offset="0.9527" stop-color="#007581"/>
</linearGradient>
</defs>
</svg>
