<svg width="201" height="153" viewBox="0 0 201 153" fill="none" xmlns="http://www.w3.org/2000/svg">
<g opacity="0.5">
<mask id="path-1-outside-1" maskUnits="userSpaceOnUse" x="0.678833" y="0" width="201" height="153" fill="black">
<rect fill="white" x="0.678833" width="201" height="153"/>
<path fill-rule="evenodd" clip-rule="evenodd" d="M170.528 15.56C173.591 11.6364 172.894 5.97244 168.97 2.90917C165.046 -0.154109 159.382 0.543319 156.319 4.46691L115.184 57.1551C108.119 65.5232 103.861 76.3377 103.861 88.1468C103.861 114.695 125.382 136.216 151.93 136.216C178.478 136.216 200 114.695 200 88.1468C200 61.5987 178.478 40.0772 151.93 40.0772C151.748 40.0772 151.566 40.0782 151.384 40.0802L170.528 15.56ZM127.482 70.6819C127.566 70.5832 127.648 70.4823 127.729 70.3792L129.152 68.5567C134.661 62.1561 142.822 58.1033 151.93 58.1033C168.523 58.1033 181.974 71.5542 181.974 88.1468C181.974 104.739 168.523 118.19 151.93 118.19C135.338 118.19 121.887 104.739 121.887 88.1468C121.887 81.6331 123.96 75.6036 127.482 70.6819ZM74.1983 81.5183C77.7196 76.5969 79.792 70.568 79.792 64.0551C79.792 47.4626 66.3411 34.0116 49.7485 34.0116C33.1559 34.0116 19.705 47.4626 19.705 64.0551C19.705 80.6477 33.1559 94.0987 49.7485 94.0987C58.8548 94.0987 67.0148 90.0472 72.5244 83.6485L73.9497 81.823C74.0308 81.7191 74.1136 81.6176 74.1983 81.5183ZM86.4915 95.0509C93.5584 86.6822 97.8181 75.8661 97.8181 64.0551C97.8181 37.507 76.2966 15.9855 49.7485 15.9855C23.2003 15.9855 1.67883 37.507 1.67883 64.0551C1.67883 90.6033 23.2003 112.125 49.7485 112.125C49.9307 112.125 50.1127 112.124 50.2945 112.122L31.1506 136.642C28.0874 140.566 28.7848 146.23 32.7084 149.293C36.632 152.356 42.2959 151.659 45.3592 147.735L86.4915 95.0509Z"/>
</mask>
<g filter="url(#filter0_i)">
<path fill-rule="evenodd" clip-rule="evenodd" d="M170.528 15.56C173.591 11.6364 172.894 5.97244 168.97 2.90917C165.046 -0.154109 159.382 0.543319 156.319 4.46691L115.184 57.1551C108.119 65.5232 103.861 76.3377 103.861 88.1468C103.861 114.695 125.382 136.216 151.93 136.216C178.478 136.216 200 114.695 200 88.1468C200 61.5987 178.478 40.0772 151.93 40.0772C151.748 40.0772 151.566 40.0782 151.384 40.0802L170.528 15.56ZM127.482 70.6819C127.566 70.5832 127.648 70.4823 127.729 70.3792L129.152 68.5567C134.661 62.1561 142.822 58.1033 151.93 58.1033C168.523 58.1033 181.974 71.5542 181.974 88.1468C181.974 104.739 168.523 118.19 151.93 118.19C135.338 118.19 121.887 104.739 121.887 88.1468C121.887 81.6331 123.96 75.6036 127.482 70.6819ZM74.1983 81.5183C77.7196 76.5969 79.792 70.568 79.792 64.0551C79.792 47.4626 66.3411 34.0116 49.7485 34.0116C33.1559 34.0116 19.705 47.4626 19.705 64.0551C19.705 80.6477 33.1559 94.0987 49.7485 94.0987C58.8548 94.0987 67.0148 90.0472 72.5244 83.6485L73.9497 81.823C74.0308 81.7191 74.1136 81.6176 74.1983 81.5183ZM86.4915 95.0509C93.5584 86.6822 97.8181 75.8661 97.8181 64.0551C97.8181 37.507 76.2966 15.9855 49.7485 15.9855C23.2003 15.9855 1.67883 37.507 1.67883 64.0551C1.67883 90.6033 23.2003 112.125 49.7485 112.125C49.9307 112.125 50.1127 112.124 50.2945 112.122L31.1506 136.642C28.0874 140.566 28.7848 146.23 32.7084 149.293C36.632 152.356 42.2959 151.659 45.3592 147.735L86.4915 95.0509Z" fill="#3A4355"/>
</g>
<path d="M168.97 2.90917L169.585 2.12094V2.12094L168.97 2.90917ZM170.528 15.56L169.739 14.9446L170.528 15.56ZM156.319 4.46691L155.531 3.85152V3.85152L156.319 4.46691ZM115.184 57.1551L115.948 57.8002L115.96 57.7856L115.972 57.7705L115.184 57.1551ZM151.384 40.0802L150.596 39.4648L149.317 41.1033L151.395 41.0801L151.384 40.0802ZM127.729 70.3792L126.94 69.7638V69.7638L127.729 70.3792ZM127.482 70.6819L126.72 70.0335L126.693 70.0656L126.669 70.0999L127.482 70.6819ZM129.152 68.5567L128.394 67.9043L128.378 67.9224L128.363 67.9413L129.152 68.5567ZM74.1983 81.5183L74.9594 82.1669L74.9869 82.1346L75.0115 82.1002L74.1983 81.5183ZM72.5244 83.6485L73.2822 84.301L73.2979 84.2828L73.3126 84.2639L72.5244 83.6485ZM73.9497 81.823L73.1615 81.2076L73.9497 81.823ZM86.4915 95.0509L85.7275 94.4058L85.7151 94.4204L85.7033 94.4356L86.4915 95.0509ZM50.2945 112.122L51.0827 112.737L52.3619 111.099L50.2834 111.122L50.2945 112.122ZM31.1506 136.642L31.9389 137.258H31.9389L31.1506 136.642ZM32.7084 149.293L32.093 150.081H32.093L32.7084 149.293ZM45.3592 147.735L44.571 147.12L45.3592 147.735ZM168.355 3.69739C171.843 6.42079 172.463 11.4563 169.739 14.9446L171.316 16.1754C174.719 11.8165 173.944 5.52409 169.585 2.12094L168.355 3.69739ZM157.107 5.0823C159.831 1.59403 164.866 0.973984 168.355 3.69739L169.585 2.12094C165.226 -1.2822 158.934 -0.507395 155.531 3.85152L157.107 5.0823ZM115.972 57.7705L157.107 5.0823L155.531 3.85152L114.396 56.5397L115.972 57.7705ZM104.861 88.1468C104.861 76.5826 109.03 65.9947 115.948 57.8002L114.42 56.51C107.208 65.0518 102.861 76.0929 102.861 88.1468H104.861ZM151.93 135.216C125.934 135.216 104.861 114.143 104.861 88.1468H102.861C102.861 115.247 124.83 137.216 151.93 137.216V135.216ZM199 88.1468C199 114.143 177.926 135.216 151.93 135.216V137.216C179.031 137.216 201 115.247 201 88.1468H199ZM151.93 41.0772C177.926 41.0772 199 62.151 199 88.1468H201C201 61.0464 179.031 39.0772 151.93 39.0772V41.0772ZM151.395 41.0801C151.573 41.0782 151.752 41.0772 151.93 41.0772V39.0772C151.744 39.0772 151.558 39.0782 151.373 39.0803L151.395 41.0801ZM169.739 14.9446L150.596 39.4648L152.172 40.6956L171.316 16.1754L169.739 14.9446ZM126.94 69.7638C126.869 69.8557 126.795 69.9456 126.72 70.0335L128.243 71.3303C128.336 71.2208 128.428 71.1089 128.517 70.9946L126.94 69.7638ZM128.363 67.9413L126.94 69.7638L128.517 70.9946L129.94 69.1721L128.363 67.9413ZM151.93 57.1033C142.519 57.1033 134.085 61.2924 128.394 67.9043L129.909 69.2091C135.237 63.0198 143.126 59.1033 151.93 59.1033V57.1033ZM182.974 88.1468C182.974 71.0019 169.075 57.1033 151.93 57.1033V59.1033C167.971 59.1033 180.974 72.1065 180.974 88.1468H182.974ZM151.93 119.19C169.075 119.19 182.974 105.292 182.974 88.1468H180.974C180.974 104.187 167.971 117.19 151.93 117.19V119.19ZM120.887 88.1468C120.887 105.292 134.785 119.19 151.93 119.19V117.19C135.89 117.19 122.887 104.187 122.887 88.1468H120.887ZM126.669 70.0999C123.029 75.1857 120.887 81.4176 120.887 88.1468H122.887C122.887 81.8486 124.89 76.0214 128.295 71.2638L126.669 70.0999ZM78.792 64.0551C78.792 70.3525 76.7889 76.1791 73.385 80.9364L75.0115 82.1002C78.6503 77.0147 80.792 70.7835 80.792 64.0551H78.792ZM49.7485 35.0116C65.7888 35.0116 78.792 48.0148 78.792 64.0551H80.792C80.792 46.9103 66.8933 33.0116 49.7485 33.0116V35.0116ZM20.705 64.0551C20.705 48.0148 33.7082 35.0116 49.7485 35.0116V33.0116C32.6036 33.0116 18.705 46.9103 18.705 64.0551H20.705ZM49.7485 93.0987C33.7082 93.0987 20.705 80.0954 20.705 64.0551H18.705C18.705 81.2 32.6036 95.0987 49.7485 95.0987V93.0987ZM71.7666 82.996C66.4389 89.1835 58.5515 93.0987 49.7485 93.0987V95.0987C59.1581 95.0987 67.5907 90.9109 73.2822 84.301L71.7666 82.996ZM73.3126 84.2639L74.7379 82.4384L73.1615 81.2076L71.7362 83.0331L73.3126 84.2639ZM74.7379 82.4384C74.8102 82.3458 74.884 82.2553 74.9594 82.1669L73.4372 80.8696C73.3433 80.9798 73.2513 81.0925 73.1615 81.2076L74.7379 82.4384ZM96.8181 64.0551C96.8181 75.6213 92.6477 86.2107 85.7275 94.4058L87.2555 95.6961C94.4691 87.1537 98.8181 76.111 98.8181 64.0551H96.8181ZM49.7485 16.9855C75.7443 16.9855 96.8181 38.0593 96.8181 64.0551H98.8181C98.8181 36.9547 76.8489 14.9855 49.7485 14.9855V16.9855ZM2.67883 64.0551C2.67883 38.0593 23.7526 16.9855 49.7485 16.9855V14.9855C22.6481 14.9855 0.678833 36.9547 0.678833 64.0551H2.67883ZM49.7485 111.125C23.7526 111.125 2.67883 90.051 2.67883 64.0551H0.678833C0.678833 91.1555 22.6481 113.125 49.7485 113.125V111.125ZM50.2834 111.122C50.1053 111.124 49.927 111.125 49.7485 111.125V113.125C49.9344 113.125 50.1201 113.124 50.3056 113.122L50.2834 111.122ZM31.9389 137.258L51.0827 112.737L49.5063 111.506L30.3624 136.027L31.9389 137.258ZM33.3238 148.505C29.8355 145.781 29.2155 140.746 31.9389 137.258L30.3624 136.027C26.9593 140.386 27.7341 146.678 32.093 150.081L33.3238 148.505ZM44.571 147.12C41.8476 150.608 36.812 151.228 33.3238 148.505L32.093 150.081C36.4519 153.484 42.7443 152.71 46.1474 148.351L44.571 147.12ZM85.7033 94.4356L44.571 147.12L46.1474 148.351L87.2797 95.6663L85.7033 94.4356Z" fill="#4A5264" mask="url(#path-1-outside-1)"/>
</g>
<defs>
<filter id="filter0_i" x="0.678833" y="0" width="200.321" height="155.202" filterUnits="userSpaceOnUse" color-interpolation-filters="sRGB">
<feFlood flood-opacity="0" result="BackgroundImageFix"/>
<feBlend mode="normal" in="SourceGraphic" in2="BackgroundImageFix" result="shape"/>
<feColorMatrix in="SourceAlpha" type="matrix" values="0 0 0 0 0 0 0 0 0 0 0 0 0 0 0 0 0 0 127 0" result="hardAlpha"/>
<feOffset dy="3"/>
<feGaussianBlur stdDeviation="5"/>
<feComposite in2="hardAlpha" operator="arithmetic" k2="-1" k3="1"/>
<feColorMatrix type="matrix" values="0 0 0 0 0.0588235 0 0 0 0 0.0980392 0 0 0 0 0.172549 0 0 0 0.16 0"/>
<feBlend mode="normal" in2="shape" result="effect1_innerShadow"/>
</filter>
</defs>
</svg>
