<svg width="24" height="24" viewBox="0 0 24 24"  xmlns="http://www.w3.org/2000/svg">
<path fill-rule="evenodd" clip-rule="evenodd" d="M12 23C18.0751 23 23 18.0751 23 12C23 5.92487 18.0751 1 12 1C5.92487 1 1 5.92487 1 12C1 18.0751 5.92487 23 12 23ZM12 24C18.6274 24 24 18.6274 24 12C24 5.37258 18.6274 0 12 0C5.37258 0 0 5.37258 0 12C0 18.6274 5.37258 24 12 24Z" />
<circle cx="12" cy="10" r="3.5" stroke="white"/>
<path fill-rule="evenodd" clip-rule="evenodd" d="M10.4 15C7.4 15 4.86816 16.7308 4 20.3205L6.27139 21.5402L8.17451 22.5161L10.0616 23H13.9384L15.8255 22.5161L17.7286 21.5402L20 19.9231C19.132 16.8462 17.1 15 13.6 15L12 17.359L10.4 15ZM14 16L12 19L10 16C8.68247 16.0401 7.36134 16.7923 6.7226 17.359C6 18 5.4277 18.9728 5 20.5L6.27139 21.5402L8.17451 22.5161L10.0616 23H13.9384L15.8255 22.5161L17.7286 21.5402L19 20.5C18.5807 19.1807 18.1713 18.1132 17.2922 17.359C16.3957 16.5898 15.5281 16.0458 14 16Z" />
</svg>
