<svg width="7" height="9" viewBox="0 0 7 9"  xmlns="http://www.w3.org/2000/svg">
<path d="M1.12112 6.81608L1.01817 6.98533L1.80202 7.65529L1.90748 7.51187L3.67022 5.44403L2.62276 4.51622L1.12112 6.81608Z" />
<path d="M6.64437 0.297851L6.54179 0.231151C6.14683 -0.142655 5.5572 -0.047941 5.2656 0.406017L2.76367 4.23888L3.84007 5.21593L6.7591 1.72781C7.12583 1.31744 7.06301 0.669182 6.64437 0.297851Z" />
<path d="M0.728574 7.44015L1.4562 8.03774L1.63127 7.85973L0.895099 7.1846L0.728574 7.44015Z" />
<path d="M0.555631 7.64434C0.406504 7.58305 0.22238 7.65699 0.0950792 7.82888C-0.0529161 8.02967 -0.025253 8.31515 0.157931 8.4775L0.605489 8.8977C0.81304 9.0576 1.07333 9.02732 1.22162 8.82602C1.32707 8.68261 1.33054 8.47242 1.28935 8.29336L0.555631 7.64434Z" />
</svg>
