<svg width="24" height="24" viewBox="0 0 24 24"  xmlns="http://www.w3.org/2000/svg">
<path d="M5 10.5C4.72386 10.5 4.5 10.2761 4.5 10V6C4.5 5.72386 4.72386 5.5 5 5.5H8C8.27614 5.5 8.5 5.72386 8.5 6V10C8.5 10.2761 8.27614 10.5 8 10.5H5ZM5 17.5C4.72386 17.5 4.5 17.2761 4.5 17V13C4.5 12.7239 4.72386 12.5 5 12.5H8C8.27614 12.5 8.5 12.7239 8.5 13V17C8.5 17.2761 8.27614 17.5 8 17.5H5ZM11 17.5C10.7239 17.5 10.5 17.2761 10.5 17V13C10.5 12.7239 10.7239 12.5 11 12.5H14C14.2761 12.5 14.5 12.7239 14.5 13V17C14.5 17.2761 14.2761 17.5 14 17.5H11ZM17 17.5C16.7239 17.5 16.5 17.2761 16.5 17V13C16.5 12.7239 16.7239 12.5 17 12.5H20C20.2761 12.5 20.5 12.7239 20.5 13V17C20.5 17.2761 20.2761 17.5 20 17.5H17ZM11 10.5C10.7239 10.5 10.5 10.2761 10.5 10V6C10.5 5.72386 10.7239 5.5 11 5.5H14C14.2761 5.5 14.5 5.72386 14.5 6V10C14.5 10.2761 14.2761 10.5 14 10.5H11ZM16.5 6C16.5 5.72386 16.7239 5.5 17 5.5H20C20.2761 5.5 20.5 5.72386 20.5 6V10C20.5 10.2761 20.2761 10.5 20 10.5H17C16.7239 10.5 16.5 10.2761 16.5 10V6Z" stroke="white" stroke-opacity="0.5"/>
</svg>
