<svg width="10" height="10" viewBox="0 0 10 10"  xmlns="http://www.w3.org/2000/svg">
<path d="M10.001 4.76588V5.23761C9.99603 5.24924 9.99412 5.26194 9.99544 5.27451C9.99329 5.31326 9.99206 5.352 9.98991 5.39075C9.98376 5.49161 9.97207 5.59186 9.95916 5.6918C9.93865 5.83695 9.91221 5.98045 9.87982 6.12232C9.66291 7.06595 9.17611 7.92607 8.47879 8.5978C7.88653 9.17076 7.16155 9.58808 6.36864 9.81247C6.20438 9.85893 6.03778 9.8967 5.86955 9.92564C5.77391 9.94193 5.67797 9.95639 5.58171 9.96684C5.49684 9.97637 5.41197 9.98468 5.32648 9.98929C5.27697 9.99206 5.22746 9.9939 5.17826 9.99636C5.16875 9.99739 5.15931 9.99893 5.14997 10.001H4.86459C4.85445 9.99881 4.84418 9.99727 4.83384 9.99636C4.73667 9.9939 4.64011 9.98683 4.54324 9.97822C4.45325 9.97023 4.36366 9.95998 4.27448 9.94747C4.14389 9.9282 4.01432 9.9038 3.88578 9.87428C3.50366 9.78738 3.13327 9.65524 2.78243 9.48067C1.7616 8.97197 0.944476 8.13076 0.465628 7.0956C0.313699 6.76598 0.198608 6.4206 0.122444 6.06574C0.0981505 5.9538 0.0775472 5.84125 0.0609415 5.72747C0.0504861 5.65552 0.0424908 5.58325 0.0351105 5.51222C0.0283452 5.44456 0.0231175 5.37691 0.0185048 5.30926C0.0151221 5.25606 0.0138921 5.20255 0.011432 5.14935C0.011432 5.12813 0.00835686 5.10691 0.00620428 5.0857C0.00620428 5.08231 0.00282164 5.07924 0.000976562 5.07586V4.93594C0.00311572 4.93127 0.00446659 4.92628 0.00497423 4.92118C0.00712681 4.89719 0.00958691 4.8729 0.0102019 4.8486C0.0132771 4.72837 0.0218874 4.60844 0.0338804 4.48851C0.0435158 4.39195 0.0560213 4.2958 0.0713969 4.20006C0.0939479 4.06127 0.122239 3.92361 0.15627 3.78707C0.349803 3.01882 0.722687 2.30738 1.24434 1.7111C1.766 1.11482 2.42157 0.65069 3.15729 0.356769C3.4312 0.24729 3.71444 0.162791 4.00356 0.104301C4.10258 0.0843125 4.2016 0.0661692 4.30185 0.0532537C4.36919 0.0443358 4.43654 0.036033 4.50419 0.0292677C4.57184 0.0225024 4.6355 0.0175822 4.70131 0.0132771C4.76035 0.00958691 4.8197 0.00774184 4.87874 0.00497423C4.88731 0.00408353 4.89583 0.00274918 4.90426 0.000976562H5.10814C5.12137 0.00251413 5.1349 0.00497423 5.14812 0.00558925C5.28978 0.00968942 5.43103 0.0199398 5.57187 0.0363405C5.66259 0.0464884 5.75269 0.0587889 5.84279 0.0741645C6.00065 0.100816 6.15686 0.135052 6.31144 0.176874C7.11401 0.394512 7.84976 0.808567 8.45228 1.38167C9.05481 1.95478 9.50515 2.66889 9.76265 3.45957C9.82556 3.65333 9.8763 3.85083 9.91457 4.05092C9.93271 4.14532 9.9487 4.23973 9.96069 4.33506C9.96807 4.39287 9.97576 4.45038 9.9813 4.5085C9.98775 4.57799 9.99544 4.64749 9.99513 4.7176C9.99513 4.72929 9.99513 4.74097 9.99667 4.75235C9.99758 4.75701 9.99902 4.76155 10.001 4.76588ZM6.50979 4.81816C6.50979 4.81816 5.26436 4.81816 4.43223 4.81816H4.40609L4.40302 4.81662C4.40302 4.81447 4.39994 4.81201 4.39994 4.80924C4.39994 4.37626 4.39994 3.94329 4.39994 3.51031C4.40043 3.50662 4.40136 3.50301 4.40271 3.49955C4.41686 3.49535 4.43172 3.4941 4.44638 3.49586H7.14326C7.15495 3.49586 7.16663 3.49586 7.17832 3.49586C7.18545 3.49514 7.19254 3.49401 7.19954 3.49247V3.45373C7.19954 3.11587 7.19954 2.77761 7.19954 2.43894C7.19954 2.43033 7.19954 2.42141 7.19954 2.4128C7.19871 2.40667 7.19748 2.40061 7.19585 2.39465H3.22186C3.21325 2.39465 3.20433 2.39465 3.19572 2.39465C3.18972 2.39543 3.18376 2.39656 3.17789 2.39804C3.17789 2.41372 3.17789 2.42879 3.17789 2.44263C3.17789 3.2192 3.17789 3.99587 3.17789 4.77265C3.17789 4.78341 3.17789 4.79387 3.17789 4.8034C3.1774 4.80847 3.17657 4.8135 3.17543 4.81847C3.16871 4.81965 3.16194 4.82047 3.15513 4.82093H2.73169C2.71944 4.81901 2.7069 4.82083 2.69571 4.82616C2.69571 4.83569 2.69571 4.84614 2.69571 4.85691C2.69571 5.19968 2.69571 5.54235 2.69571 5.88492C2.69538 5.89076 2.69538 5.89661 2.69571 5.90245C2.69672 5.90836 2.69805 5.91421 2.69971 5.91998H3.14345C3.15463 5.91846 3.16601 5.91962 3.17666 5.92336C3.17666 5.93689 3.17666 5.95011 3.17666 5.96364C3.17666 6.65575 3.17666 7.34796 3.17666 8.04028C3.17666 8.05104 3.17666 8.0618 3.17666 8.07103C3.17739 8.07704 3.17852 8.083 3.18004 8.08886C3.19265 8.08886 3.20433 8.08886 3.21571 8.08886H4.36027C4.36704 8.08886 4.3738 8.08886 4.38057 8.08886C4.38649 8.0879 4.39235 8.08657 4.3981 8.08487C4.3981 8.0701 4.3981 8.05657 4.3981 8.04335C4.3981 7.35124 4.3981 6.65903 4.3981 5.96672C4.3981 5.95596 4.3981 5.9455 4.3981 5.93597C4.39862 5.9308 4.39944 5.92567 4.40056 5.92059C4.41009 5.92059 4.4187 5.92059 4.427 5.92059C4.55985 5.92059 4.693 5.92059 4.82677 5.92059C5.52083 5.92059 6.48734 5.92059 6.49964 5.92059C6.50425 5.92059 6.51686 5.91229 6.51686 5.90952C6.51686 5.55219 6.51686 5.19497 6.51686 4.83784C6.51621 4.83079 6.51377 4.82402 6.50979 4.81816Z" fill="#F8EA3E"/>
</svg>
