<svg width="34" height="24" viewBox="0 0 34 24"  xmlns="http://www.w3.org/2000/svg">
<path fill-rule="evenodd" clip-rule="evenodd" d="M27.4323 2.33891C23.9799 -1.58712 16.5331 -0.455617 10.8283 4.87031C5.12347 10.1962 3.29217 17.7273 6.74456 21.6585C7.87933 22.913 9.43206 23.7118 11.1125 23.9058C14.7966 24.432 19.475 22.7427 23.3537 19.1272C25.9592 16.7809 27.8537 13.7503 28.8217 10.3804C29.6374 7.14909 29.1533 4.29667 27.4323 2.33891ZM27.2431 9.95414C26.3588 13.0163 24.6342 15.7694 22.2646 17.901C17.2175 22.6374 10.7863 23.8058 7.92864 20.5323C5.07098 17.2589 6.87615 10.7962 11.8969 6.08076C15.4177 2.79151 19.6069 1.22322 22.7907 1.67054C24.1181 1.81785 25.3456 2.4448 26.2431 3.43357C27.5851 4.97557 27.943 7.28593 27.2431 9.95414ZM18.4963 6.51759L19.9225 5.12822C20.0256 5.02793 20.1906 5.03028 20.2909 5.13346C20.391 5.23664 20.3888 5.40159 20.2856 5.50187L18.8437 6.90177L19.7223 7.80696C19.7873 7.8737 19.8117 7.96998 19.7863 8.05955C19.7609 8.14909 19.6896 8.2183 19.5995 8.2411C19.5092 8.2639 19.4137 8.23683 19.3488 8.17009L18.4858 7.25437L16.7807 8.9174L17.6594 9.82261C17.7243 9.88935 17.7487 9.98564 17.7233 10.0752C17.6979 10.1647 17.6266 10.234 17.5366 10.2568C17.4863 10.2695 17.4343 10.2667 17.3869 10.2502C17.3493 10.2371 17.3146 10.2153 17.2858 10.1857L16.4069 9.28053L14.7018 10.9436L15.5807 11.8488C15.6476 11.9178 15.6689 12.0144 15.6447 12.1008C15.6327 12.1437 15.6096 12.184 15.5754 12.2172C15.4721 12.3174 15.3073 12.3151 15.207 12.2119L14.3281 11.3067L12.623 12.9697L13.5019 13.8749C13.5663 13.9411 13.5883 14.0327 13.5688 14.1163C13.5578 14.1631 13.5336 14.2074 13.4965 14.2433C13.3935 14.3436 13.2284 14.3413 13.1281 14.2381L12.2494 13.3329L10.9179 14.6275C10.8146 14.7278 10.6498 14.7254 10.5495 14.6222C10.4491 14.5191 10.4516 14.3541 10.5546 14.2539L11.8862 12.9592L11.0126 12.0593C10.9477 11.9925 10.9233 11.8963 10.9487 11.8067C10.9741 11.7171 11.0453 11.6479 11.1357 11.6251C11.2258 11.6023 11.3215 11.6294 11.3862 11.6961L12.2599 12.5961L13.965 10.9331L13.0915 10.0331C12.9911 9.92994 12.9933 9.765 13.0966 9.66471C13.1999 9.56443 13.3647 9.56678 13.465 9.66999L14.3386 10.5699L16.0439 8.90687L15.1701 8.00694C15.1398 7.97572 15.1183 7.93806 15.1066 7.89765C15.0934 7.85163 15.0929 7.80204 15.1064 7.75437C15.1318 7.66481 15.2028 7.59559 15.2931 7.5728C15.342 7.5605 15.3923 7.56272 15.4384 7.57789C15.4777 7.5908 15.5141 7.61311 15.5439 7.64381L16.4174 8.54374L18.1225 6.88072L17.249 5.98078C17.184 5.91404 17.1598 5.81776 17.1852 5.72819C17.1974 5.68544 17.2199 5.64732 17.2499 5.61668C17.2829 5.58314 17.3249 5.55854 17.372 5.54664C17.4621 5.52381 17.5578 5.55088 17.6227 5.61766L18.4963 6.51759Z" />
</svg>
