<svg width="34" height="24" viewBox="0 0 34 24"  xmlns="http://www.w3.org/2000/svg">
<path fill-rule="evenodd" clip-rule="evenodd" d="M20.4419 23.7308L20.7991 24L20.825 23.9741L21.5703 23.2235C21.6327 23.1628 21.6946 23.1011 21.7565 23.0393L21.8635 22.9328C21.8966 22.9 21.9299 22.8673 21.9634 22.8348C22.0398 22.7607 22.1173 22.6879 22.1968 22.6178C22.5181 22.3455 22.7537 21.9859 22.8749 21.5825C22.949 21.3159 22.9995 21.0776 23.0532 20.8225L23.054 20.8198L23.0613 20.7853C23.2633 19.8671 23.4585 18.9557 23.6548 18.0394L23.6577 18.0258C23.8024 17.3503 23.9476 16.6722 24.0966 15.9866C24.4486 14.3663 24.8162 12.7512 25.1785 11.1309L25.2079 10.9996C25.3011 10.5827 25.3942 10.1667 25.5253 9.7591C25.796 8.90589 26.2264 8.11186 26.7936 7.41929C27.0165 7.14603 27.2059 6.84712 27.3578 6.52891C27.7886 5.65659 27.9143 4.66505 27.7151 3.71281C27.4464 2.3043 26.5266 1.10615 25.2355 0.482613C24.4392 0.0708091 23.5347 -0.0829995 22.6471 0.0425804C21.4066 0.189645 20.2822 0.843636 19.5411 1.84922C19.3636 2.08189 19.1718 2.3032 18.9666 2.51185C18.5601 2.90421 18.1123 3.25135 17.631 3.54716C17.2542 3.78431 16.8654 4.00202 16.4662 4.19941L12.8425 6.063L10.891 7.04658L6.69788 9.15864C6.52075 9.23444 6.36963 9.36042 6.26306 9.521C6.06116 9.86784 5.86963 10.2095 5.67297 10.5563L5.10876 11.5657L5 11.7676L5.32617 12.0317L6.42871 12.8858C6.47131 12.915 6.49658 12.9636 6.49609 13.0152C6.51672 13.4293 6.53748 13.8486 6.56848 14.2628C6.58801 14.6581 6.83105 15.0077 7.19495 15.1635L7.93518 15.4896C8.00793 15.516 8.06116 15.5791 8.07495 15.6553C8.11328 15.8277 8.15295 16.0001 8.19336 16.1725L8.23425 16.3462L8.29028 16.5832C8.32739 16.7398 8.3645 16.8964 8.401 17.053C8.42847 17.1908 8.4812 17.3225 8.5564 17.4412C8.70264 17.6549 8.93164 17.7975 9.18787 17.8347L10.0782 18.021C10.0847 18.022 10.0911 18.0234 10.0973 18.0251C10.1095 18.0286 10.1212 18.0334 10.1321 18.0395C10.1434 18.0458 10.1539 18.0536 10.1635 18.0624C10.1802 18.0781 10.1936 18.0974 10.2025 18.1194C10.2284 18.1815 10.2698 18.2436 10.3009 18.3057C10.5287 18.7354 10.7563 19.165 10.9894 19.5947C11.1392 19.8684 11.3994 20.0644 11.7037 20.1331C11.8281 20.1706 11.9569 20.2066 12.0883 20.2413C12.3014 20.2978 12.5212 20.351 12.739 20.4023C12.8658 20.434 12.9988 20.4566 13.1331 20.4794L13.1349 20.4797L13.2567 20.5006C13.3132 20.5065 13.3654 20.5277 13.4087 20.5604C13.4629 20.6012 13.5032 20.6597 13.5208 20.7284C13.5237 20.7378 13.527 20.7472 13.5306 20.7566L13.5347 20.7664L13.5497 20.8007C13.5593 20.8224 13.569 20.844 13.5762 20.8657C13.5809 20.8802 13.5846 20.8947 13.5865 20.9092L13.5875 20.9176L13.588 20.9303C13.6493 21.1296 13.7345 21.3208 13.8417 21.4997C13.9696 21.713 14.167 21.8756 14.4008 21.9604C14.5909 22.0225 14.7916 22.0454 14.9908 22.0277L15.9847 21.9656H16.1608C16.3782 21.9656 16.3938 21.9708 16.5232 22.152L16.901 22.6696C16.9403 22.7286 16.9879 22.7815 17.0421 22.8265L17.0552 22.8371L17.0751 22.8523C17.0892 22.8626 17.1036 22.8725 17.1185 22.8818C17.1459 22.8993 17.1757 22.9156 17.2062 22.9312L17.2589 22.9576L17.2683 22.9622L17.3048 22.9802C17.493 23.0819 17.7097 23.1183 17.9209 23.0837C18.3453 23.0165 18.7698 22.9388 19.184 22.8353C19.2117 22.8272 19.2406 22.8271 19.2676 22.8344C19.2802 22.8377 19.2924 22.8427 19.3038 22.8492C19.3087 22.8519 19.3134 22.8549 19.318 22.8582L19.3243 22.863L19.3341 22.8715L20.0018 23.3892L20.4419 23.7308ZM11.1964 17.0064L20.1261 7.76093L20.8508 8.30967L20.8273 8.35743C20.8058 8.40125 20.7856 8.44227 20.7628 8.48048L20.4678 8.97227L19.9034 9.89372L19.4583 10.6236L18.8837 11.5606L18.4333 12.2905L17.8691 13.2067L17.4187 13.9418L16.8545 14.8633L16.4041 15.5983L15.8398 16.5198L15.3998 17.2393L14.8407 18.1349L14.3904 18.87C14.3438 18.9528 14.292 19.0356 14.2351 19.1133C14.1726 19.2152 14.0503 19.2638 13.9348 19.2323L13.707 19.1754L12.5061 18.8959C12.4288 18.8784 12.3527 18.8559 12.2783 18.8286C12.1805 18.7903 12.101 18.7162 12.0558 18.6215L11.4346 17.4567L11.2378 17.084L11.1964 17.0064ZM20.1261 3.32459L20.152 3.36082C20.5231 3.7891 20.917 4.19694 21.3323 4.5825C21.395 4.641 21.458 4.69929 21.5214 4.75715C21.6068 4.83534 21.6927 4.91276 21.7795 4.98905C21.9413 5.1312 22.1057 5.26926 22.2744 5.40043C22.6006 5.65406 22.9008 5.87666 23.2269 6.09409C23.553 6.3115 23.9102 6.52891 24.2622 6.73081C24.4594 6.84452 24.6648 6.94712 24.8683 7.04881L24.8771 7.05329L24.8859 7.0576C24.9543 7.09187 25.0227 7.12598 25.0905 7.16047H25.1888C25.5304 6.80381 25.8182 6.39921 26.043 5.95948C26.3018 5.44996 26.4078 4.87653 26.3484 4.30814C26.297 3.86396 26.1617 3.43357 25.9498 3.03986C25.6613 2.46796 25.1917 2.00752 24.6143 1.7302C24.2255 1.54789 23.8057 1.44074 23.3771 1.41441C22.7104 1.35355 22.0428 1.51954 21.4824 1.88551C21.2152 2.06269 20.9717 2.27317 20.7577 2.51185C20.5687 2.73402 20.3958 2.96928 20.24 3.21589L20.1261 3.32459ZM18.9303 7.16047L19.215 6.94822L19.8258 7.51765L19.7534 7.60566L18.7958 8.59956L17.7604 9.6349L16.8441 10.5874L15.9175 11.5451L15.0996 12.394L14.2661 13.2533L13.5414 14.0091L12.8115 14.7649L12.0764 15.5155L11.3517 16.2713L11.1033 16.5302C11.0219 16.6214 10.9092 16.6787 10.7875 16.6906C10.5504 16.7163 10.3107 16.6843 10.0886 16.5975C9.88867 16.5133 9.72656 16.3585 9.63306 16.1626C9.57471 16.0441 9.52722 15.9207 9.49121 15.794L9.47839 15.7471C9.47253 15.7248 9.46704 15.7024 9.46191 15.6799C9.44958 15.6256 9.43933 15.5708 9.43115 15.5155C9.40833 15.389 9.39453 15.261 9.38977 15.1325C9.38086 14.8634 9.4906 14.6041 9.69006 14.4233C9.81189 14.3059 9.94556 14.2004 10.0773 14.0964L10.1353 14.0505L11.3082 13.1377L11.4858 12.9996L11.4924 12.9945C12.2819 12.3806 13.0706 11.7672 13.8572 11.1517L18.9303 7.16047ZM21.1718 8.53227L20.9388 8.90498L20.3798 9.82124L19.9449 10.5356L19.3961 11.4363L18.8785 12.3215L18.3246 13.2326L17.781 14.1178L17.2064 15.0548L16.6215 16.0073L16.1504 16.7683L15.6328 17.5655C15.4515 17.8502 15.2704 18.1349 15.1151 18.4248L15.0447 18.5415L15.0432 18.5437C14.9974 18.6192 14.9517 18.6948 14.9071 18.771C14.868 18.838 14.8301 18.9054 14.7942 18.9735C14.6826 19.178 14.6273 19.4085 14.6337 19.6413C14.6566 19.9392 14.7705 20.2229 14.9598 20.454C14.9972 20.5077 15.0487 20.5481 15.1072 20.5718C15.1165 20.5756 15.126 20.5789 15.1355 20.5819C15.1466 20.5852 15.158 20.588 15.1694 20.5902C15.2023 20.5964 15.2363 20.5978 15.2704 20.5938H15.7104H16.4352C16.6025 20.6084 16.7643 20.5286 16.8545 20.3867C16.8695 20.3616 16.8834 20.3359 16.8961 20.3095C16.9053 20.2907 16.9138 20.2716 16.9218 20.2521L17.4395 19.1236L18.9044 15.7692L20.2089 12.7926L21.7981 9.16898L21.8706 8.99299L21.1718 8.53227ZM18.4023 6.19242L18.8785 6.71009L18.6974 6.86021L13.5208 10.9394L9.29663 14.268L9.18274 14.3508C9.0498 14.4405 8.87573 14.4405 8.7428 14.3508C8.62549 14.2786 8.49817 14.2245 8.36487 14.1903C8.29053 14.1705 8.21912 14.1409 8.15259 14.1023C7.97571 14.0084 7.8689 13.8209 7.8783 13.6209C7.88147 13.5164 7.87903 13.4118 7.87097 13.3076C7.86877 13.2798 7.86621 13.252 7.86328 13.2242C7.86023 13.1961 7.85681 13.1681 7.85303 13.1401C7.84827 13.1053 7.8429 13.0706 7.83679 13.0359C7.78589 12.7284 7.91199 12.4183 8.16296 12.2335C8.25024 12.1646 8.34058 12.0996 8.43359 12.0389C8.47314 12.013 8.51306 11.988 8.55359 11.9637C8.60718 11.9315 8.66174 11.9006 8.71692 11.8712C8.97607 11.719 9.23547 11.5673 9.495 11.4158L10.1892 11.0114L10.6375 10.7504L11.1307 10.4634L11.8823 10.0252C12.1075 9.89362 12.3328 9.76182 12.5579 9.62971L18.1797 6.31666L18.4023 6.19242ZM22.176 9.19486L21.8551 9.91959L20.4109 13.2171L20.1575 13.796L19.7787 14.6598L19.764 14.6931C19.5448 15.1928 19.3256 15.6926 19.1063 16.1937L17.5533 19.6879C17.4529 19.8898 17.373 20.1014 17.3152 20.3194C17.2753 20.4897 17.2753 20.6668 17.3152 20.8371C17.391 21.1463 17.589 21.4116 17.8639 21.5722C17.8833 21.5849 17.9037 21.5958 17.9247 21.6049C17.9358 21.6097 17.9471 21.614 17.9586 21.6177C17.97 21.6215 17.9814 21.6247 17.9932 21.6274C18.0259 21.6351 18.0594 21.6386 18.0931 21.6379C18.1185 21.6375 18.144 21.6345 18.1693 21.6291L19.2047 21.4272C19.3158 21.4113 19.4092 21.3358 19.448 21.2305C19.448 21.1839 19.4843 21.1373 19.4998 21.0907L20.4315 17.8398L22.6782 10.0024L22.8025 9.56757L22.176 9.19486ZM20.7577 22.1571L20.7266 22.183L20.1416 21.7016L20.0381 21.6188C19.9005 21.523 19.8451 21.3462 19.9036 21.1891C19.9346 21.0649 19.9702 20.9407 20.006 20.8165L20.0376 20.7058L20.0588 20.63L22.1554 13.2119L22.5289 11.9114C22.7184 11.252 22.908 10.5932 23.0975 9.9351C23.1023 9.92197 23.1084 9.90885 23.1151 9.89567L23.1252 9.87592C23.1448 9.83823 23.1648 9.79978 23.1648 9.7591L23.2114 9.77464L23.6617 9.99204L23.7394 10.0386C23.8311 10.0805 23.8854 10.1766 23.874 10.2768C23.8804 10.3491 23.8804 10.4219 23.874 10.4942C23.694 11.3303 23.5132 12.1664 23.3317 13.0026C23.2211 13.5124 23.1102 14.0222 22.9991 14.532C22.7162 15.8158 22.4338 17.1002 22.152 18.3852C21.9595 19.2626 21.7673 20.1403 21.5756 21.0183C21.536 21.2105 21.4468 21.3889 21.3168 21.5359C21.1965 21.6769 21.0717 21.8132 20.9468 21.9495C20.8835 22.0185 20.8203 22.0875 20.7577 22.1571ZM6.80151 11.3949L7.48486 11.954C7.51233 11.9774 7.54358 11.9947 7.57666 12.0056C7.6405 12.0266 7.71118 12.0239 7.77466 11.9954L7.91443 11.923L13.262 8.77039L17.8329 6.07856L18.1591 5.87666L18.1228 5.83006L17.7501 5.37452C17.6865 5.27699 17.5616 5.23975 17.455 5.28654L17.3514 5.33311L17.0356 5.4936L15.0168 6.52891L12.4855 7.80753L10.4148 8.84287L7.95593 10.0852L7.51587 10.3078C7.42871 10.3512 7.35657 10.4197 7.30884 10.5046L6.97229 11.0947L6.80151 11.3949ZM22.8594 6.78773C23.4785 7.19938 24.1255 7.56779 24.7954 7.89036L24.2001 9.38123C23.6229 9.11448 23.0613 8.81547 22.5177 8.48567C21.9802 8.15809 21.4617 7.80033 20.9647 7.4141C20.4679 7.02992 19.9927 6.6186 19.5411 6.18208C19.0856 5.74098 18.6536 5.27616 18.2469 4.78956L19.5411 3.84223C20.0238 4.40507 20.5426 4.93592 21.0941 5.43147C21.6495 5.92497 22.2394 6.37821 22.8594 6.78773Z" />
</svg>
