<svg width="34" height="24" viewBox="0 0 34 24"  xmlns="http://www.w3.org/2000/svg">
<path fill-rule="evenodd" clip-rule="evenodd" d="M28.7706 0L25.2467 9.06516C27.3473 10.7419 28.1265 13.5822 27.1755 16.096C26.2247 18.6099 23.7609 20.2235 21.0764 20.0903C20.6571 20.7516 20.1543 21.3561 19.5803 21.8888C19.1766 22.2613 18.7346 22.5898 18.2615 22.8688C18.0652 22.9876 17.8615 23.0938 17.6516 23.1868L17.4275 23.291L17.391 23.3223L17.2971 23.364L16.4788 23.6403H16.4318L16.3119 23.6716L15.9886 23.7498C15.7489 23.8019 15.5092 23.8488 15.2642 23.8853C14.7639 23.9626 14.2585 24.0009 13.7524 24C12.3022 23.9996 10.8691 23.6866 9.55078 23.0825C7.96484 22.3672 6.59363 21.2494 5.57336 19.8401C5.47339 19.7113 5.38281 19.5754 5.30237 19.4335V19.3918H5.22412L5 18.7298L5.05737 18.6725C4.92859 17.9151 5.16638 17.1415 5.69849 16.5873C5.87866 16.397 6.08801 16.2369 6.31885 16.1129C6.51123 16.01 6.71631 15.9329 6.92871 15.8836C7.8783 15.6707 8.86292 16.0489 9.42566 16.8427C9.54041 17.0096 9.66028 17.1711 9.79065 17.3223C10.2183 17.8188 10.7366 18.2293 11.318 18.5317C12.0303 18.9047 12.8184 19.1097 13.6221 19.1312C13.9573 19.1396 14.2925 19.1151 14.6229 19.0582C14.856 19.0191 15.0859 18.9634 15.311 18.8914C15.5087 18.8257 15.702 18.7473 15.8896 18.6568C16.1542 18.5328 16.4058 18.3827 16.6403 18.2085C16.6924 18.1668 16.7341 18.1199 16.7863 18.0782C15.3754 16.5302 14.8417 14.3745 15.3674 12.3471C15.8933 10.3197 17.4073 8.69498 19.3927 8.0278C20.1936 7.75653 21.0419 7.65359 21.8844 7.72546L25.325 0H26.2319L22.7289 7.8714C23.3657 8.01535 23.9761 8.25806 24.5377 8.59079L27.8793 0H28.7706ZM24.2355 13.0739C24.4342 12.8623 24.4875 12.5526 24.371 12.2867C24.278 12.0288 24.1156 11.8015 23.9019 11.6299C23.7697 11.4935 23.5739 11.4398 23.3905 11.4896C23.2073 11.5395 23.0657 11.6851 23.0209 11.8697C22.9999 11.9242 22.9857 11.981 22.9785 12.0387C22.9731 12.0811 22.9717 12.1239 22.974 12.1668C23.0006 12.6014 23.257 12.9888 23.6464 13.1833C23.8423 13.3002 24.0946 13.2533 24.2355 13.0739ZM22.4005 9.78455C22.5217 9.60132 22.7448 9.51376 22.9583 9.56561C23.3038 9.64581 23.595 9.8775 23.7506 10.1964C23.8394 10.3947 23.7958 10.6274 23.6411 10.7802C23.5071 10.9026 23.3098 10.9258 23.1511 10.8375C22.8759 10.7371 22.6377 10.5553 22.4683 10.3163C22.3453 10.177 22.3186 9.97733 22.4005 9.81061V9.78455ZM23.1927 8.77322C23.0856 8.74637 22.9749 8.73581 22.8644 8.74194V8.72632C22.7184 8.76804 22.7184 8.85144 22.8279 8.95569C23.1226 9.17218 23.4701 9.30542 23.834 9.34143C23.8632 9.34409 23.8937 9.32785 23.9248 9.31125C23.955 9.29523 23.9857 9.27887 24.0165 9.27887C24.0121 9.27017 24.0081 9.26047 24.0042 9.25021L23.9956 9.22638L23.9905 9.2113C23.972 9.15668 23.9535 9.10165 23.9174 9.10165C23.8314 9.05643 23.7445 9.01306 23.6567 8.97159C23.6018 8.94565 23.5466 8.92047 23.4911 8.89603L23.4177 8.86426L23.3312 8.82812C23.2853 8.80933 23.2391 8.79102 23.1927 8.77322ZM18.9965 21.2789C18.636 21.6118 18.2411 21.9054 17.8184 22.1546C17.6506 22.256 17.4764 22.3466 17.2971 22.4257L17.0051 22.5664L16.9479 22.6029L16.3693 22.801C16.3444 22.8031 16.3196 22.8064 16.295 22.8108C16.2709 22.8151 16.2469 22.8206 16.2233 22.8271L16.0825 22.8636L15.7854 22.9366C15.5613 22.9835 15.337 23.0304 15.1129 23.0617C14.666 23.1288 14.2147 23.1619 13.7628 23.1607C12.4313 23.1594 11.1156 22.8714 9.90527 22.3162C8.44934 21.6557 7.19141 20.626 6.25623 19.3293C6.1814 19.2335 6.11353 19.1324 6.05298 19.0269L6.0061 18.9331V18.881C5.99597 18.8596 5.98462 18.8389 5.97192 18.819C5.96155 18.8026 5.95032 18.7867 5.93835 18.7715C5.93982 18.7489 5.93982 18.7263 5.93835 18.7037V18.5942C5.82288 18.0784 5.97583 17.5391 6.34485 17.1607C6.46411 17.0332 6.60315 16.9258 6.75671 16.8427C7.45996 16.4539 8.34338 16.6612 8.80017 17.3223C8.93042 17.5048 9.06604 17.6872 9.21191 17.8436C9.70837 18.4193 10.3099 18.8951 10.9844 19.2458C11.8077 19.6771 12.7189 19.9142 13.6481 19.9392C14.0374 19.9494 14.4268 19.9214 14.8105 19.8558C15.0808 19.8086 15.3473 19.7424 15.6082 19.6577C15.8416 19.5826 16.0697 19.4921 16.291 19.3866C16.6047 19.243 16.9034 19.0683 17.1824 18.8653C17.271 18.7975 17.3492 18.7194 17.4379 18.6516C18.2273 19.3113 19.1674 19.7661 20.1746 19.9756C19.8298 20.4511 19.4349 20.8881 18.9965 21.2789ZM19.8776 19.0842C20.1929 19.266 20.5591 19.3392 20.92 19.2928L20.9253 19.3032C20.9474 19.2969 20.967 19.2849 20.9825 19.269C20.9934 19.2578 21.0023 19.2448 21.0087 19.2302C21.0127 19.2103 20.9954 19.166 20.973 19.1463C20.9661 19.1402 20.9587 19.1364 20.9514 19.1364C20.6331 18.9622 20.2703 18.886 19.9088 18.9174C19.8981 18.9264 19.8842 18.9341 19.8706 18.9417C19.8448 18.9561 19.8202 18.9699 19.8202 18.9904C19.8214 19.007 19.826 19.0229 19.8335 19.0373C19.8435 19.0564 19.8586 19.0727 19.8776 19.0842ZM21.1389 18.1824C21.0913 18.2146 21.0428 18.2456 20.9937 18.2752C20.9254 18.3163 20.8556 18.3549 20.7845 18.3909C20.556 18.4545 20.3145 18.4545 20.0859 18.3909C19.9178 18.3529 19.7716 18.2498 19.6793 18.1042C19.6208 18.0179 19.6033 17.9102 19.6315 17.8097C19.6595 17.7093 19.7305 17.6263 19.8253 17.5829C19.8729 17.5598 19.9219 17.5398 19.9719 17.5229C20.0242 17.5052 20.0776 17.4911 20.1318 17.4804C20.1564 17.4756 20.181 17.4716 20.2058 17.4683C20.4995 17.4365 20.7964 17.4833 21.066 17.6038C21.3735 17.7393 21.4048 17.9948 21.1389 18.1928V18.1824ZM20.6647 16.5039C20.6401 16.0253 20.9636 15.5984 21.4309 15.4926L21.4362 15.503C21.7532 15.418 22.0753 15.3536 22.4005 15.3102C22.6613 15.2737 22.729 15.1694 22.729 14.914C22.692 14.5193 22.8162 14.1264 23.073 13.8245C23.1689 13.7458 23.2131 13.6204 23.188 13.4989C23.1628 13.3774 23.0724 13.28 22.9531 13.2458C22.6832 13.1195 22.4567 12.9164 22.3015 12.662C22.0221 12.2706 22.0221 11.745 22.3015 11.3536C22.5153 11.0982 22.4526 10.8949 22.1504 10.7437C21.9222 10.6358 21.7101 10.4973 21.5195 10.3319C21.3547 10.2161 21.262 10.0228 21.2747 9.82172C21.2875 9.62064 21.4039 9.44067 21.5822 9.34665C21.6598 9.29773 21.7314 9.24002 21.7959 9.17462C21.86 9.11484 21.8932 9.02902 21.8861 8.94162C21.8821 8.89178 21.8651 8.8446 21.8378 8.8042C21.8258 8.78659 21.8119 8.77026 21.7963 8.75558C21.7849 8.7449 21.7726 8.73511 21.7594 8.72632C21.6281 8.62192 21.4628 8.56992 21.2954 8.58035C20.4528 8.58817 19.6239 8.79538 18.8767 9.18506C16.608 10.3642 15.5101 12.9993 16.2703 15.4405C16.4388 15.9687 16.681 16.4706 16.9896 16.9313C17.3121 17.4529 17.7924 17.8582 18.3606 18.0886C18.4811 18.1333 18.6075 18.1597 18.736 18.1668C18.7684 18.1707 18.8009 18.1672 18.8312 18.1572C18.86 18.1476 18.8868 18.132 18.9099 18.111C18.9332 18.0896 18.9514 18.0636 18.9635 18.0351C18.97 18.0201 18.9747 18.0042 18.9777 17.988C18.9802 17.9731 18.9814 17.9579 18.981 17.9426C18.9829 17.8806 18.98 17.8185 18.9722 17.757C18.9679 17.7231 18.9622 17.6894 18.9548 17.6559C18.9071 17.5031 18.9249 17.3372 19.0039 17.198C19.083 17.0587 19.2162 16.9584 19.3718 16.9209C19.6492 16.8275 19.9495 16.8275 20.2268 16.9209C20.2985 16.9586 20.3832 16.9623 20.4578 16.9311C20.5323 16.8998 20.5891 16.8368 20.6125 16.7593C20.6339 16.7061 20.6488 16.6507 20.6571 16.5941C20.6615 16.5643 20.6641 16.5341 20.6647 16.5039ZM21.5509 16.8949C21.6222 16.6045 21.8066 16.3546 22.0631 16.201C22.3197 16.0473 22.627 16.0024 22.9166 16.0764C23.0287 16.1132 23.1178 16.1993 23.1584 16.3101C23.1991 16.4208 23.1869 16.5441 23.1251 16.6447C22.9242 17.0443 22.5681 17.3439 22.1399 17.4735C21.7438 17.6611 21.5195 17.2441 21.5509 16.9105V16.8949ZM22.3953 19.0947C22.7743 19.1056 23.1395 18.9516 23.3961 18.6724C23.5004 18.5682 23.4535 18.4639 23.3127 18.4587C23.1537 18.4684 22.9952 18.4876 22.8384 18.5161C22.7688 18.5593 22.7002 18.6041 22.6326 18.6502C22.587 18.6812 22.542 18.7128 22.4974 18.7451C22.4365 18.7892 22.3763 18.8345 22.3171 18.881C22.2024 18.98 22.2494 19.0947 22.3953 19.0947ZM23.4796 15.4822C23.3629 14.9174 23.6 14.3383 24.0791 14.0174C24.2167 13.9326 24.3887 13.9265 24.532 14.0014C24.6752 14.0762 24.7686 14.2209 24.7776 14.3823C24.8337 14.8682 24.6488 15.351 24.2823 15.675C24.1655 15.7972 23.9924 15.848 23.828 15.8082C23.6637 15.7685 23.533 15.6443 23.4847 15.4822H23.4796ZM24.1781 17.5465C24.5579 17.3653 24.8411 17.0289 24.9548 16.6238L24.9601 16.629C25.0173 16.4048 24.8766 16.2745 24.6577 16.3632C24.2467 16.5273 23.9387 16.8779 23.8289 17.3067C23.7715 17.5465 23.9019 17.6299 24.1781 17.5465ZM24.7307 10.702C24.7216 10.5805 24.7216 10.4585 24.7307 10.3371C24.7307 10.1911 24.8506 10.1442 24.981 10.212C25.3065 10.4295 25.5021 10.7952 25.5022 11.1868C25.4762 11.3484 25.3615 11.3953 25.2156 11.3015C24.9996 11.1559 24.8326 10.9489 24.736 10.7072L24.7307 10.702ZM25.2676 13.5274C25.3301 13.6629 25.3927 13.7984 25.5647 13.7984L25.5699 13.8036C25.7419 13.8036 25.8097 13.6681 25.8514 13.5222C25.9778 13.2018 25.9664 12.8435 25.8201 12.5317C25.8124 12.5141 25.8043 12.4969 25.7957 12.4803C25.7869 12.4634 25.7773 12.4472 25.7672 12.4319C25.7616 12.4236 25.7557 12.4155 25.7496 12.4077C25.7352 12.3894 25.7192 12.3728 25.7014 12.3587C25.6614 12.327 25.6121 12.3076 25.5491 12.3076C25.4031 12.3076 25.3248 12.4222 25.2727 12.5421C25.1533 12.8251 25.1404 13.1418 25.2362 13.4335C25.2439 13.4412 25.2498 13.4489 25.2542 13.4566C25.2592 13.4655 25.2623 13.4743 25.2643 13.4832C25.2676 13.4979 25.2676 13.5126 25.2676 13.5274ZM26.0861 15.8836C26.0452 15.9357 26.0043 15.9613 25.9661 15.9576C25.9164 15.9528 25.8711 15.8987 25.8358 15.7897C25.8291 15.6839 25.8291 15.5777 25.8358 15.4718C25.861 15.2215 25.9587 14.9841 26.1173 14.7889C26.1216 14.784 26.1261 14.7794 26.1309 14.7752C26.1396 14.7673 26.1492 14.7604 26.1592 14.7545C26.1888 14.7373 26.2231 14.7291 26.2581 14.7315C26.3048 14.7553 26.3376 14.7997 26.3467 14.8514C26.4091 15.2226 26.3168 15.6031 26.0912 15.9044L26.0861 15.8836ZM20.2617 13.1736C20.6005 12.6623 21.2461 12.4506 21.8219 12.662L21.8385 12.6656L21.8521 12.6693C21.8593 12.6714 21.8665 12.6738 21.8735 12.6765C21.8956 12.6848 21.9167 12.6957 21.9365 12.7089C21.973 12.7402 22.0095 12.7975 22.0095 12.834C21.9989 12.8547 21.9839 12.8724 21.9659 12.8862C21.9441 12.903 21.9178 12.914 21.8896 12.9174C21.621 12.925 21.3604 13.01 21.139 13.1624C20.6466 13.4982 20.4519 14.1299 20.6698 14.6846C20.6552 14.7159 20.6639 14.7455 20.6727 14.7751C20.6859 14.8195 20.699 14.8639 20.6333 14.914C20.5447 14.9814 20.4869 14.9125 20.4351 14.8506L20.4343 14.8499C20.4222 14.8354 20.4105 14.8215 20.3988 14.8097C19.9796 14.3619 19.923 13.6849 20.2617 13.1736ZM19.4343 14.45C19.2415 14.4218 19.0446 14.4546 18.8713 14.5439C18.428 14.8045 18.2526 15.3577 18.4647 15.8262C18.4833 15.8735 18.5048 15.9195 18.5291 15.964C18.5432 15.9898 18.5582 16.0152 18.5742 16.0399C18.6055 16.0869 18.6785 16.1077 18.7306 16.139C18.7574 16.0858 18.7784 16.0299 18.7932 15.9722V15.7637C18.8127 15.3405 19.1339 14.9929 19.5542 14.94C19.6377 14.9373 19.7213 14.9383 19.8047 14.9428C19.8848 14.9472 19.9646 14.955 20.0442 14.9661C20.0596 14.9646 20.075 14.9623 20.0902 14.9594C20.1244 14.9529 20.158 14.9429 20.1902 14.9296C20.1902 14.8775 20.1902 14.8045 20.1433 14.7732C19.9474 14.5928 19.6991 14.4796 19.4343 14.45ZM20.9735 10.5114C20.9692 10.5187 20.9647 10.5254 20.96 10.5312C20.953 10.5396 20.9454 10.5458 20.9369 10.5488C20.9332 10.5501 20.9293 10.5508 20.9253 10.5508C20.6842 10.6787 20.4824 10.8697 20.3414 11.1034C20.1149 11.4519 20.1445 11.908 20.4144 12.2242C20.4247 12.2344 20.4365 12.2491 20.447 12.2657C20.4617 12.2886 20.4738 12.3149 20.4751 12.3372C20.4763 12.356 20.4698 12.3719 20.4509 12.3805C20.3937 12.4066 20.3363 12.4066 20.2893 12.4066C19.996 12.3252 19.7629 12.102 19.6691 11.8123C19.5798 11.5172 19.6381 11.1971 19.8254 10.9522C20.0636 10.6025 20.4464 10.3786 20.868 10.3423C20.8917 10.3397 20.9182 10.3571 20.9453 10.3749C20.9717 10.3923 20.9987 10.4101 21.0244 10.4101C21.0145 10.4249 21.0056 10.4445 20.9967 10.4643C20.9893 10.4807 20.9817 10.4972 20.9735 10.5114ZM17.563 15.9513C17.4542 15.8927 17.3361 15.8539 17.2137 15.8366C17.1443 15.8209 17.0715 15.8399 17.0186 15.8876C16.9657 15.9353 16.9393 16.0057 16.9479 16.0764C16.9552 16.1729 16.9691 16.2686 16.9896 16.3632C16.9896 16.4048 17.0156 16.4518 17.0365 16.4935C17.0728 16.5751 17.0942 16.6202 17.1232 16.6396C17.1609 16.6648 17.2113 16.6465 17.3232 16.6082C17.3533 16.5991 17.3842 16.5936 17.4153 16.5919C17.4614 16.5892 17.5079 16.5946 17.5526 16.6082C17.672 16.6407 17.7848 16.6936 17.8862 16.7645C18.1207 16.947 18.3345 17.1451 18.5638 17.3327C18.5831 17.3472 18.608 17.3539 18.6349 17.3579C18.6487 17.36 18.6631 17.3613 18.6775 17.3627C18.6956 17.3644 18.7136 17.3661 18.7307 17.3692C18.788 17.3797 18.762 17.2493 18.7307 17.2076C18.4763 16.6812 18.0695 16.2435 17.563 15.9513ZM19.5752 9.95135C19.4481 9.93335 19.3248 9.89459 19.2103 9.83667C19.1415 9.81409 19.0897 9.75656 19.0747 9.68564C19.0597 9.61475 19.0835 9.5412 19.1373 9.49261C19.2872 9.35242 19.4515 9.22836 19.6273 9.1225C19.6951 9.08078 19.7733 9.13293 19.7733 9.21634C19.7703 9.36789 19.8878 9.49463 20.0392 9.50302C20.2842 9.56036 20.55 9.56036 20.8054 9.56036H20.9149C20.9469 9.57388 20.9736 9.59692 20.9917 9.62604C20.9962 9.63333 21.0001 9.64099 21.0035 9.64899C21.0057 9.68784 20.988 9.72513 20.9567 9.74805C20.8804 9.78094 20.802 9.80881 20.722 9.83145C20.3529 9.95401 19.9617 9.9949 19.5752 9.95135Z" />
</svg>
