<svg width="34" height="24" viewBox="0 0 34 24"  xmlns="http://www.w3.org/2000/svg">
<path fill-rule="evenodd" clip-rule="evenodd" d="M28.6422 10.658C28.5618 10.5767 28.47 10.5076 28.3697 10.4526C28.0506 7.99865 26.9366 5.71401 25.1959 3.94268C23.4998 2.25057 21.3111 1.12957 18.9388 0.737785C18.921 0.692528 18.9005 0.648521 18.8773 0.60598C18.8624 0.578331 18.8463 0.551323 18.8289 0.524986C18.7874 0.461418 18.7398 0.401878 18.6866 0.347191C18.2195 -0.11573 17.463 -0.11573 16.9962 0.347191C16.9578 0.385307 16.9222 0.425957 16.8897 0.468803C16.8585 0.509789 16.8299 0.552788 16.8043 0.597557C13.8768 0.650902 11.0828 1.82211 9.00323 3.86755C7.11847 5.73162 5.94781 8.18966 5.69293 10.8182C5.56598 10.8723 5.44977 10.9487 5.34991 11.0435C4.88336 11.5069 4.88336 12.2577 5.34991 12.7211C5.45074 12.8198 5.56866 12.8995 5.69806 12.9564C5.94562 15.8016 7.27325 18.4472 9.41193 20.3577C11.2252 21.9635 13.4998 22.9651 15.9163 23.2221C15.942 23.2981 15.9754 23.371 16.0162 23.4397C16.0616 23.5165 16.116 23.5881 16.1785 23.6528C16.6456 24.1157 17.4022 24.1157 17.869 23.6528C17.9861 23.5331 18.0757 23.3896 18.1314 23.2322C20.8121 23.0053 23.3204 21.8265 25.1959 19.9121C27.202 17.9227 28.3817 15.2577 28.501 12.4457C28.5359 12.4248 28.5696 12.4021 28.6021 12.3777C28.6263 12.3596 28.6497 12.3405 28.6724 12.3205C29.1207 11.8507 29.1072 11.1113 28.6422 10.658ZM24.1009 18.9005L24.0201 18.9756C22.3555 20.5062 20.3013 21.3676 18.1985 21.5671L18.2728 21.0739L17.4957 20.3327L17.3948 20.3177L16.4412 20.8035L16.3604 21.3443L17.3697 20.8385L18.1514 21.5715C15.2816 21.8302 12.3262 20.8571 10.1502 18.6713C6.36749 14.8714 6.30646 8.77792 10.0123 4.90414C13.9539 1.09158 20.252 1.134 24.1412 4.99929C27.983 8.84972 27.9693 15.0566 24.1109 18.8905L24.1009 18.9005ZM18.2173 3.68227L18.3282 3.14645L17.5916 2.37026L17.4905 2.35024L16.5118 2.79092L16.4007 3.32174L17.4402 2.86602L18.2173 3.68227ZM17.7325 5.13949L17.5308 5.65026L16.91 4.70882L15.805 4.96923L16.0069 4.46346L17.0513 4.20806L17.1473 4.24313L17.7325 5.13949ZM16.7794 6.99734L16.3707 6.01083L16.2847 5.96075L15.21 6.02584L14.9173 6.48656L16.0526 6.42645L16.4866 7.46304L16.7794 6.99734ZM14.1448 7.41799L15.2147 7.54317L15.2855 7.60827L15.5125 8.65487L15.1441 9.0555L14.8968 7.95882L13.7715 7.8186L14.1448 7.41799ZM13.8726 8.91027L12.8431 8.59478L12.4092 8.93029L13.4891 9.2608L13.5345 10.3875L13.9734 10.052L13.9332 8.98537L13.8726 8.91027ZM10.8653 9.77657L11.3548 9.53121L12.3084 10.022L12.3538 10.1071L12.1973 11.1637L11.7081 11.4141L11.8694 10.2974L10.8653 9.77657ZM9.72003 10.1772L9.19513 10.3375L10.0833 11.0285L9.72491 12.0951L10.2547 11.9399L10.598 10.9284L10.5677 10.8332L9.72003 10.1772ZM7.44391 10.5878L7.99396 10.5277L8.71051 11.3239L8.72052 11.4191L8.20074 12.3555L7.6507 12.4156L8.20074 11.4291L7.44391 10.5878ZM25.8013 12.9665L26.3463 12.8763L26.8206 11.9199L26.8004 11.8197L26.0435 11.0636L25.4986 11.1537L26.296 11.9549L25.8013 12.9665ZM24.4288 12.4206L23.5003 11.7746L24.015 11.5893L24.898 12.2003L24.9334 12.2904L24.6407 13.317L24.126 13.5023L24.4288 12.4206ZM22.1126 12.4707L21.6382 12.7461L22.6675 13.2118L22.5667 14.3335L23.046 14.0581L23.1419 12.9965L23.0965 12.9114L22.1126 12.4707ZM20.407 13.6725L21.4517 13.9329L21.5174 14.008L21.6082 15.0697L21.1893 15.4252L21.0884 14.3035L19.9883 14.0281L20.407 13.6725ZM20.0184 15.2299L18.9437 15.1548L18.5955 15.5755L19.7259 15.6606L20.0286 16.7422L20.3768 16.3216L20.0943 15.29L20.0184 15.2299ZM17.7679 16.8774L18.8377 16.7573L18.9234 16.8073L19.3878 17.7688L19.1204 18.2445L18.6309 17.233L17.5005 17.3532L17.7679 16.8774ZM17.9549 18.4749L16.9254 18.7804L16.7488 19.3011L17.8338 18.9806L18.5049 19.887L18.6815 19.3712L18.0506 18.5049L17.9549 18.4749Z" />
</svg>
