<svg width="34" height="24" viewBox="0 0 34 24"  xmlns="http://www.w3.org/2000/svg">
<path fill-rule="evenodd" clip-rule="evenodd" d="M17.0043 0.0365295C17.3525 0.0336304 17.7006 0.0493164 18.0472 0.0834656C20.7905 0.317322 23.369 1.49124 25.3474 3.40701C26.9768 4.96481 28.1274 6.95605 28.6638 9.14621C28.6865 9.24039 28.7081 9.33484 28.7286 9.42953C28.7493 9.52533 28.7688 9.62137 28.7871 9.71765C28.8261 9.92273 28.8598 10.1289 28.888 10.3358C28.8967 10.403 28.9051 10.4706 28.913 10.5382C28.92 10.597 28.9266 10.6559 28.9328 10.7149L28.944 10.8269C28.9554 10.9471 28.9648 11.0671 28.9714 11.1862C28.987 11.468 29.0079 11.9062 28.9975 12.261C28.9948 12.3505 28.9935 12.4323 28.9923 12.5093C28.9896 12.6815 28.9871 12.8298 28.9711 12.9859C28.9659 13.037 28.9592 13.0889 28.9505 13.1428C28.9393 13.2128 28.9289 13.2893 28.919 13.3701C28.9096 13.4459 28.9005 13.5254 28.8912 13.6065C28.8814 13.6916 28.8714 13.7786 28.8607 13.865C28.847 13.9745 28.8321 14.0832 28.815 14.1863C28.458 16.2306 27.5573 18.141 26.2077 19.7168C24.7701 21.4004 22.9032 22.6625 20.8056 23.369C20.2393 23.5633 19.6588 23.7133 19.0693 23.8177C18.7668 23.8699 18.4592 23.9116 18.1567 23.9429C17.649 23.9921 17.1387 24.0095 16.6289 23.9951C16.3681 23.9951 16.1075 23.9951 15.8519 23.9482C15.7855 23.9359 15.7114 23.9252 15.6326 23.915C15.5579 23.9053 15.4791 23.8961 15.3986 23.8868C15.2376 23.8681 15.0705 23.8487 14.9185 23.8229C14.4445 23.7406 13.9761 23.629 13.5159 23.489C11.9194 23.0041 10.4429 22.1881 9.18269 21.0942C7.71236 19.8331 6.56917 18.2345 5.85066 16.435C5.56746 15.7339 5.35261 15.007 5.2093 14.2646C5.13631 13.8889 5.08247 13.5115 5.04768 13.1324C5.01643 12.8036 4.99556 12.4749 5.00081 12.141V11.6506C5.00081 11.3636 5.02681 11.0767 5.05806 10.7845C5.26094 8.71652 6.00166 6.73779 7.2065 5.04529C8.05476 3.84561 9.11507 2.81122 10.335 1.99307C11.4514 1.24835 12.6855 0.697968 13.9852 0.365234C14.4129 0.25473 14.8464 0.167633 15.2835 0.10434C15.6173 0.0574036 15.9563 0.020874 16.2951 0C16.509 0.041748 16.7436 0.0365295 17.0043 0.0365295ZM26.8648 8.80185L26.8336 8.69751C26.4776 7.63708 25.949 6.64282 25.2692 5.75485C25.224 5.69473 25.1777 5.63525 25.1308 5.57635C25.081 5.51379 25.0303 5.4519 24.979 5.39066L24.9417 5.34637L24.8945 5.29102L24.836 5.22342C24.8005 5.18256 24.7646 5.14197 24.7286 5.10162C24.6856 5.0535 24.6424 5.00571 24.5991 4.95822L24.5496 4.90442C24.4897 4.83572 24.4057 4.79276 24.315 4.78439C24.1401 4.78439 23.967 4.76523 23.7935 4.746C23.7413 4.7402 23.6889 4.73441 23.6365 4.72916C23.5622 4.72168 23.4877 4.71524 23.4129 4.71136C22.9805 4.68463 22.5468 4.68463 22.1145 4.71136C21.8433 4.73224 21.5722 4.76181 21.301 4.80005C20.9621 4.84702 20.6231 4.90964 20.2894 4.98267C19.4593 5.17133 18.6452 5.42426 17.8543 5.7392C16.7377 6.18439 15.6643 6.73105 14.6474 7.37225C13.8737 7.85019 13.1286 8.37283 12.4157 8.9375L12.3896 8.96881L12.4626 9.03665C12.7198 9.27664 12.9858 9.50793 13.2605 9.73056C14.1258 10.4256 15.0587 11.0321 16.0449 11.541L16.363 11.7028C16.4078 11.73 16.4641 11.73 16.509 11.7028L16.5664 11.6662C17.3074 11.136 18.0925 10.6699 18.9128 10.2732C19.7802 9.84521 20.6842 9.49597 21.6138 9.22968C22.3601 9.01871 23.1221 8.86862 23.8927 8.78098C24.1376 8.75488 24.3828 8.72882 24.6279 8.71317C24.972 8.71317 25.3214 8.68185 25.6707 8.68707L25.8315 8.68896C26.1427 8.69211 26.489 8.69565 26.8127 8.74445L26.8648 8.80185ZM17.2233 22.4821H16.8531L16.8427 22.3516C17.0775 21.8249 17.2761 21.2827 17.4372 20.729C17.5751 20.2474 17.6831 19.7578 17.7605 19.2629C17.8299 18.81 17.8752 18.3536 17.8961 17.8959C17.9199 17.4475 17.9199 16.9982 17.8961 16.5498C17.8752 16.2107 17.8387 15.8611 17.7917 15.5063C17.6897 14.7094 17.5151 13.9236 17.2703 13.1584L17.2529 13.107L17.2241 13.0232L17.1843 12.9103C17.1516 12.8188 17.118 12.7276 17.0836 12.6368C17.0411 12.5249 16.9974 12.4136 16.9522 12.3028C16.9472 12.295 16.9427 12.2868 16.9388 12.2784L16.9339 12.2667L16.9295 12.2539C16.9277 12.248 16.9261 12.2421 16.9249 12.236C16.9227 12.2254 16.9213 12.2146 16.921 12.2036C17.3372 11.8874 17.7745 11.5998 18.2298 11.3428C18.733 11.0468 19.2556 10.7854 19.7941 10.5602V10.6019C19.8834 10.8418 19.9742 11.0807 20.065 11.3193C20.2605 11.8332 20.4555 12.3461 20.6336 12.8663C20.8449 13.4494 21.0191 14.0454 21.1551 14.6506C21.1921 14.8288 21.2258 15.0078 21.2562 15.1877L21.2736 15.2929L21.2939 15.4219C21.3002 15.4627 21.3063 15.5035 21.3122 15.5444L21.3265 15.6454L21.3427 15.7672C21.4178 16.3555 21.4544 16.9481 21.4522 17.5411C21.4522 17.8698 21.4366 18.1985 21.4053 18.522C21.3564 19.0659 21.264 19.605 21.129 20.1342C20.9981 20.6523 20.8237 21.1585 20.6075 21.6472V21.689C20.5582 21.7979 20.4655 21.8811 20.352 21.9186C20.01 22.0376 19.6618 22.1385 19.3092 22.2212C18.625 22.3813 17.9259 22.4688 17.2233 22.4821ZM9.14632 5.20703H9.12019L9.04719 5.28528C8.56294 5.84628 8.14155 6.45862 7.79048 7.11142C7.58089 7.50455 7.39619 7.91058 7.23775 8.32709C7.23335 8.34045 7.22993 8.35403 7.22725 8.36774C7.22481 8.38062 7.22298 8.39359 7.22188 8.40662C7.21834 8.45175 7.22359 8.49744 7.23775 8.54099C7.25227 8.59088 7.27705 8.63715 7.31074 8.67664L7.69148 9.16187C8.47603 10.1391 9.34871 11.0421 10.2987 11.8593C11.1444 12.5934 12.0594 13.2435 13.031 13.8002C13.8334 14.2582 14.681 14.6324 15.56 14.9167C16.0866 15.0809 16.623 15.2116 17.1661 15.308H17.2077C17.2202 15.2828 17.2263 15.2553 17.2259 15.2278C17.2258 15.2102 17.2229 15.1925 17.2174 15.1755L17.2143 15.1667C17.2124 15.1616 17.2102 15.1565 17.2077 15.1515C17.2077 15.1263 17.2077 15.1024 17.2042 15.0785C17.2004 15.0528 17.1926 15.0272 17.1765 15.0002C17.0809 14.4709 16.952 13.9481 16.7906 13.435C16.6864 13.1115 16.5716 12.7984 16.4412 12.4906C16.401 12.3871 16.3226 12.3031 16.2222 12.2558L16.1596 12.2245C15.3436 11.809 14.5577 11.3365 13.8079 10.8106C13.1137 10.3252 12.4614 9.78241 11.8577 9.18796C11.279 8.62518 10.7552 8.00845 10.2934 7.34619C9.8437 6.69244 9.46443 5.99289 9.16194 5.25922L9.14632 5.20703ZM17.0798 20.1551H17.093V20.129C17.0896 20.1382 17.0852 20.1469 17.0798 20.1551ZM17.0565 20.1551H17.0798L17.0721 20.1655L17.0483 20.2471L17.0028 20.4056C16.9709 20.5172 16.939 20.6287 16.905 20.7402C16.8774 20.8304 16.8483 20.9206 16.8166 21.0107C16.7343 21.2446 16.6449 21.4605 16.5542 21.6793L16.4985 21.8142L16.3265 22.2316V22.2577C16.2933 22.378 16.172 22.4514 16.0501 22.4247H15.8676C15.6329 22.3934 15.3983 22.3621 15.1636 22.3255C13.5726 22.0602 12.0686 21.416 10.7783 20.4473C10.1693 19.9966 9.60835 19.4843 9.10445 18.9185C8.26424 17.9699 7.61128 16.8705 7.18037 15.6785C6.98701 15.1446 6.83357 14.597 6.72151 14.0402C6.72017 14.0176 6.72017 13.995 6.72151 13.9724C6.73677 13.9775 6.75069 13.9925 6.76106 14.0065C6.77205 14.0213 6.77888 14.035 6.77888 14.035C6.96138 14.2541 7.12825 14.4785 7.30025 14.6924C7.64522 15.1235 8.0124 15.5363 8.40059 15.9289C9.10139 16.6428 9.87373 17.2827 10.7053 17.8385C11.608 18.4394 12.5773 18.9331 13.5941 19.3098C14.3175 19.5779 15.06 19.7907 15.8154 19.9464C16.2274 20.0298 16.6394 20.0977 17.0565 20.1551ZM25.5925 17.8489C25.6237 17.8489 25.6395 17.8489 25.6551 17.8176L25.7646 17.6611C25.9824 17.3249 26.1809 16.9765 26.359 16.6176C26.8509 15.6025 27.1716 14.513 27.3081 13.3932C27.3605 12.9691 27.3867 12.5422 27.3863 12.1149C27.3863 11.8645 27.3863 11.5932 27.3602 11.3636C27.3525 11.2962 27.3463 11.2293 27.3404 11.1627L27.3327 11.0747C27.3216 10.9443 27.3105 10.8148 27.2924 10.6854C27.2449 10.3098 27.177 9.93704 27.0891 9.56882C27.0891 9.53229 27.0891 9.50098 27.0629 9.46448C27.0416 9.38416 26.9687 9.3284 26.8857 9.32883H26.7397L26.2182 9.28186L25.6967 9.25577H25.1389C24.826 9.25577 24.5183 9.25577 24.2055 9.30795H24.1116C24.0787 9.30356 24.0454 9.30356 24.0125 9.30795L24.0647 9.40707C24.3759 9.94934 24.6495 10.5124 24.8834 11.0923C25.3311 12.2065 25.6105 13.3811 25.7125 14.5776C25.7385 14.8854 25.7541 15.1985 25.7541 15.5115C25.7592 15.9801 25.7384 16.4487 25.6916 16.915L25.6876 16.9502C25.6575 17.2206 25.627 17.4954 25.5821 17.7654C25.5825 17.785 25.586 17.8044 25.5925 17.8228V17.8489ZM10.2359 6.32358L10.1682 6.41226V6.3862C10.0948 6.34619 10.0308 6.29105 9.98042 6.22446L9.71968 5.64529L9.45906 5.05573C9.44673 5.02686 9.43623 4.99725 9.42769 4.96704C9.40205 4.89493 9.42268 4.81439 9.47981 4.76355L9.56563 4.67697C9.65205 4.5896 9.73921 4.50146 9.8293 4.41919C10.6195 3.68411 11.5183 3.07523 12.4938 2.61395C13.1413 2.30936 13.8197 2.07498 14.517 1.91483C14.8646 1.83481 15.2122 1.77222 15.5599 1.72699L15.5902 1.72269C15.7614 1.69809 15.9238 1.6748 16.0814 1.6748L16.0964 1.67432C16.1253 1.67297 16.1563 1.67151 16.1386 1.71133C16.1179 1.7583 16.0814 1.7583 16.0553 1.7583C15.7424 1.88351 15.4348 2.01917 15.1323 2.16525C13.906 2.75583 12.7812 3.53778 11.8002 4.48181C11.2246 5.04739 10.701 5.66382 10.2359 6.32358Z" />
</svg>
