<svg width="34" height="24" viewBox="0 0 34 24"  xmlns="http://www.w3.org/2000/svg">
<path fill-rule="evenodd" clip-rule="evenodd" d="M28.9857 11.2928C28.6013 4.8123 23.1343 -0.188254 16.6453 0.00544153C10.1563 0.199167 4.99719 5.51692 5 12.0088C5.02319 18.6333 10.3999 23.9912 17.0244 23.9911H17.056C20.3503 23.9676 23.491 22.5941 25.7446 20.1911C27.9984 17.7882 29.168 14.5661 28.9805 11.277L28.9857 11.2928ZM24.6161 19.1898C23.8904 19.9603 23.0526 20.617 22.1311 21.1377C22.2296 20.5222 22.2296 19.8948 22.1311 19.2793L21.9626 19.5109C21.4623 20.2155 20.8945 20.8696 20.2675 21.4641C20.2023 21.5291 20.1168 21.57 20.0253 21.5799H18.3142C18.0574 21.5799 17.7979 21.5528 17.5394 21.5259L17.5372 21.5256C17.4363 21.5151 17.3355 21.5046 17.235 21.4957L17.2034 21.5589L18.3984 22.3696C17.9624 22.4316 17.5227 22.465 17.0823 22.4697H17.0508C16.2799 22.4674 15.5118 22.3791 14.7606 22.2064C14.73 21.99 14.7107 21.7721 14.7028 21.5536L17.0823 21.4536V21.3957L16.8348 21.2799L14.8501 20.2848C14.743 20.2518 14.6805 20.1408 14.708 20.0321C14.7234 19.9138 14.7384 19.7955 14.7532 19.6771C14.7755 19.4976 14.7974 19.3181 14.819 19.1386C14.849 18.8886 14.8788 18.6387 14.9093 18.3887C14.9362 18.1679 14.9636 17.947 14.9923 17.7262C15.0039 17.6367 15.0176 17.5472 15.0327 17.4562L15.0463 17.3764C15.0613 17.2897 15.0774 17.2013 15.0941 17.1099C15.1107 17.0186 15.1278 16.9244 15.1449 16.826L14.9554 16.9892C14.2424 17.6411 13.4724 18.2278 12.6548 18.7423C12.5725 18.8166 12.4474 18.8166 12.3652 18.7423C12.188 18.6068 12.0083 18.4738 11.8285 18.3406C11.5541 18.1375 11.2793 17.934 11.0122 17.721C10.7155 17.4843 10.478 17.2832 10.2394 17.081L10.1217 16.9814C10.0431 16.915 9.96326 16.8478 9.88025 16.7786L9.81714 16.8102L11.028 19.5267C10.713 19.6401 10.3889 19.7264 10.0593 19.7847C8.90393 18.7564 7.98755 17.4878 7.37427 16.0678L7.67444 15.3255L9.7013 16.6786L9.74341 16.6206C9.3291 15.8212 8.99744 14.9815 8.75366 14.1147C8.73645 14.07 8.72974 14.0231 8.73267 13.9771C8.73755 13.8994 8.77026 13.8244 8.82739 13.7672C9.46472 12.9939 10.1694 12.2786 10.9332 11.6298L11.0596 11.5139V11.456L8.21143 11.7245L7.96924 9.57127C7.47473 10.31 7.08655 11.1146 6.81629 11.9614C6.7804 12.0835 6.68848 12.1813 6.56885 12.2246H6.53198V12.0035C6.53955 10.7262 6.7749 9.4604 7.22693 8.26566L7.92713 9.4502L7.98499 9.42387V9.30805C7.99622 8.52555 8.09509 7.74681 8.27979 6.98634C8.31287 6.85108 8.38208 6.72737 8.47986 6.62834C8.78528 6.33879 9.10108 6.05976 9.42749 5.78599C9.60144 5.64009 9.76953 5.50016 9.9364 5.36622C10.0825 5.24885 10.2277 5.13609 10.3751 5.0279V4.96998L9.09583 5.13319C10.067 4.02528 11.2645 3.13847 12.6074 2.53245L12.8285 2.85887C11.9792 3.43315 11.2183 4.1284 10.5699 4.92259L13.3445 3.90653C13.801 4.73429 14.3639 5.49888 15.0186 6.18086C15.0186 6.18086 15.028 6.17152 15.0365 6.16044C15.0436 6.15116 15.0502 6.14066 15.0502 6.13346C15.0502 6.11769 15.0502 6.04399 15.087 5.99659C15.2837 5.14109 15.6179 4.32319 16.0768 3.57484C16.1516 3.42979 16.2981 3.33552 16.4611 3.3274C16.7383 3.30558 17.0164 3.27921 17.2946 3.25285L17.2968 3.25266C17.689 3.21549 18.0814 3.17829 18.4722 3.15367C18.7844 3.13615 19.0989 3.14198 19.4142 3.14781C19.5721 3.15074 19.7302 3.15367 19.8884 3.15367V3.05891C19.0739 2.65388 18.2223 2.32774 17.3456 2.08497C17.5522 1.91081 17.7703 1.75074 17.9984 1.60587C20.0934 1.78199 22.0819 2.60429 23.6895 3.95918C23.6895 4.00129 23.6792 4.04341 23.6654 4.08552C23.6586 4.10639 23.6509 4.12727 23.6432 4.14814L23.6316 4.18028C22.4943 3.63188 21.2738 3.27607 20.02 3.12736L20.1832 3.2537C21.1414 3.91899 22.024 4.6869 22.8156 5.54383C22.9155 5.64912 22.9314 5.72282 22.8156 5.83866C22.4652 6.27314 22.1382 6.70762 21.8112 7.1421C21.6467 7.36042 21.4824 7.57878 21.3151 7.7971C21.2904 7.83103 21.2621 7.86317 21.2271 7.90299C21.2023 7.93116 21.1741 7.96317 21.1414 8.00242L21.394 7.96031C22.3246 7.75511 23.2699 7.62483 24.2212 7.57072C24.3619 7.55064 24.5011 7.61704 24.574 7.73918C25.2399 8.68388 25.8414 9.67234 26.3744 10.6979L26.4586 10.8506C26.5105 9.79041 26.4202 8.72804 26.1902 7.69181L26.5114 7.78129C27.0348 8.92991 27.3434 10.1647 27.4221 11.4244C27.4667 12.2687 27.4102 13.1153 27.2537 13.9462C27.1277 14.0186 26.9976 14.0836 26.864 14.141L26.5376 11.0875H26.4797L26.406 11.2718C26.2595 11.6047 26.113 11.9418 25.9664 12.281L25.6816 12.941L25.6758 12.9548C25.455 13.467 25.2335 13.9807 25.0109 14.4885C24.9706 14.5753 24.8932 14.6392 24.8003 14.6622C24.0948 14.6938 23.3894 14.7254 22.6945 14.7254C22.5718 14.7254 22.4491 14.7208 22.3257 14.7137C22.179 14.7052 22.0311 14.6931 21.8807 14.6808C21.7286 14.6684 21.5739 14.6557 21.4152 14.6464C22.1025 15.4957 22.8792 16.2688 23.7316 16.9523L22.1996 19.2687C23.2992 19.0214 24.3401 18.5618 25.2636 17.9158L25.4847 18.1369C25.2155 18.4989 24.9236 18.8436 24.6107 19.1687L24.6161 19.1898ZM21 8.03034C21.0245 8.02873 21.0504 8.02873 21.0782 8.02873L18.5564 11.4034L21.3257 14.5306C20.8677 14.4358 20.4254 14.3568 19.9832 14.2515C19.0847 14.0375 18.1879 13.8163 17.293 13.5882C17.2406 13.5657 17.1815 13.5653 17.1289 13.5871C17.0764 13.609 17.0349 13.6511 17.0139 13.704C16.5375 14.4938 16.0535 15.2835 15.5715 16.0701L15.2924 16.5259L15.1871 16.6996H15.1239C15.0938 16.5563 15.0625 16.413 15.0313 16.2698C14.9476 15.8866 14.864 15.5034 14.8027 15.1202C14.6869 14.3779 14.6027 13.6356 14.5184 12.8933C14.5027 12.7564 14.4237 12.7301 14.329 12.6932L11.4386 11.5824C11.365 11.556 11.2913 11.5192 11.1754 11.4613C11.2917 11.4068 11.4036 11.3529 11.5128 11.3003C11.72 11.2005 11.9177 11.1053 12.1178 11.0191C12.8373 10.7102 13.5586 10.4083 14.2816 10.1135C14.4067 10.0784 14.4888 9.95866 14.4763 9.82923C14.5319 8.64732 14.7083 7.47422 15.0028 6.32826C15.0048 6.31858 15.0103 6.30961 15.0164 6.29954C15.027 6.28217 15.0397 6.26151 15.0397 6.22822L15.1449 6.38615C15.3579 6.72694 15.5748 7.06614 15.7911 7.4044C16.1362 7.94407 16.4797 8.48127 16.8033 9.01847C16.8553 9.0998 16.9034 9.1349 16.9661 9.1399C17.0048 9.14301 17.0491 9.13459 17.1034 9.11851C17.7372 8.93476 18.3723 8.75642 19.0081 8.58006C19.6293 8.40772 20.2511 8.23728 20.8729 8.06559C20.9138 8.04173 20.9548 8.0333 21 8.03034Z" />
</svg>
