<svg width="34" height="24" viewBox="0 0 34 24"  xmlns="http://www.w3.org/2000/svg">
<path fill-rule="evenodd" clip-rule="evenodd" d="M9.26831 7.39714C8.61023 7.32664 7.9657 7.1624 7.35425 6.90938C7.25574 6.86934 7.16235 6.81752 7.07629 6.75502C6.99194 6.7014 6.93603 6.61271 6.92407 6.51341C6.91211 6.41411 6.94531 6.31468 7.01465 6.24254C7.16382 6.0699 7.33386 5.91642 7.52087 5.78566C7.71118 5.65547 7.90686 5.53248 8.10498 5.41282C8.27307 5.31135 8.44287 5.21226 8.61267 5.11317L8.61377 5.11262C9.23791 4.72084 9.7655 4.19319 10.1573 3.56904C10.3096 3.34565 10.455 3.11836 10.6001 2.89143C10.8199 2.54759 11.0393 2.20457 11.2811 1.87727C11.7148 1.2881 12.2819 0.809949 12.9358 0.481855C13.5745 0.157788 14.2819 -0.00743375 14.998 0.000256684H21.1724H21.8392C22.3408 0.0347415 22.7352 0.442517 22.753 0.944959C22.8124 1.32475 22.6914 1.71049 22.4258 1.98842C22.2629 2.15324 22.04 2.24464 21.8083 2.24156H14.7388C13.8311 2.25706 13.0524 2.89277 12.8556 3.77897C12.7142 4.20137 12.8467 4.66716 13.189 4.9521C13.4286 5.13054 13.7247 5.21611 14.0225 5.19291H18.4125C19.7126 5.21251 21.011 5.29908 22.3024 5.45222C23.226 5.53407 24.1398 5.7036 25.0314 5.95854C25.0741 5.97371 25.1166 5.98945 25.1589 6.00572C25.2192 6.02894 25.2791 6.0533 25.3385 6.07878C25.3784 6.09587 25.4181 6.11348 25.4576 6.13157C25.522 6.16108 25.5857 6.19191 25.6488 6.22401C25.6904 6.24647 25.7279 6.27568 25.76 6.31047C25.8003 6.3372 25.8309 6.37495 25.8491 6.41829C25.854 6.42988 25.8579 6.44188 25.8608 6.45418C25.8654 6.47261 25.8677 6.49171 25.8677 6.51112C25.8677 6.59184 25.8273 6.66719 25.76 6.7118C25.6748 6.78697 25.5791 6.84938 25.476 6.89702C25.0487 7.08738 24.5983 7.22026 24.1361 7.29219C23.7106 7.36451 23.2499 7.43687 22.8268 7.49705C22.7129 7.51326 22.6017 7.52861 22.4946 7.54283C22.4224 7.55241 22.3519 7.56151 22.2838 7.57002C21.8354 7.62608 21.3829 7.66111 20.9331 7.6959L20.6476 7.71821C19.2275 7.82936 17.8074 7.8911 16.3811 7.8911C15.0845 7.84172 13.7817 7.82319 12.4851 7.73674C11.4108 7.66884 10.3364 7.53297 9.26831 7.39714ZM17.3789 5.6381L17.3566 5.63746V5.61894C16.7082 5.61894 16.0476 5.61894 15.4055 5.6251L15.698 5.63972C16.0536 5.65761 16.4081 5.67543 16.7629 5.68797C16.9354 5.69407 17.108 5.69896 17.2808 5.70195C17.4067 5.70414 17.5328 5.70537 17.6592 5.70537C18.819 5.73381 19.9758 5.83485 21.1229 6.00792C21.4629 6.06837 21.7989 6.14876 22.1294 6.24873C22.2158 6.27342 22.3331 6.32283 22.3517 6.4463C22.3702 6.56978 22.2281 6.63771 22.1356 6.63771C21.796 6.73649 21.4625 6.82295 21.1291 6.90938H21.2095C21.9503 6.82911 22.6913 6.74885 23.426 6.65007C23.6368 6.60936 23.8435 6.54942 24.0435 6.47099C24.0532 6.46776 24.0624 6.46299 24.071 6.45707C24.0989 6.43815 24.1224 6.40751 24.1457 6.37706L24.1472 6.37495C24.1578 6.36122 24.1685 6.34761 24.1793 6.33516C24.139 6.2848 24.0911 6.24104 24.0372 6.20552C23.9281 6.1555 23.8145 6.11619 23.6976 6.08818C22.906 5.91255 22.1001 5.80922 21.2897 5.77946C19.9882 5.71196 18.6804 5.67494 17.3789 5.6381ZM12.1578 1.72291C12.9263 0.917493 13.9962 0.4698 15.1093 0.48805H21.512C21.6849 0.48805 21.7714 0.574475 21.7714 0.722669C21.7714 0.870832 21.6726 0.944928 21.5059 0.944928H15.0536C14.1337 0.924268 13.2327 1.20866 12.4913 1.75377C12.1739 2.01729 11.8729 2.29976 11.5898 2.59965C11.5522 2.6407 11.5172 2.684 11.4849 2.72932C11.6558 2.3596 11.8851 2.01979 12.1641 1.72291H12.1578ZM30.7364 13.1887C30.7234 12.7871 30.6696 12.3878 30.5759 11.9971C30.3859 11.2535 30.0218 10.5657 29.514 9.99037C28.8627 9.20295 28.0443 8.57023 27.1183 8.13807C27.0532 8.10725 26.985 8.08391 26.915 8.06837C26.8462 8.05308 26.7756 8.04536 26.7046 8.04545C26.5887 8.0467 26.474 8.06758 26.3651 8.10719C26.2615 8.14448 26.144 8.18455 26.022 8.22368C25.962 8.24284 25.9011 8.26179 25.8402 8.28007C24.989 8.50471 24.1222 8.66569 23.2469 8.76167C21.8331 8.94075 20.2895 9.05189 18.5298 9.10127C18.1599 9.10127 17.7964 9.10923 17.4385 9.11708C17.197 9.12236 16.9581 9.12758 16.7216 9.13026L16.5491 9.13179L16.412 9.13215C15.3994 9.13215 14.4301 9.13215 13.473 9.06422C12.2382 9.00248 10.7996 8.91606 9.34241 8.71229C8.39148 8.60212 7.45422 8.39522 6.54541 8.09486C6.44604 8.0609 6.34167 8.0442 6.23669 8.04545C6.11609 8.04573 5.9967 8.06877 5.88476 8.11339C5.34302 8.33745 4.83911 8.64357 4.3905 9.02101C3.69873 9.58152 3.13635 10.285 2.74194 11.0832C2.53918 11.4744 2.38562 11.8892 2.28503 12.3181C2.13977 13.0238 2.05505 13.7406 2.03186 14.4606C1.9646 15.6205 2.0039 16.7841 2.14917 17.9368C2.22803 18.5624 2.40735 19.1712 2.68017 19.7397C3.17541 20.7199 3.92908 21.5462 4.85974 22.1292C5.8269 22.7528 6.91089 23.1729 8.04577 23.364C9.3634 23.5921 10.6931 23.7446 12.0282 23.8209C12.9619 23.8797 13.879 23.9161 14.7686 23.9514L14.9054 23.9568L16.0045 24H16.0477L17.1899 23.963C17.447 23.963 17.6993 23.9576 17.9481 23.9493C18.2632 23.9388 18.5726 23.9235 18.8791 23.9083C19.1097 23.897 19.3387 23.8857 19.5671 23.8765C20.0668 23.8765 20.5806 23.8306 21.1299 23.7815C21.271 23.7689 21.4144 23.7561 21.5604 23.7438L21.6726 23.7345L23.0989 23.5863L24.0867 23.4814C25.2269 23.3819 26.3376 23.0654 27.3591 22.549C28.2983 22.0903 29.1135 21.4127 29.7362 20.5732C30.2151 19.9629 30.5297 19.2402 30.65 18.474C30.738 17.8747 30.7875 17.2704 30.7982 16.6649C30.7982 15.4362 30.7673 14.2198 30.7364 13.1887ZM3.32239 14.5162C3.33935 14.0636 3.38061 13.6123 3.4458 13.164L3.71753 13.2319L4.20532 13.3555C5.39697 13.658 6.67505 13.905 7.99023 14.1087C10.0806 14.4172 12.188 14.5966 14.3004 14.6459C15.9365 14.6891 17.5851 14.6459 19.1967 14.5594C20.2833 14.4915 21.2773 14.4113 22.2344 14.3125C23.7286 14.1581 25.1055 13.9544 26.433 13.695C27.021 13.5796 27.6139 13.4496 28.1942 13.3222L28.4088 13.2752L29.3226 13.0714H29.4275V13.2258C29.4275 13.6864 29.4388 14.185 29.4508 14.706C29.4652 15.3372 29.4803 16.0014 29.4769 16.6711V17.0107L28.9459 17.165L28.9119 17.1749L28.9097 17.1755C28.668 17.2457 28.4192 17.3179 28.1663 17.3845C28.03 17.4204 27.8925 17.4547 27.7543 17.4861C26.5935 17.7331 25.5377 17.9306 24.5251 18.1035C24.4225 18.12 24.3196 18.1357 24.2167 18.1508C24.1134 18.1659 24.01 18.1804 23.9066 18.1943C23.4982 18.2495 23.0903 18.2965 22.6892 18.3427L22.5679 18.3567L21.9874 18.4246C20.5551 18.5913 19.0979 18.6963 17.6654 18.7395L17.6215 18.7407C16.5131 18.7712 15.4283 18.801 14.3497 18.7827C13.1149 18.7827 11.88 18.6963 10.6946 18.6037C9.68811 18.5234 8.70642 18.3814 7.87292 18.2579C6.46753 18.0463 5.08484 17.7052 3.74219 17.2391L3.49524 17.1465L3.35327 17.0971C3.29016 16.2382 3.28186 15.3762 3.32849 14.5162H3.32239ZM5.20544 10.0151C4.6571 10.458 4.21057 11.014 3.89648 11.6452H3.90271C3.73608 11.9428 3.60742 12.2601 3.5199 12.5898V12.7503C7.50976 13.7617 11.6106 14.2698 15.7266 14.2631C20.3359 14.3387 24.9343 13.7904 29.3966 12.633C29.3896 12.5888 29.3783 12.5447 29.3668 12.5001C29.3479 12.4265 29.3287 12.3519 29.3287 12.2749C29.1844 11.7267 28.9114 11.2208 28.5322 10.7993C28.0251 10.1877 27.3937 9.69093 26.6799 9.34211L26.1859 9.49647C25.2722 9.7407 24.3413 9.91615 23.4014 10.0213C21.9442 10.2065 20.3635 10.3177 18.5607 10.3732C17.8259 10.4041 17.0973 10.4041 16.4058 10.4041C15.3746 10.4041 14.3929 10.3856 13.405 10.3362C12.1455 10.2745 10.6636 10.1818 9.1571 9.97191C8.16821 9.85917 7.19238 9.65242 6.2428 9.35447C5.86889 9.52714 5.52002 9.74934 5.20544 10.0151ZM28.6805 19.82C28.1765 20.4949 27.5181 21.039 26.7603 21.4068C25.8831 21.8488 24.9296 22.1191 23.9509 22.2033L22.9507 22.3082L21.5553 22.4503C20.8206 22.5182 20.1476 22.5614 19.5116 22.5923C18.7833 22.6272 18.0223 22.6512 17.28 22.6745L17.1468 22.6787H17.0603L16.0354 22.7158L14.9611 22.6725C14.0411 22.6355 13.1088 22.5985 12.1147 22.5367C10.8273 22.4639 9.54504 22.3175 8.27429 22.0983C7.31982 21.9346 6.40832 21.5797 5.5946 21.0549C4.85754 20.5963 4.25976 19.9451 3.86572 19.1717C3.65491 18.7253 3.51733 18.2479 3.45825 17.7578V17.6528L3.97693 17.7701C8.05908 18.6734 12.2313 19.1063 16.4121 19.0605H16.4862C20.6862 19.1106 24.8765 18.6482 28.9645 17.6837L29.477 17.554C29.477 17.7248 29.4508 17.9021 29.4222 18.0955L29.4215 18.1012C29.4111 18.1717 29.4004 18.2444 29.3905 18.3196C29.2867 18.8724 29.0422 19.3892 28.6805 19.82Z" />
</svg>
