<svg width="34" height="24" viewBox="0 0 34 24"  xmlns="http://www.w3.org/2000/svg">
<path fill-rule="evenodd" clip-rule="evenodd" d="M12.2546 7.29819C12.2546 8.38744 13.123 9.32108 14.2466 9.32108C15.3704 9.32108 16.2386 8.38744 16.2386 7.29819C16.2386 6.20895 15.3193 5.2753 14.2466 5.2753C13.1739 5.2753 12.2546 6.15707 12.2546 7.29819ZM13.2762 7.29819C13.2762 6.7795 13.6847 6.31268 14.2466 6.31268C14.8085 6.31268 15.217 6.72764 15.217 7.29819C15.217 7.81688 14.8085 8.28371 14.2466 8.28371C13.7358 8.28371 13.2762 7.86875 13.2762 7.29819Z" />
<path fill-rule="evenodd" clip-rule="evenodd" d="M3.62229 15.8047C5.25688 20.836 9.85387 24 14.8085 24C16.0343 24 17.3113 23.7925 18.5882 23.3776C21.6529 22.3402 24.1045 20.1098 25.4837 17.1533L25.7902 16.479L17.0559 12.122L25.2794 6.46829L24.9218 5.84587C22.1125 1.02205 16.2897 -1.15645 11.0286 0.607096C4.89924 2.73372 1.52831 9.52856 3.62229 15.8047ZM11.5393 2.11129C12.5609 1.74821 13.6847 1.5926 14.7574 1.5926C18.0774 1.5926 21.2952 3.25242 23.2872 6.10521L14.0423 12.3295L23.7471 17.2052C22.4702 19.4355 20.5291 21.0953 18.0774 21.9252C12.6631 23.7407 6.84034 20.7841 5.05262 15.3379C3.2649 9.89164 6.17618 3.97858 11.5393 2.11129Z" />
<path d="M26.1476 9.89164H23.3383V12.7444H26.1476V9.89164Z" />
<path d="M28.1907 9.89164H31V12.7444H28.1907V9.89164Z" />
</svg>
