<svg width="34" height="24" viewBox="0 0 34 24"  xmlns="http://www.w3.org/2000/svg">
<path fill-rule="evenodd" clip-rule="evenodd" d="M23.0366 8.82974L23.7764 7.1723L24.1168 6.4176C24.7088 5.08572 25.8433 2.5108 26.8348 0.221985L26.7855 0H26.2231L25.7391 1.10815C24.8864 3.05948 24.0092 5.06232 23.5249 6.15121L23.1845 6.91086L22.5383 8.36606C21.7125 7.67136 20.7133 7.21439 19.6477 7.04407L20.7181 4.6615C21.1226 3.75879 21.9858 1.80048 22.7751 0.00494385H22.0599L21.6783 0.871368L21.3695 1.57358L21.3493 1.61966L21.3132 1.70169C20.8187 2.82547 20.3725 3.83969 20.1213 4.39514L18.9719 6.95526C18.2028 6.92401 17.4351 7.04468 16.7127 7.31042C14.8465 7.99582 13.4491 9.57227 12.9924 11.5072C12.5357 13.442 13.0808 15.477 14.4436 16.9245L13.6641 18.6164C13.5306 18.8982 13.335 19.1461 13.092 19.3416C12.9847 19.4413 12.8319 19.4753 12.6925 19.4304C12.5434 19.3594 12.4398 19.2188 12.4162 19.0555C12.4104 19.0285 12.4056 19.0013 12.4018 18.974C12.3947 18.9225 12.3913 18.8707 12.3916 18.8187C12.435 17.9821 12.009 17.1908 11.2866 16.7666C10.6253 16.3076 9.76314 16.2562 9.05196 16.6335C8.35299 17.0157 7.94356 17.7728 8.00631 18.5671C8.01974 19.6302 8.28512 20.675 8.78072 21.6156C9.46505 22.8497 10.6814 23.6982 12.0759 23.9143C12.4354 23.9797 12.8007 24.0078 13.166 23.9981C14.1484 23.9938 15.0981 23.6447 15.8494 23.0116C16.8642 22.0898 17.667 20.9588 18.2024 19.6967L18.6118 18.7743C20.9897 18.8202 23.1641 17.4384 24.1325 15.2661C25.1009 13.0938 24.675 10.5528 23.0514 8.81494L23.0366 8.82974ZM22.9774 8.77054L22.7555 8.5535C22.7733 8.57013 22.792 8.58704 22.8109 8.60416L22.8131 8.60608C22.8719 8.65955 22.9331 8.71506 22.9774 8.77054ZM21.4334 11.9917C21.6195 11.7857 21.6641 11.4885 21.5468 11.2369V11.2567C21.4554 11.0051 21.2946 10.7845 21.0832 10.6204C20.9547 10.4911 20.7653 10.4432 20.5909 10.4959C20.4163 10.5485 20.2851 10.6931 20.2496 10.8719C20.2341 10.9148 20.2229 10.9589 20.216 11.0037C20.2127 11.025 20.2105 11.0464 20.2093 11.068C20.2076 11.0979 20.2078 11.128 20.21 11.158C20.2465 11.5714 20.5002 11.9341 20.8761 12.11C21.0654 12.2151 21.3032 12.1646 21.4334 11.9917ZM20.0225 7.88266C20.0533 7.87805 20.0842 7.87482 20.1152 7.87296C20.1879 7.86862 20.2611 7.87186 20.3333 7.88266C20.5725 7.96747 20.8064 8.06628 21.0338 8.17862C21.0831 8.17862 21.1029 8.28714 21.1325 8.3414C21.0733 8.3414 21.0141 8.41046 20.9598 8.40552C20.6057 8.38266 20.2644 8.26324 19.9732 8.06024C19.8845 8.0257 19.8845 7.94183 20.0225 7.90237V7.88266ZM20.9007 9.26382C20.7447 8.96405 20.4621 8.75031 20.1312 8.68176V8.70151C19.9307 8.65469 19.7223 8.73727 19.6082 8.90866C19.5149 9.08102 19.5471 9.29443 19.6872 9.43155C19.8576 9.64508 20.0877 9.80304 20.3482 9.88538C20.5004 9.96625 20.6873 9.9404 20.8118 9.82123C20.9554 9.67239 20.9908 9.44989 20.9007 9.26382ZM13.906 14.4532C13.1305 12.1421 14.1215 9.60733 16.2589 8.43512C16.9625 8.04471 17.7485 7.82663 18.5526 7.79877C18.7114 7.78534 18.8695 7.83102 18.9965 7.92703C19.0661 7.97177 19.112 8.04532 19.1215 8.12747C19.1312 8.20963 19.1034 8.29175 19.0459 8.35126C18.987 8.41623 18.9209 8.47418 18.8486 8.5239C18.6727 8.61133 18.5565 8.78555 18.5433 8.98151C18.5301 9.17749 18.6219 9.36572 18.7845 9.47595C18.9703 9.62817 19.1761 9.7543 19.3962 9.85083C19.6872 9.98895 19.7513 10.1813 19.5589 10.428C19.2928 10.8014 19.2928 11.3025 19.5589 11.676C19.7121 11.9132 19.9317 12.1002 20.1903 12.2137C20.3054 12.2439 20.3941 12.3354 20.421 12.4512C20.448 12.567 20.4085 12.6883 20.3186 12.7661C20.0806 13.0614 19.9721 13.4403 20.0177 13.8168C20.0423 14.0585 19.9635 14.1621 19.7168 14.2065C19.4123 14.2481 19.1108 14.3091 18.814 14.389C18.3724 14.5047 18.0772 14.9204 18.1136 15.3756C18.1135 15.3883 18.1131 15.401 18.1124 15.4137C18.1119 15.4232 18.1112 15.4327 18.1102 15.4422C18.109 15.4544 18.1074 15.4666 18.1056 15.4787C18.0982 15.5259 18.0861 15.5724 18.0692 15.6173C18.0611 15.6442 18.0489 15.6693 18.0333 15.6919C18.0067 15.7303 17.9699 15.7612 17.9264 15.7809C17.8573 15.8121 17.778 15.8118 17.7091 15.7801C17.445 15.6913 17.1593 15.6913 16.8952 15.7801C16.8237 15.7993 16.7577 15.8325 16.7003 15.8769C16.6627 15.906 16.6289 15.9399 16.5998 15.978C16.5905 15.9902 16.5817 16.0028 16.5734 16.0158C16.5658 16.0279 16.5584 16.0403 16.5516 16.053C16.4797 16.1876 16.4665 16.3459 16.5153 16.4904C16.5217 16.5151 16.5271 16.54 16.5316 16.565C16.5434 16.6299 16.5496 16.6957 16.5499 16.7617C16.5545 16.8228 16.5319 16.8828 16.4882 16.9256C16.4832 16.9305 16.478 16.9352 16.4724 16.9395C16.4674 16.9435 16.4622 16.9472 16.457 16.9507C16.4462 16.9578 16.4349 16.9637 16.4232 16.9687C16.3919 16.9817 16.3575 16.9871 16.323 16.9837C16.2004 16.9804 16.0791 16.9588 15.9629 16.9196C15.4149 16.714 14.9465 16.339 14.6261 15.8491C14.3237 15.4258 14.0813 14.9627 13.906 14.4729V14.4532ZM18.4441 17.8568C18.14 17.7013 17.7971 17.6379 17.4575 17.6743V17.694C17.4384 17.7076 17.4163 17.7198 17.3988 17.7296C17.3845 17.7375 17.3731 17.7439 17.3687 17.7483C17.3722 17.7847 17.3922 17.8174 17.4231 17.8371C17.7244 17.9998 18.0706 18.0604 18.4095 18.0097C18.4373 18.0051 18.4622 17.9912 18.4807 17.9708L18.4837 17.9673L18.49 17.9592L18.4934 17.9541L18.4984 17.9456C18.5083 17.9209 18.4737 17.8568 18.4441 17.8568ZM17.2208 16.9195C17.1644 16.8398 17.1456 16.7394 17.1693 16.6446C17.193 16.5498 17.2568 16.4701 17.3441 16.4263C17.4128 16.3907 17.4847 16.362 17.5588 16.3405L17.5832 16.3336C17.5968 16.33 17.6103 16.3266 17.624 16.3235C17.6505 16.3174 17.6772 16.3122 17.7042 16.3079C17.9835 16.2703 18.2679 16.3078 18.5279 16.4164C18.8239 16.5298 18.8585 16.7715 18.6118 16.9689C18.5061 17.0448 18.3957 17.114 18.2813 17.1761C18.0661 17.2463 17.8359 17.2566 17.6153 17.2056C17.4537 17.1728 17.3117 17.0769 17.2208 16.9393V16.9195ZM12.1745 23.2582C13.3064 23.5118 14.4923 23.2398 15.4006 22.5183V22.538C16.3426 21.6656 17.0832 20.5984 17.571 19.4106L17.8867 18.7003C16.7959 18.5422 15.7707 18.0826 14.927 17.3734L14.2315 18.8532C14.0583 19.2366 13.7982 19.5744 13.4718 19.8398C13.1851 20.0797 12.7926 20.1492 12.4409 20.0223C12.0772 19.874 11.8173 19.5468 11.7552 19.1591C11.7487 19.1277 11.7431 19.0961 11.7385 19.0644C11.7334 19.0296 11.7293 18.9946 11.7264 18.9596C11.7233 18.9244 11.7215 18.8891 11.7207 18.8538C11.7201 18.8273 11.7201 18.8008 11.7207 18.7743C11.7578 18.1678 11.4456 17.5933 10.9166 17.2944C10.6436 17.1073 10.3203 17.0075 9.98922 17.0083C9.85409 17.0132 9.72066 17.0366 9.59273 17.0775C9.50497 17.1055 9.41964 17.1418 9.3381 17.1859C8.85384 17.4519 8.57735 17.9834 8.63766 18.5326C8.6506 19.4925 8.89071 20.4357 9.3381 21.2851C9.92672 22.3468 10.9743 23.0756 12.1745 23.2582ZM18.9719 15.7357C19.0332 15.4572 19.2031 15.2146 19.4438 15.0618C19.6847 14.909 19.9764 14.8586 20.2545 14.9218C20.3619 14.9548 20.4486 15.035 20.4898 15.1396C20.5311 15.2442 20.5225 15.3619 20.4666 15.4594C20.2849 15.8447 19.9533 16.1388 19.549 16.2733C19.1742 16.446 18.9325 16.0563 18.9719 15.7357ZM19.8303 17.8025C20.1916 17.8026 20.5354 17.6461 20.7724 17.3734H20.7774C20.8711 17.2698 20.8217 17.1711 20.6886 17.1761C20.5378 17.1886 20.3879 17.21 20.2397 17.2402C20.0688 17.3511 19.9041 17.4713 19.7464 17.6003C19.6429 17.694 19.6922 17.8025 19.8303 17.8025ZM20.7723 14.3298C20.6478 13.7939 20.8603 13.236 21.31 12.919C21.4393 12.8354 21.603 12.8256 21.7413 12.8933C21.8796 12.9609 21.9724 13.0961 21.9858 13.2495C22.0531 13.7123 21.889 14.1787 21.5468 14.4975C21.5123 14.5357 21.4721 14.5671 21.4284 14.5911C21.3812 14.617 21.3298 14.6343 21.2766 14.6422C21.2232 14.6501 21.1679 14.6486 21.1134 14.6367C20.9544 14.6021 20.8263 14.485 20.7773 14.3298H20.7723ZM21.4925 16.2783C21.8491 16.0959 22.1097 15.7687 22.2078 15.3805H22.2127C22.2671 15.1684 22.1289 15.045 21.9168 15.1388C21.5305 15.3055 21.2465 15.6462 21.1522 16.0563C21.1029 16.2783 21.2312 16.3671 21.4925 16.2783ZM21.8477 9.74231C21.8291 9.62646 21.8192 9.5094 21.8182 9.39206C21.8182 9.25397 21.9267 9.20956 22.055 9.26382C22.3609 9.4693 22.5456 9.81274 22.5483 10.1813C22.5483 10.3342 22.42 10.3836 22.2819 10.2997C22.0887 10.1606 21.9397 9.96881 21.8527 9.74722L21.8477 9.74231ZM22.4298 12.4208C22.4939 12.5491 22.5579 12.6724 22.7208 12.6724L22.7257 12.6773C22.8885 12.6724 22.9526 12.5392 22.9724 12.406C23.0865 12.0965 23.0669 11.7534 22.9181 11.4589C22.8639 11.3504 22.7899 11.2517 22.6517 11.2567C22.5136 11.2616 22.4445 11.3701 22.3952 11.4885C22.2927 11.7621 22.2927 12.0634 22.3952 12.337C22.4298 12.3616 22.4298 12.3912 22.4298 12.4208ZM23.2733 14.6455C23.1894 14.7639 23.0957 14.7442 23.0365 14.5616C23.0302 14.4615 23.0302 14.361 23.0365 14.2607C23.0544 14.0222 23.1419 13.7941 23.288 13.6047C23.3012 13.5891 23.317 13.5764 23.3343 13.5667C23.3606 13.552 23.3905 13.5445 23.4212 13.5455C23.4669 13.5674 23.4997 13.6094 23.5101 13.6589C23.5736 14.012 23.4898 14.3756 23.2783 14.6653L23.2733 14.6455ZM17.8226 13.7625C17.4144 13.3456 17.3451 12.7032 17.6549 12.2087C17.9615 11.7082 18.5717 11.4837 19.1297 11.6661C19.1685 11.6735 19.2054 11.6886 19.2382 11.7105C19.2728 11.7401 19.3073 11.7944 19.3073 11.8289C19.2849 11.8723 19.2424 11.9019 19.1938 11.9078C18.9377 11.9213 18.691 12.0086 18.4835 12.1594C18.0127 12.4926 17.8415 13.1113 18.0741 13.6392C18.0445 13.7132 18.1431 13.7724 18.0445 13.8563C17.9459 13.9401 17.8818 13.8217 17.8226 13.7625ZM16.1059 14.976C16.1204 14.9947 16.1402 15.0081 16.1623 15.0196C16.1927 15.0355 16.2275 15.0477 16.2589 15.0648C16.2681 15.0465 16.2767 15.0278 16.2844 15.0088C16.2979 14.9757 16.3093 14.9417 16.3181 14.907V14.7097C16.3277 14.3159 16.6117 13.9827 16.9989 13.9105C17.082 13.903 17.1655 13.8992 17.249 13.8994C17.29 13.8994 17.3309 13.9004 17.3718 13.9023C17.4119 13.9041 17.4521 13.9069 17.4921 13.9105C17.524 13.9063 17.5554 13.899 17.5857 13.8886C17.6008 13.8835 17.6157 13.8777 17.6302 13.8711C17.6302 13.8217 17.6302 13.7527 17.5809 13.728C17.3885 13.5576 17.1463 13.4538 16.8903 13.432C16.7063 13.4105 16.5201 13.4467 16.3575 13.5356C15.9428 13.7943 15.7898 14.3239 16.0024 14.7639C16.0296 14.838 16.0643 14.909 16.1059 14.976ZM17.0482 10.9212C16.955 10.6427 17.0009 10.3365 17.1715 10.0975C17.3942 9.75439 17.7608 9.53116 18.1679 9.49072C18.1801 9.4895 18.1926 9.4928 18.2052 9.49844C18.2149 9.50281 18.2248 9.50864 18.2347 9.51486L18.2472 9.52277C18.2721 9.53882 18.297 9.55487 18.3208 9.55487C18.3125 9.56866 18.305 9.58359 18.2976 9.59848C18.2783 9.63693 18.2591 9.6752 18.2271 9.69296C17.998 9.81711 17.807 10.0013 17.6746 10.2257C17.4661 10.5624 17.5042 10.9961 17.7684 11.2912C17.8078 11.3257 17.8571 11.4096 17.8078 11.4392C17.7866 11.4519 17.7635 11.4592 17.7406 11.4633C17.7102 11.4688 17.6801 11.4688 17.6549 11.4688C17.3736 11.3996 17.1457 11.194 17.0482 10.9212ZM14.9467 15.5532C15.0175 15.5318 15.0931 15.5318 15.1638 15.5532C15.2292 15.5692 15.2927 15.5915 15.3535 15.6198C15.4006 15.6418 15.446 15.6673 15.4893 15.6962C15.6126 15.7874 15.7301 15.8829 15.8481 15.9788C15.9472 16.0594 16.0467 16.1403 16.1504 16.2191C16.1694 16.2333 16.1942 16.2339 16.2208 16.2344C16.2493 16.235 16.2801 16.2357 16.3082 16.2536C16.3625 16.2881 16.3379 16.1402 16.3082 16.1007C16.0476 15.6021 15.6416 15.1944 15.1441 14.9316C15.0376 14.8785 14.9222 14.845 14.8037 14.833C14.7368 14.819 14.6673 14.839 14.618 14.8864C14.5687 14.9337 14.5459 15.0023 14.5571 15.0698C14.5658 15.1611 14.5805 15.2517 14.6015 15.3411C14.6015 15.3805 14.6311 15.4249 14.6458 15.4644C14.7528 15.6247 14.7591 15.6223 14.9384 15.5562L14.9467 15.5532ZM16.7014 9.1051C16.6547 9.09033 16.6091 9.07251 16.5647 9.05173C16.4979 9.03278 16.4465 8.97937 16.4301 8.91196C16.421 8.87402 16.4237 8.83496 16.4367 8.79962C16.447 8.77213 16.4635 8.74689 16.4857 8.72617C16.5911 8.62228 16.7048 8.52707 16.8253 8.44135C16.8642 8.4136 16.904 8.38684 16.9444 8.36111C16.9732 8.33817 17.0131 8.33527 17.0449 8.35385C17.0766 8.37247 17.0936 8.40869 17.0875 8.44498C17.0875 8.59018 17.2038 8.70865 17.349 8.71136C17.5907 8.74588 17.8374 8.74588 18.0839 8.74588H18.1876C18.2071 8.75415 18.2246 8.76617 18.2391 8.78104C18.2528 8.79498 18.2638 8.81146 18.2714 8.82974C18.2725 8.85068 18.2677 8.87112 18.2578 8.88885C18.2502 8.90225 18.2398 8.91412 18.227 8.92346C18.155 8.95627 18.0808 8.98425 18.0051 9.00732C17.6563 9.13339 17.2844 9.18219 16.9149 9.15036C16.8422 9.14224 16.7707 9.12708 16.7014 9.1051Z" />
</svg>
