<svg width="34" height="24" viewBox="0 0 34 24"  xmlns="http://www.w3.org/2000/svg">
<path fill-rule="evenodd" clip-rule="evenodd" d="M19.7297 9.93991C19.0087 9.93991 18.2362 9.7854 17.5152 9.47639C16.4336 9.01287 15.5066 8.18884 14.9916 7.2618C14.425 6.23175 14.3219 5.20171 14.7341 4.27468C15.0945 3.39914 15.867 2.78111 16.9486 2.4721C17.9786 2.21459 19.1631 2.3176 20.2447 2.83262C21.3263 3.29613 22.2532 4.12017 22.7682 5.04721C23.3348 6.07725 23.4379 7.10729 23.0257 8.03433C22.6654 8.90987 21.8929 9.52789 20.8113 9.8369C20.4506 9.88841 20.0903 9.93991 19.7297 9.93991ZM17.236 3.05981C17.4835 3.02018 17.7309 2.98713 17.9786 2.98713C19.2327 2.98713 20.5163 3.55361 21.4216 4.43706L20.2437 5.02229C19.6756 4.46476 18.8455 4.19147 18.0951 4.36174L17.236 3.05981ZM17.4435 4.68361L16.5171 3.27943C15.9598 3.54122 15.5383 3.96515 15.3004 4.48068C14.9916 5.20171 15.0945 6.02574 15.5579 6.84978L15.5926 6.90897C15.618 6.95112 15.6442 6.99286 15.6709 7.03415C15.691 7.06482 15.7113 7.09525 15.732 7.12543L15.7802 7.19434L15.8142 7.24093L17.0846 6.6098C16.8432 6.15522 16.799 5.65519 16.9999 5.25321C17.0834 5.03056 17.2421 4.83798 17.4435 4.68361ZM20.7597 6.95278C20.9586 6.55476 20.9171 6.0606 20.682 5.60962L21.9125 4.99835C21.9552 5.05613 21.9965 5.1148 22.0362 5.17432C22.0759 5.23411 22.1139 5.29476 22.1504 5.35622C22.6138 6.18025 22.7169 7.00429 22.4079 7.72532C22.1604 8.26149 21.7148 8.69858 21.1238 8.95723L20.2218 7.58987C20.4677 7.42566 20.6634 7.20916 20.7597 6.95278ZM16.3058 7.80183C17.3814 8.84481 18.985 9.41666 20.4006 9.1701L19.5393 7.86452C19.4209 7.87982 19.3177 7.87982 19.2146 7.87982C18.6119 7.87982 17.9814 7.63176 17.525 7.19614L16.3058 7.80183ZM18.4937 5.04721C18.3906 5.04721 18.2875 5.04721 18.1846 5.09871C17.9271 5.15021 17.7211 5.30471 17.618 5.56222C17.5149 5.81974 17.5665 6.07725 17.7211 6.33476C18.0815 6.95278 18.9056 7.3133 19.575 7.15879C19.8325 7.10729 20.0387 6.95278 20.1416 6.69527C20.2447 6.43776 20.1931 6.18025 20.0387 5.92274C19.7297 5.40772 19.06 5.04721 18.4937 5.04721Z" />
<path fill-rule="evenodd" clip-rule="evenodd" d="M16.9999 0C15.352 0 13.8069 0.309016 12.3134 0.92704C10.8712 1.54506 9.58364 2.4206 8.50204 3.50215C7.36915 4.63519 6.54506 5.92275 5.92694 7.3133C5.30906 8.80686 5 10.4034 5 12C5 13.5966 5.30906 15.1931 5.92694 16.6867C6.54506 18.1288 7.4207 19.4163 8.50204 20.4979C9.63519 21.6309 10.9227 22.4549 12.3134 23.073C13.8069 23.691 15.4035 24 16.9999 24C18.6481 24 20.1931 23.691 21.6866 23.073C23.1289 22.4549 24.4164 21.5794 25.4978 20.4979C26.6309 19.3648 27.455 18.0772 28.0729 16.6867C28.691 15.1931 29 13.5966 29 12C29 10.4034 28.691 8.80686 28.0729 7.3133C27.455 5.87124 26.5793 4.58369 25.4978 3.50215C24.3649 2.3691 23.0773 1.54506 21.6866 0.92704C20.1931 0.309016 18.5965 0 16.9999 0ZM27.067 8.24826C27.5173 9.43202 27.764 10.7142 27.764 12.0515C27.764 17.9742 22.9226 22.8154 16.9999 22.8154C15.1312 22.8154 13.3701 22.3335 11.8348 21.4877C12.8005 21.2607 13.6412 21.0338 14.3219 20.8069C14.4766 20.7039 14.5794 20.5494 14.5279 20.3433C14.425 20.1888 14.2704 20.0858 14.0644 20.1373C13.3434 20.3433 12.365 20.6009 11.2318 20.8584C11.1576 20.8832 11.0829 20.9318 11.0316 20.9986C10.6532 20.7449 10.2918 20.4679 9.94903 20.1697C11.2328 19.877 12.4937 19.5437 13.4463 19.2103C13.6007 19.1073 13.7038 18.9528 13.6523 18.7468C13.5492 18.5923 13.3947 18.4893 13.1888 18.5408C12.1587 18.9013 10.8196 19.2618 9.48054 19.5193C9.45162 19.529 9.4227 19.5424 9.39478 19.559C9.37592 19.5704 9.35756 19.5832 9.34046 19.5975C9.04951 19.3022 8.77515 18.9902 8.5194 18.6631C9.90779 18.4002 11.9203 17.9514 13.6007 17.4077C13.7554 17.3047 13.8582 17.1502 13.8069 16.9442C13.7038 16.7897 13.5494 16.6867 13.3432 16.7382C11.6437 17.3047 9.58364 17.7167 8.19298 17.9742C8.14445 17.9864 8.09868 18.0043 8.05794 18.0272C7.85248 17.7212 7.66212 17.4042 7.48835 17.0774L7.70939 17.0378C9.12872 16.7856 12.492 16.1879 14.9916 15.2446C15.1976 15.1416 15.2489 14.9871 15.1976 14.7811C15.0945 14.5751 14.9401 14.5236 14.7341 14.5751C12.1074 15.5536 8.34764 16.2232 7.26604 16.3777C7.23033 16.3866 7.19613 16.3987 7.1642 16.4136C7.03267 16.119 6.91373 15.8175 6.80861 15.5098C8.54505 15.2559 14.4429 14.226 20.9657 11.588C24.2965 10.2556 26.3485 8.78863 27.067 8.24826ZM26.7989 7.60725C26.353 7.99274 24.2522 9.56151 20.7082 10.97C14.1067 13.6105 8.20178 14.6261 6.60793 14.8543C6.5091 14.4897 6.42888 14.1176 6.36878 13.739L6.46007 13.7255L6.74624 13.6855C7.387 13.5968 8.22115 13.4813 9.12017 13.236C11.5409 12.824 13.9616 12.1545 15.6095 11.485C15.8154 11.382 15.867 11.176 15.8154 11.0215C15.7126 10.8154 15.5066 10.7639 15.352 10.8154C13.7554 11.485 11.3862 12.103 9.01732 12.5665C8.22266 12.711 7.47829 12.8302 6.89235 12.924L6.875 12.9267L6.87198 12.9271L6.50131 12.9866L6.27976 13.0229C6.25084 12.7028 6.236 12.3788 6.236 12.0515C6.44221 12 7.16319 11.897 8.34764 11.7425L8.44345 11.7241C9.77652 11.4679 11.6264 11.1123 13.0344 10.6094C13.189 10.5064 13.2919 10.3519 13.2403 10.1459C13.1375 9.99142 12.9828 9.88841 12.7769 9.93991C11.3865 10.4549 9.53234 10.8154 8.24479 11.0215C7.17803 11.207 6.52897 11.3089 6.25989 11.3274C6.28428 10.9613 6.32704 10.6 6.38714 10.2445C6.4055 10.2475 6.42385 10.2489 6.44221 10.2489C6.64817 10.2489 7.06009 10.1974 7.67821 10.0944C7.79817 10.0719 7.92692 10.0483 8.06247 10.0235C8.85788 9.87774 9.88818 9.68891 10.7683 9.42489C10.9743 9.37339 11.0774 9.21888 11.0259 9.01287C10.9743 8.80686 10.8199 8.70386 10.6137 8.75536C9.58364 9.01287 8.39919 9.27038 7.57511 9.37339C7.09781 9.45296 6.74323 9.50179 6.53551 9.5199C6.62478 9.14968 6.73292 8.7868 6.85941 8.43241C6.89135 8.4417 6.92429 8.44636 6.95698 8.44636C7.72951 8.34335 8.81111 8.18884 9.63519 7.93133C9.84115 7.87983 9.94426 7.72532 9.8927 7.51932C9.84115 7.31331 9.68674 7.2103 9.48054 7.2618C8.74824 7.44493 7.85274 7.58736 7.1564 7.6891C8.82544 3.92547 12.59 1.28755 16.9999 1.28755C21.3401 1.28755 25.0997 3.88728 26.7989 7.60725Z" />
</svg>
