<svg width="34" height="24" viewBox="0 0 34 24"  xmlns="http://www.w3.org/2000/svg">
<path fill-rule="evenodd" clip-rule="evenodd" d="M28.6566 9.27786C27.921 6.24359 26.0222 3.62551 23.3748 1.99563H23.3439C19.7338 -0.427801 15.0931 -0.660894 11.2609 1.3887C7.4289 3.43829 5.02436 7.43966 5.00019 11.807C4.97589 16.1743 7.33612 20.2024 11.1452 22.2948C13.8012 23.9172 16.9903 24.407 20.0063 23.656C23.0259 22.9112 25.6328 20.9998 27.2629 18.3354C28.91 15.6244 29.4118 12.3632 28.6566 9.27786ZM9.3852 4.87405C9.53278 6.10607 9.42426 7.35543 9.06647 8.5433C8.72565 9.46691 8.1745 10.2979 7.45709 10.9702L7.42584 11.0017C7.17694 11.2541 6.90778 11.4855 6.62116 11.6936C6.66571 10.0772 7.08234 8.4931 7.83856 7.06512C8.25983 6.2738 8.77948 5.53933 9.3852 4.8793V4.87405ZM9.66742 8.77392C9.05048 10.2826 7.98505 11.5639 6.61603 12.4431V12.4484C6.70783 15.4139 8.07624 18.1941 10.3675 20.0699C12.7606 20.8772 16.0418 19.8812 18.623 17.4019L18.0639 16.9406C17.2541 16.2749 16.4912 15.6459 15.7858 14.9697C14.5848 13.5537 14.0753 11.6744 14.3959 9.84323C14.7122 7.99609 15.6758 6.32305 17.113 5.12564C19.2447 3.32247 21.5019 3.35916 23.5031 3.77325C23.1701 3.50738 22.8211 3.26232 22.4581 3.03942C18.4603 0.614588 13.3452 1.13842 9.91815 4.32363C10.192 5.78826 10.1058 7.29775 9.66742 8.72149V8.77392ZM12.1701 21.2336C14.5266 21.2336 17.1861 20.0961 19.3544 17.9784C20.4561 18.8804 21.4424 19.9157 22.2908 21.0606C19.1794 22.8878 15.3436 22.9553 12.1701 21.2388V21.2336ZM22.8185 20.7042C24.0804 19.8614 25.1491 18.759 25.9536 17.47C28.3598 13.4418 27.8322 8.30447 24.6578 4.85305C24.4278 4.74298 24.1979 4.63815 23.9995 4.55429C22.3953 4.14541 20.7077 3.93575 19.0462 4.66961C18.5013 4.91317 17.9944 5.23449 17.5413 5.62359C16.2291 6.72225 15.3448 8.24972 15.0439 9.93759C14.7554 11.5693 15.2033 13.2453 16.2664 14.5136C16.9144 15.1479 17.6824 15.7717 18.4819 16.4269C20.114 17.6489 21.5729 19.0878 22.8185 20.7042Z" />
</svg>
