<svg width="34" height="24" viewBox="0 0 34 24"  xmlns="http://www.w3.org/2000/svg">
<path d="M19.4924 12.7565V8.94103H18.1901V12.688C18.1901 13.6476 17.6417 13.9903 16.8192 13.9903C15.9967 13.9903 15.4484 13.6476 15.4484 12.688V8.94103H14.1461V12.7565C14.1461 14.5615 15.4712 15.1784 16.8192 15.1784C18.1672 15.1784 19.4924 14.5615 19.4924 12.7565Z" />
<path fill-rule="evenodd" clip-rule="evenodd" d="M10.8332 4.8742C16.545 -0.449237 23.9932 -1.5916 27.4432 2.33814C29.1567 4.28017 29.6365 7.13609 28.814 10.3804C28.0144 13.4877 26.0724 16.5949 23.3535 19.131C19.4695 22.7408 14.7858 24.4315 11.1073 23.906C9.37093 23.6776 7.863 22.9236 6.74348 21.667C3.29353 17.7373 5.12132 10.1976 10.8332 4.8742ZM19.6979 15.9323C23.9704 10.8145 26.1866 4.64572 24.5416 2.49807C24.2903 2.17821 23.9704 1.97258 23.5591 1.8355C23.5134 1.82407 23.4735 1.81265 23.4335 1.80123C23.3935 1.7898 23.3535 1.77838 23.3078 1.76696C23.2735 1.76696 23.2336 1.76125 23.1936 1.75553C23.1536 1.74982 23.1136 1.74411 23.0793 1.74411C22.3025 1.65272 21.2973 1.88119 20.1549 2.42953C18.0529 3.45766 15.6997 5.42253 13.5748 7.98144C11.45 10.5403 9.78218 13.3734 8.86829 15.9552C8.06863 18.2399 7.97724 20.1134 8.59412 21.1872C9.211 21.6442 9.89642 21.9869 10.6732 22.1697C13.0037 22.0554 16.545 19.7021 19.6979 15.9323ZM20.132 1.74411C17.4817 2.15536 14.5116 3.66329 11.907 6.08511C6.97196 10.7003 5.16702 16.9605 7.72592 20.2962C7.54314 19.0853 7.74877 17.5316 8.38849 15.7038C9.32524 13.0307 11.0388 10.1291 13.2321 7.50164C15.4255 4.8742 17.8245 2.86363 19.995 1.81265L20.132 1.74411ZM22.2797 17.8972C24.77 15.5668 26.5293 12.7565 27.2604 9.94631C27.9458 7.27317 27.5803 4.96559 26.2323 3.43481C25.9353 3.11495 25.6154 2.84078 25.2498 2.58946C26.5293 5.37684 24.3816 11.2258 20.0406 16.4121C17.5503 19.4051 14.9 21.4842 12.6838 22.3753C15.654 22.3067 19.2181 20.7531 22.2797 17.8972Z" />
</svg>
