<svg width="34" height="25" viewBox="0 0 34 25"  xmlns="http://www.w3.org/2000/svg">
<path fill-rule="evenodd" clip-rule="evenodd" d="M25.7222 4.59744C21.1943 -0.145663 13.698 -0.377322 8.88597 4.07718C4.07396 8.53164 3.72753 16.0235 8.10765 20.9032C10.2236 23.2536 13.1794 24.677 16.3364 24.8658C22.9538 25.2108 28.6062 20.1434 28.9831 13.5277V13.491C29.157 10.2054 27.9787 6.99185 25.7222 4.59744ZM27.4756 13.3916V13.423C27.1133 19.1827 22.1892 23.5818 16.4253 23.2955C10.6836 23.0022 6.26512 18.1128 6.55272 12.3708V12.2557C6.99803 6.59173 11.8796 2.31662 17.5527 2.6221C23.2258 2.92755 27.6201 7.70212 27.4546 13.3811L27.4756 13.3916ZM15.1533 6.62848C15.3005 6.65072 15.4433 6.69485 15.5774 6.75937C15.6794 6.81112 15.7659 6.88873 15.8286 6.98443C15.8818 7.0592 15.9094 7.1492 15.9072 7.24093C15.9016 7.34277 15.8711 7.44168 15.8181 7.52884C15.7912 7.57663 15.7615 7.62262 15.7285 7.66653C15.7087 7.69296 15.688 7.71863 15.6662 7.74347L15.6328 7.78167C15.6084 7.80865 15.5835 7.83493 15.5576 7.8605L15.5315 7.88586C15.5173 7.89941 15.5029 7.91275 15.4883 7.92587C15.4763 7.93673 15.4641 7.94748 15.4516 7.95807C15.3672 8.03021 15.2781 8.09665 15.1848 8.15698C15.1467 8.18167 15.1079 8.20538 15.0686 8.22812C15.0354 8.24728 15.0019 8.26574 14.9682 8.28351C14.9377 8.2995 14.907 8.31491 14.876 8.32974L14.7607 8.25644L14.6509 8.18316L14.5461 8.11511L14.4414 8.0523L14.4011 8.02353C14.3059 7.95572 14.2158 7.89148 14.1379 7.82721C14.0539 7.76141 13.9797 7.68384 13.918 7.59689C13.8638 7.52228 13.8345 7.43255 13.8342 7.34039C13.8391 7.22961 13.8755 7.12253 13.939 7.03155C13.9707 6.98349 14.008 6.93948 14.05 6.90039C14.0603 6.89081 14.0708 6.88153 14.0818 6.87256C14.0964 6.86041 14.1118 6.84884 14.1274 6.83786C14.2107 6.77765 14.3025 6.73004 14.3996 6.69653C14.5115 6.65921 14.6274 6.63635 14.7451 6.62848C14.7634 6.62628 14.7817 6.62439 14.8003 6.62277L14.8376 6.6199C14.9429 6.61303 15.0486 6.6159 15.1533 6.62848ZM18.917 4.18918C19.508 4.4581 20.0224 4.87008 20.414 5.38791C20.8577 5.9769 21.1262 6.67901 21.189 7.41369C21.2622 8.34839 21.0984 9.28644 20.7124 10.1409C20.2546 11.1826 19.5864 12.1182 18.7495 12.8891C17.9038 13.682 16.9165 14.3088 15.8391 14.7369C14.8767 15.1224 13.844 15.3008 12.8083 15.2604C11.9409 15.2354 11.0964 14.9768 10.3638 14.5118C9.76268 14.1224 9.28661 13.5681 8.99217 12.9153C8.7329 12.3239 8.61107 11.6813 8.63622 11.036C8.6599 10.3885 8.79271 9.74966 9.02879 9.14636C9.27806 8.50744 9.61253 7.90521 10.0234 7.35611C10.4363 6.7987 10.9123 6.29104 11.4421 5.84332C11.9534 5.40991 12.5095 5.03259 13.1013 4.71786C13.689 4.40469 14.3108 4.16052 14.9543 3.99026C15.6128 3.81369 16.2937 3.73434 16.9751 3.7547C17.6445 3.77151 18.3042 3.9191 18.917 4.18918ZM17.2158 7.68591C17.3244 7.48883 17.3804 7.26706 17.3782 7.04205L17.3833 7.06299C17.3804 6.85074 17.3127 6.64447 17.1897 6.47149C17.1243 6.37951 17.0469 6.29675 16.9595 6.22546C16.8611 6.14541 16.7539 6.0769 16.6401 6.0213C16.3596 5.88827 16.0588 5.80334 15.7502 5.77005C15.6514 5.75781 15.5522 5.74914 15.4531 5.74405C15.4172 5.74222 15.3813 5.74084 15.3454 5.73993C15.3059 5.73892 15.2663 5.73849 15.2268 5.73864C15.1968 5.73858 15.1667 5.73889 15.1367 5.73959C15.1052 5.74032 15.0737 5.74148 15.0425 5.74307C15.0141 5.7445 14.9858 5.74627 14.9575 5.74838C14.9307 5.75039 14.9038 5.75271 14.8769 5.75534C14.8476 5.75818 14.8186 5.76138 14.7895 5.76498L14.7502 5.77005C14.4778 5.80807 14.2117 5.88382 13.9599 5.99515C13.855 6.04171 13.7534 6.09509 13.6557 6.15487C13.5517 6.21841 13.4521 6.28921 13.3579 6.36679C13.1953 6.49933 13.0525 6.65445 12.9338 6.82745C12.9175 6.85138 12.9016 6.87567 12.8865 6.90033C12.8674 6.93121 12.8494 6.96264 12.832 6.99457C12.8179 7.02112 12.8042 7.048 12.7912 7.07519C12.7749 7.10904 12.7598 7.14337 12.7456 7.17816C12.7231 7.23477 12.7048 7.29294 12.6911 7.3522C12.6802 7.40002 12.6721 7.44854 12.667 7.49746C12.6523 7.59289 12.6523 7.68997 12.667 7.78537C12.6753 7.82431 12.686 7.86267 12.6987 7.9003C12.7053 7.91992 12.7126 7.93933 12.7204 7.95849C12.7265 7.97403 12.7331 7.98941 12.7402 8.00464C12.7468 8.01895 12.7539 8.03311 12.7612 8.04712C12.5976 8.09253 12.4382 8.1521 12.2849 8.22506C12.1316 8.29843 11.9844 8.38421 11.8452 8.48156C11.707 8.57852 11.5774 8.6871 11.4577 8.80612C11.3393 8.92288 11.2324 9.05084 11.1384 9.18823C10.9997 9.38946 10.8952 9.61233 10.8296 9.84781C10.7668 10.0729 10.758 10.3096 10.8035 10.5388C10.8594 10.7933 10.9822 11.0283 11.1594 11.2193C11.1963 11.2595 11.2348 11.2983 11.2749 11.3353L11.2966 11.3548L11.3269 11.3815C11.5432 11.5652 11.7847 11.7168 12.0442 11.8317C12.4245 12.0118 12.834 12.1234 13.2532 12.1615C13.6223 12.194 13.9941 12.1531 14.3474 12.0411C14.668 11.938 14.9651 11.7726 15.2214 11.5543C15.458 11.3533 15.655 11.1102 15.8025 10.8372C15.9062 10.649 15.9805 10.4459 16.0224 10.2352C16.0552 10.0622 16.0552 9.88467 16.0224 9.7117C16.008 9.63498 15.987 9.55966 15.9595 9.48663C15.9321 9.41427 15.8987 9.34427 15.8601 9.27722C15.7844 9.14621 15.6931 9.0249 15.5879 8.91604C15.7671 8.85852 15.9419 8.78857 16.1113 8.70666C16.269 8.62936 16.4197 8.53827 16.5615 8.43448C16.6496 8.3696 16.7331 8.29873 16.8113 8.22238C16.8303 8.20379 16.8491 8.1849 16.8674 8.16568C16.8899 8.14233 16.9116 8.1185 16.9331 8.09421C17.0432 7.96982 17.1382 7.83273 17.2158 7.68591ZM13.8447 9.10443C13.9546 9.19867 14.0593 9.28766 14.1484 9.37665C14.2334 9.46759 14.3057 9.56973 14.363 9.68023C14.4216 9.77832 14.4524 9.89053 14.4519 10.0048C14.4468 10.1423 14.405 10.2759 14.3315 10.3921C14.2659 10.5046 14.1743 10.5997 14.0647 10.6696C13.9512 10.7418 13.8249 10.7916 13.6929 10.8162C13.5488 10.838 13.4023 10.838 13.2585 10.8162C13.1706 10.8066 13.0837 10.7903 12.9985 10.7674C12.9358 10.7505 12.874 10.7301 12.8135 10.7062C12.6377 10.6431 12.4746 10.5492 12.332 10.4288C12.229 10.3408 12.1514 10.2269 12.1069 10.099C12.0749 9.98071 12.0749 9.85611 12.1069 9.73782C12.1365 9.6055 12.1894 9.47958 12.2639 9.36618C12.29 9.3237 12.3181 9.2825 12.3481 9.2427C12.3745 9.20773 12.4023 9.17383 12.4314 9.14108C12.4993 9.06579 12.5727 8.99579 12.6511 8.9317C12.7353 8.86233 12.8247 8.79934 12.9182 8.74325C13.0185 8.6828 13.1235 8.63028 13.2322 8.58621L13.384 8.72232L13.541 8.85318L13.6982 8.97882L13.8447 9.10443Z" />
</svg>
