<svg width="34" height="24" viewBox="0 0 34 24"  xmlns="http://www.w3.org/2000/svg">
<path fill-rule="evenodd" clip-rule="evenodd" d="M25.3555 2.08478C25.9812 2.6423 26.5625 3.24808 27.0935 3.89651C28.0198 5.08511 28.5325 6.54367 28.5535 8.05035C28.544 9.46774 28.1831 10.8607 27.5032 12.1044C26.3838 14.2838 24.6731 16.1039 22.5669 17.3557C21.7637 17.8521 20.8721 18.1891 19.9412 18.3483C19.7034 18.387 19.4629 18.4063 19.2219 18.406C18.9563 18.406 18.6912 18.3849 18.429 18.343C18.3655 18.33 18.3071 18.2991 18.2608 18.2537C15.6106 15.6911 12.9622 13.1249 10.3154 10.5552C10.2571 10.4885 10.2188 10.4066 10.2053 10.3189C10.0325 9.27451 10.1714 8.20236 10.6043 7.23639C11.9483 4.18063 14.4343 1.77188 17.5308 0.525146C18.4441 0.180786 19.4116 0.00292969 20.3877 0C21.0017 0.000183105 21.6128 0.0832214 22.2046 0.246826C23.3945 0.580597 24.4793 1.21332 25.3555 2.08478ZM21.7791 16.0692C23.6416 14.9586 25.1538 13.3462 26.1431 11.4165C26.7007 10.3983 26.9983 9.25836 27.0095 8.09763C26.9985 6.91165 26.5982 5.76212 25.8699 4.82602C25.4893 4.354 25.0713 3.91324 24.6201 3.50793L24.2893 3.19284C23.6033 2.50262 22.7517 1.99997 21.8159 1.73297C21.3557 1.60712 20.8806 1.54355 20.4033 1.54391C19.6087 1.55341 18.8223 1.70639 18.0823 1.99554C15.3953 3.09592 13.2373 5.1918 12.0589 7.84555C11.7898 8.44705 11.669 9.10443 11.707 9.7623L19.0589 16.8989H19.2481C19.4063 16.8995 19.5645 16.8872 19.7207 16.8622C20.4512 16.7316 21.1499 16.4625 21.7791 16.0692ZM10.9456 12.8396C11.3433 13.9202 11.1802 15.1277 10.5098 16.0639C10.1868 16.5561 9.8362 17.0295 9.45949 17.4818C8.27223 18.7985 7.00612 20.0419 5.66798 21.205C5.59889 21.2639 5.53126 21.3245 5.4651 21.3866C5.37599 21.4703 5.28957 21.5568 5.20582 21.6461C5.07912 21.7649 5.00514 21.9292 5.00026 22.1028C4.99538 22.2763 5.05983 22.4446 5.1797 22.5704C5.25368 22.667 5.33424 22.7582 5.42116 22.8434C5.48561 22.9065 5.55055 22.9708 5.61574 23.0354C5.81129 23.2291 6.00929 23.425 6.1985 23.5944C6.32106 23.7088 6.45485 23.8108 6.59743 23.899C6.82155 24.0479 7.11696 24.0308 7.32228 23.857C7.44435 23.7594 7.5569 23.6503 7.65822 23.5314C7.9402 23.2142 8.21925 22.8952 8.49831 22.5763C8.88478 22.1348 9.27101 21.6935 9.66432 21.2575C10.4839 20.3089 11.3816 19.4306 12.3477 18.6318C12.6592 18.3886 12.9873 18.1675 13.3298 17.9702C14.117 17.5311 15.052 17.4416 15.9082 17.7234L16.7012 17.9387L10.762 12.1622C10.804 12.388 10.8721 12.619 10.9456 12.8396ZM19.1326 11.0751C19.1297 9.81552 20.147 8.79132 21.4065 8.78552C22.0154 8.78131 22.6008 9.021 23.032 9.45114C23.4631 9.88129 23.7041 10.4661 23.7012 11.0751C23.6983 12.3347 22.6765 13.3542 21.417 13.3542C20.1572 13.3542 19.1355 12.3346 19.1326 11.0751Z" />
</svg>
