<svg width="34" height="24" viewBox="0 0 34 24"  xmlns="http://www.w3.org/2000/svg">
<path fill-rule="evenodd" clip-rule="evenodd" d="M8.88515 3.2154C13.6691 -1.21026 21.0958 -1.04797 25.6821 3.58249C27.9574 5.98847 29.1507 9.22117 28.9848 12.5299V12.5458C28.6091 19.2209 22.9105 24.3349 16.2401 23.9829C13.0567 23.7973 10.073 22.3688 7.93068 20.0045C3.67922 15.0642 4.10121 7.64109 8.88515 3.2154ZM8.29592 18.0074C8.38063 18.1239 8.45998 18.2405 8.54995 18.357L8.5923 18.4312C8.71926 18.5901 8.84633 18.749 8.98391 18.9079C9.22463 19.1568 9.52541 19.3392 9.8572 19.4377C10.716 19.712 11.6365 19.7267 12.5036 19.48C13.8817 19.0734 15.1037 18.2568 16.0072 17.1386C16.5098 16.5627 16.9859 15.9567 17.4627 15.3498L17.4652 15.3467C17.6398 15.1244 17.8145 14.9021 17.9906 14.681C18.138 14.496 18.2864 14.312 18.4365 14.1297C20.0032 12.2279 22.7448 11.4015 24.8618 12.1643C25.8202 12.5334 26.6411 13.1903 27.2117 14.0449C27.3281 13.5218 27.4042 12.9905 27.4393 12.4557V12.4239C27.6472 8.09772 25.2035 4.08042 21.2681 2.27933C21.1876 2.2866 21.1107 2.31592 21.0458 2.36408C20.1831 3.1243 19.0872 3.56721 17.939 3.61957C17.7593 3.63688 17.5784 3.65079 17.397 3.66276C17.156 3.67866 16.9141 3.69117 16.6725 3.70362C15.9815 3.73926 15.2926 3.77482 14.6365 3.88975C11.699 4.4036 9.28566 5.94513 7.1686 7.97935C7.12123 8.02582 7.07705 8.07538 7.03627 8.12769C6.65822 9.14789 6.43703 10.2195 6.38002 11.3061V11.4227C6.26296 13.7705 6.93776 16.0895 8.29592 18.0074ZM7.93605 6.31598L8.02602 6.16764C9.9861 3.18351 13.3021 1.37211 16.87 1.3364C18.1352 1.33726 19.3899 1.5651 20.5748 2.00916C19.7971 2.62348 18.861 3.00379 17.8756 3.10575C17.406 3.1742 16.9315 3.21808 16.4572 3.26194C15.8302 3.31992 15.2035 3.37784 14.5889 3.49244C12.0988 4.01273 9.79177 5.1865 7.90432 6.89341C7.71376 7.05762 7.55495 7.25361 7.37502 7.42313C7.50698 7.10657 7.65529 6.79712 7.8196 6.4961C7.85439 6.46515 7.88063 6.42008 7.90676 6.37531C7.9164 6.35877 7.92604 6.34229 7.93605 6.32657V6.31598ZM10.3019 20.0787C10.4236 20.1899 10.5507 20.3012 10.683 20.4018V20.4124C10.9158 20.5925 11.1487 20.7567 11.3922 20.8998C12.89 21.8087 14.5869 22.3379 16.3355 22.4413C21.2621 22.6702 25.7011 19.4832 27.0636 14.7389C26.9861 14.4837 26.8351 14.2571 26.6297 14.0873C24.7243 12.2756 22.5226 11.9948 20.2785 13.4039C19.6243 13.838 19.0285 14.3543 18.5055 14.9402C18.1022 15.3717 17.731 15.8309 17.3598 16.2903C17.0246 16.7052 16.6893 17.1201 16.3302 17.5147C15.0917 18.8762 13.6839 19.9992 11.7256 20.084C11.2493 20.1052 10.773 20.0363 10.3019 20.0098V20.0787Z" />
</svg>
