<svg width="34" height="24" viewBox="0 0 34 24"  xmlns="http://www.w3.org/2000/svg">
<path fill-rule="evenodd" clip-rule="evenodd" d="M24.4533 9.23292C25.1969 9.16142 25.875 9.15262 26.5234 9.20578C26.6071 9.21266 26.6912 9.22107 26.7753 9.22872C26.8801 9.23904 26.9848 9.24707 27.0895 9.2551C27.2826 9.95182 27.4038 10.6612 27.4439 11.3686C27.5605 13.4212 27.0907 15.4024 26.1044 17.1354C26.4045 14.355 25.8521 11.7009 24.4533 9.23292ZM12.1931 9.63587C13.3086 10.6366 14.6072 11.4954 16.1631 12.2602C16.233 12.2946 16.3061 12.3707 16.3378 12.4419C16.7105 13.2724 16.977 14.1641 17.1731 15.2364C17.1027 15.2222 17.0339 15.2084 16.9659 15.1951C16.7205 15.1465 16.4884 15.1002 16.2606 15.0421C14.4738 14.5874 12.7741 13.7385 11.0646 12.4464C9.65011 11.3784 8.36678 10.0833 7.14347 8.49215C7.56436 7.29259 8.19246 6.19819 8.98608 5.25024C9.02202 5.33858 9.05719 5.42806 9.0958 5.51295C9.77741 7.02874 10.7905 8.37705 12.1931 9.63587ZM15.0239 1.72229C13.0031 2.71612 11.3065 4.14244 9.97582 5.98709C9.96855 5.97561 9.96282 5.96567 9.95823 5.95535C9.80876 5.62229 9.6612 5.28808 9.51363 4.95387L9.42686 4.75655C10.8944 3.21476 12.8307 2.13183 15.0239 1.72229ZM26.9022 8.64358C26.6763 8.62522 26.4439 8.60649 26.2137 8.59807C23.9743 8.51739 21.7425 8.96325 19.5723 9.92573C18.4901 10.4052 17.4636 11.0022 16.5205 11.6981C16.4949 11.7176 16.4265 11.7268 16.4058 11.7184C14.8744 10.9865 13.5123 10.073 12.3571 9.00341C12.3425 8.98964 12.3288 8.97511 12.3135 8.95828C12.4022 8.89022 12.4897 8.82139 12.5773 8.75294C12.838 8.54874 13.0846 8.35602 13.3434 8.16941C15.457 6.64674 17.5393 5.61352 19.7088 5.01011C20.9856 4.65487 22.2452 4.48929 23.4468 4.52027C23.7598 4.52753 24.0783 4.55659 24.3887 4.58527C25.5363 5.74774 26.3903 7.15379 26.9022 8.64358ZM17.0714 1.54114C19.7294 1.55873 21.9761 2.49367 23.6926 3.9414C21.848 3.87257 20.0054 4.1976 18.0608 4.93523C15.9058 5.75278 13.843 6.96266 11.9293 8.52931C11.9167 8.54002 11.9037 8.54958 11.888 8.56105C11.8127 8.47425 11.737 8.38783 11.6617 8.30103C11.4365 8.0433 11.2037 7.77639 10.9866 7.50642C10.8566 7.34505 10.735 7.16915 10.6177 6.99861C10.5347 6.87892 10.4521 6.75885 10.3654 6.64184C10.3118 6.56995 10.3065 6.54012 10.3654 6.4537C11.4484 4.87367 12.8747 3.57316 14.6049 2.58927C15.4559 2.10516 16.2659 1.7656 17.0714 1.54114ZM6.53793 12.0094C6.54366 11.0232 6.68205 10.0733 6.9313 9.17358C7.08651 9.36363 7.23866 9.55024 7.39425 9.73379C9.36072 12.0457 11.4652 13.7003 13.8281 14.7909C15.0013 15.3327 16.0801 15.6658 17.1253 15.8088C17.2511 15.826 17.2721 15.8524 17.2889 16.0069C17.4258 17.2738 17.3822 18.5154 17.1609 19.697C17.1524 19.7405 17.141 19.7841 17.1257 19.8434L17.1192 19.8683C16.9368 19.8346 16.7556 19.8029 16.5752 19.7711C16.1096 19.6897 15.6699 19.6128 15.2307 19.5012C12.601 18.8328 10.3103 17.5032 8.42221 15.5492C7.77462 14.8788 7.17291 14.1041 6.62547 13.2529C6.57348 12.8445 6.54175 12.43 6.53793 12.0094ZM6.92595 14.7454C9.51478 17.959 12.8953 19.8717 16.9938 20.4296C16.9781 20.485 16.9628 20.5401 16.9472 20.5955C16.8875 20.8082 16.826 21.0276 16.7495 21.236C16.657 21.4869 16.5519 21.7389 16.4502 21.9832C16.3883 22.1316 16.3267 22.2811 16.2671 22.4306C11.8077 22.1064 8.09765 18.9524 6.92595 14.7454ZM17.0542 22.4613H17.0251C16.9816 22.4613 16.9387 22.4586 16.8955 22.4582C16.9575 22.3114 17.0194 22.1653 17.0783 22.0192C17.8012 20.2247 18.0787 18.3024 17.9025 16.3044C17.7767 14.8762 17.4346 13.5065 16.8856 12.2339C16.8596 12.1731 16.8611 12.1719 16.8994 12.1433C17.7805 11.4901 18.7653 10.9208 19.8181 10.4535C19.8235 10.4523 19.83 10.452 19.8399 10.4508C19.9378 10.7139 20.0372 10.9766 20.1366 11.2385C20.3778 11.8729 20.627 12.5295 20.8407 13.183C21.2807 14.5252 21.5166 15.9163 21.5422 17.3178C21.5724 18.9582 21.2937 20.4182 20.6962 21.7787C19.5379 22.2212 18.3039 22.4579 17.0542 22.4613ZM24.6081 19.1608C23.7029 20.1218 22.6306 20.8923 21.4623 21.4483C21.5357 21.2365 21.6076 21.0307 21.6684 20.825C22.0896 19.4002 22.2219 17.9276 22.0728 16.3235C21.8989 14.4521 21.3664 12.5409 20.4443 10.4806C20.4118 10.4079 20.3816 10.3345 20.3483 10.2531L20.3388 10.2301C20.4053 10.2049 20.4711 10.1789 20.5357 10.1529C20.7497 10.068 20.9516 9.98769 21.1607 9.93262C21.686 9.79496 22.2234 9.66571 22.7437 9.54067C23.0446 9.46802 23.3451 9.39613 23.6455 9.32156C23.766 9.29135 23.8191 9.31774 23.8952 9.44355C24.5902 10.5957 25.0848 11.8836 25.3647 13.2705C25.7019 14.9427 25.6793 16.647 25.3062 18.341C25.0891 18.624 24.8562 18.897 24.6081 19.1608ZM28.9799 11.2809C28.6615 5.68008 24.0462 -0.0790972 16.8646 0.000822324C13.6782 0.0325607 10.6968 1.29559 8.46923 3.55667C6.24892 5.81086 5.0172 8.81147 5 12.0063V12.0167C5.02791 15.2635 6.30321 18.2921 8.59195 20.5463C10.8543 22.7744 13.8476 24 17.0244 24H17.0584C20.3113 23.9912 23.4708 22.6115 25.7275 20.2159C28.0143 17.7885 29.1692 14.6154 28.9799 11.2809Z" />
</svg>
