<svg width="10" height="11" viewBox="0 0 10 11"  xmlns="http://www.w3.org/2000/svg">
<path d="M10.001 4.76625V5.23797C9.99603 5.2496 9.99412 5.2623 9.99544 5.27488C9.99329 5.31362 9.99206 5.35237 9.98991 5.39111C9.98376 5.49198 9.97207 5.59223 9.95916 5.69217C9.93865 5.83732 9.91221 5.98082 9.87982 6.12269C9.66291 7.06631 9.17611 7.92643 8.47879 8.59816C7.88653 9.17113 7.16155 9.58845 6.36864 9.81284C6.20438 9.85929 6.03778 9.89707 5.86955 9.926C5.77391 9.9423 5.67797 9.95675 5.58171 9.96721C5.49684 9.97674 5.41197 9.98504 5.32648 9.98966C5.27697 9.99242 5.22746 9.99427 5.17826 9.99673C5.16875 9.99775 5.15931 9.99929 5.14997 10.0013H4.86459C4.85445 9.99917 4.84418 9.99763 4.83384 9.99673C4.73667 9.99427 4.64011 9.9872 4.54324 9.97859C4.45325 9.97059 4.36366 9.96034 4.27448 9.94784C4.14389 9.92857 4.01432 9.90417 3.88578 9.87465C3.50366 9.78775 3.13327 9.65561 2.78243 9.48103C1.7616 8.97233 0.944476 8.13113 0.465628 7.09596C0.313699 6.76635 0.198608 6.42097 0.122444 6.0661C0.0981505 5.95417 0.0775472 5.84162 0.0609415 5.72784C0.0504861 5.65588 0.0424908 5.58362 0.0351105 5.51258C0.0283452 5.44493 0.0231175 5.37728 0.0185048 5.30962C0.0151221 5.25642 0.0138921 5.20292 0.011432 5.14972C0.011432 5.1285 0.00835686 5.10728 0.00620428 5.08606C0.00620428 5.08268 0.00282164 5.0796 0.000976562 5.07622V4.9363C0.00311572 4.93164 0.00446659 4.92665 0.00497423 4.92154C0.00712681 4.89756 0.00958691 4.87326 0.0102019 4.84897C0.0132771 4.72873 0.0218874 4.6088 0.0338804 4.48887C0.0435158 4.39231 0.0560213 4.29617 0.0713969 4.20043C0.0939479 4.06164 0.122239 3.92397 0.15627 3.78744C0.349803 3.01918 0.722687 2.30774 1.24434 1.71147C1.766 1.11519 2.42157 0.651057 3.15729 0.357135C3.4312 0.247657 3.71444 0.163157 4.00356 0.104667C4.10258 0.0846787 4.2016 0.0665354 4.30185 0.0536199C4.36919 0.044702 4.43654 0.0363992 4.50419 0.0296339C4.57184 0.0228687 4.6355 0.0179485 4.70131 0.0136433C4.76035 0.00995312 4.8197 0.00810805 4.87874 0.00534044C4.88731 0.00444974 4.89583 0.00311539 4.90426 0.00134277H5.10814C5.12137 0.00288034 5.1349 0.00534044 5.14812 0.00595546C5.28978 0.0100556 5.43103 0.020306 5.57187 0.0367067C5.66259 0.0468546 5.75269 0.0591551 5.84279 0.0745308C6.00065 0.101182 6.15686 0.135418 6.31144 0.17724C7.11401 0.394878 7.84976 0.808933 8.45228 1.38204C9.05481 1.95514 9.50515 2.66926 9.76265 3.45994C9.82556 3.65369 9.8763 3.85119 9.91457 4.05128C9.93271 4.14569 9.9487 4.2401 9.96069 4.33542C9.96807 4.39324 9.97576 4.45074 9.9813 4.50886C9.98775 4.57836 9.99544 4.64786 9.99513 4.71797C9.99513 4.72966 9.99513 4.74134 9.99667 4.75272C9.99758 4.75738 9.99902 4.76192 10.001 4.76625ZM6.50979 4.81853C6.50979 4.81853 5.26436 4.81853 4.43223 4.81853H4.40609L4.40302 4.81699C4.40302 4.81484 4.39994 4.81238 4.39994 4.80961C4.39994 4.37663 4.39994 3.94365 4.39994 3.51068C4.40043 3.50699 4.40136 3.50338 4.40271 3.49991C4.41686 3.49572 4.43172 3.49446 4.44638 3.49622H7.14326C7.15495 3.49622 7.16663 3.49622 7.17832 3.49622C7.18545 3.4955 7.19254 3.49437 7.19954 3.49284V3.45409C7.19954 3.11624 7.19954 2.77798 7.19954 2.4393C7.19954 2.43069 7.19954 2.42177 7.19954 2.41316C7.19871 2.40704 7.19748 2.40098 7.19585 2.39502H3.22186C3.21325 2.39502 3.20433 2.39502 3.19572 2.39502C3.18972 2.3958 3.18376 2.39692 3.17789 2.3984C3.17789 2.41409 3.17789 2.42915 3.17789 2.44299C3.17789 3.21956 3.17789 3.99624 3.17789 4.77301C3.17789 4.78378 3.17789 4.79423 3.17789 4.80377C3.1774 4.80884 3.17657 4.81387 3.17543 4.81883C3.16871 4.82002 3.16194 4.82084 3.15513 4.82129H2.73169C2.71944 4.81937 2.7069 4.82119 2.69571 4.82652C2.69571 4.83605 2.69571 4.84651 2.69571 4.85727C2.69571 5.20005 2.69571 5.54272 2.69571 5.88529C2.69538 5.89113 2.69538 5.89698 2.69571 5.90282C2.69672 5.90873 2.69805 5.91458 2.69971 5.92034H3.14345C3.15463 5.91883 3.16601 5.91999 3.17666 5.92373C3.17666 5.93726 3.17666 5.95048 3.17666 5.96401C3.17666 6.65612 3.17666 7.34833 3.17666 8.04064C3.17666 8.05141 3.17666 8.06217 3.17666 8.07139C3.17739 8.07741 3.17852 8.08337 3.18004 8.08923C3.19265 8.08923 3.20433 8.08923 3.21571 8.08923H4.36027C4.36704 8.08923 4.3738 8.08923 4.38057 8.08923C4.38649 8.08827 4.39235 8.08693 4.3981 8.08523C4.3981 8.07047 4.3981 8.05694 4.3981 8.04372C4.3981 7.35161 4.3981 6.6594 4.3981 5.96709C4.3981 5.95632 4.3981 5.94587 4.3981 5.93633C4.39862 5.93117 4.39944 5.92603 4.40056 5.92096C4.41009 5.92096 4.4187 5.92096 4.427 5.92096C4.55985 5.92096 4.693 5.92096 4.82677 5.92096C5.52083 5.92096 6.48734 5.92096 6.49964 5.92096C6.50425 5.92096 6.51686 5.91266 6.51686 5.90989C6.51686 5.55256 6.51686 5.19533 6.51686 4.83821C6.51621 4.83115 6.51377 4.82438 6.50979 4.81853Z" fill="#F8EA3E"/>
</svg>
