<svg width="18" height="12" viewBox="0 0 18 12"  xmlns="http://www.w3.org/2000/svg">
<path fill-rule="evenodd" clip-rule="evenodd" d="M3.52333 2.54727C4.98653 1.52357 6.90931 0.75 8.99585 0.75C11.0845 0.75 13.0092 1.52363 14.4739 2.54806C15.9292 3.56591 16.971 4.86104 17.2424 5.94138L17.2578 6.0024L17.2424 6.06341C16.9707 7.14105 15.9286 8.43497 14.4734 9.45226C13.0087 10.4762 11.0842 11.25 8.99621 11.25C6.91016 11.25 4.98735 10.476 3.52396 9.45133C2.06997 8.43323 1.02893 7.13793 0.757511 6.05787L0.742188 5.99689L0.757534 5.93592C1.02882 4.85812 2.06956 3.56437 3.52333 2.54727ZM1.25868 5.99699C1.5137 6.90396 2.43548 8.07878 3.81075 9.04176C5.20767 10.0199 7.03232 10.75 8.99621 10.75C10.9621 10.75 12.7886 10.0199 14.1869 9.04246C15.5635 8.08015 16.486 6.90667 16.7413 6.00219C16.4862 5.09515 15.5639 3.92054 14.1874 2.95779C12.7892 1.97989 10.9625 1.25 8.99585 1.25C7.03138 1.25 5.2067 1.97976 3.80995 2.95696C2.43487 3.919 1.51353 5.0923 1.25868 5.99699Z" />
<path fill-rule="evenodd" clip-rule="evenodd" d="M6.1416 6.10788C6.1416 4.45128 7.40816 3.07471 8.99964 3.07471C10.5911 3.07471 11.858 4.45123 11.858 6.10788C11.858 7.76492 10.5907 9.14145 8.99964 9.14145C7.40854 9.14145 6.1416 7.76528 6.1416 6.10788ZM8.99964 3.57471C7.7145 3.57471 6.6416 4.69622 6.6416 6.10788C6.6416 7.52029 7.71484 8.64145 8.99964 8.64145C10.2845 8.64145 11.358 7.51989 11.358 6.10788C11.358 4.69627 10.2848 3.57471 8.99964 3.57471Z" />
<path fill-rule="evenodd" clip-rule="evenodd" d="M1.99968 11L15.9997 2.92957e-05L16.3086 0.393188L2.30859 11.3932L1.99968 11Z" />
</svg>
