<svg width="26" height="20" viewBox="0 0 26 20"  xmlns="http://www.w3.org/2000/svg">
<path d="M25.2532 8.67612L22.6532 11.3506C23.2894 6.79829 20.7447 2.21751 16.3468 0.595748C12.3085 -0.91221 7.68939 0.510391 5.17236 4.09535L6.05747 4.7782C8.2979 1.59157 12.3915 0.311228 15.9596 1.64847C20.0256 3.18488 22.3213 7.5665 21.4362 11.8058L19.4447 8.50541C19.2788 8.24934 18.9468 8.16399 18.6702 8.30625C18.4213 8.47696 18.3383 8.81838 18.4766 9.10291L21.1319 13.513C21.2149 13.6552 21.3809 13.769 21.5468 13.769C21.5745 13.769 21.6022 13.769 21.6022 13.769C21.7405 13.769 21.8788 13.7121 21.9894 13.5983L26 9.47278L25.2532 8.67612Z" />
<path d="M10.0681 18.3213C7.91064 17.5246 6.16809 15.8744 5.2 13.7405C4.39787 11.9765 4.1766 10.0417 4.59149 8.1639L6.58298 11.4928C6.74894 11.7489 7.08085 11.8342 7.35745 11.692C7.60639 11.5212 7.68937 11.1798 7.55107 10.8953L4.89575 6.48523C4.81277 6.34297 4.64681 6.22916 4.48085 6.22916C4.3149 6.20071 4.14894 6.25761 4.0383 6.39987L0 10.497L0.774468 11.2936L3.37447 8.61913C3.12553 10.5254 3.40213 12.4602 4.20426 14.2242C5.31064 16.6426 7.24681 18.492 9.68085 19.4025C10.7596 19.8008 11.866 19.9999 12.9723 19.9999C16.0149 19.9999 19.0021 18.5204 20.8553 15.9029L19.9702 15.22C17.7298 18.3782 13.6638 19.6585 10.0681 18.3213Z" />
</svg>
