<svg width="18" height="12" viewBox="0 0 18 12"  xmlns="http://www.w3.org/2000/svg">
<path fill-rule="evenodd" clip-rule="evenodd" d="M3.52333 2.54727C4.98653 1.52357 6.90931 0.75 8.99585 0.75C11.0845 0.75 13.0092 1.52363 14.4739 2.54806C15.9292 3.56591 16.971 4.86104 17.2424 5.94138L17.2578 6.0024L17.2424 6.06341C16.9707 7.14105 15.9286 8.43497 14.4734 9.45226C13.0087 10.4762 11.0842 11.25 8.99621 11.25C6.91016 11.25 4.98735 10.476 3.52396 9.45133C2.06997 8.43323 1.02893 7.13793 0.757511 6.05787L0.742188 5.99689L0.757534 5.93592C1.02882 4.85812 2.06956 3.56437 3.52333 2.54727ZM1.25868 5.99699C1.5137 6.90396 2.43548 8.07878 3.81075 9.04176C5.20767 10.0199 7.03232 10.75 8.99621 10.75C10.9621 10.75 12.7886 10.0199 14.1869 9.04246C15.5635 8.08015 16.486 6.90667 16.7413 6.00219C16.4862 5.09515 15.5639 3.92054 14.1874 2.95779C12.7892 1.97989 10.9625 1.25 8.99585 1.25C7.03138 1.25 5.2067 1.97976 3.80995 2.95696C2.43487 3.919 1.51353 5.0923 1.25868 5.99699Z" />
<path fill-rule="evenodd" clip-rule="evenodd" d="M6.14178 6.10792C6.14178 4.45131 7.40834 3.07474 8.99982 3.07474C10.5913 3.07474 11.8582 4.45126 11.8582 6.10792C11.8582 7.76495 10.5909 9.14148 8.99982 9.14148C7.40872 9.14148 6.14178 7.76531 6.14178 6.10792ZM8.99982 3.57474C7.71468 3.57474 6.64178 4.69625 6.64178 6.10792C6.64178 7.52032 7.71502 8.64148 8.99982 8.64148C10.2846 8.64148 11.3582 7.51992 11.3582 6.10792C11.3582 4.6963 10.285 3.57474 8.99982 3.57474Z" />
</svg>
