<svg width="43" height="30" viewBox="0 0 43 30"  xmlns="http://www.w3.org/2000/svg">
<path fill-rule="evenodd" clip-rule="evenodd" d="M18.9492 4.59131C19.0703 4.7749 19.1875 4.96191 19.2969 5.15137C19.2344 5.15137 19.1758 5.15137 19.1758 5.27295H18.3281C18.2461 5.27295 18.1484 5.28613 18.043 5.2998C17.9258 5.31592 17.793 5.3335 17.6641 5.3335H17.543C17.4492 5.16797 17.3359 5.01123 17.2109 4.86035C17.7773 4.73389 18.3633 4.64111 18.9492 4.59131ZM12.9961 28.0312C15 29.3252 17.3359 30 19.7812 30H19.8438C23.2305 30 26.5547 28.5454 28.9141 26.0605C31.457 23.2119 32.6641 19.8789 32.4844 16.3638C32.1797 10.4849 27.3438 4.48486 19.8438 4.54541C19.543 4.55078 19.2461 4.56592 18.9492 4.59131C17.1953 1.95947 14.2422 0 10.3438 0H10.2227C7.5 0 4.89844 1.09082 2.96484 3.09082C1.02734 5.03027 0 7.63623 0 10.3638C0 12.6177 0.734375 14.7666 2.05078 16.5674C0.613281 18.4336 0.0117188 20.9316 0.601562 23.394C1.63281 27.6973 5.98828 30.3032 10.2812 29.2729C11.2891 29.0312 12.1992 28.5952 12.9961 28.0312ZM15.9844 23.9619C15.4531 25.5972 14.4062 27.0303 12.9961 28.0312L12.7656 27.8789C13.1875 27.5151 13.5508 27.1514 13.8555 26.7876C14.457 26.0605 14.9414 25.2725 15.2461 24.4243C15.4961 24.2803 15.7422 24.1255 15.9844 23.9619ZM15.0469 17.0366C15.5469 17.7939 15.9258 18.6431 16.1484 19.5757C16.5078 21.0801 16.4297 22.5879 15.9844 23.9619C16.5547 23.5742 17.0938 23.1353 17.6055 22.6665C17.625 22.647 17.6367 22.627 17.6484 22.6074C17.6758 22.5664 17.7031 22.5259 17.7852 22.4849C17.7461 22.7236 17.707 22.936 17.6641 23.1396L17.6406 23.271L17.6055 23.4546C17.5664 23.6875 17.5391 23.9253 17.5117 24.1655L17.4922 24.3218L17.4766 24.4766L17.4531 24.667C17.4062 25.0762 17.3594 25.4849 17.3008 25.8789C17.2422 26 17.3008 26.0605 17.4219 26.1211C18.0859 26.4243 18.8125 26.7876 19.4805 27.1514C19.5117 27.1816 19.5547 27.1968 19.6016 27.2124C19.6445 27.2275 19.6914 27.2422 19.7227 27.2725V27.3335C19.3203 27.3643 18.9062 27.3794 18.4844 27.3945C18.0742 27.4097 17.6562 27.4248 17.2422 27.4546C17.2422 27.6362 17.2422 27.8789 17.3008 28.1211C18.0859 28.2422 18.875 28.3638 19.7227 28.3638H19.7812C20.2148 28.3638 20.5938 28.3154 21.0156 28.2617L21.1719 28.2422C20.9688 28.0957 20.7773 27.9492 20.5859 27.8022C20.3828 27.646 20.1797 27.4897 19.9609 27.3335C20.0234 27.3335 20.0234 27.2725 20.0234 27.2725C20.2422 27.2725 20.4453 27.2891 20.6406 27.3047C20.8203 27.3193 20.9961 27.3335 21.1719 27.3335H22.9883C23.0469 27.3335 23.168 27.2725 23.2305 27.2119C23.8828 26.6157 24.418 25.9028 24.957 25.187L24.9844 25.1514C25.043 25.0908 25.1055 25.0303 25.1641 24.9092C25.2852 25.5757 25.2852 26.1816 25.1641 26.8486C26.1328 26.3027 26.9805 25.5757 27.7656 24.7876L27.8203 24.7212L27.8906 24.6377L27.9336 24.5859L28.0117 24.4902C28.2305 24.2222 28.457 23.9453 28.6719 23.6362L28.4297 23.394C27.4023 24.0605 26.375 24.5454 25.2266 24.7876C25.7109 23.9395 26.2539 23.1514 26.7969 22.3638C25.8906 21.6362 25.1055 20.8486 24.3789 19.9395C24.6289 19.9395 24.8633 19.9556 25.0898 19.9712C25.3008 19.9858 25.5039 20 25.7109 20C26.4961 20 27.2227 20 27.9492 19.9395C28.0391 19.9395 28.0977 19.8672 28.1445 19.8062L28.1875 19.7573L28.9141 18.0605L29.6406 16.3638C29.6406 16.333 29.6562 16.3027 29.6719 16.2725C29.6875 16.2422 29.7031 16.2119 29.7031 16.1816H29.7617L30.125 19.394C30.3047 19.3335 30.4258 19.2725 30.5469 19.2119C30.7305 18.3027 30.7891 17.4546 30.7305 16.5454C30.6094 15.2725 30.3047 13.9395 29.7617 12.7271C29.7031 12.6968 29.6406 12.6816 29.5781 12.6665C29.5195 12.6514 29.4609 12.6362 29.3984 12.606C29.6406 13.7573 29.7617 14.8486 29.7031 15.9395C29.7031 15.9092 29.6875 15.8789 29.6719 15.8486C29.6562 15.8179 29.6406 15.7876 29.6406 15.7573C29.0977 14.6665 28.4297 13.6362 27.7656 12.6665C27.6445 12.5454 27.5859 12.4849 27.4023 12.4849C26.375 12.5454 25.4062 12.7271 24.4375 12.9092C24.4141 12.9092 24.3906 12.9194 24.3594 12.9312C24.3164 12.9487 24.2656 12.9697 24.1953 12.9697L24.2266 12.9106C24.2773 12.8271 24.3281 12.7769 24.3789 12.7271C24.6445 12.3994 24.8984 12.0571 25.1523 11.7144C25.4141 11.3604 25.6758 11.0059 25.9531 10.6665C26.0703 10.5454 26.0703 10.4849 25.9531 10.3638C25.1641 9.45459 24.2578 8.60596 23.2305 7.93945C23.168 7.93945 23.1094 7.87891 23.0469 7.81787C24.3789 8 25.5898 8.36377 26.7969 8.96973C26.7969 8.93945 26.8125 8.89404 26.8281 8.84863C26.8438 8.80273 26.8594 8.75732 26.8594 8.72705C25.2852 7.39404 23.2891 6.48486 20.9297 6.24219C20.7656 6.32568 20.6289 6.43701 20.4805 6.55762L20.2656 6.72705C21.2344 7.03027 22.0781 7.3335 22.9258 7.75732V7.81787H21.4766L19.3594 8C19.1758 8 19.0547 8.06055 18.9336 8.24219C18.4492 9.03027 18.1484 9.87891 17.9062 10.7876C17.8477 10.7876 17.8477 10.8486 17.8477 10.9092L17.7852 10.9697C17.1211 10.3027 16.5156 9.51514 16.0312 8.60596L13.1289 9.69678C13.793 8.84863 14.5781 8.12109 15.4883 7.51514C15.457 7.45654 15.4141 7.39795 15.3711 7.33936C15.3242 7.27637 15.2773 7.21387 15.2461 7.15137C13.8555 7.81787 12.6445 8.7876 11.6172 9.93945C12.0977 9.87891 12.5234 9.81787 12.9453 9.75732V9.81787L12.543 10.1445L11.9766 10.606C11.8281 10.7578 11.6602 10.9092 11.4922 11.0605C11.3281 11.2119 11.1641 11.3633 11.0117 11.5151C10.9844 11.5439 10.957 11.5991 10.9258 11.6621L10.9062 11.7036L10.8906 11.7383C10.8711 11.7871 10.8516 11.8369 10.8281 11.8789C10.6875 12.4883 10.5859 13.0977 10.5469 13.7349C10.3672 13.6846 10.1875 13.6475 10.0039 13.6099L9.74219 13.1514L9.60156 13.5308C9.06641 13.4502 8.52344 13.4326 7.97266 13.4678C8.01562 13.3101 8.06641 13.1533 8.11719 13.0005C8.21875 13.0371 8.31641 13.0684 8.40625 13.0908C8.4375 13.0596 8.45312 13.0283 8.46875 12.9971C8.48438 12.9678 8.5 12.9385 8.52734 12.9092C8.52734 12.9092 8.52734 12.8486 8.58984 12.8486C8.61719 12.8193 8.63281 12.79 8.64844 12.7607C8.66406 12.729 8.67969 12.6978 8.71094 12.6665L8.30859 12.5098C8.58203 11.7988 8.91797 11.1221 9.3125 10.4775L9.67969 10.6665C9.73828 10.6665 9.80078 10.7271 9.80078 10.7881C9.82812 10.8174 9.84375 10.8618 9.85938 10.9058C9.875 10.9521 9.89062 10.999 9.92188 11.0303C9.92188 11 9.9375 10.9849 9.95312 10.9697C9.96484 10.9546 9.98047 10.9395 9.98047 10.9092C10.0664 10.7627 10.1406 10.6157 10.2148 10.4692C10.293 10.313 10.3711 10.1567 10.4648 10C10.4922 9.93945 10.5234 9.89453 10.5547 9.84912C10.5859 9.80322 10.6133 9.75781 10.6445 9.69678C10.5234 9.78662 10.4062 9.86133 10.2891 9.93604C10.1641 10.0127 10.043 10.0894 9.92188 10.1816H9.85938L9.58203 10.0513C10.0156 9.40771 10.5078 8.80469 11.0703 8.24219C12.793 6.51611 14.9023 5.37549 17.2109 4.86035C17.0156 4.625 16.7969 4.40332 16.5742 4.18164C16.332 4.12109 16.1484 4.12109 15.9102 4.12109C14.8789 4.12109 13.793 4.24219 12.7031 4.54541C10.8281 5.03027 9.07422 5.93945 7.25781 7.21191C7.09375 7.29541 6.95703 7.40674 6.80859 7.52734L6.59375 7.69678L6.41016 7.87891C7.3125 8.72412 8.36719 9.46436 9.58203 10.0513C9.48828 10.1904 9.39844 10.335 9.3125 10.4775C8.14453 9.86279 7.16797 9.19336 6.28906 8.42432C5.08203 7.3335 4.23438 6.18164 3.62891 4.90918C3.59375 4.87451 3.58203 4.85986 3.57422 4.84229L3.57031 4.78809C2.90234 5.57568 2.41797 6.48486 2.05469 7.51514C3.08594 8.84863 4.17188 9.87891 5.32422 10.7881C6.28125 11.5366 7.29297 12.0967 8.30859 12.5098L8.23047 12.7095L8.11719 13.0005C7.94922 12.9395 7.77344 12.8638 7.62109 12.7881C5.56641 11.8789 3.8125 10.4849 2.11719 8.48486C2.05469 8.42432 2.01172 8.36377 1.96875 8.30273C1.92188 8.24219 1.875 8.18164 1.81641 8.12109C1.63281 8.84863 1.51172 9.63623 1.51172 10.4243C1.51172 10.8242 1.56641 11.2236 1.62109 11.623L1.63281 11.6968C2.05469 12.3638 2.53906 12.9092 3.02344 13.4546C3.44141 13.8721 3.85547 14.2544 4.30078 14.6011C4.13672 14.6978 3.98438 14.7964 3.82812 14.9038C3.14844 14.3643 2.54297 13.7397 1.9375 13.0303C2.19531 13.9155 2.58984 14.7114 3.11719 15.4565C2.72656 15.7988 2.36328 16.1597 2.05078 16.5674L2.35938 16.9697L2.48047 16.8486C2.54297 16.7573 2.60156 16.6812 2.66406 16.605L2.69531 16.563C2.74609 16.501 2.79688 16.4375 2.84375 16.3638C2.92578 16.2427 3.03125 16.1489 3.14844 16.0459L3.32812 15.8789L3.38672 15.8184L3.11719 15.4565C3.34375 15.2588 3.57812 15.0762 3.82812 14.9038C3.96094 15.0098 4.09375 15.1123 4.23438 15.2119C4.26562 15.1816 4.29297 15.1665 4.32422 15.1514C4.35547 15.1362 4.38281 15.1211 4.41406 15.0908C4.44531 15.0908 4.46094 15.0752 4.47656 15.0596C4.49219 15.0449 4.50781 15.0303 4.53516 15.0303C4.56641 15 4.59766 14.9849 4.625 14.9697C4.65625 14.9546 4.6875 14.9395 4.71875 14.9092C4.57812 14.8096 4.4375 14.707 4.30078 14.6011C4.97656 14.2021 5.72266 13.8887 6.53125 13.6973C7.01172 13.5737 7.49609 13.498 7.97266 13.4678C7.91016 13.6841 7.85547 13.9033 7.80469 14.1211H7.92578H8.58984H8.71094C8.83203 14.1211 8.9375 14.1362 9.04688 14.1514C9.15234 14.1665 9.25781 14.1816 9.37891 14.1816L9.60156 13.5308L9.89062 13.5859L10.0039 13.6099L10.4648 14.4243H10.5273V14.3027C10.5273 14.1104 10.5352 13.9214 10.5469 13.7349C12.082 14.1665 13.4727 15.0596 14.5078 16.2954L14.2734 16.4185L13.9141 16.606L14 16.6543C14.0703 16.6948 14.125 16.7271 14.2148 16.7271C14.4961 16.8267 14.7734 16.9307 15.0469 17.0366ZM15.0469 17.0366C14.8789 16.7842 14.6992 16.5254 14.5078 16.2954C14.6367 16.23 14.7578 16.1704 14.8828 16.1211C15.3984 15.8628 15.9492 15.6348 16.4766 15.416L16.5078 15.4038L16.5664 15.3794L16.625 15.3555L17.1211 15.1514C17.2422 15.0908 17.3008 15.0303 17.3008 14.8486C17.3633 13.6362 17.543 12.4243 17.8477 11.2119C17.8477 11.1816 17.8633 11.1665 17.875 11.1514C17.8906 11.1362 17.9062 11.1211 17.9062 11.0908C17.9336 11.1201 17.9492 11.1494 17.9648 11.1787C17.9805 11.21 17.9961 11.2412 18.0273 11.2725C18.6328 12.1816 19.2383 13.0908 19.7812 14C19.8438 14.1816 19.9648 14.1816 20.082 14.1211L22.0469 13.5757L24.0156 13.0303L21.6562 16.4243L24.5586 19.6968C24.3164 19.6362 24.0898 19.5908 23.8633 19.5454C23.6367 19.5 23.4102 19.4546 23.168 19.394C22.2617 19.2119 21.293 18.9697 20.3867 18.7271C20.2031 18.6665 20.1445 18.7271 20.082 18.8486C19.4805 19.8789 18.875 20.8486 18.2695 21.8179C18.2383 21.8491 18.2227 21.8809 18.207 21.9121C18.1914 21.9414 18.1758 21.9707 18.1484 22H18.0859C18.0469 21.8223 18 21.6445 17.9531 21.4663C17.8594 21.0991 17.7656 20.7314 17.7266 20.3638C17.6055 19.6362 17.4844 18.8486 17.4219 18.0605C17.4219 17.9614 17.3828 17.9434 17.3008 17.9067L17.2422 17.8789C16.7266 17.6973 16.2266 17.5 15.7266 17.3027L15.0469 17.0366ZM4.35547 5.15186C5.38281 3.69727 6.65234 2.60645 8.16406 1.75781C6.53125 2.18213 5.08203 3.03076 3.99219 4.24268V4.30322L4.17188 4.72754C4.23438 4.86377 4.29688 5 4.35547 5.15186ZM4.71875 5.57568C5.62891 4.24219 6.83594 3.15137 8.34766 2.30322C8.95312 1.93945 9.5 1.69678 10.1016 1.51514H10.2852H10.4062C12.582 1.51514 14.457 2.24219 15.9102 3.45459C14.3984 3.45459 12.8867 3.69678 11.3125 4.30322C9.5 5.03027 7.74609 6.06055 6.10938 7.39404L5.92969 7.21191C5.83984 7.09131 5.75 6.98584 5.66016 6.87988C5.56641 6.77344 5.47656 6.66699 5.38672 6.54541C5.26562 6.42432 5.14453 6.24219 5.08203 6.12109C5.02344 6 4.96094 5.93945 4.83984 5.81836C4.66016 5.69678 4.66016 5.63623 4.71875 5.57568ZM1.63281 22.9092C1.8125 23.7573 2.05469 24.3638 2.41797 24.9092C2.78125 25.6362 3.32422 26.1816 4.05078 26.5454C4.17188 26.606 4.35547 26.6665 4.53516 26.6665C4.71484 26.6665 4.83594 26.606 4.89844 26.4243V26.0605C4.83594 25.5757 5.07812 25.2725 5.50391 25.1514C5.86719 25.0908 6.23047 25.0908 6.59375 25.2725C6.83203 25.394 7.01562 25.3335 7.07422 25.0908C7.10547 25.0273 7.12109 24.9805 7.13672 24.9326L7.19531 24.7876C7.31641 24.1211 7.62109 23.6968 8.28516 23.5757C8.49609 23.5454 8.70703 23.5303 8.92188 23.5151C9.13281 23.5 9.34375 23.4849 9.55469 23.4546C9.91797 23.4546 10.0391 23.3335 10.0391 22.9697C10.0391 22.4243 10.2227 22 10.5859 21.5757C10.8867 21.2725 10.8242 21.0303 10.4648 20.7876C10.1016 20.606 9.85938 20.3027 9.67578 19.9395C9.375 19.3335 9.43359 18.6665 9.85938 18.2422C10.1602 17.9395 10.1016 17.6362 9.73828 17.4546C9.43359 17.2725 9.19141 17.0908 8.94922 16.8486C8.52734 16.3638 8.64844 15.8789 9.19141 15.5757L9.34375 15.4849L9.49609 15.394C9.67578 15.2119 9.67578 14.9697 9.49609 14.7876C9.3125 14.606 9.13281 14.5454 8.89062 14.5454C7.80078 14.4849 6.71094 14.606 5.68359 15.0303C2.60156 16.4243 0.90625 19.8184 1.63281 22.9092ZM11.8555 18.8486C12.0977 19.0908 12.3398 19.4546 12.4023 19.7578C12.5234 20.1211 12.4609 20.4849 12.0977 20.7275C11.8555 20.9092 11.5547 20.9697 11.3125 20.7881C10.8281 20.4243 10.5859 20 10.5859 19.394C10.5859 19.2729 10.6445 19.1514 10.707 19.0303C10.9492 18.5454 11.4336 18.4849 11.8555 18.8486ZM10.8906 23.7573C11.0117 24.2422 11.4961 24.4243 11.918 24.1211C12.4609 23.6968 12.7031 23.1514 12.7031 22.4849C12.7031 22 12.2812 21.7573 11.8594 21.9395C11.2539 22.1816 10.7695 23.1514 10.8906 23.7573ZM10.3438 25.2119C10.043 25.6968 9.55859 26 8.95312 26.1816C8.41016 26.3638 8.16797 25.8184 8.28906 25.394C8.46875 24.6665 9.5 24.1816 10.1641 24.4849C10.4062 24.606 10.5273 24.9092 10.3438 25.2119ZM11.8555 16.9697C11.6719 16.5454 11.3711 16.2427 10.8867 16.0605C10.6445 15.9395 10.3438 16.0605 10.1602 16.3032C9.98047 16.5454 10.0391 16.7881 10.1602 17.0303C10.3438 17.3335 10.6445 17.5757 11.0078 17.7578C11.25 17.8789 11.4336 17.8789 11.6719 17.7578C11.8555 17.5151 11.9141 17.2729 11.8555 16.9697ZM7.625 26.9697C7.44141 27.0908 7.32031 27.1519 7.14062 27.2124C6.77734 27.2729 6.47266 27.2729 6.29297 27.0908C6.10938 27.0303 5.92969 26.8486 5.80859 26.667C5.6875 26.3638 5.74609 26.1211 6.05078 26C6.17188 25.9395 6.35156 25.8789 6.53516 25.8789C6.89844 25.8789 7.26172 26 7.625 26.1821C7.98438 26.4243 7.98438 26.7275 7.625 26.9697ZM13.4258 21.3335V21.4546C13.4883 21.6362 13.5469 21.8184 13.7891 21.8184C14.0156 21.8184 14.0859 21.7129 14.1914 21.5508L14.2148 21.5151C14.3945 21.0908 14.457 20.6665 14.2734 20.2427C14.2148 20.0605 14.1523 19.9395 13.9727 19.9395C13.7891 19.9395 13.668 20.0605 13.6094 20.2427C13.3672 20.5454 13.3086 20.9092 13.4258 21.3335ZM12.6406 25.3936C12.457 25.9395 12.0352 26.3027 11.5508 26.4849C11.1875 26.606 11.0664 26.4243 11.1289 26.1816C11.3086 25.5757 11.7344 25.2119 12.2773 25.0303C12.5781 24.9092 12.7617 25.0908 12.6406 25.3936ZM13.0625 17.7573C13.1836 18.0605 13.3047 18.3638 13.5469 18.606C13.7305 18.7271 13.8516 18.6665 13.9102 18.4849C14.0312 18.1211 13.7305 17.394 13.3672 17.1514C13.1836 17.0303 13.0625 17.0908 13.0039 17.2725C13.0625 17.394 13.0625 17.5757 13.0625 17.7573ZM14.2148 24.5454C14.0938 24.7271 13.9727 24.6665 13.9141 24.4243C13.9141 24.3638 13.9141 24.1816 13.9727 24C14.0352 23.6968 14.1562 23.394 14.3984 23.1514C14.457 23.0908 14.5195 23.0908 14.5781 23.0908C14.6406 23.1514 14.6992 23.2119 14.6992 23.2725C14.6992 23.7573 14.5781 24.1816 14.2148 24.5454ZM9.52344 27.6987L9.47266 27.7256C9.32422 27.8037 9.15625 27.8911 9.01172 28C8.83203 28.1211 8.89062 28.2422 9.07422 28.3027C9.55469 28.3638 10.0391 28.1816 10.4023 27.8789C10.5234 27.7573 10.5234 27.6362 10.2812 27.5757H9.73828C9.67578 27.6162 9.60156 27.6562 9.52344 27.6987ZM10.8281 15.2119C10.707 15.0908 10.707 15.0303 10.8867 14.9697C11.0078 14.9697 11.1289 14.9697 11.3086 15.0303C11.5898 15.1411 11.8633 15.3032 12.1406 15.4697L12.1797 15.4917L12.2188 15.5151C12.2461 15.5449 12.2617 15.5889 12.2773 15.6333C12.293 15.6797 12.3086 15.7266 12.3398 15.7578C12.3086 15.7578 12.2617 15.7734 12.2148 15.7891C12.1719 15.8037 12.125 15.8184 12.0977 15.8184C11.6133 15.6968 11.1875 15.5151 10.8281 15.2119ZM5.92969 27.8184C5.86719 27.8184 5.80859 27.8789 5.80859 27.8789C5.80859 27.9395 5.80859 28 5.86719 28C6.29297 28.3032 6.71484 28.4243 7.19922 28.3638C7.26172 28.3638 7.32031 28.3032 7.32031 28.3032C7.32031 28.2427 7.32031 28.1821 7.26172 28.1821C6.83594 27.9395 6.41406 27.8184 5.92969 27.8184ZM7.31641 22.7271C7.37891 22.6665 7.37891 22.5454 7.37891 22.4243C7.13672 21.6362 7.5 20.9092 8.10547 20.4849C8.40625 20.3032 8.70703 20.2427 9.07031 20.2427C9.13281 20.3032 9.25391 20.2427 9.25391 20.1816C9.3125 20.1211 9.25391 20.0605 9.19141 20C9.19141 20 9.13281 19.9395 9.07031 19.9395C8.34766 19.5757 7.5 19.8184 7.01562 20.4243C6.53125 21.0303 6.53125 21.9395 7.01562 22.5454C7.07422 22.6665 7.19531 22.8486 7.31641 22.7271ZM4.41797 23.6362C4.23438 22.9087 4.53516 22.3027 5.08203 22C5.32422 21.8784 5.56641 21.8784 5.80859 21.9395C6.17188 22 6.47266 22.1816 6.71484 22.4238C6.74219 22.4541 6.74219 22.4849 6.74219 22.5151C6.74219 22.5454 6.74219 22.5757 6.77344 22.606C6.74219 22.606 6.71484 22.6211 6.68359 22.6362C6.65234 22.6514 6.625 22.6665 6.59375 22.6665C6.52344 22.6665 6.44531 22.6484 6.36328 22.6294C6.23438 22.6001 6.10156 22.5688 5.98828 22.606C5.44531 22.6665 5.01953 23.0303 4.89844 23.5757V23.8179C4.89844 23.8784 4.83984 23.9395 4.77734 24C4.75 23.9736 4.71484 23.9585 4.67969 23.9448C4.63672 23.9277 4.59766 23.9126 4.59766 23.8784C4.47656 23.8179 4.41797 23.6968 4.41797 23.6362ZM6.71094 17.5151C6.46875 17.8184 6.34766 18.1821 6.41016 18.6064C6.53125 18.9697 6.77344 19.2729 7.13672 19.394C7.13672 19.4346 7.19141 19.4209 7.24609 19.4072L7.31641 19.394C7.31641 19.374 7.32422 19.3535 7.33203 19.3335C7.34375 19.293 7.35938 19.2529 7.31641 19.2124C7.01562 18.7275 7.01562 18.2427 7.37891 17.7578C7.62109 17.5151 7.92188 17.2729 8.22266 17.1519C8.25391 17.1206 8.26953 17.0889 8.28516 17.0576C8.30078 17.0283 8.31641 16.999 8.34375 16.9697C8.28516 16.9092 8.22266 16.8486 8.16406 16.8486C7.55859 16.8486 7.07422 17.0908 6.71094 17.5151ZM2.41797 24.1816V23.8184C2.41797 23.5757 2.59766 23.5151 2.78125 23.5151C2.96094 23.5757 3.08203 23.6362 3.20312 23.6968C3.87109 24.1211 4.29297 24.7271 4.59375 25.4546C4.59375 25.5151 4.59375 25.5757 4.53516 25.6362C4.47266 25.6362 4.35547 25.6362 4.35547 25.5757C4.16406 25.4253 4.00391 25.251 3.84375 25.0825L3.80078 25.0366L3.56641 24.7881C3.44531 24.6665 3.32422 24.606 3.14453 24.5454C3.08203 24.4849 2.96094 24.4849 2.83984 24.5454C2.72266 24.5747 2.66016 24.5898 2.61719 24.5698C2.57031 24.5488 2.53906 24.4883 2.47656 24.3638C2.47656 24.3032 2.47656 24.2422 2.41797 24.1816ZM6.47266 16.1821C7.01562 16.3032 7.5 16.3032 7.98438 16.1821C8.10547 16.1216 8.22656 16.1216 8.22656 16.1216C8.22656 16.1216 8.28516 16.061 8.28516 16C8.28516 15.9395 8.22656 15.8789 8.16797 15.8789H8.04688L7.57812 15.791L7.07812 15.6973C6.89453 15.6367 6.77344 15.5151 6.77344 15.2729C6.77344 15.1519 6.71484 15.0913 6.59375 15.1519C6.35156 15.2729 6.10938 15.394 5.92969 15.5762C5.80859 15.6973 5.80859 15.8789 5.98828 16L6.22656 16.0903L6.47266 16.1821Z" transform="translate(5)"/>
</svg>
