<svg width="34" height="24" viewBox="0 0 34 24"  xmlns="http://www.w3.org/2000/svg">
<path fill-rule="evenodd" clip-rule="evenodd" d="M25.0543 11.1318V8.39313C25.1147 8.37821 25.1766 8.3633 25.2393 8.34839C25.458 8.29638 25.6843 8.24247 25.9079 8.16981C26.1266 8.09945 26.3338 8.01341 26.5536 7.92279C26.5731 7.91438 26.5933 7.90635 26.6128 7.89832C27.0922 9.01451 27.3774 10.195 27.4439 11.3685C27.4615 11.674 27.463 11.9777 27.4546 12.2794C26.739 11.7853 25.9515 11.4756 25.1839 11.1815L25.0543 11.1318ZM24.6081 19.1609C22.9475 20.9241 20.7272 22.0525 18.3727 22.368C18.8284 22.1347 19.2562 21.8827 19.648 21.5936C20.6519 20.8522 21.5181 19.9421 22.2961 18.811C23.0744 17.6795 23.7113 16.4019 24.1895 15.0135C24.1949 14.9978 24.2006 14.9817 24.2067 14.9661C24.4774 15.1867 24.6953 15.4731 24.8861 15.8559C25.1988 16.4838 25.3096 17.1533 25.427 17.8623L25.4408 17.9468C25.4526 18.0179 25.453 18.0822 25.4499 18.1441C25.1919 18.4967 24.9132 18.837 24.6081 19.1609ZM8.58545 18.1563C8.79456 18.1579 9.00443 18.1594 9.21392 18.1533C10.3956 18.1177 11.5814 17.9032 12.7386 17.5162C13.7581 17.1747 14.7838 16.7969 15.7758 16.4318C16.3034 16.2375 16.8313 16.0432 17.3604 15.8532L17.9033 15.6578C18.7588 15.3496 19.6434 15.0303 20.5219 14.7462C21.2421 14.5129 21.9681 14.4058 22.6768 14.428C23.0243 14.4387 23.4169 14.5263 23.6708 14.6456C23.3879 15.5075 23.0354 16.3342 22.6233 17.104C21.9157 18.4252 21.1087 19.497 20.1561 20.3822C18.9511 21.5015 17.6781 22.1699 16.2732 22.4311C13.1304 22.2047 10.3596 20.573 8.58545 18.1563ZM24.2037 7.27161C24.2366 7.4108 24.2698 7.54923 24.3042 7.68765C24.3149 7.73163 24.3191 7.78019 24.3245 7.84787C24.2396 7.83831 24.1551 7.8299 24.0722 7.82187C23.8004 7.79472 23.5439 7.7691 23.2931 7.71671C22.3546 7.52169 21.4344 7.0785 20.3984 6.3229C19.7722 5.86633 19.1461 5.38605 18.5409 4.92182C18.1353 4.61056 17.7301 4.29967 17.3214 3.993C16.3657 3.27602 15.3114 2.55253 14.0773 2.11814C13.9982 2.09022 13.9187 2.0646 13.838 2.03822C13.8254 2.03401 13.8124 2.02981 13.7994 2.0256C14.7697 1.71969 15.8034 1.55029 16.8803 1.53958C16.9192 1.5392 16.9571 1.53882 16.9957 1.53882C18.5019 1.53882 19.8758 1.83517 21.0988 2.35063C21.3151 2.49785 21.5181 2.66228 21.7119 2.82594C22.7453 3.69779 23.4873 4.8289 23.9177 6.18792C24.0301 6.54239 24.1184 6.91293 24.2037 7.27161ZM26.359 7.3458C26.3498 7.34963 26.3407 7.35345 26.3319 7.35689C26.1273 7.44216 25.9339 7.52247 25.7332 7.58747C25.5367 7.65133 25.3345 7.69875 25.1204 7.74922C25.0608 7.76337 25.0004 7.77752 24.9392 7.79243C24.6636 6.13401 24.1219 4.76314 23.3015 3.62744C24.6154 4.63045 25.6506 5.92216 26.359 7.3458ZM12.9588 2.44433C13.8235 2.60493 14.6657 2.95558 15.6088 3.54752C16.5163 4.11652 17.3742 4.78762 18.2037 5.43691C18.4836 5.65602 18.7634 5.87475 19.0455 6.0908C19.7868 6.65712 20.6595 7.30145 21.6428 7.77714C22.5996 8.24022 23.5064 8.45703 24.409 8.43982C24.4908 9.2459 24.4988 10.0585 24.4331 10.9169L24.2251 10.8531C23.9839 10.7781 23.7469 10.7047 23.5083 10.6355C21.3591 10.0088 19.138 9.53537 16.7178 9.1874C14.9539 8.93387 13.3709 8.80807 11.8781 8.80271C11.8352 8.80271 11.7928 8.80271 11.75 8.80271C10.6632 8.80271 9.40201 8.8551 8.16914 9.19198C7.75474 9.30555 7.24669 9.48069 6.77839 9.79272C7.49058 6.45484 9.73803 3.73948 12.7634 2.41565C12.8254 2.42215 12.8892 2.43133 12.9588 2.44433ZM6.53793 12.009C6.54061 11.5788 6.57081 11.1563 6.62127 10.741C6.71302 10.6182 6.82809 10.5119 6.94774 10.4148C7.38202 10.0615 7.91263 9.88901 8.32626 9.7785C9.50714 9.46341 10.7182 9.41064 11.6835 9.41064C11.7584 9.41064 11.8322 9.41103 11.9041 9.41141C13.786 9.42594 15.819 9.62669 18.1196 10.0263C20.3273 10.4098 22.3202 10.8863 24.2121 11.4836C24.3577 11.5299 24.378 11.5593 24.3574 11.697C24.2205 12.6013 24.0599 13.3523 23.8547 14.0483C22.6011 13.6093 21.3893 13.8735 20.3472 14.1592C19.1721 14.4808 18.0248 14.9339 16.915 15.3721C16.5874 15.5014 16.2594 15.631 15.9303 15.7576C14.7012 16.2298 13.3086 16.7648 11.9086 17.1227C10.6242 17.4515 9.54536 17.5865 8.51014 17.5498C8.38857 17.5452 8.27121 17.5372 8.15576 17.5246C7.14882 15.9231 6.55666 14.0337 6.53793 12.009ZM25.9553 17.3189C25.875 16.9553 25.7921 16.5786 25.6816 16.2146C25.4354 15.4024 25.0244 14.7955 24.4346 14.368C24.4258 14.3546 24.4181 14.3114 24.4227 14.29C24.5191 13.8403 24.6181 13.3922 24.7175 12.9432C24.7863 12.632 24.8551 12.3207 24.9228 12.0094C24.9407 11.9265 24.9503 11.8416 24.9606 11.7487C25.7473 12.0488 26.4905 12.3333 27.1595 12.8071L27.184 12.8243C27.2864 12.8924 27.3549 12.9662 27.4076 13.045C27.2532 14.5852 26.7627 16.0544 25.9672 17.3709C25.9633 17.3537 25.9595 17.3365 25.9553 17.3189ZM28.9799 11.2809C28.6619 5.68007 24.0462 -0.0787226 16.8646 0.000814572C13.6782 0.032553 10.6968 1.29559 8.46923 3.55666C6.24931 5.81047 5.01682 8.81147 5 12.0063V12.0167C5.02791 15.2632 6.30359 18.2924 8.59195 20.5463C10.8543 22.7741 13.848 24 17.0244 24H17.0584C20.3113 23.9908 23.4708 22.6115 25.7278 20.2159C28.0143 17.7885 29.1692 14.6154 28.9799 11.2809Z" />
</svg>
