<svg width="34" height="24" viewBox="0 0 34 24"  xmlns="http://www.w3.org/2000/svg">
<path fill-rule="evenodd" clip-rule="evenodd" d="M29.1392 22.74C28.9995 22.4338 28.8308 22.1419 28.6353 21.8681C28.4368 21.5685 28.2124 21.2869 27.9648 21.0265C27.5564 20.6004 27.1055 20.2171 26.6191 19.8824C26.1516 19.5851 25.667 19.3158 25.1677 19.076L25.2686 18.9752C29.562 14.5216 29.4321 7.4307 24.9788 3.13715C20.5251 -1.15637 13.4341 -1.02664 9.14062 3.42695C7.08911 5.53693 5.9458 8.36655 5.95532 11.3094C5.97168 13.8842 6.87207 16.3751 8.50562 18.3654C9.22144 18.0531 9.96802 17.8166 10.7332 17.6598C11.2986 17.5413 11.8708 17.4605 12.4468 17.4179C12.5022 17.2918 12.5527 17.1558 12.6082 17.0348H12.6484H12.7542C12.8477 17.0348 12.9434 17.0502 13.0383 17.0656C13.0969 17.075 13.1553 17.0845 13.2129 17.0902C13.364 17.1054 13.6565 17.1155 13.9033 17.1155H14.4829C14.9014 17.1155 15.2793 17.065 15.6372 17.0197C15.9136 16.9893 16.188 16.9421 16.4587 16.8786H16.5293C16.5891 16.9558 16.6548 17.0282 16.7258 17.0953C16.949 17.3052 17.1882 17.4974 17.4414 17.6698C17.9902 18.0523 18.5588 18.4056 19.145 18.7282H19.1802L19.3162 18.7988C19.3806 18.8345 19.4426 18.8713 19.5039 18.9088L19.6311 18.9872L19.7095 19.0357C19.7095 18.9651 19.7498 18.8895 19.7649 18.8189C19.8052 18.8198 19.8452 18.8156 19.884 18.8063C19.9124 18.7997 19.9399 18.7904 19.9666 18.7786C20.7898 18.4051 21.5676 17.9384 22.2849 17.3876C22.5176 17.2111 22.729 17.0081 22.9148 16.7828L23.0408 16.6115C23.2803 16.6542 23.5232 16.6762 23.7666 16.677C23.9351 16.6765 24.1033 16.6664 24.2705 16.6467C24.5276 16.6165 24.7747 16.5711 25.0569 16.5157L25.0315 16.6367C24.7112 17.1043 24.3503 17.5427 23.9531 17.9471C23.7515 18.1537 23.5347 18.3452 23.3181 18.5317L22.2192 19.3381C22.1204 19.3996 22.0215 19.4601 21.9219 19.5189C21.7927 19.5949 21.6624 19.668 21.5288 19.7362C21.292 19.8572 21.1709 19.9126 20.9895 19.9933C21.4187 20.3697 21.8086 20.7885 22.1538 21.2432C22.856 20.893 23.5198 20.4707 24.1345 19.9832L24.3865 20.0739C25.7427 20.568 26.9192 21.4583 27.7632 22.6292H22.9399C23.1265 23.0525 23.3281 23.5313 23.4792 23.9143H29.6682C29.6682 23.9143 29.3457 23.1382 29.1392 22.74ZM16.0908 1.9704H16.1614C16.3936 1.91385 16.6294 1.87342 16.8669 1.84943H16.9326C17.1292 1.84943 17.3357 1.80912 17.5322 1.79905H17.5979H17.9807H18.0515C18.4036 1.83045 18.7537 1.88263 19.0996 1.9553C19.615 2.0611 20.1208 2.20945 20.6116 2.39881C20.9006 2.50922 21.1833 2.63541 21.4585 2.7768C21.5093 2.80454 21.5566 2.83841 21.5996 2.8776C21.8972 3.14283 22.1736 3.43101 22.426 3.73942L21.9221 4.74741L21.771 5.03974L21.6802 5.22117L21.5139 5.19596H21.4534C21.2214 5.16575 20.9846 5.14054 20.7527 5.12037C20.385 5.09012 19.9917 5.06998 19.5532 5.06998H19.4072C18.9524 5.06998 18.4983 5.09522 18.0464 5.14557L17.7642 5.19092C17.7371 5.16068 17.7095 5.13105 17.6812 5.10209C17.6367 5.05674 17.5908 5.01301 17.5435 4.97095C17.4912 4.9246 17.437 4.88029 17.3811 4.83814C17.0596 4.59052 16.7229 4.36329 16.373 4.15775C16.0203 3.94605 15.6423 3.73942 15.219 3.52271H15.1736C15.3027 3.04838 15.5312 2.60688 15.844 2.22745L15.8472 2.22028C15.875 2.15903 15.895 2.11521 15.9126 2.08307C15.9216 2.06687 15.9299 2.05366 15.9385 2.04264C15.9724 1.99897 16.0083 1.9903 16.0908 1.9704ZM10.3503 4.5962C10.0222 4.92948 9.71753 5.2848 9.43799 5.65964L9.42798 5.77555C9.81104 5.67978 10.1941 5.59412 10.698 5.50843C10.7849 5.49149 10.8806 5.47547 10.9805 5.45994C11.0942 5.4423 11.2139 5.4253 11.3325 5.40845L11.4087 5.39756C11.6255 5.1435 11.8706 4.9152 12.1394 4.71717C12.7981 4.2269 13.5039 3.80317 14.2461 3.45215C14.2891 3.43116 14.334 3.41508 14.3801 3.40409C14.4302 3.39219 14.4817 3.3863 14.5334 3.38663C14.668 2.86683 14.9006 2.37754 15.219 1.9452L14.9216 2.01072C14.1777 2.18772 13.4583 2.45514 12.7795 2.80701C11.8804 3.27131 11.0603 3.87519 10.3503 4.5962ZM7.86572 13.4514V13.4917L7.83032 13.3456L7.86572 13.3808V13.4514ZM9.77588 12.897H9.92212V12.9121C9.93701 12.8365 9.95215 12.7609 9.89673 12.7105C10.0798 12.0368 10.314 11.378 10.5974 10.7399C10.7539 10.3702 10.9446 10.0159 11.1667 9.68152C11.2529 9.55179 11.3508 9.4303 11.4592 9.31864C11.4456 9.30076 11.4324 9.28248 11.4199 9.26386C11.3936 9.22483 11.3696 9.18421 11.3484 9.14225L11.3281 9.11036C11.3208 9.09897 11.313 9.08738 11.3059 9.07566L11.2981 9.06186C11.2937 9.05375 11.2896 9.0456 11.2859 9.03742C11.2778 9.01874 11.2727 8.99985 11.2727 8.98096C11.2468 8.91654 11.2229 8.85132 11.2012 8.78541C11.1919 8.75718 11.1831 8.72883 11.1748 8.70035C11.1624 8.65864 11.1506 8.61667 11.1399 8.57447L11.1309 8.53818C11.1257 8.51783 11.1211 8.49741 11.1165 8.47696C11.0413 8.13328 10.9907 7.78464 10.9653 7.43369C10.9409 7.05778 10.9409 6.68067 10.9653 6.30475C10.9695 6.23514 10.9795 6.16602 10.9956 6.09812H10.9653L10.2798 6.22413C9.98755 6.28461 9.62476 6.35517 9.27173 6.461H9.19116L9.14575 6.51139C8.77954 6.94089 8.46655 7.41303 8.21338 7.91755C8.18872 7.9632 8.16699 8.01032 8.14795 8.05866C7.9668 8.55839 7.82837 9.07264 7.73462 9.59583C7.67407 9.92927 7.63208 10.2658 7.60864 10.6038V10.6441C7.6001 10.7734 7.6001 10.903 7.60864 11.0322C7.63257 11.389 7.7019 11.7414 7.81519 12.0805C7.89209 12.332 8.00391 12.5712 8.14795 12.7912C8.18335 12.8408 8.22217 12.8879 8.26392 12.9323H8.76782C8.96655 12.9323 9.1499 12.9225 9.32397 12.9133C9.48096 12.9049 9.63013 12.897 9.77588 12.897ZM16.9778 15.3615C16.8518 15.5984 16.7158 15.8353 16.5898 16.0419C16.5464 16.1133 16.4993 16.1823 16.4487 16.2486L16.4185 16.2939C16.2087 16.3541 15.9949 16.3979 15.7783 16.425C15.4607 16.4703 15.1182 16.5056 14.73 16.5308C14.5713 16.5308 14.4221 16.5378 14.2805 16.5443C14.1526 16.5503 14.0308 16.556 13.9136 16.556H13.4097C13.2441 16.5499 13.0793 16.5348 12.9158 16.5106L12.8579 16.5017C12.7996 16.4924 12.7417 16.4819 12.6838 16.4703L12.5627 16.3443C12.4771 16.2536 12.3865 16.1629 12.3059 16.0671C11.8079 15.4952 11.3625 14.8796 10.9753 14.2275C10.9294 14.1522 10.8857 14.0757 10.844 13.9981C10.7383 13.8022 10.6458 13.5993 10.5671 13.3909C10.5671 13.3587 10.5547 13.3285 10.542 13.2977L10.5413 13.2959L10.531 13.2713C10.5276 13.2626 10.5244 13.2538 10.5217 13.2448L10.4915 13.144C10.4895 13.134 10.4895 13.1237 10.4915 13.1137L10.5063 13.0425L10.5254 12.9579C10.5425 12.8851 10.5608 12.8126 10.5806 12.7405C10.6057 12.6492 10.6331 12.5586 10.6628 12.4686C10.8516 11.8468 11.0874 11.2402 11.3684 10.6542C11.4941 10.3831 11.6462 10.1249 11.822 9.88312C11.8735 9.81605 11.9292 9.75208 11.9883 9.69159C12.0457 9.62723 12.1184 9.57865 12.2 9.55048L12.3865 9.49503V9.46985C12.573 9.46985 12.7744 9.46985 13.0115 9.44465H14.5234H15.2139H15.6624L15.7883 9.63114L16.7258 11.002C17.0535 11.4757 17.4163 12.01 17.8093 12.514C17.866 12.5846 17.9202 12.652 17.9739 12.716C18.0042 12.7522 18.0342 12.7873 18.0645 12.8213C18.0952 12.8561 18.126 12.8897 18.1572 12.9222C17.8145 13.7235 17.4263 14.5602 16.9929 15.3767L16.9778 15.3615ZM22.1741 12.4686L22.3052 12.3376H22.3203C22.5344 12.0945 22.7219 11.8293 22.8796 11.5463C23.1421 11.1057 23.363 10.6417 23.5398 10.1603C23.689 9.77472 23.8103 9.37891 23.9028 8.97593C23.9104 8.9516 23.9148 8.92655 23.916 8.90137C23.9175 8.8671 23.9131 8.83265 23.9028 8.79954C23.7903 8.50712 23.6484 8.22681 23.4795 7.96293C22.9956 7.20063 22.4329 6.49116 21.801 5.84614C21.562 5.79078 21.3196 5.7504 21.0754 5.72516C20.6973 5.67982 20.2842 5.64454 19.8203 5.64454H19.4424C19.0132 5.64264 18.5842 5.66285 18.1572 5.70502L17.8901 5.7403C17.8738 5.77869 17.8516 5.81437 17.8247 5.84614C17.8083 5.86579 17.7927 5.88587 17.7776 5.90638C17.7676 5.91999 17.7578 5.93378 17.7483 5.94773C17.7397 5.96012 17.7314 5.97263 17.7234 5.9853C17.7166 5.99595 17.71 6.00666 17.7036 6.01749L17.6382 6.12836C17.5322 6.30475 17.4214 6.49125 17.3206 6.67774C16.8872 7.48917 16.4941 8.33588 16.1362 9.13218L16.2422 9.28339L16.373 9.47489C16.4995 9.65769 16.626 9.84363 16.7537 10.0312L16.7603 10.0404C17.0881 10.5221 17.4231 11.0143 17.7842 11.4909C18.0413 11.8487 18.2581 12.141 18.51 12.4283L18.636 12.5543L18.7017 12.6198H18.9233H19.5332L21.4031 12.5593C21.6626 12.5576 21.9211 12.5271 22.1741 12.4686ZM24.5378 16.0671C24.2815 16.1123 24.022 16.1376 23.7617 16.1427H23.5149L23.2629 16.1125V15.9714V15.9311C23.2771 15.6708 23.2771 15.4101 23.2629 15.1499C23.2629 14.9681 23.2429 14.8034 23.2244 14.6516C23.2183 14.6013 23.2124 14.5524 23.2075 14.5047C23.1628 14.0542 23.0701 13.6098 22.9302 13.1792C22.9302 13.1516 22.918 13.1224 22.9036 13.0934C22.8918 13.0695 22.8787 13.0458 22.8696 13.023C22.8328 12.9331 22.7871 12.8471 22.7336 12.766C23.053 12.418 23.3257 12.0301 23.5452 11.6118C23.9412 10.8749 24.2427 10.0908 24.4421 9.27833H24.8503L25.561 9.32367H25.7173H25.9238C25.9949 9.43784 26.0598 9.55576 26.1179 9.67695C26.1611 9.76746 26.2007 9.85978 26.2363 9.95368C26.4114 10.3841 26.5332 10.8343 26.5994 11.2943C26.6313 11.5078 26.6465 11.7235 26.6445 11.9394C26.6445 12.0755 26.6445 12.2116 26.6145 12.3527C26.5791 12.6601 26.5337 12.9575 26.4734 13.2549C26.375 13.7556 26.2317 14.2465 26.0449 14.7215C25.896 15.0832 25.6975 15.4225 25.4553 15.7295C25.4099 15.7893 25.3591 15.8449 25.304 15.8958H25.2537C25.0232 15.9653 24.7896 16.0225 24.553 16.0671H24.5378ZM21.8113 21.8681C21.6128 21.5685 21.3884 21.2869 21.1409 21.0265C20.7324 20.6004 20.2815 20.2171 19.7952 19.8824C18.9102 19.2974 17.9438 18.8457 16.9275 18.5418C15.3167 18.0842 13.6331 17.9405 11.9683 18.1184C10.1135 18.3106 8.33887 18.9733 6.81226 20.0437C5.46265 21.0148 4.47363 22.4063 4 24H22.8342C22.8342 24 22.7417 23.7649 22.6296 23.4845C22.5276 23.2297 22.4094 22.9373 22.3303 22.7501C22.1865 22.4398 22.0127 22.1444 21.8113 21.8681ZM5.91528 22.6846C6.79102 21.449 8.04272 20.5297 9.48364 20.0638C10.8704 19.522 12.3564 19.2815 13.843 19.3582C15.1042 19.4357 16.3469 19.6972 17.5325 20.1344C18.8887 20.6285 20.0649 21.5187 20.9092 22.6896L5.91528 22.6846Z" />
</svg>
