<svg width="34" height="24" viewBox="0 0 34 24"  xmlns="http://www.w3.org/2000/svg">
<path fill-rule="evenodd" clip-rule="evenodd" d="M30.1222 9.31708C30.1212 9.32267 30.1208 9.32826 30.1195 9.33385C30.1205 9.28439 30.1225 9.23515 30.1218 9.18547C30.1216 9.17021 30.1195 9.1558 30.1193 9.14075C30.1205 9.14591 30.1212 9.15128 30.1222 9.15644V9.31708ZM30.0679 9.90137C30.0577 9.96609 30.0466 10.0304 30.0334 10.0945C30.0464 10.0304 30.0577 9.96609 30.0679 9.90137ZM30.0909 9.7312C30.0854 9.77937 30.0798 9.82775 30.0724 9.87571C30.0798 9.82775 30.0849 9.77937 30.0909 9.7312ZM30.1052 9.59595C30.1048 9.59917 30.1046 9.6024 30.1043 9.60562C30.1048 9.6024 30.1048 9.59917 30.1052 9.59595ZM30.044 8.43787C30.0551 8.49442 30.0632 8.55205 30.0713 8.60968C30.0628 8.55205 30.0551 8.49421 30.044 8.43787ZM29.8562 10.7529C29.8677 10.7183 29.8781 10.6835 29.8892 10.6484C29.8783 10.6835 29.8677 10.7183 29.8562 10.7529ZM29.9877 10.2969C29.9978 10.256 30.0069 10.2149 30.0159 10.1741C30.008 10.2093 30.0012 10.2446 29.9926 10.2801C29.9911 10.2857 29.9892 10.2911 29.9877 10.2969ZM29.3351 11.963C29.4959 11.6606 29.6389 11.3465 29.7622 11.0183C29.6481 11.323 29.5153 11.6202 29.3643 11.9101C29.3549 11.9281 29.3445 11.9451 29.3351 11.963ZM28.2885 13.544C28.2591 13.5812 28.2277 13.6165 28.1981 13.6533C28.6219 13.1273 29.0074 12.5753 29.3264 11.9781C29.0306 12.5338 28.6791 13.052 28.2885 13.544ZM28.0092 13.8812C27.8384 14.0859 27.6638 14.287 27.4847 14.484C27.6643 14.2864 27.8387 14.0851 28.0092 13.8812ZM27.0466 14.9514C27.1929 14.7998 27.3374 14.6461 27.4794 14.4897C27.3376 14.6459 27.1933 14.7996 27.0466 14.9514ZM26.5859 15.4158C26.7247 15.2797 26.8624 15.1418 26.9982 15.0018C26.8624 15.1414 26.7249 15.2797 26.5859 15.4158ZM26.0932 15.885C26.2305 15.7579 26.3665 15.6291 26.501 15.4985C26.4238 15.5729 26.3486 15.6488 26.2708 15.7226C26.2124 15.7777 26.152 15.8303 26.0932 15.885ZM24.0228 17.6127C24.7059 17.0949 25.3657 16.5502 25.997 15.9727C25.3653 16.5515 24.7057 17.0964 24.0228 17.6127ZM23.5204 17.9854C23.6782 17.8704 23.8356 17.7545 23.9912 17.6368C23.9264 17.6857 23.8633 17.7358 23.7982 17.7839C23.7064 17.8521 23.6128 17.9177 23.5204 17.9854ZM22.9058 18.4314C23.0429 18.3314 23.1798 18.2319 23.3173 18.1329C23.1802 18.2325 23.0442 18.3333 22.9058 18.4314ZM22.3172 19.0027C22.3159 19.0045 22.3148 19.0062 22.3135 19.0077C22.1123 19.2924 21.9161 19.581 21.7089 19.8612C21.9368 19.5455 22.1549 19.2221 22.3828 18.906C22.4483 18.8152 22.5176 18.7206 22.6048 18.654C22.6476 18.6213 22.6918 18.5901 22.7352 18.5576C22.57 18.6821 22.4284 18.8266 22.3172 19.0027ZM21.5908 20.0209C21.6089 19.9966 21.6276 19.9728 21.6458 19.9482C21.6375 19.9592 21.6298 19.9708 21.6215 19.9818C21.6114 19.9951 21.6008 20.0078 21.5908 20.0209ZM19.7926 22.2457C20.2642 21.6774 20.7333 21.1071 21.1934 20.5295C20.9866 20.7904 20.7785 21.0501 20.5691 21.3086C20.3139 21.6239 20.0538 21.9354 19.7926 22.2457ZM18.5721 23.0706C18.9842 22.9859 19.3517 22.7758 19.6611 22.4047C19.6479 22.4199 19.6353 22.4358 19.6223 22.4511C19.3411 22.7812 18.9891 22.9876 18.5721 23.0706ZM18.449 23.0927C18.4051 23.0987 18.3614 23.1073 18.3177 23.1149H17.9254C17.9165 23.1112 17.9075 23.1054 17.8983 23.1048C17.8713 23.1024 17.8444 23.0983 17.8173 23.0953C18.0561 23.1217 18.2851 23.1198 18.5017 23.0833C18.484 23.086 18.4669 23.0903 18.449 23.0927ZM17.4246 23.0309C17.5163 23.0509 17.6086 23.0685 17.7026 23.0823C17.6092 23.0689 17.5167 23.0511 17.4246 23.0309ZM17.0779 22.9417C17.1568 22.9651 17.2359 22.987 17.3163 23.0066C17.2419 22.9883 17.1679 22.9687 17.0945 22.947C17.089 22.9455 17.0837 22.9434 17.0779 22.9417ZM16.7343 22.8257C16.7673 22.8379 16.801 22.8489 16.834 22.8607C16.801 22.8491 16.7673 22.8379 16.7343 22.8257ZM16.3982 22.6887C16.4407 22.7074 16.4835 22.7246 16.5261 22.7425C16.4835 22.7248 16.4407 22.7074 16.3982 22.6887ZM16.0946 22.5472C16.1266 22.5629 16.1592 22.578 16.1914 22.5935C16.1592 22.578 16.1266 22.5632 16.0946 22.5472ZM14.75 21.8516C14.4933 21.8884 14.2366 21.9236 13.9797 21.9593L13.3482 22.0469C13.8302 21.9798 14.3121 21.9125 14.7939 21.8447C14.8071 21.8525 14.8205 21.86 14.8342 21.8675C14.8135 21.8572 14.7939 21.8499 14.7715 21.8499C14.7647 21.8499 14.7577 21.8505 14.75 21.8516ZM12.3851 22.1827C12.3691 22.1848 12.3534 22.1859 12.3376 22.1878C12.5625 22.156 12.7872 22.1253 13.0122 22.0939C12.8032 22.1231 12.5939 22.1524 12.3851 22.1827ZM12.1728 22.2062C12.2003 22.204 12.2284 22.2006 12.2568 22.1971C12.2286 22.2004 12.2005 22.2042 12.1728 22.2062ZM11.7413 22.2014C11.7432 22.2016 11.7451 22.2018 11.7468 22.2021C11.746 22.2018 11.7451 22.2021 11.7443 22.2018C11.7432 22.2018 11.7423 22.2014 11.7413 22.2014ZM4.77788 11.7317C4.76594 11.7111 4.75401 11.6907 4.74228 11.6698C4.75401 11.6904 4.76594 11.7111 4.77788 11.7317ZM4.51865 11.2367C4.52845 11.2573 4.53783 11.2782 4.54785 11.2988C4.54508 11.293 4.54189 11.2879 4.53911 11.2821C4.53186 11.267 4.52568 11.2517 4.51865 11.2367ZM3.87775 8.01887C3.88052 7.99199 3.88265 7.96511 3.88542 7.93823C3.88372 8.01091 3.88222 8.08381 3.8803 8.15628C3.8754 8.34766 3.8786 8.53668 3.88819 8.72333C3.88436 8.69882 3.88137 8.67409 3.87775 8.64957V8.01887ZM14.0274 0.885254C14.0326 0.886544 14.0379 0.887619 14.043 0.88934C13.92 0.885899 13.797 0.885469 13.6737 0.888694C13.6852 0.887189 13.697 0.886329 13.7089 0.885254H14.0274ZM16.2394 1.35168C16.2482 1.35556 16.2567 1.35964 16.2652 1.36351C16.2567 1.35964 16.2482 1.35556 16.2394 1.35168ZM16.6306 1.55408C16.5852 1.52677 16.5394 1.49989 16.4925 1.47473C16.4972 1.4771 16.5018 1.47903 16.5065 1.48161C16.5492 1.50441 16.5895 1.52957 16.6306 1.55408ZM16.931 1.76183C16.8809 1.72204 16.8291 1.68441 16.7765 1.64807C16.8295 1.68441 16.8811 1.72247 16.931 1.76183ZM17.2071 2.01449C17.1444 1.94718 17.0779 1.88482 17.0091 1.82568C17.0786 1.88525 17.1449 1.94782 17.2071 2.01449ZM17.4235 2.28267C17.3681 2.20267 17.3078 2.12849 17.2451 2.05774C17.3084 2.12892 17.3683 2.20353 17.4235 2.28267ZM17.67 2.71596C17.6862 2.75231 17.7037 2.788 17.7207 2.82413C17.7188 2.82477 17.7167 2.82563 17.7148 2.82628C17.6813 2.7508 17.6491 2.67511 17.6126 2.60156C17.5593 2.49383 17.5001 2.39362 17.4359 2.29944C17.5246 2.42803 17.6035 2.56608 17.67 2.71596ZM29.0036 6.46833C28.9963 6.46037 28.9891 6.45241 28.9814 6.44446C28.9891 6.4522 28.9963 6.46037 29.0036 6.46833ZM29.3289 6.85252C29.3097 6.82715 29.2899 6.80177 29.2701 6.77661C29.2788 6.78779 29.2891 6.79747 29.2978 6.80865C29.3089 6.82306 29.3183 6.83811 29.3289 6.85252ZM29.5121 7.11727C29.4973 7.09426 29.4837 7.07126 29.4686 7.04846C29.4837 7.07126 29.4973 7.09426 29.5121 7.11727ZM29.9122 7.94191C29.8911 7.88019 29.8668 7.81955 29.8425 7.75891C29.867 7.81955 29.8911 7.88019 29.9122 7.94191ZM30.0112 8.29055C29.9948 8.22066 29.9764 8.15163 29.9564 8.08325C29.9764 8.15163 29.9948 8.22066 30.0112 8.29055ZM19.5447 3.32495C19.5649 3.3428 19.5858 3.36022 19.6065 3.37764C19.5839 3.35914 19.5639 3.34258 19.5462 3.32603C19.5457 3.3256 19.5451 3.32538 19.5447 3.32495ZM21.3859 18.0525C21.3859 18.0525 20.8699 17.8758 20.804 17.8437C20.077 17.4898 19.3568 17.1212 18.6309 16.7643C18.5093 16.7047 18.1166 16.5077 18.1166 16.5077C17.2598 15.9071 16.4249 15.3203 15.5881 14.7367C15.4559 14.6444 15.0248 14.3014 15.0248 14.3014C14.9133 14.212 14.8286 14.1443 14.7391 14.0724C14.9005 13.7075 14.8881 13.343 14.8101 12.9687C14.6274 12.0935 14.5167 11.2062 14.5508 10.313C14.5847 9.42958 14.7391 8.56169 14.9954 7.71037C15.3322 6.59175 15.8264 5.55592 16.5033 4.60889C16.7637 4.24505 17.0334 3.89196 17.3966 3.6165C18.0096 3.15159 18.6844 3.20815 19.2089 3.80315C19.0694 4.08958 18.9304 4.38268 18.7825 4.67083C18.7628 4.70932 16.8425 7.88799 17.8316 8.43009C17.6623 7.83767 17.9601 7.34459 18.178 6.84226C18.3205 6.51369 18.5339 6.21651 18.6759 5.88772L19.0379 5.3026C19.1568 5.11595 19.2758 4.91511 19.4125 4.72738C19.4385 4.69147 19.6417 4.39708 19.6417 4.39708C20.1399 3.50339 20.9326 3.18385 21.8826 3.17589C22.6813 3.16923 23.4102 3.46383 24.1291 3.76789C25.4527 4.3272 26.6317 5.12864 27.7329 6.04534C28.2382 6.46616 28.7462 6.89602 29.0869 7.47856C29.5841 8.32946 29.6745 9.23304 29.4389 10.1859C29.1628 11.3015 28.5708 12.2442 27.8834 13.1355C26.7438 14.6132 25.361 15.8394 23.9129 16.9931C23.3968 17.4042 22.8422 17.7663 22.3097 18.1571C22.1892 18.2454 22.0769 18.2757 21.934 18.2237C21.7624 18.1611 21.5852 18.1138 21.3859 18.0525ZM16.3347 21.0561C15.1065 20.3547 13.952 19.5438 12.841 18.6834C13.1395 17.9873 13.4394 17.3046 13.7255 16.6158C14.0129 15.9243 14.2869 15.2269 14.5747 14.5115C16.8161 16.2178 19.1023 17.8432 21.8498 18.6531C21.8415 18.6924 21.8317 18.738 21.8159 18.8118L21.6076 19.1012C21.4219 19.3421 21.2454 19.5788 21.061 19.8087C20.7075 20.2495 20.3448 20.6828 19.9967 21.1277C19.9137 21.2339 19.6995 21.452 19.6995 21.452L19.472 21.7373L19.1051 22.1345C19.0477 22.2575 18.9784 22.2915 18.839 22.2438C17.9595 21.9427 17.1395 21.5159 16.3347 21.0561ZM15.703 21.7004C15.0866 21.3692 14.4871 20.9998 13.9093 20.6039C13.446 20.2865 13.0079 19.9214 12.7672 19.3823C12.7359 19.3122 12.7209 19.235 12.6823 19.1088C14.4732 20.4616 16.2795 21.6739 18.304 22.5261C17.97 22.5642 17.6361 22.5513 17.3274 22.4253C16.7784 22.2014 16.2243 21.9806 15.703 21.7004ZM8.07782 15.2536C8.07228 15.2485 8.06716 15.2431 8.06161 15.2379C8.06716 15.2431 8.07228 15.2485 8.07782 15.2536ZM4.37686 7.96813C4.39711 7.48903 4.39775 7.00972 4.67811 6.59405C4.96828 6.16441 5.33179 5.83927 5.88569 5.85153C5.98376 5.8539 6.1168 5.90809 6.17138 5.98399C6.53745 6.49428 6.86919 7.03058 7.24762 7.53075L7.71645 8.43476L8.18571 9.48543C8.78736 10.8524 9.11079 12.2699 9.14277 13.7539C9.30417 11.6749 8.83875 9.71746 8.003 7.81331C8.30468 7.94663 8.58525 8.07888 8.87201 8.19586C9.71714 8.54078 10.5977 8.65324 11.5006 8.56164C12.6197 8.4481 13.6206 8.07458 14.4901 7.44065C14.2502 8.21392 14.0969 9.00461 14.0227 9.81143C13.9196 10.9371 14.0498 12.05 14.2722 13.1546C14.305 13.3163 14.3206 13.5062 14.2681 13.6561C14.1801 13.9074 14.0878 14.1575 13.9957 14.4074C13.9925 14.0403 13.9844 13.6746 13.965 13.3092C13.9436 12.9107 13.8108 12.5103 13.6786 12.1282C13.5829 11.8517 13.362 11.6676 13.0354 11.6979C12.6736 11.7317 12.4433 11.9422 12.3173 12.2734C12.1071 12.8254 12.1626 13.3941 12.2802 13.9472C12.4429 14.7117 12.6568 15.4652 12.8567 16.2552C12.3124 16.3309 9.90795 16.5939 9.4679 16.6197C9.42654 16.6223 9.36024 16.5664 9.34062 16.5216C9.22059 16.2475 9.0997 15.9727 8.99971 15.6905C8.8816 15.3576 8.68631 15.0934 8.41256 14.873C7.59727 14.2171 6.81525 13.5245 6.11872 12.7376C4.91519 11.378 4.29968 9.80455 4.37686 7.96813ZM4.28946 10.6894C4.28882 10.6879 4.28839 10.6864 4.28775 10.6847C4.28839 10.6862 4.28882 10.6879 4.28946 10.6894ZM6.0603 5.33337C6.05902 5.33337 6.05774 5.33359 6.05646 5.33337C6.05816 5.32886 6.0588 5.32649 6.05987 5.32434C6.06008 5.32735 6.05987 5.33015 6.0603 5.33337ZM15.9801 1.78883C16.5933 2.03075 16.9928 2.4705 17.2679 3.03088C17.2159 3.06142 17.1634 3.0941 17.111 3.12959C16.5937 3.47687 16.242 3.9835 15.8978 4.48926C15.4177 5.1948 15.0376 5.95129 14.7323 6.74972C13.5486 7.62793 12.2316 8.13348 10.7403 8.08617C9.68301 8.05241 8.69674 7.75545 7.79831 7.19356C7.6561 7.10475 7.57061 6.91487 7.47424 6.76155C7.19516 6.31643 6.92951 5.86291 6.64787 5.41972C6.47774 5.152 6.52997 4.86342 6.5724 4.59054C6.67857 3.90974 7.08089 3.41623 7.63159 3.03583C8.37779 2.5206 9.23017 2.27073 10.0907 2.04172C11.2793 1.72561 12.474 1.44155 13.7102 1.3994C14.492 1.37274 15.2546 1.50262 15.9801 1.78883ZM11.9221 21.6893C11.6722 21.6996 11.4234 21.6422 11.1957 21.4568C11.1957 21.4568 10.7663 20.9912 10.662 20.8349C10.662 20.8349 10.4299 20.4608 10.3806 20.335C10.2173 19.9154 10.0527 19.4963 9.88279 19.0624L9.72225 18.5418L9.57578 18.0136C9.57578 18.0136 9.5082 17.7236 9.48133 17.6141L9.42398 16.9836C10.6706 16.8907 11.9108 16.7746 13.1335 16.5613C12.8772 17.1677 12.6167 17.7724 12.341 18.3702C12.1572 18.7682 12.0299 19.1596 12.2376 19.5613C12.3986 19.872 12.6 20.1752 12.839 20.4285C13.2217 20.8349 13.6646 21.1605 14.1302 21.4529C13.8972 21.4927 13.6641 21.5316 13.4307 21.5693C12.9339 21.6495 12.4259 21.6682 11.9221 21.6893ZM30.9889 9.0139C30.9582 8.01269 30.6228 7.08889 29.9918 6.26681C29.7609 5.96597 29.5035 5.71115 29.2598 5.48085C28.2213 4.49878 27.0052 3.62659 25.6448 2.88837C24.8489 2.45658 23.988 2.12348 23.086 1.89813C22.8116 1.82953 22.4444 1.74889 22.0391 1.73319C21.9775 1.73104 21.9153 1.72975 21.8543 1.72975C21.174 1.72975 20.5312 1.87834 19.9436 2.17144C19.8553 2.21531 19.7683 2.26304 19.6824 2.31444C19.5417 2.2209 19.3993 2.14198 19.2534 2.07682C18.9262 1.9306 18.5863 1.85662 18.2429 1.85662C18.229 1.85662 18.2147 1.85662 18.2006 1.85705C17.8864 1.37795 17.4576 0.990028 16.9197 0.700589C16.5552 0.504045 16.1415 0.348574 15.6554 0.225358C15.1783 0.104508 14.6864 0.0331156 14.1912 0.0126871L14.1445 0H14.0274H13.7089H13.6629L13.617 0.0047308C13.6019 0.00645109 13.5863 0.00817138 13.571 0.0101067L13.5646 0.0109669C13.2842 0.0219337 13.0036 0.047093 12.7303 0.0855845C12.4048 0.131172 12.1184 0.174825 11.8545 0.218692C11.3153 0.308577 10.7586 0.428568 10.1521 0.585114C9.44616 0.767465 8.82275 0.956912 8.2469 1.16421C7.64695 1.3801 7.102 1.6818 6.62763 2.06091C6.16711 2.42905 5.82343 2.83526 5.57718 3.30317C5.37805 3.68142 5.25077 4.09322 5.19896 4.52695C5.19811 4.53469 5.19704 4.54243 5.19619 4.55039C4.77832 4.66586 4.39434 4.87961 4.06345 5.18388C3.52298 5.68105 3.19273 6.30057 3.08166 7.02481C3.04136 7.28694 3.029 7.53875 3.01876 7.7955C3.01834 7.80604 3.01471 7.83636 3.01237 7.85851C3.00959 7.88281 3.00661 7.9071 3.00448 7.93162L3 7.97506V8.01892V8.64962V8.71328L3.00917 8.77628C3.01258 8.79951 3.0162 8.82273 3.02025 8.84595C3.02153 8.85455 3.02324 8.86316 3.02431 8.87154C3.08528 9.84931 3.32876 10.7897 3.74855 11.6668C4.02657 12.2478 4.39455 12.8153 4.8734 13.4013C5.18212 13.7791 5.51237 14.1423 5.85562 14.4812C6.31209 14.9321 6.7935 15.3521 7.28663 15.7293C7.61347 15.9794 7.82966 16.3079 7.94777 16.7339C7.98615 16.872 8.01685 17.0309 8.04457 17.2339C8.10448 17.6702 8.19168 18.1181 8.30361 18.5652C8.5571 19.575 8.94129 20.5618 9.44616 21.4989C9.6568 21.8898 9.90624 22.2049 10.2086 22.4612C10.6222 22.8121 11.1061 23.0209 11.647 23.0818C11.7539 23.0936 11.8645 23.0999 11.9762 23.0999C12.1449 23.0999 12.3195 23.0865 12.5099 23.0588C12.757 23.0231 13.0041 22.9885 13.2512 22.9538C13.4356 22.928 13.62 22.9027 13.8044 22.8771L14.0995 22.8362L14.263 22.8136C14.3854 22.7967 14.508 22.7797 14.6304 22.7625C14.6353 22.7653 14.6404 22.7681 14.6453 22.7709C14.8926 22.9083 15.1484 23.0502 15.4056 23.1872C15.9335 23.4686 16.3921 23.6624 16.8485 23.7968C17.1464 23.8845 17.425 23.9428 17.6966 23.9742L17.7644 24H17.9254H18.3177H18.391L18.4631 23.9877C18.4797 23.9849 18.4961 23.9822 18.5126 23.9791C18.5305 23.9759 18.5484 23.9725 18.5663 23.9701C19.2464 23.8774 19.8417 23.5519 20.2879 23.0282C20.5862 22.6782 20.9006 22.2988 21.249 21.8683C21.649 21.3744 21.9814 20.9615 22.3169 20.5218C22.496 20.2872 22.6617 20.0485 22.8216 19.8178C22.8898 19.7193 22.958 19.6208 23.0273 19.5229C23.0378 19.5081 23.048 19.4931 23.0576 19.4776C23.1128 19.3907 23.1874 19.3154 23.2913 19.2421C23.5959 19.0277 23.9223 18.791 24.3183 18.497C25.2583 17.7996 26.0934 17.1034 26.8707 16.3686C27.679 15.6048 28.367 14.8618 28.9737 14.0974C29.4494 13.4983 29.8314 12.9175 30.1414 12.3216C30.4689 11.6926 30.6992 11.0933 30.8452 10.4897C30.9377 10.1071 30.9844 9.77405 30.9904 9.44892L31 9.39408V9.3171V9.15647V9.0683L30.9889 9.0139Z" fill="#0c1855"/>
<mask id="mask0" maskType="alpha" maskUnits="userSpaceOnUse" x="3" y="0" width="28" height="24">
<path fill-rule="evenodd" clip-rule="evenodd" d="M30.1222 9.31708C30.1212 9.32267 30.1208 9.32826 30.1195 9.33385C30.1205 9.28439 30.1225 9.23515 30.1218 9.18547C30.1216 9.17021 30.1195 9.1558 30.1193 9.14075C30.1205 9.14591 30.1212 9.15128 30.1222 9.15644V9.31708ZM30.0679 9.90137C30.0577 9.96609 30.0466 10.0304 30.0334 10.0945C30.0464 10.0304 30.0577 9.96609 30.0679 9.90137ZM30.0909 9.7312C30.0854 9.77937 30.0798 9.82775 30.0724 9.87571C30.0798 9.82775 30.0849 9.77937 30.0909 9.7312ZM30.1052 9.59595C30.1048 9.59917 30.1046 9.6024 30.1043 9.60562C30.1048 9.6024 30.1048 9.59917 30.1052 9.59595ZM30.044 8.43787C30.0551 8.49442 30.0632 8.55205 30.0713 8.60968C30.0628 8.55205 30.0551 8.49421 30.044 8.43787ZM29.8562 10.7529C29.8677 10.7183 29.8781 10.6835 29.8892 10.6484C29.8783 10.6835 29.8677 10.7183 29.8562 10.7529ZM29.9877 10.2969C29.9978 10.256 30.0069 10.2149 30.0159 10.1741C30.008 10.2093 30.0012 10.2446 29.9926 10.2801C29.9911 10.2857 29.9892 10.2911 29.9877 10.2969ZM29.3351 11.963C29.4959 11.6606 29.6389 11.3465 29.7622 11.0183C29.6481 11.323 29.5153 11.6202 29.3643 11.9101C29.3549 11.9281 29.3445 11.9451 29.3351 11.963ZM28.2885 13.544C28.2591 13.5812 28.2277 13.6165 28.1981 13.6533C28.6219 13.1273 29.0074 12.5753 29.3264 11.9781C29.0306 12.5338 28.6791 13.052 28.2885 13.544ZM28.0092 13.8812C27.8384 14.0859 27.6638 14.287 27.4847 14.484C27.6643 14.2864 27.8387 14.0851 28.0092 13.8812ZM27.0466 14.9514C27.1929 14.7998 27.3374 14.6461 27.4794 14.4897C27.3376 14.6459 27.1933 14.7996 27.0466 14.9514ZM26.5859 15.4158C26.7247 15.2797 26.8624 15.1418 26.9982 15.0018C26.8624 15.1414 26.7249 15.2797 26.5859 15.4158ZM26.0932 15.885C26.2305 15.7579 26.3665 15.6291 26.501 15.4985C26.4238 15.5729 26.3486 15.6488 26.2708 15.7226C26.2124 15.7777 26.152 15.8303 26.0932 15.885ZM24.0228 17.6127C24.7059 17.0949 25.3657 16.5502 25.997 15.9727C25.3653 16.5515 24.7057 17.0964 24.0228 17.6127ZM23.5204 17.9854C23.6782 17.8704 23.8356 17.7545 23.9912 17.6368C23.9264 17.6857 23.8633 17.7358 23.7982 17.7839C23.7064 17.8521 23.6128 17.9177 23.5204 17.9854ZM22.9058 18.4314C23.0429 18.3314 23.1798 18.2319 23.3173 18.1329C23.1802 18.2325 23.0442 18.3333 22.9058 18.4314ZM22.3172 19.0027C22.3159 19.0045 22.3148 19.0062 22.3135 19.0077C22.1123 19.2924 21.9161 19.581 21.7089 19.8612C21.9368 19.5455 22.1549 19.2221 22.3828 18.906C22.4483 18.8152 22.5176 18.7206 22.6048 18.654C22.6476 18.6213 22.6918 18.5901 22.7352 18.5576C22.57 18.6821 22.4284 18.8266 22.3172 19.0027ZM21.5908 20.0209C21.6089 19.9966 21.6276 19.9728 21.6458 19.9482C21.6375 19.9592 21.6298 19.9708 21.6215 19.9818C21.6114 19.9951 21.6008 20.0078 21.5908 20.0209ZM19.7926 22.2457C20.2642 21.6774 20.7333 21.1071 21.1934 20.5295C20.9866 20.7904 20.7785 21.0501 20.5691 21.3086C20.3139 21.6239 20.0538 21.9354 19.7926 22.2457ZM18.5721 23.0706C18.9842 22.9859 19.3517 22.7758 19.6611 22.4047C19.6479 22.4199 19.6353 22.4358 19.6223 22.4511C19.3411 22.7812 18.9891 22.9876 18.5721 23.0706ZM18.449 23.0927C18.4051 23.0987 18.3614 23.1073 18.3177 23.1149H17.9254C17.9165 23.1112 17.9075 23.1054 17.8983 23.1048C17.8713 23.1024 17.8444 23.0983 17.8173 23.0953C18.0561 23.1217 18.2851 23.1198 18.5017 23.0833C18.484 23.086 18.4669 23.0903 18.449 23.0927ZM17.4246 23.0309C17.5163 23.0509 17.6086 23.0685 17.7026 23.0823C17.6092 23.0689 17.5167 23.0511 17.4246 23.0309ZM17.0779 22.9417C17.1568 22.9651 17.2359 22.987 17.3163 23.0066C17.2419 22.9883 17.1679 22.9687 17.0945 22.947C17.089 22.9455 17.0837 22.9434 17.0779 22.9417ZM16.7343 22.8257C16.7673 22.8379 16.801 22.8489 16.834 22.8607C16.801 22.8491 16.7673 22.8379 16.7343 22.8257ZM16.3982 22.6887C16.4407 22.7074 16.4835 22.7246 16.5261 22.7425C16.4835 22.7248 16.4407 22.7074 16.3982 22.6887ZM16.0946 22.5472C16.1266 22.5629 16.1592 22.578 16.1914 22.5935C16.1592 22.578 16.1266 22.5632 16.0946 22.5472ZM14.75 21.8516C14.4933 21.8884 14.2366 21.9236 13.9797 21.9593L13.3482 22.0469C13.8302 21.9798 14.3121 21.9125 14.7939 21.8447C14.8071 21.8525 14.8205 21.86 14.8342 21.8675C14.8135 21.8572 14.7939 21.8499 14.7715 21.8499C14.7647 21.8499 14.7577 21.8505 14.75 21.8516ZM12.3851 22.1827C12.3691 22.1848 12.3534 22.1859 12.3376 22.1878C12.5625 22.156 12.7872 22.1253 13.0122 22.0939C12.8032 22.1231 12.5939 22.1524 12.3851 22.1827ZM12.1728 22.2062C12.2003 22.204 12.2284 22.2006 12.2568 22.1971C12.2286 22.2004 12.2005 22.2042 12.1728 22.2062ZM11.7413 22.2014C11.7432 22.2016 11.7451 22.2018 11.7468 22.2021C11.746 22.2018 11.7451 22.2021 11.7443 22.2018C11.7432 22.2018 11.7423 22.2014 11.7413 22.2014ZM4.77788 11.7317C4.76594 11.7111 4.75401 11.6907 4.74228 11.6698C4.75401 11.6904 4.76594 11.7111 4.77788 11.7317ZM4.51865 11.2367C4.52845 11.2573 4.53783 11.2782 4.54785 11.2988C4.54508 11.293 4.54189 11.2879 4.53911 11.2821C4.53186 11.267 4.52568 11.2517 4.51865 11.2367ZM3.87775 8.01887C3.88052 7.99199 3.88265 7.96511 3.88542 7.93823C3.88372 8.01091 3.88222 8.08381 3.8803 8.15628C3.8754 8.34766 3.8786 8.53668 3.88819 8.72333C3.88436 8.69882 3.88137 8.67409 3.87775 8.64957V8.01887ZM14.0274 0.885254C14.0326 0.886544 14.0379 0.887619 14.043 0.88934C13.92 0.885899 13.797 0.885469 13.6737 0.888694C13.6852 0.887189 13.697 0.886329 13.7089 0.885254H14.0274ZM16.2394 1.35168C16.2482 1.35556 16.2567 1.35964 16.2652 1.36351C16.2567 1.35964 16.2482 1.35556 16.2394 1.35168ZM16.6306 1.55408C16.5852 1.52677 16.5394 1.49989 16.4925 1.47473C16.4972 1.4771 16.5018 1.47903 16.5065 1.48161C16.5492 1.50441 16.5895 1.52957 16.6306 1.55408ZM16.931 1.76183C16.8809 1.72204 16.8291 1.68441 16.7765 1.64807C16.8295 1.68441 16.8811 1.72247 16.931 1.76183ZM17.2071 2.01449C17.1444 1.94718 17.0779 1.88482 17.0091 1.82568C17.0786 1.88525 17.1449 1.94782 17.2071 2.01449ZM17.4235 2.28267C17.3681 2.20267 17.3078 2.12849 17.2451 2.05774C17.3084 2.12892 17.3683 2.20353 17.4235 2.28267ZM17.67 2.71596C17.6862 2.75231 17.7037 2.788 17.7207 2.82413C17.7188 2.82477 17.7167 2.82563 17.7148 2.82628C17.6813 2.7508 17.6491 2.67511 17.6126 2.60156C17.5593 2.49383 17.5001 2.39362 17.4359 2.29944C17.5246 2.42803 17.6035 2.56608 17.67 2.71596ZM29.0036 6.46833C28.9963 6.46037 28.9891 6.45241 28.9814 6.44446C28.9891 6.4522 28.9963 6.46037 29.0036 6.46833ZM29.3289 6.85252C29.3097 6.82715 29.2899 6.80177 29.2701 6.77661C29.2788 6.78779 29.2891 6.79747 29.2978 6.80865C29.3089 6.82306 29.3183 6.83811 29.3289 6.85252ZM29.5121 7.11727C29.4973 7.09426 29.4837 7.07126 29.4686 7.04846C29.4837 7.07126 29.4973 7.09426 29.5121 7.11727ZM29.9122 7.94191C29.8911 7.88019 29.8668 7.81955 29.8425 7.75891C29.867 7.81955 29.8911 7.88019 29.9122 7.94191ZM30.0112 8.29055C29.9948 8.22066 29.9764 8.15163 29.9564 8.08325C29.9764 8.15163 29.9948 8.22066 30.0112 8.29055ZM19.5447 3.32495C19.5649 3.3428 19.5858 3.36022 19.6065 3.37764C19.5839 3.35914 19.5639 3.34258 19.5462 3.32603C19.5457 3.3256 19.5451 3.32538 19.5447 3.32495ZM21.3859 18.0525C21.3859 18.0525 20.8699 17.8758 20.804 17.8437C20.077 17.4898 19.3568 17.1212 18.6309 16.7643C18.5093 16.7047 18.1166 16.5077 18.1166 16.5077C17.2598 15.9071 16.4249 15.3203 15.5881 14.7367C15.4559 14.6444 15.0248 14.3014 15.0248 14.3014C14.9133 14.212 14.8286 14.1443 14.7391 14.0724C14.9005 13.7075 14.8881 13.343 14.8101 12.9687C14.6274 12.0935 14.5167 11.2062 14.5508 10.313C14.5847 9.42958 14.7391 8.56169 14.9954 7.71037C15.3322 6.59175 15.8264 5.55592 16.5033 4.60889C16.7637 4.24505 17.0334 3.89196 17.3966 3.6165C18.0096 3.15159 18.6844 3.20815 19.2089 3.80315C19.0694 4.08958 18.9304 4.38268 18.7825 4.67083C18.7628 4.70932 16.8425 7.88799 17.8316 8.43009C17.6623 7.83767 17.9601 7.34459 18.178 6.84226C18.3205 6.51369 18.5339 6.21651 18.6759 5.88772L19.0379 5.3026C19.1568 5.11595 19.2758 4.91511 19.4125 4.72738C19.4385 4.69147 19.6417 4.39708 19.6417 4.39708C20.1399 3.50339 20.9326 3.18385 21.8826 3.17589C22.6813 3.16923 23.4102 3.46383 24.1291 3.76789C25.4527 4.3272 26.6317 5.12864 27.7329 6.04534C28.2382 6.46616 28.7462 6.89602 29.0869 7.47856C29.5841 8.32946 29.6745 9.23304 29.4389 10.1859C29.1628 11.3015 28.5708 12.2442 27.8834 13.1355C26.7438 14.6132 25.361 15.8394 23.9129 16.9931C23.3968 17.4042 22.8422 17.7663 22.3097 18.1571C22.1892 18.2454 22.0769 18.2757 21.934 18.2237C21.7624 18.1611 21.5852 18.1138 21.3859 18.0525ZM16.3347 21.0561C15.1065 20.3547 13.952 19.5438 12.841 18.6834C13.1395 17.9873 13.4394 17.3046 13.7255 16.6158C14.0129 15.9243 14.2869 15.2269 14.5747 14.5115C16.8161 16.2178 19.1023 17.8432 21.8498 18.6531C21.8415 18.6924 21.8317 18.738 21.8159 18.8118L21.6076 19.1012C21.4219 19.3421 21.2454 19.5788 21.061 19.8087C20.7075 20.2495 20.3448 20.6828 19.9967 21.1277C19.9137 21.2339 19.6995 21.452 19.6995 21.452L19.472 21.7373L19.1051 22.1345C19.0477 22.2575 18.9784 22.2915 18.839 22.2438C17.9595 21.9427 17.1395 21.5159 16.3347 21.0561ZM15.703 21.7004C15.0866 21.3692 14.4871 20.9998 13.9093 20.6039C13.446 20.2865 13.0079 19.9214 12.7672 19.3823C12.7359 19.3122 12.7209 19.235 12.6823 19.1088C14.4732 20.4616 16.2795 21.6739 18.304 22.5261C17.97 22.5642 17.6361 22.5513 17.3274 22.4253C16.7784 22.2014 16.2243 21.9806 15.703 21.7004ZM8.07782 15.2536C8.07228 15.2485 8.06716 15.2431 8.06161 15.2379C8.06716 15.2431 8.07228 15.2485 8.07782 15.2536ZM4.37686 7.96813C4.39711 7.48903 4.39775 7.00972 4.67811 6.59405C4.96828 6.16441 5.33179 5.83927 5.88569 5.85153C5.98376 5.8539 6.1168 5.90809 6.17138 5.98399C6.53745 6.49428 6.86919 7.03058 7.24762 7.53075L7.71645 8.43476L8.18571 9.48543C8.78736 10.8524 9.11079 12.2699 9.14277 13.7539C9.30417 11.6749 8.83875 9.71746 8.003 7.81331C8.30468 7.94663 8.58525 8.07888 8.87201 8.19586C9.71714 8.54078 10.5977 8.65324 11.5006 8.56164C12.6197 8.4481 13.6206 8.07458 14.4901 7.44065C14.2502 8.21392 14.0969 9.00461 14.0227 9.81143C13.9196 10.9371 14.0498 12.05 14.2722 13.1546C14.305 13.3163 14.3206 13.5062 14.2681 13.6561C14.1801 13.9074 14.0878 14.1575 13.9957 14.4074C13.9925 14.0403 13.9844 13.6746 13.965 13.3092C13.9436 12.9107 13.8108 12.5103 13.6786 12.1282C13.5829 11.8517 13.362 11.6676 13.0354 11.6979C12.6736 11.7317 12.4433 11.9422 12.3173 12.2734C12.1071 12.8254 12.1626 13.3941 12.2802 13.9472C12.4429 14.7117 12.6568 15.4652 12.8567 16.2552C12.3124 16.3309 9.90795 16.5939 9.4679 16.6197C9.42654 16.6223 9.36024 16.5664 9.34062 16.5216C9.22059 16.2475 9.0997 15.9727 8.99971 15.6905C8.8816 15.3576 8.68631 15.0934 8.41256 14.873C7.59727 14.2171 6.81525 13.5245 6.11872 12.7376C4.91519 11.378 4.29968 9.80455 4.37686 7.96813ZM4.28946 10.6894C4.28882 10.6879 4.28839 10.6864 4.28775 10.6847C4.28839 10.6862 4.28882 10.6879 4.28946 10.6894ZM6.0603 5.33337C6.05902 5.33337 6.05774 5.33359 6.05646 5.33337C6.05816 5.32886 6.0588 5.32649 6.05987 5.32434C6.06008 5.32735 6.05987 5.33015 6.0603 5.33337ZM15.9801 1.78883C16.5933 2.03075 16.9928 2.4705 17.2679 3.03088C17.2159 3.06142 17.1634 3.0941 17.111 3.12959C16.5937 3.47687 16.242 3.9835 15.8978 4.48926C15.4177 5.1948 15.0376 5.95129 14.7323 6.74972C13.5486 7.62793 12.2316 8.13348 10.7403 8.08617C9.68301 8.05241 8.69674 7.75545 7.79831 7.19356C7.6561 7.10475 7.57061 6.91487 7.47424 6.76155C7.19516 6.31643 6.92951 5.86291 6.64787 5.41972C6.47774 5.152 6.52997 4.86342 6.5724 4.59054C6.67857 3.90974 7.08089 3.41623 7.63159 3.03583C8.37779 2.5206 9.23017 2.27073 10.0907 2.04172C11.2793 1.72561 12.474 1.44155 13.7102 1.3994C14.492 1.37274 15.2546 1.50262 15.9801 1.78883ZM11.9221 21.6893C11.6722 21.6996 11.4234 21.6422 11.1957 21.4568C11.1957 21.4568 10.7663 20.9912 10.662 20.8349C10.662 20.8349 10.4299 20.4608 10.3806 20.335C10.2173 19.9154 10.0527 19.4963 9.88279 19.0624L9.72225 18.5418L9.57578 18.0136C9.57578 18.0136 9.5082 17.7236 9.48133 17.6141L9.42398 16.9836C10.6706 16.8907 11.9108 16.7746 13.1335 16.5613C12.8772 17.1677 12.6167 17.7724 12.341 18.3702C12.1572 18.7682 12.0299 19.1596 12.2376 19.5613C12.3986 19.872 12.6 20.1752 12.839 20.4285C13.2217 20.8349 13.6646 21.1605 14.1302 21.4529C13.8972 21.4927 13.6641 21.5316 13.4307 21.5693C12.9339 21.6495 12.4259 21.6682 11.9221 21.6893ZM30.9889 9.0139C30.9582 8.01269 30.6228 7.08889 29.9918 6.26681C29.7609 5.96597 29.5035 5.71115 29.2598 5.48085C28.2213 4.49878 27.0052 3.62659 25.6448 2.88837C24.8489 2.45658 23.988 2.12348 23.086 1.89813C22.8116 1.82953 22.4444 1.74889 22.0391 1.73319C21.9775 1.73104 21.9153 1.72975 21.8543 1.72975C21.174 1.72975 20.5312 1.87834 19.9436 2.17144C19.8553 2.21531 19.7683 2.26304 19.6824 2.31444C19.5417 2.2209 19.3993 2.14198 19.2534 2.07682C18.9262 1.9306 18.5863 1.85662 18.2429 1.85662C18.229 1.85662 18.2147 1.85662 18.2006 1.85705C17.8864 1.37795 17.4576 0.990028 16.9197 0.700589C16.5552 0.504045 16.1415 0.348574 15.6554 0.225358C15.1783 0.104508 14.6864 0.0331156 14.1912 0.0126871L14.1445 0H14.0274H13.7089H13.6629L13.617 0.0047308C13.6019 0.00645109 13.5863 0.00817138 13.571 0.0101067L13.5646 0.0109669C13.2842 0.0219337 13.0036 0.047093 12.7303 0.0855845C12.4048 0.131172 12.1184 0.174825 11.8545 0.218692C11.3153 0.308577 10.7586 0.428568 10.1521 0.585114C9.44616 0.767465 8.82275 0.956912 8.2469 1.16421C7.64695 1.3801 7.102 1.6818 6.62763 2.06091C6.16711 2.42905 5.82343 2.83526 5.57718 3.30317C5.37805 3.68142 5.25077 4.09322 5.19896 4.52695C5.19811 4.53469 5.19704 4.54243 5.19619 4.55039C4.77832 4.66586 4.39434 4.87961 4.06345 5.18388C3.52298 5.68105 3.19273 6.30057 3.08166 7.02481C3.04136 7.28694 3.029 7.53875 3.01876 7.7955C3.01834 7.80604 3.01471 7.83636 3.01237 7.85851C3.00959 7.88281 3.00661 7.9071 3.00448 7.93162L3 7.97506V8.01892V8.64962V8.71328L3.00917 8.77628C3.01258 8.79951 3.0162 8.82273 3.02025 8.84595C3.02153 8.85455 3.02324 8.86316 3.02431 8.87154C3.08528 9.84931 3.32876 10.7897 3.74855 11.6668C4.02657 12.2478 4.39455 12.8153 4.8734 13.4013C5.18212 13.7791 5.51237 14.1423 5.85562 14.4812C6.31209 14.9321 6.7935 15.3521 7.28663 15.7293C7.61347 15.9794 7.82966 16.3079 7.94777 16.7339C7.98615 16.872 8.01685 17.0309 8.04457 17.2339C8.10448 17.6702 8.19168 18.1181 8.30361 18.5652C8.5571 19.575 8.94129 20.5618 9.44616 21.4989C9.6568 21.8898 9.90624 22.2049 10.2086 22.4612C10.6222 22.8121 11.1061 23.0209 11.647 23.0818C11.7539 23.0936 11.8645 23.0999 11.9762 23.0999C12.1449 23.0999 12.3195 23.0865 12.5099 23.0588C12.757 23.0231 13.0041 22.9885 13.2512 22.9538C13.4356 22.928 13.62 22.9027 13.8044 22.8771L14.0995 22.8362L14.263 22.8136C14.3854 22.7967 14.508 22.7797 14.6304 22.7625C14.6353 22.7653 14.6404 22.7681 14.6453 22.7709C14.8926 22.9083 15.1484 23.0502 15.4056 23.1872C15.9335 23.4686 16.3921 23.6624 16.8485 23.7968C17.1464 23.8845 17.425 23.9428 17.6966 23.9742L17.7644 24H17.9254H18.3177H18.391L18.4631 23.9877C18.4797 23.9849 18.4961 23.9822 18.5126 23.9791C18.5305 23.9759 18.5484 23.9725 18.5663 23.9701C19.2464 23.8774 19.8417 23.5519 20.2879 23.0282C20.5862 22.6782 20.9006 22.2988 21.249 21.8683C21.649 21.3744 21.9814 20.9615 22.3169 20.5218C22.496 20.2872 22.6617 20.0485 22.8216 19.8178C22.8898 19.7193 22.958 19.6208 23.0273 19.5229C23.0378 19.5081 23.048 19.4931 23.0576 19.4776C23.1128 19.3907 23.1874 19.3154 23.2913 19.2421C23.5959 19.0277 23.9223 18.791 24.3183 18.497C25.2583 17.7996 26.0934 17.1034 26.8707 16.3686C27.679 15.6048 28.367 14.8618 28.9737 14.0974C29.4494 13.4983 29.8314 12.9175 30.1414 12.3216C30.4689 11.6926 30.6992 11.0933 30.8452 10.4897C30.9377 10.1071 30.9844 9.77405 30.9904 9.44892L31 9.39408V9.3171V9.15647V9.0683L30.9889 9.0139Z" />
</mask>
<g mask="url(#mask0)">
<path fill-rule="evenodd" clip-rule="evenodd" d="M0 0H34V24H0V0Z" />
</g>
</svg>
