<svg width="34" height="24" viewBox="0 0 34 24"  xmlns="http://www.w3.org/2000/svg">
<path d="M24.6271 9.40091H24.5819C24.4916 9.37833 24.4013 9.31061 24.3788 9.22031C24.3788 9.10743 24.4691 9.01712 24.5819 8.99455C25.0109 8.9494 25.3947 8.85909 25.7333 8.74622C25.8236 8.70106 25.9591 8.74622 26.0042 8.85909C26.0494 8.97197 25.9816 9.08485 25.8688 9.13C25.485 9.26546 25.0786 9.35576 24.6271 9.40091Z" />
<path d="M23.3628 9.37834C22.9339 9.35576 22.5275 9.26546 22.1212 9.15258C22.0083 9.13 21.9406 9.01713 21.9632 8.88167C21.9857 8.76879 22.1212 8.72364 22.2341 8.74622C22.5953 8.8591 22.9791 8.92682 23.3854 8.97197C23.4983 8.97197 23.6112 9.08485 23.5886 9.19773C23.5886 9.31061 23.4757 9.37834 23.3628 9.37834Z" />
<path d="M23.566 9.875C23.4477 9.875 23.3295 9.85779 23.1962 9.8384C23.1768 9.83558 23.1571 9.83272 23.137 9.82985C23.0016 9.80727 22.9113 9.89757 22.8887 10.0105C22.8661 10.1233 22.9564 10.2362 23.0693 10.2362C23.1483 10.2475 23.2217 10.2531 23.2951 10.2588C23.3684 10.2644 23.4418 10.2701 23.5208 10.2814H23.5434C23.6563 10.2814 23.7466 10.1911 23.7692 10.0782C23.7917 9.98788 23.7014 9.89757 23.566 9.875Z" />
<path d="M24.4239 9.85242C24.5593 9.85242 24.6948 9.82985 24.8302 9.80727C24.9431 9.80727 25.056 9.875 25.1011 9.9653C25.1237 10.0782 25.0334 10.1911 24.9205 10.2136C24.8415 10.2249 24.7681 10.2306 24.6948 10.2362C24.6214 10.2419 24.548 10.2475 24.469 10.2588H24.4465C24.3336 10.2588 24.2207 10.1911 24.2207 10.0782C24.2207 9.9653 24.311 9.85242 24.4239 9.85242Z" />
<path d="M22.1889 9.65426C22.0986 9.62918 22.0083 9.60409 21.918 9.55894C21.8052 9.51379 21.6697 9.58152 21.6471 9.67182C21.602 9.7847 21.6697 9.89757 21.7826 9.94273C21.8503 9.9653 21.9237 9.98788 21.9971 10.0105C22.0704 10.033 22.1438 10.0556 22.2115 10.0782H22.2793C22.3696 10.0782 22.4599 10.0105 22.4824 9.92015C22.505 9.82985 22.4373 9.71697 22.3244 9.6944C22.2793 9.67935 22.2341 9.6668 22.1889 9.65426Z" />
<path d="M25.643 9.62666C25.7784 9.58151 25.9138 9.53636 26.0267 9.49121C26.1396 9.44606 26.275 9.49121 26.3202 9.60409C26.3653 9.69439 26.3202 9.82985 26.2073 9.875C26.0719 9.94272 25.9364 9.98788 25.7784 10.033H25.7107C25.6204 10.033 25.53 9.98788 25.5075 9.89757C25.4623 9.7847 25.5301 9.67181 25.643 9.62666Z" />
<path d="M20.934 9.03588C20.9151 9.02148 20.8969 9.0076 20.8795 8.99455C20.7892 8.92682 20.6538 8.92683 20.5635 9.01713C20.4732 9.10743 20.4957 9.24288 20.586 9.31061C20.6989 9.40091 20.8344 9.49122 20.9698 9.58152C20.9819 9.58757 20.9924 9.59362 21.0021 9.59923C21.0287 9.61457 21.0496 9.62667 21.0827 9.62667C21.1504 9.62667 21.2182 9.60409 21.2633 9.53636C21.331 9.40091 21.3084 9.26546 21.1956 9.22031C21.1044 9.16563 21.0133 9.09623 20.934 9.03588Z" />
<path fill-rule="evenodd" clip-rule="evenodd" d="M27.3813 5.68508C27.2828 5.78988 27.1699 5.90993 27.0427 6.03714C27.6296 6.73699 28.0134 7.61744 27.9908 8.58819C28.1037 10.9361 26.2751 12.9227 23.9046 13.013C22.8436 13.0582 21.8503 12.7195 21.0827 12.11C20.4292 12.7834 19.7801 13.4525 19.1627 14.0888C16.9861 16.3324 15.2033 18.17 15.0099 18.3634C14.6261 18.7698 14.1294 18.8149 13.6779 18.5215C13.5424 18.4312 13.407 18.3409 13.2715 18.2731C12.7297 17.9571 12.7297 17.9571 12.3008 18.4312C12.2895 18.4424 12.2782 18.4594 12.2669 18.4763C12.2556 18.4932 12.2443 18.5102 12.2331 18.5215C11.4768 19.3568 10.7261 20.1977 9.97549 21.0386C9.22486 21.8796 8.47422 22.7205 7.71793 23.5558C7.22127 24.1202 6.43112 24.1428 5.88931 23.6461C5.81029 23.5784 5.73692 23.505 5.66355 23.4317C5.59018 23.3583 5.51681 23.2849 5.43779 23.2172C4.8734 22.698 4.85082 21.9078 5.39264 21.3434C5.97961 20.7452 6.57222 20.1413 7.16483 19.5374C7.75744 18.9335 8.35005 18.3296 8.93701 17.7313C9.21921 17.4491 9.49576 17.1669 9.77231 16.8847C10.0489 16.6025 10.3254 16.3203 10.6076 16.0381L10.4044 15.6318C10.2916 15.4286 10.1561 15.248 10.0207 15.0674C9.70462 14.6159 9.72716 14.1418 10.0884 13.7354C10.5173 13.2613 20.6086 2.10898 22.1889 0.370661C22.5501 -0.0356998 23.1145 -0.126003 23.566 0.190056C23.9498 0.438388 24.311 0.709295 24.6722 1.00278C25.801 1.88323 26.7943 2.89913 27.6748 4.02791C28.036 4.502 27.9908 5.04382 27.5845 5.47275C27.5254 5.53188 27.4576 5.6039 27.3813 5.68508ZM6.30696 22.7205C6.35775 22.7657 6.40854 22.8108 6.4537 22.856C6.79233 23.172 6.97293 23.1495 7.19869 22.7657C7.04066 22.6077 6.87699 22.4553 6.71331 22.3029C6.54964 22.1505 6.38597 21.9981 6.22794 21.8401C5.88931 22.0658 5.86673 22.3142 6.16022 22.5851C6.20537 22.6302 6.25616 22.6754 6.30696 22.7205ZM14.8856 17.2458C15.0607 17.0652 15.2384 16.8817 15.4162 16.6928C17.1094 14.9545 18.8026 13.2162 20.4732 11.4779C19.8862 10.778 19.525 9.89757 19.4798 8.92682C19.367 6.57896 21.1956 4.5923 23.566 4.502C24.6045 4.45685 25.5978 4.79548 26.3654 5.40502C26.4444 5.32601 26.5234 5.24135 26.6024 5.15669C26.6815 5.07203 26.7605 4.98738 26.8395 4.90836C26.9975 4.75033 26.9975 4.63745 26.8621 4.47942C25.801 3.17004 24.5819 2.01868 23.2048 1.04793C23.0242 0.912476 22.9339 0.957627 22.7759 1.11566C21.4439 2.59435 20.1063 4.0674 18.7687 5.54044C17.4311 7.01352 16.0935 8.48659 14.7615 9.9653L10.9688 14.1644C10.7557 14.3988 10.7639 14.4119 10.9174 14.6595C10.9265 14.6742 10.9361 14.6897 10.9462 14.7062C11.0478 14.8642 11.1381 15.0279 11.2284 15.1916C11.3187 15.3552 11.409 15.5189 11.5106 15.6769C11.5854 15.8266 11.6757 15.9607 11.7815 16.1178C11.8034 16.1503 11.826 16.1839 11.8493 16.2187C12.4588 15.5641 13.0232 14.9545 13.5876 14.345C14.7841 13.0582 16.0032 11.7488 17.2223 10.462C17.4706 10.1911 17.7189 10.1685 17.9447 10.3717C18.1479 10.5523 18.1479 10.8458 17.8995 11.0941L12.6846 16.6477C12.662 16.6815 12.6338 16.7098 12.6027 16.7408C12.5717 16.7719 12.5378 16.8057 12.504 16.8509C12.82 17.0089 13.1248 17.1669 13.4296 17.325C13.7343 17.483 14.0391 17.641 14.3552 17.799C14.5271 17.6156 14.7049 17.4322 14.8856 17.2458ZM26.8846 9.46864C26.8169 9.46864 26.7492 9.42349 26.704 9.37833C26.6137 9.28803 26.6363 9.15258 26.7492 9.06228C26.8621 8.99455 26.9524 8.90425 27.0427 8.81394C27.0652 8.79137 27.1104 8.76879 27.133 8.76879V8.61076C27.133 8.56561 27.1273 8.5261 27.1217 8.4866C27.116 8.44709 27.1104 8.40758 27.1104 8.36243C27.0878 8.40758 27.0652 8.45273 27.0201 8.47531C27.006 8.48002 26.9928 8.48473 26.9802 8.48924C26.9325 8.50633 26.8931 8.52046 26.8395 8.52046C26.7943 8.52046 26.7492 8.49789 26.704 8.45273C26.6137 8.36243 26.6137 8.22698 26.704 8.15925C26.8169 8.04637 26.9298 7.9335 26.9975 7.82062C26.5686 6.3532 25.1915 5.31472 23.6112 5.38245C22.1212 5.45018 20.9021 6.4435 20.5183 7.79804C20.6989 7.97865 20.9247 8.13668 21.173 8.29471C21.2633 8.36243 21.3085 8.49788 21.2407 8.58819C21.1956 8.65591 21.1279 8.67849 21.0375 8.67849C21.015 8.67849 20.9698 8.67849 20.9472 8.65591C20.7441 8.54304 20.586 8.43016 20.428 8.29471C20.4054 8.47531 20.4054 8.67849 20.4054 8.88167C20.4957 10.7329 22.076 12.1777 23.9272 12.11C25.5301 12.0423 26.8169 10.8683 27.0878 9.35576L27.0201 9.42348C26.9749 9.44606 26.9298 9.46864 26.8846 9.46864Z" />
</svg>
