<svg width="34" height="24" viewBox="0 0 34 24"  xmlns="http://www.w3.org/2000/svg">
<path fill-rule="evenodd" clip-rule="evenodd" d="M28.0231 3.83487C29.0444 4.56643 29.8904 5.51584 30.4999 6.61441C30.8853 7.24142 31.0553 7.97711 30.9843 8.70962C30.8818 9.52212 30.4012 10.2383 29.6884 10.6414C27.8728 11.7559 25.9099 12.61 23.8568 13.1787C21.7822 13.7645 19.5807 13.7245 17.5287 13.0636C16.6841 12.8278 15.8007 12.764 14.9309 12.8759C14.03 12.9605 13.155 13.224 12.3573 13.651L11.7517 13.9659C11.2369 14.2445 10.7041 14.5291 10.153 14.7592C9.56214 15.015 8.92566 15.1489 8.28186 15.1528C7.53186 15.153 6.7948 14.9568 6.14417 14.5836C4.81189 13.8726 3.81971 12.658 3.38892 11.2106C3.04944 9.92267 3.24842 8.55206 3.93994 7.41372C5.95117 3.72058 9.50244 1.1148 13.6289 0.30444C14.7965 0.0842256 15.9834 -0.0172148 17.1715 0.0016756C21.1008 0.111753 24.8965 1.45251 28.0231 3.83487ZM8.40296 4.54941C8.13037 4.725 7.84583 4.89459 7.57935 5.08835V5.0823C7.38306 5.18002 7.29993 5.41601 7.3916 5.6152C7.48889 5.82153 7.71167 5.93789 7.93665 5.89981C8.02808 5.88287 8.11743 5.85733 8.20374 5.82358C8.22876 5.81381 8.25342 5.80337 8.27783 5.79226L8.31543 5.77441L8.3545 5.75448C11.6937 4.00216 15.4694 3.25546 19.2242 3.60473C21.8961 3.79254 24.4313 4.85687 26.4365 6.63253C26.5244 6.70797 26.6312 6.75818 26.7454 6.77786C26.9337 6.81738 27.1256 6.72879 27.2177 6.55987C27.3269 6.36258 27.295 6.11712 27.139 5.95431C26.3914 5.00024 25.4861 4.18103 24.4624 3.53207C23.6783 3.02545 22.8341 2.61859 21.9493 2.32095C20.5581 1.74231 19.0658 1.44589 17.559 1.44894C16.1851 1.46179 14.8196 1.66559 13.5017 2.0545C11.6697 2.58249 9.94409 3.42685 8.40296 4.54941ZM24.0326 7.63171C23.9054 7.81338 23.7358 7.77099 23.5602 7.68622C21.4502 6.7474 19.1521 6.30807 16.8445 6.40243C15.1501 6.49316 13.4708 6.76935 11.8366 7.22598C11.7139 7.25763 11.5916 7.29013 11.4695 7.32324C11.3398 7.3584 11.2103 7.39419 11.0809 7.43042C10.9301 7.47265 10.7792 7.51541 10.6282 7.55822L10.3815 7.62805L10.1531 7.69226C10.1337 7.70031 10.1139 7.70749 10.0939 7.71377C10.069 7.72165 10.0436 7.72812 10.0179 7.73318C9.97095 7.74252 9.92285 7.7471 9.87451 7.74676C9.77759 7.74676 9.63233 7.6741 9.61414 7.60748C9.61023 7.59314 9.60999 7.57568 9.61243 7.55615C9.61463 7.53863 9.61914 7.51947 9.62512 7.49936C9.63025 7.48248 9.63636 7.46493 9.64319 7.4472C9.66126 7.40045 9.68421 7.35226 9.70496 7.31076C9.71375 7.29312 9.72254 7.2799 9.73145 7.26993C9.7439 7.2558 9.75659 7.24817 9.76941 7.24374C9.77552 7.2416 9.78174 7.2402 9.78797 7.23919C9.79431 7.23816 9.80078 7.23748 9.80725 7.23681C9.81409 7.23611 9.82105 7.23538 9.82801 7.23419C9.83728 7.23263 9.84668 7.23025 9.85633 7.22598C11.6848 6.45315 13.5972 5.8963 15.5547 5.56674C17.5782 5.19323 19.6638 5.34756 21.6104 6.01486C22.4138 6.30786 23.1705 6.71582 23.8569 7.22598C23.9962 7.33499 24.1658 7.43188 24.0326 7.62567V7.63171ZM28.7856 10.2477C28.8969 10.1867 29.0061 10.1221 29.1132 10.054L29.1252 10.0721C29.1854 10.0282 29.2423 9.97992 29.2954 9.92785C29.3193 9.90432 29.3425 9.88003 29.365 9.85498C29.3846 9.83307 29.4037 9.81057 29.422 9.78753C21.0175 10.5644 12.5565 10.5036 4.16407 9.60586V10.2114L4.63636 10.278H4.79383C7.16162 10.5929 9.56568 10.8109 11.9334 10.932C14.5313 11.0653 17.2684 11.0895 20.0782 11.0108C22.5247 10.9441 25.062 10.7867 27.8293 10.5324H27.9626C28.0331 10.5314 28.1033 10.5246 28.1724 10.5119C28.2012 10.5066 28.2299 10.5004 28.2583 10.4931C28.2831 10.4868 28.3076 10.4797 28.332 10.4718C28.4865 10.4037 28.6378 10.3289 28.7856 10.2477ZM28.9861 8.0556C28.0842 7.24792 27.5707 6.09314 27.5751 4.88247C27.5754 4.82852 27.5797 4.77475 27.5879 4.72152C27.5949 4.67575 27.6047 4.6304 27.6174 4.58575C28.5687 5.3193 29.3274 6.27322 29.8278 7.36526C29.9869 7.74817 30.0553 8.16269 30.0276 8.57638C29.6356 8.53042 29.2708 8.3533 28.9921 8.07379L28.9861 8.0556ZM15.9059 17.7689C16.7899 16.6788 17.6802 15.6009 18.5582 14.5109C18.6331 14.383 18.7856 14.323 18.9276 14.3656C19.1377 14.4191 19.3364 14.4531 19.5432 14.4883C19.6404 14.5049 19.7394 14.5218 19.842 14.5412L19.6967 14.7289C18.6349 16.0329 17.5691 17.3349 16.4993 18.6348C16.4138 18.7293 16.4138 18.8733 16.4993 18.9679C17.2502 20.3122 17.9971 21.6606 18.7399 23.013C18.8612 23.1977 18.8779 23.4322 18.7842 23.6322C18.6903 23.8323 18.4993 23.9693 18.2797 23.994C17.9956 24.0311 17.7213 23.8754 17.6074 23.6125L15.9482 20.6271C15.7969 20.3607 15.6273 20.1063 15.5062 19.8278C15.2639 19.3311 14.9044 18.9008 14.4586 18.5742C13.632 17.9037 12.8141 17.2214 11.9971 16.5396C11.6409 16.2424 11.2848 15.9453 10.9281 15.6494L10.7949 15.5586C11.0977 15.395 11.3702 15.2618 11.6306 15.1044C11.7216 15.0368 11.8497 15.0528 11.9213 15.1407L14.61 17.3813L14.7662 17.512C14.9304 17.6498 15.0936 17.7868 15.2639 17.9202C15.2938 17.9375 15.3252 17.9517 15.3577 17.9626C15.3939 17.9748 15.4315 17.983 15.4699 17.9868C15.6758 18.0353 15.7908 17.9142 15.9059 17.7689Z" />
</svg>
