<svg width="34" height="24" viewBox="0 0 34 24"  xmlns="http://www.w3.org/2000/svg">
<path fill-rule="evenodd" clip-rule="evenodd" d="M5.90331 7.43253C7.7506 2.94382 12.1201 0.0100403 16.974 -0.000549316C23.5934 -0.000610351 28.9684 5.34863 29 11.9679C29.0127 16.8219 26.0998 21.2054 21.6201 23.0741C17.1403 24.9429 11.9758 23.9288 8.53539 20.5048C5.09496 17.0807 4.05602 11.9212 5.90331 7.43253ZM21.204 3.90527C20.386 3.42953 19.4812 3.12201 18.5426 3.0007L18.0773 5.6987L19.9387 6.33139L19.6877 6.85425L21.1883 7.98886L17.889 11.1679L18.1034 11.4607L22.1766 9.38495L21.1936 7.99411L21.5753 7.60196C22.0143 8.05457 22.3795 8.5733 22.6576 9.13919L22.2079 9.36923L22.7308 11.2045L23.3008 11.0634L22.6681 9.13394L25.1674 7.86862C24.7595 7.05615 24.2307 6.31039 23.5987 5.65689L21.6223 7.5549L19.9596 6.31046L21.204 3.90527ZM22.7256 11.215V12.6529L22.7211 12.6883L22.717 12.7157L22.7139 12.7349L22.7098 12.7576C22.7028 12.7962 22.694 12.8345 22.6837 12.8725L18.2289 12.1823V11.8215L20.059 11.5549L22.485 11.2098C22.5635 11.2056 22.6421 11.2074 22.7203 11.215H22.7256ZM11.7401 14.577L11.3009 12.7836L13.8317 12.428L15.7454 12.1823V11.832L11.3009 11.1209C11.1931 11.6699 11.1931 12.2346 11.3009 12.7836L10.7405 12.8096L10.7224 12.5953C10.7002 12.3362 10.6774 12.07 10.6733 11.8477C10.6691 11.6081 10.6937 11.365 10.702 11.1242C10.7037 11.0759 10.7047 11.0277 10.7047 10.9797C10.6423 10.9882 10.579 10.9882 10.5165 10.9797L9.33483 10.7863L7.97021 10.5719C7.83288 11.4372 7.82226 12.3179 7.93883 13.1862L10.7369 12.8208C10.785 13.5112 10.9714 14.1849 11.2853 14.8019L11.7401 14.577ZM10.7369 12.8208L10.7362 12.8098L10.7405 12.8096L10.7413 12.8202L10.7369 12.8208ZM10.8251 10.5562L10.6891 10.9692L11.2695 11.1209L11.8668 9.32867L15.8968 11.4503L16.1164 11.1366L12.927 7.85818L14.48 6.77585L16.4303 10.8856L16.7649 10.7758L16.0486 6.27911L14.4811 6.77551L14.4956 6.76538L14.2132 6.28433V6.26721L14.2185 6.27911L15.9878 5.69455L16.0799 6.24252H17.957L18.0408 5.68304H15.9892L15.5622 2.9798C14.6913 3.10602 13.8448 3.36523 13.0525 3.74841C13.1359 3.92429 13.2187 4.09766 13.3007 4.26965L13.3281 4.32684C13.4735 4.63107 13.6169 4.93124 13.7584 5.23337C13.8578 5.46194 13.9551 5.68213 14.0516 5.90057L14.2132 6.26343C13.6075 6.58887 13.0526 7.00107 12.5662 7.48694L12.9217 7.8634L11.8517 9.30746L11.3479 9.05554L10.8251 10.5562ZM15.9892 5.68304L15.991 5.69348L15.9878 5.69455L15.9858 5.68304H15.9892ZM11.8517 9.30746L11.8707 9.31699L11.8668 9.32867L11.8446 9.31699L11.8517 9.30746ZM15.8865 12.5744L16.1112 12.8829L12.8068 16.0515L11.761 14.5718L15.8865 12.5744ZM16.7805 13.2333L16.4093 13.0973L14.3335 17.0973C14.8735 17.3913 15.4612 17.5878 16.0694 17.6776L16.7805 13.2333ZM16.3465 12.0045C16.3487 11.7482 16.5054 11.5185 16.7432 11.4228C16.9811 11.3272 17.253 11.3846 17.4321 11.5681C17.6111 11.7516 17.6616 12.025 17.5602 12.2604C17.4586 12.4958 17.2251 12.6466 16.9687 12.6424C16.8027 12.637 16.6459 12.5654 16.533 12.4436C16.4199 12.3219 16.3603 12.16 16.3674 11.994L16.3465 12.0045ZM17.5439 10.9117L17.1883 10.781L17.9518 6.28955L19.6511 6.84378L17.5439 10.9117ZM10.5532 5.5314L12.5663 7.39804L11.3428 9.03464L8.91662 7.7536C9.33971 6.92514 9.89013 6.16824 10.548 5.5105L10.5532 5.5314ZM10.4067 18.3469C9.7484 17.6626 9.20153 16.8792 8.78588 16.0254L11.2538 14.8228L12.3884 16.4384L12.8173 16.0463L14.3231 17.1809L14.0535 17.6993L14.0511 17.6986L14.0492 17.7023L12.3937 16.4646L10.4067 18.3469ZM12.7869 20.118L14.0492 17.7023L14.0511 17.7038L14.0535 17.6993L15.6511 18.2214L15.991 18.326L15.5727 21.0554C14.5974 20.904 13.6553 20.5869 12.7869 20.118ZM12.7869 20.118L12.7806 20.1299L12.7701 20.109L12.7869 20.118ZM18.5321 21.024L18.5293 21.0073C19.4575 20.8787 20.3547 20.5832 21.1778 20.1351L19.9335 17.709L18.0825 18.3156L17.9674 17.7509H16.1008L15.9962 18.3156C16.4198 18.3521 16.8433 18.3521 17.2668 18.3521C17.3472 18.3521 17.4249 18.3473 17.5015 18.3404C17.5569 18.3354 17.6118 18.3294 17.6667 18.3234C17.7975 18.309 17.9282 18.2946 18.0668 18.2946L18.5293 21.0073L18.5217 21.0083L18.5321 21.024ZM21.6067 16.4594L23.6249 18.4096L25.1151 16.2136L22.6472 14.9273L23.2223 12.9404L22.6995 12.8568L22.125 14.6322L18.0773 12.5431L17.8787 12.8359L21.1622 16.0254L19.6459 17.1443L17.5544 13.0659L17.2041 13.2019L17.9623 17.6881L19.6459 17.1652L19.9282 17.6881L21.6067 16.4594ZM22.128 14.6366L22.6472 14.9169L21.6014 16.3757L21.1831 15.9679L22.128 14.6366ZM23.3059 12.9666V11.0634L25.1882 10.8228L26.0561 10.7026C26.1891 11.5935 26.1891 12.4992 26.0561 13.3901L23.3059 12.9666Z" />
</svg>
