<svg width="34" height="24" viewBox="0 0 34 24"  xmlns="http://www.w3.org/2000/svg">
<path d="M27.1108 8.32898L27.1197 8.32964L27.1286 8.33008C27.5539 8.35129 27.9854 8.64307 28.1714 9.28299L28.1756 9.29729L28.1803 9.31142C28.3483 9.81396 28.205 10.3631 27.8312 10.7121L23.2478 14.6138C22.8707 14.9024 22.7761 15.3788 22.8762 15.7442L24.2599 21.657L24.2607 21.6603C24.3544 22.0527 24.268 22.4528 24.0193 22.7977C23.7795 23.0922 23.4333 23.25 23.1144 23.25C22.8927 23.25 22.6842 23.1799 22.5273 23.0566L22.5 23.0352L22.4708 23.0164L17.4899 19.8009C17.3376 19.6979 17.1394 19.6166 16.9058 19.6166C16.6716 19.6166 16.4729 19.6983 16.3204 19.8018L11.3762 23.0178L11.3744 23.0189C11.1924 23.1381 10.9592 23.2107 10.7347 23.2107C10.4088 23.2107 10.0643 23.0414 9.81215 22.7067C9.59981 22.3766 9.52497 21.969 9.62529 21.5454L11.0875 15.657L11.0875 15.657L11.0891 15.6504C11.13 15.4789 11.1452 15.2656 11.0742 15.0425C11.0057 14.8273 10.8744 14.6583 10.7164 14.5371L6.2086 10.6363C5.78826 10.243 5.65161 9.72533 5.82058 9.1885C5.99679 8.66759 6.42443 8.35233 6.87057 8.33008L6.87951 8.32964L6.88844 8.32898L12.7223 7.89826C13.1373 7.88295 13.5107 7.6103 13.652 7.21193L15.8964 1.53261L15.8965 1.53262L15.8995 1.52461C16.0915 1.02211 16.4931 0.75 16.9996 0.75C17.4771 0.75 17.9108 1.03013 18.0997 1.52461L18.0996 1.52462L18.1028 1.53261L20.3472 7.21192C20.4885 7.6103 20.8619 7.88294 21.2769 7.89826L27.1108 8.32898Z" stroke="white" stroke-width="1.5"/>
</svg>
