<svg width="34" height="24" viewBox="0 0 34 24"  xmlns="http://www.w3.org/2000/svg">
<path fill-rule="evenodd" clip-rule="evenodd" d="M17.1538 16.5259L17.1824 16.5592L17.1222 16.5893C16.6471 16.8163 16.1615 17.0379 15.6707 17.2385C14.9253 17.5338 14.1475 17.7394 13.3535 17.8508L12.8838 17.9141L12.43 17.9616L11.9444 17.9985C11.5808 18.0304 11.2152 18.0304 10.8517 17.9985C10.543 17.9677 10.2395 17.8968 9.94913 17.7874L8.73514 17.3335L7.60037 16.9377C7.52335 16.9107 7.44485 16.8886 7.36526 16.8714C7.32254 16.8621 7.27957 16.8543 7.23624 16.8479C7.20413 16.8429 7.17178 16.8392 7.13943 16.8368C7.11282 16.8349 7.08609 16.8339 7.05936 16.8337C6.99673 16.8335 6.93411 16.8382 6.87198 16.8479C6.6752 16.8792 6.49173 16.9673 6.34415 17.1013L6.19107 17.2543C5.66519 17.8012 5.29996 18.4824 5.13553 19.2231C5.048 19.6147 5.00381 20.0147 5.00357 20.416V21.213C4.99881 21.2533 4.99881 21.294 5.00357 21.3344C5.00967 21.3617 5.017 21.3895 5.02444 21.4175C5.04288 21.4867 5.06155 21.557 5.06155 21.6247C5.06656 21.6506 5.07278 21.6762 5.08035 21.7014L5.0856 21.7183L5.09329 21.7408C5.23416 22.1183 5.48856 22.4429 5.82169 22.6697C5.96353 22.7655 6.11368 22.8485 6.27029 22.9178C6.42703 22.9879 6.58731 23.0495 6.75064 23.1025C7.68875 23.4171 8.65067 23.6554 9.62723 23.8151C9.90164 23.8573 10.1603 23.9207 10.4295 23.9207L10.7515 23.9523C10.9696 23.9805 11.1895 23.9945 11.4113 23.9945C11.9549 24.0104 12.5143 23.9893 13.0421 23.9629H13.0685L13.8391 23.9207H14.2561L14.6468 23.8837C14.6936 23.8792 14.7403 23.8734 14.7868 23.8665C14.8513 23.8569 14.9154 23.845 14.9793 23.8309L16.9005 23.3506C17.1726 23.2884 17.4406 23.209 17.7028 23.1131L18.0006 23.0074L18.0021 23.007L18.0036 23.0065C18.2179 22.9307 18.4326 22.8547 18.646 22.7756C18.7757 22.7276 18.9047 22.6785 19.0329 22.6275C19.3771 22.4951 19.7137 22.3435 20.041 22.1736C20.2845 22.0461 20.5175 21.8997 20.7377 21.7355C21.2729 21.3351 21.6472 20.7567 21.7934 20.1046C21.8595 19.8242 21.8949 19.5375 21.899 19.2495V18.7216V18.5739L21.8977 18.564L21.8975 18.5587C21.8974 18.5514 21.8979 18.5441 21.899 18.5369H21.9939C22.0677 18.5352 22.1414 18.5315 22.2149 18.5258C22.2946 18.5195 22.3741 18.5109 22.4532 18.5C22.7202 18.4672 22.9848 18.416 23.2449 18.3469C25.873 17.6549 27.7207 15.3004 27.7682 12.5832C27.7737 12.3045 27.7597 12.0258 27.726 11.7492C27.6924 11.4822 27.6413 11.2177 27.573 10.9575C27.2733 9.79858 26.6359 8.75497 25.7415 7.95947C25.729 7.94791 25.7177 7.93777 25.7074 7.92877L25.6869 7.9108C25.674 7.89954 25.6635 7.89041 25.6552 7.88245C25.6415 7.86923 25.6341 7.85928 25.6319 7.84827C25.6269 7.82327 25.6493 7.79279 25.6886 7.70612L27.8 3.0455L29.1248 0.121399C29.1481 0.0677185 29.1601 0.0377808 29.1548 0.0210571C29.1481 0 29.1139 0 29.0403 0H27.42C27.3922 0 27.3672 0.0166626 27.3566 0.0422363L27.3091 0.142517L24.3058 6.84052L24.2583 6.93552C24.242 6.95093 24.2165 6.95093 24.2002 6.93552L23.9152 6.81412C23.315 6.577 22.6806 6.43799 22.0362 6.4024C21.6714 6.38242 21.3057 6.39655 20.9436 6.44464C18.8738 6.7027 17.0807 8.00366 16.1933 9.8913C15.9516 10.4051 15.7845 10.9507 15.6971 11.5117C15.6519 11.7874 15.6271 12.0662 15.6232 12.3456V12.9948C15.6503 13.3045 15.7014 13.6116 15.7763 13.9132C16.013 14.8845 16.4862 15.782 17.1538 16.5259ZM16.4149 12.467V12.9368C16.4149 13.0682 16.4422 13.1962 16.4693 13.3236C16.476 13.3548 16.4826 13.386 16.4888 13.4171C16.4995 13.4678 16.511 13.5182 16.5232 13.5685C16.5296 13.595 16.5363 13.6213 16.5431 13.6476L16.5579 13.7033C16.5972 13.8473 16.6429 13.9896 16.6947 14.1296C16.8593 14.602 17.0846 15.0509 17.365 15.465C17.4753 15.6297 17.5988 15.7851 17.7345 15.9295C17.9853 16.1956 18.2891 16.406 18.6265 16.5471C18.6696 16.5647 18.7135 16.58 18.7582 16.593C18.817 16.61 18.8771 16.6229 18.9379 16.6315C18.9923 16.6368 19.0471 16.6368 19.1016 16.6315C19.1905 16.6259 19.2643 16.5607 19.281 16.4731C19.2841 16.4416 19.2841 16.4097 19.281 16.3781C19.2893 16.3062 19.2893 16.2336 19.281 16.1617C19.2701 16.0812 19.2701 15.9995 19.281 15.9189C19.2878 15.7441 19.3806 15.584 19.5291 15.4914C19.5398 15.4846 19.5508 15.4781 19.5618 15.4719L19.584 15.4599C19.5961 15.4536 19.6083 15.4477 19.6208 15.4421C19.6324 15.4368 19.6442 15.4319 19.6562 15.4272L19.6748 15.4202L19.6979 15.4123C19.8677 15.3553 20.0474 15.3337 20.2257 15.3489C20.3296 15.3541 20.4324 15.3718 20.5319 15.4017C20.5783 15.4167 20.626 15.4273 20.6745 15.4333C20.7617 15.4471 20.8488 15.4077 20.8961 15.3331C20.92 15.2949 20.9394 15.2542 20.9541 15.2117C20.9768 15.1471 20.9893 15.0795 20.9911 15.0111C20.9983 14.8765 21.0232 14.7434 21.065 14.6152C21.1357 14.4041 21.2851 14.2283 21.482 14.1244L21.6298 14.0558C21.6516 14.0475 21.6736 14.0396 21.6958 14.0323C21.7149 14.026 21.7342 14.02 21.7536 14.0145L21.7873 14.0051C21.8207 13.9963 21.8544 13.9885 21.8885 13.9819C21.9856 13.9599 22.0828 13.9417 22.1801 13.9261C22.2465 13.9154 22.3129 13.906 22.3793 13.8974L22.7118 13.8446L22.8279 13.813C22.9203 13.7804 22.9832 13.6944 22.9862 13.5966C22.9888 13.5473 22.9888 13.498 22.9862 13.4488C22.9789 13.3539 22.9789 13.2586 22.9862 13.1638C23.0177 12.9021 23.12 12.6539 23.2819 12.4459L23.3557 12.3509C23.3853 12.3108 23.4085 12.2662 23.4243 12.219C23.4389 12.1782 23.4431 12.1354 23.4378 12.0939C23.4356 12.0771 23.4319 12.0606 23.4267 12.0445C23.4226 12.0323 23.4178 12.0203 23.412 12.0086C23.4026 11.9897 23.3909 11.9716 23.3769 11.955C23.3416 11.9137 23.2985 11.8796 23.2502 11.8548L23.1446 11.7967C22.888 11.662 22.6768 11.4545 22.5376 11.2003C22.5186 11.167 22.5011 11.133 22.4854 11.0983C22.4651 11.0536 22.4475 11.0078 22.4329 10.961C22.412 10.8947 22.3969 10.8267 22.3876 10.7575C22.3838 10.7293 22.381 10.701 22.3793 10.6725C22.365 10.4372 22.4362 10.2048 22.5799 10.018L22.6378 9.94406C22.6579 9.91013 22.6756 9.87485 22.6907 9.8385C22.7296 9.74557 22.7111 9.63846 22.6432 9.56403C22.6092 9.52206 22.5681 9.48633 22.5218 9.45847L22.3898 9.38986C22.2487 9.31891 22.1128 9.23776 21.9834 9.14706L21.97 9.13742L21.939 9.1145C21.9198 9.09991 21.901 9.0849 21.8826 9.06946L21.8633 9.05301L21.8423 9.03461C21.8202 9.01468 21.7986 8.99408 21.7776 8.97287C21.7455 8.94131 21.7165 8.90686 21.6909 8.87C21.6651 8.8327 21.6429 8.79294 21.6245 8.75119C21.5847 8.64572 21.5847 8.52942 21.6245 8.42395C21.6507 8.34198 21.6939 8.26645 21.7511 8.20227C21.8048 8.14285 21.865 8.08972 21.9306 8.04391L22.089 7.92252C22.1304 7.88733 22.1646 7.8443 22.1892 7.79584C22.1989 7.77835 22.2066 7.75989 22.2121 7.74078C22.2143 7.73306 22.2162 7.72525 22.2177 7.71738L22.2196 7.7059L22.221 7.69556C22.2222 7.68204 22.2224 7.66852 22.2217 7.65515C22.2212 7.64798 22.2205 7.64084 22.2195 7.63376C22.2183 7.62555 22.2168 7.61743 22.2149 7.60938C22.204 7.5629 22.1808 7.51962 22.147 7.48444C22.0767 7.40662 21.9849 7.3515 21.8831 7.32608C21.8095 7.3045 21.7329 7.29385 21.6562 7.29443L21.5967 7.29532L21.5286 7.29721L21.4751 7.29929C21.315 7.3063 21.1553 7.32053 20.9964 7.34192C20.7101 7.37894 20.4275 7.44073 20.1519 7.52667C18.8336 7.93265 17.7294 8.84335 17.08 10.0602C16.6643 10.7958 16.4359 11.6223 16.4149 12.467ZM6.90897 18.4947C6.98624 18.382 7.11551 18.3164 7.25198 18.3205L7.38931 18.3733L7.74295 18.4525L8.93045 18.7533H9.00967C9.0137 18.7635 9.0137 18.7748 9.00967 18.785C9.01199 18.8061 9.01199 18.8273 9.00967 18.8484L8.68765 19.904L8.65604 19.9937C8.64041 20.0358 8.61295 20.0725 8.57681 20.0993C8.56241 20.1106 8.54617 20.1191 8.52908 20.1246C8.50894 20.131 8.48746 20.1333 8.46597 20.131C8.30765 20.1151 8.15457 20.0834 8.0015 20.0518C7.58438 19.9582 7.17508 19.8329 6.77701 19.677L6.40225 19.5292L6.3284 19.4976C6.32401 19.49 6.32242 19.4812 6.32388 19.4728C6.32462 19.4686 6.32608 19.4644 6.3284 19.4606V19.4237L6.73477 18.7533C6.79288 18.6636 6.85086 18.5844 6.90897 18.4947ZM15.5598 20.189H15.6759L16.9955 19.7984L17.1645 19.7456C17.2199 19.7255 17.2602 19.6771 17.2701 19.619C17.2715 19.6014 17.2715 19.5837 17.2701 19.5662L17.3017 19.1228L17.3333 18.6636C17.3333 18.5211 17.3333 18.3786 17.3598 18.2308H17.3333H17.2805L17.0325 18.3047L15.8026 18.6742L15.7129 18.7058C15.6825 18.7169 15.6579 18.7397 15.6443 18.7692C15.6118 18.8293 15.5939 18.8962 15.5916 18.9645V19.165L15.5493 20.1626C15.5489 20.1705 15.5486 20.1784 15.5486 20.1863V20.1974L15.5493 20.2154C15.5628 20.2107 15.5753 20.2035 15.5862 20.1943L15.5598 20.189ZM12.4492 20.5141L12.4405 20.511L12.4668 20.5321L12.4558 20.5157C12.4735 20.5196 12.4921 20.518 12.5091 20.511H12.8046L13.5857 20.4688L14.3511 20.4318H14.4038C14.4157 20.4318 14.4256 20.4318 14.4336 20.4305C14.4374 20.4299 14.4407 20.429 14.4438 20.4277C14.4485 20.4257 14.4524 20.4226 14.4557 20.418L14.4578 20.4147C14.4601 20.4105 14.4621 20.4052 14.4635 20.3987C14.4651 20.3918 14.4663 20.3836 14.4672 20.3737V19.8459V19.4817V19.0911C14.469 19.0795 14.4652 19.0676 14.4568 19.0593C14.4485 19.0509 14.4367 19.0471 14.425 19.0489H14.3564L13.6333 19.1175L12.9366 19.1809H12.7624C12.6902 19.1918 12.6308 19.2431 12.6093 19.3128C12.6083 19.3304 12.6083 19.348 12.6093 19.3656L12.4035 20.4212C12.4088 20.433 12.4146 20.4445 12.4206 20.456C12.4314 20.4764 12.4431 20.4964 12.4558 20.5157L12.4492 20.5141ZM11.464 19.8301L11.5696 19.2495C11.5728 19.2383 11.5712 19.2262 11.5652 19.2162C11.5591 19.2062 11.5493 19.1992 11.5379 19.1967H11.4745L10.7831 19.0858L9.93338 18.9539H9.88052C9.80118 18.9471 9.72733 18.9948 9.70108 19.07V19.1334L9.38968 20.152V20.189C9.38638 20.2106 9.40005 20.2313 9.42142 20.2365L9.76968 20.2893L10.1973 20.3474L10.6775 20.416L11.3162 20.5057H11.3426C11.345 20.4846 11.345 20.4634 11.3426 20.4424L11.464 19.8301ZM9.04129 21.1391C9.07047 21.0564 9.14883 21.0013 9.2366 21.0018L9.38431 21.0124L10.6353 21.2182L11.0364 21.2816H11.142C11.1476 21.2914 11.1476 21.3034 11.142 21.3132C11.1438 21.3308 11.1438 21.3485 11.142 21.366L11.0205 22.0839L10.9784 22.3372V22.4164L10.9765 22.4228C10.975 22.4265 10.9731 22.4301 10.9706 22.4332C10.9673 22.4373 10.9634 22.4409 10.9588 22.4436C10.9563 22.4451 10.9539 22.4463 10.9513 22.4472L10.9466 22.4485C10.9397 22.4502 10.9325 22.45 10.9256 22.4481H10.8306L9.59549 22.2317L8.82486 22.0997H8.77213C8.76639 22.0899 8.76639 22.0778 8.77213 22.068C8.77066 22.054 8.77066 22.0398 8.77213 22.0258L9.00967 21.2393L9.04129 21.1391ZM12.3455 21.2974C12.3455 21.3291 12.3455 21.3555 12.3139 21.3871C12.3 21.401 12.2921 21.4299 12.2865 21.4639C12.2836 21.4815 12.2812 21.5005 12.2787 21.5195C12.2752 21.5475 12.2716 21.5752 12.2664 21.5983L12.0763 22.4269C12.0755 22.433 12.0749 22.4391 12.0746 22.4453L12.0745 22.4586L12.0753 22.4713L12.0763 22.4797H12.2242L12.678 22.4269L12.9737 22.3953L13.5753 22.3266L14.177 22.2633H14.309C14.3284 22.261 14.3437 22.2457 14.346 22.2263V22.1841C14.346 22.0416 14.3776 21.8991 14.3882 21.7566C14.3913 21.7153 14.3952 21.6717 14.3992 21.6269C14.4092 21.517 14.4198 21.3993 14.4198 21.2868C14.4214 21.264 14.4214 21.2411 14.4198 21.2182C14.4237 21.2098 14.4237 21.2002 14.4198 21.1918H14.3407H13.9923H13.8551L13.169 21.2341L12.4563 21.271L12.3455 21.2974ZM6.07498 20.9807V20.8171H6.10135C6.09207 20.6595 6.1044 20.5015 6.13834 20.3473C6.14468 20.3442 6.15152 20.3425 6.15848 20.3424C6.16214 20.3423 6.1658 20.3427 6.16934 20.3434C6.17313 20.3442 6.17691 20.3455 6.18057 20.3473H6.25967L8.26016 20.8752L8.36038 20.9068C8.36246 20.9167 8.36307 20.9268 8.36221 20.9369C8.36185 20.9409 8.36124 20.945 8.36038 20.949C8.28653 21.1866 8.22318 21.4241 8.1387 21.6563V21.6933C8.11966 21.7436 8.0867 21.7875 8.04373 21.8199C8.00015 21.8614 7.93729 21.8756 7.88016 21.8569L7.69974 21.8086C7.42764 21.7359 7.15689 21.6636 6.8931 21.5771L6.48672 21.4346L6.37589 21.3871C6.21292 21.3116 6.09964 21.1585 6.07498 20.9807ZM23.2079 10.7464C23.2216 11.2079 23.5016 11.6196 23.9257 11.802C24.0215 11.8447 24.1309 11.8447 24.2266 11.802C24.2679 11.7858 24.3068 11.7646 24.3427 11.7386C24.4571 11.6577 24.5437 11.5434 24.5909 11.4114C24.6316 11.2772 24.6316 11.1339 24.5909 10.9997C24.5077 10.6931 24.3213 10.4246 24.063 10.2397C24.0033 10.1923 23.9352 10.1565 23.8625 10.1341C23.6753 10.0609 23.4623 10.1162 23.3346 10.2713L23.2871 10.3347C23.2315 10.4643 23.2149 10.6074 23.2395 10.7464H23.2079ZM24.9815 12.921V13.0952H25.0078C24.9994 13.2617 24.9638 13.4257 24.9023 13.5807C24.8227 13.8211 24.6806 14.036 24.4906 14.2036C24.4306 14.2571 24.3606 14.2984 24.2848 14.325C24.0835 14.3932 23.8621 14.3091 23.757 14.1244C23.711 14.0416 23.6839 13.9497 23.6778 13.8552C23.6704 13.7752 23.6709 13.6949 23.6791 13.6152L23.6829 13.5829L23.688 13.5473C23.6924 13.5196 23.6978 13.492 23.7041 13.4646C23.7583 13.2267 23.8667 13.0045 24.0209 12.8154C24.0866 12.7346 24.1649 12.665 24.2531 12.6096C24.3218 12.5653 24.3992 12.5365 24.48 12.5251C24.6 12.5055 24.7226 12.5373 24.818 12.6125C24.9134 12.6878 24.9727 12.7998 24.9815 12.921ZM18.2781 20.6693V21.0757V21.1179C18.2781 21.1338 18.2781 21.1707 18.3415 21.1549H18.3942L18.7478 21.0282L19.3706 20.8065C19.3827 20.8036 19.3943 20.7998 19.4057 20.7953C19.416 20.7911 19.4261 20.7863 19.4357 20.7809C19.4428 20.7768 19.4496 20.7725 19.4563 20.7678C19.5041 20.7344 19.5396 20.6851 19.5555 20.6271L20.0147 19.4764C20.0153 19.4629 20.0155 19.4494 20.0154 19.4359L20.0147 19.4131H19.9513L18.5262 20.0042L18.4523 20.0359C18.4098 20.0545 18.3759 20.0884 18.3573 20.1309C18.3537 20.148 18.3518 20.1653 18.3518 20.1827C18.3517 20.2007 18.3535 20.2188 18.3573 20.2365C18.3271 20.3358 18.318 20.4704 18.31 20.5912L18.3045 20.6693H18.2781ZM17.1908 20.5743V20.949H17.2172C17.2119 21.0599 17.2013 21.2182 17.1538 21.3607C17.156 21.3818 17.156 21.403 17.1538 21.4241C17.142 21.4778 17.1013 21.5205 17.0482 21.5349L16.663 21.651L15.5651 21.973H15.5017C15.492 21.9787 15.4799 21.9787 15.4701 21.973C15.4622 21.9205 15.4622 21.8672 15.4701 21.8147V21.4346C15.4622 21.3627 15.4622 21.2902 15.4701 21.2182C15.4882 21.1243 15.5514 21.0454 15.6391 21.0071C15.7047 20.9777 15.774 20.9564 15.8449 20.9438C15.9159 20.9295 15.9862 20.9123 16.0558 20.8921C16.1164 20.8746 16.1763 20.8548 16.2355 20.8329L17.1275 20.5215H17.1908C17.1933 20.539 17.1933 20.5568 17.1908 20.5743ZM22.8754 14.5625H22.8015C22.4887 14.5981 22.2023 14.7555 22.0045 15.0005C21.9683 15.0442 21.9364 15.0911 21.9093 15.1406C21.8866 15.1819 21.8673 15.2251 21.8515 15.2697C21.7893 15.422 21.7893 15.5926 21.8515 15.7448C21.8794 15.812 21.9229 15.8716 21.9782 15.919C22.0614 15.9971 22.1791 16.027 22.2896 15.9981H22.3529C22.5398 15.9319 22.7173 15.8414 22.8808 15.7289C23.0686 15.5924 23.2193 15.4109 23.3188 15.2011C23.3421 15.1571 23.3615 15.1112 23.3769 15.0639C23.3896 15.0255 23.3959 14.9855 23.3959 14.9456C23.3959 14.9053 23.3896 14.8651 23.3769 14.8264L23.3717 14.8123L23.364 14.7936C23.3606 14.7861 23.357 14.7787 23.3531 14.7715C23.3138 14.6984 23.2495 14.6408 23.1711 14.61C23.0849 14.5782 22.9937 14.5621 22.9019 14.5625H22.8754ZM20.231 18.3839C20.2639 18.3868 20.2952 18.3997 20.3207 18.4208H20.3155L20.231 18.463L18.5314 19.1861L18.4576 19.2178C18.4153 19.2231 18.4153 19.2072 18.4153 19.1808C18.4204 19.1125 18.427 19.0447 18.4336 18.9771L18.4347 18.9651C18.4406 18.9054 18.4464 18.8458 18.4513 18.7861L18.4562 18.7202L18.4585 18.6832L18.4604 18.6471C18.4619 18.6105 18.4628 18.5738 18.4628 18.5369C18.4701 18.4417 18.4777 18.3466 18.4856 18.2514C18.4969 18.1179 18.5086 17.9843 18.5209 17.8508V17.703C18.5258 17.6993 18.5316 17.6975 18.5374 17.6977C18.5428 17.6978 18.548 17.6996 18.5525 17.703L18.6476 17.7505C18.9397 17.9176 19.2451 18.0606 19.5607 18.178C19.7799 18.2596 20.0037 18.3283 20.231 18.3839ZM24.0155 9.08371V8.92535C24.0131 8.91431 24.0104 8.90338 24.0074 8.89255L24.0031 8.87845L23.9977 8.86246C23.9919 8.84576 23.9851 8.82938 23.9777 8.81339C23.9659 8.78812 23.9521 8.76379 23.9363 8.74063C23.7736 8.47241 23.5087 8.28189 23.2027 8.2128C23.0376 8.17084 22.8629 8.22366 22.7488 8.35004L22.696 8.41339C22.6158 8.51514 22.5957 8.65179 22.6432 8.77231C22.6638 8.82776 22.6903 8.88083 22.7223 8.93063C22.7971 9.04977 22.894 9.15366 23.0074 9.23679C23.1446 9.33731 23.2957 9.41733 23.456 9.4743H23.5458C23.6846 9.50812 23.8306 9.4588 23.9206 9.34763C23.989 9.26974 24.0298 9.17139 24.0367 9.06787L24.0155 9.08371ZM20.8961 16.9324H20.7377L20.7588 16.9218C20.6867 16.9285 20.6144 16.9283 20.5426 16.9214C20.4694 16.9145 20.3969 16.9005 20.3261 16.8796C20.215 16.8391 20.118 16.7677 20.0463 16.6737C20.0393 16.6642 20.0327 16.6545 20.0265 16.6447L20.0128 16.622L20.0033 16.6051L19.994 16.5866C19.9812 16.5602 19.9705 16.5329 19.9618 16.5049C19.9191 16.3727 19.9659 16.228 20.078 16.1459C20.0935 16.1347 20.1095 16.124 20.1259 16.114L20.1459 16.1021L20.1632 16.0925C20.1768 16.0853 20.1906 16.0784 20.2046 16.072C20.3714 16.0016 20.5517 15.9691 20.7325 15.977C20.9494 15.9855 21.1626 16.0356 21.3606 16.1248C21.4016 16.1434 21.4406 16.1664 21.4767 16.1934C21.5049 16.2142 21.5298 16.2391 21.5506 16.2673C21.5635 16.2839 21.5738 16.302 21.5815 16.321C21.584 16.3273 21.5862 16.3337 21.5882 16.3401L21.5919 16.3547L21.5949 16.3702L21.5963 16.3817L21.5968 16.3882C21.5974 16.3971 21.5976 16.4061 21.5971 16.4151C21.5959 16.4383 21.591 16.4615 21.5823 16.4837C21.5636 16.5347 21.5349 16.5814 21.4978 16.621C21.4516 16.6708 21.3982 16.7135 21.3395 16.7476L21.102 16.8796C21.0694 16.8943 21.0356 16.9061 21.001 16.915C20.9667 16.9238 20.9315 16.9296 20.8961 16.9324ZM25.3878 11.612C25.3875 11.7572 25.4107 11.9016 25.4565 12.0395C25.4756 12.1006 25.5021 12.1591 25.5357 12.2137L25.5492 12.2356C25.5544 12.2435 25.5598 12.2513 25.5655 12.2589C25.5728 12.2687 25.5805 12.2783 25.5884 12.2876C25.6346 12.3416 25.7021 12.3728 25.7731 12.3728C25.8443 12.3728 25.9118 12.3416 25.9579 12.2876C25.9785 12.2625 25.9966 12.2354 26.0117 12.2067C26.0214 12.1885 26.0298 12.1697 26.037 12.1503C26.0605 12.0934 26.0799 12.035 26.0952 11.9756C26.1067 11.9309 26.1159 11.8857 26.1227 11.8401C26.1256 11.8204 26.1282 11.8007 26.1303 11.7809L26.1336 11.744C26.136 11.7124 26.1372 11.6807 26.1374 11.6489C26.1376 11.6004 26.1348 11.5521 26.1292 11.5042C26.1134 11.3713 26.0753 11.2418 26.0159 11.1211C25.9919 11.0677 25.9578 11.0193 25.9157 10.9786C25.8454 10.9102 25.7398 10.8933 25.6518 10.9364C25.614 10.952 25.5812 10.9775 25.5568 11.0103C25.5286 11.0503 25.5038 11.0927 25.4828 11.1369C25.4148 11.2858 25.3822 11.4484 25.3878 11.612ZM25.1819 15.0058V15.0586H25.1925L25.1907 15.0661L25.187 15.0804L25.1853 15.0867L25.1825 15.0945L25.18 15.1005C25.1786 15.1033 25.1772 15.106 25.1754 15.1085C25.1717 15.1142 25.1669 15.1189 25.1608 15.1219C25.0944 15.3608 24.9628 15.5765 24.7808 15.7448C24.6801 15.8411 24.5664 15.9229 24.443 15.9876C24.364 16.0305 24.2722 16.0436 24.1844 16.0245C24.1396 16.0163 24.1026 15.9874 24.0828 15.9485C24.075 15.933 24.07 15.9159 24.0683 15.8979C24.0648 15.8751 24.0648 15.852 24.0683 15.8292C24.0716 15.8088 24.0755 15.7885 24.08 15.7684C24.0843 15.7498 24.0891 15.7314 24.0946 15.7131C24.1944 15.3822 24.4198 15.1036 24.7227 14.9372L24.8916 14.8528C24.8999 14.8508 24.9082 14.8491 24.9167 14.8479C24.9284 14.8462 24.9401 14.8452 24.9518 14.8449C24.9759 14.8445 25 14.8471 25.0236 14.8528C25.1079 14.8553 25.1765 14.9216 25.1819 15.0058ZM24.9286 9.08371V9.27899C24.9236 9.31403 24.9236 9.34958 24.9286 9.38458C24.9804 9.50439 25.0459 9.61777 25.1239 9.72238C25.177 9.7937 25.2411 9.85605 25.314 9.9071L25.3336 9.92038C25.3609 9.93793 25.3896 9.95291 25.4195 9.96518C25.4449 9.97415 25.4712 9.97525 25.4959 9.96964C25.5349 9.96069 25.5695 9.93481 25.5884 9.89655C25.5948 9.8844 25.6003 9.87186 25.6048 9.85901C25.6072 9.85211 25.6094 9.84512 25.6112 9.83804C25.6161 9.81927 25.619 9.79996 25.62 9.78043C25.6232 9.7565 25.625 9.73245 25.6255 9.70837C25.6263 9.67429 25.6244 9.64014 25.62 9.60626C25.5736 9.39505 25.4778 9.19788 25.3404 9.03094C25.3042 8.98456 25.2615 8.94366 25.2137 8.90955L25.1187 8.85675C25.0843 8.84616 25.0475 8.84616 25.0131 8.85675C24.9821 8.85965 24.9536 8.87488 24.9339 8.89899C24.9235 8.91098 24.9153 8.92468 24.9098 8.93942C24.9076 8.94556 24.9058 8.95187 24.9044 8.95831C24.9035 8.9631 24.9027 8.96796 24.9023 8.97287C24.9209 8.98621 24.9302 9.00626 24.9347 9.02692C24.9392 9.04718 24.9392 9.06802 24.9392 9.08371H24.9286ZM23.1341 16.9799C23.2527 16.9585 23.3726 16.9444 23.4931 16.9376L23.5985 16.9482H23.6355C23.6623 16.9558 23.684 16.9753 23.6944 17.0012C23.7047 17.027 23.7024 17.0562 23.6883 17.0801C23.6751 17.1031 23.6592 17.1244 23.6408 17.1435C23.4336 17.3671 23.1523 17.5078 22.849 17.5393H22.7277C22.6875 17.5468 22.6464 17.5468 22.6062 17.5393C22.574 17.5322 22.5479 17.5088 22.5371 17.4776C22.5263 17.4464 22.5325 17.4118 22.5535 17.3863L22.6116 17.3282L22.7593 17.2121L23.0496 17.0168C23.0584 17.0102 23.0677 17.0043 23.0774 16.9992C23.0858 16.9949 23.0945 16.9911 23.1034 16.988C23.1134 16.9845 23.1237 16.9818 23.1341 16.9799ZM26.5596 13.5807V13.4435C26.5592 13.4389 26.5586 13.4344 26.5578 13.4298C26.5563 13.4215 26.5542 13.4133 26.5517 13.4052L26.5457 13.3893C26.5376 13.3705 26.5263 13.3531 26.5121 13.3379C26.4834 13.3184 26.4457 13.3184 26.417 13.3379C26.3797 13.3516 26.3468 13.3754 26.3221 13.4066C26.3014 13.4319 26.282 13.4582 26.2638 13.4853C26.2559 13.4972 26.2482 13.5092 26.2408 13.5215C26.2337 13.5331 26.2268 13.5447 26.2202 13.5565C26.1889 13.6129 26.1629 13.6722 26.1426 13.7338C26.0758 13.9253 26.0454 14.1276 26.0529 14.3302C26.0546 14.3888 26.0771 14.4449 26.1162 14.4886C26.1353 14.506 26.1599 14.5138 26.184 14.512C26.1944 14.5111 26.2046 14.5085 26.2143 14.5041C26.2176 14.5026 26.2207 14.5009 26.2238 14.499L26.2263 14.4974C26.2303 14.4948 26.234 14.4919 26.2376 14.4886C26.2674 14.4618 26.2939 14.4317 26.3168 14.3988C26.4903 14.1601 26.5794 13.8704 26.5701 13.5754L26.5596 13.5807ZM23.1341 7.41055H23.2238L23.2343 7.40527C23.2779 7.39932 23.3217 7.39792 23.3651 7.401C23.3927 7.40295 23.4201 7.40671 23.4472 7.41226C23.4661 7.41614 23.485 7.42087 23.5036 7.42651C23.5142 7.42972 23.5247 7.4332 23.5352 7.43695C23.6364 7.47589 23.7364 7.51993 23.835 7.56595L23.9004 7.59677L23.9823 7.6362L24.0758 7.6817L24.1369 7.71143C24.1868 7.73367 24.225 7.77579 24.2425 7.82755C24.244 7.84509 24.244 7.86276 24.2425 7.88031C24.2481 7.89197 24.2481 7.90561 24.2425 7.91727C24.1911 7.95572 24.1267 7.97275 24.063 7.96478C23.7276 7.92743 23.4075 7.80377 23.1341 7.60587L23.0707 7.55307L23.0652 7.55014L23.0601 7.54694L23.0531 7.5415C23.047 7.5361 23.0418 7.52982 23.0375 7.52286C23.033 7.51547 23.0297 7.50739 23.0279 7.49884L23.0268 7.49194C23.0263 7.48862 23.026 7.48523 23.026 7.48181C23.026 7.47125 23.0281 7.461 23.032 7.4516L23.0356 7.44434C23.0379 7.43997 23.0407 7.43582 23.0437 7.43195C23.0509 7.4231 23.0601 7.41571 23.0707 7.41055H23.1341ZM20.9964 17.7663H21.2128C21.2193 17.7665 21.2256 17.7661 21.232 17.7651C21.2442 17.7633 21.2559 17.7595 21.2666 17.7538C21.2859 17.7438 21.3023 17.7281 21.313 17.7083C21.313 17.6819 21.313 17.6344 21.2444 17.6027L21.123 17.5394C20.9098 17.446 20.6802 17.3958 20.4474 17.3916H20.2732C20.2322 17.3937 20.194 17.4129 20.1676 17.4444C20.1602 17.4593 20.1602 17.4769 20.1676 17.4919C20.1735 17.5132 20.1866 17.5319 20.2046 17.5446L20.2732 17.5869C20.4995 17.6997 20.7487 17.7593 21.0016 17.761L20.9964 17.7663ZM21.4291 11.195C20.8106 11.3061 20.3636 11.8492 20.3734 12.4776C20.3649 12.7399 20.4388 12.9983 20.5846 13.2165C20.6046 13.2433 20.6266 13.27 20.6492 13.2963C20.6708 13.3214 20.6931 13.3462 20.7148 13.3703L20.7248 13.3814L20.7382 13.3962L20.743 13.4013L20.7958 13.4435C20.8232 13.4607 20.8581 13.4607 20.8855 13.4435C20.9088 13.4303 20.9245 13.4068 20.9278 13.3802C20.9475 13.3022 20.9475 13.2206 20.9278 13.1426C20.9264 13.1216 20.9264 13.1004 20.9278 13.0793C20.8681 12.8706 20.8681 12.6494 20.9278 12.4406C21.0353 12.0371 21.3357 11.713 21.73 11.575C21.8523 11.531 21.9803 11.5044 22.11 11.4958C22.1398 11.5002 22.17 11.5002 22.1997 11.4958C22.2895 11.4536 22.2842 11.4061 22.242 11.3481C22.2184 11.3145 22.1853 11.2888 22.147 11.2742C21.92 11.1807 21.6711 11.1533 21.4291 11.195ZM19.054 14.6416C19.0089 14.6331 18.9674 14.6135 18.933 14.5852C18.9016 14.5594 18.876 14.5266 18.8587 14.4886C18.8036 14.3841 18.7646 14.272 18.7426 14.156C18.7157 14.0148 18.7157 13.8698 18.7426 13.7285C18.7929 13.4047 19.0216 13.1371 19.3338 13.0371C19.4718 12.9931 19.6182 12.9823 19.7613 13.0054C19.996 13.0338 20.2177 13.1291 20.3999 13.2799C20.4517 13.3169 20.4844 13.3748 20.4897 13.4382C20.4934 13.4612 20.48 13.4836 20.4579 13.491C20.4472 13.4937 20.4363 13.4956 20.4254 13.4968C20.4158 13.4979 20.4062 13.4983 20.3965 13.4982C20.3781 13.4979 20.3598 13.4955 20.3418 13.491H20.1783H19.9777C19.6386 13.4938 19.3355 13.7029 19.2123 14.0188C19.1974 14.0522 19.1846 14.0863 19.1739 14.121C19.1656 14.1481 19.1585 14.1755 19.1526 14.2032C19.1494 14.2183 19.1466 14.2335 19.1442 14.2487C19.1422 14.2615 19.1405 14.2744 19.1391 14.2874C19.1342 14.3295 19.1322 14.372 19.1332 14.4147L19.1343 14.4356C19.1348 14.4482 19.135 14.4608 19.1349 14.4734C19.1348 14.489 19.1342 14.5046 19.1332 14.5202C19.1186 14.5673 19.0912 14.6093 19.054 14.6416ZM21.1811 9.21567C21.2491 9.18304 21.3006 9.12387 21.3236 9.05206L21.2919 9.01511C21.2449 8.98065 21.1848 8.96902 21.1283 8.98343L20.933 9.02039C20.5797 9.11099 20.2786 9.34158 20.0992 9.65906C20.0587 9.72894 20.0269 9.80334 20.0041 9.88074C19.9385 10.0651 19.9385 10.2664 20.0041 10.4508C20.0993 10.7036 20.3057 10.8983 20.5636 10.9786C20.5845 10.9854 20.6062 10.9886 20.6278 10.9882C20.6471 10.9879 20.6664 10.9846 20.685 10.9786C20.7483 10.9575 20.7483 10.9417 20.7483 10.873C20.7411 10.8387 20.7267 10.8063 20.7061 10.778C20.6795 10.7425 20.6548 10.7054 20.6322 10.6672C20.4817 10.415 20.466 10.1047 20.59 9.8385C20.6651 9.66995 20.7769 9.52029 20.9173 9.40042C20.95 9.37173 20.9839 9.34454 21.019 9.31888C21.0707 9.28104 21.1248 9.24655 21.1811 9.21567ZM17.3385 14.61V14.5361C17.3437 14.4807 17.3716 14.4299 17.4156 14.3958C17.4596 14.3618 17.5159 14.3476 17.5708 14.3566H17.7185C17.7776 14.3712 17.8351 14.3913 17.8904 14.4167C17.9201 14.4304 17.949 14.4455 17.9772 14.4622C18.3003 14.6502 18.5822 14.9016 18.8058 15.2011C18.8656 15.2807 18.9217 15.3629 18.9738 15.4475C19.0113 15.5085 19.0468 15.5706 19.0804 15.6339C19.1021 15.6845 19.1021 15.7417 19.0804 15.7923C19.0729 15.8144 19.0506 15.8278 19.0275 15.8239C19.0086 15.8232 18.99 15.8202 18.972 15.8152C18.9383 15.8057 18.9068 15.789 18.8798 15.7659L18.695 15.6075L18.315 15.2856C18.2034 15.1934 18.074 15.1251 17.935 15.085C17.9009 15.0742 17.8659 15.0681 17.8306 15.0668C17.804 15.0658 17.7773 15.0676 17.7509 15.0721C17.7328 15.0751 17.715 15.0794 17.6974 15.085L17.6077 15.1114H17.555C17.541 15.1123 17.5274 15.1096 17.5153 15.1036C17.5041 15.0982 17.494 15.0901 17.4864 15.0797V15.0481C17.4422 14.9658 17.4068 14.8791 17.3808 14.7894C17.3629 14.7306 17.3488 14.6706 17.3385 14.61ZM19.8564 8.59283C19.9712 8.61374 20.0879 8.62259 20.2047 8.61923C20.4374 8.61404 20.6684 8.57675 20.8909 8.50839L21.1969 8.41339L21.2657 8.37643C21.2856 8.35477 21.2929 8.32574 21.2876 8.29868C21.2846 8.28287 21.2773 8.2677 21.2657 8.25504C21.2419 8.22327 21.205 8.20386 21.1653 8.20227H21.0175L20.4897 8.17059H20.3419C20.1994 8.16501 20.086 8.04929 20.0833 7.90668C20.0846 7.89526 20.0852 7.88379 20.0851 7.87231C20.085 7.86264 20.0844 7.85297 20.0833 7.84335C20.0751 7.8222 20.0587 7.80527 20.0379 7.79633C20.017 7.78738 19.9934 7.7872 19.9724 7.79584C19.8802 7.85196 19.791 7.91309 19.7056 7.97891C19.6524 8.0199 19.6005 8.06268 19.5502 8.10724L19.4868 8.17587C19.4191 8.24878 19.4191 8.3616 19.4868 8.43451C19.5135 8.45996 19.5437 8.48132 19.5766 8.49783C19.6237 8.52118 19.6724 8.54114 19.7222 8.55759C19.766 8.57211 19.8108 8.58389 19.8564 8.59283Z" />
</svg>
