<svg width="34" height="24" viewBox="0 0 34 24"  xmlns="http://www.w3.org/2000/svg">
<path fill-rule="evenodd" clip-rule="evenodd" d="M17.0227 2.96601e-06C12.0402 -0.00402416 8.00198 4.09335 8 9.15477C7.99824 14.2126 12.0264 18.3232 16.9871 18.3252C21.9662 18.3277 26.0004 14.2249 26 9.16014C25.9991 4.11371 21.9717 0.00403009 17.0227 2.96601e-06ZM13.696 18.1967C13.4785 18.6068 13.5444 18.9647 13.9898 19.1851C15.0115 19.6907 15.605 20.6563 15.9804 21.9112C16.1953 22.6889 16.2309 23.3301 16.3282 24H17.8966C18.0006 23.2431 18.121 22.4884 18.321 21.7524C18.6067 20.7013 19.1811 19.7502 20.312 19.1864C20.7603 18.9629 20.8203 18.607 20.6049 18.1975C17.6169 19.0377 16.7425 19.0569 13.696 18.1967ZM23.4453 7.32329C23.2113 7.02081 23.1537 6.66016 23.1153 6.27892C23.1601 6.10352 23.1854 5.91961 23.2552 5.75517C23.3388 5.55874 23.506 5.54487 23.6587 5.69566C23.969 6.00195 24.1 6.90402 23.891 7.29599C23.7787 7.50675 23.6005 7.52375 23.4453 7.32329ZM23.3473 10.7652C23.2168 10.931 23.0531 11.0894 22.8184 11.0086C22.5852 10.9285 22.5564 10.7055 22.5369 10.4909C22.5327 10.4437 22.5362 10.3956 22.5362 10.3482C22.5547 9.88596 22.6916 9.46781 23.001 9.12058C23.1306 8.97494 23.2862 8.85256 23.4926 8.92124C23.6906 8.98679 23.7424 9.17271 23.7635 9.36065C23.8224 9.88842 23.6693 10.3562 23.3473 10.7652ZM23.4212 12.8889C23.3036 13.4374 23.0194 13.8807 22.5595 14.1925C22.3767 14.3163 22.2571 14.2391 22.2613 13.9444C22.2982 13.8475 22.3483 13.6699 22.4303 13.5093C22.5984 13.1799 22.8091 12.8799 23.1339 12.6904C23.1937 12.6555 23.3047 12.6412 23.3526 12.675C23.402 12.7101 23.4352 12.8226 23.4212 12.8889ZM21.5778 5.85785C21.3133 5.98828 21.0851 5.88157 20.8795 5.70392C20.558 5.4265 20.2938 5.10478 20.1727 4.68573C20.0879 4.39265 20.0694 4.08905 20.336 3.88165C20.6037 3.67314 20.9348 3.65859 21.2045 3.84093C21.6607 4.14923 21.9437 4.59512 21.9987 5.09628C21.9905 5.48266 21.855 5.72138 21.5778 5.85785ZM21.3249 9.35076C21.0111 9.52124 20.7006 9.49484 20.4626 9.22502C20.0255 8.73013 19.8431 8.14821 20.0136 7.48709C20.0497 7.34726 20.1281 7.20788 20.2193 7.09534C20.6212 6.59911 21.1981 6.63871 21.5427 7.17633C21.751 7.50074 21.8796 7.93477 21.8805 8.31579C21.8798 8.76347 21.731 9.13016 21.3249 9.35076ZM21.4664 11.4424C21.2884 12.1681 20.8667 12.7212 20.1833 13.0181C19.6526 13.2485 19.1599 12.9145 19.1691 12.3677C19.1814 11.6294 19.9613 10.717 20.6779 10.6029C21.1854 10.5222 21.591 10.9338 21.4664 11.4424ZM20.665 14.6674C20.2905 15.2346 19.7365 15.5033 19.1709 15.5898C18.7549 15.5773 18.6217 15.3632 18.8045 15.0867C19.1779 14.5222 19.7189 14.2162 20.3802 14.162C20.7171 14.1345 20.8533 14.3819 20.665 14.6674ZM17.7297 11.6406C17.2693 11.5585 16.8089 11.4467 16.345 11.425C15.5816 11.3892 15.1045 11.7516 14.8241 12.4785C14.7786 12.5964 14.7162 12.7163 14.6329 12.8087C14.4463 13.0157 14.2523 13.0193 14.0308 12.8492C13.6833 12.5823 13.2898 12.4443 12.8555 12.4396C12.3255 12.434 12.0059 12.7309 11.938 13.2667C11.9202 13.4072 11.8947 13.5511 11.8438 13.6817C11.7657 13.8811 11.5974 13.9627 11.4031 13.882C11.2328 13.8113 11.0641 13.7157 10.9228 13.5967C10.2158 13.0011 9.80903 12.2174 9.57456 11.327C9.3882 10.6193 9.27591 9.90249 9.27942 8.89952C9.27832 5.29323 12.0567 1.98137 15.806 1.39318C17.0311 1.201 18.234 1.30682 19.4135 1.69455C19.6506 1.7724 19.8514 1.89903 19.984 2.11918C20.136 2.37222 20.0809 2.61832 19.8277 2.76375C19.7132 2.82952 19.5818 2.86935 19.4543 2.90649C18.7691 3.10605 18.5191 3.62421 18.8592 4.25714C19.0322 4.57908 19.2832 4.86725 19.5385 5.13102C19.8805 5.48474 19.8723 5.79886 19.4642 6.05793C18.9126 6.40829 18.6588 7.13519 18.8291 7.8811C18.9285 8.31693 19.1333 8.6919 19.4497 9.00445C19.7624 9.31319 19.7218 9.63782 19.3467 9.8752C18.8399 10.1958 18.5094 10.648 18.3639 11.2391C18.2734 11.6071 18.1026 11.7073 17.7297 11.6406ZM18.1362 13.8457C17.6886 14.3164 17.1256 14.5109 16.3973 14.5361C15.7642 14.5883 15.6233 13.8922 15.8532 13.4446C16.2382 12.6948 17.4616 12.4253 18.1134 12.9521C18.3967 13.181 18.412 13.556 18.1362 13.8457ZM17.5649 16.7906C17.0612 17.0555 16.53 17.1045 15.9932 16.9063C15.7947 16.8327 15.7838 16.6517 15.9826 16.5702C16.2808 16.4476 16.601 16.3803 16.8614 16.3044C17.135 16.3615 17.3434 16.3836 17.5361 16.451C17.7385 16.5219 17.7539 16.6913 17.5649 16.7906ZM14.6892 15.0494C14.5026 15.1142 14.3008 15.1344 14.1061 15.1749C13.7504 15.1527 13.4282 15.0576 13.1377 14.8581C12.9258 14.7126 12.7729 14.5211 12.7157 14.2612C12.6386 13.9108 12.814 13.6251 13.1627 13.5803C13.3508 13.556 13.5513 13.5613 13.737 13.5994C14.1648 13.6866 14.5349 13.9086 14.8586 14.199C15.219 14.5225 15.1449 14.891 14.6892 15.0494ZM14.0327 16.4522C14.0083 16.4882 13.9248 16.507 13.8741 16.4965C13.3405 16.386 12.8922 16.1191 12.5296 15.7069C12.4966 15.6696 12.476 15.5823 12.4966 15.5454C12.5177 15.5078 12.5966 15.5034 12.6544 15.4825C13.1774 15.6331 13.6407 15.8727 13.9991 16.292C14.0316 16.3303 14.0545 16.4206 14.0327 16.4522ZM21.4686 2.61963C21.58 2.66773 21.771 2.70576 21.9042 2.81606C22.2022 3.06306 22.4788 3.33892 22.7465 3.62015C22.8032 3.67966 22.7852 3.81278 22.8014 3.91189C22.707 3.91345 22.5969 3.94836 22.5208 3.91099C22.0387 3.67451 21.6233 3.34809 21.3205 2.89213C21.2073 2.72187 21.2476 2.6212 21.4686 2.61963ZM18.2018 7.63252C17.5104 7.06783 16.525 7.05977 15.8218 7.61216C15.1232 8.16119 14.8788 9.14493 15.2456 9.96266C15.299 10.0819 15.3309 10.2839 15.5174 10.2157C15.5946 10.1875 15.6225 10.0193 15.6728 9.915C15.6321 9.01807 16.1969 8.2565 17.0241 8.00995C17.4084 7.8954 17.7877 7.91285 18.1703 8.02382C18.2308 8.04127 18.3435 8.01264 18.3712 7.967C18.3991 7.92113 18.3639 7.8209 18.3327 7.75669C18.3077 7.70568 18.2486 7.67078 18.2018 7.63252ZM14.0752 8.99404C13.8157 8.87054 13.5445 8.80768 13.2573 8.85824C12.5653 8.98017 12.1106 9.58536 12.1055 10.4577C12.1143 10.5295 12.1148 10.6765 12.1554 10.8109C12.1798 10.8922 12.2668 10.9541 12.3257 11.0248C12.3818 10.9588 12.4514 10.9002 12.4908 10.8253C12.5371 10.7367 12.5501 10.6306 12.5901 10.5378C12.8472 9.94355 13.3922 9.62451 14.0183 9.74242C14.2477 9.78537 14.458 9.92722 14.6811 10.0129C14.747 10.0382 14.827 10.0245 14.9006 10.0288C14.905 9.94869 14.9408 9.85092 14.9085 9.79141C14.7158 9.43725 14.4383 9.16654 14.0752 8.99404ZM16.2055 6.53277C16.2617 6.57483 16.3602 6.55872 16.4391 6.56946C16.4481 6.48914 16.485 6.3992 16.4619 6.33029C16.2538 5.71414 16.3982 5.1537 16.8859 4.72951C17.1953 4.46036 17.5596 4.32344 17.9558 4.2514C18.0299 4.23775 18.0917 4.15385 18.1589 4.1024C18.0978 4.04311 18.0448 3.94646 17.9743 3.93057C17.3493 3.79029 16.7617 3.88695 16.2417 4.28026C15.8693 4.56194 15.6427 4.93467 15.6293 5.41009C15.6328 5.8938 15.8403 6.25892 16.2055 6.53277ZM10.3871 9.89016C10.1722 9.78031 9.98497 9.87047 9.90959 10.1025C9.86608 10.236 9.85553 10.3808 9.83026 10.5204C9.83817 10.5215 9.84652 10.5226 9.85443 10.5238C9.85443 10.592 9.84916 10.6605 9.85553 10.728C9.88322 11.0274 9.89443 11.0256 10.1933 11.0269C10.3001 11.0274 10.4236 11.0672 10.5093 11.131C10.6532 11.2379 10.8009 11.3601 10.8978 11.5091C11.1334 11.8711 11.3358 12.2554 11.5637 12.6228C11.6033 12.6868 11.7021 12.7127 11.7738 12.7561C11.8056 12.6827 11.8733 12.6042 11.8639 12.5371C11.7393 11.6599 11.4033 10.8759 10.8176 10.2152C10.6998 10.0823 10.5449 9.97093 10.3871 9.89016ZM18.2511 2.8192C17.9068 2.67467 17.5545 2.54602 17.2231 2.37532C17.0337 2.27777 16.9102 2.10282 16.9906 1.84821C17.0284 1.72807 16.9469 1.62113 16.8337 1.65021C16.546 1.72427 16.2527 1.80302 15.9887 1.93636C15.7866 2.03838 15.7699 2.27374 15.9296 2.44132C16.0571 2.57511 16.2138 2.69212 16.3775 2.77624C16.888 3.03823 17.4411 3.13085 18.0074 3.153C18.1276 3.153 18.2494 3.16352 18.3676 3.14741C18.4113 3.14159 18.4764 3.07492 18.4788 3.03263C18.4819 2.97782 18.4434 2.90802 18.4017 2.86752C18.3676 2.83441 18.3001 2.83978 18.2511 2.8192Z" />
</svg>
