<svg width="34" height="24" viewBox="0 0 34 24"  xmlns="http://www.w3.org/2000/svg">
<path fill-rule="evenodd" clip-rule="evenodd" d="M21.65 1.10934C18.8511 -0.216951 15.6449 -0.359865 12.7414 0.712248C9.83458 1.77991 7.45872 3.9603 6.12584 6.78348C3.36314 12.7126 5.85899 19.7856 11.7086 22.6042H11.7396C15.5722 24.6709 20.2196 24.4279 23.8212 21.9724C27.4228 19.5169 29.39 15.2503 28.9353 10.8805C28.4806 6.5108 25.6782 2.75217 21.65 1.10934ZM21.9486 21.295L21.5467 20.6998L21.8164 20.365C22.123 19.9878 22.4244 19.6158 22.7206 19.2438C22.8067 19.1384 22.8904 19.0309 22.9714 18.9215C23.0458 18.8211 23.1179 18.7191 23.1877 18.6155L23.2267 18.5573L23.2687 18.4934L23.3021 18.4414C23.3972 18.2802 23.5613 18.1723 23.7463 18.1492C24.1651 18.0608 24.5608 17.9623 24.9648 17.8618L25.2849 17.7825L25.7132 17.6762C25.7179 17.7417 25.7179 17.8074 25.7132 17.8729C24.7627 19.316 23.4687 20.4977 21.9486 21.3109V21.295ZM18.1365 22.4693C19.0416 22.3708 19.9303 22.1546 20.7801 21.8264L20.7854 21.8582C20.8635 21.8282 20.9405 21.7965 21.0174 21.7645L21.0965 21.7314C21.2377 21.6721 21.379 21.6129 21.5256 21.5607L21.4535 21.4513L21.452 21.4489L21.4487 21.4438C21.3519 21.2972 21.2615 21.1599 21.1608 21.0293C21.1337 20.9905 21.0913 20.9654 21.0444 20.9602C20.0504 21.0399 19.0618 21.1356 18.0676 21.2259H17.9566L17.9308 21.2237L17.911 21.2228L17.8856 21.2227L17.8677 21.2233L17.8548 21.2241L17.8351 21.2259L16.6982 22.3312L16.5449 22.48C16.603 22.5001 16.6634 22.5126 16.7247 22.5171C17.1958 22.5333 17.6675 22.5173 18.1365 22.4693ZM6.60985 13.1913L6.6096 13.1301L6.60887 13.0977C6.6085 13.0841 6.60789 13.0705 6.60704 13.0569C6.60362 13.0008 6.59581 12.9446 6.57823 12.8884C6.56505 12.8464 6.56285 12.7822 6.56248 12.7097C6.56187 12.6081 6.56505 12.4903 6.54649 12.3942V12.288C6.6682 12.6799 6.78941 13.0712 6.91002 13.462L7.04246 13.892L7.17503 14.3232C7.18663 14.381 7.18663 14.4407 7.17503 14.4985L7.1566 14.6294C7.14098 14.74 7.12511 14.8517 7.10875 14.9625C7.09276 15.0715 7.07628 15.1796 7.05882 15.285C6.84264 14.6144 6.69395 13.9237 6.6151 13.2232L6.60985 13.1913ZM7.31322 8.05774C7.31248 8.04199 7.31212 8.02618 7.31212 8.01031L7.31737 8.04751L7.31322 8.05774ZM7.31322 8.05774C7.31834 8.16836 7.33983 8.27594 7.34898 8.3876C7.35155 8.40024 7.3535 8.41299 7.35472 8.42578C7.35582 8.43649 7.35643 8.44726 7.35655 8.45804C7.35692 8.48428 7.35435 8.51056 7.34898 8.53638L6.66771 10.4334C6.79039 9.61896 7.00694 8.82165 7.31322 8.05774ZM12.8067 21.4916C12.479 21.2046 12.1617 20.9071 11.8445 20.6095L11.3158 20.1313C11.3032 20.1206 11.2926 20.1081 11.284 20.0941C11.2826 20.0863 11.2818 20.0784 11.2818 20.0705C11.2818 20.0624 11.2826 20.0543 11.284 20.0462L11.5038 19.5997L11.5738 19.4569C11.6799 19.2402 11.7851 19.024 11.8894 18.8085L12.0613 18.4521C12.093 18.3883 12.0983 18.3777 12.1935 18.383L14.155 18.5424L15.5456 18.654C15.625 18.654 15.6725 18.6859 15.6725 18.654C16.1537 19.3023 16.6243 19.9559 17.116 20.6361L17.3697 20.9868L17.1318 21.1993L17.0561 21.2669C16.7047 21.5804 16.3446 21.9016 15.9845 22.209C15.9432 22.2224 15.8988 22.2224 15.8575 22.209L15.5087 22.1558L15.3193 22.1256L15.3164 22.1251C14.6477 22.0182 13.9642 21.909 13.2984 21.7733C13.1202 21.7292 12.9541 21.6457 12.812 21.5288L12.8067 21.4916ZM17.2323 2.14364C16.9574 1.9364 16.6824 1.72919 16.4022 1.53256C14.9114 1.61325 13.4557 2.01752 12.1352 2.71756C11.9714 2.8511 11.816 2.99487 11.67 3.14798C11.6604 3.1604 11.6521 3.1738 11.6454 3.1879C11.6371 3.2055 11.6311 3.22424 11.6277 3.24362C11.8127 3.62091 12.0137 4.02475 12.2093 4.42331L12.3309 4.66772L13.0394 4.59866C13.6485 4.52704 14.2608 4.48623 14.8741 4.47644H14.9322C15.472 4.52527 15.9906 4.25329 16.2594 3.78033C16.5222 3.38876 16.8138 3.01752 17.1318 2.66974L17.4438 2.30307L17.2323 2.14364ZM21.6897 14.7695L19.7175 14.8174L18.089 14.8599C18.015 14.8599 17.9991 14.8599 17.9463 14.7642L17.5021 13.9672L17.4881 13.9418C17.1013 13.2377 16.7035 12.5137 16.249 11.8416C15.9794 11.4377 16.0957 11.1933 16.323 10.8373C16.4353 10.6604 16.547 10.4825 16.6586 10.304C16.7534 10.1524 16.8481 10.0003 16.9429 9.84814L16.9462 9.84274L17.1119 9.57681L17.256 9.34607L17.3805 9.14749L17.6131 8.76489C17.74 8.54703 17.8669 8.33447 18.0044 8.12192C18.0141 8.11084 18.025 8.1008 18.0366 8.09189L18.0466 8.08462L18.0549 8.07916C18.0605 8.07565 18.0663 8.07236 18.0722 8.0693C18.0793 8.06567 18.0865 8.06244 18.094 8.05957L18.1074 8.05478L18.1223 8.05057L18.1366 8.04751C19.3421 8.09003 20.5317 8.13785 21.6791 8.20163C21.74 8.21399 21.7944 8.24795 21.8325 8.29727C21.9394 8.49441 22.046 8.69006 22.1521 8.88458L22.3158 9.18466L22.3506 9.24847L22.3645 9.27402L22.3766 9.29617L22.3909 9.32245L22.4033 9.34534C22.782 10.0394 23.1538 10.7214 23.5139 11.4059C23.5381 11.4728 23.5381 11.5462 23.5139 11.6131C23.3922 11.9001 23.26 12.1764 23.1225 12.458L23.0168 12.6812C22.9905 12.6965 22.9686 12.7185 22.9534 12.745L22.6996 13.202C22.4193 13.7014 22.1391 14.2063 21.843 14.7005C21.8026 14.7423 21.7477 14.767 21.6897 14.7695ZM15.7783 4.90704C14.661 4.98498 13.5436 5.07178 12.4261 5.16742C12.4121 5.17019 12.3984 5.17416 12.3852 5.17926C12.3711 5.18472 12.3574 5.19147 12.3445 5.1994C12.3309 5.20773 12.3182 5.21731 12.3065 5.22812C12.2983 5.23566 12.2906 5.24377 12.2834 5.25244C11.8129 5.93793 11.3475 6.62872 10.8876 7.31955L10.5121 7.88281C10.4238 8.00671 10.4238 8.17337 10.5121 8.29727C10.9245 9.16345 11.3316 10.019 11.7018 10.8745C11.7724 11.1003 11.9984 11.2388 12.2305 11.1986H12.828H14.3772H15.5245L15.5376 11.2011C15.5436 11.202 15.5497 11.2025 15.5558 11.2027C15.5613 11.2028 15.5668 11.2026 15.5721 11.2021C15.5792 11.2015 15.5863 11.2003 15.5932 11.1986C15.6667 11.0813 15.738 10.9575 15.8099 10.8328L15.811 10.8309C15.8526 10.7586 15.8945 10.686 15.937 10.6141L16.1643 10.2262L16.968 8.87649L17.5602 7.88812C17.6448 7.74997 17.6448 7.74463 17.613 7.69681C17.3222 7.24515 17.0315 6.78284 16.7406 6.32583L15.8683 4.95486C15.8436 4.9303 15.8124 4.91366 15.7783 4.90704ZM11.1614 13.0152C11.3707 12.5875 11.579 12.1591 11.7862 11.73C11.818 11.6609 11.8338 11.645 11.9237 11.645H15.0644H15.498H15.5826L15.9739 12.3358C16.4779 13.2179 16.9837 14.1035 17.4913 14.9927C17.5575 15.0688 17.5575 15.1823 17.4913 15.2584C16.8992 16.1972 16.3122 17.1395 15.7306 18.0854C15.7143 18.112 15.6998 18.1329 15.685 18.1489C15.647 18.1904 15.6075 18.1993 15.535 18.1916C14.4775 18.0995 13.4094 18.0163 12.3308 17.9419C12.2388 17.9446 12.1538 17.8926 12.114 17.809C11.5325 16.8313 10.9472 15.8571 10.3586 14.8864C10.3022 14.8195 10.3 14.7221 10.3534 14.6526C10.6244 14.1079 10.8937 13.5621 11.1614 13.0152ZM22.5569 6.11859C22.6943 5.83163 22.8318 5.53937 22.9587 5.2471V5.26837C22.9692 5.22803 22.9674 5.18542 22.9534 5.14615C22.3506 4.4075 21.7425 3.68484 21.1451 2.98871C21.0848 2.92859 21.0071 2.88946 20.9231 2.87713C20.4736 2.82068 20.0397 2.76837 19.6158 2.71979C19.0823 2.65863 18.5647 2.60333 18.052 2.55298C17.9889 2.55786 17.9292 2.58407 17.8828 2.62738C17.5603 3.00467 17.243 3.39258 16.931 3.77518L16.2701 4.54037C16.2527 4.55792 16.2464 4.57065 16.2488 4.58563C16.2507 4.59787 16.2583 4.6116 16.2701 4.63071L17.0262 5.82632L18.0255 7.42047C18.0441 7.44266 18.0672 7.46036 18.0931 7.47241C18.1036 7.47729 18.1146 7.48126 18.126 7.48422C19.3244 7.54446 20.5229 7.59582 21.7214 7.63833C21.7557 7.62939 21.7868 7.61099 21.8113 7.5852C21.8472 7.51697 21.8821 7.44812 21.9164 7.37881C21.9951 7.21969 22.0705 7.0581 22.1463 6.89584L22.229 6.71905L22.3718 6.41083C22.3891 6.37335 22.4191 6.34326 22.4564 6.3258L22.5569 6.11859ZM21.0076 20.4395C19.9765 20.5404 18.9508 20.636 17.9197 20.7211C17.8652 20.7129 17.815 20.6867 17.777 20.6467C17.6149 20.434 17.4541 20.2185 17.2941 20.0023L17.0619 19.688L16.8517 19.4032L16.1378 18.4414C16.1241 18.4238 16.1156 18.412 16.112 18.4003C16.1058 18.3803 16.1145 18.3609 16.1378 18.3139C16.4897 17.7513 16.841 17.1881 17.1919 16.6244L17.631 15.9177L17.9409 15.4178C17.9667 15.351 18.0338 15.3096 18.1047 15.3169L19.7491 15.285L21.7054 15.2478C21.7396 15.257 21.7707 15.2754 21.7954 15.3009C22.2077 16.1458 22.6149 17.0014 23.0115 17.8569C23.0264 17.9016 23.0353 17.948 23.0378 17.9951V18.0376L22.7048 18.4521C22.176 19.111 21.6473 19.7646 21.1185 20.4129C21.0983 20.4288 21.0755 20.4412 21.0514 20.4497C21.0445 20.4521 21.0377 20.4542 21.0307 20.456L21.0188 20.4587L21.0076 20.4607V20.4395ZM26.4482 11.2465L26.6492 10.4015C26.755 9.94458 26.8607 9.47162 26.9717 8.97745C26.9825 8.89755 26.9697 8.81619 26.9347 8.74362C26.4641 7.80307 26.0676 7.02725 25.6869 6.29925C25.6649 6.26245 25.6377 6.22949 25.6062 6.20132C25.5696 6.16846 25.5271 6.14215 25.4807 6.1239C25.0736 5.98575 24.6664 5.85821 24.254 5.73068L23.4714 5.48092H23.4344L23.4081 5.53406C23.2759 5.8157 23.1437 6.09201 23.0115 6.37366L22.8581 6.69778C22.8421 6.7344 22.8142 6.7644 22.7788 6.7828L22.6678 7.02194C22.6327 7.09955 22.598 7.17489 22.5633 7.24881C22.5243 7.33215 22.4852 7.41366 22.4459 7.49444C22.3888 7.61181 22.331 7.72769 22.2712 7.84558C22.2297 7.90448 22.2297 7.98331 22.2712 8.0422C22.8387 9.06955 23.3957 10.1004 23.942 11.1349C23.9896 11.2465 24.0213 11.2465 24.1324 11.2465C24.8727 11.2571 25.6129 11.273 26.3531 11.2996C26.3741 11.3041 26.3955 11.3056 26.4169 11.3041C26.4227 11.3036 26.4286 11.303 26.4343 11.3021L26.4482 11.2996C26.4516 11.282 26.4516 11.264 26.4482 11.2465ZM7.76768 8.8074C7.79515 8.76953 7.83409 8.74158 7.87865 8.72769C8.23131 8.66177 8.58958 8.59726 8.94981 8.53491C9.11229 8.50677 9.27525 8.47909 9.43834 8.4519C9.6129 8.42279 9.78758 8.39426 9.9619 8.36636L10.0201 8.39294C10.5171 9.42914 10.9612 10.3909 11.3895 11.3368C11.3979 11.3634 11.4026 11.3909 11.4035 11.4184C11.4049 11.4536 11.4001 11.4889 11.3895 11.5228C11.3557 11.5973 11.3216 11.6718 11.2872 11.7462C11.255 11.8155 11.2225 11.8847 11.1896 11.9536C11.0864 12.1689 10.9784 12.3811 10.8607 12.5856L10.7286 12.8672C10.6893 12.8836 10.6573 12.9138 10.6387 12.9522L10.4431 13.3667C10.3342 13.5993 10.2231 13.8296 10.1084 14.0564C10.0774 14.1178 10.046 14.179 10.0144 14.2399L9.97325 14.3184L9.91429 14.4295C9.87205 14.5198 9.87205 14.5198 9.80858 14.5092C9.35838 14.4431 8.90599 14.3792 8.45274 14.3177C8.21397 14.2852 7.97496 14.2534 7.73595 14.2222C7.63011 14.2222 7.60899 14.185 7.58263 14.1107C7.46629 13.7245 7.34813 13.3383 7.22838 12.9522L7.1328 12.6388L7.03026 12.3038C6.95872 12.0705 6.88731 11.8372 6.8159 11.6025C6.80614 11.5694 6.8004 11.5354 6.79857 11.5013C6.79784 11.4876 6.79771 11.4739 6.79832 11.4602C6.79979 11.4239 6.80565 11.3879 6.8159 11.3528C6.92369 11.0743 7.02733 10.8001 7.12816 10.5298C7.25072 10.2011 7.369 9.87814 7.48546 9.56027L7.51549 9.47806L7.63243 9.15936L7.70787 8.95453L7.76231 8.8074H7.76768ZM24.8396 17.3836L25.0901 17.3109C25.3088 17.2474 25.5272 17.1836 25.745 17.1183L25.7186 17.1129C25.7645 17.0959 25.8036 17.0642 25.8296 17.0226C26.2385 16.183 26.6385 15.3399 27.0299 14.4932C27.0542 14.4154 27.0542 14.3319 27.0299 14.2541C26.9241 13.7918 26.8131 13.3348 26.6968 12.8778L26.6279 12.5977L26.5559 12.3057L26.4588 11.9107C26.443 11.8257 26.4376 11.8257 26.3371 11.8257H25.3485L24.069 11.7991C24.0227 11.8069 23.9801 11.8293 23.9472 11.8629C23.3763 12.8902 22.8141 13.9353 22.2606 14.998C22.2584 15.0048 22.2566 15.0116 22.2551 15.0184C22.2532 15.0273 22.2518 15.0362 22.2511 15.0452C22.2489 15.0722 22.2521 15.0995 22.2606 15.1256C22.6096 15.8376 22.9532 16.5497 23.3181 17.2989L23.5401 17.7613L23.9315 17.6497C24.0948 17.6007 24.2585 17.5525 24.4225 17.5047L24.8396 17.3836ZM25.2003 5.50748L23.5137 5.01327C23.4745 4.99747 23.4398 4.97186 23.4132 4.9389L21.6896 2.88241L21.5256 2.69113L21.5837 2.60611C22.9908 3.28799 24.2269 4.27966 25.2003 5.50748ZM17.9673 2.05881C18.4743 2.11813 18.9809 2.17618 19.487 2.23294C20.0084 2.29138 20.5293 2.34848 21.0498 2.4042L21.1344 2.39889C19.9099 1.86133 18.5945 1.56372 17.2588 1.52209L17.7875 1.97378C17.8171 1.99924 17.8503 2.0198 17.886 2.03485C17.912 2.04584 17.9393 2.05389 17.9673 2.05881ZM10.6865 3.65826L10.9457 3.53607L11.1941 3.42447L11.3104 3.65826C11.4133 3.86517 11.5151 4.0661 11.614 4.2616C11.7233 4.47781 11.8291 4.68738 11.9291 4.89108C11.9277 4.90948 11.9238 4.92755 11.9175 4.94476C11.9134 4.9556 11.9084 4.96609 11.9026 4.9761C11.2964 5.91134 10.6848 6.84482 10.0679 7.77652C10.0553 7.79153 10.0412 7.80505 10.026 7.81686C10.0111 7.82846 9.99498 7.83844 9.97801 7.84665C9.95958 7.85553 9.94005 7.86233 9.91991 7.86685C9.53856 7.93582 9.12974 8.00201 8.71324 8.06946L8.71214 8.06964L8.71104 8.06982C8.55077 8.09579 8.38939 8.12195 8.22789 8.1485L7.81554 8.21225V8.09003C7.81554 7.7659 7.7838 7.44705 7.77318 7.12292C8.48326 5.7713 9.47301 4.58813 10.676 3.65295L10.6865 3.65826ZM9.28014 19.0791L9.31187 19.1163C9.33934 19.149 9.37144 19.1777 9.40697 19.2013L10.6549 19.8018L10.8822 19.908L11.0409 19.5786C11.2788 19.0844 11.5008 18.6221 11.707 18.1598C11.6977 18.1209 11.6836 18.0834 11.6648 18.0482L10.9245 16.8101C10.7855 16.5787 10.6474 16.3482 10.5099 16.1179C10.3125 15.7875 10.1162 15.4575 9.91991 15.1256C9.89036 15.0583 9.83018 15.011 9.76048 14.9969C9.74351 14.9935 9.72606 14.9921 9.70836 14.9927C9.18114 14.9345 8.65379 14.8656 8.12657 14.7967L8.12437 14.7964L8.12218 14.7961L7.69395 14.727H7.64635L7.61986 14.9608C7.59935 15.1431 7.57738 15.3205 7.5554 15.4965C7.5377 15.6388 7.52013 15.7802 7.50352 15.9227C7.47203 16.2279 7.5388 16.5352 7.69395 16.7995C8.12645 17.6226 8.65929 18.3884 9.28014 19.0791ZM10.5384 20.2588L10.8501 20.3757C10.8757 20.3871 10.899 20.4033 10.9187 20.4235L11.3413 20.8433C11.2005 20.7516 11.0582 20.6513 10.9176 20.5475C10.7892 20.4528 10.662 20.3552 10.5384 20.2588ZM27.2402 12.9939L27.3572 13.4623H27.3837C27.5278 12.3249 27.4922 11.1717 27.2779 10.0455C27.2359 10.2162 27.1933 10.3869 27.1507 10.5573C27.0754 10.8592 27.0002 11.1602 26.9294 11.459C26.9108 11.5484 26.9108 11.6407 26.9294 11.73C27.0295 12.152 27.1351 12.5739 27.2402 12.9939Z" />
</svg>
