<svg width="34" height="24" viewBox="0 0 34 24"  xmlns="http://www.w3.org/2000/svg">
<path fill-rule="evenodd" clip-rule="evenodd" d="M28.3352 5.55863V5.53186L28.132 5.32322L24.1511 1.24076C24.0923 1.17118 24.0335 1.10163 23.9693 1.03208C21.294 -1.69671 15.205 1.37986 10.8176 5.66028C6.43019 9.94071 3.20375 15.9654 5.86831 18.6942L10.1488 23.0977C12.8776 25.591 18.8488 22.5626 23.1613 18.3411C27.4738 14.1195 30.6145 8.38907 28.3352 5.55863ZM27.324 7.42496C27.3314 7.50705 27.335 7.58951 27.3346 7.67209L24.7717 5.0557C24.7942 4.95679 24.8139 4.85791 24.8311 4.7594C24.8548 4.62342 24.8739 4.48819 24.8894 4.35477L27.2223 6.74646C27.2248 6.79624 27.2284 6.84604 27.2321 6.89692L27.2371 6.96634C27.2395 7.00275 27.2418 7.03992 27.2437 7.07819L27.2652 7.06214C27.2932 7.18164 27.3129 7.30289 27.324 7.42496ZM25.4567 12.6106L22.653 9.73737L22.6316 9.71598C22.4459 9.99775 22.2523 10.2776 22.0569 10.5602L22.0514 10.5683L22.0466 10.5752L22.0452 10.5775C21.9179 10.7614 21.7902 10.9464 21.6631 11.1339L24.4774 14.0178C24.8306 13.547 25.157 13.0761 25.4567 12.6106ZM22.9151 9.33075C23.2361 8.79569 23.5197 8.30881 23.7765 7.80585L26.5427 10.6416C26.2977 11.1775 26.0226 11.6991 25.7188 12.204L22.9151 9.33075ZM24.638 5.61213C24.4654 6.20768 24.2472 6.78904 23.9852 7.35105L26.7407 10.1761C26.9932 9.58106 27.1729 8.95768 27.2758 8.31949L24.638 5.61213ZM7.35573 13.7182C8.52712 11.2221 10.1612 8.97077 12.1713 7.08353C16.9867 2.39646 21.6685 1.06952 22.7868 2.21988C23.2415 2.68537 23.402 3.94275 22.4871 6.07761C21.3157 8.5737 19.6818 10.825 17.6716 12.7123C12.8561 17.3994 8.17434 18.7263 7.05617 17.5759C6.57998 17.0944 6.41945 15.837 7.33437 13.6968L7.35573 13.7182ZM15.8792 21.2999L13.1022 18.4534L13.0808 18.432C12.5556 18.7134 12.0143 18.9635 11.4596 19.1811L14.1724 21.9634C14.7572 21.7858 15.3279 21.564 15.8792 21.2999ZM13.5357 18.2233C14.028 17.9558 14.5255 17.6562 15.0177 17.3351L17.8268 20.2137C17.306 20.5455 16.803 20.8344 16.3179 21.0805L13.5357 18.2233ZM16.7888 16.0617C16.3358 16.4184 15.8793 16.7538 15.4191 17.0676L18.2282 19.9462C18.6829 19.6466 19.1431 19.3149 19.6085 18.951L16.7888 16.0617ZM17.158 15.7674C17.5932 15.4107 18.0176 15.0433 18.4314 14.6652L21.2511 17.5545C20.8231 17.9504 20.3986 18.3178 19.9777 18.6567L17.158 15.7674ZM11.5613 22.1881H11.8342L11.8128 22.156C12.4198 22.2734 13.0454 22.2514 13.6427 22.0918L10.9674 19.3416C10.38 19.534 9.77382 19.6632 9.15895 19.7268L11.5613 22.1881ZM18.7417 14.3228L18.9932 14.082C19.3089 13.7717 19.6245 13.4507 19.9242 13.1243L22.7439 16.0136C22.6001 16.1676 22.4539 16.3217 22.3052 16.4751C22.1439 16.6415 21.9799 16.8071 21.8129 16.9713L21.5614 17.2121L18.7417 14.3228ZM20.2453 12.7765L23.065 15.6658L23.0757 15.639C23.461 15.2377 23.8247 14.8097 24.1352 14.3763L21.3153 11.487C20.9801 11.9258 20.6233 12.3556 20.2453 12.7765Z" />
</svg>
