<svg width="34" height="24" viewBox="0 0 34 24"  xmlns="http://www.w3.org/2000/svg">
<path fill-rule="evenodd" clip-rule="evenodd" d="M28.9368 18.4628C28.9368 17.2077 28.863 15.9579 28.7417 14.7133C28.6785 14.0436 28.6099 13.3792 28.5095 12.7147C28.3936 11.95 28.2566 11.1906 28.1035 10.4365C27.9253 9.5578 27.6748 8.69528 27.3547 7.85779C27.3364 7.81628 27.3274 7.77127 27.3284 7.72592C27.3464 7.56339 27.2878 7.4017 27.1702 7.28824C27.1477 7.26752 27.1296 7.2424 27.1174 7.21442C26.8459 6.50717 26.4768 5.84149 26.0205 5.23685C25.3276 4.3017 24.5117 3.46445 23.5947 2.74774C22.3521 1.74979 20.9338 0.993195 19.4128 0.517029C17.7346 -0.00314316 15.9597 -0.132995 14.2236 0.13736C13.1648 0.300812 12.1348 0.615143 11.165 1.07077C10.0178 1.60773 8.97241 2.33926 8.07471 3.23291C7.36401 3.93832 6.75684 4.74081 6.27124 5.61652C5.80371 6.45651 5.45752 7.35843 5.24292 8.29547C5.12183 8.79926 5.0459 9.31281 5.01611 9.83008V11.101C5.02856 11.8068 5.08301 12.5111 5.17969 13.2104C5.25342 13.7747 5.33789 14.3442 5.44849 14.9032C5.5271 15.3002 5.62964 15.7266 5.73169 16.15C5.77319 16.3227 5.8147 16.495 5.85449 16.6646C5.89331 16.8053 5.98901 16.9237 6.11816 16.9915C6.3186 17.097 6.51367 17.2077 6.71948 17.3079C7.5896 17.7351 8.45972 18.1675 9.3562 18.5788C11.8489 19.7531 14.3784 20.8552 16.9448 21.8853C18.4636 22.4918 19.9929 23.0613 21.5696 23.5201C22.1826 23.7061 22.8083 23.8472 23.4417 23.942L23.9321 24H24.1062C24.1995 23.9606 24.2913 23.9177 24.3811 23.8714C24.4146 23.8542 24.448 23.8364 24.481 23.8182C24.6868 23.7047 24.8826 23.5732 25.0659 23.4252C26.2878 22.5695 27.3423 21.4971 28.1775 20.2611C28.2886 20.0971 28.3911 19.9272 28.4917 19.7561C28.5818 19.6026 28.6704 19.4481 28.7627 19.296C28.7632 19.2867 28.7644 19.2773 28.7661 19.2681C28.7678 19.2579 28.7703 19.2479 28.7732 19.238C28.8801 19.159 28.9595 19.0483 29 18.9216V18.7107C28.9663 18.6318 28.9448 18.5482 28.9368 18.4628ZM27.0171 19.9763C26.178 21.1213 25.136 22.1026 23.9426 22.8715C23.9111 22.8924 23.8765 22.9071 23.8403 22.9152C23.8032 22.9235 23.7646 22.9249 23.7266 22.9189C23.176 22.848 22.6313 22.7369 22.0969 22.5867C20.9055 22.2559 19.7314 21.8651 18.5796 21.416C16.8218 20.755 15.092 20.0431 13.3904 19.2802C12.0791 18.6931 10.7729 18.0954 9.47217 17.4872C8.875 17.2072 8.28564 16.9088 7.69678 16.6106L7.65723 16.5905C7.42725 16.4741 7.19751 16.3578 6.96729 16.2427C6.88965 16.2092 6.83276 16.1406 6.81421 16.0581C6.60864 15.304 6.4502 14.5379 6.3396 13.7641C6.2605 13.1893 6.18677 12.6198 6.1394 12.045C6.07178 11.2712 6.07178 10.4931 6.1394 9.71933C6.22632 8.75403 6.46655 7.80875 6.85132 6.9191C7.36963 5.71967 8.13306 4.64191 9.09253 3.75497C10.4385 2.49338 12.1094 1.6315 13.9177 1.2659C14.8916 1.06256 15.8901 1.00214 16.8813 1.08658C18.0305 1.18338 19.1562 1.46658 20.2144 1.92508C21.3445 2.4129 22.3923 3.07291 23.3203 3.88156C24.2461 4.6712 25.0369 5.60629 25.6619 6.65015C25.7832 6.85056 25.8833 7.06149 26.0046 7.28296C25.8464 7.28296 25.7092 7.33569 25.5669 7.35153C25.3113 7.37875 25.0562 7.40771 24.801 7.43668C24.1667 7.50867 23.5327 7.58063 22.8933 7.62573C21.7383 7.70486 20.5835 7.7576 19.4285 7.79449C18.4634 7.82614 17.4932 7.82614 16.5229 7.84195C16.4849 7.84186 16.4473 7.83429 16.4126 7.81985C16.396 7.81296 16.3799 7.80447 16.3647 7.79449C15.6125 7.28876 14.6599 7.18552 13.8171 7.51843C12.9741 7.85138 12.3491 8.57782 12.1458 9.46094C11.9248 10.8344 12.8091 12.1432 14.1655 12.451C14.2314 12.4694 14.2927 12.5017 14.345 12.5459C15.8091 13.7437 17.3701 14.8179 19.012 15.7575C20.4128 16.5686 21.8723 17.2737 23.3784 17.8669C24.7236 18.4035 26.1121 18.8251 27.5286 19.1273H27.6184L27.5994 19.153C27.3804 19.4536 27.1863 19.7199 27.0171 19.9763ZM15.4458 11.4513C16.0544 11.1816 16.439 10.5695 16.4175 9.9039C16.4177 9.47501 16.2439 9.06439 15.9355 8.76614C15.6274 8.4679 15.2114 8.30753 14.7827 8.32184C14.1167 8.32217 13.5176 8.72644 13.2678 9.34381C13.0183 9.96118 13.1682 10.6683 13.6467 11.1314C14.1252 11.5945 14.8369 11.721 15.4458 11.4513ZM27.3757 18.0515C25.9131 17.7093 24.4836 17.2381 23.1042 16.6434C21.5791 15.9886 20.1055 15.22 18.6956 14.3442C17.7041 13.7325 16.7461 13.075 15.8215 12.3719L15.7688 12.3297C16.45 12.0775 16.9998 11.56 17.2927 10.8953C17.5801 10.2451 17.5706 9.50223 17.2664 8.85974C20.3044 8.86987 23.3398 8.67963 26.3528 8.29019C26.4478 8.59079 26.5532 8.88611 26.6428 9.18668C26.9136 10.0849 27.1199 11.0013 27.2598 11.9289L27.262 11.9418C27.3877 12.7813 27.5134 13.6207 27.592 14.4602C27.6816 15.3989 27.7292 16.3376 27.7871 17.2815C27.7871 17.5663 27.7871 17.8564 27.8188 18.1569L27.3757 18.0515ZM14.0393 9.92941C14.0278 9.50272 14.3613 9.146 14.7878 9.12869C15.2253 9.12558 15.5857 9.47183 15.6001 9.90915C15.5996 10.336 15.2566 10.6834 14.8296 10.6889C14.4028 10.6945 14.0508 10.3561 14.0393 9.92941Z" />
</svg>
