<svg width="34" height="24" viewBox="0 0 34 24"  xmlns="http://www.w3.org/2000/svg">
<path fill-rule="evenodd" clip-rule="evenodd" d="M23.1911 8.83304C23.6269 6.20837 25.8949 4.28256 28.5556 4.27814C31.5624 4.27814 33.9999 6.7157 33.9999 9.72253C33.9999 12.7294 31.5624 15.1669 28.5556 15.1669H28.1425C27.7118 17.7947 25.4408 19.7237 22.778 19.7237C20.1152 19.7237 17.8442 17.7947 17.4135 15.1669H17.0004H16.5873C16.1564 17.7947 13.8857 19.7237 11.2228 19.7237C8.55998 19.7237 6.28898 17.7947 5.85832 15.1669H5.44523C2.55534 15.1688 0.168135 12.9116 0.00846708 10.0262C-0.151445 7.14087 1.97185 4.63385 4.84416 4.31656C7.71647 3.99927 10.3359 5.98239 10.8097 8.83304H11.2228H11.6359C12.0666 6.20523 14.3376 4.27631 17.0004 4.27631C19.6633 4.27631 21.934 6.20523 22.3649 8.83304H22.778H23.1911ZM5.11345 5.49133C2.9069 5.66684 1.20402 7.5061 1.19865 9.71979V9.7363C1.21672 12.0695 3.11174 13.9523 5.44499 13.9552H5.79216C5.91984 11.6724 7.45988 9.71237 9.64763 9.04785C9.2924 6.86282 7.32023 5.31583 5.11345 5.49133ZM9.66398 10.3367C9.45549 11.8532 8.44792 13.1407 7.0258 13.7074C7.2343 12.1908 8.24187 10.9034 9.66398 10.3367ZM7.03679 14.9576C7.36687 17.0197 9.14543 18.5368 11.2336 18.5376L11.2282 18.5211C13.3173 18.5298 15.1034 17.0193 15.4416 14.9576C13.2538 14.2931 11.714 12.3331 11.5861 10.0502H11.2392H10.8923C10.7643 12.3331 9.22453 14.2931 7.03679 14.9576ZM12.7978 10.3367C14.2199 10.9034 15.2275 12.1908 15.436 13.7074C14.0138 13.1407 13.0063 11.8532 12.7978 10.3367ZM12.7978 9.0809C14.9855 9.74542 16.5253 11.7054 16.6532 13.9883L16.6586 13.9717C16.7743 13.9773 16.8681 13.9883 16.9836 13.9883H17.3307C17.4584 11.7054 18.9985 9.74542 21.186 9.0809C20.8591 7.01791 19.0805 5.49899 16.9919 5.49899C14.9032 5.49899 13.1247 7.01791 12.7978 9.0809ZM18.57 13.7074C18.7792 12.1917 19.7868 10.9054 21.2079 10.339C20.9987 11.8546 19.9914 13.141 18.57 13.7074ZM18.581 14.9576C18.9111 17.0197 20.6896 18.5368 22.7778 18.5376V18.5211C24.8649 18.527 26.6479 17.0172 26.9858 14.9576C24.798 14.2931 23.2582 12.3331 23.1303 10.0502H22.7834H22.4364C22.3085 12.3331 20.7687 14.2931 18.581 14.9576ZM24.3476 10.3367C25.7697 10.9034 26.7773 12.1908 26.9858 13.7074C25.5636 13.1407 24.5561 11.8532 24.3476 10.3367ZM28.2087 14.0048H28.5556L28.55 14.0268C30.8105 14.0272 32.6759 12.2591 32.7968 10.002C32.9174 7.74496 31.2511 5.78787 29.0038 5.54709C26.7563 5.3063 24.7133 6.86597 24.3532 9.09741C26.5409 9.76193 28.0807 11.722 28.2087 14.0048Z" />
</svg>
