<svg width="34" height="24" viewBox="0 0 34 24"  xmlns="http://www.w3.org/2000/svg">
<path d="M15.3984 13.8532V8.91818H14.1079V15.0184H18.3641V13.8532H15.3984Z" />
<path fill-rule="evenodd" clip-rule="evenodd" d="M10.78 4.8742C16.4398 -0.449237 23.8201 -1.5916 27.2386 2.33814C28.9592 4.28017 29.4346 7.13609 28.597 10.3804C27.8046 13.4877 25.8803 16.5949 23.1862 19.131C19.3376 22.7408 14.6966 24.4315 11.0517 23.906C9.3311 23.6776 7.83691 22.9236 6.72759 21.667C3.30909 17.7373 5.12022 10.1976 10.78 4.8742ZM19.564 15.9323C23.7975 10.8145 25.9935 4.64572 24.3635 2.49807C24.1371 2.17821 23.7975 1.97258 23.39 1.8355C23.3447 1.82407 23.3051 1.81265 23.2655 1.80123C23.2259 1.7898 23.1862 1.77838 23.141 1.76696C23.107 1.76696 23.0674 1.76125 23.0278 1.75553C22.9882 1.74982 22.9485 1.74411 22.9146 1.74411C22.1448 1.65272 21.1487 1.88119 20.0168 2.42953C17.934 3.45766 15.6021 5.42253 13.4967 7.98144C11.3913 10.5403 9.7386 13.3734 8.83303 15.9552C8.04066 18.2399 7.95011 20.1134 8.56137 21.1872C9.17262 21.6442 9.8518 21.9869 10.6215 22.1697C12.9307 22.0554 16.4398 19.7021 19.564 15.9323ZM19.9941 1.74411C17.368 2.15536 14.4249 3.66329 11.844 6.08511C6.97663 10.7003 5.16549 16.9605 7.70108 20.2962C7.51996 19.0853 7.72372 17.5316 8.35761 15.7038C9.28582 13.0307 10.9838 10.1291 13.1571 7.50164C15.3305 4.8742 17.7076 2.86363 19.8583 1.81265L19.9941 1.74411ZM22.1222 17.8972C24.5899 15.5668 26.3331 12.7565 27.0575 9.94631C27.7593 7.27317 27.3971 4.96559 26.0388 3.43481C25.7445 3.11495 25.4275 2.84078 25.0653 2.58946C26.3331 5.37684 24.205 11.2258 19.9036 16.4121C17.4359 19.4051 14.8098 21.4842 12.6138 22.3753C15.5569 22.3067 19.0886 20.7531 22.1222 17.8972Z" />
</svg>
