<svg width="34" height="24" viewBox="0 0 34 24"  xmlns="http://www.w3.org/2000/svg">
<path fill-rule="evenodd" clip-rule="evenodd" d="M28.6428 11.4671C28.4457 4.9398 22.9944 -0.191735 16.467 0.00550043C9.93983 0.202736 4.80824 5.65406 5.0055 12.1813C5.02247 18.7136 10.3228 24 16.855 24H16.891C20.1365 23.9757 23.23 22.6219 25.45 20.2543C27.6699 17.8867 28.8222 14.7125 28.6377 11.4722L28.6428 11.4671ZM7.03529 14.3807V14.4988L6.99928 14.3447L7.03529 14.3807ZM6.9889 13.0241C7.07105 13.2896 7.19032 13.5422 7.34351 13.7743C7.396 13.8122 7.45094 13.8465 7.50794 13.8771H8.02174C8.38148 13.8771 8.72572 13.8616 9.04945 13.8359H9.20362C9.22425 13.7589 9.26014 13.6818 9.26014 13.6047C9.45472 12.9019 9.70204 12.2148 10.0001 11.5493C10.1585 11.1678 10.3511 10.8015 10.5757 10.4547C10.6159 10.3946 10.6585 10.3362 10.7034 10.2795C10.7385 10.2353 10.775 10.1922 10.8129 10.1502C10.8361 10.1245 10.8598 10.0993 10.8839 10.0745C10.8408 10.0163 10.8031 9.95441 10.7709 9.88953C10.7401 9.83298 10.6939 9.77647 10.6939 9.71995C10.6561 9.62827 10.6226 9.53498 10.5931 9.44038C10.5835 9.40943 10.5743 9.37833 10.5656 9.34711C10.5574 9.31782 10.5497 9.28837 10.5422 9.25883L10.5294 9.20609C10.4484 8.84394 10.3934 8.47645 10.365 8.10645C10.3455 7.88032 10.3344 7.65363 10.3316 7.4268C10.3294 7.25596 10.3319 7.08506 10.3392 6.91428C10.3413 6.87492 10.3452 6.83567 10.3508 6.7967C10.3535 6.77778 10.3567 6.75895 10.3602 6.74018C10.3633 6.72453 10.3666 6.7089 10.3701 6.69334H10.3392L9.61475 6.82694C9.53089 6.84266 9.44373 6.85972 9.35413 6.87821L9.29078 6.89143L9.21339 6.908C9.13355 6.92536 9.05225 6.94382 8.9701 6.96348C8.82508 6.99818 8.67738 7.03648 8.53053 7.07874H8.44825L8.40211 7.13526C8.01454 7.58872 7.68336 8.08735 7.41541 8.62031C7.38844 8.66846 7.36439 8.71821 7.34351 8.76932C7.15199 9.29716 7.00587 9.8404 6.90675 10.3931C6.84229 10.7483 6.79762 11.1069 6.77308 11.467V11.5082C6.76917 11.5688 6.76698 11.6295 6.76649 11.6903C6.76588 11.7666 6.76808 11.843 6.77308 11.9193C6.79762 12.2952 6.87025 12.6665 6.9889 13.0241ZM14.7944 2.29987C14.4557 2.76215 14.2097 3.28565 14.07 3.84144C13.9646 3.84156 13.8608 3.86619 13.7667 3.91337C12.9827 4.28406 12.2374 4.73157 11.5418 5.2494C11.2582 5.45905 10.9996 5.70042 10.771 5.96882C10.5089 6.00477 10.2571 6.04075 10.0208 6.08698L9.89234 6.11033L9.77442 6.13224C9.68751 6.14854 9.60304 6.1648 9.52076 6.1811C9.44093 6.19691 9.36305 6.21278 9.28687 6.2288C9.07374 6.27369 8.87367 6.31983 8.67957 6.36961V6.24116C8.81983 6.05213 8.9662 5.86777 9.11842 5.68836C9.1471 5.65458 9.17591 5.62095 9.20496 5.5875C9.2776 5.50401 9.35145 5.42161 9.42664 5.34034C9.49684 5.2645 9.56812 5.18964 9.64051 5.11579C10.3916 4.35364 11.2588 3.7154 12.2097 3.2248C12.9262 2.85261 13.6854 2.56959 14.4707 2.38209L14.7944 2.29987ZM17.7338 2.10462H17.3329L17.2868 2.14573C17.2346 2.14832 17.1818 2.15293 17.1284 2.15836L17.0713 2.16447L17.0266 2.16938L17.0222 2.16984C16.9735 2.17524 16.9246 2.18067 16.8756 2.18525C16.8508 2.18757 16.8261 2.18967 16.8013 2.19144C16.7522 2.19492 16.7033 2.19712 16.6547 2.19712H16.5828C16.4312 2.21152 16.2803 2.23228 16.1305 2.25928C16.0324 2.27698 15.9347 2.29737 15.8377 2.32044H15.7349C15.6733 2.33482 15.6364 2.34345 15.604 2.36073C15.5553 2.38673 15.5171 2.43235 15.4214 2.54655C15.0908 2.94678 14.8491 3.4127 14.7123 3.9134H14.7586C14.8402 3.95567 14.9202 3.9976 14.9987 4.03925C15.1049 4.09559 15.2083 4.15144 15.3093 4.20692C15.5421 4.33472 15.7626 4.46064 15.9763 4.58656C16.349 4.80192 16.7077 5.04047 17.0503 5.30082C17.1974 5.41059 17.3334 5.53449 17.4563 5.67078L17.7543 5.62455C18.2321 5.57224 18.7124 5.54652 19.1931 5.54746H19.3473C19.8148 5.54746 20.2311 5.56287 20.6165 5.59885C20.8425 5.61939 21.1098 5.65021 21.3565 5.68107H21.4181L21.5928 5.70676L21.6904 5.51664L21.8497 5.20832L22.3995 4.14976C22.1343 3.82441 21.8439 3.5203 21.5311 3.24024C21.5154 3.22559 21.499 3.21162 21.4821 3.19837C21.4642 3.18442 21.4458 3.1713 21.4268 3.15903L21.4111 3.14927C21.4016 3.14341 21.3919 3.13776 21.3821 3.13233C21.2326 3.0561 21.0809 2.98411 20.9274 2.91648C20.8604 2.88694 20.793 2.85825 20.7254 2.83039C20.6467 2.79801 20.5676 2.76676 20.488 2.73667C19.9725 2.53739 19.4414 2.38099 18.9002 2.26905C18.5355 2.19263 18.1666 2.13773 17.7954 2.10462H17.7338ZM9.79456 14.1186C9.84132 13.8892 9.90138 13.6627 9.97437 13.4403C10.1737 12.7834 10.4227 12.1426 10.7195 11.5236C10.8519 11.2364 11.012 10.9627 11.1974 10.7066C11.2516 10.6364 11.3099 10.5694 11.3721 10.5061C11.4061 10.4674 11.4457 10.4343 11.4893 10.4075C11.5042 10.3984 11.5195 10.39 11.5353 10.3824C11.5556 10.3727 11.5765 10.3642 11.5982 10.3571L11.7935 10.3006V10.2698C11.8845 10.2698 11.9801 10.2642 12.0818 10.2582L12.0829 10.2582C12.1989 10.2514 12.3225 10.2441 12.4563 10.2441H14.0801H14.8098H15.2826L15.4161 10.4445L16.4078 11.8884C16.7573 12.4023 17.1325 12.9161 17.5486 13.4557L17.5941 13.5123C17.6469 13.5778 17.6974 13.6405 17.7476 13.7005L17.7985 13.7604C17.8162 13.7809 17.8339 13.801 17.8517 13.8208C17.8721 13.8434 17.8926 13.8656 17.9135 13.8873C17.5435 14.7146 17.1325 15.6036 16.6751 16.4566C16.5466 16.7033 16.3976 16.9705 16.264 17.176C16.2181 17.2505 16.1685 17.3226 16.115 17.3918L16.079 17.4381C16.005 17.4594 15.9304 17.4788 15.8555 17.4962C15.7825 17.5132 15.709 17.5284 15.6351 17.5417C15.5931 17.5492 15.5512 17.5562 15.5089 17.5625C15.4746 17.5677 15.4403 17.5725 15.4059 17.5768C15.0719 17.6282 14.707 17.6642 14.301 17.6847C13.9826 17.6847 13.6998 17.7104 13.4378 17.7104H12.8931C12.6359 17.7002 12.3798 17.6693 12.1275 17.6179L11.999 17.4843C11.9065 17.3867 11.814 17.2942 11.7267 17.1914C11.2015 16.5875 10.7321 15.9374 10.3239 15.249C10.153 14.9684 10.0086 14.6725 9.89222 14.3652C9.89222 14.3325 9.87757 14.2998 9.86305 14.2672C9.85475 14.2485 9.84644 14.2298 9.84083 14.2111L9.80995 14.1083C9.80518 14.1123 9.80006 14.1157 9.79456 14.1186ZM18.2835 13.3992L18.4171 13.5328L18.5148 13.5739H18.7511H19.3934L21.3666 13.5071C21.64 13.5044 21.9122 13.4717 22.1785 13.4095L22.3173 13.2707C22.552 13.018 22.7588 12.7406 22.9338 12.4434C23.1969 11.9897 23.4188 11.5133 23.5968 11.02C23.7534 10.6117 23.8805 10.1927 23.9771 9.76621C23.9819 9.75108 23.9856 9.73566 23.988 9.72013C23.9894 9.71171 23.9904 9.70322 23.991 9.69471L23.9917 9.67707C23.9923 9.64304 23.9874 9.60892 23.9771 9.57609C23.8582 9.26716 23.7084 8.97105 23.5299 8.69227C23.0188 7.88724 22.4246 7.13804 21.7572 6.45698C21.5049 6.39829 21.2492 6.35538 20.9915 6.32853C20.5907 6.28226 20.1796 6.24116 19.6658 6.24116H19.2702C19.1774 6.24094 19.0846 6.24171 18.9918 6.24348C18.837 6.24641 18.6823 6.25202 18.5277 6.26038C18.3226 6.27146 18.1178 6.28733 17.9135 6.30796L17.6309 6.34394C17.6145 6.38477 17.5919 6.42289 17.5641 6.45698C17.5169 6.51362 17.4739 6.57374 17.4357 6.63682L17.3637 6.75501L17.3235 6.82249C17.223 6.99122 17.1204 7.16346 17.0297 7.33567C16.5724 8.16813 16.1613 9.06223 15.781 9.90495L15.8889 10.0642L16.0277 10.2647C16.4901 10.9738 17.004 11.7034 17.5178 12.4074C17.7697 12.7877 18.0214 13.1011 18.2835 13.3992ZM10.8429 20.2848L10.6631 20.1512L10.8019 20.2077L10.8429 20.2848ZM19.5875 20.182L19.5785 20.1821L19.5888 20.1769L19.5875 20.182ZM19.5875 20.182C19.6571 20.1804 19.7258 20.1647 19.7892 20.1358C20.6581 19.7411 21.4788 19.248 22.2351 18.6662C22.4932 18.4791 22.7278 18.2618 22.934 18.0187C22.9802 17.9622 23.0265 17.9006 23.0676 17.8338C23.3204 17.8781 23.5765 17.9005 23.8333 17.9006C24.005 17.8998 24.1765 17.8895 24.3472 17.8697C24.4832 17.8543 24.6204 17.8351 24.7583 17.812C24.8966 17.7889 25.0355 17.7619 25.1744 17.731L25.1487 17.8543C24.2039 19.2335 22.933 20.3579 21.449 21.1276C20.7178 21.5054 19.9429 21.7919 19.1417 21.9806C19.0881 21.9784 19.0347 21.9745 18.9813 21.9689C18.9232 21.9628 18.8654 21.9547 18.8077 21.9446C19.1748 21.4105 19.4392 20.8128 19.5875 20.182ZM25.6266 16.8626C25.5787 16.9254 25.5254 16.9839 25.4673 17.0373H25.4159C25.3153 17.0651 25.2141 17.0907 25.1124 17.114C25.0306 17.1328 24.9485 17.1501 24.8661 17.166C24.7994 17.1789 24.7327 17.1908 24.6657 17.2017C24.3956 17.2485 24.1226 17.2742 23.8486 17.2788H23.5917L23.3245 17.248V17.0989V17.0527C23.3311 16.9307 23.3348 16.8086 23.3356 16.6865C23.3366 16.5328 23.3329 16.379 23.3245 16.2254C23.3245 16.0121 23.2997 15.8237 23.2766 15.6483L23.2628 15.542C23.2058 15.0569 23.0956 14.5795 22.934 14.1186C22.934 14.1054 22.9318 14.0926 22.9281 14.0799C22.9246 14.0679 22.9198 14.056 22.9144 14.0442C22.901 14.0146 22.8836 13.9851 22.8723 13.9541C22.8331 13.859 22.7849 13.7678 22.7284 13.6818C23.0642 13.3144 23.351 12.9051 23.5814 12.464C24.011 11.6899 24.3407 10.8646 24.5629 10.0077H24.9894C25.0537 10.0077 25.1187 10.0097 25.1836 10.013C25.2949 10.0186 25.4065 10.0277 25.5154 10.0367C25.5919 10.043 25.667 10.0492 25.7396 10.054H25.9041H26.125C26.2557 10.2638 26.3659 10.4858 26.4539 10.7168C26.6376 11.1707 26.7653 11.6452 26.8341 12.13C26.8527 12.2552 26.8656 12.3811 26.8731 12.5074C26.8789 12.6075 26.8814 12.7079 26.8804 12.8082C26.8804 12.8853 26.8804 12.9623 26.8748 13.0402C26.8718 13.0826 26.8672 13.1251 26.86 13.1681C26.8557 13.1936 26.8506 13.2192 26.8444 13.245C26.8085 13.5739 26.7622 13.8873 26.6953 14.1957C26.5895 14.7222 26.4364 15.2381 26.238 15.7372C26.0907 16.1378 25.8865 16.515 25.6317 16.8574L25.6266 16.8626ZM14.7277 22.0525H14.7946L15.2262 22.1502C15.3961 22.1805 15.5676 22.2011 15.74 22.2118H15.9661C16.3992 22.21 16.8311 22.167 17.2559 22.0834C17.5266 22.0325 17.793 21.9604 18.0524 21.8675C18.0986 21.8517 18.1384 21.821 18.1654 21.7802C18.389 21.4591 18.5769 21.1144 18.7255 20.7525C18.8224 20.5333 18.8948 20.3041 18.9413 20.069H18.9003C18.2816 19.7291 17.6813 19.3569 17.1017 18.954C16.8342 18.7703 16.5817 18.5659 16.3463 18.3425C16.2914 18.2895 16.2395 18.2334 16.1909 18.1745C16.1738 18.1538 16.1571 18.1327 16.1409 18.1112H16.0689C15.7844 18.1782 15.4961 18.228 15.2056 18.2603C14.8253 18.3065 14.4297 18.3579 13.9878 18.3579H13.3762C13.1194 18.3579 12.811 18.3425 12.6517 18.3322C12.4924 18.3219 12.328 18.2757 12.1687 18.2757H12.0557H12.0094C11.7731 18.8152 11.5521 19.3805 11.3568 19.9663L11.3825 20.0125C11.4185 20.0742 11.4545 20.1307 11.4904 20.1872C11.768 20.5665 12.1171 20.8877 12.5181 21.1327C13.0181 21.4546 13.5637 21.6988 14.1367 21.8572L14.4451 21.9395L14.5941 21.9806L14.7277 22.0165V22.0525Z" />
</svg>
