<svg width="34" height="24" viewBox="0 0 34 24"  xmlns="http://www.w3.org/2000/svg">
<path fill-rule="evenodd" clip-rule="evenodd" d="M26.9387 2.44763C25.687 1.12646 24.0117 0.286011 22.2041 0.0726013C21.8997 0.0274658 21.5867 0.0177917 21.333 0.00994873L21.1914 0.00531006C21.1497 0.00378418 21.1104 0.0020752 21.0738 0C18.6883 0.160767 16.9253 1.06824 15.6184 2.83658C14.5698 4.31497 13.7774 5.95935 13.2744 7.70074C13.01 8.65265 12.8194 9.62354 12.7041 10.6047C12.4951 12.314 12.0718 13.9901 11.4439 15.5934C11.1704 16.2214 10.8443 16.8251 10.469 17.398C10.4251 17.4534 10.3582 17.4858 10.2876 17.4861C9.90969 17.439 9.53347 17.5852 9.28664 17.8751L7.55471 19.6849L5.57375 21.7592C5.38064 21.9419 5.27517 22.1988 5.28396 22.4646C5.29299 22.7303 5.4153 22.9795 5.62038 23.1489C5.83425 23.3579 6.05935 23.5552 6.29445 23.7401C6.72072 24.1167 7.37087 24.0797 7.75173 23.6571C9.01711 22.3538 10.2754 21.0453 11.5269 19.7316C11.7696 19.5017 11.8655 19.1565 11.7759 18.8344C11.7446 18.7203 11.8069 18.6633 11.8848 18.6011C12.3823 18.2153 12.9195 17.8833 13.4871 17.6106C14.9258 16.9238 16.4329 16.3902 17.9832 16.0186C18.917 17.4098 20.5098 18.212 22.1834 18.1344C23.4085 18.1112 24.574 17.6019 25.4234 16.7187C26.2725 15.8354 26.7356 14.6508 26.7107 13.4258C26.7012 13.2186 26.6765 13.0127 26.6375 12.8094C26.6238 12.7381 26.6082 12.6671 26.5908 12.5965C26.5811 12.5564 26.5706 12.5165 26.5596 12.4767C26.5513 12.4472 26.543 12.4179 26.5342 12.3886C26.6695 12.2795 26.8013 12.166 26.9292 12.0485C27.0554 11.9325 27.178 11.8124 27.2967 11.6885C28.2254 10.7255 28.8091 9.48181 28.9561 8.15192C29.1948 6.04166 28.4512 3.93863 26.9387 2.44763ZM13.1604 15.8941L13.679 14.3384L14.7473 15.2563L13.1604 15.8941ZM18.5825 13.6262C18.6072 15.5721 20.1907 17.1372 22.137 17.1387V17.1491C24.1377 17.0954 25.7234 15.4427 25.6944 13.4413C25.6177 11.4967 23.9927 9.97458 22.0471 10.0251C20.1018 10.0757 18.5581 11.6802 18.5825 13.6262ZM27.2446 7.9393C27.1419 9.05344 26.6123 10.0847 25.7666 10.8174L25.7356 10.8433C24.7739 9.6593 23.3079 9.00131 21.784 9.06979C20.5591 9.09296 19.3933 9.60226 18.5442 10.4855C17.6951 11.3687 17.232 12.5534 17.2569 13.7784C17.2569 13.9236 17.2569 14.0636 17.2984 14.2036L16.8472 14.1621C16.3074 14.1344 15.7901 13.9366 15.3694 13.5969C14.9072 13.1662 14.6133 12.5855 14.5396 11.9582C14.4214 11.1709 14.4407 10.3691 14.5967 9.58838C14.8816 7.9978 15.4302 6.466 16.2197 5.05606C16.5999 4.28702 17.1045 3.58615 17.7132 2.98178C18.9466 1.84293 20.6546 1.37143 22.2974 1.71649C23.5364 1.93234 24.6787 2.52441 25.5696 3.4122C26.8137 4.56833 27.4353 6.24643 27.2446 7.93414V7.9393ZM21.4263 12.0827C20.8552 12.121 20.4234 12.6145 20.4607 13.1855C20.4983 13.7565 20.9912 14.1892 21.5623 14.1525C22.1333 14.1158 22.5667 13.6235 22.5308 13.0524C22.5134 12.7771 22.3872 12.5201 22.18 12.3381C21.9727 12.1561 21.7014 12.0642 21.4263 12.0827ZM23.7339 14.8985C23.376 15.2096 23.2154 15.6141 23.4072 15.8008C23.5991 15.9875 24.0139 15.8786 24.3718 15.5674C24.7295 15.2563 24.8904 14.8518 24.6985 14.6651C24.5066 14.4785 24.1177 14.5873 23.7339 14.8985Z" />
</svg>
