<svg width="34" height="24" viewBox="0 0 34 24"  xmlns="http://www.w3.org/2000/svg">
<path fill-rule="evenodd" clip-rule="evenodd" d="M33.0117 16.3972C32.8943 16.5025 30.1015 18.9452 27.5109 16.4191L27.4786 16.3877C28.3234 14.6587 28.7227 12.7373 28.6089 10.7521C28.3036 5.41378 23.8726 -0.0753888 16.9787 0.000783771C13.9199 0.0310341 11.0577 1.23485 8.91928 3.38992C6.78782 5.53806 5.60501 8.39836 5.5885 11.4434V11.4536C5.60318 13.1546 5.98852 14.7892 6.68983 16.2769L6.51735 16.5929C6.50744 16.6111 5.47914 18.4258 4.0677 18.5122C3.1594 18.5636 2.19459 17.8966 1.20152 16.5164L0 17.3685C1.24849 19.1041 2.57919 19.9821 3.95834 19.9821C4.02513 19.9821 4.09229 19.9799 4.15908 19.9762C5.56831 19.8895 6.62854 18.892 7.23554 18.1375C8.38715 19.322 9.59454 19.8811 10.8364 19.8068C12.2695 19.7186 13.3551 18.7833 13.9731 18.0854C15.0953 19.1897 16.2734 19.7124 17.4833 19.638C18.8676 19.5549 19.9231 18.6966 20.5279 18.0522C21.5286 18.9812 22.612 19.4368 23.7478 19.419C25.2227 19.3909 26.3971 18.5443 27.0382 17.9549C29.7547 20.0506 32.7346 18.6186 34 17.4873L33.0117 16.3972ZM23.7196 17.9527C23.1427 17.9651 22.5724 17.7683 22.0127 17.3699C22.0461 16.7758 22.0354 16.1686 21.9786 15.5585C21.8116 13.7745 21.3 11.9525 20.4148 9.98883C20.384 9.92067 20.3554 9.85106 20.3238 9.77489L20.3135 9.75083C20.3778 9.72641 20.4405 9.70127 20.5029 9.67685C20.7084 9.59557 20.9026 9.51904 21.1029 9.46692C21.6083 9.33535 22.1254 9.21179 22.6259 9.09225C22.9133 9.02373 23.201 8.95521 23.4884 8.88451C23.6032 8.85571 23.655 8.88086 23.7276 9.00077C24.3955 10.0989 24.8701 11.326 25.1383 12.6479C25.462 14.2399 25.4404 15.8632 25.0837 17.476C25.0448 17.5263 25.0036 17.5755 24.9636 17.625C24.5934 17.8087 24.1721 17.9443 23.7196 17.9527ZM21.0424 16.4654L20.3998 15.7237L19.8614 16.5445C19.8526 16.5576 19.0816 17.7126 17.9351 18.0716C18.0364 17.238 18.0503 16.3866 17.9751 15.54C17.854 14.1787 17.5259 12.8729 16.9989 11.6599C16.9739 11.6024 16.9754 11.6013 17.0121 11.5743C17.858 10.9514 18.803 10.4087 19.8141 9.96373C19.8192 9.96227 19.8254 9.96191 19.835 9.96045C19.9282 10.2108 20.0236 10.4601 20.119 10.7094C20.3506 11.3148 20.5902 11.9413 20.7961 12.5649C21.2178 13.8442 21.4446 15.1701 21.4692 16.5062C21.4718 16.6389 21.4655 16.773 21.4633 16.9067C21.3224 16.7712 21.1818 16.6272 21.0424 16.4654ZM14.4905 16.4741L13.8281 15.6807L13.2905 16.5627C13.285 16.5714 12.9866 17.0391 12.4923 17.4935C11.1616 16.8164 9.94684 15.9227 8.87413 14.8202C8.25209 14.1809 7.67481 13.4429 7.14892 12.6309C7.09901 12.2424 7.06892 11.8473 7.06525 11.446C7.07075 10.5061 7.2036 9.60111 7.44251 8.74316C7.59187 8.92467 7.73794 9.10289 7.8873 9.2771C9.77472 11.4806 11.795 13.0573 14.0633 14.0975C15.1904 14.6143 16.226 14.9317 17.229 15.0677C17.3494 15.0844 17.3699 15.1089 17.3861 15.2565C17.4899 16.2139 17.4844 17.163 17.3699 18.0781L17.3578 18.1736C16.429 18.2137 15.466 17.6437 14.4905 16.4741ZM10.7447 18.3427C10.414 18.362 10.0775 18.2949 9.73693 18.1553C8.6712 17.0011 7.87043 15.6001 7.43555 14.0479C8.7545 15.6752 10.2863 16.961 12.0119 17.8754C11.6456 18.1225 11.217 18.3139 10.7447 18.3427ZM26.251 8.77408C26.3329 8.78101 26.4147 8.78866 26.4966 8.79631C26.596 8.80579 26.6951 8.81344 26.7945 8.82073C26.9799 9.48515 27.0962 10.1612 27.1347 10.8355C27.2467 12.7908 26.7953 14.678 25.8492 16.329C26.1365 13.6794 25.6059 11.1515 24.2634 8.79996C24.9769 8.73144 25.6286 8.72379 26.251 8.77408ZM16.538 11.1694C15.0678 10.4714 13.7606 9.60035 12.6519 8.58167C12.6376 8.56855 12.624 8.55434 12.6097 8.53867C12.696 8.47197 12.7818 8.40527 12.8673 8.33894C13.1162 8.14578 13.3514 7.96318 13.5984 7.78605C15.6278 6.33513 17.6264 5.34999 19.7087 4.77559C20.9337 4.43737 22.1422 4.2781 23.2975 4.30799C23.5981 4.31528 23.9034 4.34261 24.2014 4.36995C25.3035 5.47791 26.1233 6.81804 26.6147 8.23835C26.3978 8.22086 26.1743 8.203 25.9534 8.19498C23.8069 8.11917 21.6615 8.54268 19.5781 9.46003C18.5384 9.91779 17.553 10.4867 16.6484 11.1497C16.6235 11.1679 16.5581 11.1774 16.538 11.1694ZM15.212 1.6416C13.2718 2.58884 11.6431 3.94828 10.3656 5.70608C10.3586 5.69551 10.3531 5.68604 10.3487 5.67583C10.2012 5.35037 10.0562 5.02308 9.91089 4.69616L9.83859 4.53361C11.2475 3.06337 13.1063 2.03158 15.212 1.6416ZM17.1765 1.46851C19.7286 1.48527 21.8854 2.37675 23.5335 3.7566C21.7639 3.69063 19.9939 4.00079 18.127 4.70347C16.0583 5.48306 14.078 6.63585 12.2405 8.12978C12.2284 8.13962 12.2159 8.14873 12.2013 8.16003C12.1275 8.07511 12.0534 7.99092 11.9796 7.90709C11.7649 7.66291 11.5425 7.41033 11.3359 7.15485C11.2111 7.00068 11.0948 6.83302 10.9821 6.67084C10.9025 6.5564 10.8229 6.44196 10.7395 6.33043C10.6882 6.26191 10.683 6.23348 10.7395 6.15112C11.7789 4.64479 13.1485 3.40599 14.8095 2.46823C15.6256 2.00682 16.4033 1.68281 17.1765 1.46851ZM9.41509 5.00415C9.44959 5.08834 9.48372 5.17363 9.52079 5.25454C10.1751 6.69926 11.1476 7.98399 12.4941 9.1838C13.5646 10.1383 14.8117 10.9565 16.3053 11.6858C16.3721 11.7183 16.4422 11.7908 16.473 11.8582C16.8308 12.6509 17.087 13.5009 17.2749 14.5221C17.2077 14.5086 17.1417 14.4958 17.0763 14.4827C16.8407 14.4368 16.6176 14.3923 16.3989 14.3373C14.6832 13.9036 13.0519 13.0945 11.4104 11.863C10.0529 10.845 8.82094 9.60986 7.64658 8.09406C8.05063 6.95074 8.65359 5.90765 9.41509 5.00415ZM24.0365 22.1394C23.1235 22.1485 22.2247 21.6565 21.3594 20.652L20.7168 19.9103L20.1784 20.7308C20.1681 20.7464 19.1468 22.279 17.7038 22.361C16.7709 22.4142 15.7932 21.8427 14.8075 20.6611L14.1477 19.8739L13.6082 20.7475C13.5979 20.7646 12.5447 22.4426 11.0554 22.5301C10.0924 22.5833 9.08653 21.9623 8.063 20.6743L6.90405 21.5836C8.1797 23.1883 9.53279 24 10.9299 24C11.004 24 11.0785 23.9982 11.153 23.9934C12.5865 23.9052 13.6721 22.97 14.2901 22.2721C15.4123 23.3764 16.5918 23.8979 17.8003 23.8247C19.1846 23.7416 20.2397 22.8833 20.8448 22.2389C21.8452 23.1675 22.9297 23.622 24.0644 23.6056C26.2854 23.5634 27.825 21.6649 27.8892 21.5843L26.7317 20.6739C26.7203 20.6881 25.5438 22.111 24.0365 22.1394Z" />
</svg>
