<svg width="34" height="24" viewBox="0 0 34 24"  xmlns="http://www.w3.org/2000/svg">
<path fill-rule="evenodd" clip-rule="evenodd" d="M16.2319 22.6333L14.1057 23.7921V22.6918C14.1057 22.6391 14.205 22.5811 14.269 22.5439L14.2705 22.543C14.656 22.3333 15.0415 22.1236 15.4285 21.9153C15.6497 21.7962 15.8713 21.6776 16.0938 21.5596C16.1747 21.528 16.2311 21.4568 16.2457 21.3745C16.2498 21.3518 16.2506 21.3282 16.2479 21.3044V20.119L12.527 22.1284V21.0652C12.527 21.0174 12.6067 20.9536 12.6652 20.9217L15.4718 19.3961L15.6951 19.2686L13.6804 18.1736L13.8879 18.0616C14.1649 17.9117 14.4269 17.77 14.6958 17.642C14.7585 17.6314 14.823 17.6447 14.8765 17.6792L16.0247 18.3011L16.2373 18.4074V17.4506C16.2373 17.4081 16.1788 17.3549 16.131 17.3284L12.208 15.2021C12.1768 15.189 12.1433 15.183 12.11 15.1841C12.0819 15.185 12.0538 15.191 12.0273 15.2021C11.7456 15.3456 11.4957 15.4998 11.1661 15.6646L11.4639 15.824L11.6831 15.9426C11.9565 16.0907 12.2335 16.2408 12.527 16.3875C12.571 16.4033 12.6074 16.4322 12.6326 16.4687C12.6605 16.5092 12.6748 16.559 12.6705 16.6107V17.6207L10.6399 16.531V17.2699V19.7842C10.6549 19.9146 10.5778 20.0381 10.4539 20.0818C10.3267 20.1454 10.2015 20.2112 10.0743 20.2794C9.97534 20.3326 9.875 20.3873 9.77136 20.4438L9.57678 20.5496V16.531C9.15161 16.7649 8.75818 16.9722 8.37024 17.1902C8.32764 17.1902 8.31702 17.3124 8.31702 17.3762V19.2951C8.33936 19.4435 8.25525 19.5873 8.11499 19.6407C7.96509 19.7113 7.82422 19.7896 7.67566 19.8721C7.54492 19.9447 7.4082 20.0207 7.25391 20.0978V17.7802L5.93567 18.4872L5.40405 17.626L6.71167 16.9137L4.58545 15.7496L4.73035 15.6704C5.02649 15.5084 5.3064 15.3553 5.59009 15.218C5.63794 15.218 5.73364 15.218 5.79211 15.2606C6.40869 15.5901 7.02002 15.9197 7.62598 16.2599C7.72534 16.3277 7.8562 16.3277 7.95557 16.2599C8.30103 16.0632 8.65723 15.8772 9.01868 15.6646L5.29773 13.6553L5.41418 13.5918C5.72974 13.4197 6.02039 13.2611 6.32361 13.1237C6.36621 13.1237 6.46191 13.1237 6.52563 13.1822L9.32166 14.6865L9.54492 14.8034V12.6187C9.65247 12.6845 9.76221 12.7464 9.87415 12.8042C9.96155 12.8494 10.0503 12.8922 10.1403 12.9323C10.311 12.9716 10.4591 13.0771 10.5519 13.2257C10.6447 13.3744 10.6744 13.5538 10.6346 13.7244C10.6124 14.0891 10.6124 14.4547 10.6346 14.8194C10.9695 14.6386 11.2725 14.4739 11.5702 14.2878C11.6021 14.2878 11.6127 14.1974 11.6127 14.1496V9.94498C11.6127 9.89713 11.6127 9.82803 11.5648 9.81207C11.457 9.74933 11.3485 9.68875 11.2375 9.62689C11.0479 9.52103 10.8513 9.41135 10.6399 9.28052V10.6785C10.658 10.8151 10.5782 10.9457 10.4486 10.9922C10.1615 11.1303 9.88513 11.2951 9.57678 11.4652V9.30179L9.35889 9.40808L6.53101 10.8965C6.43164 10.9643 6.30078 10.9643 6.20142 10.8965C5.91968 10.7317 5.62732 10.5775 5.3031 10.4021L9.02405 8.39282C8.60938 8.16956 8.22131 7.95694 7.83325 7.75494C7.79675 7.74817 7.75964 7.74887 7.724 7.75665C7.69324 7.76334 7.6637 7.77524 7.6366 7.79214C7.01648 8.1217 6.39807 8.4566 5.78149 8.79678C5.69324 8.85666 5.57739 8.85666 5.48914 8.79678C5.38196 8.73532 5.27344 8.67532 5.16223 8.61487C5.08398 8.5723 5.00439 8.52951 4.92322 8.48581C4.81067 8.42523 4.69482 8.36295 4.57483 8.29712L6.70105 7.133L5.3988 6.42603L5.9303 5.55957L7.24329 6.27188V3.94894C7.60474 4.14563 7.92896 4.31573 8.24255 4.48053C8.25952 4.48053 8.27319 4.50006 8.28345 4.52725C8.29883 4.56805 8.3064 4.62616 8.3064 4.66125V6.65991C8.30054 6.72687 8.32178 6.79126 8.36243 6.84064C8.38916 6.8732 8.42444 6.8992 8.46582 6.91507C8.625 6.99463 8.78149 7.07812 8.93665 7.16299C9.09241 7.24823 9.24695 7.33481 9.40137 7.42004L9.57153 7.49448V3.49182C9.72632 3.57498 9.87512 3.65411 10.0195 3.73099L10.088 3.76743C10.2516 3.85449 10.4099 3.93893 10.5656 4.02338C10.5911 4.03757 10.6075 4.07449 10.6173 4.11633C10.6259 4.15286 10.6293 4.19315 10.6293 4.22537V7.26059V7.49979L12.6545 6.43668V7.53168C12.6545 7.57953 12.5695 7.638 12.511 7.66989L11.1769 8.39282C11.3756 8.5018 11.5647 8.60498 11.751 8.70471C11.8737 8.77036 11.9952 8.8345 12.1177 8.8978C12.1747 8.90845 12.2335 8.89703 12.2825 8.86591L16.1364 6.78217C16.1895 6.75558 16.2533 6.6918 16.2533 6.64929V5.64996L15.8226 5.88385L14.9031 6.3782C14.8499 6.40475 14.7649 6.44199 14.7223 6.42072C14.6144 6.36761 14.5076 6.31284 14.4 6.25677C14.1741 6.13885 13.9451 6.01523 13.6964 5.88916L15.7111 4.79413L15.525 4.68784C14.6884 4.20978 13.8561 3.77045 13.0166 3.32727L12.7343 3.17819C12.6 3.1275 12.5184 2.99088 12.5376 2.84863V1.91309L16.2585 3.92236V2.6413C16.2585 2.58817 16.1735 2.51904 16.115 2.48184C15.5055 2.1452 14.8925 1.81384 14.2759 1.48782C14.1704 1.4494 14.1047 1.34424 14.1163 1.23267V0.249298L16.2426 1.39746V-0.000549316H17.3058V1.40277L19.4639 0.243958C19.4467 0.454468 19.4467 0.666016 19.4639 0.876526C19.5448 1.22061 19.3376 1.56674 18.9961 1.65793C18.5062 1.87833 18.0435 2.14389 17.5746 2.41299L17.4546 2.48184C17.4445 2.48737 17.434 2.49417 17.4233 2.50195C17.416 2.50732 17.4087 2.51312 17.4015 2.51932C17.3763 2.54099 17.353 2.56708 17.3381 2.59335C17.3279 2.61151 17.3217 2.62973 17.3217 2.64664V3.91174L21.0426 1.90244V2.99747C21.0426 3.04529 20.9575 3.10376 20.899 3.13565L18.0924 4.66125L17.8798 4.78351L19.8944 5.87851C19.8162 5.92133 19.7404 5.9617 19.6663 6.00098C19.5695 6.05225 19.4755 6.10165 19.3826 6.15225C19.2905 6.20239 19.1995 6.25366 19.1077 6.30908C18.9415 6.43671 18.7104 6.43671 18.5443 6.30908C18.473 6.26544 18.4009 6.22305 18.328 6.18158C18.2349 6.12857 18.1407 6.07706 18.0461 6.0264C17.8721 5.93317 17.6965 5.84274 17.5237 5.75095L17.3376 5.66589V6.62802C17.3419 6.6459 17.3484 6.66296 17.3569 6.67886C17.3676 6.69882 17.3812 6.71695 17.3976 6.73257C17.4113 6.74573 17.4269 6.75708 17.444 6.76624L21.3296 8.89249C21.359 8.90475 21.3903 8.9108 21.4214 8.91061C21.4517 8.91046 21.4819 8.90442 21.5104 8.89249C21.6292 8.83203 21.7471 8.76981 21.8666 8.70547C22.0103 8.62814 22.1562 8.54779 22.3088 8.46375L22.4087 8.40875L21.5476 7.94098C21.4888 7.90927 21.4243 7.88055 21.3597 7.85181C21.1969 7.77933 21.0337 7.7066 20.9575 7.58484C20.8821 7.4642 20.8977 7.29547 20.9131 7.1279C20.9194 7.05917 20.9257 6.99063 20.9257 6.92569V6.4473L22.9562 7.5423V7.2659V4.27319C22.9435 4.15594 23.011 4.04474 23.121 4.00211C23.2466 3.94043 23.3702 3.87582 23.4961 3.80829C23.5894 3.75824 23.684 3.70657 23.7815 3.65329C23.8586 3.61111 23.9376 3.56793 24.0194 3.52371V7.5423C24.1299 7.48218 24.2385 7.42352 24.3456 7.36575C24.5756 7.24152 24.798 7.1214 25.0148 6.99966C25.0804 6.96283 25.1455 6.92581 25.2101 6.88849C25.2579 6.88849 25.2738 6.77155 25.2738 6.70776V4.70908C25.2615 4.59894 25.3247 4.4942 25.428 4.45395C25.5631 4.38641 25.6959 4.31561 25.8311 4.242L26.0432 4.12564C26.1384 4.07321 26.2358 4.01956 26.3369 3.9649V6.2825L27.6499 5.57553L28.1815 6.44199L26.8738 7.14896L29.0001 8.31308C28.6439 8.50443 28.3197 8.68518 27.9901 8.84464C27.9663 8.84464 27.9292 8.84464 27.8918 8.8381C27.8624 8.83298 27.8328 8.82382 27.8093 8.80743C27.1875 8.47784 26.5708 8.14297 25.9542 7.80276C25.9059 7.76978 25.8501 7.75284 25.7941 7.75195C25.735 7.75101 25.6757 7.76794 25.6246 7.80276C25.2792 7.99945 24.923 8.18549 24.5615 8.39282L28.2825 10.4021C28.1958 10.4487 28.1111 10.4949 28.0276 10.5404C27.7679 10.6821 27.5206 10.817 27.2672 10.9337C27.2246 10.9337 27.129 10.9337 27.0706 10.8858L24.2585 9.37088L24.0406 9.26456V11.444C23.9464 11.3934 23.8568 11.3434 23.7699 11.2949C23.5919 11.1956 23.4253 11.1026 23.2539 11.024C23.0519 10.9609 22.9257 10.7604 22.9562 10.5509V9.24863L22.7338 9.3685C22.4956 9.49664 22.2726 9.6167 22.0526 9.74298C22.0154 9.74298 21.9994 9.84396 21.9994 9.89182V14.0965C22.001 14.163 22.0322 14.2254 22.0845 14.2666C22.1896 14.3284 22.2931 14.3878 22.3993 14.4471C22.5671 14.5405 22.7417 14.6335 22.9403 14.7343V14.5536V13.2885C22.9288 13.1897 22.9857 13.0956 23.0785 13.0599C23.3815 12.9058 23.6792 12.741 24.0087 12.5602V14.745L24.2479 14.6227L24.6665 14.398C25.4584 13.973 26.2523 13.5469 27.0386 13.1131C27.1381 13.0453 27.2688 13.0453 27.3682 13.1131C27.4653 13.1699 27.5637 13.2248 27.6641 13.2796C27.7491 13.3261 27.8357 13.3724 27.924 13.4197L27.9324 13.4241C28.0389 13.4814 28.1484 13.5401 28.2612 13.6021L24.5403 15.6114C24.6218 15.6572 24.7029 15.7003 24.783 15.7422L24.9015 15.8041C25.0763 15.8955 25.2438 15.9851 25.3961 16.0898C25.6238 16.2691 25.9446 16.2691 26.1721 16.0898C26.4845 15.9055 26.7969 15.7396 27.1093 15.5737C27.3285 15.4572 27.5477 15.3408 27.7668 15.218C27.8724 15.1451 28.0122 15.1451 28.1177 15.218C28.3994 15.3828 28.6918 15.5317 29.0001 15.7018L26.8738 16.8659L28.1761 17.5782L27.6447 18.4393L26.3475 17.7377V20.0553C26.1691 19.9442 25.9824 19.8464 25.7894 19.7629C25.6058 19.7212 25.4465 19.6079 25.3468 19.4482C25.2469 19.2886 25.215 19.0957 25.2579 18.9124C25.2898 18.558 25.2792 18.2036 25.2686 17.8493L25.2682 17.8375C25.2631 17.6642 25.2579 17.491 25.2579 17.3177C25.2695 17.2062 25.2039 17.101 25.0984 17.0626C24.9175 16.968 24.7378 16.8721 24.5547 16.7735C24.4285 16.7055 24.3007 16.6361 24.1696 16.5651L24.0087 16.4778V20.4911C23.8566 20.4009 23.6985 20.321 23.5356 20.252C23.1013 20.1465 22.827 19.7177 22.9137 19.2792C22.9492 18.6767 22.9374 18.0696 22.9255 17.4624C22.9196 17.1588 22.9137 16.8553 22.9137 16.5523C22.9152 16.5275 22.9152 16.5027 22.9137 16.4778L20.899 17.541V16.4406C20.899 16.3981 20.9788 16.345 21.032 16.3131L22.1802 15.6912L22.3715 15.5742L22.1719 15.4654C21.9447 15.3411 21.7291 15.2232 21.5104 15.1118C21.4525 15.0881 21.3876 15.0881 21.3296 15.1118L17.428 17.238C17.3682 17.2695 17.3253 17.326 17.311 17.3922V18.3117L17.8798 18.0088C18.1456 17.8652 18.4114 17.7164 18.6771 17.5782C18.7418 17.5516 18.8145 17.5516 18.8792 17.5782C19.0784 17.6795 19.2737 17.7828 19.4761 17.893C19.6029 17.9621 19.7325 18.034 19.8678 18.1097L17.8533 19.2101L18.6559 19.6513L20.8832 20.8579C20.9526 20.8829 21.0044 20.9381 21.0264 21.0051C21.0359 21.0341 21.0398 21.0653 21.0372 21.0971V22.0965L17.3164 20.0872V21.3842C17.3164 21.432 17.4014 21.4905 17.4598 21.5224C18.0659 21.852 18.6719 22.1868 19.2831 22.5058C19.3318 22.5237 19.3728 22.5545 19.4031 22.5932C19.4462 22.6483 19.4674 22.7195 19.4585 22.7928V23.7549L17.3323 22.6014V23.9995H16.2692L16.2319 22.6333ZM20.8832 12.0446V9.97156C20.8862 9.93921 20.8829 9.90741 20.8743 9.87756C20.8691 9.86017 20.8622 9.84341 20.8535 9.82764C20.8267 9.77856 20.7834 9.73865 20.729 9.7164C19.4603 9.03601 18.1935 8.35031 16.9283 7.65927C16.8745 7.62354 16.812 7.60703 16.7502 7.60977C16.6973 7.61215 16.6448 7.62863 16.5988 7.65927C15.3337 8.35031 14.0668 9.03601 12.7981 9.7164C12.6893 9.7605 12.6224 9.87067 12.6333 9.98752V14.0593C12.6211 14.1945 12.6989 14.3219 12.8247 14.3729C14.0898 15.0497 15.3496 15.7319 16.6041 16.4194C16.6929 16.4778 16.8077 16.4778 16.8965 16.4194L20.7131 14.3516C20.8173 14.3117 20.8823 14.2076 20.8726 14.0965C20.8832 13.4161 20.8832 12.7304 20.8832 12.0446ZM20.0378 12.0287V13.6234C20.0453 13.6873 20.0278 13.7495 19.9919 13.7989C19.9727 13.8256 19.9481 13.8485 19.9192 13.866C19.908 13.8728 19.8961 13.8788 19.8837 13.8839L19.2861 14.2021L18.7316 14.498C18.1196 14.8248 17.5096 15.1517 16.9016 15.4785C16.8113 15.5379 16.6943 15.5379 16.604 15.4785L13.6219 13.8839C13.5303 13.849 13.472 13.7585 13.4784 13.6606V10.3968C13.472 10.2989 13.5303 10.2083 13.6219 10.1735L16.6252 8.54697C16.709 8.49133 16.8179 8.49133 16.9016 8.54697C17.8939 9.08914 18.8879 9.6207 19.8837 10.1416C19.9878 10.1839 20.0509 10.2905 20.0378 10.4021C20.0343 10.7713 20.0355 11.1333 20.0366 11.493C20.0372 11.6719 20.0378 11.8503 20.0378 12.0287ZM18.9749 12.0287V11.0134C18.9832 10.9427 18.962 10.8738 18.9198 10.8208C18.8928 10.787 18.8573 10.7596 18.8153 10.7423C18.4655 10.5586 18.1155 10.3717 17.7665 10.1825C17.4792 10.0268 17.1925 9.86948 16.907 9.71109C16.8718 9.68771 16.8322 9.67416 16.7919 9.67044C16.7362 9.66528 16.6792 9.67883 16.6306 9.71109C15.9928 10.0655 15.3513 10.4198 14.7064 10.7742C14.6101 10.8132 14.5499 10.9098 14.5575 11.0134V13.1024C14.5511 13.2003 14.6094 13.2909 14.701 13.3257C15.3496 13.6712 15.9928 14.0274 16.6466 14.3888C16.7263 14.4228 16.8165 14.4228 16.8964 14.3888C17.5502 14.0486 18.1934 13.6925 18.8419 13.3257C18.9314 13.2867 18.9852 13.1942 18.9749 13.0971C18.9712 12.9672 18.9689 12.8415 18.9673 12.7187C18.9642 12.4797 18.9642 12.2516 18.9642 12.0234L18.9749 12.0287Z" />
</svg>
