<svg width="14" height="22" viewBox="0 0 14 22"  xmlns="http://www.w3.org/2000/svg">
<path fill-rule="evenodd" clip-rule="evenodd" d="M1.76627 20.7337C1.41124 20.3787 1.41124 19.8031 1.76627 19.4481L10.2144 11L1.76627 2.55192C1.41124 2.19689 1.41124 1.62129 1.76627 1.26627C2.12129 0.911245 2.69689 0.911245 3.05192 1.26627L12.1428 10.3572C12.4978 10.7122 12.4978 11.2878 12.1428 11.6428L3.05192 20.7337C2.69689 21.0888 2.12129 21.0888 1.76627 20.7337Z" />
<path d="M1.76627 19.4481L2.47337 20.1552L2.47337 20.1552L1.76627 19.4481ZM1.76627 20.7337L2.47337 20.0266L2.47337 20.0266L1.76627 20.7337ZM10.2144 11L10.9215 11.7071C11.109 11.5196 11.2144 11.2652 11.2144 11C11.2144 10.7348 11.109 10.4804 10.9215 10.2929L10.2144 11ZM1.76627 2.55192L1.05916 3.25902L1.05916 3.25902L1.76627 2.55192ZM1.76627 1.26627L1.05916 0.559159L1.05916 0.559161L1.76627 1.26627ZM3.05192 1.26627L3.75902 0.55916L3.75902 0.559159L3.05192 1.26627ZM12.1428 10.3572L11.4357 11.0643L11.4357 11.0643L12.1428 10.3572ZM12.1428 11.6428L11.4357 10.9357L11.4357 10.9357L12.1428 11.6428ZM3.05192 20.7337L2.34481 20.0266L2.34481 20.0266L3.05192 20.7337ZM1.05916 18.741C0.313613 19.4865 0.313613 20.6953 1.05916 21.4408L2.47337 20.0266C2.50888 20.0621 2.50888 20.1197 2.47337 20.1552L1.05916 18.741ZM9.50724 10.2929L1.05916 18.741L2.47337 20.1552L10.9215 11.7071L9.50724 10.2929ZM1.05916 3.25902L9.50724 11.7071L10.9215 10.2929L2.47337 1.84481L1.05916 3.25902ZM1.05916 0.559161C0.313614 1.30471 0.313614 2.51347 1.05916 3.25902L2.47337 1.84481C2.50888 1.88031 2.50888 1.93787 2.47337 1.97337L1.05916 0.559161ZM3.75902 0.559159C3.01348 -0.186386 1.80471 -0.186386 1.05916 0.559159L2.47337 1.97337C2.43787 2.00888 2.38031 2.00888 2.34481 1.97337L3.75902 0.559159ZM12.8499 9.65007L3.75902 0.55916L2.34481 1.97337L11.4357 11.0643L12.8499 9.65007ZM12.8499 12.3499C13.5955 11.6044 13.5955 10.3956 12.8499 9.65007L11.4357 11.0643C11.4002 11.0288 11.4002 10.9712 11.4357 10.9357L12.8499 12.3499ZM3.75902 21.4408L12.8499 12.3499L11.4357 10.9357L2.34481 20.0266L3.75902 21.4408ZM1.05916 21.4408C1.80471 22.1864 3.01348 22.1864 3.75902 21.4408L2.34481 20.0266C2.38031 19.9911 2.43787 19.9911 2.47337 20.0266L1.05916 21.4408Z" />
</svg>
