<svg width="15" height="14" viewBox="0 0 15 14"  xmlns="http://www.w3.org/2000/svg">
<path fill-rule="evenodd" clip-rule="evenodd" d="M3.91822 0C3.73811 0 3.59214 0.142452 3.59214 0.318186V2.27205C3.03244 2.41507 2.61387 2.91118 2.61387 3.50005C2.61387 4.19918 3.20171 4.7728 3.91822 4.7728C4.63474 4.7728 5.22257 4.19918 5.22257 3.50005C5.22257 2.91118 4.80399 2.41507 4.24431 2.27205V0.318186C4.24431 0.142452 4.09832 0 3.91822 0ZM11.0923 0C10.9121 0 10.7662 0.142452 10.7662 0.318186V2.27205C10.2065 2.41507 9.78791 2.91118 9.78791 3.50005C9.78791 4.19918 10.3758 4.7728 11.0923 4.7728C11.8088 4.7728 12.3966 4.19918 12.3966 3.50005C12.3966 2.91118 11.978 2.41507 11.4184 2.27205V0.318186C11.4184 0.142452 11.2724 0 11.0923 0ZM0 2.55032C0 1.67195 0.73536 0.954417 1.63554 0.954417H2.6087C2.78097 0.952047 2.93989 1.10449 2.93989 1.2726C2.93989 1.44072 2.78097 1.59318 2.6087 1.59079H1.63554C1.08599 1.59079 0.652175 2.0141 0.652175 2.55032V5.40903H14.3478V2.55032C14.3478 2.0141 13.914 1.59079 13.3645 1.59079H12.3913C12.219 1.59316 12.0601 1.44072 12.0601 1.2726C12.0601 1.10449 12.219 0.952031 12.3913 0.954417H13.3645C14.2647 0.954417 15 1.67195 15 2.55032V12.4041C15 13.2825 14.2647 14 13.3645 14H1.63554C0.73536 14 0 13.2825 0 12.4041V2.55032ZM5.21749 0.954576C5.03739 0.954576 4.8914 1.09703 4.8914 1.27276C4.8914 1.4485 5.03739 1.59095 5.21749 1.59095H9.78272C9.96281 1.59095 10.1088 1.4485 10.1088 1.27276C10.1088 1.09703 9.96281 0.954576 9.78272 0.954576H5.21749ZM4.57037 3.5001C4.57037 3.14486 4.28224 2.86373 3.9182 2.86373C3.55416 2.86373 3.26602 3.14486 3.26602 3.5001C3.26602 3.85532 3.55416 4.13647 3.9182 4.13647C4.28224 4.13647 4.57037 3.85532 4.57037 3.5001ZM11.092 2.86373C11.4561 2.86373 11.7442 3.14486 11.7442 3.5001C11.7442 3.85532 11.4561 4.13647 11.092 4.13647C10.728 4.13647 10.4398 3.85532 10.4398 3.5001C10.4398 3.14486 10.728 2.86373 11.092 2.86373ZM14.3478 6.04552H0.65215V12.4043C0.65215 12.9405 1.08596 13.3638 1.63552 13.3638H13.3645C13.914 13.3638 14.3478 12.9405 14.3478 12.4043V6.04552Z" />
</svg>
