<svg width="934" height="1495" viewBox="0 0 934 1495"  xmlns="http://www.w3.org/2000/svg">
<path d="M630.008 1277.89V1223.99L621.125 1231.09V1220.2L630.607 1212.6H640.089V1277.79H630.008V1277.89Z" />
<path d="M682.91 1264.69C682.91 1266.89 682.511 1268.79 681.812 1270.59C681.014 1272.29 680.015 1273.79 678.718 1274.99C677.42 1276.19 675.923 1277.09 674.227 1277.69C672.53 1278.29 670.633 1278.59 668.737 1278.59C666.741 1278.59 664.845 1278.29 663.148 1277.69C661.451 1277.09 659.954 1276.19 658.656 1274.99C657.359 1273.79 656.361 1272.39 655.563 1270.59C654.764 1268.89 654.465 1266.89 654.465 1264.69V1226.09C654.465 1223.89 654.864 1221.89 655.563 1220.19C656.361 1218.49 657.359 1217 658.656 1215.8C659.954 1214.6 661.451 1213.7 663.148 1213.1C664.845 1212.5 666.741 1212.2 668.737 1212.2C672.929 1212.2 676.323 1213.4 678.918 1215.9C681.513 1218.29 682.81 1221.79 682.81 1226.19V1264.69H682.91ZM672.729 1225.59C672.729 1224.39 672.33 1223.39 671.532 1222.59C670.734 1221.89 669.735 1221.49 668.538 1221.49C667.24 1221.49 666.242 1221.89 665.444 1222.59C664.645 1223.29 664.246 1224.29 664.246 1225.59V1264.99C664.246 1266.19 664.645 1267.19 665.444 1267.99C666.242 1268.69 667.24 1269.09 668.538 1269.09C669.735 1269.09 670.734 1268.69 671.532 1267.99C672.33 1267.29 672.729 1266.29 672.729 1264.99V1225.59Z" />
<path d="M720.731 1264.69C720.731 1266.89 720.331 1268.79 719.633 1270.59C718.834 1272.29 717.836 1273.79 716.539 1274.99C715.241 1276.19 713.744 1277.09 712.047 1277.69C710.35 1278.29 708.454 1278.59 706.558 1278.59C704.561 1278.59 702.666 1278.29 700.969 1277.69C699.272 1277.09 697.775 1276.19 696.477 1274.99C695.18 1273.79 694.182 1272.39 693.383 1270.59C692.585 1268.89 692.285 1266.89 692.285 1264.69V1226.09C692.285 1223.89 692.684 1221.89 693.383 1220.19C694.182 1218.49 695.18 1217 696.477 1215.8C697.775 1214.6 699.272 1213.7 700.969 1213.1C702.666 1212.5 704.561 1212.2 706.558 1212.2C710.75 1212.2 714.143 1213.4 716.738 1215.9C719.333 1218.29 720.631 1221.79 720.631 1226.19V1264.69H720.731ZM710.65 1225.59C710.65 1224.39 710.251 1223.39 709.453 1222.59C708.654 1221.89 707.656 1221.49 706.458 1221.49C705.161 1221.49 704.163 1221.89 703.364 1222.59C702.566 1223.29 702.166 1224.29 702.166 1225.59V1264.99C702.166 1266.19 702.566 1267.19 703.364 1267.99C704.163 1268.69 705.161 1269.09 706.458 1269.09C707.656 1269.09 708.654 1268.69 709.453 1267.99C710.251 1267.29 710.65 1266.29 710.65 1264.99V1225.59Z" />
<path d="M754.969 1277.89L744.489 1249.79C743.791 1251.29 743.092 1252.79 742.394 1254.29C741.695 1255.79 740.896 1257.29 740.198 1258.79V1277.79H730.117V1212.6H740.198V1238.89H740.697L752.973 1212.6H763.453C761.257 1217 759.062 1221.4 756.866 1225.79C754.67 1230.19 752.474 1234.59 750.278 1238.99L765.249 1277.79H754.969V1277.89Z" />
<path d="M629.91 1079.7V1025.8L621.027 1032.9V1022L630.509 1014.4H639.99V1079.6H629.91V1079.7Z" />
<path d="M682.71 1066.5C682.71 1068.7 682.311 1070.6 681.612 1072.4C680.814 1074.1 679.816 1075.6 678.519 1076.8C677.221 1078 675.724 1078.9 674.027 1079.5C672.331 1080.1 670.434 1080.4 668.538 1080.4C666.542 1080.4 664.646 1080.1 662.949 1079.5C661.252 1078.9 659.755 1078 658.458 1076.8C657.16 1075.6 656.162 1074.2 655.364 1072.4C654.565 1070.7 654.266 1068.7 654.266 1066.5V1027.9C654.266 1025.7 654.665 1023.7 655.364 1022C656.162 1020.3 657.16 1018.8 658.458 1017.6C659.755 1016.4 661.252 1015.5 662.949 1014.9C664.646 1014.3 666.542 1014 668.538 1014C672.73 1014 676.123 1015.2 678.718 1017.7C681.313 1020.1 682.61 1023.6 682.61 1028V1066.5H682.71ZM672.63 1027.4C672.63 1026.2 672.231 1025.2 671.432 1024.4C670.634 1023.7 669.636 1023.3 668.438 1023.3C667.141 1023.3 666.143 1023.7 665.344 1024.4C664.546 1025.1 664.146 1026.1 664.146 1027.4V1066.8C664.146 1068.1 664.546 1069 665.344 1069.8C666.143 1070.5 667.141 1070.9 668.438 1070.9C669.636 1070.9 670.634 1070.5 671.432 1069.8C672.231 1069.1 672.63 1068.1 672.63 1066.8V1027.4Z" />
<path d="M720.632 1066.5C720.632 1068.7 720.233 1070.6 719.534 1072.4C718.736 1074.1 717.738 1075.6 716.441 1076.8C715.143 1078 713.646 1078.9 711.949 1079.5C710.253 1080.1 708.356 1080.4 706.46 1080.4C704.464 1080.4 702.567 1080.1 700.871 1079.5C699.174 1078.9 697.677 1078 696.38 1076.8C695.082 1075.6 694.084 1074.2 693.285 1072.4C692.487 1070.7 692.188 1068.7 692.188 1066.5V1027.9C692.188 1025.7 692.587 1023.7 693.285 1022C694.084 1020.3 695.082 1018.8 696.38 1017.6C697.677 1016.4 699.174 1015.5 700.871 1014.9C702.567 1014.3 704.464 1014 706.46 1014C710.652 1014 714.045 1015.2 716.64 1017.7C719.235 1020.1 720.532 1023.6 720.532 1028V1066.5H720.632ZM710.552 1027.4C710.552 1026.2 710.153 1025.2 709.354 1024.4C708.556 1023.7 707.558 1023.3 706.36 1023.3C705.063 1023.3 704.064 1023.7 703.266 1024.4C702.468 1025.1 702.068 1026.1 702.068 1027.4V1066.8C702.068 1068.1 702.468 1069 703.266 1069.8C704.064 1070.5 705.063 1070.9 706.36 1070.9C707.558 1070.9 708.556 1070.5 709.354 1069.8C710.153 1069.1 710.552 1068.1 710.552 1066.8V1027.4Z" />
<path d="M754.873 1079.7L744.393 1051.6C743.694 1053.1 742.995 1054.6 742.296 1056.1C741.598 1057.6 740.799 1059.1 740.1 1060.6V1079.6H730.02V1014.4H740.1V1040.7H740.599L752.876 1014.4H763.356C761.161 1018.8 758.965 1023.2 756.769 1027.6C754.573 1032 752.377 1036.4 750.181 1040.8L765.153 1079.6H754.873V1079.7Z" />
<path d="M768.749 982.417C768.849 982.117 768.948 981.917 769.048 981.617C770.246 978.217 771.444 974.918 772.741 971.518C772.741 971.418 772.841 971.318 772.841 971.218C772.841 971.218 772.841 971.118 772.94 971.118C773.04 971.118 773.04 971.118 773.14 971.118C773.44 971.118 773.839 971.218 774.138 971.218C774.438 971.218 774.737 971.318 775.036 971.318C775.136 971.318 775.236 971.318 775.436 971.318C775.535 971.318 775.635 971.318 775.735 971.318C776.234 971.318 776.733 971.318 777.132 971.318C777.232 971.318 777.332 971.318 777.432 971.318C777.531 971.318 777.532 971.318 777.631 971.318C777.831 971.318 778.031 971.318 778.23 971.318C780.127 971.118 781.923 970.718 783.72 970.118C787.912 968.518 791.205 965.918 793.8 962.219C793.9 962.119 793.9 962.019 793.999 961.919V961.819C793.9 961.719 793.8 961.719 793.7 961.619C792.004 960.519 790.407 959.419 788.71 958.319C788.211 958.019 787.712 957.719 787.213 957.419L787.113 957.319C787.113 957.319 787.113 957.319 787.013 957.319L786.913 957.419C786.614 957.819 786.314 958.219 786.015 958.519C784.518 960.219 782.721 961.519 780.526 962.219C779.827 962.419 779.128 962.619 778.43 962.719C778.031 962.819 777.632 962.818 777.232 962.818C776.833 962.818 776.434 962.818 776.035 962.818C775.635 962.818 775.236 962.819 774.737 962.719C774.338 962.719 773.839 962.619 773.439 962.519C772.142 962.219 770.945 961.719 769.847 961.119C768.35 960.219 767.052 959.119 765.954 957.619C764.956 956.319 764.258 954.919 763.859 953.319C763.759 952.819 763.659 952.219 763.559 951.719C763.459 950.919 763.459 950.219 763.459 949.42C763.459 948.92 763.559 948.52 763.559 948.02C763.758 946.92 764.058 945.92 764.457 945.02C765.355 942.82 766.853 941.12 768.749 939.72C769.947 938.82 771.344 938.12 772.841 937.72C773.34 937.62 773.939 937.52 774.438 937.42C775.236 937.32 775.935 937.32 776.733 937.32C777.232 937.32 777.731 937.42 778.23 937.52C778.929 937.62 779.528 937.82 780.227 938.02C782.522 938.82 784.418 940.12 785.915 941.92C786.015 942.02 786.115 942.12 786.115 942.22H786.215C786.315 942.22 786.314 942.12 786.414 942.02C788.011 940.72 789.608 939.52 791.205 938.22C791.604 937.92 792.003 937.52 792.502 937.22C792.602 937.22 792.602 937.12 792.702 937.12V937.02C792.602 936.92 792.602 936.92 792.502 936.82C790.606 934.421 788.211 932.521 785.516 931.221C785.416 931.221 785.416 931.121 785.317 931.121V931.021C785.317 930.921 785.416 930.821 785.416 930.721C786.813 926.921 788.211 923.022 789.608 919.222C789.608 919.122 789.608 919.122 789.708 919.022C789.708 918.922 789.808 918.922 789.907 918.922C790.007 918.922 790.007 919.022 790.107 919.022C796.395 921.922 801.585 926.721 805.078 932.821C806.575 935.421 807.673 938.22 808.471 941.12C808.671 942.02 808.87 943.02 809.07 943.92C809.17 944.42 809.27 944.92 809.27 945.52C809.37 946.12 809.369 946.82 809.469 947.42C809.569 948.62 809.569 949.72 809.469 950.919C809.469 951.519 809.369 952.119 809.369 952.819C809.27 953.319 809.27 953.919 809.17 954.419C809.07 954.919 808.97 955.519 808.87 956.019C808.571 957.319 808.271 958.519 807.872 959.819C806.575 963.718 804.679 967.218 802.184 970.418C799.09 974.218 795.397 977.217 791.005 979.417C788.909 980.517 786.614 981.317 784.319 981.917C783.52 982.117 782.722 982.317 781.824 982.417C781.225 982.517 780.725 982.617 780.127 982.617C779.727 982.617 779.229 982.717 778.829 982.717C778.43 982.717 778.131 982.817 777.731 982.817C777.133 982.817 776.533 982.917 775.935 982.917C775.236 982.917 774.637 982.917 773.939 982.817C773.439 982.817 772.841 982.717 772.342 982.717C771.743 982.617 771.144 982.617 770.545 982.517C769.946 982.417 769.348 982.317 768.849 982.217C768.849 982.517 768.749 982.417 768.749 982.417Z" fill="#FFED00"/>
<path d="M784.916 917.417C784.916 917.517 784.817 917.617 784.817 917.617C783.819 920.217 782.92 922.817 781.922 925.417C781.423 926.717 780.924 928.017 780.525 929.317C780.525 929.417 780.425 929.517 780.425 929.617C780.425 929.617 780.325 929.716 780.325 929.617C780.126 929.617 779.826 929.517 779.626 929.517C779.227 929.417 778.828 929.417 778.428 929.317C777.83 929.217 777.331 929.217 776.732 929.217C776.233 929.217 775.734 929.217 775.135 929.217C775.035 929.217 774.836 929.217 774.736 929.217C774.337 929.217 774.037 929.317 773.638 929.317C773.239 929.317 772.839 929.417 772.44 929.517C771.542 929.717 770.644 929.916 769.845 930.116C766.552 931.116 763.757 932.916 761.362 935.316C759.365 937.216 757.868 939.516 756.77 942.016C756.271 943.315 755.872 944.615 755.572 945.915C755.473 946.515 755.373 947.015 755.273 947.615C755.173 948.215 755.173 948.715 755.173 949.315C755.173 949.415 755.173 949.415 755.173 949.515C755.074 949.715 755.173 950.015 755.173 950.215C755.173 950.415 755.173 950.615 755.173 950.815C755.173 951.015 755.173 951.315 755.273 951.615C755.273 952.315 755.373 952.915 755.473 953.615C755.672 955.015 756.071 956.314 756.571 957.614C757.569 960.414 759.166 962.814 761.262 964.914C762.659 966.314 764.256 967.614 766.052 968.613C766.551 968.913 767.05 969.113 767.549 969.413C767.649 969.413 767.649 969.513 767.749 969.513V969.613C767.749 969.713 767.749 969.713 767.649 969.813C767.25 970.813 766.951 971.813 766.551 972.713C765.653 975.313 764.655 977.913 763.757 980.513C763.757 980.613 763.657 980.613 763.657 980.713C763.657 980.713 763.557 980.813 763.557 980.713C763.457 980.713 763.458 980.613 763.358 980.613C760.364 979.413 757.469 977.713 754.974 975.613C751.281 972.613 748.386 969.014 746.29 964.914C745.093 962.614 744.194 960.214 743.595 957.614C743.396 956.714 743.196 955.914 743.096 955.015C742.997 954.415 742.897 953.815 742.897 953.115C742.797 952.315 742.797 951.515 742.697 950.815C742.697 950.215 742.697 949.615 742.697 949.015C742.697 948.415 742.697 947.815 742.797 947.215C742.797 946.715 742.897 946.215 742.897 945.615C742.997 944.915 743.096 944.215 743.196 943.515C743.396 942.216 743.695 941.016 744.094 939.816C745.292 935.816 747.189 932.116 749.884 928.817C752.678 925.317 756.071 922.417 759.964 920.217C762.459 918.817 765.054 917.817 767.749 917.117C768.648 916.917 769.546 916.718 770.544 916.518C771.143 916.418 771.742 916.318 772.341 916.218C772.84 916.118 773.339 916.118 773.838 916.118C774.636 916.018 775.435 916.018 776.333 916.018C776.632 916.018 776.832 916.018 777.131 916.018C777.63 916.018 778.229 916.018 778.728 916.118C779.327 916.118 779.826 916.218 780.425 916.318C781.922 916.518 783.419 916.818 784.916 917.217C784.716 917.317 784.816 917.318 784.916 917.417C784.816 917.318 784.916 917.417 784.916 917.417Z" fill="#FFED00"/>
<path d="M630.008 982.315V928.419L621.125 935.518V924.619L630.607 917.02H640.089V982.215H630.008V982.315Z" />
<path d="M682.91 969.115C682.91 971.315 682.511 973.215 681.812 975.015C681.014 976.715 680.015 978.214 678.718 979.414C677.42 980.614 675.923 981.514 674.227 982.114C672.53 982.714 670.633 983.014 668.737 983.014C666.741 983.014 664.845 982.714 663.148 982.114C661.451 981.514 659.954 980.614 658.656 979.414C657.359 978.214 656.361 976.815 655.563 975.015C654.764 973.315 654.465 971.315 654.465 969.115V930.518C654.465 928.318 654.864 926.318 655.563 924.619C656.361 922.919 657.359 921.419 658.656 920.219C659.954 919.019 661.451 918.119 663.148 917.519C664.845 916.919 666.741 916.619 668.737 916.619C672.929 916.619 676.323 917.819 678.918 920.319C681.513 922.719 682.81 926.218 682.81 930.618V969.115H682.91ZM672.729 930.018C672.729 928.818 672.33 927.818 671.532 927.018C670.734 926.318 669.735 925.918 668.538 925.918C667.24 925.918 666.242 926.318 665.444 927.018C664.645 927.718 664.246 928.718 664.246 930.018V969.415C664.246 970.615 664.645 971.615 665.444 972.415C666.242 973.115 667.24 973.515 668.538 973.515C669.735 973.515 670.734 973.115 671.532 972.415C672.33 971.715 672.729 970.715 672.729 969.415V930.018Z" />
<path d="M717.137 982.315L706.657 954.217C705.958 955.717 705.26 957.216 704.561 958.716C703.862 960.216 703.064 961.716 702.366 963.216V982.215H692.285V917.02H702.366V943.318H702.865L715.141 917.02H725.62C723.424 921.419 721.229 925.819 719.033 930.219C716.837 934.618 714.642 939.018 712.446 943.418L727.417 982.215H717.137V982.315Z" />
<path d="M276.992 657.631V679.829C276.992 682.429 277.491 684.129 278.489 685.029C279.487 685.929 280.884 686.329 282.681 686.329C283.379 686.329 284.178 686.229 284.976 686.029C285.874 685.829 286.673 685.629 287.471 685.229V657.631H296.853V718.426H287.471V693.628C286.274 693.928 285.176 694.228 283.978 694.328C282.78 694.428 281.683 694.528 280.585 694.528C278.589 694.528 276.692 694.328 275.095 693.828C273.498 693.328 272.101 692.628 271.003 691.528C269.905 690.428 269.007 689.028 268.408 687.329C267.809 685.629 267.51 683.529 267.51 681.029V657.631H276.992Z" />
<path d="M308.234 718.426V657.631H335.182V666.43H317.616V683.029H332.886V692.028H317.616V709.627H335.182V718.426H308.234Z" />
<path d="M361.13 705.128L356.837 693.828L353.145 683.129H352.745V718.327H343.363V657.531H352.546L359.133 674.83L363.924 688.029H364.323L369.214 674.53L375.701 657.631H384.784V718.427H375.402V683.429H375.103L371.31 694.228L367.018 705.128H361.13Z" />
<path d="M414.631 718.426V666.73H405.05V718.426H395.668V657.631H424.113V718.426H414.631Z" />
<path d="M456.745 680.329L444.069 718.426H434.986V657.631H444.169V696.128H444.468L457.144 657.631H466.327V718.426H457.044V680.329H456.745Z" />
<path d="M505.953 702.929C505.953 708.228 504.756 712.228 502.36 714.928C499.965 717.628 496.272 719.028 491.181 719.028C486.091 719.028 482.398 717.728 480.103 715.128C477.807 712.528 476.609 708.828 476.609 703.929V673.331C476.609 670.931 476.909 668.732 477.408 666.832C478.007 664.832 478.805 663.132 480.003 661.732C481.2 660.332 482.698 659.232 484.594 658.432C486.49 657.632 488.686 657.232 491.281 657.232C494.076 657.232 496.372 657.632 498.268 658.332C500.164 659.032 501.661 660.132 502.759 661.532C503.857 662.932 504.656 664.632 505.155 666.632C505.654 668.631 505.853 670.831 505.853 673.331V702.929H505.953ZM496.571 672.531C496.571 670.831 496.172 669.331 495.473 668.032C494.774 666.732 493.377 666.032 491.381 666.032C490.283 666.032 489.385 666.232 488.686 666.732C487.988 667.232 487.488 667.832 487.089 668.532C486.69 669.231 486.491 670.031 486.291 670.931C486.191 671.831 486.091 672.631 486.091 673.431V704.029C486.091 705.629 486.491 707.029 487.289 708.228C488.087 709.528 489.385 710.128 491.381 710.128C493.278 710.128 494.675 709.428 495.473 708.128C496.271 706.829 496.671 705.229 496.671 703.329V672.531H496.571Z" />
<path d="M536.985 718.426V691.928H526.206V718.426H516.824V657.631H526.206V683.029H536.985V657.631H546.367V718.426H536.985Z" />
<path d="M571.723 657.131C574.218 657.131 576.414 657.431 578.211 658.131C580.007 658.831 581.504 659.831 582.702 661.031C583.9 662.23 584.798 663.73 585.297 665.43C585.896 667.13 586.096 669.03 586.096 671.03L576.913 673.43C576.913 671.23 576.514 669.43 575.616 668.03C574.817 666.63 573.42 665.93 571.623 665.93C570.525 665.93 569.627 666.13 568.928 666.63C568.23 667.13 567.73 667.73 567.331 668.43C566.932 669.13 566.733 669.93 566.533 670.83C566.433 671.63 566.333 672.43 566.333 673.23V704.127C566.333 704.727 566.433 705.327 566.533 706.027C566.633 706.727 566.932 707.427 567.232 708.027C567.631 708.627 568.13 709.127 568.828 709.527C569.527 709.927 570.326 710.127 571.423 710.127C574.917 710.127 576.614 707.627 576.714 702.627C578.311 702.927 579.807 703.127 581.404 703.327C583.001 703.527 584.499 703.727 586.096 704.027C585.996 708.627 584.698 712.227 582.302 714.927C579.907 717.626 576.314 718.926 571.623 718.926C566.633 718.926 562.94 717.626 560.544 715.126C558.149 712.627 556.951 708.927 556.951 704.027V673.73C556.951 671.43 557.151 669.33 557.65 667.33C558.149 665.33 558.948 663.53 560.145 662.031C561.343 660.531 562.84 659.331 564.737 658.431C566.733 657.531 569.028 657.131 571.723 657.131Z" />
<path d="M595.084 718.426V657.631H604.466V683.329H606.362C608.458 683.329 610.155 682.729 611.552 681.529C612.85 680.329 613.948 678.129 614.647 675.03C614.746 674.53 615.046 673.43 615.345 671.73C615.744 670.03 616.144 668.33 616.443 666.43C616.842 664.53 617.142 662.73 617.541 661.131C617.84 659.431 618.139 658.331 618.239 657.831H627.023C626.424 660.931 625.725 663.93 625.126 666.93C624.528 669.93 623.829 672.93 623.23 675.93C622.631 678.929 621.633 681.329 620.335 683.129C619.038 684.929 617.541 686.229 615.844 686.929V687.129C618.04 687.929 619.737 689.228 621.034 691.028C622.232 692.828 623.23 695.228 623.829 698.228C624.627 701.628 625.326 705.027 625.925 708.427C626.623 711.727 627.322 715.127 628.021 718.526H618.639C618.04 715.526 617.441 712.627 616.942 709.627C616.343 706.627 615.744 703.727 615.146 700.728C614.547 697.428 613.548 695.228 612.251 693.928C610.953 692.628 609.257 692.028 607.161 692.028H604.666V718.526H595.084V718.426Z" />
<path d="M657.357 718.427L654.962 705.728H643.783C643.384 707.827 642.985 709.927 642.586 712.027C642.187 714.127 641.887 716.227 641.488 718.327H631.906C633.902 708.127 635.998 698.028 637.995 687.929C639.991 677.83 642.087 667.73 644.083 657.531H654.563L666.839 718.327H657.357V718.427ZM649.173 671.73C648.574 675.93 647.975 680.13 647.376 684.229C646.778 688.429 646.079 692.629 645.28 696.928H653.565L649.672 671.73H649.173Z" />
<path d="M672.232 718.426L675.626 699.128C676.025 697.128 676.624 695.228 677.522 693.528C678.421 691.828 679.618 690.528 681.215 689.628C678.42 688.428 676.524 686.729 675.426 684.329C674.428 681.929 673.829 679.129 673.829 675.829C673.829 669.83 675.227 665.33 678.121 662.231C681.015 659.131 684.908 657.631 689.898 657.631H703.771V718.426H694.39V692.528H691.994C690.397 692.528 688.9 693.128 687.503 694.428C686.106 695.728 685.207 698.028 684.608 701.228L681.714 718.426H672.232ZM690.796 666.43C687.902 666.43 686.006 667.33 684.808 669.03C683.71 670.73 683.111 673.03 683.111 675.829C683.111 678.829 683.81 680.829 685.207 682.029C686.605 683.129 688.401 683.729 690.697 683.729H694.49V666.53H690.796V666.43Z" />
<path d="M765.251 657.631V718.426H755.869V666.43H746.686V689.828C746.686 694.728 746.486 698.828 746.187 702.127C745.887 705.427 745.189 708.227 744.291 710.527C743.392 712.827 742.095 714.626 740.498 716.126C738.901 717.526 736.905 718.826 734.41 719.926L730.816 712.927C732.314 712.027 733.611 711.127 734.509 710.027C735.407 708.927 736.206 707.727 736.805 706.227C737.404 704.727 737.803 702.827 738.002 700.728C738.202 698.528 738.302 695.828 738.302 692.528V657.631H765.251Z" />
<path d="M797.99 680.329L785.315 718.426H776.232V657.631H785.415V696.128H785.714L798.39 657.631H807.572V718.426H798.29V680.329H797.99Z" />
<path d="M827.829 666.43V718.426H818.447V657.631H844.697V666.43H827.829Z" />
<path d="M867.254 718.427L864.858 705.728H853.68C853.281 707.827 852.882 709.927 852.482 712.027C852.083 714.127 851.784 716.227 851.384 718.327H841.803C843.799 708.127 845.895 698.028 847.891 687.929C849.887 677.83 851.983 667.73 853.979 657.531H864.459L876.735 718.327H867.254V718.427ZM859.07 671.73C858.471 675.93 857.872 680.13 857.273 684.229C856.674 688.429 855.976 692.629 855.177 696.928H863.461L859.569 671.73H859.07Z" />
<path d="M565.116 379.976C554.725 356.071 536.141 336.568 512.761 325.265C501.27 319.764 489.281 316.363 476.592 315.163C473.395 314.863 470.197 314.663 467.4 314.763C463.003 314.763 459.207 315.063 455.41 315.363C451.513 315.763 447.616 316.363 443.82 317.264C431.63 319.964 420.14 324.665 409.649 331.467C392.564 342.469 379.575 357.172 370.683 375.375C366.786 383.377 363.888 391.779 362.09 400.48C361.49 403.481 360.991 406.582 360.591 409.682C360.191 412.883 359.991 415.983 359.892 419.184C359.892 423.085 359.892 426.886 360.192 430.686C360.391 433.487 360.691 436.388 361.091 439.188C361.79 443.789 362.689 448.39 363.988 452.891C367.385 465.293 372.88 476.696 380.474 487.098C385.869 494.399 392.064 500.901 398.958 506.702C405.453 512.203 412.547 516.904 420.14 520.805C428.733 525.205 437.825 528.206 447.417 530.006C450.014 530.507 452.513 530.907 455.11 531.207C457.308 531.407 459.506 531.707 461.804 531.807C466.3 532.107 470.897 532.007 475.393 531.907C476.692 531.907 477.99 531.807 479.289 531.507C480.788 531.207 482.187 531.007 483.685 530.706C486.783 530.206 489.78 529.606 492.878 529.106C494.976 528.706 496.974 528.206 498.973 527.506C500.272 527.006 501.57 526.606 502.869 526.206C507.265 524.705 511.562 522.905 515.658 520.704C532.943 511.703 546.931 499 557.323 482.497C563.617 472.595 568.213 461.893 571.111 450.39C572.21 445.889 573.109 441.389 573.608 436.788C573.908 434.287 574.208 431.687 574.208 429.186C574.308 424.385 574.308 419.584 573.908 414.883C573.609 410.682 573.009 406.582 572.21 402.481C570.611 394.679 568.213 387.178 565.116 379.976ZM449.415 324.765C450.014 323.565 450.913 322.665 452.212 322.165C453.311 321.765 454.51 321.565 455.709 321.465C460.805 320.964 465.901 320.964 470.997 321.064C473.594 321.164 476.192 321.365 478.79 321.665C481.288 321.965 483.685 322.365 486.183 322.865C493.177 324.265 499.972 326.366 506.566 329.266C513.161 332.167 519.455 335.767 525.25 339.968C525.55 340.168 525.849 340.468 526.149 340.668C526.249 340.768 526.149 340.868 526.149 340.968L526.05 341.068C525.15 341.168 524.251 341.368 523.252 341.469C520.954 341.769 518.656 342.069 516.458 342.369C514.459 342.669 512.561 342.869 510.563 343.169C510.163 343.269 509.663 343.269 509.264 343.469C508.764 343.669 508.264 344.069 508.164 344.669C508.065 345.369 508.365 345.969 508.964 346.47C509.264 346.67 509.463 346.77 509.763 346.87C510.862 347.27 511.961 347.67 513.16 347.97C517.057 349.27 521.054 350.57 524.95 352.071C530.146 354.071 535.142 356.372 540.038 358.872C540.537 359.172 541.037 359.372 541.436 359.672C542.435 360.372 543.135 361.273 543.335 362.573C543.734 364.373 544.134 366.173 544.633 367.974C546.132 374.075 547.431 380.176 548.63 386.378C549.129 388.778 549.529 391.279 549.529 393.779C549.529 394.779 549.729 395.779 549.829 396.78C549.829 397.08 550.029 397.38 550.229 397.58C550.328 397.78 550.328 397.98 550.229 398.08C549.729 398.58 549.429 399.18 549.129 399.78C547.231 403.881 544.933 407.782 542.235 411.483C540.037 414.583 537.639 417.484 535.141 420.384C534.042 421.685 532.843 422.985 531.644 424.285C531.544 424.385 531.345 424.385 531.145 424.385C531.045 424.285 530.945 424.285 530.845 424.185C530.645 423.985 530.345 423.785 530.146 423.585C520.254 415.583 510.363 407.682 500.571 399.68C500.172 399.38 499.772 399.08 499.472 398.68C498.673 397.98 498.073 397.08 497.474 396.18C494.876 391.979 492.378 387.778 489.78 383.577C485.684 376.876 481.588 370.174 477.591 363.573C477.291 363.073 476.991 362.473 476.691 361.973C476.791 361.573 476.991 361.373 477.291 361.172C478.49 360.372 479.689 359.572 480.888 358.772C484.485 356.472 488.281 354.471 492.178 352.671C495.475 351.171 498.773 349.67 501.97 348.17C503.169 347.57 504.468 346.97 505.667 346.37C506.266 346.069 506.466 345.569 506.566 345.069C506.666 344.469 506.366 343.769 505.767 343.469C505.367 343.269 504.968 343.169 504.568 343.069C503.269 342.769 501.97 342.569 500.671 342.569C496.474 342.669 492.378 342.669 488.182 342.769C484.984 342.869 481.687 342.869 478.49 342.969C475.293 343.069 472.196 343.169 468.998 343.269C468.099 343.269 467.3 343.269 466.4 343.269C465.401 343.269 464.602 342.869 463.903 342.169C463.603 341.869 463.303 341.469 463.103 341.168C460.406 337.668 457.508 334.367 454.611 331.066C453.012 329.266 451.513 327.466 449.915 325.765C449.815 325.665 449.615 325.465 449.515 325.365C449.315 325.165 449.315 324.965 449.415 324.765ZM511.162 441.589C510.662 442.089 510.163 442.689 509.564 443.189C508.864 443.789 508.065 444.289 507.365 444.889C502.17 448.59 496.674 451.591 490.879 454.291C485.184 456.992 479.389 459.192 473.494 461.293C472.895 461.493 472.196 461.693 471.496 461.793C470.497 461.993 469.498 461.993 468.499 461.893C467 461.793 465.501 461.593 464.103 461.393C462.104 461.093 460.006 460.792 458.008 460.492C455.31 460.092 452.612 459.692 449.915 459.192C447.317 458.792 444.819 458.292 442.221 457.892C438.724 457.292 435.127 456.592 431.63 455.992C431.031 455.892 430.531 455.691 430.132 455.291C429.832 454.991 429.532 454.591 429.532 454.191C429.432 453.691 429.332 453.091 429.232 452.591C428.633 447.49 428.233 442.489 428.333 437.388C428.433 435.287 428.433 433.187 428.533 431.087C428.633 428.686 428.933 426.286 429.133 423.885C429.232 422.485 429.432 421.185 429.532 419.784C429.832 417.484 430.032 415.183 430.431 412.983C430.631 411.583 431.131 410.382 431.83 409.182C432.529 408.082 433.229 406.982 434.128 405.981C438.025 401.281 441.921 396.48 445.918 391.779C449.115 387.878 452.412 384.077 455.709 380.276C455.909 380.076 456.109 379.776 456.309 379.576C457.008 378.876 457.908 378.576 458.807 378.976C459.506 379.276 460.206 379.576 460.805 379.976C465.701 382.577 470.597 385.277 475.593 387.878C477.491 388.878 479.389 389.978 481.388 390.878C489.98 395.179 496.574 401.581 501.17 409.982C503.169 413.583 504.868 417.484 506.067 421.485C507.565 426.286 509.064 431.087 510.563 435.887C510.962 437.088 511.362 438.288 511.761 439.388C511.961 440.088 511.861 440.888 511.162 441.589ZM373.98 390.178C374.379 389.578 374.779 388.978 375.278 388.378C379.874 383.177 384.571 377.976 389.666 373.275C391.964 371.174 394.462 369.074 396.96 367.174C397.459 366.774 398.059 366.374 398.559 365.873C399.058 365.373 399.158 364.773 398.958 364.173C398.758 363.573 398.159 363.173 397.559 363.173C396.96 363.173 396.46 363.173 395.861 363.273C392.863 363.773 389.866 364.373 386.868 364.873C385.869 365.073 384.97 365.273 383.971 365.273C383.771 365.273 383.771 365.173 383.771 364.973C383.871 364.673 384.071 364.373 384.171 364.173C395.062 348.47 409.249 336.768 426.734 329.066C430.931 327.266 435.127 325.765 439.524 324.465C439.923 324.365 440.423 324.265 440.822 324.165C442.021 323.765 443.12 324.065 444.219 324.565C444.719 324.865 445.318 325.165 445.718 325.665C445.618 325.865 445.618 326.165 445.518 326.365C444.619 328.766 443.72 331.166 442.821 333.467C441.921 335.767 441.222 338.168 440.623 340.568C440.323 341.669 440.023 342.769 439.624 343.769C438.824 346.069 437.125 347.77 434.927 348.77C433.928 349.17 432.829 349.57 431.73 349.87C425.835 351.17 420.24 353.371 414.645 355.671C410.848 357.272 406.952 358.872 403.155 360.472C402.455 360.772 401.856 361.072 401.156 361.473C400.557 361.773 400.257 362.373 400.357 363.073C400.457 363.773 400.857 364.373 401.556 364.573C402.056 364.673 402.655 364.773 403.155 364.873C406.752 365.273 410.448 365.573 414.045 365.973C416.743 366.273 419.44 366.474 422.238 366.874C424.536 367.174 426.934 367.574 429.232 367.974C430.031 368.074 430.831 368.374 431.53 368.674C432.03 368.974 432.43 369.374 432.53 369.874C432.729 370.574 432.729 371.375 432.63 372.075C432.43 373.975 432.13 375.875 431.83 377.776C431.33 380.976 430.731 384.177 430.231 387.378C429.931 389.478 429.632 391.579 429.432 393.679C428.933 398.48 427.933 403.281 426.535 407.882C424.636 413.983 421.939 419.784 418.441 425.285C415.844 429.386 413.446 433.587 411.148 437.888C409.849 440.388 408.45 442.989 407.151 445.489C406.952 445.789 406.752 446.09 406.552 446.39C406.452 446.49 406.352 446.49 406.252 446.49C406.152 446.49 406.052 446.39 405.852 446.39C405.552 446.19 405.153 446.09 404.853 445.889C400.357 443.389 395.961 440.988 391.465 438.488C389.666 437.488 387.967 436.388 386.369 435.087C382.672 432.187 379.675 428.686 377.677 424.285C376.578 421.985 375.878 419.484 375.578 416.984C375.279 415.183 375.079 413.283 374.879 411.483C374.579 409.282 374.279 407.182 373.88 404.981C373.48 402.181 372.981 399.48 372.581 396.68C372.481 395.779 372.381 394.979 372.381 394.079C372.681 392.779 373.18 391.379 373.98 390.178ZM388.867 484.497C388.667 484.897 388.567 485.297 388.367 485.697C388.067 486.498 387.768 486.598 387.268 485.898C382.072 479.096 377.676 471.695 374.279 463.793C371.382 457.092 369.283 450.19 367.885 442.989C366.686 436.788 365.986 430.486 365.986 424.085C366.086 421.985 366.087 419.884 366.186 417.784C366.186 417.684 366.286 417.584 366.386 417.484C366.486 417.484 366.686 417.484 366.686 417.584C366.886 417.784 367.085 418.084 367.285 418.284C369.583 421.285 371.981 424.285 374.279 427.186C374.579 427.586 374.979 428.086 375.278 428.486C376.078 429.386 376.577 430.386 376.977 431.587C379.175 437.788 382.173 443.689 385.47 449.39C388.267 454.291 391.465 458.992 394.662 463.593C394.862 463.993 395.161 464.293 395.361 464.693C395.961 465.593 395.961 466.594 395.661 467.594C395.561 467.894 395.461 468.194 395.261 468.494C393.063 473.795 390.965 479.196 388.867 484.497ZM454.111 524.405C453.212 524.405 452.413 524.405 451.513 524.305C447.916 523.805 444.419 523.205 440.922 522.305C432.829 520.204 425.236 517.004 417.942 512.803C408.55 507.402 400.157 500.6 392.863 492.499C392.564 492.099 392.164 491.799 391.864 491.399C391.764 491.299 391.765 491.099 391.665 490.899C392.964 490.598 394.262 490.398 395.561 490.098C400.757 488.998 405.952 487.898 411.247 486.798C411.747 486.698 412.247 486.598 412.746 486.598C413.246 486.598 413.746 486.698 414.145 487.098C414.345 487.298 414.445 487.498 414.645 487.598C419.241 492.899 424.536 497.5 430.231 501.601C433.628 504.001 437.126 506.302 440.623 508.502C441.122 508.802 441.622 509.102 442.021 509.402C443.32 510.202 444.519 511.203 445.518 512.403C445.918 512.903 446.317 513.403 446.717 513.803C449.015 516.904 451.413 519.904 453.711 523.005C453.911 523.305 454.111 523.605 454.311 523.905C454.411 524.105 454.211 524.405 454.111 524.405ZM490.08 517.204C489.681 517.504 489.281 517.804 488.881 518.104C487.482 519.004 485.984 519.604 484.385 519.904C482.387 520.304 480.288 520.304 478.29 520.004C475.293 519.604 472.395 519.104 469.498 518.404C461.804 516.504 454.511 513.503 448.016 508.902C445.618 507.302 445.618 507.302 444.519 504.701C441.921 499 439.224 493.299 436.826 487.498C436.126 485.898 435.527 484.297 434.927 482.597C434.728 482.197 434.728 481.797 434.628 481.297C434.628 481.097 434.728 480.797 434.927 480.696C435.227 480.496 435.527 480.296 435.927 480.196C437.225 479.696 438.524 479.196 439.723 478.796C450.314 474.995 461.005 471.195 471.596 467.294C473.495 466.594 475.393 466.294 477.391 466.294C483.286 466.394 489.181 466.394 495.076 466.494C499.672 466.494 504.268 466.594 508.864 466.594C510.463 466.594 512.061 466.494 513.66 466.494C513.96 466.494 514.26 466.494 514.559 466.494C514.759 466.494 514.859 466.694 514.959 466.794C515.059 466.894 515.059 466.994 515.059 467.194C515.658 472.995 516.158 478.696 515.858 484.497C515.658 487.998 515.159 491.399 514.259 494.799C514.159 495.099 514.06 495.399 513.96 495.699C513.26 497.7 512.261 499.4 510.563 500.801C508.864 502.201 507.166 503.601 505.567 505.001C500.571 509.102 495.376 513.203 490.08 517.204ZM560.12 463.293C560.02 463.593 559.82 463.993 559.72 464.293C555.724 473.395 550.728 481.797 544.434 489.498C537.04 498.5 528.347 505.802 518.356 511.703C515.758 513.203 513.16 514.603 510.463 515.904C510.263 516.004 510.163 516.104 509.963 515.904C509.863 515.804 509.863 515.704 509.863 515.503C510.463 513.803 511.162 512.103 511.862 510.302C512.761 507.902 513.76 505.401 514.659 503.001C515.059 501.801 515.758 500.801 516.657 499.9C520.254 496.2 523.352 492.099 526.05 487.698C528.647 483.497 531.045 479.096 533.243 474.695C534.342 472.395 535.541 469.994 536.64 467.694C536.84 467.194 537.14 466.694 537.44 466.194C537.839 465.593 538.339 465.193 539.038 464.993C540.038 464.793 540.937 464.593 541.936 464.393C544.733 463.893 547.531 463.293 550.329 462.693C552.727 462.193 555.224 461.693 557.622 461.193C558.322 460.993 559.121 460.993 559.82 461.093C560.22 461.093 560.42 461.493 560.42 461.893C560.32 462.293 560.22 462.793 560.12 463.293ZM567.914 428.486C567.814 430.486 567.714 432.487 567.514 434.387C567.014 438.688 566.315 442.989 565.316 447.19C564.816 449.19 564.217 451.291 563.717 453.291C563.517 454.091 563.118 454.791 562.918 455.591C562.818 455.791 562.418 455.892 562.318 455.792C562.118 455.691 562.019 455.591 561.919 455.491C561.519 455.091 561.019 454.591 560.62 454.191C556.723 449.99 552.927 445.789 549.03 441.589C548.53 441.089 548.03 440.488 547.731 439.788C547.631 439.488 547.531 439.188 547.631 438.888C547.731 438.488 547.931 438.088 548.031 437.688C549.13 434.287 549.929 430.786 550.529 427.186C551.028 423.885 551.428 420.584 551.727 417.184C552.027 412.983 552.327 408.782 552.626 404.581C552.726 403.181 552.727 401.681 552.826 400.28C552.826 399.88 552.826 399.48 552.826 399.18C552.727 398.78 552.627 398.48 552.427 397.98C553.026 397.48 553.226 396.78 553.426 396.18C554.026 393.879 554.725 391.479 555.324 389.178C555.524 388.478 555.624 387.878 555.824 387.178C556.623 384.477 557.322 381.777 557.622 378.976C557.822 378.976 557.922 378.976 558.022 379.076C558.222 379.476 558.521 379.776 558.621 380.176C561.319 385.977 563.517 391.979 565.016 398.18C565.616 400.68 566.215 403.281 566.714 405.781C567.114 408.182 567.414 410.582 567.714 412.983C567.913 415.183 568.113 417.484 568.213 419.684C568.113 422.685 568.113 425.585 567.914 428.486ZM929.903 201.841C903.526 201.34 879.846 192.639 857.865 178.636C848.973 172.935 840.48 166.633 831.887 160.532C803.112 140.028 774.936 118.724 746.76 97.5196C725.978 81.8164 704.497 67.1135 681.816 54.2109C668.727 46.8094 655.439 39.908 641.351 34.5069C625.464 28.3057 608.979 24.805 591.993 23.6047C587.897 23.3047 583.7 23.1046 579.603 24.0048C574.608 25.105 570.911 27.9056 568.413 32.2065C567.514 33.7068 566.815 35.3071 565.915 36.8074C558.522 48.8098 547.831 55.011 533.743 54.911C528.547 54.811 523.752 53.1107 519.056 50.8102C514.16 48.4097 509.663 45.4091 505.367 42.0084C499.472 37.3075 494.077 32.1064 489.381 26.2053C483.286 18.6037 477.191 11.0022 470.997 3.40068C469.997 2.20044 469.298 0.700141 467.5 0C466.001 0.900181 465.201 2.60052 464.202 3.90078C459.706 9.90199 455.51 16.1032 450.814 22.0044C442.221 32.9066 432.13 42.1085 420.24 49.3099C416.343 51.6104 412.347 53.4107 407.85 54.1109C394.062 56.1113 382.672 52.0104 373.88 41.1082C371.781 38.5077 369.983 35.6071 368.484 32.6065C365.287 26.1052 360.092 23.2047 353.098 23.2047C335.013 23.2047 317.528 26.3053 300.542 32.4065C287.554 37.0074 275.164 42.9086 263.075 49.4099C241.593 60.9122 221.31 74.2149 201.727 88.6178C175.849 107.622 150.171 126.925 124.293 145.929C111.305 155.531 98.2156 165.033 85.1268 174.335C71.5385 184.037 56.7511 191.638 40.6649 196.339C30.3737 199.44 19.8826 201.34 9.09182 201.74C6.09439 201.841 3.09735 202.241 0 202.541C0 202.541 1.3988 1239.35 1.49872 1240.15C1.59863 1241.25 1.59824 1242.35 1.59824 1243.55C1.59824 1247.55 1.59824 1251.55 1.59824 1255.55C1.69816 1262.95 2.49757 1270.25 4.19611 1277.46C7.19355 1290.06 13.2885 1300.96 22.3807 1310.16C34.5703 1322.57 48.7582 1331.77 65.444 1336.87C83.3286 1342.37 100.913 1348.47 118.798 1353.87C138.082 1359.67 157.465 1364.77 176.849 1370.28C228.904 1385.08 280.46 1401.28 330.916 1420.99C357.993 1431.59 384.77 1442.89 410.748 1455.89C429.632 1465.39 447.516 1476.5 463.203 1490.8C464.602 1492.1 465.801 1493.6 467 1495H468.898C468.798 1493.9 469.498 1493.3 470.297 1492.7C485.884 1480.5 501.87 1468.79 519.455 1459.39C537.34 1449.89 555.824 1441.49 574.508 1433.59C628.562 1410.78 683.914 1391.88 740.366 1375.98C773.038 1366.77 805.81 1357.47 838.482 1348.07C847.674 1345.47 856.866 1342.57 865.858 1339.47C879.546 1334.77 892.336 1328.37 903.926 1319.66C912.418 1313.26 919.612 1305.56 925.008 1296.36C928.005 1291.26 930.303 1285.76 931.902 1280.06C932.501 1277.96 932.701 1275.66 933.101 1273.46C933.301 1272.36 933.7 1271.36 934 1270.26V202.741C932.701 202.441 931.302 201.841 929.903 201.841ZM862.162 205.441C862.461 203.741 862.961 202.041 863.46 199.74C872.852 204.041 881.745 207.842 891.137 210.742C900.329 213.543 909.721 215.143 919.312 216.844C919.412 218.044 919.613 218.944 919.712 219.844C919.812 221.444 919.712 223.045 919.712 224.645C919.712 339.968 919.712 455.291 919.712 570.615V578.516C918.114 579.716 917.014 578.816 915.915 578.416C896.232 570.514 878.747 559.212 863.46 544.609C838.881 521.205 823.095 492.999 815.202 459.992C813.903 454.591 813.803 449.39 815.002 443.889C822.495 407.082 829.789 370.274 837.083 333.367C844.776 294.659 852.47 255.951 860.063 217.244C860.663 213.343 861.362 209.442 862.162 205.441ZM811.904 165.233C813.103 165.933 814.103 166.333 815.002 167.034C820.497 170.934 825.892 174.835 831.388 178.736C840.58 185.137 849.872 191.338 859.464 197.94C860.063 199.24 859.364 200.94 859.064 202.641C855.467 220.844 851.771 239.048 848.174 257.152C843.578 280.156 838.981 303.261 834.485 326.266C830.189 348.07 825.893 369.874 821.496 391.679C818.799 405.481 816.001 419.284 813.204 433.087C813.004 434.087 813.203 435.387 811.605 436.088C811.505 435.287 811.305 434.587 811.305 433.887C811.006 427.186 810.606 420.484 810.506 413.783C809.706 381.077 804.411 349.17 794.419 318.064C792.321 311.563 789.923 305.061 787.525 298.66C786.426 295.859 786.326 293.159 786.926 290.258C792.921 260.352 798.816 230.346 804.811 200.44C806.809 190.438 808.707 180.336 810.706 170.334C810.906 168.634 811.305 167.134 811.904 165.233ZM762.447 128.726C763.646 129.426 764.445 129.826 765.245 130.426C779.632 141.028 794.02 151.63 808.407 162.533C800.214 204.041 792.021 245.249 782.929 286.558C782.43 285.557 781.83 284.657 781.43 283.657C771.839 262.153 760.349 241.749 746.46 222.645C744.962 220.544 744.562 218.344 745.062 215.843C746.161 210.242 747.26 204.541 748.359 198.94C752.755 177.036 757.051 155.031 761.448 133.127C761.647 131.726 762.047 130.326 762.447 128.726ZM709.692 90.1181C715.787 93.3187 747.46 116.323 758.251 125.325C758.95 126.825 758.55 128.426 758.251 130.026C752.855 157.132 747.46 184.237 742.064 211.342C741.864 212.243 741.465 213.143 741.065 214.443C740.066 213.443 739.267 212.843 738.567 212.043C729.275 200.24 719.384 188.938 708.593 178.436C704.896 174.835 701.299 171.234 697.403 167.934C695.105 166.033 694.605 163.933 695.205 161.232C696.304 156.431 697.103 151.53 698.102 146.629C701.599 129.126 705.096 111.522 708.593 94.0189C708.893 92.8186 709.292 91.6184 709.692 90.1181ZM230.802 92.2185V87.0175C231.901 86.2173 232.701 85.4171 233.6 84.817C251.984 72.6146 271.068 61.5123 291.151 52.4105C304.439 46.4093 318.327 42.1085 332.715 39.808C340.209 38.6077 347.602 38.2077 353.997 38.8078C354.696 40.008 355.595 41.3083 356.395 42.6086C358.792 46.6094 361.39 50.4101 364.588 53.8108C372.981 62.8126 383.372 67.9136 395.561 69.4139C406.752 70.8142 417.143 68.4137 426.834 62.9126C438.424 56.2113 448.516 47.7096 457.208 37.5075C459.906 34.3069 462.504 31.1062 465.201 28.0056C466.001 27.0054 466.9 26.1052 467.899 24.905C468.698 25.6051 469.398 26.2053 469.997 26.9054C472.995 30.5061 475.792 34.1068 478.89 37.6075C487.283 47.4095 496.875 55.8112 508.065 62.2125C512.961 65.013 517.956 67.3135 523.552 68.5137C537.14 71.4143 549.929 69.514 561.719 62.0124C569.812 56.9114 576.207 49.91 580.503 41.3083C581.502 39.3079 582.701 38.4077 584.899 38.4077C591.194 38.3077 597.289 39.1078 603.483 39.908C622.367 42.5085 639.852 49.4099 656.837 57.9116C673.124 66.1133 688.71 75.6152 703.897 85.6172C704.397 85.9172 704.896 86.4173 705.596 87.0175C705.596 87.9176 705.695 88.6178 705.596 89.2179C700.999 112.623 696.304 135.927 691.708 159.332C691.608 159.932 691.308 160.532 691.108 161.032C689.309 161.332 688.411 159.932 687.411 159.132C679.118 152.331 670.626 145.829 661.733 139.828C624.165 114.223 583.2 96.7194 538.738 87.3175C522.352 83.8168 505.667 81.7164 488.981 80.5162C472.695 79.4159 456.409 79.616 440.123 80.9162C398.858 84.4169 359.392 95.0191 321.924 112.823C290.051 127.926 261.276 147.53 235.398 171.634C234.199 172.735 233 173.735 232.001 174.735C230.702 174.435 230.802 173.535 230.802 172.835C230.802 171.734 230.802 170.634 230.802 169.434C230.802 143.729 230.802 118.024 230.802 92.2185ZM219.012 1366.17C217.513 1366.87 216.214 1366.07 214.916 1365.67C202.526 1362.07 190.037 1358.47 177.648 1354.97C156.466 1348.87 135.184 1343.07 114.102 1336.77C98.5154 1332.07 83.0285 1326.87 67.5418 1321.77C53.254 1317.06 41.2644 1308.76 31.173 1297.66C22.3805 1287.96 17.7844 1276.36 17.085 1263.25C16.8852 1260.05 16.8854 1256.85 16.8854 1253.65C16.8854 910.083 16.8854 566.514 16.8854 222.945V216.844C19.8829 216.343 22.1806 215.843 24.5786 215.543C43.4624 212.843 61.0474 206.341 77.6332 196.94C83.728 193.439 89.7232 189.738 95.4183 185.537C122.595 165.833 149.672 145.929 176.649 126.025C189.038 116.923 201.327 107.722 213.617 98.6198C215.216 97.4195 216.814 96.0193 219.212 95.3191C219.312 96.4194 219.412 97.1195 219.512 97.8196C220.211 124.625 219.811 1361.27 219.012 1366.17ZM230.602 277.756C230.602 273.255 231.701 269.454 234.199 265.653C273.765 207.242 327.819 169.034 395.461 149.93C414.145 144.629 433.229 141.628 452.612 140.528C465.401 139.828 478.19 139.828 490.979 140.928C545.333 145.629 594.591 164.033 638.153 196.94C687.211 233.947 720.283 282.257 738.268 341.068C744.163 360.272 747.859 379.876 749.058 399.88C749.658 410.782 750.157 421.585 750.657 432.487C752.056 463.793 759.449 493.499 773.038 521.705C789.124 555.211 812.105 583.117 841.779 605.422C842.878 606.222 843.977 607.122 845.076 608.022C844.976 608.322 844.877 608.522 844.777 608.822H767.343C763.047 603.421 758.45 598.02 754.254 592.419C728.176 557.512 710.791 518.704 702.698 475.896C700.2 462.693 698.702 449.39 697.802 435.887C697.303 427.886 697.402 419.884 697.003 411.883C695.604 381.977 688.71 353.371 676.121 326.165C658.336 287.858 632.358 256.351 597.388 232.647C571.81 215.343 543.834 203.641 513.46 197.64C496.775 194.339 479.989 192.439 463.003 193.139C404.653 195.439 353.597 215.943 311.133 256.251C274.964 290.558 252.783 332.767 243.591 381.677C240.494 398.08 239.495 414.683 240.194 431.387C241.893 473.795 254.682 512.703 277.662 548.21C291.85 570.214 309.735 588.818 330.517 604.721C331.616 605.622 332.815 606.422 333.914 607.322C334.114 607.522 334.314 607.822 334.613 608.022C334.414 609.122 333.514 608.922 332.715 608.922C326.92 608.922 321.225 608.922 315.43 608.922C298.044 608.922 280.56 608.922 263.175 608.922H257.879C256.88 607.922 255.981 607.022 255.181 606.022C247.388 597.12 240.394 587.518 233.7 577.816C231.402 574.515 230.502 571.015 230.502 567.014C230.602 548.81 230.602 530.506 230.702 512.303C230.702 452.791 230.702 393.279 230.702 333.667C230.802 315.163 230.802 296.46 230.602 277.756ZM688.71 604.321C690.209 605.822 691.408 606.922 691.507 608.722C689.409 609.122 687.511 608.922 685.313 608.922C685.813 606.622 687.211 605.722 688.71 604.321ZM679.518 608.922H602.084C602.783 607.222 604.182 606.622 605.182 605.822C616.871 597.22 627.663 587.518 637.454 576.716C644.548 568.914 651.042 560.612 657.037 551.911C657.936 550.61 658.836 549.31 660.234 547.41C663.032 552.111 664.331 556.712 666.429 561.013C668.627 565.414 670.526 570.014 672.724 574.415C674.822 578.716 677.02 582.917 679.318 587.118C681.616 591.319 684.014 595.52 686.412 599.82C684.814 603.421 681.816 605.922 679.518 608.922ZM647.046 486.898C643.948 471.495 642.15 455.992 641.451 440.288C641.051 432.187 640.851 423.985 640.551 415.883C639.652 392.279 634.057 369.674 623.966 348.37C602.284 302.361 560.92 268.354 511.462 255.651C491.779 250.55 471.696 248.85 451.513 251.05C411.547 255.351 376.877 271.354 348.102 299.66C321.924 325.465 305.338 356.672 299.443 392.979C290.251 449.49 305.438 499.1 344.405 541.109C366.586 565.113 394.162 580.417 425.536 588.818C440.723 592.919 456.209 594.919 471.996 594.419C549.729 592.119 598.987 545.51 621.667 501.201C628.561 487.698 633.457 473.595 636.755 458.892C637.054 457.392 637.254 455.791 638.553 453.991C641.55 484.697 648.145 513.903 658.736 542.209C658.136 543.309 657.637 544.309 657.137 545.209C641.151 570.014 620.868 590.619 596.689 607.522C594.99 608.722 593.392 609.422 591.393 609.222C590.394 609.122 589.495 609.222 588.496 609.222C508.565 609.222 428.633 609.222 348.701 609.322C344.805 609.322 341.707 608.322 338.51 606.122C292.849 573.515 263.974 529.606 250.086 475.495C245.59 458.092 243.292 440.288 243.691 422.285C244.89 361.973 265.272 309.462 307.336 265.753C338.809 232.947 376.977 212.143 421.239 202.241C440.622 197.84 460.405 196.039 480.288 197.34C535.641 200.84 583.9 221.344 624.165 259.652C659.035 292.859 680.517 333.567 689.809 380.876C692.407 394.279 693.406 407.782 693.806 421.385C694.305 441.389 695.804 461.293 700 480.997C709.192 524.305 727.077 563.513 754.154 598.42C756.452 601.321 758.75 604.121 761.048 607.022C761.448 607.522 761.747 608.022 762.147 608.722C761.348 609.022 760.948 609.222 760.548 609.222C739.267 609.222 718.085 609.222 696.803 609.222C695.804 607.722 694.905 606.422 694.005 605.021C670.925 568.414 655.438 529.106 647.046 486.898ZM636.755 422.485C636.255 515.804 561.719 591.219 467.5 590.519C373.88 589.818 300.343 514.103 300.542 422.185C300.542 330.266 374.479 253.251 469.498 253.951C564.616 254.551 637.254 331.367 636.755 422.485ZM230.802 581.417C231.901 582.217 232.201 582.317 232.301 582.517C238.796 591.019 245.19 599.42 251.684 607.922C251.784 608.022 251.684 608.222 251.684 608.322C251.584 608.422 251.584 608.622 251.484 608.722C251.384 608.822 251.185 608.822 250.985 608.822C244.99 608.822 238.895 608.922 232.9 608.922C232.501 608.922 232.001 608.722 231.302 608.522C230.503 604.221 230.902 599.72 230.802 595.32C230.702 591.019 230.802 586.618 230.802 581.417ZM896.332 1306.56C888.539 1312.76 879.847 1317.46 870.754 1321.47C858.865 1326.57 846.475 1330.37 834.086 1333.97C798.016 1344.17 761.848 1354.27 725.778 1364.67C670.326 1380.68 615.972 1399.68 562.818 1422.39C544.034 1430.39 525.45 1438.89 507.565 1448.99C495.176 1455.99 483.286 1463.79 471.996 1472.6C470.897 1473.5 469.698 1474.3 468.399 1475.2C467.499 1474.6 466.7 1474.2 466.001 1473.6C449.215 1459.79 430.631 1448.99 411.148 1439.59C374.18 1421.69 336.112 1406.38 297.345 1392.78C277.162 1385.68 256.78 1379.28 236.497 1372.48C234.699 1371.88 232.801 1371.58 231.202 1370.38C231.102 1369.47 230.902 1368.77 230.902 1367.97C230.902 1168.23 230.902 968.594 230.902 768.854C230.902 768.354 231.102 767.954 231.302 767.254C232.101 767.054 233 766.754 233.899 766.654C235.298 766.554 236.797 766.654 238.196 766.654C463.103 766.654 688.011 766.654 912.918 766.654C914.916 766.654 917.015 766.454 919.712 767.154V772.255C919.712 934.388 919.712 1096.42 919.712 1258.55C919.712 1278.26 911.719 1294.16 896.332 1306.56ZM919.612 754.351C918.513 754.651 917.714 755.052 916.815 755.152C915.416 755.252 913.917 755.252 912.518 755.252C687.611 755.252 462.704 755.252 237.796 755.252C235.698 755.252 233.699 755.252 231.401 755.152C231.202 754.051 230.902 753.151 230.802 752.251C230.702 750.851 230.802 749.35 230.802 747.95C230.802 707.142 230.802 666.334 230.802 625.526C230.802 624.125 230.902 622.725 230.902 621.125C232.001 620.925 232.9 620.725 233.899 620.625C234.898 620.525 235.798 620.625 236.797 620.625C240.194 620.625 243.491 620.625 246.888 620.625C468.698 620.625 690.608 620.625 912.418 620.525C914.617 620.525 916.815 620.224 919.712 620.925C920.012 665.534 919.712 709.842 919.612 754.351ZM919.013 608.722C917.814 608.822 916.615 608.922 915.416 609.022C895.932 609.022 876.449 609.022 856.866 609.122C854.068 609.122 851.97 608.122 849.872 606.622C821.596 586.818 799.115 561.913 782.53 531.607C770.74 510.102 762.247 487.498 757.951 463.293C756.252 453.691 755.353 443.989 754.554 434.287C753.754 424.585 754.254 414.783 753.554 405.081C751.656 377.176 746.161 349.97 736.469 323.665C721.881 284.257 699.9 249.45 670.126 219.744C639.752 189.438 604.182 167.334 563.817 152.931C544.534 146.029 524.65 141.228 504.268 138.728C485.784 136.427 467.3 135.927 448.815 137.228C412.347 139.828 377.676 149.13 344.804 164.933C300.043 186.437 263.374 217.544 234.799 258.152C233.8 259.552 232.801 260.952 231.701 262.353C230.203 261.452 230.702 260.252 230.702 259.252C230.702 247.45 230.702 235.547 230.702 223.745C230.702 211.242 230.702 198.74 230.702 186.337C230.702 180.136 230.403 181.736 234.199 178.036C265.473 147.93 301.142 124.825 341.307 108.422C363.289 99.52 385.869 92.8186 409.249 88.7178C429.132 85.2171 449.115 83.4167 469.298 83.6168C548.33 84.4169 618.97 109.322 680.617 158.632C731.273 199.04 766.743 250.35 788.125 311.563C795.818 333.667 801.114 356.372 804.111 379.576C805.31 388.778 805.71 398.08 806.31 407.282C806.709 414.583 806.809 421.985 807.109 429.386C809.706 493.699 848.773 555.311 914.417 581.917C916.015 582.617 917.614 583.317 919.312 584.017C920.112 594.419 920.012 604.521 919.013 608.722Z" fill="url(#paint0_linear)"/>
<path d="M527.609 852.623V845.523H558.052V852.623H527.609ZM527.609 866.122V859.022H558.052V866.122H527.609Z" />
<path d="M527.609 945.113V938.014H558.052V945.113H527.609ZM527.609 958.612V951.513H558.052V958.612H527.609Z" />
<path d="M527.609 1042.21V1035.11H558.052V1042.21H527.609ZM527.609 1055.71V1048.61H558.052V1055.71H527.609Z" />
<path d="M527.609 1139.8V1132.7H558.052V1139.8H527.609ZM527.609 1153.3V1146.2H558.052V1153.3H527.609Z" />
<path d="M527.609 1237.38V1230.29H558.052V1237.38H527.609ZM527.609 1250.78V1243.68H558.052V1250.78H527.609Z" />
<path d="M290.967 1214.29C292.065 1214.29 292.963 1214.39 293.762 1214.69C294.56 1214.99 295.159 1215.39 295.658 1215.89C296.157 1216.39 296.556 1217.09 296.756 1217.79C296.955 1218.49 297.155 1219.29 297.155 1220.19L293.263 1221.19C293.263 1220.29 293.063 1219.49 292.764 1218.89C292.364 1218.29 291.865 1217.99 291.067 1217.99C290.568 1217.99 290.168 1218.09 289.969 1218.29C289.769 1218.49 289.47 1218.79 289.27 1219.09C289.071 1219.39 288.971 1219.69 288.971 1220.09C288.871 1220.49 288.871 1220.79 288.871 1221.09V1234.29C288.871 1234.49 288.871 1234.79 288.971 1235.09C288.971 1235.39 289.171 1235.69 289.27 1235.89C289.47 1236.19 289.669 1236.39 289.969 1236.59C290.268 1236.79 290.568 1236.89 291.067 1236.89C292.564 1236.89 293.262 1235.79 293.362 1233.69C294.061 1233.79 294.659 1233.89 295.358 1233.99C296.057 1234.09 296.656 1234.19 297.354 1234.29C297.254 1236.29 296.756 1237.79 295.758 1238.99C294.76 1240.09 293.163 1240.69 291.167 1240.69C289.071 1240.69 287.474 1240.19 286.476 1239.09C285.478 1237.99 284.979 1236.39 284.979 1234.29V1221.29C284.979 1220.29 285.079 1219.39 285.278 1218.59C285.478 1217.69 285.877 1216.99 286.376 1216.29C286.875 1215.69 287.573 1215.09 288.372 1214.79C288.771 1214.49 289.769 1214.29 290.967 1214.29Z" />
<path d="M300.85 1240.59V1236.09H305.044V1240.59H300.85Z" />
<path d="M319.214 1226.99C320.312 1227.39 321.111 1228.09 321.61 1229.09C322.109 1230.09 322.209 1231.29 322.209 1232.69C322.209 1235.39 321.61 1237.39 320.512 1238.69C319.314 1239.99 317.618 1240.59 315.222 1240.59H309.832V1214.59H315.521C317.817 1214.59 319.514 1215.19 320.512 1216.39C321.51 1217.59 322.009 1219.39 322.009 1221.59C322.009 1222.79 321.809 1223.79 321.41 1224.69C321.011 1225.59 320.312 1226.29 319.314 1226.69V1226.99H319.214ZM318.116 1221.69C318.116 1220.49 317.917 1219.59 317.418 1219.09C316.919 1218.59 316.12 1218.29 315.022 1218.29H313.725V1224.99H315.022C316.02 1224.99 316.819 1224.69 317.318 1224.09C317.817 1223.59 318.116 1222.79 318.116 1221.69ZM318.316 1232.29C318.316 1231.09 318.116 1230.19 317.617 1229.59C317.218 1228.99 316.42 1228.69 315.222 1228.69H313.725V1236.79H315.322C315.92 1236.79 316.519 1236.69 316.919 1236.39C317.318 1236.19 317.617 1235.79 317.817 1235.39C318.016 1234.99 318.117 1234.49 318.216 1233.99C318.316 1233.49 318.316 1232.89 318.316 1232.29Z" />
<path d="M326.594 1240.59V1236.09H330.788V1240.59H326.594Z" />
<path d="M359.732 1262.49L355.441 1251.19L351.748 1240.49H351.349V1275.69H341.967V1214.99H351.149L357.736 1232.29L362.527 1245.49H362.926L367.817 1231.99L374.304 1215.09H383.387V1275.89H374.005V1240.89H373.705L369.913 1251.69L365.621 1262.59H359.732V1262.49Z" />
<path d="M415.929 1275.79L413.534 1263.09H402.355C401.956 1265.19 401.557 1267.29 401.157 1269.39C400.758 1271.49 400.459 1273.59 400.06 1275.69H390.479C392.475 1265.49 394.571 1255.39 396.567 1245.29C398.563 1235.19 400.658 1225.09 402.655 1214.89H413.134L425.411 1275.69H415.929V1275.79ZM407.745 1229.09C407.146 1233.29 406.547 1237.49 405.948 1241.59C405.35 1245.79 404.651 1249.99 403.852 1254.29H412.136L408.244 1229.09H407.745Z" />
<path d="M453.453 1275.79L446.566 1254.89H446.367L439.48 1275.79H429L441.276 1243.99C439.38 1239.19 437.483 1234.39 435.587 1229.49C433.691 1224.69 431.795 1219.89 429.898 1214.99H440.478C441.476 1218.09 442.474 1221.09 443.472 1224.09C444.47 1227.09 445.468 1230.09 446.467 1233.19L446.766 1233.09L452.554 1214.89H463.234L451.457 1243.89C453.553 1249.29 455.649 1254.59 457.745 1259.79C459.841 1265.09 461.936 1270.39 464.032 1275.59H453.453V1275.79Z" />
<path d="M427.516 819.426C428.314 819.426 429.213 819.426 430.011 819.426C430.111 819.426 430.211 819.426 430.31 819.526C430.61 819.526 430.909 819.526 431.209 819.626C432.606 819.726 434.103 819.926 435.501 820.226C438.495 820.826 441.389 821.826 444.184 823.325C448.176 825.425 451.57 828.125 454.464 831.525C457.658 835.325 459.854 839.624 461.151 844.424C461.55 845.824 461.75 847.224 461.95 848.623C462.05 849.523 462.149 850.423 462.149 851.423C462.149 852.523 462.149 853.623 462.149 854.723C462.149 855.223 462.149 855.723 462.049 856.223C461.949 857.423 461.75 858.723 461.451 859.923C460.852 862.922 459.854 865.722 458.456 868.422C456.76 871.722 454.464 874.721 451.769 877.321C450.771 878.321 449.773 879.121 448.575 880.021C448.475 880.121 448.376 880.221 448.276 880.221C448.276 880.121 448.176 880.021 448.176 879.921C446.479 874.721 444.782 869.622 443.186 864.422C442.387 862.022 441.689 859.723 440.89 857.323C440.89 857.223 440.79 857.123 440.79 857.023C440.89 856.923 440.99 856.923 440.99 856.823C446.48 852.823 451.869 848.923 457.359 844.924C458.257 844.224 459.255 843.624 460.153 842.924C460.253 842.924 460.253 842.824 460.253 842.724C460.153 842.724 460.053 842.724 459.854 842.724C452.069 842.724 444.283 842.724 436.598 842.724C436.498 842.724 436.399 842.724 436.299 842.724C436.199 842.724 436.199 842.724 436.099 842.724C436.099 842.724 436.099 842.724 436.099 842.624C436.099 842.624 436.099 842.624 436.099 842.524C433.704 835.125 431.309 827.725 428.913 820.326C428.913 820.226 428.813 820.126 428.813 820.026V819.926C428.813 819.926 428.813 819.926 428.813 819.826C428.414 821.126 428.015 822.426 427.516 823.725C427.117 825.025 426.717 826.325 426.318 827.525C425.919 828.825 425.52 830.125 425.021 831.425C424.622 832.725 424.222 834.025 423.723 835.324C423.324 836.624 422.925 837.924 422.526 839.124C422.126 840.424 421.727 841.724 421.228 843.024C421.028 843.024 420.928 843.024 420.829 843.024C412.944 843.024 405.059 843.024 397.174 843.024C397.074 843.024 396.975 843.024 396.975 843.024C396.975 842.924 396.975 842.824 397.075 842.724C398.771 837.624 401.666 833.125 405.458 829.325C409.051 825.825 413.144 823.325 417.934 821.626C420.929 820.626 424.022 820.026 427.116 819.826C427.216 819.426 427.416 819.526 427.516 819.426Z" fill="#FFED00"/>
<path d="M395.168 853.621C395.168 853.121 395.168 852.721 395.168 852.221C395.268 852.021 395.268 851.721 395.268 851.421C395.268 851.121 395.268 850.921 395.268 850.621C395.368 849.421 395.467 848.221 395.667 847.021C395.966 845.522 396.266 844.122 396.765 842.722C396.765 842.622 396.865 842.522 396.865 842.422C396.965 842.522 397.064 842.622 397.264 842.722C403.552 847.321 409.94 851.921 416.227 856.521C416.327 856.621 416.427 856.621 416.527 856.721C416.527 856.821 416.427 856.921 416.427 857.021C416.128 857.821 415.928 858.621 415.628 859.32C413.533 865.82 411.437 872.32 409.241 878.919C409.141 879.219 409.041 879.519 408.942 879.819C408.842 879.719 408.742 879.719 408.642 879.619C405.548 877.319 402.853 874.519 400.757 871.22C397.364 866.02 395.467 860.42 395.268 854.221C395.368 854.221 395.268 853.921 395.168 853.621Z" fill="#FFED00"/>
<path d="M448.467 880.021C448.368 880.121 448.267 880.221 448.168 880.321C446.271 881.721 444.275 882.821 442.079 883.721C439.784 884.721 437.289 885.521 434.793 885.921C433.396 886.121 432.098 886.321 430.701 886.421C430.601 886.421 430.502 886.421 430.402 886.421C429.304 886.421 428.106 886.421 427.009 886.421C426.909 886.421 426.809 886.42 426.709 886.32C425.711 886.221 424.713 886.121 423.715 886.021C421.818 885.721 420.022 885.321 418.225 884.721C415.031 883.621 412.137 882.121 409.342 880.221C409.242 880.121 409.143 880.021 409.043 880.021C409.143 879.921 409.242 879.921 409.442 879.821C415.73 875.221 422.118 870.622 428.406 866.022C428.506 865.922 428.605 865.822 428.705 865.822C428.805 865.922 428.905 865.922 429.005 866.022C430.003 866.722 431.001 867.522 431.999 868.222C437.289 872.122 442.579 875.921 447.868 879.821C448.168 879.921 448.268 880.021 448.467 880.021Z" fill="#FFED00"/>
<path d="M791.212 1227.89C791.611 1227.89 792.01 1227.89 792.41 1227.89H792.51C792.609 1227.89 792.809 1227.89 792.909 1227.89C793.607 1227.89 794.306 1227.99 794.905 1228.19C796.302 1228.49 797.699 1228.99 798.997 1229.69C800.893 1230.69 802.49 1231.99 803.887 1233.59C805.385 1235.39 806.483 1237.49 807.081 1239.79C807.281 1240.49 807.381 1241.09 807.481 1241.79C807.58 1242.19 807.581 1242.69 807.581 1243.09C807.581 1243.59 807.581 1244.19 807.581 1244.69C807.581 1244.89 807.581 1245.19 807.581 1245.39C807.481 1245.99 807.481 1246.59 807.281 1247.19C806.982 1248.59 806.482 1249.99 805.884 1251.19C805.085 1252.79 803.988 1254.19 802.69 1255.39C802.191 1255.89 801.692 1256.29 801.193 1256.69L801.093 1256.79V1256.69C800.295 1254.29 799.496 1251.79 798.698 1249.39C798.299 1248.29 797.999 1247.19 797.6 1245.99C797.6 1245.99 797.6 1245.89 797.6 1245.79L797.7 1245.69C800.295 1243.79 802.889 1241.89 805.484 1239.99C805.884 1239.69 806.383 1239.39 806.782 1238.99C806.782 1238.99 806.882 1238.99 806.882 1238.89C806.782 1238.89 806.782 1238.89 806.682 1238.89C802.989 1238.89 799.297 1238.89 795.604 1238.89H795.504H795.404C794.306 1235.39 793.108 1231.89 792.01 1228.29V1228.19C791.811 1228.79 791.611 1229.39 791.412 1229.99C791.212 1230.59 791.013 1231.19 790.813 1231.79C790.613 1232.39 790.414 1232.99 790.214 1233.59C790.015 1234.19 789.815 1234.79 789.615 1235.39C789.416 1235.99 789.216 1236.59 789.016 1237.19C788.817 1237.79 788.617 1238.39 788.417 1238.99C788.318 1238.99 788.318 1238.99 788.218 1238.99C784.425 1238.99 780.732 1238.99 777.039 1238.99H776.939C776.939 1238.89 776.939 1238.89 776.939 1238.89C777.738 1236.49 779.135 1234.29 780.932 1232.49C782.628 1230.79 784.625 1229.59 786.821 1228.89C788.218 1228.39 789.715 1228.09 791.212 1228.09C791.112 1227.89 791.112 1227.89 791.212 1227.89Z" fill="#FFED00"/>
<path d="M775.834 1244.09C775.834 1243.89 775.834 1243.69 775.834 1243.49C775.834 1243.39 775.933 1243.29 775.933 1243.09C775.933 1242.89 775.933 1242.89 775.933 1242.69C775.933 1242.09 776.033 1241.59 776.133 1240.99C776.233 1240.29 776.433 1239.59 776.632 1238.99C776.632 1238.99 776.632 1238.89 776.732 1238.89C776.832 1238.89 776.832 1238.99 776.931 1238.99C779.926 1241.19 782.92 1243.39 785.914 1245.59L786.014 1245.69C786.014 1245.79 786.014 1245.79 786.014 1245.89C785.914 1246.29 785.814 1246.59 785.615 1246.99C784.617 1250.09 783.619 1253.19 782.62 1256.29C782.62 1256.39 782.52 1256.59 782.421 1256.69L782.321 1256.59C780.824 1255.49 779.526 1254.19 778.528 1252.59C776.932 1250.09 776.033 1247.39 775.933 1244.49C775.933 1244.39 775.934 1244.29 775.834 1244.09Z" fill="#FFED00"/>
<path d="M801.186 1256.69C801.186 1256.79 801.086 1256.79 801.086 1256.79C800.188 1257.39 799.19 1257.99 798.192 1258.39C797.094 1258.89 795.896 1259.19 794.698 1259.49C794.099 1259.59 793.401 1259.69 792.802 1259.69C792.702 1259.69 792.702 1259.69 792.602 1259.69C792.103 1259.69 791.504 1259.69 791.005 1259.69H790.905C790.406 1259.69 789.907 1259.59 789.508 1259.49C788.61 1259.39 787.711 1259.19 786.913 1258.89C785.416 1258.39 784.019 1257.69 782.721 1256.79L782.621 1256.69C782.721 1256.69 782.721 1256.59 782.821 1256.59C785.815 1254.39 788.81 1252.19 791.804 1249.99C791.804 1249.99 791.903 1249.89 792.003 1249.89L792.103 1249.99C792.602 1250.39 793.101 1250.69 793.5 1251.09C795.996 1252.89 798.491 1254.79 801.086 1256.59C800.986 1256.59 801.086 1256.69 801.186 1256.69Z" fill="#FFED00"/>
<path d="M785.217 1029.9C785.616 1029.9 786.015 1029.9 786.414 1029.9H786.514C786.614 1029.9 786.813 1029.9 786.913 1029.9C787.612 1029.9 788.31 1030 788.909 1030.2C790.307 1030.5 791.704 1031 793.002 1031.7C794.898 1032.7 796.495 1034 797.892 1035.6C799.389 1037.4 800.488 1039.5 801.086 1041.8C801.286 1042.5 801.386 1043.1 801.486 1043.8C801.585 1044.2 801.585 1044.7 801.585 1045.1C801.585 1045.6 801.585 1046.2 801.585 1046.7C801.585 1046.9 801.585 1047.2 801.585 1047.4C801.486 1048 801.486 1048.6 801.286 1049.2C800.987 1050.6 800.487 1052 799.888 1053.2C799.09 1054.8 797.992 1056.2 796.695 1057.4C796.196 1057.9 795.697 1058.3 795.198 1058.7L795.098 1058.8V1058.7C794.299 1056.3 793.501 1053.8 792.702 1051.4C792.303 1050.3 792.004 1049.2 791.604 1048C791.604 1048 791.604 1047.9 791.604 1047.8L791.704 1047.7C794.299 1045.8 796.894 1043.9 799.489 1042C799.889 1041.7 800.388 1041.4 800.787 1041C800.787 1041 800.887 1041 800.887 1040.9C800.787 1040.9 800.787 1040.9 800.687 1040.9C796.994 1040.9 793.301 1040.9 789.608 1040.9H789.508H789.408C788.31 1037.4 787.113 1033.9 786.015 1030.3V1030.2C785.815 1030.8 785.616 1031.4 785.416 1032C785.216 1032.6 785.017 1033.2 784.817 1033.8C784.618 1034.4 784.418 1035 784.218 1035.6C784.019 1036.2 783.819 1036.8 783.62 1037.4C783.42 1038 783.22 1038.6 783.021 1039.2C782.821 1039.8 782.621 1040.4 782.422 1041C782.322 1041 782.322 1041 782.222 1041C778.429 1041 774.736 1041 771.043 1041H770.943C770.943 1040.9 770.943 1040.9 770.943 1040.9C771.742 1038.5 773.139 1036.3 774.936 1034.5C776.633 1032.8 778.629 1031.6 780.825 1030.9C782.222 1030.4 783.719 1030.1 785.217 1030.1C785.017 1029.9 785.117 1029.9 785.217 1029.9Z" fill="#FFED00"/>
<path d="M769.846 1046.1C769.846 1045.9 769.846 1045.7 769.846 1045.5C769.846 1045.4 769.945 1045.3 769.945 1045.1C769.945 1044.9 769.945 1044.9 769.945 1044.7C769.945 1044.1 770.045 1043.6 770.145 1043C770.245 1042.3 770.444 1041.6 770.644 1041C770.644 1041 770.644 1040.9 770.744 1040.9C770.844 1040.9 770.843 1041 770.943 1041C773.937 1043.2 776.932 1045.4 779.926 1047.6L780.026 1047.7C780.026 1047.8 780.026 1047.8 780.026 1047.9C779.926 1048.3 779.826 1048.6 779.627 1049C778.629 1052.1 777.631 1055.2 776.633 1058.3C776.633 1058.4 776.533 1058.6 776.433 1058.7L776.333 1058.6C774.836 1057.5 773.538 1056.2 772.54 1054.6C770.943 1052.1 770.045 1049.4 769.945 1046.5C769.845 1046.4 769.846 1046.3 769.846 1046.1Z" fill="#FFED00"/>
<path d="M795.101 1058.7C795.101 1058.8 795.001 1058.8 795.001 1058.8C794.102 1059.4 793.104 1060 792.106 1060.4C791.008 1060.9 789.81 1061.2 788.613 1061.5C788.014 1061.6 787.315 1061.7 786.716 1061.7C786.616 1061.7 786.616 1061.7 786.516 1061.7C786.017 1061.7 785.418 1061.7 784.919 1061.7H784.82C784.321 1061.7 783.821 1061.6 783.422 1061.5C782.524 1061.4 781.626 1061.2 780.827 1060.9C779.33 1060.4 777.933 1059.7 776.635 1058.8L776.535 1058.7C776.635 1058.7 776.635 1058.6 776.735 1058.6C779.729 1056.4 782.724 1054.2 785.718 1052C785.718 1052 785.818 1051.9 785.918 1051.9L786.017 1052C786.516 1052.4 787.015 1052.7 787.415 1053.1C789.91 1054.9 792.405 1056.8 795.001 1058.6C795.001 1058.6 795.101 1058.6 795.101 1058.7Z" fill="#FFED00"/>
<path d="M694.694 882.429C694.794 882.129 694.894 881.929 694.994 881.629C696.191 878.229 697.389 874.929 698.686 871.53C698.686 871.43 698.786 871.33 698.786 871.23C698.786 871.23 698.786 871.13 698.886 871.13C698.986 871.13 698.986 871.13 699.086 871.13C699.385 871.13 699.784 871.23 700.084 871.23C700.383 871.23 700.683 871.33 700.982 871.33C701.082 871.33 701.182 871.33 701.381 871.33C701.481 871.33 701.581 871.33 701.681 871.33C702.18 871.33 702.679 871.33 703.078 871.33C703.178 871.33 703.278 871.33 703.378 871.33C703.477 871.33 703.477 871.33 703.577 871.33C703.777 871.33 703.976 871.33 704.176 871.33C706.072 871.13 707.869 870.73 709.665 870.13C713.857 868.53 717.151 865.93 719.746 862.23C719.846 862.13 719.846 862.03 719.946 861.93V861.83C719.846 861.73 719.746 861.73 719.646 861.63C717.95 860.53 716.353 859.43 714.656 858.331C714.157 858.031 713.658 857.731 713.159 857.431L713.059 857.331C713.059 857.331 713.059 857.331 712.959 857.331L712.86 857.431C712.56 857.831 712.261 858.231 711.961 858.531C710.464 860.23 708.668 861.53 706.472 862.23C705.773 862.43 705.074 862.63 704.376 862.73C703.976 862.83 703.577 862.83 703.178 862.83C702.779 862.83 702.38 862.83 701.98 862.83C701.581 862.83 701.182 862.83 700.683 862.73C700.283 862.73 699.784 862.63 699.385 862.53C698.088 862.23 696.89 861.73 695.792 861.13C694.295 860.23 692.997 859.13 691.9 857.631C690.901 856.331 690.203 854.931 689.803 853.331C689.704 852.831 689.604 852.231 689.504 851.731C689.404 850.931 689.404 850.231 689.404 849.431C689.404 848.931 689.504 848.531 689.504 848.031C689.704 846.931 690.003 845.932 690.402 845.032C691.301 842.832 692.798 841.132 694.694 839.732C695.892 838.832 697.289 838.132 698.786 837.732C699.285 837.632 699.884 837.532 700.383 837.432C701.182 837.332 701.88 837.332 702.679 837.332C703.178 837.332 703.677 837.432 704.176 837.532C704.875 837.632 705.473 837.832 706.172 838.032C708.468 838.832 710.364 840.132 711.861 841.932C711.961 842.032 712.061 842.132 712.061 842.232H712.161C712.26 842.232 712.261 842.132 712.36 842.032C713.957 840.732 715.554 839.532 717.151 838.232C717.55 837.932 717.95 837.532 718.449 837.232C718.549 837.232 718.548 837.132 718.648 837.132V837.032C718.548 836.932 718.549 836.932 718.449 836.832C716.553 834.432 714.157 832.533 711.462 831.233C711.362 831.233 711.362 831.133 711.262 831.133V831.033C711.262 830.933 711.362 830.833 711.362 830.733C712.76 826.933 714.157 823.033 715.554 819.234C715.554 819.134 715.554 819.134 715.654 819.034C715.654 818.934 715.754 818.934 715.854 818.934C715.954 818.934 715.953 819.034 716.053 819.034C722.341 821.933 727.531 826.733 731.025 832.832C732.522 835.432 733.62 838.232 734.419 841.132C734.618 842.032 734.817 843.032 735.017 843.932C735.117 844.432 735.217 844.932 735.217 845.532C735.317 846.131 735.317 846.831 735.417 847.431C735.516 848.631 735.516 849.731 735.417 850.931C735.417 851.531 735.317 852.131 735.317 852.831C735.217 853.331 735.217 853.931 735.117 854.431C735.017 854.931 734.917 855.531 734.818 856.031C734.518 857.331 734.219 858.531 733.82 859.83C732.522 863.73 730.625 867.23 728.13 870.43C725.036 874.229 721.343 877.229 716.952 879.429C714.856 880.529 712.56 881.329 710.264 881.929C709.466 882.129 708.667 882.329 707.769 882.429C707.17 882.529 706.671 882.629 706.072 882.629C705.673 882.629 705.174 882.729 704.775 882.729C704.376 882.729 704.076 882.829 703.677 882.829C703.078 882.829 702.479 882.929 701.88 882.929C701.182 882.929 700.583 882.929 699.884 882.829C699.385 882.829 698.786 882.729 698.287 882.729C697.688 882.629 697.09 882.629 696.491 882.529C695.892 882.429 695.293 882.329 694.794 882.229C694.794 882.529 694.794 882.529 694.694 882.429Z" fill="#FFED00"/>
<path d="M710.862 817.429C710.862 817.529 710.762 817.629 710.762 817.629C709.764 820.229 708.866 822.829 707.868 825.429C707.369 826.728 706.87 828.028 706.471 829.328C706.471 829.428 706.371 829.528 706.371 829.628C706.371 829.628 706.271 829.728 706.271 829.628C706.071 829.628 705.772 829.528 705.572 829.528C705.173 829.428 704.774 829.428 704.375 829.328C703.776 829.228 703.277 829.228 702.678 829.228C702.179 829.228 701.68 829.228 701.081 829.228C700.981 829.228 700.781 829.228 700.682 829.228C700.282 829.228 699.983 829.328 699.584 829.328C699.184 829.328 698.785 829.428 698.386 829.528C697.488 829.728 696.589 829.928 695.791 830.128C692.497 831.128 689.703 832.928 687.307 835.328C685.311 837.228 683.814 839.527 682.716 842.027C682.217 843.327 681.818 844.627 681.518 845.927C681.419 846.527 681.319 847.027 681.219 847.627C681.119 848.227 681.119 848.727 681.119 849.327C681.119 849.427 681.119 849.427 681.119 849.527C681.019 849.727 681.119 850.027 681.119 850.227C681.119 850.427 681.119 850.627 681.119 850.827C681.119 851.027 681.119 851.327 681.219 851.627C681.219 852.326 681.319 852.926 681.419 853.626C681.618 855.026 682.017 856.326 682.517 857.626C683.515 860.426 685.111 862.826 687.207 864.926C688.605 866.325 690.202 867.625 691.998 868.625C692.497 868.925 692.997 869.125 693.496 869.425C693.595 869.425 693.595 869.525 693.695 869.525V869.625C693.695 869.725 693.695 869.725 693.595 869.825C693.196 870.825 692.897 871.825 692.497 872.725C691.599 875.325 690.601 877.925 689.703 880.524C689.703 880.624 689.603 880.624 689.603 880.724C689.603 880.724 689.503 880.824 689.503 880.724C689.403 880.724 689.403 880.624 689.303 880.624C686.309 879.424 683.415 877.725 680.919 875.625C677.227 872.625 674.332 869.025 672.236 864.926C671.038 862.626 670.14 860.226 669.541 857.626C669.342 856.726 669.142 855.926 669.042 855.026C668.942 854.426 668.842 853.826 668.842 853.126C668.743 852.326 668.742 851.527 668.643 850.827C668.643 850.227 668.643 849.627 668.643 849.027C668.643 848.427 668.643 847.827 668.742 847.227C668.742 846.727 668.842 846.227 668.842 845.627C668.942 844.927 669.042 844.227 669.142 843.527C669.341 842.227 669.641 841.027 670.04 839.827C671.238 835.828 673.134 832.128 675.829 828.828C678.624 825.329 682.017 822.429 685.91 820.229C688.405 818.829 691 817.829 693.695 817.129C694.593 816.929 695.492 816.729 696.49 816.529C697.089 816.429 697.687 816.329 698.286 816.229C698.785 816.129 699.284 816.129 699.783 816.129C700.582 816.029 701.38 816.029 702.279 816.029C702.578 816.029 702.777 816.029 703.077 816.029C703.576 816.029 704.175 816.029 704.674 816.129C705.273 816.129 705.772 816.229 706.371 816.329C707.868 816.529 709.365 816.829 710.862 817.229C710.763 817.329 710.763 817.329 710.862 817.429Z" fill="#FFED00"/>
<path d="M369.016 886.521V833.125L360.232 840.224V829.425L369.615 821.926H378.997V886.621H369.016V886.521Z" />
<path d="M373.006 1064L368.415 1052L364.423 1040.7H363.924V1078.1H353.943V1013.4H363.724L370.711 1031.8L375.801 1045.8H376.3L381.49 1031.4L388.476 1013.4H398.157V1078.1H388.177V1040.8H387.778L383.685 1052.3L379.194 1063.9H373.006V1064Z" />
<path d="M407.445 1078.1V1013.4H417.425V1078.1H407.445Z" />
<path d="M437.182 1040.5V1078.1H427.201V1013.4H436.184L443.97 1032.6C444.568 1034.2 445.167 1035.8 445.866 1037.3C446.465 1038.8 447.163 1040.4 447.862 1042L451.156 1050.9C451.255 1050.9 451.355 1050.9 451.355 1050.9C451.355 1050.9 451.455 1050.9 451.555 1050.9V1013.4H461.336V1078.1H452.553L444.768 1059C443.57 1055.8 442.272 1052.7 441.075 1049.7C439.877 1046.7 438.68 1043.6 437.482 1040.5H437.182Z" />
<path d="M370.812 1113.3C373.507 1113.3 375.803 1113.7 377.699 1114.4C379.595 1115.1 381.193 1116.2 382.49 1117.5C383.788 1118.8 384.686 1120.4 385.285 1122.2C385.883 1124 386.183 1126 386.183 1128.2L376.402 1130.7C376.402 1128.3 376.003 1126.4 375.104 1124.9C374.206 1123.4 372.809 1122.7 370.812 1122.7C369.615 1122.7 368.716 1122.9 367.918 1123.4C367.219 1123.9 366.62 1124.5 366.221 1125.3C365.822 1126.1 365.523 1126.9 365.423 1127.8C365.223 1128.7 365.223 1129.6 365.223 1130.4V1163.3C365.223 1163.9 365.323 1164.6 365.423 1165.4C365.523 1166.09 365.822 1166.79 366.221 1167.49C366.62 1168.19 367.219 1168.69 367.918 1169.09C368.617 1169.49 369.515 1169.79 370.613 1169.79C374.306 1169.79 376.202 1167.09 376.202 1161.8C377.899 1162.1 379.496 1162.4 381.192 1162.6C382.889 1162.8 384.486 1163.1 386.183 1163.3C386.083 1168.19 384.686 1172.09 382.19 1174.89C379.595 1177.69 375.803 1179.19 370.812 1179.19C365.523 1179.19 361.53 1177.89 359.035 1175.19C356.54 1172.49 355.242 1168.59 355.242 1163.4V1131.2C355.242 1128.8 355.542 1126.5 356.041 1124.4C356.54 1122.3 357.438 1120.4 358.636 1118.8C359.834 1117.2 361.53 1115.9 363.527 1115C365.423 1113.7 367.918 1113.3 370.812 1113.3Z" />
<path d="M393.072 1178.49V1167.29H403.453V1178.49H393.072Z" />
<path d="M436.378 1144.7C439.173 1145.6 441.169 1147.4 442.267 1150C443.364 1152.6 443.864 1155.6 443.864 1158.9C443.864 1165.69 442.466 1170.59 439.572 1173.79C436.677 1176.99 432.286 1178.49 426.397 1178.49H413.023V1113.8H427.096C432.785 1113.8 436.877 1115.3 439.472 1118.3C442.067 1121.3 443.365 1125.7 443.365 1131.4C443.365 1134.4 442.866 1137 441.867 1139.2C440.869 1141.4 439.073 1143.1 436.577 1144.2V1144.7H436.378ZM433.683 1131.6C433.683 1128.6 433.084 1126.5 431.887 1125.2C430.689 1123.9 428.793 1123.2 425.998 1123.2H422.804V1139.9H426.098C428.693 1139.9 430.589 1139.2 431.787 1137.8C433.084 1136.4 433.683 1134.3 433.683 1131.6ZM434.182 1158.1C434.182 1155.1 433.584 1152.8 432.486 1151.3C431.388 1149.8 429.391 1149.1 426.597 1149.1H422.804V1169.19H426.797C428.393 1169.19 429.691 1168.89 430.689 1168.29C431.687 1167.69 432.386 1166.89 432.885 1165.89C433.384 1164.89 433.783 1163.69 433.883 1162.39C434.182 1161 434.182 1159.5 434.182 1158.1Z" />
<path d="M452.455 1178.49V1167.29H462.835V1178.49H452.455Z" />
<path d="M633.604 885.92C628.714 885.92 625.12 884.52 622.925 881.72C620.629 878.92 619.531 875.021 619.531 870.121L629.212 868.521V869.821C629.212 872.221 629.612 873.921 630.31 875.021C631.009 876.021 632.207 876.521 633.804 876.521C634.902 876.521 635.9 876.121 636.698 875.421C637.497 874.721 637.996 873.221 638.096 871.121V855.822C638.096 853.122 636.798 851.823 634.103 851.823C633.105 851.823 632.207 852.123 631.309 852.622C630.41 853.122 629.711 854.022 629.212 855.222H620.829V820.625H647.777V829.824H629.911V845.423C630.011 845.423 630.011 845.423 630.011 845.423C630.011 845.423 630.111 845.423 630.211 845.423C631.009 844.523 632.007 843.923 633.305 843.523C634.602 843.123 635.8 842.923 636.998 842.923C640.99 842.923 643.785 844.023 645.482 846.223C647.178 848.423 648.077 851.223 648.077 854.522V868.021C648.077 874.121 646.879 878.62 644.483 881.52C642.188 884.42 638.495 885.92 633.604 885.92Z" />
<path d="M629.211 1180.1V1126.6L620.428 1133.7V1122.9L629.81 1115.4H639.192V1180.1H629.211Z" />
<path d="M669.337 1180.6C664.446 1180.6 660.853 1179.2 658.657 1176.4C656.361 1173.6 655.264 1169.7 655.264 1164.8L664.945 1163.2V1164.5C664.945 1166.9 665.344 1168.6 666.043 1169.7C666.742 1170.7 667.939 1171.2 669.536 1171.2C670.634 1171.2 671.632 1170.8 672.431 1170.1C673.229 1169.4 673.728 1167.9 673.828 1165.8V1150.5C673.828 1147.8 672.53 1146.5 669.836 1146.5C668.837 1146.5 667.939 1146.8 667.041 1147.3C666.143 1147.8 665.444 1148.7 664.945 1149.9H656.561V1115.3H683.509V1124.5H665.743V1140.1C665.843 1140.1 665.843 1140.1 665.843 1140.1C665.843 1140.1 665.943 1140.1 666.043 1140.1C666.842 1139.2 667.839 1138.6 669.137 1138.2C670.434 1137.8 671.632 1137.6 672.83 1137.6C676.822 1137.6 679.617 1138.7 681.313 1140.9C683.01 1143.1 683.908 1145.9 683.908 1149.2V1162.6C683.908 1168.7 682.711 1173.2 680.315 1176.1C677.92 1179.2 674.227 1180.6 669.337 1180.6Z" />
<path d="M712.351 1145.9C712.351 1148.6 711.452 1150.7 709.556 1152.2C707.66 1153.7 705.464 1154.4 702.769 1154.4C700.074 1154.4 697.879 1153.7 695.982 1152.2C694.086 1150.7 693.188 1148.7 693.188 1145.9V1123.5C693.188 1120.8 694.086 1118.7 695.982 1117.2C697.879 1115.7 700.074 1115 702.669 1115C705.364 1115 707.66 1115.7 709.456 1117.2C711.253 1118.7 712.151 1120.8 712.151 1123.5V1145.9H712.351ZM705.065 1123.8C705.065 1123.2 704.865 1122.7 704.466 1122.3C704.067 1121.8 703.468 1121.6 702.769 1121.6C702.07 1121.6 701.471 1121.8 701.072 1122.3C700.673 1122.8 700.474 1123.3 700.474 1123.8V1145.5C700.474 1146.1 700.673 1146.6 701.072 1147C701.471 1147.5 702.071 1147.7 702.869 1147.7C703.568 1147.7 704.067 1147.5 704.466 1147C704.865 1146.5 705.065 1146 705.065 1145.5V1123.8ZM708.358 1181.69H702.27L731.414 1113.7H737.502L708.358 1181.69ZM746.585 1171.89C746.585 1174.59 745.687 1176.69 743.79 1178.19C741.894 1179.69 739.698 1180.39 737.003 1180.39C734.308 1180.39 732.113 1179.69 730.216 1178.19C728.32 1176.69 727.422 1174.69 727.422 1171.89V1149.5C727.422 1146.8 728.32 1144.7 730.216 1143.2C732.113 1141.7 734.309 1141 736.904 1141C739.598 1141 741.894 1141.7 743.69 1143.2C745.487 1144.7 746.385 1146.8 746.385 1149.5V1171.89H746.585ZM739.299 1149.9C739.299 1149.3 739.099 1148.8 738.7 1148.4C738.301 1147.9 737.702 1147.7 737.003 1147.7C736.304 1147.7 735.706 1147.9 735.307 1148.4C734.907 1148.9 734.708 1149.4 734.708 1149.9V1171.59C734.708 1172.19 734.907 1172.69 735.307 1173.09C735.706 1173.59 736.304 1173.79 737.103 1173.79C737.802 1173.79 738.301 1173.59 738.7 1173.09C739.099 1172.59 739.299 1172.09 739.299 1171.59V1149.9Z" />
<path d="M375.203 926.616V944.415H391.573V954.114H375.203V982.412H365.123V917.217H394.068V926.716H375.203V926.616Z" />
<path d="M392.869 982.309V971.01H403.348V982.309H392.869Z" />
<path d="M436.582 948.213C439.477 949.113 441.374 950.913 442.472 953.512C443.569 956.112 444.068 959.112 444.068 962.512C444.068 969.311 442.571 974.311 439.677 977.511C436.782 980.71 432.291 982.31 426.302 982.31H412.828V917.115H427.001C432.69 917.115 436.882 918.615 439.477 921.615C442.072 924.615 443.37 929.014 443.37 934.814C443.37 937.814 442.871 940.413 441.873 942.713C440.875 944.913 439.078 946.613 436.483 947.813V948.213H436.582ZM433.888 935.014C433.888 932.014 433.289 929.814 432.091 928.514C430.893 927.214 428.897 926.515 426.202 926.515H423.009V943.413H426.302C428.897 943.413 430.794 942.713 432.091 941.213C433.289 939.814 433.888 937.714 433.888 935.014ZM434.387 961.712C434.387 958.612 433.788 956.412 432.69 954.912C431.592 953.412 429.596 952.713 426.801 952.713H423.009V972.911H427.001C428.598 972.911 429.896 972.611 430.894 972.011C431.892 971.411 432.59 970.611 433.089 969.611C433.588 968.611 433.987 967.411 434.087 966.011C434.387 964.612 434.387 963.212 434.387 961.712Z" />
<path d="M452.855 982.309V971.01H463.335V982.309H452.855Z" />
<defs>
<linearGradient id="paint0_linear" x1="827.706" y1="1364.9" x2="116.284" y2="133.978" gradientUnits="userSpaceOnUse">
<stop stop-color="#004DB4"/>
<stop offset="0.0298862" stop-color="#125AB9"/>
<stop offset="0.141" stop-color="#4F88CA"/>
<stop offset="0.2427" stop-color="#80ACD8"/>
<stop offset="0.3316" stop-color="#A3C6E2"/>
<stop offset="0.4043" stop-color="#B8D6E8"/>
<stop offset="0.4517" stop-color="#C0DCEA"/>
<stop offset="0.5654" stop-color="#8EBAD2"/>
<stop offset="0.7154" stop-color="#5191B4"/>
<stop offset="0.8432" stop-color="#25739F"/>
<stop offset="0.942" stop-color="#0A6192"/>
<stop offset="1" stop-color="#005A8D"/>
</linearGradient>
</defs>
</svg>
