<svg width="76" height="118" viewBox="0 0 76 118"  xmlns="http://www.w3.org/2000/svg">
<path d="M57.2195 50.8181H68.3193L72.1194 44.2181C79.9194 30.8182 75.4194 13.6181 62.0195 5.8181L59.3193 4.3181C45.9194 -3.48183 28.7195 1.01817 20.9194 14.4181L13.5195 27.0182L21.8193 31.8181L29.2195 19.2181C31.7195 14.9182 35.7195 11.9182 40.5195 10.6181C45.3196 9.4182 50.2195 10.0182 54.5195 12.5182L57.2195 14.0182C61.5195 16.5182 64.5193 20.5182 65.8193 25.3181C67.0193 30.1181 66.4194 35.0182 63.9194 39.3181L57.2195 50.8181Z" />
<path d="M0.21875 80.0191C0.21875 77.0191 0.518799 62.9192 1.21875 60.1191H73.6187C74.2188 62.9192 74.6187 77.0191 74.6187 80.0191C74.6187 100.519 57.9187 117.219 37.4187 117.219C16.9187 117.219 0.21875 100.619 0.21875 80.0191Z" />
</svg>
