<svg width="75" height="109" viewBox="0 0 75 109"  xmlns="http://www.w3.org/2000/svg">
<path d="M57.4189 43.6179H67.019V29.0181C67.019 13.5181 54.4189 0.917969 38.9189 0.917969H35.8188C20.3188 0.917969 7.71875 13.5181 7.71875 29.0181V43.6179H17.3188V29.0181C17.3188 18.8181 25.6187 10.5181 35.8188 10.5181H38.9189C49.1191 10.5181 57.4189 18.8181 57.4189 29.0181V43.6179Z" />
<path d="M0.21875 71.3181C0.21875 68.3181 0.518555 54.218 1.21875 51.418H73.6191C74.2192 54.218 74.6191 68.3181 74.6191 71.3181C74.6191 91.8181 57.9189 108.518 37.4189 108.518C16.9189 108.518 0.21875 91.9182 0.21875 71.3181Z" />
</svg>
