<svg width="934" height="1496" viewBox="0 0 934 1496"  xmlns="http://www.w3.org/2000/svg">
<path d="M283.35 656.502V717.257H273.848V665.295H264.646V688.678C264.646 693.574 264.446 697.671 264.145 700.969C263.845 704.266 263.145 707.064 262.245 709.362C261.345 711.661 260.045 713.459 258.444 714.958C256.844 716.357 254.843 717.656 252.343 718.755L248.742 711.761C250.243 710.861 251.543 709.962 252.443 708.863C253.443 707.864 254.143 706.565 254.743 705.066C255.344 703.567 255.744 701.668 255.944 699.57C256.144 697.371 256.244 694.673 256.244 691.376V656.502H283.35Z" />
<path d="M337.364 701.668C337.364 706.964 336.263 710.961 333.963 713.659C331.662 716.357 328.061 717.756 323.26 717.756C318.459 717.756 314.859 716.457 312.658 713.859C310.458 711.261 309.257 707.563 309.257 702.667V690.676H304.056V717.156H294.654V656.402H304.056V681.783H309.257V672.09C309.257 669.692 309.558 667.493 310.058 665.595C310.558 663.596 311.358 661.898 312.458 660.499C313.558 659.1 314.959 658 316.759 657.201C318.559 656.402 320.66 656.002 323.16 656.002C325.861 656.002 328.062 656.402 329.862 657.101C331.662 657.801 333.163 658.9 334.263 660.299C335.363 661.698 336.163 663.396 336.663 665.395C337.163 667.393 337.364 669.592 337.364 672.09V701.668ZM328.262 671.39C328.262 670.591 328.162 669.792 328.062 668.992C327.961 668.193 327.661 667.493 327.261 666.894C326.861 666.294 326.361 665.795 325.661 665.395C325.061 664.995 324.161 664.795 323.26 664.795C322.26 664.795 321.36 664.995 320.76 665.495C320.16 665.994 319.56 666.594 319.26 667.293C318.86 667.993 318.659 668.792 318.559 669.692C318.459 670.591 318.359 671.39 318.359 672.19V702.667C318.359 704.266 318.76 705.665 319.46 706.864C320.16 708.163 321.46 708.762 323.36 708.762C325.261 708.762 326.561 708.063 327.261 706.764C328.061 705.465 328.362 703.866 328.362 701.968V671.39H328.262Z" />
<path d="M357.464 679.984H361.465C364.565 679.984 367.166 680.384 369.266 681.283C371.367 682.083 372.967 683.282 374.267 684.881C375.468 686.48 376.368 688.378 376.968 690.676C377.468 692.975 377.768 695.473 377.768 698.371C377.768 704.666 376.468 709.462 373.867 712.56C371.267 715.758 367.166 717.257 361.765 717.257H348.262V656.502H374.868V665.295H357.664V679.984H357.464ZM357.464 708.363H361.065C361.565 708.363 361.965 708.263 362.265 708.063C364.765 707.864 366.466 706.864 367.366 705.066C368.166 703.267 368.666 701.069 368.666 698.371C368.666 695.073 368.066 692.675 366.966 691.076C365.866 689.577 363.865 688.778 360.964 688.778H357.564V708.363H357.464Z" />
<path d="M407.781 679.185L395.079 717.257H385.977V656.502H395.179V694.973H395.479L408.181 656.502H417.383V717.257H408.081V679.185H407.781Z" />
<path d="M443.183 665.295V717.257H433.781V665.295H423.979V656.502H452.985V665.295H443.183Z" />
<path d="M460.09 717.257V656.502H487.096V665.295H469.492V681.883H484.795V690.876H469.492V708.463H487.096V717.257H460.09Z" />
<path d="M525.9 656.502V717.257H516.498V665.295H507.296V688.678C507.296 693.574 507.096 697.671 506.796 700.969C506.496 704.266 505.796 707.064 504.895 709.362C503.995 711.661 502.695 713.459 501.095 714.958C499.494 716.357 497.494 717.656 494.993 718.755L491.393 711.761C492.893 710.861 494.193 709.962 495.093 708.863C496.094 707.864 496.794 706.565 497.394 705.066C497.994 703.567 498.394 701.668 498.594 699.57C498.794 697.371 498.894 694.673 498.894 691.376V656.502H525.9Z" />
<path d="M537.104 717.257V656.502H546.506V679.984H550.506C553.607 679.984 556.208 680.384 558.308 681.283C560.409 682.083 562.009 683.282 563.309 684.881C564.509 686.48 565.41 688.378 566.01 690.676C566.51 692.975 566.81 695.473 566.81 698.371C566.81 704.666 565.51 709.462 562.909 712.56C560.309 715.758 556.208 717.257 550.806 717.257H537.104ZM546.606 708.363H550.206C553.107 708.363 555.107 707.464 556.108 705.565C557.208 703.667 557.708 701.269 557.708 698.371C557.708 695.073 557.108 692.575 556.008 691.076C554.907 689.477 552.907 688.778 550.006 688.778H546.606V708.363Z" />
<path d="M589.62 656.002C592.12 656.002 594.321 656.302 596.121 657.001C597.921 657.701 599.422 658.7 600.622 659.899C601.822 661.098 602.722 662.597 603.223 664.296C603.823 665.994 604.023 667.893 604.023 669.892L594.821 672.29C594.821 670.091 594.421 668.293 593.52 666.894C592.72 665.495 591.32 664.795 589.52 664.795C588.419 664.795 587.519 664.995 586.819 665.495C586.119 665.994 585.619 666.594 585.219 667.293C584.819 667.993 584.619 668.792 584.418 669.692C584.318 670.491 584.218 671.29 584.218 672.09V702.967C584.218 703.566 584.318 704.166 584.418 704.865C584.519 705.565 584.819 706.264 585.119 706.864C585.519 707.463 586.019 707.963 586.719 708.363C587.419 708.762 588.219 708.962 589.32 708.962C592.82 708.962 594.521 706.464 594.621 701.468C596.221 701.768 597.721 701.968 599.322 702.167C600.922 702.367 602.422 702.567 604.023 702.867C603.923 707.463 602.622 711.061 600.222 713.759C597.821 716.457 594.221 717.756 589.52 717.756C584.518 717.756 580.818 716.457 578.417 713.959C576.017 711.46 574.816 707.763 574.816 702.867V672.59C574.816 670.291 575.016 668.193 575.517 666.194C576.017 664.196 576.817 662.397 578.017 660.898C579.217 659.399 580.718 658.2 582.618 657.301C584.619 656.402 586.919 656.002 589.62 656.002Z" />
<path d="M613.016 717.257V656.502H622.418V682.183H624.318C626.419 682.183 628.119 681.583 629.519 680.384C630.819 679.185 631.92 676.987 632.62 673.889C632.72 673.389 633.02 672.29 633.32 670.591C633.72 668.893 634.12 667.194 634.42 665.295C634.82 663.397 635.12 661.598 635.52 659.999C635.82 658.301 636.121 657.201 636.221 656.702H645.022C644.422 659.799 643.722 662.797 643.122 665.795C642.522 668.793 641.822 671.791 641.222 674.788C640.621 677.786 639.621 680.184 638.321 681.983C637.021 683.782 635.52 685.081 633.82 685.78V685.98C636.021 686.779 637.721 688.078 639.021 689.877C640.221 691.676 641.222 694.074 641.822 697.072C642.622 700.469 643.322 703.867 643.922 707.264C644.622 710.562 645.322 713.959 646.023 717.356H636.621C636.021 714.359 635.42 711.461 634.92 708.463C634.32 705.465 633.72 702.568 633.12 699.57C632.52 696.272 631.52 694.074 630.219 692.775C628.919 691.476 627.219 690.876 625.118 690.876H622.618V717.356H613.016V717.257Z" />
<path d="M675.435 717.257L673.035 704.567H661.832C661.432 706.665 661.032 708.763 660.632 710.862C660.232 712.96 659.932 715.059 659.532 717.157H649.93C651.93 706.965 654.031 696.872 656.031 686.78C658.031 676.687 660.132 666.595 662.132 656.402H672.635L684.937 717.157H675.435V717.257ZM667.233 670.492C666.633 674.689 666.033 678.886 665.433 682.983C664.833 687.18 664.133 691.376 663.333 695.673H671.634L667.734 670.492H667.233Z" />
<path d="M690.332 717.257L693.733 697.971C694.133 695.972 694.733 694.074 695.633 692.375C696.533 690.676 697.734 689.377 699.334 688.478C696.533 687.279 694.633 685.58 693.533 683.182C692.532 680.784 691.932 677.986 691.932 674.688C691.932 668.693 693.333 664.196 696.233 661.098C699.134 658.001 703.035 656.502 708.036 656.502H721.939V717.257H712.537V691.376H710.136C708.536 691.376 707.036 691.975 705.635 693.274C704.235 694.574 703.335 696.872 702.735 700.069L699.834 717.257H690.332ZM708.936 665.295C706.035 665.295 704.135 666.195 702.935 667.893C701.835 669.592 701.234 671.89 701.234 674.688C701.234 677.686 701.935 679.685 703.335 680.884C704.735 681.983 706.536 682.582 708.836 682.582H712.637V665.395H708.936V665.295Z" />
<path d="M783.558 656.502V717.257H774.156V665.295H764.954V688.678C764.954 693.574 764.754 697.671 764.454 700.969C764.154 704.266 763.454 707.064 762.554 709.362C761.653 711.661 760.353 713.459 758.753 714.958C757.153 716.357 755.152 717.656 752.652 718.755L749.051 711.761C750.551 710.861 751.851 709.962 752.752 708.863C753.752 707.864 754.452 706.565 755.052 705.066C755.652 703.567 756.052 701.668 756.252 699.57C756.452 697.371 756.552 694.673 756.552 691.376V656.502H783.558Z" />
<path d="M816.363 679.185L803.661 717.257H794.559V656.502H803.761V694.973H804.061L816.763 656.502H825.965V717.257H816.663V679.185H816.363Z" />
<path d="M846.273 665.295V717.257H836.871V656.502H863.177V665.295H846.273Z" />
<path d="M885.783 717.257L883.383 704.567H872.18C871.78 706.665 871.38 708.763 870.98 710.862C870.58 712.96 870.28 715.059 869.88 717.157H860.277C862.278 706.965 864.378 696.872 866.379 686.78C868.379 676.687 870.48 666.595 872.48 656.402H882.982L895.285 717.157H885.783V717.257ZM877.581 670.492C876.981 674.689 876.381 678.886 875.781 682.983C875.181 687.18 874.481 691.376 873.68 695.673H881.982L878.081 670.492H877.581Z" />
<path d="M529.002 845.45V838.455H559.509V845.55H529.002V845.45ZM529.002 858.94V851.845H559.509V858.94H529.002Z" />
<path d="M529.002 1041.41V1034.32H559.509V1041.41H529.002ZM529.002 1054.8V1047.71H559.509V1054.8H529.002Z" />
<path d="M529.002 1138.04V1130.95H559.509V1138.04H529.002ZM529.002 1151.53V1144.44H559.509V1151.53H529.002Z" />
<path d="M432.696 812.285C433.497 812.285 434.397 812.285 435.197 812.285C435.297 812.285 435.397 812.285 435.497 812.385C435.797 812.385 436.097 812.385 436.397 812.485C437.797 812.585 439.298 812.785 440.698 813.085C443.699 813.684 446.599 814.683 449.4 816.182C453.401 818.281 456.802 820.979 459.702 824.376C462.903 828.173 465.103 832.47 466.404 837.266C466.804 838.665 467.004 840.064 467.204 841.463C467.304 842.363 467.404 843.262 467.404 844.261C467.404 845.36 467.404 846.46 467.404 847.559C467.404 848.058 467.404 848.558 467.304 849.058C467.204 850.257 467.004 851.556 466.704 852.755C466.104 855.753 465.103 858.551 463.703 861.249C462.003 864.546 459.702 867.544 457.002 870.142C456.001 871.141 455.001 871.941 453.801 872.84C453.701 872.94 453.601 873.04 453.501 873.04C453.501 872.94 453.401 872.84 453.401 872.74C451.7 867.544 450 862.448 448.4 857.252C447.6 854.853 446.899 852.555 446.099 850.157C446.099 850.057 445.999 849.957 445.999 849.857C446.099 849.757 446.199 849.757 446.199 849.657C451.7 845.66 457.102 841.763 462.603 837.766C463.503 837.067 464.503 836.467 465.403 835.768C465.503 835.768 465.503 835.668 465.503 835.568C465.403 835.568 465.303 835.568 465.103 835.568C457.302 835.568 449.5 835.568 441.798 835.568C441.698 835.568 441.598 835.568 441.498 835.568C441.398 835.568 441.398 835.568 441.298 835.568C441.298 835.568 441.298 835.568 441.298 835.468C441.298 835.468 441.298 835.468 441.298 835.368C438.898 827.973 436.497 820.579 434.097 813.185C434.097 813.085 433.997 812.985 433.997 812.885V812.785C433.997 812.785 433.997 812.785 433.997 812.685C433.597 813.984 433.196 815.283 432.696 816.582C432.296 817.881 431.896 819.18 431.496 820.379C431.096 821.678 430.696 822.977 430.196 824.276C429.796 825.575 429.396 826.874 428.896 828.173C428.495 829.472 428.095 830.771 427.695 831.97C427.295 833.269 426.895 834.569 426.395 835.868C426.195 835.868 426.095 835.868 425.995 835.868C418.093 835.868 410.192 835.868 402.29 835.868C402.19 835.868 402.09 835.868 402.09 835.868C402.09 835.768 402.09 835.668 402.19 835.568C403.89 830.472 406.791 825.975 410.592 822.178C414.192 818.68 418.293 816.182 423.094 814.484C426.095 813.484 429.196 812.885 432.296 812.685C432.396 812.285 432.596 812.385 432.696 812.285Z" fill="#FFED00"/>
<path d="M400.279 846.459C400.279 845.96 400.279 845.56 400.279 845.06C400.379 844.86 400.379 844.561 400.379 844.261C400.379 843.961 400.379 843.761 400.379 843.461C400.479 842.262 400.579 841.063 400.779 839.864C401.079 838.365 401.38 836.966 401.88 835.567C401.88 835.467 401.98 835.368 401.98 835.268C402.08 835.368 402.18 835.467 402.38 835.567C408.681 840.164 415.083 844.761 421.384 849.357C421.484 849.457 421.584 849.457 421.684 849.557C421.684 849.657 421.584 849.757 421.584 849.857C421.284 850.656 421.084 851.456 420.784 852.155C418.683 858.65 416.583 865.145 414.382 871.74C414.282 872.04 414.182 872.34 414.082 872.64C413.982 872.54 413.882 872.54 413.782 872.44C410.682 870.142 407.981 867.344 405.881 864.046C402.48 858.85 400.579 853.254 400.379 847.059C400.479 847.059 400.379 846.759 400.279 846.459Z" fill="#FFED00"/>
<path d="M453.692 872.84C453.592 872.94 453.492 873.04 453.392 873.14C451.491 874.538 449.491 875.638 447.291 876.537C444.99 877.536 442.49 878.336 439.989 878.735C438.589 878.935 437.288 879.135 435.888 879.235C435.788 879.235 435.688 879.235 435.588 879.235C434.488 879.235 433.288 879.235 432.187 879.235C432.087 879.235 431.987 879.235 431.887 879.135C430.887 879.035 429.887 878.935 428.887 878.835C426.986 878.536 425.186 878.136 423.386 877.536C420.185 876.437 417.284 874.938 414.484 873.04C414.384 872.94 414.284 872.84 414.184 872.84C414.284 872.74 414.384 872.74 414.584 872.64C420.885 868.043 427.286 863.447 433.588 858.85C433.688 858.75 433.788 858.65 433.888 858.65C433.988 858.75 434.088 858.75 434.188 858.85C435.188 859.55 436.188 860.349 437.188 861.049C442.49 864.946 447.791 868.743 453.092 872.64C453.392 872.74 453.492 872.74 453.692 872.84Z" fill="#FFED00"/>
<path d="M633.322 1177.31C628.421 1177.31 624.82 1175.91 622.619 1173.11C620.319 1170.32 619.219 1166.42 619.219 1161.52L628.921 1159.92V1161.22C628.921 1163.62 629.321 1165.32 630.021 1166.42C630.721 1167.42 631.921 1167.92 633.522 1167.92C634.622 1167.92 635.622 1167.52 636.422 1166.82C637.223 1166.12 637.723 1164.62 637.823 1162.52V1147.23C637.823 1144.53 636.522 1143.24 633.822 1143.24C632.822 1143.24 631.921 1143.54 631.021 1144.03C630.121 1144.53 629.421 1145.43 628.921 1146.63H620.519V1112.06H647.425V1121.25H629.621V1136.84C629.721 1136.84 629.721 1136.84 629.721 1136.84C629.721 1136.84 629.821 1136.84 629.921 1136.84C630.721 1135.94 631.721 1135.34 633.022 1134.94C634.322 1134.54 635.522 1134.34 636.722 1134.34C640.723 1134.34 643.524 1135.44 645.224 1137.64C646.925 1139.84 647.825 1142.64 647.825 1145.93V1159.32C647.825 1165.42 646.625 1169.92 644.224 1172.81C641.924 1175.81 638.223 1177.31 633.322 1177.31Z" />
<path d="M674.032 1142.54C674.032 1145.23 673.132 1147.33 671.232 1148.83C669.331 1150.33 667.131 1151.03 664.43 1151.03C661.73 1151.03 659.529 1150.33 657.629 1148.83C655.728 1147.33 654.828 1145.33 654.828 1142.54V1120.15C654.828 1117.45 655.728 1115.36 657.629 1113.86C659.529 1112.36 661.73 1111.66 664.33 1111.66C667.031 1111.66 669.331 1112.36 671.132 1113.86C672.932 1115.36 673.832 1117.45 673.832 1120.15V1142.54H674.032ZM666.731 1120.55C666.731 1119.95 666.531 1119.45 666.131 1119.05C665.73 1118.55 665.13 1118.35 664.43 1118.35C663.73 1118.35 663.13 1118.55 662.73 1119.05C662.33 1119.55 662.13 1120.05 662.13 1120.55V1142.14C662.13 1142.73 662.33 1143.23 662.73 1143.63C663.13 1144.13 663.73 1144.33 664.53 1144.33C665.23 1144.33 665.73 1144.13 666.131 1143.63C666.531 1143.13 666.731 1142.64 666.731 1142.14V1120.55ZM670.031 1178.31H663.93L693.136 1110.46H699.238L670.031 1178.31ZM708.34 1168.52C708.34 1171.21 707.44 1173.31 705.539 1174.81C703.639 1176.31 701.438 1177.01 698.738 1177.01C696.037 1177.01 693.837 1176.31 691.936 1174.81C690.036 1173.31 689.136 1171.31 689.136 1168.52V1146.13C689.136 1143.43 690.036 1141.34 691.936 1139.84C693.837 1138.34 696.037 1137.64 698.638 1137.64C701.338 1137.64 703.639 1138.34 705.439 1139.84C707.239 1141.34 708.14 1143.43 708.14 1146.13V1168.52H708.34ZM701.038 1146.53C701.038 1145.93 700.838 1145.43 700.438 1145.03C700.038 1144.53 699.438 1144.33 698.738 1144.33C698.037 1144.33 697.437 1144.53 697.037 1145.03C696.637 1145.53 696.437 1146.03 696.437 1146.53V1168.12C696.437 1168.72 696.637 1169.22 697.037 1169.61C697.437 1170.11 698.038 1170.31 698.838 1170.31C699.538 1170.31 700.038 1170.11 700.438 1169.61C700.838 1169.12 701.038 1168.62 701.038 1168.12V1146.53Z" />
<path d="M698.446 875.236C698.546 874.936 698.646 874.736 698.746 874.436C699.946 871.039 701.146 867.741 702.447 864.344C702.447 864.244 702.547 864.144 702.547 864.044C702.547 864.044 702.547 863.944 702.647 863.944C702.747 863.944 702.747 863.944 702.847 863.944C703.147 863.944 703.547 864.044 703.847 864.044C704.147 864.044 704.447 864.144 704.747 864.144C704.847 864.144 704.947 864.144 705.147 864.144C705.247 864.144 705.347 864.144 705.447 864.144C705.947 864.144 706.447 864.144 706.847 864.144C706.948 864.144 707.048 864.144 707.148 864.144C707.248 864.144 707.248 864.144 707.348 864.144C707.548 864.144 707.748 864.144 707.948 864.144C709.848 863.944 711.649 863.545 713.449 862.945C717.65 861.346 720.95 858.748 723.551 855.051C723.651 854.951 723.651 854.851 723.751 854.751V854.651C723.651 854.551 723.551 854.551 723.451 854.451C721.751 853.352 720.15 852.253 718.45 851.154C717.95 850.854 717.45 850.554 716.95 850.255L716.85 850.155C716.85 850.155 716.85 850.155 716.75 850.155L716.65 850.255C716.35 850.654 716.049 851.054 715.749 851.354C714.249 853.052 712.449 854.351 710.248 855.051C709.548 855.251 708.848 855.451 708.148 855.551C707.748 855.65 707.348 855.651 706.947 855.651C706.547 855.651 706.147 855.651 705.747 855.651C705.347 855.651 704.947 855.65 704.447 855.551C704.047 855.551 703.547 855.451 703.147 855.351C701.846 855.051 700.646 854.551 699.546 853.952C698.046 853.052 696.745 851.953 695.645 850.454C694.645 849.155 693.945 847.756 693.545 846.158C693.445 845.658 693.345 845.058 693.245 844.559C693.145 843.759 693.145 843.06 693.145 842.26C693.145 841.761 693.245 841.361 693.245 840.862C693.445 839.762 693.745 838.763 694.145 837.864C695.045 835.665 696.545 833.967 698.446 832.568C699.646 831.668 701.046 830.969 702.547 830.569C703.047 830.469 703.647 830.369 704.147 830.269C704.947 830.169 705.647 830.17 706.447 830.17C706.947 830.17 707.448 830.269 707.948 830.369C708.648 830.469 709.248 830.669 709.948 830.869C712.249 831.668 714.149 832.967 715.649 834.766C715.749 834.866 715.849 834.966 715.849 835.066H715.949C716.049 835.066 716.049 834.966 716.149 834.866C717.75 833.567 719.35 832.368 720.951 831.069C721.351 830.769 721.751 830.369 722.251 830.07C722.351 830.07 722.351 829.97 722.451 829.97V829.87C722.351 829.77 722.351 829.77 722.251 829.67C720.35 827.272 717.95 825.373 715.249 824.074C715.149 824.074 715.149 823.974 715.049 823.974V823.874C715.049 823.774 715.149 823.674 715.149 823.574C716.55 819.777 717.95 815.88 719.35 812.083C719.35 811.983 719.35 811.983 719.45 811.883C719.45 811.783 719.55 811.783 719.65 811.783C719.75 811.783 719.75 811.883 719.85 811.883C726.152 814.781 731.353 819.577 734.854 825.673C736.354 828.271 737.454 831.069 738.254 833.967C738.454 834.866 738.654 835.865 738.854 836.765C738.954 837.264 739.054 837.764 739.054 838.363C739.154 838.963 739.154 839.662 739.254 840.262C739.354 841.461 739.354 842.56 739.254 843.759C739.254 844.359 739.154 844.958 739.154 845.658C739.054 846.158 739.054 846.757 738.954 847.257C738.854 847.756 738.754 848.356 738.654 848.856C738.354 850.155 738.054 851.354 737.654 852.653C736.354 856.55 734.453 860.047 731.953 863.245C728.852 867.042 725.151 870.04 720.75 872.238C718.65 873.337 716.35 874.137 714.049 874.736C713.249 874.936 712.449 875.136 711.548 875.236C710.948 875.336 710.448 875.436 709.848 875.436C709.448 875.436 708.948 875.536 708.548 875.536C708.148 875.536 707.848 875.636 707.448 875.636C706.847 875.636 706.247 875.735 705.647 875.735C704.947 875.735 704.347 875.736 703.647 875.636C703.147 875.636 702.547 875.536 702.046 875.536C701.446 875.436 700.846 875.436 700.246 875.336C699.646 875.236 699.046 875.136 698.546 875.036C698.546 875.336 698.546 875.236 698.446 875.236Z" fill="#FFED00"/>
<path d="M714.645 810.28C714.645 810.38 714.545 810.48 714.545 810.48C713.545 813.078 712.644 815.676 711.644 818.274C711.144 819.573 710.644 820.872 710.244 822.171C710.244 822.271 710.144 822.371 710.144 822.471C710.144 822.471 710.044 822.571 710.044 822.471C709.844 822.471 709.544 822.371 709.344 822.371C708.944 822.271 708.544 822.271 708.143 822.171C707.543 822.071 707.043 822.071 706.443 822.071C705.943 822.071 705.443 822.071 704.843 822.071C704.743 822.071 704.543 822.071 704.443 822.071C704.043 822.071 703.743 822.171 703.342 822.171C702.942 822.171 702.542 822.271 702.142 822.371C701.242 822.571 700.342 822.77 699.542 822.97C696.241 823.97 693.44 825.768 691.04 828.166C689.039 830.065 687.539 832.363 686.439 834.861C685.939 836.161 685.539 837.46 685.239 838.759C685.139 839.358 685.039 839.858 684.939 840.457C684.839 841.057 684.839 841.556 684.839 842.156C684.839 842.256 684.839 842.256 684.839 842.356C684.739 842.556 684.839 842.855 684.839 843.055C684.839 843.255 684.839 843.455 684.839 843.655C684.839 843.855 684.839 844.155 684.939 844.454C684.939 845.154 685.039 845.753 685.139 846.453C685.339 847.852 685.739 849.151 686.239 850.45C687.239 853.248 688.839 855.646 690.94 857.744C692.34 859.143 693.94 860.442 695.741 861.442C696.241 861.741 696.741 861.941 697.241 862.241C697.341 862.241 697.341 862.341 697.441 862.341V862.441C697.441 862.541 697.441 862.541 697.341 862.641C696.941 863.64 696.641 864.639 696.241 865.539C695.341 868.137 694.341 870.735 693.44 873.333C693.44 873.433 693.34 873.433 693.34 873.533C693.34 873.533 693.24 873.633 693.24 873.533C693.14 873.533 693.14 873.433 693.04 873.433C690.04 872.234 687.139 870.535 684.639 868.436C680.938 865.439 678.037 861.841 675.937 857.744C674.736 855.446 673.836 853.048 673.236 850.45C673.036 849.551 672.836 848.751 672.736 847.852C672.636 847.252 672.536 846.653 672.536 845.953C672.436 845.154 672.436 844.354 672.336 843.655C672.336 843.055 672.336 842.456 672.336 841.856C672.336 841.257 672.336 840.657 672.436 840.058C672.436 839.558 672.536 839.058 672.536 838.459C672.636 837.759 672.736 837.06 672.836 836.36C673.036 835.061 673.336 833.862 673.736 832.663C674.936 828.666 676.837 824.969 679.537 821.671C682.338 818.174 685.739 815.276 689.64 813.078C692.14 811.679 694.741 810.679 697.441 809.98C698.341 809.78 699.242 809.58 700.242 809.38C700.842 809.281 701.442 809.181 702.042 809.081C702.542 808.981 703.042 808.981 703.542 808.981C704.343 808.881 705.143 808.881 706.043 808.881C706.343 808.881 706.543 808.881 706.843 808.881C707.343 808.881 707.943 808.881 708.444 808.981C709.044 808.981 709.544 809.081 710.144 809.181C711.644 809.38 713.145 809.68 714.645 810.08C714.545 810.18 714.545 810.18 714.645 810.28C714.645 810.18 714.645 810.28 714.645 810.28Z" fill="#FFED00"/>
<path d="M769.159 981.757C769.259 981.458 769.359 981.258 769.459 980.958C770.659 977.56 771.859 974.263 773.159 970.865C773.159 970.766 773.259 970.666 773.259 970.566C773.259 970.566 773.259 970.466 773.359 970.466C773.459 970.466 773.459 970.466 773.559 970.466C773.86 970.466 774.26 970.566 774.56 970.566C774.86 970.566 775.16 970.666 775.46 970.666C775.56 970.666 775.66 970.666 775.86 970.666C775.96 970.666 776.06 970.666 776.16 970.666C776.66 970.666 777.16 970.666 777.56 970.666C777.66 970.666 777.76 970.666 777.86 970.666C777.96 970.666 777.96 970.666 778.06 970.666C778.26 970.666 778.461 970.666 778.661 970.666C780.561 970.466 782.361 970.066 784.162 969.466C788.363 967.868 791.663 965.27 794.264 961.572C794.364 961.472 794.364 961.373 794.464 961.273V961.173C794.364 961.073 794.264 961.073 794.164 960.973C792.464 959.874 790.863 958.774 789.163 957.675C788.663 957.376 788.163 957.076 787.663 956.776L787.562 956.676C787.562 956.676 787.563 956.676 787.462 956.676L787.362 956.776C787.062 957.176 786.762 957.575 786.462 957.875C784.962 959.574 783.162 960.873 780.961 961.572C780.261 961.772 779.561 961.972 778.861 962.072C778.461 962.172 778.06 962.172 777.66 962.172C777.26 962.172 776.86 962.172 776.46 962.172C776.06 962.172 775.66 962.172 775.16 962.072C774.76 962.072 774.26 961.972 773.86 961.872C772.559 961.572 771.359 961.073 770.259 960.473C768.758 959.574 767.458 958.475 766.358 956.976C765.358 955.677 764.658 954.278 764.257 952.679C764.157 952.179 764.057 951.58 763.957 951.08C763.857 950.281 763.857 949.581 763.857 948.782C763.857 948.282 763.957 947.883 763.957 947.383C764.157 946.284 764.458 945.285 764.858 944.385C765.758 942.187 767.258 940.488 769.159 939.089C770.359 938.19 771.759 937.49 773.259 937.091C773.76 936.991 774.36 936.891 774.86 936.791C775.66 936.691 776.36 936.691 777.16 936.691C777.66 936.691 778.16 936.791 778.661 936.891C779.361 936.991 779.961 937.191 780.661 937.39C782.962 938.19 784.862 939.489 786.362 941.288C786.462 941.387 786.562 941.487 786.562 941.587H786.662C786.762 941.587 786.762 941.487 786.862 941.387C788.463 940.088 790.063 938.889 791.663 937.59C792.063 937.291 792.464 936.891 792.964 936.591C793.064 936.591 793.064 936.491 793.164 936.491V936.391C793.064 936.291 793.064 936.291 792.964 936.191C791.063 933.793 788.663 931.895 785.962 930.596C785.862 930.596 785.862 930.496 785.762 930.496V930.396C785.762 930.296 785.862 930.196 785.862 930.096C787.262 926.299 788.663 922.402 790.063 918.604C790.063 918.505 790.063 918.505 790.163 918.405C790.163 918.305 790.263 918.305 790.363 918.305C790.463 918.305 790.463 918.405 790.563 918.405C796.864 921.302 802.066 926.099 805.566 932.194C807.067 934.792 808.167 937.59 808.967 940.488C809.167 941.387 809.367 942.387 809.567 943.286C809.667 943.786 809.767 944.285 809.767 944.885C809.867 945.484 809.867 946.184 809.967 946.783C810.067 947.983 810.067 949.082 809.967 950.281C809.967 950.88 809.867 951.48 809.867 952.179C809.767 952.679 809.767 953.279 809.667 953.778C809.567 954.278 809.467 954.877 809.367 955.377C809.067 956.676 808.767 957.875 808.367 959.174C807.067 963.071 805.166 966.569 802.666 969.766C799.565 973.563 795.864 976.561 791.463 978.76C789.363 979.859 787.062 980.658 784.762 981.258C783.962 981.458 783.162 981.657 782.261 981.757C781.661 981.857 781.161 981.957 780.561 981.957C780.161 981.957 779.661 982.057 779.261 982.057C778.861 982.057 778.561 982.157 778.16 982.157C777.56 982.157 776.96 982.257 776.36 982.257C775.66 982.257 775.06 982.257 774.36 982.157C773.86 982.157 773.259 982.057 772.759 982.057C772.159 981.957 771.559 981.957 770.959 981.857C770.359 981.757 769.759 981.657 769.259 981.557C769.259 981.857 769.159 981.757 769.159 981.757Z" fill="#FFED00"/>
<path d="M785.36 916.803C785.36 916.903 785.26 917.003 785.26 917.003C784.26 919.601 783.359 922.199 782.359 924.797C781.859 926.096 781.359 927.395 780.959 928.694C780.959 928.794 780.859 928.894 780.859 928.994C780.859 928.994 780.759 929.094 780.759 928.994C780.559 928.994 780.259 928.894 780.059 928.894C779.659 928.794 779.259 928.794 778.858 928.694C778.258 928.594 777.758 928.594 777.158 928.594C776.658 928.594 776.158 928.594 775.558 928.594C775.458 928.594 775.258 928.594 775.158 928.594C774.758 928.594 774.457 928.694 774.057 928.694C773.657 928.694 773.257 928.794 772.857 928.894C771.957 929.094 771.057 929.294 770.257 929.494C766.956 930.493 764.155 932.292 761.755 934.69C759.754 936.588 758.254 938.887 757.154 941.385C756.654 942.684 756.254 943.983 755.954 945.282C755.854 945.882 755.754 946.381 755.654 946.981C755.553 947.58 755.553 948.08 755.553 948.679C755.553 948.779 755.553 948.779 755.553 948.879C755.453 949.079 755.553 949.379 755.553 949.579C755.553 949.779 755.553 949.978 755.553 950.178C755.553 950.378 755.553 950.678 755.654 950.978C755.654 951.677 755.754 952.277 755.854 952.976C756.054 954.375 756.454 955.674 756.954 956.973C757.954 959.771 759.554 962.169 761.655 964.268C763.055 965.667 764.655 966.966 766.456 967.965C766.956 968.265 767.456 968.465 767.956 968.764C768.056 968.764 768.056 968.864 768.156 968.864V968.964C768.156 969.064 768.156 969.064 768.056 969.164C767.656 970.163 767.356 971.163 766.956 972.062C766.056 974.66 765.056 977.258 764.155 979.856C764.155 979.956 764.055 979.956 764.055 980.056C764.055 980.056 763.955 980.156 763.955 980.056C763.855 980.056 763.855 979.956 763.755 979.956C760.755 978.757 757.854 977.058 755.353 974.96C751.653 971.962 748.752 968.365 746.652 964.268C745.451 961.97 744.551 959.571 743.951 956.973C743.751 956.074 743.551 955.275 743.451 954.375C743.351 953.776 743.251 953.176 743.251 952.477C743.151 951.677 743.151 950.878 743.051 950.178C743.051 949.579 743.051 948.979 743.051 948.38C743.051 947.78 743.051 947.181 743.151 946.581C743.151 946.081 743.251 945.582 743.251 944.982C743.351 944.283 743.451 943.583 743.551 942.884C743.751 941.585 744.051 940.386 744.451 939.187C745.651 935.19 747.552 931.492 750.252 928.195C753.053 924.697 756.454 921.8 760.355 919.601C762.855 918.202 765.456 917.203 768.156 916.503C769.056 916.304 769.957 916.104 770.957 915.904C771.557 915.804 772.157 915.704 772.757 915.604C773.257 915.504 773.757 915.504 774.257 915.504C775.058 915.404 775.858 915.404 776.758 915.404C777.058 915.404 777.258 915.404 777.558 915.404C778.058 915.404 778.658 915.404 779.159 915.504C779.759 915.504 780.259 915.604 780.859 915.704C782.359 915.904 783.86 916.204 785.36 916.603C785.26 916.703 785.26 916.703 785.36 916.803C785.36 916.703 785.36 916.803 785.36 916.803Z" fill="#FFED00"/>
<path d="M374.07 879.335V825.975L365.268 833.07V822.278L374.67 814.783H384.072V879.435H374.07V879.335Z" />
<path d="M378.071 1065.19L373.47 1053.2L369.469 1041.9H368.969V1079.28H358.967V1014.62H368.769L375.77 1033.01L380.871 1047H381.372L386.573 1032.61L393.574 1014.62H403.276V1079.28H393.274V1042H392.874L388.773 1053.5L384.272 1065.09H378.071V1065.19Z" />
<path d="M412.574 1079.38V1014.73H422.576V1079.38H412.574Z" />
<path d="M442.383 1041.7V1079.28H432.381V1014.62H441.383L449.184 1033.81C449.785 1035.41 450.385 1037.01 451.085 1038.51C451.685 1040.01 452.385 1041.6 453.085 1043.2L456.386 1052.1C456.486 1052.1 456.586 1052.1 456.586 1052.1C456.586 1052.1 456.686 1052.1 456.786 1052.1V1014.62H466.588V1079.28H457.786L449.985 1060.19C448.784 1056.99 447.484 1053.9 446.284 1050.9C445.084 1047.9 443.883 1044.8 442.683 1041.7H442.383Z" />
<path d="M375.869 1111.56C378.57 1111.56 380.87 1111.96 382.77 1112.66C384.671 1113.36 386.271 1114.45 387.572 1115.75C388.872 1117.05 389.772 1118.65 390.372 1120.45C390.972 1122.25 391.272 1124.25 391.272 1126.45L381.47 1128.94C381.47 1126.55 381.07 1124.65 380.17 1123.15C379.27 1121.65 377.869 1120.95 375.869 1120.95C374.669 1120.95 373.769 1121.15 372.968 1121.65C372.268 1122.15 371.668 1122.75 371.268 1123.55C370.868 1124.35 370.568 1125.15 370.468 1126.05C370.268 1126.95 370.268 1127.84 370.268 1128.64V1161.52C370.268 1162.12 370.368 1162.82 370.468 1163.62C370.568 1164.32 370.868 1165.02 371.268 1165.72C371.668 1166.42 372.268 1166.92 372.968 1167.31C373.669 1167.71 374.569 1168.01 375.669 1168.01C379.37 1168.01 381.27 1165.32 381.27 1160.02C382.971 1160.32 384.571 1160.62 386.271 1160.82C387.972 1161.02 389.572 1161.32 391.272 1161.52C391.172 1166.42 389.772 1170.31 387.271 1173.11C384.671 1175.91 380.87 1177.41 375.869 1177.41C370.568 1177.41 366.567 1176.11 364.066 1173.41C361.566 1170.71 360.266 1166.82 360.266 1161.62V1129.44C360.266 1127.04 360.566 1124.75 361.066 1122.65C361.566 1120.55 362.466 1118.65 363.666 1117.05C364.867 1115.45 366.567 1114.15 368.567 1113.26C370.468 1112.06 372.968 1111.56 375.869 1111.56Z" />
<path d="M398.178 1176.71V1165.52H408.58V1176.71H398.178Z" />
<path d="M441.583 1142.93C444.383 1143.83 446.384 1145.63 447.484 1148.23C448.584 1150.83 449.084 1153.83 449.084 1157.12C449.084 1163.92 447.684 1168.81 444.784 1172.01C441.883 1175.21 437.482 1176.71 431.581 1176.71H418.178V1112.06H432.281C437.982 1112.06 442.083 1113.56 444.684 1116.55C447.284 1119.55 448.584 1123.95 448.584 1129.64C448.584 1132.64 448.084 1135.24 447.084 1137.44C446.084 1139.64 444.283 1141.33 441.783 1142.43V1142.93H441.583ZM438.882 1129.84C438.882 1126.85 438.282 1124.75 437.082 1123.45C435.882 1122.15 433.981 1121.45 431.181 1121.45H427.98V1138.14H431.281C433.881 1138.14 435.782 1137.44 436.982 1136.04C438.282 1134.64 438.882 1132.54 438.882 1129.84ZM439.382 1156.32C439.382 1153.33 438.782 1151.03 437.682 1149.53C436.582 1148.03 434.581 1147.33 431.781 1147.33H427.98V1167.42H431.981C433.581 1167.42 434.881 1167.12 435.882 1166.52C436.882 1165.92 437.582 1165.12 438.082 1164.12C438.582 1163.12 438.982 1161.92 439.082 1160.62C439.382 1159.22 439.382 1157.82 439.382 1156.32Z" />
<path d="M457.689 1176.71V1165.52H468.092V1176.71H457.689Z" />
<path d="M633.826 1077.88C628.925 1077.88 625.324 1076.48 623.123 1073.68C620.823 1070.88 619.723 1066.98 619.723 1062.09L629.425 1060.49V1061.79C629.425 1064.19 629.825 1065.89 630.525 1066.98C631.225 1067.98 632.425 1068.48 634.026 1068.48C635.126 1068.48 636.126 1068.08 636.926 1067.38C637.726 1066.68 638.227 1065.19 638.327 1063.09V1047.8C638.327 1045.1 637.026 1043.8 634.326 1043.8C633.326 1043.8 632.425 1044.1 631.525 1044.6C630.625 1045.1 629.925 1046 629.425 1047.2H621.023V1012.62H647.929V1021.82H630.125V1037.41C630.225 1037.41 630.225 1037.41 630.225 1037.41C630.225 1037.41 630.325 1037.41 630.425 1037.41C631.225 1036.51 632.225 1035.91 633.526 1035.51C634.826 1035.11 636.026 1034.91 637.226 1034.91C641.227 1034.91 644.028 1036.01 645.728 1038.21C647.429 1040.4 648.329 1043.2 648.329 1046.5V1059.89C648.329 1065.99 647.128 1070.48 644.728 1073.38C642.427 1076.38 638.727 1077.88 633.826 1077.88Z" />
<path d="M686.138 1064.2C686.138 1066.39 685.738 1068.29 685.037 1069.99C684.337 1071.69 683.237 1073.09 682.037 1074.29C680.737 1075.49 679.236 1076.39 677.536 1076.89C675.835 1077.49 674.035 1077.79 672.035 1077.79C670.034 1077.79 668.234 1077.49 666.533 1076.89C664.833 1076.29 663.333 1075.39 662.032 1074.29C660.732 1073.09 659.732 1071.69 659.032 1069.99C658.332 1068.29 657.932 1066.39 657.932 1064.2V1025.92C657.932 1023.73 658.332 1021.83 659.032 1020.03C659.732 1018.33 660.832 1016.83 662.032 1015.63C663.333 1014.43 664.833 1013.53 666.533 1012.93C668.234 1012.33 670.134 1012.04 672.035 1012.04C676.236 1012.04 679.536 1013.23 682.237 1015.63C684.837 1018.03 686.138 1021.43 686.138 1025.82V1064.2ZM676.035 1025.53C676.035 1024.33 675.635 1023.33 674.835 1022.63C674.035 1021.93 673.035 1021.53 671.935 1021.53C670.734 1021.53 669.634 1021.93 668.834 1022.63C668.034 1023.33 667.634 1024.33 667.634 1025.53V1064.5C667.634 1065.7 668.034 1066.69 668.834 1067.39C669.634 1068.09 670.634 1068.49 671.935 1068.49C673.135 1068.49 674.135 1068.09 674.835 1067.39C675.635 1066.69 676.035 1065.7 676.035 1064.5V1025.53Z" />
<path d="M633.125 1275.33C628.524 1275.33 625.123 1274.03 623.023 1271.44C620.922 1268.84 619.822 1265.14 619.822 1260.54L628.924 1259.04V1260.24C628.924 1262.54 629.224 1264.14 629.924 1265.04C630.625 1266.04 631.725 1266.44 633.225 1266.44C634.225 1266.44 635.226 1266.14 636.026 1265.44C636.826 1264.74 637.226 1263.44 637.426 1261.44V1247.05C637.426 1244.56 636.126 1243.26 633.625 1243.26C632.725 1243.26 631.825 1243.46 630.925 1243.96C630.124 1244.46 629.424 1245.26 628.924 1246.45H621.022V1213.98H646.328V1222.57H629.524V1237.26C629.624 1237.26 629.624 1237.26 629.624 1237.26C629.624 1237.26 629.724 1237.26 629.824 1237.26C630.625 1236.46 631.525 1235.86 632.725 1235.46C633.925 1235.06 635.026 1234.86 636.126 1234.86C639.827 1234.86 642.527 1235.86 644.128 1237.96C645.728 1240.06 646.528 1242.66 646.528 1245.75V1258.35C646.528 1264.14 645.428 1268.34 643.127 1271.04C641.227 1273.93 637.726 1275.33 633.125 1275.33Z" />
<path d="M681.039 1274.83L671.237 1248.65C670.637 1250.05 669.937 1251.45 669.237 1252.85C668.537 1254.25 667.837 1255.65 667.136 1257.05V1274.73H657.734V1213.98H667.136V1238.46H667.536L678.939 1213.98H688.741C686.741 1218.08 684.64 1222.17 682.64 1226.27C680.639 1230.37 678.539 1234.46 676.538 1238.56L690.541 1274.73H681.039V1274.83Z" />
<path d="M299.056 1213.38C300.156 1213.38 301.056 1213.48 301.857 1213.78C302.657 1214.08 303.257 1214.48 303.757 1214.98C304.257 1215.48 304.657 1216.17 304.857 1216.87C305.057 1217.57 305.257 1218.37 305.257 1219.27L301.356 1220.27C301.356 1219.37 301.156 1218.57 300.856 1217.97C300.456 1217.37 299.956 1217.07 299.156 1217.07C298.656 1217.07 298.256 1217.17 298.056 1217.37C297.756 1217.57 297.556 1217.87 297.356 1218.17C297.156 1218.47 297.056 1218.77 297.056 1219.17C296.956 1219.57 296.956 1219.87 296.956 1220.17V1233.36C296.956 1233.56 296.956 1233.86 297.056 1234.16C297.056 1234.46 297.256 1234.76 297.356 1234.96C297.556 1235.26 297.756 1235.46 298.056 1235.66C298.356 1235.86 298.656 1235.96 299.156 1235.96C300.656 1235.96 301.356 1234.86 301.456 1232.76C302.157 1232.86 302.757 1232.96 303.457 1233.06C304.157 1233.16 304.757 1233.26 305.457 1233.36C305.457 1235.36 304.857 1236.86 303.857 1238.06C302.857 1239.16 301.256 1239.76 299.256 1239.76C297.156 1239.76 295.555 1239.26 294.555 1238.16C293.555 1237.06 293.055 1235.46 293.055 1233.36V1220.37C293.055 1219.37 293.155 1218.47 293.355 1217.67C293.555 1216.77 293.955 1216.07 294.455 1215.38C294.955 1214.78 295.655 1214.18 296.455 1213.88C296.855 1213.58 297.856 1213.38 299.056 1213.38Z" />
<path d="M308.961 1239.56V1235.06H313.164V1239.56H308.961Z" />
<path d="M327.363 1225.97C328.464 1226.37 329.264 1227.07 329.764 1228.07C330.164 1229.07 330.364 1230.27 330.364 1231.67C330.364 1234.37 329.764 1236.36 328.664 1237.66C327.463 1238.96 325.763 1239.56 323.362 1239.56H317.861V1213.58H323.563C325.863 1213.58 327.563 1214.18 328.564 1215.38C329.564 1216.58 330.064 1218.38 330.064 1220.58C330.064 1221.78 329.864 1222.78 329.464 1223.67C329.064 1224.57 328.364 1225.27 327.363 1225.67V1225.97ZM326.263 1220.78C326.263 1219.58 326.063 1218.68 325.563 1218.18C325.063 1217.68 324.263 1217.38 323.162 1217.38H321.862V1224.07H323.162C324.163 1224.07 324.963 1223.77 325.463 1223.17C325.963 1222.68 326.263 1221.88 326.263 1220.78ZM326.463 1231.37C326.463 1230.17 326.263 1229.27 325.763 1228.67C325.363 1228.07 324.563 1227.77 323.362 1227.77H321.862V1235.87H323.463C324.063 1235.87 324.663 1235.77 324.963 1235.47C325.363 1235.27 325.663 1234.87 325.863 1234.47C326.063 1234.07 326.163 1233.57 326.263 1233.07C326.463 1232.57 326.463 1231.97 326.463 1231.37Z" />
<path d="M334.77 1239.56V1235.06H338.973V1239.56H334.77Z" />
<path d="M367.968 1261.54L363.667 1250.25L359.966 1239.56H359.566V1274.73H350.164V1213.98H359.366L365.967 1231.27L370.769 1244.46H371.169L376.07 1230.97L382.571 1214.08H391.673V1274.83H382.271V1239.86H381.971L378.17 1250.65L373.869 1261.54H367.968Z" />
<path d="M424.275 1274.83L421.874 1262.14H410.672C410.272 1264.24 409.872 1266.34 409.471 1268.44C409.071 1270.54 408.771 1272.63 408.371 1274.73H398.869C400.87 1264.54 402.97 1254.45 404.97 1244.36C406.971 1234.26 409.071 1224.17 411.072 1213.98H421.574L433.877 1274.73H424.275V1274.83ZM416.073 1228.17C415.473 1232.36 414.873 1236.56 414.272 1240.66C413.672 1244.86 412.972 1249.05 412.172 1253.35H420.474L416.573 1228.17H416.073Z" />
<path d="M461.888 1274.83L454.986 1253.95H454.886L447.985 1274.83H437.482L449.785 1243.06C447.885 1238.26 445.984 1233.46 444.084 1228.57C442.183 1223.77 440.283 1218.97 438.383 1214.08H448.885C449.885 1217.18 450.885 1220.17 451.886 1223.17C452.886 1226.17 453.886 1229.17 454.886 1232.26L455.186 1232.16L460.987 1213.98H471.69L459.887 1242.96C461.988 1248.35 464.088 1253.65 466.189 1258.84C468.289 1264.14 470.39 1269.44 472.49 1274.63H461.888V1274.83Z" />
<path d="M530.102 1236.36V1229.27H560.608V1236.36H530.102ZM530.102 1249.85V1242.76H560.608V1249.85H530.102Z" />
<path d="M718.151 1226.88C718.551 1226.88 718.951 1226.88 719.351 1226.88H719.451C719.551 1226.88 719.751 1226.88 719.851 1226.88C720.551 1226.88 721.251 1226.97 721.852 1227.17C723.252 1227.47 724.652 1227.97 725.952 1228.67C727.853 1229.67 729.453 1230.97 730.853 1232.57C732.354 1234.37 733.454 1236.47 734.054 1238.77C734.254 1239.47 734.354 1240.07 734.454 1240.76C734.554 1241.16 734.554 1241.66 734.554 1242.06C734.554 1242.56 734.554 1243.16 734.554 1243.66C734.554 1243.86 734.554 1244.16 734.554 1244.36C734.454 1244.96 734.454 1245.56 734.254 1246.16C733.954 1247.56 733.454 1248.96 732.854 1250.16C732.054 1251.76 730.953 1253.16 729.653 1254.35C729.153 1254.85 728.653 1255.25 728.153 1255.65L728.053 1255.75V1255.65C727.253 1253.26 726.453 1250.76 725.652 1248.36C725.252 1247.26 724.952 1246.16 724.552 1244.96C724.552 1244.96 724.552 1244.86 724.552 1244.76L724.652 1244.66C727.253 1242.76 729.853 1240.86 732.454 1238.97C732.854 1238.67 733.354 1238.37 733.754 1237.97C733.754 1237.97 733.854 1237.97 733.854 1237.87C733.754 1237.87 733.754 1237.87 733.654 1237.87C729.953 1237.87 726.252 1237.87 722.552 1237.87H722.452H722.352C721.251 1234.37 720.051 1230.87 718.951 1227.27V1227.17C718.751 1227.77 718.551 1228.37 718.351 1228.97C718.151 1229.57 717.951 1230.17 717.751 1230.77C717.551 1231.37 717.351 1231.97 717.151 1232.57C716.95 1233.17 716.75 1233.77 716.55 1234.37C716.35 1234.97 716.15 1235.57 715.95 1236.17C715.75 1236.77 715.55 1237.37 715.35 1237.97C715.25 1237.97 715.25 1237.97 715.15 1237.97C711.449 1237.97 707.648 1237.97 703.948 1237.97H703.848C703.848 1237.87 703.848 1237.87 703.848 1237.87C704.648 1235.47 706.048 1233.27 707.849 1231.47C709.549 1229.77 711.549 1228.57 713.75 1227.87C715.15 1227.37 716.65 1227.07 718.151 1227.07C717.951 1226.97 718.051 1226.97 718.151 1226.88Z" fill="#FFED00"/>
<path d="M702.746 1243.16C702.746 1242.96 702.746 1242.77 702.746 1242.57C702.746 1242.47 702.846 1242.37 702.846 1242.17C702.846 1242.07 702.846 1241.97 702.846 1241.77C702.846 1241.17 702.946 1240.67 703.046 1240.07C703.146 1239.37 703.346 1238.67 703.546 1238.07C703.546 1238.07 703.546 1237.97 703.646 1237.97C703.746 1237.97 703.746 1238.07 703.846 1238.07C706.847 1240.27 709.848 1242.47 712.848 1244.66L712.948 1244.76C712.948 1244.86 712.948 1244.86 712.948 1244.96C712.848 1245.36 712.748 1245.66 712.548 1246.06C711.548 1249.16 710.548 1252.26 709.547 1255.36C709.547 1255.46 709.447 1255.66 709.347 1255.76L709.247 1255.66C707.747 1254.56 706.447 1253.26 705.447 1251.66C703.846 1249.16 702.946 1246.46 702.846 1243.56C702.746 1243.46 702.746 1243.26 702.746 1243.16Z" fill="#FFED00"/>
<path d="M728.053 1255.75C728.053 1255.85 727.953 1255.85 727.953 1255.85C727.053 1256.45 726.053 1257.05 725.053 1257.45C723.952 1257.95 722.752 1258.25 721.552 1258.55C720.952 1258.65 720.252 1258.75 719.652 1258.75C719.551 1258.75 719.551 1258.75 719.451 1258.75C718.951 1258.75 718.351 1258.75 717.851 1258.75H717.751C717.251 1258.75 716.751 1258.65 716.351 1258.55C715.451 1258.45 714.55 1258.25 713.75 1257.95C712.25 1257.45 710.85 1256.75 709.549 1255.85L709.449 1255.75C709.549 1255.75 709.549 1255.65 709.649 1255.65C712.65 1253.45 715.651 1251.26 718.651 1249.06C718.651 1249.06 718.751 1248.96 718.851 1248.96L718.951 1249.06C719.451 1249.46 719.952 1249.76 720.352 1250.16C722.852 1251.95 725.353 1253.85 727.953 1255.65C727.953 1255.65 728.053 1255.65 728.053 1255.75Z" fill="#FFED00"/>
<path d="M723.151 1028.61C723.551 1028.61 723.951 1028.61 724.351 1028.61H724.451C724.551 1028.61 724.751 1028.61 724.851 1028.61C725.551 1028.61 726.251 1028.71 726.852 1028.91C728.252 1029.21 729.652 1029.71 730.952 1030.41C732.853 1031.41 734.453 1032.71 735.854 1034.31C737.354 1036.11 738.454 1038.2 739.054 1040.5C739.254 1041.2 739.354 1041.8 739.454 1042.5C739.554 1042.9 739.554 1043.4 739.554 1043.8C739.554 1044.3 739.554 1044.9 739.554 1045.4C739.554 1045.6 739.554 1045.9 739.554 1046.1C739.454 1046.7 739.454 1047.3 739.254 1047.9C738.954 1049.3 738.454 1050.69 737.854 1051.89C737.054 1053.49 735.954 1054.89 734.653 1056.09C734.153 1056.59 733.653 1056.99 733.153 1057.39L733.053 1057.49V1057.39C732.253 1054.99 731.453 1052.49 730.652 1050.1C730.252 1049 729.952 1047.9 729.552 1046.7C729.552 1046.7 729.552 1046.6 729.552 1046.5L729.652 1046.4C732.253 1044.5 734.853 1042.6 737.454 1040.7C737.854 1040.4 738.354 1040.1 738.754 1039.7C738.754 1039.7 738.854 1039.7 738.854 1039.6C738.754 1039.6 738.754 1039.6 738.654 1039.6C734.953 1039.6 731.252 1039.6 727.552 1039.6H727.452H727.352C726.251 1036.11 725.051 1032.61 723.951 1029.01V1028.91C723.751 1029.51 723.551 1030.11 723.351 1030.71C723.151 1031.31 722.951 1031.91 722.751 1032.51C722.551 1033.11 722.351 1033.71 722.151 1034.31C721.95 1034.91 721.75 1035.51 721.55 1036.11C721.35 1036.71 721.15 1037.3 720.95 1037.9C720.75 1038.5 720.55 1039.1 720.35 1039.7C720.25 1039.7 720.25 1039.7 720.15 1039.7C716.449 1039.7 712.648 1039.7 708.948 1039.7H708.848C708.848 1039.6 708.848 1039.6 708.848 1039.6C709.648 1037.2 711.048 1035.01 712.849 1033.21C714.549 1031.51 716.549 1030.31 718.75 1029.61C720.15 1029.11 721.65 1028.81 723.151 1028.81C723.051 1028.71 723.151 1028.71 723.151 1028.61Z" fill="#FFED00"/>
<path d="M707.746 1044.9C707.746 1044.7 707.746 1044.5 707.746 1044.3C707.746 1044.2 707.846 1044.1 707.846 1043.9C707.846 1043.8 707.846 1043.7 707.846 1043.5C707.846 1042.9 707.946 1042.4 708.046 1041.81C708.146 1041.11 708.346 1040.41 708.546 1039.81C708.546 1039.81 708.546 1039.71 708.646 1039.71C708.746 1039.71 708.746 1039.81 708.846 1039.81C711.847 1042.01 714.848 1044.2 717.848 1046.4L717.948 1046.5C717.948 1046.6 717.948 1046.6 717.948 1046.7C717.848 1047.1 717.748 1047.4 717.548 1047.8C716.548 1050.9 715.548 1054 714.547 1057.09C714.547 1057.19 714.447 1057.39 714.347 1057.49L714.247 1057.39C712.747 1056.29 711.447 1055 710.447 1053.4C708.846 1050.9 707.946 1048.2 707.846 1045.3C707.846 1045.2 707.846 1045 707.746 1044.9Z" fill="#FFED00"/>
<path d="M733.153 1057.49C733.153 1057.59 733.053 1057.59 733.053 1057.59C732.153 1058.19 731.152 1058.79 730.152 1059.19C729.052 1059.69 727.852 1059.99 726.651 1060.29C726.051 1060.39 725.351 1060.49 724.751 1060.49C724.651 1060.49 724.651 1060.49 724.551 1060.49C724.051 1060.49 723.451 1060.49 722.951 1060.49H722.851C722.351 1060.49 721.85 1060.39 721.45 1060.29C720.55 1060.19 719.65 1059.99 718.85 1059.69C717.349 1059.19 715.949 1058.49 714.649 1057.59L714.549 1057.49C714.649 1057.49 714.649 1057.39 714.749 1057.39C717.75 1055.19 720.75 1052.99 723.751 1050.79C723.751 1050.79 723.851 1050.69 723.951 1050.69L724.051 1050.79C724.551 1051.19 725.051 1051.49 725.451 1051.89C727.952 1053.69 730.452 1055.59 733.053 1057.39C732.953 1057.39 733.053 1057.39 733.153 1057.49Z" fill="#FFED00"/>
<path d="M644.529 844.861C646.73 845.86 648.13 847.259 648.83 849.157C649.53 851.056 649.83 853.154 649.83 855.553L649.73 862.947C649.73 868.043 648.43 871.94 645.73 874.638C643.029 877.336 639.428 878.635 634.927 878.635C629.626 878.635 625.925 877.236 623.625 874.339C621.324 871.441 620.324 867.344 620.624 862.148L630.526 860.949C630.226 864.046 630.526 866.245 631.426 867.444C632.327 868.643 633.527 869.342 635.127 869.342C636.228 869.342 637.328 868.943 638.228 868.143C639.228 867.344 639.628 865.945 639.628 863.846V855.153C639.628 852.955 639.128 851.456 638.128 850.556C637.128 849.657 635.727 849.157 633.927 849.157H631.126V840.564H634.427C636.228 840.564 637.628 840.164 638.528 839.265C639.428 838.365 639.928 836.966 639.928 834.868V827.673C639.928 826.474 639.628 825.275 639.128 824.176C638.528 823.077 637.528 822.477 635.827 822.477C634.327 822.477 633.027 823.077 632.127 824.376C631.226 825.675 630.826 827.773 630.826 830.771L620.924 829.472C621.024 824.476 622.425 820.479 625.225 817.481C627.926 814.483 631.627 812.984 636.328 812.984C638.828 812.984 641.029 813.384 642.729 814.183C644.429 814.983 645.83 816.082 646.93 817.381C648.03 818.68 648.73 820.279 649.23 821.978C649.73 823.676 649.93 825.375 649.93 827.174V832.27C649.93 833.469 649.93 834.768 649.83 835.967C649.73 837.166 649.53 838.266 649.13 839.365C648.83 840.464 648.23 841.363 647.53 842.262C646.83 843.162 645.83 843.961 644.629 844.561V844.861H644.529Z" />
<path d="M538.539 342.955C532.344 337.654 525.55 332.953 518.456 328.852C505.767 321.65 492.378 316.85 477.791 315.349C474.993 315.049 472.196 314.849 469.398 314.749C463.903 314.649 458.407 315.049 453.012 315.749C449.615 316.249 446.318 316.85 443.021 317.65C435.827 319.35 428.933 321.75 422.238 324.651C417.043 326.852 412.047 329.452 407.351 332.553C405.752 333.653 404.154 334.653 402.555 335.653C402.156 335.853 401.756 336.253 401.356 336.353C400.657 336.553 400.057 336.954 399.558 337.454C396.161 340.454 392.764 343.455 389.466 346.455C389.267 346.655 389.067 346.755 388.867 346.956C388.667 347.156 388.467 347.356 388.467 347.556C388.267 348.456 387.668 349.056 387.168 349.756C385.37 351.957 383.571 354.257 381.773 356.457C377.976 361.158 374.679 366.159 371.881 371.46C365.887 382.563 362.09 394.465 360.191 406.868C359.592 410.768 359.292 414.669 359.192 418.57C358.993 426.171 359.492 433.773 360.791 441.275C362.29 449.676 364.688 457.778 368.185 465.679C372.881 476.282 378.975 485.983 386.769 494.585C390.965 499.286 395.461 503.687 400.457 507.588C417.243 520.89 436.226 528.792 457.608 530.893C461.005 531.193 464.402 531.293 468.099 531.393C470.597 531.293 473.395 531.293 476.292 530.992C479.889 530.692 483.486 530.292 486.983 529.592C493.477 528.392 499.772 526.692 505.867 524.391C517.657 519.99 528.347 513.589 537.939 505.387C546.632 497.986 553.826 489.284 559.82 479.582C568.013 466.179 572.809 451.577 574.608 436.073C574.908 433.073 575.107 430.072 575.207 427.072C575.407 419.67 574.908 412.269 573.609 404.967C572.31 397.266 570.112 389.764 567.214 382.563C562.818 371.861 557.023 361.959 549.23 353.257C548.93 352.857 548.53 352.457 548.23 352.057C544.933 348.956 541.836 345.855 538.539 342.955ZM462.504 328.052C462.804 327.252 463.303 326.751 464.102 326.451C464.202 326.451 464.202 326.451 464.302 326.351C467.599 325.451 470.997 324.351 474.394 323.851C476.492 323.551 478.69 323.351 480.888 323.451C483.786 323.651 486.683 323.751 489.481 324.151C493.977 324.851 498.473 325.851 502.769 327.452C511.862 330.752 519.655 335.953 526.549 342.655C527.248 343.255 527.848 343.955 528.447 344.655C528.747 344.955 528.947 345.255 529.147 345.555C529.646 346.355 530.046 347.356 529.946 348.356C529.946 348.956 529.846 349.556 529.846 350.156C529.746 350.956 529.746 351.757 529.646 352.457C529.446 354.757 529.247 357.058 529.047 359.258C528.847 361.458 528.647 363.659 528.347 365.859C528.347 366.259 528.247 366.66 528.148 367.06C528.048 367.46 527.748 367.76 527.348 367.86C526.949 367.96 526.549 368.06 526.149 368.06C523.851 368.16 521.553 368.36 519.255 368.46C517.956 368.56 516.657 368.66 515.359 368.66C513.76 368.76 512.061 368.86 510.463 368.86C507.066 369.06 503.669 369.26 500.271 369.46C498.673 369.56 497.174 369.56 495.576 369.66C494.476 369.66 493.577 369.36 492.778 368.56C492.178 367.86 491.479 367.26 490.78 366.66C481.887 357.958 471.596 351.356 460.106 346.555C459.706 346.355 459.207 346.255 458.807 346.055C458.307 345.855 458.208 345.555 458.307 345.155C458.407 344.755 458.407 344.355 458.507 343.955C459.606 339.254 460.805 334.553 461.904 329.852C462.204 329.252 462.304 328.652 462.504 328.052ZM453.911 321.751C454.111 321.65 454.311 321.55 454.411 321.55C456.309 321.35 458.208 321.25 460.006 321.15C460.006 321.15 460.106 321.15 460.106 321.25C460.006 321.35 460.006 321.45 459.906 321.55C457.908 322.351 455.909 322.551 453.811 322.151V322.051C453.911 321.851 453.911 321.751 453.911 321.751ZM411.847 392.665C412.247 389.064 412.746 385.363 413.446 381.763C414.145 377.962 415.044 374.161 416.044 370.46C416.144 370.06 416.243 369.66 416.343 369.36C416.743 367.96 417.742 366.96 418.941 366.259C419.341 366.059 419.74 365.859 420.14 365.659C429.932 360.758 440.023 356.257 449.915 351.656C451.913 350.756 453.811 350.556 455.81 351.256C456.309 351.456 456.809 351.556 457.308 351.757C460.206 352.857 463.103 354.157 465.901 355.657C473.295 359.558 479.989 364.459 485.984 370.26C486.783 370.96 487.482 371.761 488.282 372.361C489.581 373.361 490.08 374.661 490.08 376.261C490.08 378.062 489.78 379.762 489.581 381.562C489.281 384.563 488.881 387.564 488.482 390.564C488.282 392.365 488.082 394.065 487.882 395.865C487.682 397.466 487.582 398.966 487.383 400.566C487.083 403.667 486.783 406.868 486.483 409.968C486.383 410.668 486.283 411.268 486.184 411.869C486.084 412.669 485.584 413.169 484.985 413.569C484.285 413.969 483.586 414.269 482.886 414.569C479.289 416.069 475.693 417.57 471.996 419.07C463.303 422.771 454.511 426.471 445.818 430.072C444.819 430.472 443.92 430.872 442.921 431.272C442.221 431.573 441.522 431.473 440.822 431.072C440.223 430.772 439.723 430.372 439.124 430.072C431.331 424.671 423.637 419.37 415.944 413.969C415.044 413.369 414.245 412.769 413.346 412.169C413.046 411.969 412.746 411.769 412.447 411.469C411.747 410.868 411.248 410.068 411.148 409.168C411.048 408.668 411.048 408.168 411.048 407.568C411.048 405.967 411.048 404.267 411.048 402.667C411.248 399.366 411.547 395.965 411.847 392.665ZM392.264 353.057C392.364 352.857 392.464 352.657 392.564 352.557C395.861 348.956 399.458 345.755 403.255 342.755C403.354 342.655 403.454 342.655 403.654 342.655C403.754 342.655 403.754 342.855 403.554 343.155C403.554 343.255 403.454 343.255 403.454 343.355C401.856 345.355 400.257 347.356 398.858 349.456C398.359 350.156 397.759 350.756 396.96 351.056C395.761 351.656 394.462 352.257 393.263 352.957C392.963 353.057 392.664 353.257 392.464 353.457L392.364 353.357H392.464C392.364 353.257 392.164 353.157 392.264 353.057ZM397.559 480.482C396.76 484.383 396.361 488.384 395.961 492.385C395.861 493.285 395.761 494.185 395.561 495.085C395.561 495.185 395.461 495.185 395.461 495.185C395.361 495.185 395.162 495.185 395.062 495.185C394.962 495.085 394.862 494.985 394.762 494.985C390.266 490.284 385.969 485.383 382.273 479.882C374.979 469.18 369.983 457.578 367.185 444.975C366.486 441.575 365.787 438.174 365.587 434.673C365.487 433.273 365.487 431.773 365.587 430.372C365.687 429.572 365.787 428.772 365.887 428.072L366.186 427.972C366.486 428.172 366.686 428.372 366.986 428.572C368.684 430.272 370.283 431.973 371.981 433.573C372.881 434.473 373.78 435.273 374.679 436.173C375.778 437.274 377.077 438.174 378.476 438.874C378.676 438.974 378.975 439.074 379.175 439.174C380.774 439.974 381.873 441.174 382.472 442.875C382.872 443.875 383.172 444.875 383.372 445.875C385.17 454.977 388.867 463.179 394.062 470.78C394.962 472.081 395.861 473.381 396.76 474.681C397.46 475.781 397.759 476.982 397.859 478.382C397.759 478.982 397.759 479.782 397.559 480.482ZM390.366 424.571C388.767 426.672 387.268 428.972 385.869 431.272C385.27 432.273 384.671 433.273 383.971 434.273C383.871 434.473 383.671 434.673 383.372 434.973C381.074 433.773 379.175 432.273 377.277 430.772C373.68 427.772 370.782 424.171 368.285 420.17C367.785 419.37 367.485 418.47 367.385 417.57C367.185 415.769 366.986 414.069 366.986 412.269C366.886 408.568 366.986 404.767 367.485 401.066C368.285 394.965 369.783 388.964 372.181 383.263C373.88 379.162 375.878 375.361 378.276 371.661C379.675 369.56 381.273 367.56 383.072 365.759C384.171 364.759 385.27 363.859 386.369 363.059C389.167 361.058 392.164 359.358 395.361 357.858C396.161 357.458 396.86 357.158 397.659 356.758C398.259 356.457 398.958 356.557 399.558 356.858C399.858 357.058 400.257 357.258 400.557 357.558C403.454 359.758 406.352 362.059 409.15 364.359C409.449 364.659 409.749 364.859 410.049 365.159C410.548 365.759 410.848 366.359 410.648 367.16C410.548 367.56 410.448 368.06 410.349 368.46C408.95 373.561 407.851 378.762 407.051 383.963C406.452 387.764 405.952 391.564 405.653 395.465C405.353 399.566 405.253 403.667 405.153 407.868C405.153 408.268 405.153 408.668 405.153 409.068C405.153 410.168 404.653 410.868 403.754 411.469C398.459 415.069 394.162 419.57 390.366 424.571ZM472.895 506.488C472.695 508.788 472.495 511.088 472.196 513.289C471.996 514.889 471.696 516.49 471.396 518.09C471.296 518.49 471.196 518.89 471.096 519.19C470.997 519.69 470.697 519.99 470.297 520.29C468.199 521.791 466.101 523.191 463.703 524.191C462.604 524.691 461.505 524.891 460.306 524.891C459.406 524.891 458.507 524.891 457.608 524.791C448.516 523.991 439.623 522.091 431.131 518.79C422.638 515.489 414.645 511.089 407.351 505.687C406.752 505.287 406.252 504.787 405.653 504.287C403.454 502.487 402.355 500.086 401.956 497.386C401.156 491.885 401.756 486.384 403.155 481.082C403.155 480.982 403.255 480.882 403.255 480.682C403.354 480.482 403.654 480.282 403.854 480.282C404.853 480.382 405.852 480.482 406.752 480.582C408.05 480.682 409.349 480.782 410.648 480.982C414.745 481.182 418.741 480.982 422.838 480.882C425.635 480.782 428.433 480.482 431.231 480.282C431.93 480.282 432.53 480.182 433.229 480.182C434.628 480.082 435.827 480.582 436.926 481.383C437.325 481.683 437.625 481.983 438.025 482.283C447.517 489.984 457.708 496.486 468.699 501.987C469.498 502.387 470.197 502.687 470.997 503.087C471.396 503.287 471.796 503.587 472.196 503.787C472.695 504.187 472.995 504.787 472.995 505.487C472.895 505.887 472.895 506.188 472.895 506.488ZM513.76 483.183C513.46 483.883 513.26 484.683 512.761 485.283C512.261 485.883 511.462 486.083 510.762 486.384C506.067 488.584 501.371 490.784 496.774 492.885C492.578 494.785 488.382 496.486 483.985 497.886C482.986 498.186 481.987 498.486 480.988 498.786C478.59 499.386 476.292 499.286 474.094 498.286C472.595 497.586 471.196 496.886 469.698 496.085C464.602 493.285 459.706 490.184 454.91 486.784C450.514 483.683 446.018 480.482 441.622 477.382C441.322 477.182 441.022 476.882 440.722 476.682C439.923 475.981 439.524 475.181 439.524 474.081C439.524 473.581 439.524 473.181 439.623 472.681C439.923 470.18 440.223 467.58 440.623 465.079C440.922 462.679 441.222 460.278 441.522 457.878C441.822 455.377 442.221 452.777 442.521 450.276C442.821 447.976 443.12 445.575 443.52 443.275C443.72 441.675 444.02 440.074 444.219 438.374C444.319 437.674 444.719 437.174 445.319 436.774C445.818 436.474 446.318 436.273 446.917 435.973C453.611 433.173 460.406 430.272 467.1 427.472C472.895 425.071 478.69 422.671 484.485 420.27C485.085 419.97 485.684 419.77 486.283 419.57C487.582 419.07 488.881 419.17 489.98 419.97C490.38 420.27 490.78 420.47 491.079 420.77C499.872 426.772 508.664 432.773 517.357 438.974C518.356 439.674 519.055 440.574 519.255 441.875C519.355 442.775 519.555 443.675 519.655 444.575C519.855 446.776 520.055 448.976 519.955 451.276C519.955 455.377 519.555 459.378 518.955 463.379C517.956 470.08 516.158 476.682 513.76 483.183ZM530.745 503.787C530.446 503.987 530.246 504.187 530.146 504.487C530.046 504.187 529.846 503.887 530.146 503.587C531.545 501.787 532.943 499.986 534.342 498.186C534.742 497.586 535.341 497.186 535.941 496.786C537.34 495.985 538.739 495.185 540.237 494.485C540.537 494.285 540.837 494.285 541.037 494.485C540.937 494.585 540.837 494.685 540.737 494.685C537.739 497.986 534.342 500.986 530.745 503.787ZM568.113 436.774C567.014 447.576 564.317 457.878 559.421 467.58C556.923 472.581 553.726 477.082 549.629 480.982C546.632 483.883 543.335 486.284 539.738 488.384C538.339 489.184 536.84 489.884 535.441 490.684C535.142 490.884 534.742 490.984 534.342 491.185C533.743 491.385 533.043 491.385 532.444 491.084C531.944 490.884 531.545 490.584 531.045 490.384C527.948 488.584 524.75 486.884 521.653 485.083C519.955 484.083 519.855 484.083 520.254 482.183C521.054 478.382 521.853 474.481 522.652 470.68C523.452 466.88 524.151 462.979 524.85 459.078C525.05 458.078 525.15 457.178 525.35 456.177C525.65 454.477 525.75 452.777 525.85 451.076C525.85 450.376 525.85 449.776 525.85 449.076C525.75 447.076 525.55 445.175 525.45 443.175C525.45 442.775 525.35 442.375 525.35 441.975C525.45 439.874 525.55 440.074 526.849 439.074C530.645 436.374 534.143 433.273 537.24 429.872C540.637 426.171 543.734 422.171 546.732 418.07C547.231 417.47 547.631 416.77 548.13 416.169C548.33 415.869 548.53 415.669 548.93 415.269C552.727 416.87 556.224 418.57 559.321 420.97C561.319 422.571 563.118 424.371 564.616 426.471C565.915 428.272 566.914 430.272 567.614 432.373C568.113 433.873 568.313 435.273 568.113 436.774ZM560.62 383.263C563.517 389.864 565.616 396.766 567.014 403.867C567.914 408.168 568.413 412.469 568.813 416.87C568.913 418.27 568.913 419.77 568.413 421.17C568.413 421.27 568.113 421.27 568.113 421.27C567.914 421.17 567.714 420.97 567.514 420.77C563.118 416.069 557.822 412.669 551.927 410.168C551.528 409.968 551.228 409.868 550.828 409.668C550.429 409.468 550.229 409.168 550.129 408.768C550.029 408.168 549.829 407.468 549.729 406.868C548.33 397.266 544.833 388.464 539.638 380.262C538.139 377.962 536.54 375.661 534.842 373.561C534.742 373.361 534.642 373.261 534.442 373.061C533.543 372.061 533.243 370.86 533.443 369.56C533.443 369.26 533.543 368.86 533.543 368.56C534.542 364.059 535.242 359.458 535.841 354.857C535.941 353.857 536.141 352.957 536.241 351.957C536.341 351.556 536.44 351.056 536.54 350.656C536.74 350.656 536.94 350.656 537.14 350.756C538.139 351.156 538.938 351.757 539.738 352.557C548.53 361.558 555.624 371.761 560.62 383.263ZM929.904 201.926C903.526 201.426 879.846 192.725 857.865 178.722C848.973 173.021 840.48 166.719 831.887 160.618C803.112 140.114 774.936 118.81 746.76 97.6055C725.978 81.9024 704.497 67.1994 681.816 54.2968C668.727 46.8953 655.439 39.9939 641.351 34.5929C625.464 28.3916 608.978 24.8909 591.993 23.6907C587.896 23.3906 583.7 23.1906 579.604 24.0908C574.608 25.191 570.911 27.9915 568.413 32.2924C567.514 33.7927 566.814 35.393 565.915 36.8933C558.522 48.8957 547.831 55.097 533.743 54.997C528.547 54.8969 523.751 53.1966 519.055 50.8961C514.16 48.4957 509.663 45.4951 505.367 42.0944C499.472 37.3934 494.077 32.1924 489.381 26.2912C483.286 18.6897 477.191 11.0881 470.997 3.48662C469.997 2.28638 469.298 0.786078 467.5 0.0859375C466.001 0.986118 465.202 2.68646 464.202 3.98672C459.706 9.98792 455.51 16.1892 450.814 22.0904C442.221 32.9925 432.13 42.1944 420.24 49.3958C416.343 51.6963 412.347 53.4967 407.851 54.1968C394.062 56.1972 382.672 52.0964 373.88 41.1942C371.782 38.5937 369.983 35.6931 368.484 32.6925C365.287 26.1912 360.092 23.2906 353.098 23.2906C335.013 23.2906 317.528 26.3912 300.543 32.4924C287.554 37.0934 275.164 42.9946 263.075 49.4959C241.593 60.9982 221.31 74.3008 201.727 88.7037C175.849 107.708 150.171 127.011 124.294 146.015C111.305 155.617 98.2159 165.119 85.1271 174.421C71.5387 184.123 56.7514 191.724 40.6652 196.425C30.374 199.526 19.883 201.426 9.09221 201.826C6.09478 201.926 3.09735 202.327 0 202.627C0 202.627 1.3988 1239.43 1.49872 1240.23C1.59863 1241.34 1.59863 1242.44 1.59863 1243.64C1.59863 1247.64 1.59863 1251.64 1.59863 1255.64C1.69855 1263.04 2.49786 1270.34 4.19641 1277.54C7.19384 1290.14 13.2886 1301.05 22.3808 1310.25C34.5704 1322.65 48.7582 1331.85 65.4439 1336.95C83.3286 1342.46 100.914 1348.56 118.798 1353.96C138.082 1359.76 157.465 1364.86 176.849 1370.36C228.904 1385.16 280.46 1401.37 330.917 1421.07C357.993 1431.67 384.77 1442.98 410.748 1455.98C429.632 1465.48 447.517 1476.58 463.203 1490.89C464.602 1492.19 465.801 1493.69 467 1495.09H468.898C468.798 1493.99 469.498 1493.39 470.297 1492.79C485.884 1480.58 501.87 1468.88 519.455 1459.48C537.34 1449.98 555.824 1441.58 574.508 1433.67C628.562 1410.87 683.914 1391.97 740.366 1376.06C773.038 1366.86 805.81 1357.56 838.482 1348.16C847.674 1345.56 856.866 1342.66 865.858 1339.55C879.547 1334.85 892.336 1328.45 903.926 1319.75C912.419 1313.35 919.612 1305.65 925.008 1296.45C928.005 1291.35 930.303 1285.84 931.902 1280.14C932.501 1278.04 932.701 1275.74 933.101 1273.54C933.301 1272.44 933.7 1271.44 934 1270.34V202.827C932.701 202.527 931.302 201.926 929.904 201.926ZM862.161 205.527C862.461 203.827 862.961 202.126 863.46 199.826C872.852 204.127 881.745 207.928 891.137 210.828C900.329 213.629 909.721 215.229 919.313 216.929C919.412 218.13 919.612 219.03 919.712 219.93C919.812 221.53 919.712 223.131 919.712 224.731C919.712 340.054 919.712 455.377 919.712 570.7V578.602C918.114 579.802 917.015 578.902 915.916 578.502C896.232 570.6 878.747 559.298 863.46 544.695C838.881 521.291 823.095 493.085 815.202 460.078C813.903 454.677 813.803 449.476 815.002 443.975C822.496 407.168 829.789 370.36 837.083 333.453C844.776 294.745 852.47 256.037 860.063 217.33C860.663 213.429 861.362 209.528 862.161 205.527ZM811.805 165.319C813.004 166.019 814.003 166.419 814.902 167.119C820.397 171.02 825.793 174.921 831.288 178.822C840.48 185.223 849.772 191.424 859.364 198.026C859.963 199.326 859.264 201.026 858.964 202.727C855.367 220.93 851.67 239.134 848.074 257.238C843.478 280.242 838.881 303.347 834.385 326.351C830.089 348.156 825.793 369.96 821.396 391.765C818.699 405.567 815.901 419.37 813.104 433.173C812.904 434.173 813.104 435.473 811.505 436.173C811.405 435.373 811.205 434.673 811.205 433.973C810.905 427.272 810.506 420.57 810.406 413.869C809.607 381.162 804.311 349.256 794.32 318.15C792.221 311.648 789.823 305.147 787.426 298.746C786.326 295.945 786.227 293.245 786.826 290.344C792.821 260.438 798.716 230.432 804.711 200.526C806.709 190.524 808.607 180.422 810.606 170.42C810.805 168.72 811.305 167.219 811.805 165.319ZM762.447 128.812C763.646 129.512 764.445 129.912 765.245 130.512C779.632 141.114 794.02 151.716 808.408 162.619C800.215 204.127 792.022 245.335 782.929 286.643C782.43 285.643 781.83 284.743 781.431 283.743C771.839 262.239 760.349 241.834 746.461 222.731C744.962 220.63 744.562 218.43 745.062 215.929C746.161 210.328 747.26 204.627 748.359 199.026C752.755 177.121 757.052 155.117 761.448 133.213C761.648 131.812 762.047 130.412 762.447 128.812ZM709.692 90.204C715.787 93.4047 747.46 116.409 758.25 125.411C758.95 126.911 758.55 128.512 758.25 130.112C752.855 157.217 747.46 184.323 742.064 211.428C741.865 212.329 741.465 213.229 741.065 214.529C740.066 213.529 739.267 212.929 738.567 212.128C729.275 200.326 719.384 189.024 708.593 178.522C704.896 174.921 701.299 171.32 697.403 168.02C695.105 166.119 694.605 164.019 695.205 161.318C696.304 156.517 697.103 151.616 698.102 146.715C701.599 129.212 705.096 111.608 708.593 94.1048C708.893 92.9046 709.292 91.7043 709.692 90.204ZM230.802 92.3044V87.1034C231.901 86.3032 232.701 85.5031 233.6 84.903C251.984 72.7005 271.068 61.5983 291.151 52.4965C304.439 46.4953 318.327 42.1944 332.715 39.8939C340.209 38.6937 347.602 38.2936 353.997 38.8937C354.696 40.094 355.595 41.3942 356.395 42.6945C358.793 46.6953 361.39 50.4961 364.588 53.8967C372.981 62.8985 383.372 67.9996 395.561 69.4999C406.752 70.9002 417.143 68.4997 426.834 62.9986C438.424 56.2972 448.516 47.7955 457.208 37.5935C459.906 34.3928 462.504 31.1922 465.202 28.0916C466.001 27.0914 466.9 26.1912 467.899 24.9909C468.699 25.6911 469.398 26.2912 469.997 26.9913C472.995 30.5921 475.792 34.1928 478.89 37.6935C487.283 47.4955 496.874 55.8971 508.065 62.2984C512.961 65.099 517.956 67.3994 523.552 68.5997C537.14 71.5003 549.929 69.5999 561.719 62.0984C569.812 56.9974 576.206 49.996 580.503 41.3942C581.502 39.3938 582.701 38.4936 584.899 38.4936C591.194 38.3936 597.288 39.1938 603.483 39.9939C622.367 42.5945 639.852 49.4959 656.837 57.9976C673.123 66.1992 688.71 75.7011 703.897 85.7031C704.397 86.0032 704.896 86.5033 705.596 87.1034C705.596 88.0036 705.696 88.7037 705.596 89.3038C701 112.709 696.304 136.013 691.708 159.418C691.608 160.018 691.308 160.618 691.108 161.118C689.31 161.418 688.41 160.018 687.411 159.218C679.118 152.417 670.626 145.915 661.733 139.914C624.265 114.309 583.3 96.9054 538.838 87.4035C522.453 83.9028 505.767 81.8023 489.081 80.6021C472.795 79.5019 456.509 79.7019 440.223 81.0022C398.958 84.5029 359.492 95.105 322.024 112.909C290.151 128.012 261.376 147.616 235.498 171.72C234.299 172.821 233.1 173.821 232.101 174.821C230.802 174.521 230.902 173.621 230.902 172.921C230.902 171.82 230.902 170.72 230.902 169.52C230.802 143.815 230.802 118.11 230.802 92.3044ZM219.012 1366.26C217.514 1366.96 216.215 1366.16 214.916 1365.76C202.527 1362.16 190.037 1358.56 177.648 1355.06C156.466 1348.96 135.184 1343.16 114.102 1336.85C98.5156 1332.15 83.0289 1326.95 67.5422 1321.85C53.2544 1317.15 41.2647 1308.85 31.1733 1297.75C22.3808 1288.04 17.7848 1276.44 17.0854 1263.34C16.8855 1260.14 16.8855 1256.94 16.8855 1253.74C16.8855 910.169 16.8855 566.6 16.8855 223.031V216.929C19.883 216.429 22.181 215.929 24.5789 215.629C43.4628 212.929 61.0477 206.427 77.6335 197.025C83.7283 193.525 89.7232 189.824 95.4183 185.623C122.595 165.919 149.672 146.015 176.649 126.111C189.038 117.009 201.328 107.808 213.617 98.7057C215.216 97.5055 216.814 96.1052 219.212 95.4051C219.312 96.5053 219.412 97.2054 219.512 97.9056C220.111 124.711 219.712 1361.36 219.012 1366.26ZM230.802 334.053C230.802 315.349 230.802 296.645 230.602 277.842C230.602 273.341 231.702 269.54 234.199 265.739C273.766 207.328 327.819 169.12 395.461 150.016C414.145 144.715 433.229 141.714 452.612 140.614C465.401 139.914 478.19 139.914 490.979 141.014C545.333 145.715 594.591 164.119 638.153 197.025C687.211 234.033 720.283 282.343 738.268 341.154C744.163 360.358 747.859 379.962 749.058 399.966C749.658 410.868 750.157 421.671 750.657 432.573C752.056 463.879 759.45 493.585 773.038 521.791C789.124 555.297 812.104 583.203 841.779 605.507C842.878 606.308 843.977 607.208 845.076 608.108C844.976 608.408 844.876 608.608 844.776 608.908H767.343C763.046 603.507 758.45 598.106 754.254 592.505C728.176 557.598 710.791 518.79 702.698 475.981C700.2 462.779 698.701 449.476 697.802 435.973C697.303 427.972 697.403 419.97 697.003 411.969C695.604 382.063 688.71 353.457 676.121 326.251C658.336 287.944 632.358 256.437 597.388 232.733C571.81 215.429 543.834 203.727 513.46 197.726C496.774 194.425 479.989 192.525 463.003 193.225C404.653 195.525 353.597 216.029 311.133 256.337C274.964 290.644 252.783 332.853 243.591 381.763C240.494 398.166 239.495 414.769 240.194 431.473C241.893 473.881 254.682 512.789 277.662 548.296C291.85 570.3 309.735 588.904 330.517 604.807C331.616 605.707 332.815 606.508 333.914 607.408C334.114 607.608 334.314 607.908 334.613 608.108C334.414 609.208 333.514 609.008 332.715 609.008C326.92 609.008 321.225 609.008 315.43 609.008C298.045 609.008 280.56 609.008 263.175 609.008H257.879C256.88 608.008 255.981 607.108 255.181 606.108C247.388 597.206 240.394 587.604 233.7 577.902C231.402 574.601 230.503 571.101 230.503 567.1C230.602 548.896 230.602 530.592 230.702 512.389C230.802 453.077 230.802 393.565 230.802 334.053ZM688.61 604.407C690.109 605.908 691.308 607.008 691.408 608.808C689.31 609.208 687.411 609.008 685.213 609.008C685.813 606.708 687.211 605.807 688.61 604.407ZM679.418 609.008H601.984C602.684 607.308 604.083 606.708 605.082 605.908C616.772 597.306 627.562 587.604 637.354 576.802C644.448 569 650.942 560.698 656.937 551.997C657.837 550.696 658.736 549.396 660.135 547.496C662.932 552.197 664.231 556.798 666.329 561.099C668.527 565.499 670.426 570.1 672.624 574.501C674.722 578.802 676.92 583.003 679.218 587.204C681.516 591.405 683.914 595.605 686.312 599.906C684.813 603.507 681.816 606.008 679.418 609.008ZM647.046 486.984C643.948 471.581 642.15 456.077 641.451 440.374C641.051 432.273 640.851 424.071 640.551 415.969C639.652 392.365 634.057 369.76 623.966 348.456C602.284 302.447 560.919 268.44 511.462 255.737C491.779 250.636 471.696 248.936 451.513 251.136C411.547 255.437 376.877 271.44 348.102 299.746C321.924 325.551 305.338 356.758 299.444 393.065C290.251 449.576 305.438 499.186 344.405 541.195C366.586 565.199 394.162 580.502 425.535 588.904C440.723 593.005 456.209 595.005 471.996 594.505C549.729 592.205 598.987 545.595 621.668 501.287C628.562 487.784 633.457 473.681 636.755 458.978C637.054 457.478 637.254 455.877 638.553 454.077C641.55 484.783 648.145 513.989 658.736 542.295C658.136 543.395 657.637 544.395 657.137 545.295C641.151 570.1 620.868 590.705 596.689 607.608C594.99 608.808 593.392 609.508 591.393 609.308C590.394 609.208 589.495 609.308 588.496 609.308C508.564 609.308 428.633 609.308 348.701 609.408C344.805 609.408 341.707 608.408 338.51 606.208C292.849 573.601 263.974 529.692 250.086 475.581C245.59 458.178 243.292 440.374 243.691 422.371C244.89 362.059 265.273 309.548 307.337 265.839C338.81 233.033 376.977 212.229 421.239 202.327C440.623 197.926 460.406 196.125 480.289 197.426C535.641 200.926 583.9 221.43 624.165 259.738C659.036 292.945 680.517 333.653 689.809 380.962C692.407 394.365 693.406 407.868 693.806 421.47C694.305 441.475 695.804 461.379 700 481.082C709.193 524.391 727.077 563.599 754.154 598.506C756.452 601.407 758.75 604.207 761.048 607.108C761.448 607.608 761.747 608.108 762.147 608.808C761.348 609.108 760.948 609.308 760.549 609.308C739.267 609.308 718.085 609.308 696.803 609.308C695.804 607.808 694.905 606.508 694.006 605.107C670.925 568.5 655.439 529.192 647.046 486.984ZM636.755 422.571C636.255 515.889 561.719 591.305 467.5 590.604C373.88 589.904 300.343 514.189 300.543 422.271C300.543 330.352 374.479 253.337 469.498 254.037C564.516 254.637 637.254 331.452 636.755 422.571ZM230.802 581.503C231.901 582.303 232.201 582.403 232.301 582.603C238.795 591.105 245.19 599.506 251.684 608.008C251.784 608.108 251.684 608.308 251.684 608.408C251.585 608.508 251.585 608.708 251.485 608.808C251.385 608.908 251.185 608.908 250.985 608.908C244.99 608.908 238.895 609.008 232.901 609.008C232.501 609.008 232.001 608.808 231.302 608.608C230.503 604.307 230.902 599.806 230.802 595.405C230.702 591.105 230.802 586.704 230.802 581.503ZM896.232 1306.65C888.439 1312.85 879.746 1317.55 870.654 1321.55C858.764 1326.65 846.375 1330.45 833.986 1334.05C797.917 1344.26 761.747 1354.36 725.678 1364.76C670.226 1380.76 615.872 1399.77 562.718 1422.47C543.934 1430.47 525.35 1438.97 507.465 1449.08C495.076 1456.08 483.186 1463.88 471.896 1472.68C470.797 1473.58 469.598 1474.38 468.299 1475.28C467.4 1474.68 466.6 1474.28 465.901 1473.68C449.115 1459.88 430.531 1449.08 411.048 1439.67C374.08 1421.77 336.012 1406.47 297.245 1392.87C277.063 1385.76 256.68 1379.36 236.398 1372.56C234.599 1371.96 232.701 1371.66 231.102 1370.46C231.002 1369.56 230.802 1368.86 230.802 1368.06C230.802 1168.32 230.802 968.68 230.802 768.94C230.802 768.44 231.002 768.04 231.202 767.34C232.001 767.14 232.901 766.84 233.8 766.74C235.199 766.64 236.697 766.74 238.096 766.74C463.003 766.74 687.911 766.74 912.818 766.74C914.816 766.74 916.915 766.54 919.612 767.24V772.341C919.612 934.473 919.612 1096.51 919.612 1258.64C919.712 1278.34 911.719 1294.25 896.232 1306.65ZM919.612 754.437C918.513 754.737 917.714 755.138 916.815 755.237C915.416 755.338 913.917 755.338 912.518 755.338C687.611 755.338 462.704 755.338 237.796 755.338C235.698 755.338 233.7 755.338 231.402 755.237C231.202 754.137 230.902 753.237 230.802 752.337C230.702 750.937 230.802 749.436 230.802 748.036C230.802 707.228 230.802 666.42 230.802 625.612C230.802 624.211 230.902 622.811 230.902 621.211C232.001 621.011 232.901 620.811 233.9 620.711C234.899 620.61 235.798 620.711 236.797 620.711C240.194 620.711 243.491 620.711 246.889 620.711C468.699 620.711 690.608 620.711 912.419 620.611C914.617 620.611 916.815 620.31 919.712 621.011C920.012 665.62 919.712 709.928 919.612 754.437ZM919.013 608.808C917.814 608.908 916.615 609.008 915.416 609.108C895.933 609.108 876.449 609.108 856.866 609.208C854.068 609.208 851.97 608.208 849.872 606.708C821.596 586.904 799.116 561.999 782.53 531.693C770.74 510.188 762.247 487.584 757.951 463.379C756.252 453.777 755.353 444.075 754.554 434.373C753.754 424.671 754.254 414.869 753.555 405.167C751.656 377.262 746.161 350.056 736.469 323.751C721.882 284.343 699.901 249.536 670.126 219.83C639.752 189.524 604.182 167.42 563.817 153.017C544.534 146.115 524.651 141.314 504.268 138.814C485.784 136.513 467.3 136.013 448.816 137.313C412.347 139.914 377.676 149.216 344.805 165.019C300.043 186.523 263.374 217.63 234.799 258.238C233.8 259.638 232.801 261.038 231.702 262.439C230.203 261.538 230.702 260.338 230.702 259.338C230.702 247.536 230.702 235.633 230.702 223.831C230.702 211.328 230.702 198.826 230.702 186.423C230.702 180.222 230.403 181.822 234.199 178.122C265.473 148.016 301.142 124.911 341.308 108.508C363.289 99.6059 385.869 92.9046 409.249 88.8037C429.132 85.303 449.115 83.5027 469.298 83.7027C548.33 84.5029 618.97 109.408 680.617 158.718C731.274 199.126 766.743 250.436 788.125 311.648C795.818 333.753 801.114 356.457 804.111 379.662C805.31 388.864 805.71 398.166 806.309 407.368C806.709 414.669 806.809 422.071 807.109 429.472C809.706 493.785 848.773 555.397 914.417 582.003C916.015 582.703 917.614 583.403 919.313 584.103C920.112 594.505 919.912 604.607 919.013 608.808Z" fill="url(#paint0_linear)"/>
<path d="M529.002 944.481V937.387H559.509V944.481H529.002ZM529.002 957.972V950.877H559.509V957.972H529.002Z" />
<path d="M380.272 926V943.787H396.676V953.48H380.272V981.759H370.17V916.607H399.176V926.1H380.272V926Z" />
<path d="M397.977 981.655V970.363H408.479V981.655H397.977Z" />
<path d="M441.791 947.583C444.692 948.482 446.593 950.281 447.693 952.879C448.793 955.477 449.293 958.475 449.293 961.872C449.293 968.667 447.793 973.663 444.892 976.861C441.992 980.058 437.491 981.657 431.489 981.657H417.986V916.506H432.189C437.891 916.506 442.092 918.005 444.692 921.003C447.293 924 448.593 928.397 448.593 934.193C448.593 937.19 448.093 939.789 447.093 942.087C446.092 944.285 444.292 945.984 441.691 947.183V947.583H441.791ZM439.091 934.393C439.091 931.395 438.491 929.196 437.291 927.897C436.09 926.598 434.09 925.899 431.389 925.899H428.189V942.786H431.489C434.09 942.786 435.99 942.087 437.291 940.588C438.491 939.189 439.091 937.091 439.091 934.393ZM439.591 961.073C439.591 957.975 438.991 955.777 437.891 954.278C436.79 952.779 434.79 952.079 431.989 952.079H428.189V972.264H432.189C433.79 972.264 435.09 971.964 436.09 971.365C437.09 970.765 437.791 969.966 438.291 968.967C438.791 967.967 439.191 966.768 439.291 965.369C439.591 963.97 439.591 962.571 439.591 961.073Z" />
<path d="M458.09 981.655V970.363H468.592V981.655H458.09Z" />
<path d="M634.125 982.259C629.224 982.259 625.623 980.86 623.323 978.062C621.022 975.264 619.922 971.367 619.922 966.371L629.624 964.772V966.071C629.624 968.469 630.024 970.268 630.724 971.267C631.424 972.266 632.625 972.766 634.325 972.766C635.425 972.766 636.425 972.366 637.326 971.667C638.126 970.867 638.626 969.468 638.826 967.37V951.881C638.826 949.183 637.526 947.884 634.825 947.884C633.825 947.884 632.825 948.184 631.924 948.684C631.024 949.183 630.324 950.083 629.824 951.382H621.422V916.508H648.628V925.801H630.624V941.489C630.724 941.489 630.724 941.489 630.724 941.489C630.724 941.489 630.824 941.489 630.924 941.489C631.724 940.59 632.825 939.99 634.025 939.591C635.325 939.191 636.525 938.991 637.726 938.991C641.727 938.991 644.627 940.09 646.328 942.289C648.028 944.487 648.928 947.285 648.928 950.682V964.172C648.928 970.368 647.728 974.864 645.327 977.762C642.827 980.76 639.126 982.259 634.125 982.259Z" />
<path d="M686.938 968.467C686.938 970.665 686.538 972.564 685.838 974.362C685.037 976.061 684.037 977.56 682.737 978.759C681.437 979.958 679.936 980.857 678.236 981.457C676.536 982.057 674.635 982.356 672.735 982.356C670.734 982.356 668.834 982.057 667.134 981.457C665.433 980.857 663.933 979.958 662.633 978.759C661.332 977.56 660.332 976.161 659.532 974.362C658.732 972.664 658.432 970.665 658.432 968.467V929.896C658.432 927.697 658.832 925.699 659.532 924C660.332 922.301 661.332 920.802 662.633 919.603C663.933 918.404 665.433 917.505 667.134 916.905C668.834 916.306 670.734 916.006 672.735 916.006C676.936 916.006 680.336 917.205 682.937 919.703C685.537 922.101 686.838 925.599 686.838 929.995V968.467H686.938ZM676.836 929.396C676.836 928.197 676.436 927.198 675.635 926.398C674.835 925.699 673.835 925.299 672.635 925.299C671.334 925.299 670.334 925.699 669.534 926.398C668.734 927.098 668.334 928.097 668.334 929.396V968.767C668.334 969.966 668.734 970.965 669.534 971.764C670.334 972.464 671.334 972.863 672.635 972.863C673.835 972.863 674.835 972.464 675.635 971.764C676.436 971.065 676.836 970.066 676.836 968.767V929.396Z" />
<path d="M724.842 968.467C724.842 970.665 724.442 972.564 723.742 974.362C722.942 976.061 721.942 977.56 720.641 978.759C719.341 979.958 717.841 980.857 716.14 981.457C714.44 982.057 712.539 982.356 710.639 982.356C708.639 982.356 706.738 982.057 705.038 981.457C703.337 980.857 701.837 979.958 700.537 978.759C699.237 977.56 698.236 976.161 697.436 974.362C696.636 972.664 696.336 970.665 696.336 968.467V929.896C696.336 927.697 696.736 925.699 697.436 924C698.236 922.301 699.237 920.802 700.537 919.603C701.837 918.404 703.337 917.505 705.038 916.905C706.738 916.306 708.639 916.006 710.639 916.006C714.84 916.006 718.241 917.205 720.841 919.703C723.442 922.101 724.742 925.599 724.742 929.995V968.467H724.842ZM714.74 929.396C714.74 928.197 714.34 927.198 713.54 926.398C712.74 925.699 711.739 925.299 710.539 925.299C709.239 925.299 708.239 925.699 707.438 926.398C706.638 927.098 706.238 928.097 706.238 929.396V968.767C706.238 969.966 706.638 970.965 707.438 971.764C708.239 972.464 709.239 972.863 710.539 972.863C711.739 972.863 712.74 972.464 713.54 971.764C714.34 971.065 714.74 970.066 714.74 968.767V929.396Z" />
<defs>
<linearGradient id="paint0_linear" x1="827.684" y1="1364.98" x2="116.262" y2="134.064" gradientUnits="userSpaceOnUse">
<stop stop-color="#8BAF36"/>
<stop offset="0.1506" stop-color="#8DB139"/>
<stop offset="0.2605" stop-color="#95B642"/>
<stop offset="0.3574" stop-color="#A1BE52"/>
<stop offset="0.4463" stop-color="#B3CB68"/>
<stop offset="0.4888" stop-color="#BED276"/>
<stop offset="0.5453" stop-color="#ABC067"/>
<stop offset="0.6873" stop-color="#809845"/>
<stop offset="0.8154" stop-color="#627B2D"/>
<stop offset="0.924" stop-color="#4F691E"/>
<stop offset="1" stop-color="#486319"/>
</linearGradient>
</defs>
</svg>
