<svg width="49" height="16" viewBox="0 0 49 16"  xmlns="http://www.w3.org/2000/svg">
<path d="M1.6045 0C1.89865 0 2.13933 0.0259949 2.35326 0.104056C2.56719 0.182117 2.72765 0.286249 2.86136 0.416351C2.99506 0.546452 3.10202 0.728569 3.15551 0.910711C3.20899 1.09285 3.26248 1.30099 3.26248 1.53517L2.21955 1.79538C2.21955 1.56119 2.16607 1.35308 2.08584 1.19696C1.97888 1.04084 1.84516 0.962803 1.63123 0.962803C1.49752 0.962803 1.39056 0.988772 1.33708 1.04081C1.25686 1.09285 1.20337 1.17099 1.14989 1.24905C1.0964 1.32711 1.06966 1.40517 1.06966 1.50925C1.04292 1.61334 1.04293 1.6914 1.04293 1.76946V5.20406C1.04293 5.2561 1.04292 5.33424 1.06966 5.4123C1.06966 5.49036 1.12314 5.56837 1.14989 5.62041C1.20337 5.69848 1.25686 5.75057 1.33708 5.80261C1.41731 5.85465 1.49752 5.88062 1.63123 5.88062C2.03236 5.88062 2.21956 5.59434 2.2463 5.04792C2.43349 5.07394 2.59394 5.10003 2.78113 5.12605C2.96833 5.15207 3.12877 5.17804 3.31597 5.20406C3.31597 5.72447 3.15551 6.11483 2.88809 6.42707C2.62067 6.71329 2.19282 6.86934 1.65798 6.86934C1.09641 6.86934 0.66854 6.73934 0.401124 6.45312C0.133708 6.16689 0 5.75049 0 5.20406V1.82142C0 1.56122 0.0267383 1.32711 0.0802216 1.11895C0.133705 0.884767 0.240681 0.702549 0.374389 0.520406C0.508097 0.364284 0.695288 0.208163 0.909221 0.130102C1.04293 0.0520406 1.31034 0 1.6045 0Z" />
<path d="M4.25195 6.83986V5.66895H5.37549V6.83986H4.25195Z" />
<path d="M9.16995 3.30267C9.46411 3.40675 9.67805 3.58892 9.81176 3.84912C9.91872 4.10932 9.9722 4.42146 9.9722 4.78575C9.9722 5.4883 9.81175 6.0087 9.51759 6.34697C9.19669 6.68523 8.74209 6.84146 8.10029 6.84146H6.65625V0.0761719H8.18051C8.79557 0.0761719 9.25017 0.232243 9.51759 0.544487C9.78501 0.856731 9.91871 1.32515 9.91871 1.89759C9.91871 2.20984 9.86524 2.46994 9.75827 2.70412C9.6513 2.93831 9.46412 3.12045 9.1967 3.22453V3.30267H9.16995ZM8.8758 1.92351C8.8758 1.61127 8.82231 1.37719 8.68861 1.24709C8.5549 1.11698 8.34096 1.03885 8.0468 1.03885H7.69916V2.78226H8.0468C8.31422 2.78226 8.52816 2.70422 8.66187 2.5481C8.82232 2.418 8.8758 2.20974 8.8758 1.92351ZM8.92929 4.68169C8.92929 4.36945 8.8758 4.13534 8.74209 3.97922C8.63513 3.8231 8.42119 3.74494 8.10029 3.74494H7.69916V5.85261H8.12704C8.28749 5.85261 8.44793 5.82661 8.5549 5.74855C8.66186 5.69651 8.7421 5.59243 8.79558 5.48835C8.84906 5.38427 8.87579 5.25419 8.90254 5.12409C8.92928 4.99399 8.92929 4.83781 8.92929 4.68169Z" />
<path d="M11.1523 6.83986V5.66895H12.2759V6.83986H11.1523Z" />
<path d="M20.0335 12.539L18.8836 9.59865L17.8941 6.81455H17.7872V15.9736H15.2734V0.15332H17.7337L19.4986 4.65479L20.7822 8.08952H20.8892L22.1995 4.57678L23.9377 0.179366H26.3712V15.9997H23.8575V6.89256H23.7773L22.7611 9.70283L21.6112 12.539H20.0335Z" />
<path d="M35.0886 15.9997L34.4468 12.6952H31.4518C31.3448 13.2416 31.2379 13.788 31.1309 14.3344C31.0239 14.8808 30.9437 15.4272 30.8367 15.9736H28.2695C28.8044 13.3196 29.3659 10.6915 29.9008 8.06347C30.4356 5.43542 30.9972 2.80739 31.532 0.15332H34.3666L37.6558 15.9736H35.0886V15.9997ZM32.8958 3.84826C32.7354 4.94111 32.5749 6.03396 32.4145 7.1008C32.254 8.19365 32.0668 9.28643 31.8529 10.4053H34.0725L33.0295 3.84826H32.8958Z" />
<path d="M45.1669 15.9997L43.3218 10.5615H43.2683L41.4231 15.9997H38.6152L41.9044 7.72526C41.3964 6.47628 40.8883 5.22731 40.3802 3.95231C39.8721 2.70334 39.364 1.45436 38.8559 0.179366H41.6905C41.9579 0.985996 42.2254 1.76663 42.4928 2.54724C42.7602 3.32785 43.0276 4.10836 43.295 4.91499L43.3752 4.88907L44.9262 0.15332H47.7876L44.6321 7.69921C45.1937 9.10431 45.7552 10.4834 46.3168 11.8364C46.8784 13.2155 47.44 14.5947 48.0015 15.9477H45.1669V15.9997Z" />
</svg>
