<svg width="28" height="16" viewBox="0 0 28 16"  xmlns="http://www.w3.org/2000/svg">
<path d="M4.86603 12.5138L3.69411 9.54635L2.67505 6.75191H2.54767V16.0005H0V0.000976562H2.49671L4.28008 4.55107L5.57938 8.01311H5.70676L7.03155 4.45218L8.81492 0.000976562H11.2862V16.0005H8.73849V6.77667H8.63658L7.59204 9.62049L6.44559 12.4891H4.86603V12.5138Z" />
<path d="M13.6797 15.9995V0H16.2274V15.9995H13.6797Z" />
<path d="M21.2469 6.70155V15.9995H18.6992V0H20.9921L22.9793 4.74787C23.1322 5.14354 23.285 5.53925 23.4634 5.91018C23.6162 6.28111 23.7946 6.67682 23.9729 7.07249L24.8136 9.27333C24.8391 9.27333 24.8646 9.27333 24.8646 9.27333C24.8646 9.27333 24.8901 9.27333 24.9155 9.27333V0H27.4122V15.9995H25.1703L23.1831 11.2764C22.8774 10.4851 22.5462 9.71841 22.2405 8.97654C21.9348 8.23467 21.629 7.46815 21.3233 6.70155H21.2469Z" />
</svg>
