<svg width="934" height="1495" viewBox="0 0 934 1495"  xmlns="http://www.w3.org/2000/svg">
<path d="M395.045 717.436V665.74H385.443V717.436H376.041V656.641H404.547V717.436H395.045Z" />
<path d="M415.752 717.436V656.641H442.758V665.44H425.154V682.039H440.457V691.038H425.154V708.637H442.758V717.436H415.752Z" />
<path d="M464.557 656.641C470.158 656.641 474.259 658.141 476.859 661.04C479.46 663.94 480.76 668.64 480.76 675.139C480.76 678.039 480.46 680.539 479.96 682.939C479.459 685.238 478.559 687.238 477.259 688.938C475.959 690.638 474.258 691.938 472.258 692.838C470.158 693.738 467.557 694.238 464.456 694.238H460.656V717.536H451.254V656.741H464.557V656.641ZM460.456 665.44V685.038H463.756C466.657 685.038 468.657 684.239 469.858 682.539C470.958 680.839 471.558 678.339 471.558 675.039C471.558 672.039 471.058 669.74 469.958 667.94C468.857 666.24 466.857 665.34 463.956 665.34H460.456V665.44Z" />
<path d="M511.37 685.638C514.071 686.538 515.871 688.138 516.871 690.638C517.871 693.037 518.372 695.837 518.372 699.037C518.372 705.336 516.971 710.036 514.271 713.036C511.57 716.036 507.369 717.535 501.868 717.535H489.266V656.74H502.568C507.969 656.74 511.77 658.14 514.271 660.94C516.671 663.74 517.871 667.839 517.871 673.239C517.871 676.039 517.371 678.439 516.471 680.538C515.471 682.638 513.871 684.238 511.47 685.238V685.638H511.37ZM508.77 673.339C508.77 670.539 508.169 668.539 507.069 667.339C505.969 666.139 504.169 665.54 501.568 665.54H498.568V681.238H501.668C504.069 681.238 505.869 680.538 507.069 679.238C508.269 677.839 508.77 675.839 508.77 673.339ZM509.37 698.137C509.37 695.237 508.87 693.137 507.769 691.738C506.769 690.338 504.869 689.638 502.268 689.638H498.667V708.536H502.468C503.969 708.536 505.169 708.236 506.069 707.736C506.969 707.136 507.669 706.436 508.169 705.536C508.669 704.636 508.969 703.537 509.17 702.237C509.27 700.937 509.37 699.537 509.37 698.137Z" />
<path d="M550.777 717.434L548.376 704.735H537.174C536.774 706.835 536.374 708.935 535.974 711.035C535.574 713.135 535.274 715.235 534.874 717.334H525.271C527.272 707.135 529.372 697.036 531.373 686.937C533.373 676.838 535.474 666.738 537.474 656.539H547.976L560.279 717.334H550.777V717.434ZM542.575 670.638C541.975 674.838 541.375 679.037 540.775 683.137C540.175 687.337 539.474 691.536 538.674 695.836H546.976L543.075 670.638H542.575Z" />
<path d="M565.781 717.436L569.182 698.137C569.582 696.138 570.182 694.238 571.082 692.538C571.983 690.838 573.183 689.538 574.783 688.638C571.983 687.438 570.082 685.738 568.982 683.339C567.982 680.939 567.382 678.139 567.382 674.839C567.382 668.84 568.782 664.34 571.682 661.24C574.583 658.141 578.484 656.641 583.485 656.641H597.388V717.436H587.986V691.538H585.585C583.985 691.538 582.485 692.138 581.084 693.438C579.684 694.738 578.784 697.038 578.184 700.237L575.283 717.436H565.781ZM584.385 665.44C581.485 665.44 579.584 666.34 578.384 668.04C577.284 669.74 576.683 672.039 576.683 674.839C576.683 677.839 577.384 679.839 578.784 681.039C580.184 682.139 581.985 682.739 584.285 682.739H588.086V665.54H584.385V665.44Z" />
<path d="M658.898 656.641V717.436H649.496V665.44H640.294V688.838C640.294 693.738 640.094 697.837 639.794 701.137C639.494 704.437 638.794 707.237 637.893 709.537C636.993 711.836 635.693 713.636 634.093 715.136C632.492 716.536 630.492 717.836 627.991 718.936L624.391 711.936C625.891 711.037 627.191 710.137 628.091 709.037C629.092 708.037 629.792 706.737 630.392 705.237C630.992 703.737 631.392 701.837 631.592 699.737C631.792 697.538 631.892 694.838 631.892 691.538V656.641H658.898Z" />
<path d="M691.809 679.339L679.106 717.436H670.004V656.641H679.206V695.138H679.506L692.209 656.641H701.411V717.436H692.109V679.339H691.809Z" />
<path d="M721.611 665.44V717.436H712.209V656.641H738.514V665.44H721.611Z" />
<path d="M761.222 717.434L758.822 704.735H747.619C747.219 706.835 746.819 708.935 746.419 711.035C746.019 713.135 745.719 715.235 745.319 717.334H735.717C737.717 707.135 739.818 697.036 741.818 686.937C743.819 676.838 745.919 666.738 747.92 656.539H758.422L770.724 717.334H761.222V717.434ZM753.021 670.638C752.42 674.838 751.82 679.037 751.22 683.137C750.62 687.337 749.92 691.536 749.12 695.836H757.422L753.521 670.638H753.021Z" />
<path d="M745.121 982.417C745.221 982.117 745.322 981.917 745.422 981.617C746.622 978.217 747.822 974.918 749.122 971.518C749.122 971.418 749.222 971.318 749.222 971.218C749.222 971.218 749.222 971.118 749.322 971.118C749.422 971.118 749.422 971.118 749.522 971.118C749.822 971.118 750.222 971.218 750.522 971.218C750.823 971.218 751.123 971.318 751.423 971.318C751.523 971.318 751.623 971.318 751.823 971.318C751.923 971.318 752.023 971.318 752.123 971.318C752.623 971.318 753.123 971.318 753.523 971.318C753.623 971.318 753.723 971.318 753.823 971.318C753.923 971.318 753.923 971.318 754.023 971.318C754.223 971.318 754.423 971.318 754.623 971.318C756.524 971.118 758.324 970.718 760.125 970.118C764.325 968.518 767.626 965.918 770.226 962.219C770.326 962.119 770.327 962.019 770.427 961.919V961.819C770.327 961.719 770.227 961.719 770.127 961.619C768.426 960.519 766.826 959.419 765.126 958.319C764.625 958.019 764.125 957.719 763.625 957.419L763.525 957.319C763.525 957.319 763.525 957.319 763.425 957.319L763.325 957.419C763.025 957.819 762.725 958.219 762.425 958.519C760.925 960.219 759.124 961.519 756.924 962.219C756.224 962.419 755.524 962.619 754.823 962.719C754.423 962.819 754.023 962.818 753.623 962.818C753.223 962.818 752.823 962.818 752.423 962.818C752.023 962.818 751.623 962.819 751.123 962.719C750.723 962.719 750.222 962.619 749.822 962.519C748.522 962.219 747.322 961.719 746.222 961.119C744.721 960.219 743.421 959.119 742.321 957.619C741.321 956.319 740.62 954.919 740.22 953.319C740.12 952.819 740.02 952.219 739.92 951.719C739.82 950.919 739.82 950.219 739.82 949.42C739.82 948.92 739.92 948.52 739.92 948.02C740.12 946.92 740.42 945.92 740.821 945.02C741.721 942.82 743.221 941.12 745.121 939.72C746.322 938.82 747.722 938.12 749.222 937.72C749.722 937.62 750.322 937.52 750.823 937.42C751.623 937.32 752.323 937.32 753.123 937.32C753.623 937.32 754.123 937.42 754.623 937.52C755.324 937.62 755.924 937.82 756.624 938.02C758.924 938.82 760.825 940.12 762.325 941.92C762.425 942.02 762.525 942.12 762.525 942.22H762.625C762.725 942.22 762.725 942.12 762.825 942.02C764.425 940.72 766.026 939.52 767.626 938.22C768.026 937.92 768.426 937.52 768.926 937.22C769.026 937.22 769.026 937.12 769.126 937.12V937.02C769.026 936.92 769.026 936.92 768.926 936.82C767.026 934.421 764.625 932.521 761.925 931.221C761.825 931.221 761.825 931.121 761.725 931.121V931.021C761.725 930.921 761.825 930.821 761.825 930.721C763.225 926.921 764.625 923.022 766.026 919.222C766.026 919.122 766.026 919.122 766.126 919.022C766.126 918.922 766.226 918.922 766.326 918.922C766.426 918.922 766.426 919.022 766.526 919.022C772.827 921.922 778.028 926.721 781.529 932.821C783.029 935.421 784.129 938.22 784.93 941.12C785.13 942.02 785.33 943.02 785.53 943.92C785.63 944.42 785.73 944.92 785.73 945.52C785.83 946.12 785.83 946.82 785.93 947.42C786.03 948.62 786.03 949.72 785.93 950.919C785.93 951.519 785.83 952.119 785.83 952.819C785.73 953.319 785.73 953.919 785.63 954.419C785.53 954.919 785.43 955.519 785.33 956.019C785.03 957.319 784.73 958.519 784.329 959.819C783.029 963.718 781.129 967.218 778.628 970.418C775.528 974.218 771.827 977.217 767.426 979.417C765.326 980.517 763.025 981.317 760.724 981.917C759.924 982.117 759.124 982.317 758.224 982.417C757.624 982.517 757.124 982.617 756.524 982.617C756.124 982.617 755.623 982.717 755.223 982.717C754.823 982.717 754.523 982.817 754.123 982.817C753.523 982.817 752.923 982.917 752.323 982.917C751.623 982.917 751.023 982.917 750.322 982.817C749.822 982.817 749.222 982.717 748.722 982.717C748.122 982.617 747.522 982.617 746.922 982.517C746.322 982.417 745.721 982.317 745.221 982.217C745.121 982.517 745.121 982.417 745.121 982.417Z" fill="#FFED00"/>
<path d="M761.324 917.417C761.324 917.517 761.223 917.617 761.223 917.617C760.223 920.217 759.323 922.817 758.323 925.417C757.823 926.717 757.323 928.017 756.923 929.317C756.923 929.417 756.823 929.517 756.823 929.617C756.823 929.617 756.722 929.716 756.722 929.617C756.522 929.617 756.222 929.517 756.022 929.517C755.622 929.417 755.222 929.417 754.822 929.317C754.222 929.217 753.722 929.217 753.122 929.217C752.622 929.217 752.121 929.217 751.521 929.217C751.421 929.217 751.221 929.217 751.121 929.217C750.721 929.217 750.421 929.317 750.021 929.317C749.621 929.317 749.221 929.417 748.821 929.517C747.92 929.717 747.02 929.916 746.22 930.116C742.919 931.116 740.119 932.916 737.718 935.316C735.718 937.216 734.217 939.516 733.117 942.016C732.617 943.315 732.217 944.615 731.917 945.915C731.817 946.515 731.717 947.015 731.617 947.615C731.517 948.215 731.517 948.715 731.517 949.315C731.517 949.415 731.517 949.415 731.517 949.515C731.417 949.715 731.517 950.015 731.517 950.215C731.517 950.415 731.517 950.615 731.517 950.815C731.517 951.015 731.517 951.315 731.617 951.615C731.617 952.315 731.717 952.915 731.817 953.615C732.017 955.015 732.417 956.314 732.917 957.614C733.917 960.414 735.518 962.814 737.618 964.914C739.018 966.314 740.619 967.614 742.419 968.613C742.919 968.913 743.42 969.113 743.92 969.413C744.02 969.413 744.02 969.513 744.12 969.513V969.613C744.12 969.713 744.12 969.713 744.02 969.813C743.619 970.813 743.32 971.813 742.919 972.713C742.019 975.313 741.019 977.913 740.119 980.513C740.119 980.613 740.019 980.613 740.019 980.713C740.019 980.713 739.919 980.813 739.919 980.713C739.819 980.713 739.818 980.613 739.718 980.613C736.718 979.413 733.817 977.713 731.317 975.613C727.616 972.613 724.715 969.014 722.615 964.914C721.414 962.614 720.514 960.214 719.914 957.614C719.714 956.714 719.514 955.914 719.414 955.015C719.314 954.415 719.214 953.815 719.214 953.115C719.114 952.315 719.114 951.515 719.014 950.815C719.014 950.215 719.014 949.615 719.014 949.015C719.014 948.415 719.014 947.815 719.114 947.215C719.114 946.715 719.214 946.215 719.214 945.615C719.314 944.915 719.414 944.215 719.514 943.515C719.714 942.216 720.014 941.016 720.414 939.816C721.614 935.816 723.515 932.116 726.215 928.817C729.016 925.317 732.417 922.417 736.318 920.217C738.818 918.817 741.419 917.817 744.12 917.117C745.02 916.917 745.92 916.718 746.92 916.518C747.52 916.418 748.12 916.318 748.721 916.218C749.221 916.118 749.721 916.118 750.221 916.118C751.021 916.018 751.821 916.018 752.722 916.018C753.022 916.018 753.222 916.018 753.522 916.018C754.022 916.018 754.622 916.018 755.122 916.118C755.722 916.118 756.222 916.218 756.823 916.318C758.323 916.518 759.823 916.818 761.324 917.217C761.124 917.317 761.224 917.318 761.324 917.417C761.224 917.318 761.224 917.417 761.324 917.417Z" fill="#FFED00"/>
<path d="M535.572 850.621V843.521H566.078V850.621H535.572ZM535.572 864.02V857.02H566.078V864.12H535.572V864.02Z" />
<path d="M535.572 1043.81V1036.71H566.078V1043.81H535.572ZM535.572 1057.21V1050.11H566.078V1057.21H535.572Z" />
<path d="M535.572 1139.4V1132.3H566.078V1139.4H535.572ZM535.572 1152.9V1145.8H566.078V1152.9H535.572Z" />
<path d="M535.572 1238.89V1231.79H566.078V1238.89H535.572ZM535.572 1252.39V1245.29H566.078V1252.39H535.572Z" />
<path d="M300.425 1215.89C301.525 1215.89 302.426 1215.99 303.226 1216.29C304.026 1216.59 304.626 1216.99 305.126 1217.49C305.626 1217.99 306.026 1218.69 306.226 1219.39C306.426 1220.09 306.626 1220.89 306.626 1221.79L302.726 1222.79C302.726 1221.89 302.526 1221.09 302.225 1220.49C301.925 1219.89 301.325 1219.59 300.525 1219.59C300.025 1219.59 299.625 1219.69 299.425 1219.89C299.125 1220.09 298.925 1220.39 298.725 1220.69C298.525 1220.99 298.425 1221.29 298.425 1221.69C298.325 1222.09 298.325 1222.39 298.325 1222.69V1235.89C298.325 1236.09 298.325 1236.39 298.425 1236.69C298.425 1236.99 298.625 1237.29 298.725 1237.49C298.925 1237.79 299.125 1237.99 299.425 1238.19C299.725 1238.39 300.025 1238.49 300.525 1238.49C302.025 1238.49 302.726 1237.39 302.826 1235.29C303.526 1235.39 304.126 1235.49 304.826 1235.59C305.526 1235.69 306.126 1235.79 306.827 1235.89C306.827 1237.89 306.226 1239.39 305.226 1240.59C304.226 1241.69 302.625 1242.29 300.625 1242.29C298.525 1242.29 296.924 1241.79 295.924 1240.69C294.924 1239.59 294.424 1237.99 294.424 1235.89V1222.89C294.424 1221.89 294.524 1220.99 294.724 1220.19C294.924 1219.29 295.324 1218.59 295.824 1217.89C296.324 1217.29 297.025 1216.69 297.825 1216.39C298.325 1216.09 299.325 1215.89 300.425 1215.89Z" />
<path d="M310.33 1242.09V1237.59H314.533V1242.09H310.33Z" />
<path d="M328.734 1228.49C329.834 1228.89 330.634 1229.59 331.135 1230.59C331.535 1231.59 331.735 1232.79 331.735 1234.19C331.735 1236.89 331.135 1238.89 330.034 1240.19C328.834 1241.49 327.134 1242.09 324.733 1242.09H319.332V1216.09H325.033C327.334 1216.09 329.034 1216.69 330.034 1217.89C331.035 1219.09 331.635 1220.89 331.635 1223.09C331.635 1224.29 331.435 1225.29 331.035 1226.19C330.635 1227.09 329.934 1227.79 328.934 1228.19V1228.49H328.734ZM327.634 1223.29C327.634 1222.09 327.434 1221.19 326.934 1220.69C326.433 1220.19 325.633 1219.89 324.533 1219.89H323.233V1226.59H324.533C325.533 1226.59 326.334 1226.29 326.834 1225.69C327.434 1225.19 327.634 1224.39 327.634 1223.29ZM327.934 1233.89C327.934 1232.69 327.734 1231.79 327.234 1231.19C326.734 1230.59 326.034 1230.29 324.833 1230.29H323.333V1238.39H324.933C325.533 1238.39 326.133 1238.29 326.433 1237.99C326.834 1237.79 327.134 1237.39 327.334 1236.99C327.534 1236.59 327.634 1236.09 327.734 1235.59C327.834 1235.09 327.934 1234.49 327.934 1233.89Z" />
<path d="M336.234 1242.09V1237.59H340.438V1242.09H336.234Z" />
<path d="M369.337 1264.09L365.036 1252.79L361.335 1242.09H360.935V1277.29H351.533V1216.49H360.735L367.337 1233.79L372.137 1246.99H372.538L377.439 1233.49L383.94 1216.59H393.042V1277.39H383.64V1242.39H383.34L379.539 1253.19L375.238 1264.09H369.337Z" />
<path d="M425.746 1277.39L423.345 1264.69H412.143C411.743 1266.79 411.343 1268.89 410.942 1270.99C410.542 1273.09 410.242 1275.19 409.842 1277.29H400.24C402.241 1267.09 404.341 1256.99 406.342 1246.89C408.342 1236.79 410.442 1226.69 412.443 1216.49H422.945L435.248 1277.29H425.746V1277.39ZM417.544 1230.69C416.944 1234.89 416.344 1239.09 415.744 1243.19C415.143 1247.39 414.443 1251.59 413.643 1255.89H421.945L418.044 1230.69H417.544Z" />
<path d="M463.359 1277.39L456.457 1256.49H456.257L449.356 1277.39H438.854L451.156 1245.59C449.256 1240.79 447.355 1235.99 445.455 1231.09C443.554 1226.29 441.654 1221.49 439.754 1216.59H450.356C451.356 1219.69 452.356 1222.69 453.357 1225.69C454.357 1228.69 455.357 1231.69 456.357 1234.79L456.657 1234.69L462.459 1216.49H473.161L461.358 1245.49C463.459 1250.89 465.559 1256.19 467.66 1261.39C469.76 1266.69 471.861 1271.99 473.961 1277.19H463.359V1277.39Z" />
<path d="M437.267 817.322C438.067 817.322 438.967 817.322 439.768 817.322C439.868 817.322 439.968 817.322 440.068 817.422C440.368 817.422 440.668 817.422 440.968 817.522C442.368 817.622 443.869 817.822 445.269 818.122C448.269 818.722 451.17 819.722 453.971 821.222C457.972 823.322 461.372 826.022 464.273 829.421C467.474 833.221 469.674 837.521 470.974 842.32C471.375 843.72 471.575 845.12 471.775 846.52C471.875 847.42 471.975 848.32 471.975 849.32C471.975 850.42 471.975 851.52 471.975 852.62C471.975 853.12 471.975 853.619 471.875 854.119C471.775 855.319 471.575 856.619 471.275 857.819C470.674 860.819 469.674 863.619 468.274 866.319C466.574 869.618 464.273 872.618 461.573 875.218C460.572 876.218 459.572 877.018 458.372 877.918C458.272 878.018 458.172 878.118 458.072 878.118C458.072 878.018 457.972 877.918 457.972 877.818C456.271 872.618 454.571 867.518 452.97 862.319C452.17 859.919 451.47 857.619 450.67 855.219C450.67 855.119 450.57 855.019 450.57 854.919C450.67 854.819 450.77 854.819 450.77 854.719C456.271 850.72 461.672 846.82 467.174 842.82C468.074 842.12 469.074 841.52 469.974 840.82C470.074 840.82 470.074 840.72 470.074 840.62C469.974 840.62 469.874 840.62 469.674 840.62C461.872 840.62 454.071 840.62 446.369 840.62C446.269 840.62 446.169 840.62 446.069 840.62C445.969 840.62 445.969 840.62 445.869 840.62C445.869 840.62 445.869 840.62 445.869 840.52C445.869 840.52 445.869 840.521 445.869 840.421C443.469 833.021 441.068 825.622 438.667 818.222C438.667 818.122 438.567 818.022 438.567 817.922V817.822C438.567 817.822 438.567 817.822 438.567 817.722C438.167 819.022 437.767 820.322 437.267 821.622C436.867 822.922 436.467 824.222 436.067 825.422C435.667 826.722 435.267 828.021 434.766 829.321C434.366 830.621 433.966 831.921 433.466 833.221C433.066 834.521 432.666 835.821 432.266 837.021C431.866 838.321 431.466 839.621 430.966 840.92C430.766 840.92 430.666 840.92 430.566 840.92C422.664 840.92 414.762 840.92 406.86 840.92C406.76 840.92 406.66 840.92 406.66 840.92C406.66 840.82 406.66 840.72 406.76 840.62C408.461 835.521 411.361 831.021 415.162 827.222C418.763 823.722 422.864 821.222 427.665 819.522C430.665 818.522 433.766 817.922 436.867 817.722C437.067 817.422 437.167 817.422 437.267 817.322Z" fill="#FFED00"/>
<path d="M404.951 851.518C404.951 851.018 404.951 850.618 404.951 850.118C405.051 849.918 405.051 849.618 405.051 849.318C405.051 849.018 405.051 848.818 405.051 848.518C405.151 847.318 405.251 846.118 405.451 844.918C405.751 843.418 406.052 842.018 406.552 840.618C406.552 840.518 406.652 840.418 406.652 840.318C406.752 840.418 406.852 840.518 407.052 840.618C413.353 845.218 419.755 849.818 426.056 854.417C426.156 854.517 426.256 854.517 426.356 854.617C426.356 854.717 426.256 854.817 426.256 854.917C425.956 855.717 425.756 856.517 425.456 857.217C423.355 863.717 421.255 870.216 419.054 876.816C418.954 877.116 418.854 877.416 418.754 877.715C418.654 877.615 418.554 877.615 418.454 877.515C415.353 875.216 412.653 872.416 410.553 869.116C407.152 863.917 405.251 858.317 405.051 852.117C405.051 852.117 405.051 851.817 404.951 851.518Z" fill="#FFED00"/>
<path d="M458.264 878.017C458.164 878.117 458.064 878.217 457.964 878.317C456.064 879.717 454.063 880.817 451.863 881.717C449.562 882.717 447.062 883.517 444.561 883.917C443.161 884.117 441.861 884.317 440.46 884.417C440.36 884.417 440.26 884.417 440.16 884.417C439.06 884.417 437.86 884.417 436.76 884.417C436.66 884.417 436.56 884.417 436.46 884.317C435.459 884.217 434.459 884.117 433.459 884.017C431.559 883.717 429.758 883.317 427.958 882.717C424.757 881.617 421.857 880.117 419.056 878.217C418.956 878.117 418.856 878.017 418.756 878.017C418.856 877.917 418.956 877.917 419.156 877.817C425.457 873.218 431.859 868.618 438.16 864.018C438.26 863.918 438.36 863.818 438.46 863.818C438.56 863.918 438.66 863.918 438.76 864.018C439.76 864.718 440.76 865.518 441.761 866.218C447.062 870.118 452.363 873.918 457.664 877.817C457.964 877.817 458.164 877.917 458.264 878.017Z" fill="#FFED00"/>
<path d="M766.322 1229.49C766.723 1229.49 767.123 1229.49 767.523 1229.49H767.623C767.723 1229.49 767.923 1229.49 768.023 1229.49C768.723 1229.49 769.423 1229.59 770.023 1229.79C771.423 1230.09 772.824 1230.59 774.124 1231.29C776.024 1232.29 777.625 1233.59 779.025 1235.19C780.525 1236.99 781.625 1239.09 782.226 1241.39C782.426 1242.09 782.526 1242.69 782.626 1243.39C782.726 1243.79 782.726 1244.29 782.726 1244.69C782.726 1245.19 782.726 1245.79 782.726 1246.29C782.726 1246.49 782.726 1246.79 782.726 1246.99C782.626 1247.59 782.626 1248.19 782.426 1248.79C782.126 1250.19 781.626 1251.59 781.025 1252.79C780.225 1254.39 779.125 1255.79 777.825 1256.99C777.325 1257.49 776.825 1257.89 776.325 1258.29L776.224 1258.39V1258.29C775.424 1255.89 774.624 1253.39 773.824 1250.99C773.424 1249.89 773.124 1248.79 772.724 1247.59C772.724 1247.59 772.724 1247.49 772.724 1247.39L772.824 1247.29C775.424 1245.39 778.025 1243.49 780.625 1241.59C781.026 1241.29 781.526 1240.99 781.926 1240.59C781.926 1240.59 782.026 1240.59 782.026 1240.49C781.926 1240.49 781.926 1240.49 781.826 1240.49C778.125 1240.49 774.424 1240.49 770.723 1240.49H770.623H770.523C769.423 1236.99 768.223 1233.49 767.123 1229.89V1229.79C766.923 1230.39 766.723 1230.99 766.522 1231.59C766.322 1232.19 766.123 1232.79 765.922 1233.39C765.722 1233.99 765.522 1234.59 765.322 1235.19C765.122 1235.79 764.922 1236.39 764.722 1236.99C764.522 1237.59 764.322 1238.19 764.122 1238.79C763.922 1239.39 763.722 1239.99 763.522 1240.59C763.422 1240.59 763.422 1240.59 763.322 1240.59C759.621 1240.59 755.82 1240.59 752.12 1240.59H752.02C752.02 1240.49 752.02 1240.49 752.02 1240.49C752.82 1238.09 754.22 1235.89 756.02 1234.09C757.721 1232.39 759.721 1231.19 761.922 1230.49C763.322 1229.99 764.822 1229.69 766.322 1229.69C766.222 1229.49 766.222 1229.49 766.322 1229.49Z" fill="#FFED00"/>
<path d="M750.92 1245.69C750.92 1245.49 750.92 1245.29 750.92 1245.09C750.92 1244.99 751.02 1244.89 751.02 1244.69C751.02 1244.49 751.02 1244.49 751.02 1244.29C751.02 1243.69 751.12 1243.19 751.22 1242.59C751.32 1241.89 751.52 1241.19 751.72 1240.59C751.72 1240.59 751.72 1240.49 751.82 1240.49C751.92 1240.49 751.92 1240.59 752.02 1240.59C755.021 1242.79 758.021 1244.99 761.022 1247.19L761.122 1247.29C761.122 1247.39 761.122 1247.39 761.122 1247.49C761.022 1247.89 760.922 1248.19 760.722 1248.59C759.722 1251.69 758.721 1254.79 757.721 1257.89C757.721 1257.99 757.621 1258.19 757.521 1258.29L757.421 1258.19C755.921 1257.09 754.621 1255.79 753.62 1254.19C752.02 1251.69 751.12 1248.99 751.02 1246.09C751.02 1245.99 751.02 1245.89 750.92 1245.69Z" fill="#FFED00"/>
<path d="M776.324 1258.29C776.324 1258.39 776.224 1258.39 776.224 1258.39C775.324 1258.99 774.324 1259.59 773.324 1259.99C772.223 1260.49 771.023 1260.79 769.823 1261.09C769.223 1261.19 768.523 1261.29 767.923 1261.29C767.823 1261.29 767.823 1261.29 767.723 1261.29C767.222 1261.29 766.622 1261.29 766.122 1261.29H766.022C765.522 1261.29 765.022 1261.19 764.622 1261.09C763.722 1260.99 762.822 1260.79 762.022 1260.49C760.521 1259.99 759.121 1259.29 757.821 1258.39L757.721 1258.29C757.821 1258.29 757.821 1258.19 757.921 1258.19C760.921 1255.99 763.922 1253.79 766.923 1251.59C766.923 1251.59 767.023 1251.49 767.123 1251.49L767.222 1251.59C767.723 1251.99 768.223 1252.29 768.623 1252.69C771.123 1254.49 773.624 1256.39 776.224 1258.19C776.124 1258.19 776.224 1258.19 776.324 1258.29Z" fill="#FFED00"/>
<path d="M724.709 1031.4C725.109 1031.4 725.51 1031.4 725.91 1031.4H726.01C726.11 1031.4 726.31 1031.4 726.41 1031.4C727.11 1031.4 727.81 1031.5 728.41 1031.7C729.811 1032 731.211 1032.5 732.511 1033.2C734.411 1034.2 736.012 1035.5 737.412 1037.1C738.913 1038.9 740.013 1041 740.613 1043.3C740.813 1044 740.913 1044.6 741.013 1045.3C741.113 1045.7 741.113 1046.2 741.113 1046.6C741.113 1047.1 741.113 1047.7 741.113 1048.2C741.113 1048.4 741.113 1048.7 741.113 1048.9C741.013 1049.5 741.013 1050.1 740.813 1050.7C740.513 1052.1 740.013 1053.5 739.413 1054.7C738.612 1056.3 737.512 1057.7 736.212 1058.9C735.712 1059.4 735.211 1059.8 734.711 1060.2L734.612 1060.3V1060.2C733.811 1057.8 733.011 1055.3 732.211 1052.9C731.811 1051.8 731.511 1050.7 731.111 1049.5C731.111 1049.5 731.111 1049.4 731.111 1049.3L731.211 1049.2C733.811 1047.3 736.412 1045.4 739.012 1043.5C739.412 1043.2 739.913 1042.9 740.313 1042.5C740.313 1042.5 740.413 1042.5 740.413 1042.4C740.313 1042.4 740.313 1042.4 740.213 1042.4C736.512 1042.4 732.811 1042.4 729.11 1042.4H729.01H728.91C727.81 1038.9 726.61 1035.4 725.509 1031.8V1031.7C725.309 1032.3 725.109 1032.9 724.909 1033.5C724.709 1034.1 724.509 1034.7 724.309 1035.3C724.109 1035.9 723.909 1036.5 723.709 1037.1C723.509 1037.7 723.309 1038.3 723.109 1038.9C722.909 1039.5 722.709 1040.1 722.509 1040.7C722.309 1041.3 722.109 1041.9 721.909 1042.5C721.809 1042.5 721.809 1042.5 721.709 1042.5C718.008 1042.5 714.207 1042.5 710.506 1042.5H710.406C710.406 1042.4 710.406 1042.4 710.406 1042.4C711.206 1040 712.607 1037.8 714.407 1036C716.108 1034.3 718.108 1033.1 720.308 1032.4C721.709 1031.9 723.209 1031.6 724.709 1031.6C724.509 1031.5 724.609 1031.5 724.709 1031.4Z" fill="#FFED00"/>
<path d="M709.307 1047.71C709.307 1047.51 709.307 1047.31 709.307 1047.11C709.307 1047.01 709.407 1046.91 709.407 1046.71C709.407 1046.61 709.407 1046.51 709.407 1046.31C709.407 1045.71 709.507 1045.21 709.607 1044.61C709.707 1043.91 709.907 1043.21 710.107 1042.61C710.107 1042.61 710.107 1042.51 710.207 1042.51C710.307 1042.51 710.307 1042.61 710.407 1042.61C713.408 1044.81 716.409 1047.01 719.409 1049.21L719.509 1049.31C719.509 1049.41 719.509 1049.41 719.509 1049.51C719.409 1049.91 719.309 1050.21 719.109 1050.61C718.109 1053.7 717.109 1056.8 716.108 1059.9C716.108 1060 716.008 1060.2 715.908 1060.3L715.808 1060.2C714.308 1059.1 713.008 1057.8 712.007 1056.2C710.407 1053.7 709.507 1051.01 709.407 1048.11C709.307 1048.01 709.307 1047.81 709.307 1047.71Z" fill="#FFED00"/>
<path d="M734.614 1060.3C734.614 1060.4 734.514 1060.4 734.514 1060.4C733.614 1061 732.614 1061.6 731.613 1062C730.513 1062.5 729.313 1062.8 728.113 1063.1C727.512 1063.2 726.812 1063.3 726.212 1063.3C726.112 1063.3 726.112 1063.3 726.012 1063.3C725.512 1063.3 724.912 1063.3 724.412 1063.3H724.312C723.812 1063.3 723.312 1063.2 722.911 1063.1C722.011 1063 721.111 1062.8 720.311 1062.5C718.81 1062 717.41 1061.3 716.11 1060.4L716.01 1060.3C716.11 1060.3 716.11 1060.2 716.21 1060.2C719.21 1058 722.211 1055.8 725.212 1053.6C725.212 1053.6 725.312 1053.5 725.412 1053.5L725.512 1053.6C726.012 1054 726.512 1054.3 726.912 1054.7C729.413 1056.5 731.913 1058.4 734.514 1060.2C734.514 1060.2 734.614 1060.2 734.614 1060.3Z" fill="#FFED00"/>
<path d="M705.116 880.327C705.216 880.027 705.316 879.827 705.416 879.527C706.616 876.128 707.816 872.828 709.116 869.428C709.116 869.328 709.216 869.228 709.216 869.128C709.216 869.128 709.216 869.028 709.316 869.028C709.416 869.028 709.416 869.028 709.516 869.028C709.817 869.028 710.217 869.128 710.517 869.128C710.817 869.128 711.117 869.228 711.417 869.228C711.517 869.228 711.617 869.228 711.817 869.228C711.917 869.228 712.017 869.228 712.117 869.228C712.617 869.228 713.117 869.228 713.517 869.228C713.617 869.228 713.717 869.228 713.817 869.228C713.917 869.228 713.917 869.228 714.017 869.228C714.217 869.228 714.418 869.228 714.618 869.228C716.518 869.028 718.318 868.628 720.119 868.028C724.32 866.428 727.62 863.828 730.221 860.129C730.321 860.029 730.321 859.929 730.421 859.829V859.729C730.321 859.629 730.221 859.629 730.121 859.529C728.421 858.429 726.82 857.329 725.12 856.229C724.62 855.929 724.12 855.629 723.62 855.329L723.519 855.229C723.519 855.229 723.52 855.229 723.42 855.229L723.319 855.329C723.019 855.729 722.719 856.129 722.419 856.429C720.919 858.129 719.119 859.429 716.918 860.129C716.218 860.329 715.518 860.529 714.818 860.629C714.418 860.729 714.017 860.729 713.617 860.729C713.217 860.729 712.817 860.729 712.417 860.729C712.017 860.729 711.617 860.729 711.117 860.629C710.717 860.629 710.217 860.529 709.817 860.429C708.516 860.129 707.316 859.629 706.216 859.029C704.715 858.129 703.415 857.029 702.315 855.529C701.315 854.229 700.615 852.829 700.214 851.229C700.114 850.729 700.015 850.129 699.915 849.63C699.815 848.83 699.814 848.13 699.814 847.33C699.814 846.83 699.915 846.43 699.915 845.93C700.115 844.83 700.415 843.83 700.815 842.93C701.715 840.73 703.215 839.03 705.116 837.63C706.316 836.73 707.716 836.031 709.216 835.631C709.716 835.531 710.317 835.431 710.817 835.331C711.617 835.231 712.317 835.231 713.117 835.231C713.617 835.231 714.118 835.331 714.618 835.431C715.318 835.531 715.918 835.731 716.618 835.931C718.919 836.731 720.819 838.03 722.319 839.83C722.419 839.93 722.519 840.03 722.519 840.13H722.619C722.719 840.13 722.719 840.03 722.819 839.93C724.42 838.63 726.02 837.43 727.62 836.131C728.02 835.831 728.421 835.431 728.921 835.131C729.021 835.131 729.021 835.031 729.121 835.031V834.931C729.021 834.831 729.021 834.831 728.921 834.731C727.02 832.331 724.62 830.431 721.919 829.131C721.819 829.131 721.819 829.031 721.719 829.031V828.931C721.719 828.831 721.819 828.731 721.819 828.631C723.219 824.831 724.62 820.932 726.02 817.132C726.02 817.032 726.02 817.032 726.12 816.932C726.12 816.832 726.22 816.832 726.32 816.832C726.42 816.832 726.42 816.932 726.52 816.932C732.821 819.832 738.022 824.631 741.523 830.731C743.023 833.331 744.124 836.131 744.924 839.03C745.124 839.93 745.324 840.93 745.524 841.83C745.624 842.33 745.724 842.83 745.724 843.43C745.824 844.03 745.824 844.73 745.924 845.33C746.024 846.53 746.024 847.63 745.924 848.83C745.924 849.43 745.824 850.03 745.824 850.729C745.724 851.229 745.724 851.829 745.624 852.329C745.524 852.829 745.424 853.429 745.324 853.929C745.024 855.229 744.724 856.429 744.324 857.729C743.024 861.629 741.123 865.128 738.623 868.328C735.522 872.128 731.821 875.128 727.42 877.327C725.32 878.427 723.019 879.227 720.719 879.827C719.919 880.027 719.118 880.227 718.218 880.327C717.618 880.427 717.118 880.527 716.518 880.527C716.118 880.527 715.618 880.627 715.218 880.627C714.818 880.627 714.518 880.727 714.118 880.727C713.517 880.727 712.917 880.827 712.317 880.827C711.617 880.827 711.017 880.827 710.317 880.727C709.817 880.727 709.216 880.627 708.716 880.627C708.116 880.527 707.516 880.527 706.916 880.427C706.316 880.327 705.716 880.227 705.215 880.127C705.215 880.427 705.116 880.427 705.116 880.327Z" fill="#FFED00"/>
<path d="M721.317 815.328C721.317 815.428 721.217 815.528 721.217 815.528C720.217 818.127 719.317 820.727 718.316 823.327C717.816 824.627 717.316 825.927 716.916 827.227C716.916 827.327 716.816 827.427 716.816 827.527C716.816 827.527 716.716 827.627 716.716 827.527C716.516 827.527 716.216 827.427 716.016 827.427C715.616 827.327 715.216 827.327 714.816 827.227C714.215 827.127 713.715 827.127 713.115 827.127C712.615 827.127 712.115 827.127 711.515 827.127C711.415 827.127 711.215 827.127 711.115 827.127C710.715 827.127 710.415 827.227 710.014 827.227C709.614 827.227 709.214 827.327 708.814 827.427C707.914 827.627 707.014 827.827 706.214 828.027C702.913 829.027 700.112 830.826 697.712 833.226C695.711 835.126 694.211 837.426 693.111 839.926C692.611 841.226 692.211 842.525 691.911 843.825C691.811 844.425 691.711 844.925 691.611 845.525C691.511 846.125 691.511 846.625 691.511 847.225C691.511 847.325 691.511 847.325 691.511 847.425C691.41 847.625 691.511 847.925 691.511 848.125C691.511 848.325 691.511 848.525 691.511 848.725C691.511 848.925 691.511 849.225 691.611 849.525C691.611 850.225 691.711 850.825 691.811 851.525C692.011 852.925 692.411 854.225 692.911 855.524C693.911 858.324 695.511 860.724 697.612 862.824C699.012 864.224 700.613 865.524 702.413 866.524C702.913 866.824 703.413 867.024 703.913 867.324C704.013 867.324 704.013 867.424 704.113 867.424V867.524C704.113 867.624 704.113 867.624 704.013 867.724C703.613 868.723 703.313 869.723 702.913 870.623C702.013 873.223 701.013 875.823 700.112 878.423C700.112 878.523 700.012 878.523 700.012 878.623C700.012 878.623 699.912 878.723 699.912 878.623C699.812 878.623 699.812 878.523 699.712 878.523C696.712 877.323 693.811 875.623 691.311 873.523C687.61 870.523 684.709 866.924 682.609 862.824C681.408 860.524 680.508 858.124 679.908 855.524C679.708 854.625 679.508 853.825 679.408 852.925C679.308 852.325 679.208 851.725 679.208 851.025C679.108 850.225 679.108 849.425 679.008 848.725C679.008 848.125 679.008 847.525 679.008 846.925C679.008 846.325 679.008 845.725 679.108 845.125C679.108 844.625 679.208 844.125 679.208 843.525C679.308 842.825 679.408 842.126 679.508 841.426C679.708 840.126 680.008 838.926 680.408 837.726C681.609 833.726 683.509 830.026 686.209 826.727C689.01 823.227 692.411 820.327 696.312 818.127C698.812 816.727 701.413 815.728 704.113 815.028C705.014 814.828 705.914 814.628 706.914 814.428C707.514 814.328 708.114 814.228 708.714 814.128C709.214 814.028 709.714 814.028 710.214 814.028C711.015 813.928 711.815 813.928 712.715 813.928C713.015 813.928 713.215 813.928 713.515 813.928C714.015 813.928 714.616 813.928 715.116 814.028C715.716 814.028 716.216 814.128 716.816 814.228C718.316 814.428 719.817 814.728 721.317 815.128C721.117 815.228 721.217 815.228 721.317 815.328C721.217 815.328 721.317 815.328 721.317 815.328Z" fill="#FFED00"/>
<path d="M378.741 884.419V831.023L369.939 838.123V827.324L379.342 819.824H388.743V884.519H378.741V884.419Z" />
<path d="M382.643 1065.6L378.042 1053.6L374.041 1042.3H373.541V1079.7H363.539V1015.01H373.341L380.343 1033.4L385.444 1047.4H385.944L391.145 1033L398.146 1015.01H407.848V1079.7H397.846V1042.4H397.446L393.345 1053.9L388.844 1065.5H382.643V1065.6Z" />
<path d="M417.248 1079.7V1015.01H427.25V1079.7H417.248Z" />
<path d="M446.955 1042.1V1079.7H436.953V1015.01H445.955L453.757 1034.2C454.357 1035.8 454.957 1037.4 455.657 1038.9C456.257 1040.4 456.957 1042 457.657 1043.6L460.958 1052.5C461.058 1052.5 461.158 1052.5 461.158 1052.5C461.158 1052.5 461.258 1052.5 461.358 1052.5V1015.01H471.16V1079.7H462.358L454.557 1060.6C453.357 1057.4 452.056 1054.3 450.856 1051.3C449.656 1048.3 448.456 1045.2 447.255 1042.1H446.955Z" />
<path d="M380.441 1112.9C383.142 1112.9 385.443 1113.3 387.343 1114C389.243 1114.7 390.844 1115.8 392.144 1117.1C393.444 1118.4 394.344 1120 394.945 1121.8C395.545 1123.6 395.845 1125.6 395.845 1127.8L386.043 1130.3C386.043 1127.9 385.643 1126 384.742 1124.5C383.842 1123 382.442 1122.3 380.441 1122.3C379.241 1122.3 378.341 1122.5 377.541 1123C376.841 1123.5 376.24 1124.1 375.84 1124.9C375.44 1125.7 375.14 1126.5 375.04 1127.4C374.84 1128.3 374.84 1129.2 374.84 1130V1162.9C374.84 1163.5 374.94 1164.2 375.04 1165C375.14 1165.7 375.44 1166.4 375.84 1167.1C376.24 1167.8 376.841 1168.3 377.541 1168.7C378.241 1169.1 379.141 1169.4 380.241 1169.4C383.942 1169.4 385.843 1166.7 385.843 1161.4C387.543 1161.7 389.143 1162 390.844 1162.2C392.544 1162.4 394.145 1162.7 395.845 1162.9C395.745 1167.8 394.345 1171.7 391.844 1174.5C389.243 1177.3 385.442 1178.8 380.441 1178.8C375.14 1178.8 371.139 1177.5 368.639 1174.8C366.138 1172.1 364.838 1168.2 364.838 1163V1130.8C364.838 1128.4 365.138 1126.1 365.638 1124C366.138 1121.9 367.038 1120 368.239 1118.4C369.439 1116.8 371.139 1115.5 373.14 1114.6C375.14 1113.3 377.541 1112.9 380.441 1112.9Z" />
<path d="M402.75 1178.1V1166.9H413.152V1178.1H402.75Z" />
<path d="M446.149 1144.3C448.949 1145.2 450.95 1147 452.05 1149.6C453.15 1152.2 453.65 1155.2 453.65 1158.5C453.65 1165.3 452.25 1170.2 449.35 1173.4C446.449 1176.6 442.048 1178.1 436.147 1178.1H422.744V1113.4H436.847C442.548 1113.4 446.649 1114.9 449.25 1117.9C451.85 1120.9 453.15 1125.3 453.15 1131C453.15 1134 452.65 1136.6 451.65 1138.8C450.65 1141 448.85 1142.7 446.349 1143.8V1144.3H446.149ZM443.448 1131.2C443.448 1128.2 442.848 1126.1 441.648 1124.8C440.448 1123.5 438.547 1122.8 435.747 1122.8H432.546V1139.5H435.847C438.447 1139.5 440.348 1138.8 441.548 1137.4C442.848 1136 443.448 1133.9 443.448 1131.2ZM444.049 1157.6C444.049 1154.6 443.448 1152.3 442.348 1150.8C441.248 1149.3 439.247 1148.6 436.447 1148.6H432.646V1168.7H436.647C438.247 1168.7 439.548 1168.4 440.548 1167.8C441.548 1167.2 442.248 1166.4 442.748 1165.4C443.248 1164.4 443.648 1163.2 443.748 1161.9C443.948 1160.6 444.049 1159.1 444.049 1157.6Z" />
<path d="M462.361 1178.1V1166.9H472.764V1178.1H462.361Z" />
<path d="M643.797 883.816C638.896 883.816 635.295 882.417 633.094 879.617C630.794 876.817 629.693 872.917 629.693 868.018L639.396 866.418V867.718C639.396 870.118 639.796 871.817 640.496 872.917C641.196 873.917 642.396 874.417 643.997 874.417C645.097 874.417 646.097 874.017 646.897 873.317C647.698 872.617 648.198 871.117 648.298 869.018V853.719C648.298 851.019 646.997 849.719 644.297 849.719C643.296 849.719 642.396 850.019 641.496 850.519C640.596 851.019 639.896 851.919 639.396 853.119H630.994V818.521H658V827.721H640.196V843.32C640.296 843.32 640.296 843.32 640.296 843.32C640.296 843.32 640.396 843.32 640.496 843.32C641.296 842.42 642.296 841.82 643.597 841.42C644.897 841.02 646.097 840.82 647.297 840.82C651.298 840.82 654.099 841.92 655.799 844.12C657.5 846.319 658.4 849.119 658.4 852.419V865.818C658.4 871.917 657.2 876.417 654.799 879.317C652.399 882.417 648.798 883.816 643.797 883.816Z" />
<path d="M642.093 1179.69H632.191L647.994 1124.2H638.692V1131.2H629.891V1115H658.397V1123.5L642.093 1179.69Z" />
<path d="M686.808 1145.4C686.808 1148.1 685.907 1150.2 684.007 1151.7C682.107 1153.2 679.906 1153.9 677.205 1153.9C674.505 1153.9 672.305 1153.2 670.404 1151.7C668.504 1150.2 667.604 1148.2 667.604 1145.4V1123C667.604 1120.3 668.504 1118.2 670.404 1116.7C672.305 1115.2 674.505 1114.5 677.106 1114.5C679.806 1114.5 682.107 1115.2 683.907 1116.7C685.707 1118.2 686.608 1120.3 686.608 1123V1145.4H686.808ZM679.406 1123.4C679.406 1122.8 679.206 1122.3 678.806 1121.9C678.406 1121.4 677.806 1121.2 677.106 1121.2C676.405 1121.2 675.805 1121.4 675.405 1121.9C675.005 1122.4 674.805 1122.9 674.805 1123.4V1145.1C674.805 1145.7 675.005 1146.2 675.405 1146.6C675.805 1147.1 676.405 1147.3 677.205 1147.3C677.906 1147.3 678.406 1147.1 678.806 1146.6C679.206 1146.1 679.406 1145.6 679.406 1145.1V1123.4ZM682.807 1181.19H676.705L705.912 1113.2H712.013L682.807 1181.19ZM721.115 1171.49C721.115 1174.19 720.215 1176.29 718.314 1177.79C716.414 1179.29 714.213 1179.99 711.513 1179.99C708.812 1179.99 706.612 1179.29 704.711 1177.79C702.811 1176.29 701.911 1174.29 701.911 1171.49V1149.1C701.911 1146.4 702.811 1144.3 704.711 1142.8C706.612 1141.3 708.812 1140.6 711.413 1140.6C714.114 1140.6 716.414 1141.3 718.214 1142.8C720.015 1144.3 720.915 1146.4 720.915 1149.1V1171.49H721.115ZM713.713 1149.4C713.713 1148.8 713.513 1148.3 713.113 1147.9C712.713 1147.4 712.113 1147.2 711.413 1147.2C710.713 1147.2 710.113 1147.4 709.712 1147.9C709.312 1148.4 709.112 1148.9 709.112 1149.4V1171.09C709.112 1171.69 709.312 1172.19 709.712 1172.59C710.113 1173.09 710.713 1173.29 711.513 1173.29C712.213 1173.29 712.713 1173.09 713.113 1172.59C713.513 1172.09 713.713 1171.59 713.713 1171.09V1149.4Z" />
<path d="M643.595 1080.3C638.694 1080.3 635.093 1078.9 632.893 1076.1C630.593 1073.3 629.492 1069.4 629.492 1064.5L639.194 1062.9V1064.2C639.194 1066.6 639.594 1068.3 640.294 1069.4C640.995 1070.4 642.195 1070.9 643.795 1070.9C644.895 1070.9 645.895 1070.5 646.696 1069.8C647.496 1069.1 647.996 1067.6 648.096 1065.5V1050.2C648.096 1047.5 646.796 1046.2 644.095 1046.2C643.095 1046.2 642.195 1046.5 641.295 1047C640.394 1047.5 639.694 1048.4 639.194 1049.6H630.793V1015.01H657.798V1024.21H639.994V1039.8C640.094 1039.8 640.094 1039.8 640.094 1039.8C640.094 1039.8 640.194 1039.8 640.294 1039.8C641.095 1038.9 642.095 1038.3 643.395 1037.9C644.695 1037.5 645.896 1037.3 647.096 1037.3C651.097 1037.3 653.897 1038.4 655.598 1040.6C657.298 1042.8 658.198 1045.6 658.198 1048.9V1062.3C658.198 1068.4 656.998 1072.9 654.597 1075.8C652.197 1078.8 648.496 1080.3 643.595 1080.3Z" />
<path d="M694.612 1079.7L684.209 1051.8C683.509 1053.3 682.809 1054.8 682.109 1056.3C681.409 1057.8 680.709 1059.3 679.908 1060.8V1079.7H669.906V1015.01H679.908V1041.1H680.409L692.611 1015.01H703.013C700.813 1019.41 698.712 1023.81 696.512 1028.1C694.311 1032.4 692.211 1036.8 690.011 1041.2L704.914 1079.7H694.612Z" />
<path d="M638.394 1277.89V1223.99L629.492 1231.09V1220.19L638.994 1212.59H648.496V1277.79H638.394V1277.89Z" />
<path d="M676.503 1278.49C671.603 1278.49 668.002 1277.09 665.701 1274.29C663.401 1271.49 662.301 1267.59 662.301 1262.59L672.003 1260.99V1262.29C672.003 1264.69 672.403 1266.49 673.103 1267.49C673.803 1268.49 675.003 1268.99 676.703 1268.99C677.804 1268.99 678.804 1268.59 679.704 1267.89C680.504 1267.09 681.004 1265.69 681.204 1263.59V1248.09C681.204 1245.39 679.904 1244.09 677.204 1244.09C676.203 1244.09 675.203 1244.39 674.303 1244.89C673.403 1245.39 672.703 1246.29 672.203 1247.59H663.801V1212.7H691.006V1221.99H673.003V1237.69C673.103 1237.69 673.103 1237.69 673.103 1237.69C673.103 1237.69 673.203 1237.69 673.303 1237.69C674.103 1236.79 675.203 1236.19 676.404 1235.79C677.704 1235.39 678.904 1235.19 680.104 1235.19C684.105 1235.19 687.005 1236.29 688.706 1238.49C690.406 1240.69 691.306 1243.49 691.306 1246.89V1260.39C691.306 1266.59 690.106 1271.09 687.706 1273.99C685.205 1276.99 681.504 1278.49 676.503 1278.49Z" />
<path d="M725.61 1277.89L715.108 1249.79C714.408 1251.29 713.708 1252.79 713.008 1254.29C712.308 1255.79 711.507 1257.29 710.807 1258.79V1277.79H700.705V1212.59H710.807V1238.89H711.307L723.61 1212.59H734.112C731.912 1216.99 729.711 1221.39 727.511 1225.79C725.31 1230.19 723.11 1234.59 720.909 1238.99L735.913 1277.79H725.61V1277.89Z" />
<path d="M536.473 945.113V938.014H566.979V945.113H536.473ZM536.473 958.612V951.513H566.979V958.612H536.473Z" />
<path d="M385.745 926.616V944.415H402.148V954.114H385.745V982.412H375.643V917.217H404.649V926.716H385.745V926.616Z" />
<path d="M403.449 982.309V971.01H413.951V982.309H403.449Z" />
<path d="M447.256 948.213C450.157 949.113 452.057 950.913 453.158 953.512C454.258 956.112 454.758 959.112 454.758 962.512C454.758 969.311 453.258 974.311 450.357 977.511C447.457 980.71 442.955 982.31 436.954 982.31H423.451V917.115H437.654C443.355 917.115 447.556 918.615 450.157 921.615C452.758 924.615 454.058 929.014 454.058 934.814C454.058 937.814 453.558 940.413 452.558 942.713C451.557 944.913 449.757 946.613 447.156 947.813V948.213H447.256ZM444.456 935.014C444.456 932.014 443.856 929.814 442.655 928.514C441.455 927.214 439.455 926.515 436.754 926.515H433.553V943.413H436.854C439.455 943.413 441.355 942.713 442.655 941.213C443.856 939.814 444.456 937.714 444.456 935.014ZM445.056 961.712C445.056 958.612 444.456 956.412 443.356 954.912C442.255 953.412 440.255 952.713 437.454 952.713H433.653V972.911H437.654C439.255 972.911 440.555 972.611 441.555 972.011C442.555 971.411 443.256 970.611 443.756 969.611C444.256 968.611 444.656 967.411 444.756 966.011C444.956 964.612 445.056 963.212 445.056 961.712Z" />
<path d="M463.562 982.309V971.01H474.065V982.309H463.562Z" />
<path d="M644.998 926.018C643.598 926.118 642.398 926.718 641.497 928.118C640.597 929.418 640.197 931.818 640.197 935.118L630.295 934.018C630.295 928.418 631.595 924.119 634.296 921.119C636.996 918.119 640.597 916.619 645.098 916.619C650.299 916.619 654 918.019 656.301 920.819C658.501 923.619 659.701 927.318 659.701 932.018C659.801 934.918 659.501 937.418 658.801 939.717C658.101 942.017 657.201 944.417 655.8 946.917L642.598 972.915H659.001V982.414H630.795V973.615C633.596 968.315 636.396 963.016 639.097 957.716C641.797 952.416 644.598 947.117 647.299 941.817C648.199 940.217 648.699 938.617 648.899 937.018C649.099 935.418 649.199 933.718 649.199 932.018C649.199 931.418 649.199 930.818 649.099 930.118C648.999 929.418 648.799 928.818 648.499 928.218C648.199 927.618 647.699 927.218 647.198 926.718C646.698 926.218 645.898 926.018 644.998 926.018Z" />
<path d="M693.712 982.315L683.21 954.217C682.51 955.717 681.81 957.216 681.109 958.716C680.409 960.216 679.609 961.716 678.909 963.216V982.215H668.807V917.02H678.909V943.318H679.409L691.712 917.02H702.214C700.013 921.419 697.813 925.819 695.613 930.219C693.412 934.618 691.212 939.018 689.011 943.418L704.014 982.215H693.712V982.315Z" />
<path d="M539.238 460.292C539.638 460.992 539.538 461.593 539.138 462.293C538.839 462.693 538.539 463.093 538.239 463.493C536.44 465.493 534.642 467.494 532.844 469.394C532.444 469.794 532.044 470.294 531.545 470.494C531.045 470.794 530.546 470.794 530.046 470.594C529.546 470.394 529.047 469.994 528.647 469.594C527.049 468.294 525.45 467.094 523.652 466.094C518.756 462.993 513.46 460.992 507.765 459.992C502.769 459.092 497.774 458.792 492.778 459.092C490.58 459.192 488.482 459.392 486.283 459.692C484.985 459.892 483.686 460.092 482.287 460.292C481.787 460.392 481.288 460.392 480.788 460.392C479.989 460.392 479.289 459.992 478.89 459.292C478.69 458.992 478.59 458.592 478.49 458.192C477.791 455.991 477.191 453.791 476.592 451.591C476.492 451.291 476.492 450.99 476.392 450.69C476.192 449.09 475.992 448.99 477.791 448.09C479.389 447.29 481.088 446.69 482.687 445.889C486.983 443.789 490.88 441.289 494.576 438.288C501.271 432.787 506.266 426.085 509.664 418.184C511.062 414.883 512.261 411.583 513.161 408.082C513.26 407.582 513.46 407.082 513.56 406.582C513.66 406.081 513.96 405.681 514.359 405.381C514.659 405.181 514.859 404.981 515.259 405.081C515.658 405.081 516.158 405.181 516.557 405.281C518.955 405.681 521.354 406.181 523.652 406.582C524.051 406.682 524.551 406.782 524.95 406.982C525.65 407.282 526.049 407.782 526.149 408.582C526.149 409.182 526.149 409.682 526.149 410.282C526.149 412.283 526.049 414.383 526.049 416.384C526.049 418.284 526.049 420.184 526.149 422.085C526.449 428.486 527.348 434.887 529.247 441.088C531.145 447.29 533.943 452.991 537.739 458.292C538.339 458.892 538.838 459.592 539.238 460.292ZM466.8 453.491C466.7 453.191 466.6 452.891 466.5 452.591C466.201 451.791 465.601 451.19 464.602 451.19C464.202 451.19 463.703 451.19 463.303 451.19C460.406 451.29 457.408 451.19 454.511 450.99C451.613 450.69 448.716 450.29 445.818 449.59C436.126 447.29 427.734 442.489 420.64 435.487C418.741 433.587 416.943 431.587 415.244 429.486C414.945 429.086 414.645 428.686 414.245 428.286C413.946 427.886 413.546 427.786 413.046 427.786C412.447 427.786 411.947 427.886 411.448 428.286C411.248 428.486 411.048 428.586 410.848 428.786C409.249 430.186 407.651 431.487 406.052 432.887C405.652 433.187 405.253 433.587 404.953 433.987C404.054 434.987 403.754 436.188 404.154 437.588C404.454 438.488 404.753 439.388 405.253 440.188C406.352 442.289 407.551 444.489 408.65 446.59C411.647 452.391 414.145 458.392 415.944 464.593C417.542 470.094 418.342 475.695 418.342 481.697C418.342 482.197 418.242 482.897 418.242 483.697C418.142 484.797 418.142 485.897 418.042 486.898C417.942 488.098 418.541 488.798 419.541 489.298C419.64 489.398 419.74 489.398 419.84 489.498C422.738 490.698 425.735 491.899 428.633 493.099C429.132 493.299 429.732 493.399 430.331 493.499C431.131 493.599 431.431 493.499 431.73 492.799C432.03 492.099 432.33 491.399 432.629 490.698C433.329 488.898 434.228 487.198 435.127 485.597C438.025 480.696 441.722 476.696 446.617 473.795C447.517 473.295 448.316 472.695 449.215 472.195C453.212 469.894 457.208 467.794 461.305 465.693C463.103 464.793 464.802 463.893 466.6 462.993C467 462.793 467.4 462.593 467.699 462.293C468.299 461.893 468.499 461.293 468.499 460.692C468.499 460.292 468.399 459.792 468.299 459.392C467.899 457.392 467.3 455.391 466.8 453.491ZM545.932 362.573C544.833 360.672 543.634 358.772 542.435 356.872C541.936 356.071 541.436 355.371 540.937 354.671C540.237 353.671 539.338 353.071 538.139 352.771C537.44 352.571 536.74 352.571 536.041 352.571C532.943 352.471 529.946 352.171 526.949 351.671C523.152 351.07 519.455 350.27 515.758 349.27C510.463 347.87 505.267 346.169 500.172 344.369C497.374 343.369 494.676 342.369 491.879 341.368C491.279 341.168 490.68 340.968 490.08 340.968C489.581 340.968 489.081 341.168 488.781 341.569C488.681 341.669 488.581 341.769 488.581 341.869C487.582 343.469 486.583 345.069 485.584 346.67C485.484 346.87 485.384 347.07 485.284 347.37C485.084 348.07 485.284 348.87 485.884 349.27C486.583 349.77 487.383 350.17 488.182 350.67C492.378 353.171 496.175 356.071 499.572 359.572C505.567 365.673 509.763 372.875 512.261 381.076C513.56 385.177 514.359 389.378 514.559 393.579C514.559 394.079 514.659 394.579 514.759 395.079C514.959 396.079 515.458 396.68 516.458 396.88C516.957 396.98 517.457 397.08 517.956 397.18C520.054 397.58 522.053 397.98 524.151 398.28C524.651 398.38 525.15 398.38 525.45 398.48C526.749 398.48 527.348 398.08 527.648 397.08C527.748 396.78 527.848 396.479 527.948 396.179C528.048 395.479 528.248 394.779 528.347 394.079C528.847 391.679 529.247 389.178 529.846 386.778C530.646 383.777 531.545 380.776 532.844 377.876C533.543 376.275 534.442 374.675 535.441 373.175C537.539 370.174 540.337 367.974 543.834 366.774C544.234 366.674 544.533 366.574 544.933 366.373C545.633 366.073 546.332 365.673 546.931 365.373C547.331 365.173 547.431 364.973 547.231 364.573C546.632 364.073 546.332 363.273 545.932 362.573ZM576.506 404.381C576.906 406.982 577.206 409.582 577.505 412.183C577.905 416.784 578.005 421.485 577.905 426.085C577.805 429.186 577.505 432.187 577.206 435.187C576.606 440.588 575.507 445.889 574.008 451.09C568.113 471.695 557.223 488.998 541.137 503.201C535.242 508.402 528.947 512.803 522.153 516.604C520.454 517.604 518.756 518.604 517.057 519.604C516.158 520.104 515.259 520.604 514.259 520.904C509.863 522.505 505.567 524.105 501.171 525.705C499.772 526.206 498.373 526.606 496.974 526.806C493.777 527.406 490.58 527.906 487.383 528.506C484.585 529.006 481.687 529.306 478.89 529.606C475.293 529.906 471.696 530.006 467.999 529.906C464.402 529.906 460.905 529.606 457.308 529.206C451.313 528.506 445.518 527.306 439.723 525.705C421.939 520.504 406.452 511.403 393.363 498.4C379.475 484.597 370.183 468.194 365.387 449.19C364.288 444.989 363.489 440.788 362.889 436.488C362.09 430.886 361.79 425.185 361.89 419.484C361.89 416.284 362.09 413.083 362.49 409.982C363.389 401.781 365.187 393.779 367.885 385.977C376.577 361.673 392.064 342.869 413.945 329.266C423.238 323.565 433.229 319.464 443.72 316.764C447.717 315.763 451.713 315.063 455.71 314.563C460.006 314.063 465.701 313.563 470.697 313.563C473.395 313.663 476.991 313.763 480.588 314.163C493.777 315.463 506.266 319.164 518.156 325.065C537.939 334.967 553.326 349.57 564.117 368.974C564.916 370.374 565.616 371.775 566.315 373.175C566.715 373.975 567.114 374.775 567.714 375.475C568.313 376.175 568.613 376.976 568.913 377.876C570.511 382.277 572.11 386.578 573.708 390.978C574.008 391.879 574.308 392.779 574.308 393.779C574.308 394.279 574.408 394.779 574.508 395.279C575.307 398.28 576.007 401.38 576.506 404.381ZM571.41 411.883C571.011 407.982 570.411 404.181 569.612 400.38C568.413 394.879 566.615 389.478 564.616 384.177C563.218 380.676 561.719 377.276 560.02 373.875C559.421 372.775 558.821 371.675 558.022 370.574C556.823 369.074 555.424 367.974 553.626 367.374C553.226 367.274 552.926 367.174 552.527 366.974C551.328 366.574 550.429 365.873 549.629 364.773C549.33 364.373 549.13 364.073 548.93 363.673C547.331 361.072 545.832 358.572 544.234 355.971C544.034 355.671 543.834 355.271 543.634 354.971C543.335 354.271 543.235 353.471 543.734 352.771C543.934 352.471 544.234 352.271 544.034 351.871C543.734 351.47 543.334 351.07 542.935 350.67C540.237 347.77 537.24 344.969 534.143 342.469C524.151 334.367 512.961 328.466 500.671 324.565C494.077 322.465 487.383 320.964 480.588 320.264C478.19 319.964 475.792 319.864 473.395 319.764C470.897 319.664 468.399 319.664 465.901 319.764C462.604 319.964 459.306 320.264 456.009 320.764C454.81 320.964 453.512 321.064 452.213 321.565C452.313 321.765 452.313 321.965 452.413 322.065C453.012 322.565 453.512 323.065 454.111 323.565C457.408 326.265 461.005 328.366 464.802 330.166C466.201 330.866 467.699 331.466 469.198 332.067C472.296 333.367 475.393 334.667 478.49 335.967C479.289 336.267 479.989 336.668 480.688 337.068C481.488 337.468 481.787 338.368 481.487 339.168C480.888 340.768 479.989 342.269 478.79 343.469C477.991 344.269 476.991 344.769 475.892 344.769C474.993 344.769 474.094 344.769 473.195 344.569C472.296 344.469 471.296 344.269 470.397 344.069C467.6 343.569 464.702 343.269 461.904 343.169C459.506 343.069 457.208 343.169 454.81 343.469C451.613 343.769 448.416 344.369 445.318 345.269C439.623 346.97 434.228 349.47 429.332 352.771C428.033 353.671 426.734 354.571 425.436 355.471C424.836 355.871 424.137 356.271 423.437 356.672C422.138 357.272 420.839 357.272 419.541 356.772C418.142 356.171 416.943 355.171 415.944 353.971C415.744 353.771 415.644 353.371 415.644 353.071C415.644 352.571 415.744 352.071 416.144 351.671C416.643 351.07 417.143 350.47 417.642 349.97C419.84 347.57 421.939 345.169 424.137 342.669C426.435 340.068 428.733 337.368 430.731 334.567C431.73 333.267 432.629 331.867 433.429 330.466C434.028 329.366 434.628 328.266 435.027 327.066C435.127 326.866 435.127 326.565 435.227 326.365C435.327 326.065 435.027 325.865 434.827 325.965C434.428 326.065 434.028 326.265 433.529 326.365C427.534 328.566 421.839 331.366 416.443 334.667C408.55 339.468 401.456 345.269 395.161 351.971C390.865 356.471 387.068 361.372 383.971 366.674C381.973 370.174 379.875 373.775 377.876 377.276C377.377 378.176 376.877 379.076 376.478 379.976C374.479 384.177 372.98 388.478 372.381 393.079C372.181 394.579 372.081 395.979 372.181 397.48C372.181 397.58 372.281 397.68 372.281 397.78C372.381 397.68 372.481 397.58 372.481 397.48C372.681 396.78 372.781 396.079 372.881 395.379C372.98 394.779 373.18 394.179 373.28 393.479C373.48 392.279 374.179 391.378 375.179 390.678C375.678 390.378 376.178 390.078 376.577 389.778C383.471 385.277 389.766 380.276 395.661 374.475C399.058 371.174 402.156 367.674 405.153 363.973C405.852 363.173 406.552 362.273 407.251 361.473C407.451 361.172 407.751 361.072 408.05 361.072C408.65 360.972 409.15 361.072 409.749 361.272C411.248 362.073 412.647 362.773 414.145 363.573C414.545 363.773 414.745 364.173 414.845 364.673C414.945 365.073 414.945 365.573 414.745 365.973C414.545 366.474 414.345 366.874 414.145 367.374C413.046 369.574 411.947 371.675 410.948 373.875C410.249 375.275 409.649 376.676 409.049 378.076C406.951 383.177 405.553 388.478 405.153 393.979C404.653 400.78 405.453 407.482 407.651 413.983C407.951 414.983 408.25 415.883 408.65 416.884C408.95 417.584 408.95 418.384 408.95 419.184C408.95 420.084 408.65 420.984 408.05 421.585C407.651 421.985 407.251 422.385 406.752 422.785C405.553 423.785 404.354 424.685 403.155 425.685C402.755 426.085 402.255 426.385 401.856 426.786C401.556 426.986 401.356 427.186 401.056 427.286C400.557 427.486 400.057 427.486 399.558 427.186C399.258 426.986 398.958 426.786 398.659 426.486C398.359 426.085 398.059 425.685 397.859 425.185C396.66 423.285 395.461 421.284 394.262 419.284C393.363 417.784 392.464 416.384 391.465 414.983C390.366 413.283 389.067 411.683 387.568 410.282C385.47 408.282 383.072 406.682 380.274 405.881C378.476 405.281 376.577 405.081 374.679 404.981C374.279 404.981 373.78 404.981 373.38 404.981C372.381 404.881 371.782 404.281 371.682 403.281C371.682 403.081 371.682 402.781 371.682 402.581C371.482 402.581 371.282 402.581 371.282 402.781C370.583 404.681 369.683 406.582 369.184 408.482C368.884 409.482 368.684 410.482 368.584 411.483C368.384 413.283 368.285 415.083 368.185 416.784C367.985 423.885 368.185 430.886 369.184 437.988C369.783 441.689 370.383 445.289 371.382 448.89C374.579 460.792 379.775 471.695 387.068 481.597C391.564 487.798 396.76 493.399 402.355 498.6C403.255 499.4 404.154 500.2 405.053 501C405.652 501.501 406.352 502.001 407.151 502.301C410.149 503.501 413.146 502.301 414.545 499.7C414.944 499 415.144 498.3 415.444 497.6C415.744 496.8 415.944 495.899 416.244 494.999C416.443 494.499 416.543 493.899 416.843 493.399C417.143 492.699 417.742 492.399 418.541 492.399C419.041 492.399 419.541 492.599 419.94 492.899C422.238 494.099 424.437 495.199 426.735 496.4C427.234 496.6 427.634 496.9 428.033 497.2C429.132 498 429.832 499 430.132 500.3C430.231 500.8 430.331 501.301 430.331 501.801C430.831 506.402 432.729 510.202 436.026 513.403C437.026 514.303 438.025 515.203 439.124 516.003C444.219 519.704 449.815 522.105 456.109 523.005C459.606 523.505 463.103 523.805 466.6 523.905C472.196 524.105 477.791 523.905 483.386 523.105C487.283 522.605 491.079 521.905 494.776 520.904C500.172 519.504 505.367 517.704 510.463 515.603C513.56 514.303 516.657 512.903 519.555 511.203C521.353 510.202 523.052 509.102 524.651 507.902C528.947 504.601 532.244 500.4 534.342 495.299C534.842 494.099 535.242 492.899 535.641 491.699C535.941 490.698 536.241 489.698 536.44 488.698C536.94 486.097 536.84 483.597 535.741 481.197C535.441 480.396 535.141 479.696 534.942 478.896C534.242 476.296 534.542 473.795 536.041 471.595C536.54 470.894 537.04 470.094 537.64 469.494C538.938 468.094 540.337 466.794 541.636 465.393C541.736 465.293 541.936 465.193 542.136 465.093C543.035 465.293 543.734 465.793 544.434 466.394C545.333 467.194 546.232 467.994 547.231 468.694C550.428 470.994 553.926 471.395 557.522 469.794C560.02 468.594 561.919 466.794 562.918 464.193C563.917 461.693 564.916 459.192 565.815 456.692C569.612 446.089 571.71 435.187 572.01 423.985C572.01 419.984 571.81 415.883 571.41 411.883ZM934 202.541V1270.25C933.7 1271.35 933.3 1272.36 933.101 1273.46C932.701 1275.66 932.501 1277.86 931.902 1280.06C930.303 1285.76 928.005 1291.26 925.008 1296.36C919.612 1305.56 912.418 1313.26 903.926 1319.66C892.336 1328.47 879.447 1334.77 865.858 1339.47C856.766 1342.57 847.674 1345.37 838.482 1348.07C805.81 1357.47 773.138 1366.77 740.366 1375.98C683.914 1391.88 628.562 1410.78 574.508 1433.59C555.824 1441.49 537.34 1449.89 519.455 1459.39C501.87 1468.79 485.884 1480.4 470.297 1492.7C469.498 1493.3 468.798 1493.9 468.898 1495H467C465.701 1493.6 464.602 1492.1 463.203 1490.8C447.417 1476.5 429.632 1465.39 410.748 1455.89C384.771 1442.89 357.993 1431.59 330.917 1420.99C280.46 1401.28 228.904 1384.98 176.849 1370.27C157.465 1364.77 138.082 1359.57 118.798 1353.87C100.913 1348.47 83.3286 1342.37 65.4439 1336.87C48.6583 1331.77 34.5703 1322.57 22.3807 1310.16C13.2885 1300.96 7.19379 1290.06 4.19636 1277.46C2.49781 1270.25 1.69864 1262.95 1.59873 1255.55C1.49881 1251.55 1.59873 1247.55 1.59873 1243.55C1.59873 1242.45 1.59863 1241.35 1.49872 1240.15C1.3988 1239.35 0 202.541 0 202.541C2.99743 202.241 5.99496 201.84 9.09231 201.74C19.8831 201.34 30.3739 199.34 40.6651 196.339C56.7513 191.538 71.4388 184.037 85.127 174.335C98.3157 164.933 111.305 155.531 124.293 145.929C150.171 126.825 175.849 107.622 201.727 88.6178C221.31 74.2149 241.693 60.9122 263.075 49.4099C275.164 42.9086 287.554 37.0074 300.543 32.4065C317.528 26.4053 335.113 23.2047 353.097 23.2047C360.091 23.2047 365.287 26.1052 368.484 32.6065C369.983 35.6071 371.781 38.5077 373.88 41.1082C382.672 52.0104 394.062 56.2113 407.851 54.1109C412.347 53.4107 416.443 51.6104 420.24 49.3099C432.23 42.1084 442.221 32.9066 450.814 22.0044C455.51 16.1032 459.706 9.90199 464.202 3.90078C465.202 2.5005 466.001 0.900181 467.499 0C469.298 0.60012 469.997 2.10042 470.996 3.40068C477.091 11.0022 483.186 18.6037 489.381 26.2053C494.077 32.1064 499.472 37.3075 505.367 42.0084C509.663 45.4091 514.16 48.4097 519.055 50.8102C523.651 53.1107 528.547 54.811 533.743 54.911C547.931 55.1111 558.521 48.8098 565.915 36.8074C566.814 35.3071 567.514 33.7068 568.413 32.2065C570.911 27.8056 574.708 25.105 579.604 24.0048C583.7 23.0046 587.896 23.3047 591.993 23.6047C608.978 24.805 625.464 28.4057 641.351 34.5069C655.339 40.008 668.727 46.8094 681.816 54.2109C704.496 67.0134 725.978 81.8164 746.76 97.5196C774.936 118.824 803.112 140.028 831.888 160.532C840.48 166.633 848.973 172.935 857.865 178.636C879.747 192.739 903.526 201.34 929.903 201.84C931.202 201.64 932.601 202.241 934 202.541ZM859.864 217.044C852.17 255.751 844.577 294.459 836.883 333.167C829.589 369.974 822.296 406.882 814.802 443.689C813.703 449.19 813.703 454.391 815.002 459.792C822.895 492.699 838.682 521.005 863.261 544.409C878.647 559.012 896.132 570.214 915.716 578.216C916.815 578.716 917.914 579.616 919.512 578.316V570.414C919.512 455.091 919.512 339.768 919.512 224.445C919.512 222.845 919.512 221.244 919.512 219.644C919.512 218.744 919.312 217.844 919.113 216.643C909.521 214.943 900.129 213.343 890.937 210.542C881.645 207.742 872.752 203.841 863.261 199.54C862.761 201.84 862.261 203.541 861.962 205.241C861.362 209.242 860.663 213.143 859.864 217.044ZM810.506 169.934C808.507 179.936 806.509 190.038 804.611 200.04C798.716 229.946 792.721 259.952 786.726 289.858C786.127 292.759 786.326 295.459 787.326 298.26C789.823 304.661 792.121 311.162 794.22 317.664C804.211 348.77 809.607 380.676 810.306 413.383C810.506 420.084 810.806 426.786 811.105 433.487C811.105 434.187 811.305 434.887 811.405 435.687C813.004 434.987 812.804 433.787 813.004 432.687C815.801 418.884 818.499 405.081 821.297 391.278C825.593 369.474 829.889 347.67 834.285 325.865C838.881 302.861 843.477 279.756 847.974 256.751C851.57 238.548 855.267 220.344 858.864 202.241C859.164 200.54 859.863 198.84 859.264 197.54C849.672 190.938 840.38 184.637 831.188 178.336C825.693 174.535 820.297 170.534 814.802 166.633C813.903 166.033 813.003 165.533 811.705 164.833C811.305 166.933 810.805 168.434 810.506 169.934ZM761.348 132.827C756.952 154.731 752.655 176.635 748.259 198.64C747.16 204.241 746.061 209.942 744.962 215.543C744.462 218.044 744.862 220.144 746.361 222.345C760.249 241.448 771.739 261.853 781.331 283.357C781.73 284.357 782.33 285.257 782.829 286.257C792.022 245.049 800.115 203.741 808.308 162.233C793.92 151.43 779.532 140.828 765.145 130.126C764.445 129.526 763.546 129.126 762.347 128.426C761.947 130.126 761.648 131.526 761.348 132.827ZM708.593 93.8188C705.096 111.322 701.599 128.926 698.102 146.429C697.103 151.33 696.204 156.131 695.205 161.032C694.605 163.733 695.105 165.833 697.403 167.734C701.299 171.034 704.896 174.635 708.593 178.236C719.384 188.738 729.275 199.94 738.567 211.842C739.167 212.643 740.066 213.243 741.065 214.243C741.465 212.843 741.865 212.043 742.064 211.142C747.46 184.037 752.855 156.931 758.25 129.826C758.55 128.326 759.05 126.725 758.25 125.125C747.46 116.123 715.787 93.1187 709.692 89.918C709.292 91.4183 708.793 92.6186 708.593 93.8188ZM230.702 169.334C230.702 170.434 230.702 171.534 230.702 172.735C230.702 173.535 230.603 174.335 231.901 174.635C233.001 173.735 234.199 172.635 235.298 171.534C261.076 147.43 289.952 127.926 321.824 112.723C359.292 94.919 398.758 84.3169 440.023 80.8162C456.309 79.4159 472.595 79.2159 488.881 80.4161C505.667 81.6164 522.253 83.7168 538.639 87.2175C583.101 96.6194 624.065 114.123 661.633 139.728C670.526 145.729 679.018 152.231 687.311 159.032C688.31 159.932 689.21 161.232 691.008 160.932C691.208 160.332 691.508 159.832 691.608 159.232C696.304 135.827 700.9 112.523 705.496 89.1179C705.596 88.5178 705.496 87.8176 705.496 86.9174C704.796 86.3173 704.297 85.9172 703.797 85.5172C688.61 75.4151 673.024 66.0132 656.737 57.8116C639.852 49.3099 622.367 42.4085 603.383 39.808C597.188 38.9078 590.994 38.2077 584.799 38.3077C582.601 38.3077 581.402 39.2079 580.403 41.2083C576.106 49.91 569.712 56.8114 561.619 61.9124C549.829 69.4139 537.04 71.3143 523.452 68.4137C517.956 67.2135 512.861 64.913 507.965 62.1125C496.774 55.6112 487.183 47.2095 478.79 37.5075C475.792 34.0068 472.895 30.3061 469.898 26.8054C469.298 26.1052 468.599 25.6051 467.799 24.805C466.7 26.0052 465.901 26.9054 465.102 27.9056C462.404 31.1062 459.806 34.3069 457.108 37.4075C448.416 47.6095 438.325 56.1113 426.735 62.8126C417.043 68.4137 406.652 70.7142 395.461 69.3139C383.272 67.8136 372.881 62.7126 364.488 53.7108C361.291 50.3101 358.593 46.5093 356.295 42.5085C355.496 41.1082 354.596 39.808 353.897 38.7078C347.502 38.1076 340.109 38.5077 332.615 39.708C318.127 42.0084 304.339 46.3093 291.051 52.3105C270.868 61.4123 251.884 72.5145 233.5 84.717C232.601 85.3171 231.801 86.1173 230.702 86.9174V92.1185C230.702 117.824 230.702 143.529 230.702 169.334ZM219.412 97.6196C219.412 96.9194 219.312 96.1193 219.112 95.1191C216.714 95.8192 215.216 97.2195 213.517 98.4197C201.128 107.522 188.938 116.723 176.549 125.825C149.472 145.729 122.495 165.633 95.3183 185.337C89.6231 189.438 83.6285 193.239 77.5337 196.739C61.0478 206.141 43.4628 212.643 24.479 215.343C22.0811 215.643 19.7831 216.143 16.7857 216.643V222.745C16.7857 566.314 16.7857 909.883 16.7857 1253.45C16.7857 1256.65 16.8855 1259.85 16.9855 1263.05C17.6849 1276.16 22.281 1287.76 31.0735 1297.46C41.0649 1308.56 53.1545 1316.86 67.4422 1321.57C82.929 1326.67 98.3159 1331.87 114.002 1336.57C135.084 1342.87 156.366 1348.77 177.548 1354.77C189.937 1358.37 202.427 1361.97 214.816 1365.47C216.115 1365.87 217.514 1366.67 218.913 1365.97C219.712 1361.07 220.112 124.425 219.412 97.6196ZM230.702 333.767C230.702 393.279 230.702 452.791 230.702 512.403C230.702 530.606 230.702 548.91 230.503 567.114C230.503 571.115 231.402 574.515 233.7 577.916C240.394 587.718 247.388 597.22 255.181 606.122C255.981 607.122 256.88 607.922 257.879 609.022H263.174C280.56 609.022 298.045 609.022 315.43 609.022C321.225 609.022 326.92 609.022 332.715 609.022C333.414 609.022 334.314 609.222 334.613 608.122C334.413 607.922 334.214 607.622 333.914 607.422C332.815 606.522 331.616 605.721 330.517 604.821C309.735 589.018 291.85 570.314 277.662 548.31C254.682 512.803 241.793 473.895 240.194 431.487C239.495 414.783 240.494 398.18 243.591 381.777C252.784 332.867 274.964 290.658 311.133 256.351C353.697 216.043 404.653 195.539 463.003 193.239C479.989 192.539 496.774 194.439 513.46 197.74C543.834 203.741 571.81 215.343 597.388 232.747C632.358 256.451 658.336 287.958 676.121 326.265C688.71 353.471 695.604 381.977 697.003 411.983C697.403 419.984 697.303 427.986 697.802 435.987C698.602 449.39 700.2 462.793 702.698 475.995C710.791 518.804 728.176 557.612 754.254 592.519C758.45 598.12 763.046 603.521 767.343 608.922H844.776L845.076 608.122C843.977 607.222 842.878 606.322 841.779 605.521C812.104 583.217 789.124 555.211 773.038 521.805C759.449 493.599 752.056 463.893 750.657 432.587C750.157 421.685 749.658 410.882 749.058 399.98C747.859 379.976 744.063 360.272 738.268 341.168C720.283 282.457 687.211 234.147 638.153 197.04C594.591 164.133 545.333 145.729 490.979 141.028C478.19 139.928 465.401 139.828 452.612 140.628C433.229 141.728 414.145 144.729 395.461 150.03C327.719 169.134 273.765 207.242 234.199 265.753C231.602 269.554 230.503 273.355 230.603 277.856C230.702 296.259 230.702 314.963 230.702 333.767ZM685.213 608.722C687.311 608.822 689.31 609.022 691.408 608.522C691.308 606.622 690.109 605.621 688.61 604.121C687.211 605.521 685.813 606.422 685.213 608.722ZM686.412 599.82C684.014 595.519 681.616 591.319 679.318 587.118C677.02 582.917 674.822 578.716 672.724 574.415C670.526 570.014 668.627 565.413 666.429 561.013C664.331 556.712 663.032 552.111 660.234 547.41C658.836 549.31 657.937 550.61 657.037 551.911C651.142 560.612 644.548 568.914 637.454 576.716C627.662 587.518 616.872 597.22 605.182 605.822C604.083 606.622 602.784 607.222 602.084 608.922H679.518C681.816 605.721 684.714 603.221 686.412 599.82ZM693.906 604.621C694.805 605.922 695.704 607.322 696.703 608.822C717.985 608.822 739.167 608.822 760.449 608.822C760.848 608.822 761.248 608.522 762.047 608.322C761.548 607.622 761.348 607.122 760.948 606.622C758.65 603.721 756.252 600.92 754.054 598.02C726.977 563.013 708.993 523.905 699.9 480.596C695.704 460.992 694.205 440.988 693.706 420.984C693.406 407.382 692.407 393.879 689.709 380.476C680.417 333.267 658.936 292.459 624.066 259.252C583.8 220.944 535.541 200.54 480.189 196.94C460.306 195.639 440.523 197.44 421.139 201.84C376.977 211.742 338.81 232.547 307.237 265.353C265.273 309.062 244.79 361.573 243.591 421.885C243.292 439.888 245.59 457.692 249.986 475.095C263.774 529.206 292.749 573.115 338.41 605.721C341.507 607.922 344.705 608.922 348.601 608.922C428.533 608.822 508.464 608.822 588.396 608.822C589.395 608.822 590.294 608.722 591.294 608.822C593.292 609.022 594.99 608.222 596.589 607.122C620.768 590.318 641.051 569.614 657.037 544.809C657.637 543.909 658.136 542.909 658.736 541.809C648.145 513.503 641.551 484.297 638.553 453.591C637.254 455.491 637.054 456.992 636.755 458.492C633.457 473.195 628.462 487.398 621.667 500.8C598.987 545.209 549.729 591.719 471.996 594.019C456.209 594.519 440.722 592.419 425.535 588.418C394.062 580.016 366.586 564.713 344.405 540.708C305.438 498.7 290.251 449.09 299.443 392.579C305.338 356.271 321.924 325.065 348.102 299.26C376.777 270.954 411.547 254.951 451.513 250.65C471.696 248.45 491.679 250.25 511.462 255.251C560.919 267.954 602.284 301.961 623.966 347.97C634.057 369.374 639.652 391.879 640.551 415.483C640.851 423.585 641.051 431.787 641.451 439.888C642.15 455.591 644.048 471.094 647.046 486.498C655.339 528.906 670.925 568.214 693.906 604.621ZM469.498 253.651C374.379 252.951 300.543 329.966 300.543 421.885C300.343 513.803 373.88 589.518 467.499 590.218C561.719 590.919 636.255 515.503 636.755 422.185C637.154 331.166 564.516 254.351 469.498 253.651ZM230.802 595.219C230.902 599.62 230.503 604.021 231.302 608.422C232.001 608.622 232.401 608.822 232.901 608.822C238.895 608.822 244.99 608.822 250.985 608.722C251.185 608.722 251.285 608.722 251.485 608.622C251.584 608.522 251.584 608.322 251.684 608.222C251.684 608.122 251.784 607.922 251.684 607.822C245.19 599.32 238.795 590.919 232.301 582.417C232.101 582.217 231.801 582.017 230.802 581.317C230.702 586.418 230.702 590.818 230.802 595.219ZM919.612 1258.05C919.512 1095.92 919.612 933.887 919.612 771.755V766.654C917.014 765.954 914.916 766.154 912.818 766.154C687.911 766.154 463.003 766.154 238.096 766.154C236.697 766.154 235.199 766.054 233.8 766.154C232.9 766.254 232.001 766.554 231.202 766.754C231.002 767.454 230.802 767.854 230.802 768.354C230.802 968.094 230.802 1167.73 230.802 1367.47C230.802 1368.27 231.002 1369.07 231.102 1369.87C232.701 1371.08 234.599 1371.38 236.398 1371.98C256.68 1378.68 277.063 1385.18 297.245 1392.28C336.012 1405.88 374.079 1421.29 411.048 1439.09C430.531 1448.49 449.115 1459.39 465.901 1473.1C466.6 1473.7 467.499 1474.2 468.299 1474.7C469.598 1473.8 470.797 1473 471.896 1472.1C483.086 1463.29 494.976 1455.59 507.465 1448.49C525.35 1438.39 543.934 1429.99 562.718 1421.89C615.772 1399.18 670.226 1380.18 725.678 1364.17C761.748 1353.77 797.916 1343.67 833.986 1333.47C846.475 1329.97 858.764 1326.17 870.654 1320.97C879.746 1317.06 888.439 1312.26 896.232 1306.06C911.719 1293.96 919.612 1278.06 919.612 1258.05ZM919.612 620.724C916.815 620.024 914.517 620.324 912.319 620.324C690.509 620.324 468.599 620.324 246.789 620.424C243.392 620.424 240.094 620.424 236.697 620.424C235.698 620.424 234.799 620.324 233.8 620.424C232.9 620.524 232.001 620.724 230.802 620.925C230.702 622.525 230.702 623.925 230.702 625.325C230.702 666.134 230.702 706.942 230.702 747.75C230.702 749.15 230.602 750.651 230.702 752.051C230.802 752.951 231.102 753.851 231.302 754.951C233.5 754.951 235.598 755.051 237.696 755.051C462.604 755.051 687.511 755.051 912.418 755.051C913.817 755.051 915.316 755.151 916.715 754.951C917.614 754.851 918.413 754.451 919.512 754.151C919.612 709.642 920.012 665.333 919.612 620.724ZM919.313 583.817C917.614 583.117 916.015 582.417 914.417 581.717C848.773 555.111 809.706 493.499 807.109 429.186C806.809 421.785 806.709 414.483 806.309 407.082C805.71 397.78 805.31 388.578 804.111 379.376C801.214 356.171 795.918 333.467 788.125 311.362C766.743 250.15 731.174 198.84 680.617 158.432C618.87 109.222 548.23 84.3169 469.298 83.4167C449.115 83.2167 429.033 85.0171 409.25 88.5178C385.87 92.6186 363.289 99.3199 341.308 108.222C301.142 124.525 265.473 147.73 234.199 177.836C230.403 181.536 230.702 179.936 230.702 186.137C230.702 198.64 230.702 211.142 230.702 223.545C230.702 235.347 230.702 247.25 230.702 259.052C230.702 260.052 230.203 261.252 231.701 262.153C232.701 260.752 233.8 259.352 234.799 257.952C263.374 217.244 300.043 186.237 344.805 164.733C377.677 148.93 412.347 139.528 448.815 137.027C467.4 135.727 485.884 136.227 504.268 138.528C524.651 141.028 544.434 145.829 563.817 152.731C604.182 167.134 639.752 189.238 670.126 219.544C699.9 249.25 721.782 284.057 736.469 323.465C746.261 349.77 751.656 376.976 753.554 404.881C754.254 414.583 753.654 424.385 754.554 434.087C755.353 443.789 756.252 453.491 757.951 463.093C762.247 487.298 770.64 509.902 782.53 531.407C799.115 561.613 821.596 586.618 849.872 606.422C851.97 607.922 854.068 608.922 856.866 608.922C876.349 608.822 895.833 608.822 915.416 608.822C916.615 608.822 917.914 608.622 919.013 608.522C919.912 604.321 920.112 594.219 919.313 583.817Z" fill="url(#paint0_linear)"/>
<defs>
<linearGradient id="paint0_linear" x1="-37.6677" y1="240.009" x2="973.995" y2="1250.6" gradientUnits="userSpaceOnUse">
<stop offset="0.044944" stop-color="#467572"/>
<stop offset="0.1405" stop-color="#81907F"/>
<stop offset="0.2953" stop-color="#DCBA93"/>
<stop offset="0.3698" stop-color="#DABA92"/>
<stop offset="0.3966" stop-color="#D3B98E"/>
<stop offset="0.4157" stop-color="#C8B987"/>
<stop offset="0.4311" stop-color="#B7B87D"/>
<stop offset="0.4382" stop-color="#ACB776"/>
<stop offset="0.618" stop-color="#9D8C54"/>
<stop offset="0.9157" stop-color="#317F6A"/>
<stop offset="0.9944" stop-color="#5A7361"/>
</linearGradient>
</defs>
</svg>
