<svg width="934" height="1495" viewBox="0 0 934 1495"  xmlns="http://www.w3.org/2000/svg">
<path d="M357.288 719.729V668.033H347.697V719.729H338.305V658.934H366.78V719.729H357.288Z" />
<path d="M391.464 658.936C397.059 658.936 401.156 660.435 403.754 663.335C406.352 666.235 407.651 670.935 407.651 677.434C407.651 680.334 407.351 682.834 406.851 685.234C406.352 687.533 405.452 689.533 404.154 691.233C402.855 692.933 401.156 694.233 399.158 695.133C397.06 696.033 394.462 696.533 391.364 696.533H387.568V719.831H378.176V659.036H391.464V658.936ZM387.368 667.735V687.333H390.665C393.563 687.333 395.561 686.533 396.76 684.834C397.859 683.134 398.458 680.634 398.458 677.334C398.458 674.334 397.959 672.035 396.86 670.235C395.761 668.535 393.762 667.635 390.865 667.635H387.368V667.735Z" />
<path d="M416.137 719.731V658.936H443.113V667.735H425.529V684.334H440.815V693.333H425.529V710.932H443.113V719.731H416.137Z" />
<path d="M469.097 706.43L464.801 695.131L461.104 684.432H460.704V719.629H451.312V658.834H460.505L467.099 676.133L471.895 689.332H472.294L477.19 675.833L483.684 658.934H492.777V719.729H483.385V684.732H483.085L479.288 695.531L474.992 706.43H469.097Z" />
<path d="M503.561 719.731V658.936H512.952V682.434H516.949C520.046 682.434 522.644 682.834 524.742 683.734C526.84 684.534 528.439 685.733 529.737 687.333C530.936 688.933 531.836 690.833 532.435 693.133C532.935 695.433 533.234 697.933 533.234 700.832C533.234 707.132 531.935 711.932 529.338 715.031C526.74 718.231 522.644 719.731 517.248 719.731H503.561ZM512.952 710.832H516.549C519.447 710.832 521.445 709.932 522.444 708.032C523.543 706.132 524.043 703.732 524.043 700.832C524.043 697.533 523.443 695.033 522.344 693.533C521.245 691.933 519.247 691.233 516.349 691.233H512.952V710.832Z" />
<path d="M541.73 719.731V658.936H568.707V667.735H551.122V684.334H566.409V693.333H551.122V710.932H568.707V719.731H541.73Z" />
<path d="M590.484 658.936C596.079 658.936 600.176 660.435 602.773 663.335C605.371 666.235 606.67 670.935 606.67 677.434C606.67 680.334 606.371 682.834 605.871 685.234C605.371 687.533 604.472 689.533 603.173 691.233C601.874 692.933 600.176 694.233 598.178 695.133C596.079 696.033 593.481 696.533 590.384 696.533H586.587V719.831H577.195V659.036H590.484V658.936ZM586.487 667.735V687.333H589.784C592.682 687.333 594.68 686.533 595.879 684.834C596.979 683.134 597.578 680.634 597.578 677.334C597.578 674.334 597.079 672.035 595.979 670.235C594.88 668.435 592.882 667.635 589.985 667.635H586.487V667.735Z" />
<path d="M665.627 658.936V719.731H656.235V667.735H647.043V691.133C647.043 696.033 646.843 700.132 646.543 703.432C646.243 706.732 645.544 709.532 644.645 711.832C643.746 714.131 642.447 715.931 640.848 717.431C639.249 718.831 637.251 720.131 634.753 721.231L631.156 714.231C632.655 713.331 633.954 712.431 634.853 711.332C635.852 710.332 636.552 709.032 637.151 707.532C637.751 706.032 638.15 704.132 638.35 702.032C638.55 699.832 638.65 697.133 638.65 693.833V658.936H665.627Z" />
<path d="M698.39 681.634L685.701 719.731H676.609V658.936H685.801V697.433H686.101L698.79 658.936H707.982V719.731H698.69V681.634H698.39Z" />
<path d="M728.273 667.735V719.731H718.881V658.936H745.158V667.735H728.273Z" />
<path d="M767.839 719.729L765.441 707.03H754.251C753.851 709.13 753.452 711.23 753.052 713.33C752.652 715.43 752.353 717.529 751.953 719.629H742.361C744.36 709.43 746.458 699.331 748.456 689.232C750.454 679.132 752.553 669.033 754.551 658.834H765.042L777.331 719.629H767.839V719.729ZM759.646 672.933C759.047 677.133 758.448 681.332 757.848 685.432C757.249 689.632 756.549 693.831 755.75 698.131H764.043L760.146 672.933H759.646Z" />
<path d="M730.768 982.417C730.868 982.117 730.968 981.917 731.068 981.617C732.267 978.217 733.466 974.918 734.765 971.518C734.765 971.418 734.865 971.318 734.865 971.218C734.865 971.218 734.865 971.118 734.964 971.118C735.064 971.118 735.064 971.118 735.164 971.118C735.464 971.118 735.864 971.218 736.163 971.218C736.463 971.218 736.763 971.318 737.063 971.318C737.163 971.318 737.263 971.318 737.462 971.318C737.562 971.318 737.662 971.318 737.762 971.318C738.262 971.318 738.761 971.318 739.161 971.318C739.261 971.318 739.361 971.318 739.461 971.318C739.561 971.318 739.56 971.318 739.66 971.318C739.86 971.318 740.06 971.318 740.26 971.318C742.158 971.118 743.957 970.718 745.755 970.118C749.952 968.518 753.249 965.918 755.847 962.219C755.947 962.119 755.947 962.019 756.046 961.919V961.819C755.947 961.719 755.847 961.719 755.747 961.619C754.048 960.519 752.45 959.419 750.751 958.319C750.251 958.019 749.752 957.719 749.252 957.419L749.152 957.319C749.152 957.319 749.152 957.319 749.052 957.319L748.952 957.419C748.653 957.819 748.353 958.219 748.053 958.519C746.555 960.219 744.756 961.519 742.558 962.219C741.859 962.419 741.159 962.619 740.46 962.719C740.06 962.819 739.661 962.818 739.261 962.818C738.861 962.818 738.462 962.818 738.062 962.818C737.662 962.818 737.263 962.819 736.763 962.719C736.363 962.719 735.864 962.619 735.464 962.519C734.165 962.219 732.966 961.719 731.867 961.119C730.369 960.219 729.07 959.119 727.971 957.619C726.971 956.319 726.272 954.919 725.872 953.319C725.773 952.819 725.673 952.219 725.573 951.719C725.473 950.919 725.473 950.219 725.473 949.42C725.473 948.92 725.573 948.52 725.573 948.02C725.772 946.92 726.072 945.92 726.472 945.02C727.371 942.82 728.87 941.12 730.768 939.72C731.967 938.82 733.366 938.12 734.865 937.72C735.364 937.62 735.964 937.52 736.463 937.42C737.263 937.32 737.962 937.32 738.761 937.32C739.261 937.32 739.76 937.42 740.26 937.52C740.959 937.62 741.559 937.82 742.258 938.02C744.556 938.82 746.455 940.12 747.953 941.92C748.053 942.02 748.153 942.12 748.153 942.22H748.253C748.353 942.22 748.353 942.12 748.453 942.02C750.052 940.72 751.65 939.52 753.249 938.22C753.648 937.92 754.048 937.52 754.548 937.22C754.648 937.22 754.648 937.12 754.748 937.12V937.02C754.648 936.92 754.648 936.92 754.548 936.82C752.649 934.421 750.251 932.521 747.554 931.221C747.454 931.221 747.454 931.121 747.354 931.121V931.021C747.354 930.921 747.454 930.821 747.454 930.721C748.853 926.921 750.251 923.022 751.65 919.222C751.65 919.122 751.65 919.122 751.75 919.022C751.75 918.922 751.85 918.922 751.95 918.922C752.05 918.922 752.05 919.022 752.15 919.022C758.444 921.922 763.64 926.721 767.137 932.821C768.635 935.421 769.735 938.22 770.534 941.12C770.734 942.02 770.934 943.02 771.133 943.92C771.233 944.42 771.333 944.92 771.333 945.52C771.433 946.12 771.433 946.82 771.533 947.42C771.633 948.62 771.633 949.72 771.533 950.919C771.533 951.519 771.433 952.119 771.433 952.819C771.333 953.319 771.333 953.919 771.233 954.419C771.133 954.919 771.033 955.519 770.934 956.019C770.634 957.319 770.334 958.519 769.934 959.819C768.636 963.718 766.737 967.218 764.239 970.418C761.142 974.218 757.445 977.217 753.049 979.417C750.951 980.517 748.653 981.317 746.355 981.917C745.556 982.117 744.756 982.317 743.857 982.417C743.258 982.517 742.758 982.617 742.158 982.617C741.759 982.617 741.259 982.717 740.86 982.717C740.46 982.717 740.16 982.817 739.76 982.817C739.161 982.817 738.561 982.917 737.962 982.917C737.263 982.917 736.663 982.917 735.964 982.817C735.464 982.817 734.865 982.717 734.365 982.717C733.766 982.617 733.166 982.617 732.567 982.517C731.967 982.417 731.368 982.317 730.868 982.217C730.868 982.517 730.868 982.417 730.768 982.417Z" fill="#FFED00"/>
<path d="M746.953 917.417C746.953 917.517 746.853 917.617 746.853 917.617C745.854 920.217 744.955 922.817 743.956 925.417C743.456 926.717 742.957 928.017 742.557 929.317C742.557 929.417 742.457 929.517 742.457 929.617C742.457 929.617 742.357 929.716 742.357 929.617C742.157 929.617 741.857 929.517 741.658 929.517C741.258 929.417 740.858 929.417 740.459 929.317C739.859 929.217 739.36 929.217 738.76 929.217C738.261 929.217 737.761 929.217 737.161 929.217C737.062 929.217 736.862 929.217 736.762 929.217C736.362 929.217 736.062 929.317 735.663 929.317C735.263 929.317 734.864 929.417 734.464 929.517C733.565 929.717 732.666 929.916 731.866 930.116C728.569 931.116 725.771 932.916 723.374 935.316C721.375 937.216 719.876 939.516 718.777 942.016C718.278 943.315 717.878 944.615 717.578 945.915C717.479 946.515 717.379 947.015 717.279 947.615C717.179 948.215 717.179 948.715 717.179 949.315C717.179 949.415 717.179 949.415 717.179 949.515C717.079 949.715 717.179 950.015 717.179 950.215C717.179 950.415 717.179 950.615 717.179 950.815C717.179 951.015 717.179 951.315 717.279 951.615C717.279 952.315 717.379 952.915 717.478 953.615C717.678 955.015 718.078 956.314 718.578 957.614C719.577 960.414 721.175 962.814 723.274 964.914C724.672 966.314 726.271 967.614 728.069 968.613C728.569 968.913 729.069 969.113 729.568 969.413C729.668 969.413 729.668 969.513 729.768 969.513V969.613C729.768 969.713 729.768 969.713 729.668 969.813C729.268 970.813 728.969 971.813 728.569 972.713C727.67 975.313 726.671 977.913 725.771 980.513C725.771 980.613 725.671 980.613 725.671 980.713C725.671 980.713 725.572 980.813 725.572 980.713C725.472 980.713 725.472 980.613 725.372 980.613C722.374 979.413 719.477 977.713 716.979 975.613C713.282 972.613 710.385 969.014 708.286 964.914C707.087 962.614 706.188 960.214 705.589 957.614C705.389 956.714 705.189 955.914 705.089 955.015C704.989 954.415 704.889 953.815 704.889 953.115C704.79 952.315 704.789 951.515 704.689 950.815C704.689 950.215 704.689 949.615 704.689 949.015C704.689 948.415 704.69 947.815 704.789 947.215C704.789 946.715 704.889 946.215 704.889 945.615C704.989 944.915 705.089 944.215 705.189 943.515C705.389 942.216 705.689 941.016 706.088 939.816C707.287 935.816 709.186 932.116 711.883 928.817C714.681 925.317 718.078 922.417 721.975 920.217C724.472 918.817 727.07 917.817 729.768 917.117C730.667 916.917 731.566 916.718 732.566 916.518C733.165 916.418 733.765 916.318 734.364 916.218C734.864 916.118 735.363 916.118 735.863 916.118C736.662 916.018 737.461 916.018 738.361 916.018C738.66 916.018 738.86 916.018 739.16 916.018C739.659 916.018 740.259 916.018 740.758 916.118C741.358 916.118 741.857 916.218 742.457 916.318C743.956 916.518 745.454 916.818 746.953 917.217C746.853 917.317 746.853 917.318 746.953 917.417C746.953 917.318 746.953 917.417 746.953 917.417Z" fill="#FFED00"/>
<path d="M635.451 1023.4C634.053 1023.5 632.854 1024.2 631.954 1025.5C631.055 1026.8 630.655 1029.2 630.655 1032.5L620.764 1031.4C620.764 1025.8 622.063 1021.5 624.76 1018.5C627.458 1015.5 631.055 1014 635.551 1014C640.747 1014 644.443 1015.4 646.742 1018.2C648.94 1021 650.139 1024.7 650.139 1029.4C650.239 1032.3 649.939 1034.8 649.239 1037.1C648.54 1039.4 647.641 1041.8 646.242 1044.3L633.053 1070.3H649.439V1079.8H621.363V1071C624.161 1065.7 626.959 1060.4 629.656 1055.1C632.354 1049.8 635.152 1044.5 637.849 1039.2C638.748 1037.6 639.248 1036 639.448 1034.4C639.648 1032.8 639.747 1031.1 639.747 1029.4C639.747 1028.8 639.748 1028.2 639.648 1027.5C639.548 1026.8 639.348 1026.2 639.048 1025.6C638.748 1025 638.249 1024.6 637.749 1024.1C637.15 1023.6 636.351 1023.4 635.451 1023.4Z" />
<path d="M673.022 1080.3C668.126 1080.3 664.529 1078.9 662.231 1076.1C659.933 1073.3 658.834 1069.4 658.834 1064.4L668.525 1062.8V1064.1C668.525 1066.5 668.925 1068.3 669.625 1069.3C670.324 1070.3 671.523 1070.8 673.221 1070.8C674.32 1070.8 675.319 1070.4 676.219 1069.7C677.018 1069 677.518 1067.5 677.717 1065.4V1049.9C677.717 1047.2 676.418 1045.9 673.721 1045.9C672.722 1045.9 671.723 1046.2 670.823 1046.7C669.924 1047.2 669.225 1048.1 668.725 1049.4H660.333V1014.5H687.509V1023.8H669.525V1039.5C669.624 1039.5 669.625 1039.5 669.625 1039.5C669.625 1039.5 669.724 1039.5 669.824 1039.5C670.624 1038.6 671.723 1038 672.922 1037.6C674.221 1037.2 675.42 1037 676.618 1037C680.615 1037 683.512 1038.1 685.211 1040.3C686.909 1042.5 687.809 1045.3 687.809 1048.7V1062.2C687.809 1068.4 686.61 1072.9 684.212 1075.8C681.714 1078.8 678.017 1080.3 673.022 1080.3Z" />
<path d="M722.074 1079.7L711.583 1051.6C710.884 1053.1 710.184 1054.6 709.485 1056.1C708.785 1057.6 707.986 1059.1 707.287 1060.6V1079.6H697.195V1014.4H707.287V1040.7H707.786L720.076 1014.4H730.567C728.369 1018.8 726.171 1023.2 723.972 1027.6C721.774 1032 719.576 1036.4 717.378 1040.8L732.365 1079.6H722.074V1079.7Z" />
<path d="M628.855 1177.49V1123.6L619.963 1130.7V1119.8L629.455 1112.2H638.946V1177.39H628.855V1177.49Z" />
<path d="M681.815 1164.3C681.815 1166.5 681.415 1168.4 680.716 1170.2C679.917 1171.9 678.918 1173.4 677.619 1174.6C676.32 1175.8 674.821 1176.7 673.123 1177.3C671.424 1177.9 669.526 1178.2 667.627 1178.2C665.629 1178.2 663.731 1177.9 662.032 1177.3C660.334 1176.7 658.835 1175.8 657.536 1174.6C656.237 1173.4 655.238 1172 654.439 1170.2C653.64 1168.5 653.34 1166.5 653.34 1164.3V1125.7C653.34 1123.5 653.74 1121.5 654.439 1119.8C655.238 1118.1 656.237 1116.6 657.536 1115.4C658.835 1114.2 660.334 1113.3 662.032 1112.7C663.731 1112.1 665.629 1111.8 667.627 1111.8C671.824 1111.8 675.221 1113 677.819 1115.5C680.416 1117.9 681.715 1121.4 681.715 1125.8V1164.3H681.815ZM671.724 1125.2C671.724 1124 671.324 1123 670.525 1122.2C669.726 1121.5 668.726 1121.1 667.527 1121.1C666.229 1121.1 665.23 1121.5 664.43 1122.2C663.631 1122.9 663.231 1123.9 663.231 1125.2V1164.6C663.231 1165.9 663.631 1166.8 664.43 1167.6C665.23 1168.3 666.229 1168.7 667.527 1168.7C668.726 1168.7 669.726 1168.3 670.525 1167.6C671.324 1166.9 671.724 1165.9 671.724 1164.6V1125.2Z" />
<path d="M708.086 1143C708.086 1145.79 707.187 1147.89 705.288 1149.29C703.39 1150.79 701.092 1151.49 698.494 1151.49C695.796 1151.49 693.498 1150.79 691.7 1149.29C689.801 1147.79 688.902 1145.69 688.902 1143V1120.4C688.902 1117.7 689.901 1115.5 691.8 1114C693.698 1112.5 695.996 1111.8 698.594 1111.8C701.292 1111.8 703.59 1112.6 705.488 1114C707.286 1115.5 708.286 1117.6 708.286 1120.4V1143H708.086ZM700.692 1120.8C700.692 1120.2 700.492 1119.7 700.093 1119.3C699.693 1118.8 699.094 1118.6 698.394 1118.6C697.695 1118.6 697.095 1118.8 696.695 1119.3C696.296 1119.8 696.096 1120.3 696.096 1120.8V1142.6C696.096 1143.2 696.296 1143.7 696.695 1144.09C697.095 1144.59 697.695 1144.79 698.494 1144.79C699.193 1144.79 699.693 1144.59 700.093 1144.09C700.492 1143.6 700.692 1143.1 700.692 1142.6V1120.8ZM704.089 1179.09H697.895L727.269 1110.6H733.464L704.089 1179.09ZM742.656 1169.29C742.656 1172.09 741.757 1174.19 739.859 1175.59C737.96 1177.09 735.662 1177.79 733.065 1177.79C730.367 1177.79 728.069 1177.09 726.27 1175.59C724.372 1174.09 723.473 1171.99 723.473 1169.29V1146.69C723.473 1143.99 724.472 1141.8 726.37 1140.3C728.269 1138.8 730.567 1138.1 733.164 1138.1C735.862 1138.1 738.16 1138.9 740.059 1140.3C741.857 1141.8 742.856 1143.89 742.856 1146.69V1169.29H742.656ZM735.263 1146.99C735.263 1146.39 735.063 1145.89 734.663 1145.49C734.263 1144.99 733.664 1144.79 732.965 1144.79C732.265 1144.79 731.666 1144.99 731.266 1145.49C730.866 1145.99 730.666 1146.49 730.666 1146.99V1168.79C730.666 1169.39 730.866 1169.89 731.266 1170.29C731.666 1170.79 732.265 1170.99 733.065 1170.99C733.764 1170.99 734.263 1170.79 734.663 1170.29C735.063 1169.79 735.263 1169.29 735.263 1168.79V1146.99Z" />
<path d="M362.09 407.509C361.69 410.21 361.39 412.91 361.29 415.711C361.091 420.713 361.091 425.614 361.49 430.615C361.79 434.616 362.39 438.617 363.189 442.618C365.487 453.921 369.483 464.524 375.278 474.527C387.268 495.232 405.952 511.437 428.333 520.339C434.728 522.94 441.322 524.84 448.116 526.241C451.313 526.841 454.511 527.341 457.708 527.741C460.505 528.041 463.303 528.241 466.101 528.341C471.896 528.541 477.691 528.241 483.386 527.441C487.283 526.941 491.079 526.141 494.876 525.141C508.564 521.54 521.054 515.538 532.344 507.036C546.232 496.533 557.023 483.529 564.616 467.825C569.612 457.522 572.709 446.62 574.008 435.216C574.508 431.115 574.608 427.014 574.708 423.013C574.608 417.812 574.308 412.71 573.609 407.709C573.009 403.408 572.11 399.107 571.011 394.906C564.417 371.099 551.328 351.794 531.644 336.99C518.556 327.188 503.868 320.886 487.882 317.785C485.284 317.285 482.786 316.885 480.189 316.585C478.09 316.385 475.992 316.185 473.894 315.985C472.395 315.885 470.797 315.885 469.198 315.785C464.602 315.684 460.006 315.884 455.41 316.385C452.612 316.685 449.715 317.185 446.917 317.685C439.723 319.085 432.729 321.186 425.935 324.087C411.448 330.188 398.958 339.091 388.367 350.694C381.873 357.896 376.477 365.898 372.081 374.5C371.282 376.001 370.483 377.601 369.683 379.101C369.483 379.502 369.284 380.002 368.884 380.402C368.484 380.902 368.284 381.502 368.085 382.102C366.786 385.903 365.587 389.604 364.288 393.405C363.888 394.506 363.489 395.506 363.688 396.706C363.688 396.806 363.688 396.906 363.688 397.106C363.189 400.507 362.589 404.008 362.09 407.509ZM367.385 441.318C366.886 440.518 366.786 439.618 366.586 438.717C366.286 437.017 365.986 435.316 366.086 433.516C366.086 433.116 366.086 432.816 366.486 432.516C366.586 432.616 366.686 432.616 366.686 432.716C366.886 434.916 367.185 437.117 367.385 439.418C367.485 440.018 367.485 440.518 367.485 441.118C367.585 441.118 367.485 441.218 367.385 441.318ZM427.933 512.537C427.434 513.037 426.734 513.437 426.035 513.637C425.236 513.938 424.337 513.938 423.437 513.737C422.438 513.537 421.539 513.237 420.64 512.737C419.141 511.837 417.742 510.837 416.243 509.936C415.944 509.736 416.043 509.536 416.243 509.336C416.143 509.336 416.044 509.336 415.944 509.436C416.044 509.436 416.143 509.436 416.243 509.336C417.442 509.836 418.741 509.936 420.04 510.237C422.538 510.837 425.036 511.337 427.434 511.837C427.534 511.837 427.634 511.937 427.733 511.937C427.833 512.037 427.933 512.037 428.033 512.137C428.133 512.337 428.033 512.437 427.933 512.537ZM427.334 502.034C423.537 502.734 419.641 502.634 415.844 501.834C410.848 500.834 406.152 498.833 401.756 496.233C396.46 493.032 391.864 488.931 387.768 484.33C379.775 475.127 374.279 464.524 371.482 452.621C370.283 447.62 370.083 444.519 369.883 439.718C369.983 435.517 370.383 431.315 371.582 427.214C372.88 423.013 374.879 419.212 377.976 416.011C381.473 412.41 385.67 410.21 390.565 409.21C394.062 408.509 397.46 408.609 400.957 409.109C406.752 409.91 411.947 412.01 416.843 415.111C420.64 417.512 424.037 420.212 427.134 423.413C434.828 431.415 440.622 440.518 444.519 450.921C446.018 454.922 447.017 459.123 447.617 463.324C448.216 467.625 448.216 471.826 447.816 476.127C447.517 479.328 446.817 482.529 445.718 485.53C444.319 489.631 442.021 493.232 438.824 496.233C435.527 499.334 431.73 501.134 427.334 502.034ZM465.002 413.911C462.803 419.212 461.205 424.714 460.206 430.315C459.306 435.316 459.007 440.318 459.107 445.319C459.107 445.919 459.107 446.419 459.107 447.02L459.007 447.12C458.907 447.12 458.907 447.12 458.807 447.12C458.707 446.92 458.507 446.72 458.407 446.519C457.508 444.819 456.709 443.019 455.81 441.318C452.612 434.916 448.915 428.715 444.519 422.913C439.523 416.211 433.629 410.31 426.834 405.408C425.336 404.308 423.737 403.308 422.138 402.308C421.739 402.008 421.339 401.807 420.939 401.507C420.84 401.407 420.839 401.307 420.839 401.207C420.839 401.107 421.039 401.107 421.139 401.107C421.439 401.107 421.739 401.107 422.038 401.107C425.036 401.407 428.133 401.407 432.13 401.507C434.128 401.507 437.026 401.507 440.023 401.307C442.421 401.207 444.719 401.007 447.117 400.707C449.015 400.507 450.914 400.207 452.812 399.907C461.105 398.507 469.098 396.006 476.592 392.205C477.191 391.905 477.691 391.705 478.29 391.405L478.39 391.505C478.39 391.605 478.39 391.805 478.29 391.805C477.691 392.505 477.091 393.305 476.592 394.005C471.996 400.207 467.999 406.709 465.002 413.911ZM466.8 475.527C468.998 479.428 471.496 483.029 474.394 486.33C478.49 490.831 483.186 494.332 488.781 496.733C490.78 497.633 492.878 498.233 494.976 498.833C495.475 498.934 495.975 499.134 496.674 499.334C496.475 499.534 496.375 499.634 496.275 499.634C495.675 499.734 495.076 499.834 494.476 499.934C491.579 500.334 488.681 500.634 485.784 501.034C483.286 501.334 480.688 501.634 478.19 501.934C476.692 502.134 475.193 502.334 473.794 502.534C472.595 502.734 471.296 502.835 470.097 503.035C466.5 503.435 462.904 503.835 459.407 504.335C456.909 504.635 454.311 504.935 451.813 505.235C451.014 505.335 450.214 505.435 449.415 505.435C449.315 505.435 449.115 505.235 449.015 505.135C449.315 504.935 449.515 504.735 449.815 504.535C455.21 500.134 458.807 494.432 460.805 487.831C461.605 485.23 462.104 482.529 462.404 479.828C462.804 476.527 463.003 473.127 463.103 469.826C463.103 469.626 463.203 469.526 463.303 469.326C463.303 469.326 463.403 469.326 463.503 469.326C463.703 469.626 463.803 469.826 464.002 470.126C464.802 471.626 465.701 473.627 466.8 475.527ZM523.851 507.636C523.352 508.036 522.952 508.436 522.452 508.836C519.955 510.737 517.257 512.237 514.459 513.637C509.863 515.938 504.967 517.739 500.072 519.139C495.576 520.439 491.079 521.44 486.483 522.24C483.086 522.84 479.689 523.24 476.292 523.54C471.296 523.94 466.401 524.14 461.405 523.94C457.808 523.74 454.211 523.44 450.714 522.84C447.616 522.34 444.519 521.64 441.522 520.639C440.123 520.139 438.724 519.639 437.325 518.939C437.625 518.739 437.725 518.539 438.025 518.439C439.523 517.839 441.122 517.138 442.721 516.538C443.72 516.138 444.719 515.938 445.718 515.738C451.913 514.538 458.108 513.337 464.302 512.137C467.799 511.437 471.296 510.937 474.793 510.437C478.19 510.036 481.687 509.636 485.184 509.336C488.481 509.036 491.879 508.836 495.176 508.636C498.173 508.436 501.071 508.236 504.068 508.036C504.868 507.936 505.667 507.936 506.466 507.936C509.563 507.736 512.661 507.636 515.758 507.436C518.156 507.336 520.454 507.136 522.852 507.036C523.152 507.036 523.452 507.036 523.751 507.136L523.851 507.236C523.951 507.436 523.951 507.536 523.851 507.636ZM550.528 479.628C549.529 481.829 548.43 484.03 547.231 486.13C546.132 487.931 545.033 489.731 543.734 491.431C542.235 493.432 540.437 495.132 538.539 496.733C538.139 497.033 537.739 497.333 537.34 497.633C536.54 498.133 535.641 498.433 534.742 498.433C533.843 498.433 532.843 498.333 531.944 498.333C530.246 498.233 528.647 498.133 526.949 498.033C525.45 497.933 523.851 497.833 522.353 497.733C522.253 497.733 522.153 497.633 522.053 497.533C522.153 497.433 522.153 497.333 522.253 497.333C522.452 497.233 522.752 497.133 522.952 497.033C532.444 493.632 540.537 488.231 547.431 480.929C548.83 479.528 550.029 477.928 551.328 476.427C551.628 476.127 551.927 475.827 552.227 475.527C552.327 475.427 552.427 475.527 552.527 475.527C552.527 475.527 552.527 475.527 552.527 475.427C551.927 476.728 551.228 478.128 550.528 479.628ZM560.32 440.618C559.521 445.719 558.222 450.721 556.523 455.622C552.427 467.025 543.035 480.328 526.549 487.43C523.552 488.731 520.354 489.631 517.057 490.131C504.768 491.932 493.577 487.73 485.584 478.928C482.886 475.927 480.788 472.626 478.99 469.025C476.692 464.224 475.093 459.223 474.194 454.021C473.594 450.02 473.295 446.019 473.594 441.918C473.894 437.017 474.793 432.316 476.092 427.614C477.391 423.113 479.089 418.812 481.188 414.611C484.085 408.809 487.782 403.708 492.478 399.207C497.374 394.406 502.969 390.705 509.364 388.204C512.261 387.104 515.259 386.203 518.356 385.803C531.145 384.203 541.636 388.404 550.129 398.006C552.826 401.007 554.825 404.408 556.523 408.009C558.621 412.61 560.02 417.412 560.62 422.413C560.919 424.814 561.119 428.215 561.119 430.615C561.119 433.616 560.82 437.117 560.32 440.618ZM568.613 405.909C569.112 406.509 569.512 407.109 569.612 407.909C569.812 409.41 570.112 411.01 570.211 412.51C570.511 415.211 570.711 417.812 570.711 420.513C570.611 424.314 569.812 428.014 568.313 431.515C568.213 431.615 568.013 431.716 567.814 431.816C567.814 431.015 567.814 430.315 567.814 429.715C567.914 419.612 565.815 410.01 561.819 400.707C561.619 400.307 561.519 399.907 561.119 399.607C561.419 399.407 561.719 399.407 561.919 399.607C562.318 399.907 562.618 400.307 563.018 400.607C564.616 402.108 566.315 403.708 567.913 405.208C568.113 405.509 568.413 405.709 568.613 405.909ZM512.961 330.688C513.06 330.588 513.16 330.588 513.26 330.688C513.36 330.688 513.46 330.789 513.56 330.789C515.758 331.689 517.956 332.789 520.055 333.989C524.451 336.49 528.447 339.491 532.344 342.692C541.736 350.694 549.829 359.796 556.423 370.199C559.021 374.3 561.319 378.601 563.018 383.103C563.717 385.003 564.417 386.904 564.816 389.004C564.816 389.104 564.816 389.204 564.716 389.304C564.716 389.304 564.616 389.404 564.516 389.304C564.317 389.204 564.217 389.104 564.117 389.004C563.417 388.304 562.718 387.604 562.019 386.904C553.626 378.101 545.433 369.099 537.54 359.796C529.646 350.594 521.753 341.291 513.86 331.989C513.56 331.589 513.26 331.189 512.961 330.789C512.861 330.889 512.861 330.688 512.961 330.688ZM509.464 359.696C510.962 356.095 511.861 352.094 511.762 348.293C511.762 347.093 511.762 345.793 511.562 344.592C511.462 344.092 511.462 343.592 511.462 343.092C511.462 342.892 511.562 342.892 511.662 342.892C511.761 342.892 511.762 342.892 511.862 342.892C512.261 343.292 512.761 343.792 513.16 344.292C517.157 348.893 521.154 353.495 525.05 358.096C530.246 364.197 535.541 370.299 540.737 376.301C540.937 376.601 541.136 376.901 541.436 377.201V377.301C541.436 377.301 541.336 377.401 541.236 377.401C540.937 377.301 540.537 377.201 540.237 377.001C537.14 375.4 533.843 374.3 530.445 373.5C525.65 372.4 520.854 372 516.058 372.4C510.663 372.9 505.367 374.1 500.271 375.801C499.872 375.901 499.572 376.101 499.172 376.201C498.972 376.201 498.773 376.301 498.673 376.201C498.573 376.101 498.673 375.901 498.773 375.701C499.172 375.2 499.572 374.7 499.972 374.3C501.47 372.5 502.969 370.699 504.368 368.799C506.266 365.898 508.065 362.897 509.464 359.696ZM495.276 323.787C495.376 323.787 495.376 323.687 495.475 323.787C497.174 324.087 498.873 324.587 499.972 326.087C500.171 326.287 500.171 326.487 500.171 326.787C500.072 326.787 499.972 326.887 499.872 326.787C498.273 325.987 496.674 325.187 495.276 324.087C495.276 323.987 495.276 323.887 495.276 323.787C495.276 323.887 495.276 323.787 495.276 323.787ZM398.259 360.697C398.558 358.896 399.058 357.196 399.757 355.495C402.155 350.094 405.053 344.992 408.95 340.491C413.646 334.99 419.441 330.889 426.235 328.188C432.23 325.787 438.225 323.887 444.519 322.386C447.616 321.686 450.714 321.086 453.811 320.686C457.408 320.186 461.105 319.986 464.802 319.786C467.1 319.686 469.398 319.886 471.696 320.286C472.595 320.486 473.394 320.586 474.294 320.786C475.992 321.186 477.691 321.686 479.289 322.386C481.288 323.286 483.186 324.187 485.184 325.187C487.382 326.287 489.381 327.688 491.179 329.288C493.877 331.789 496.075 334.79 497.274 338.291C498.873 342.592 498.973 346.993 497.574 351.494C496.575 354.795 495.076 357.696 492.878 360.296C486.383 368.299 478.59 374.8 469.398 379.502C463.803 382.302 457.908 384.403 451.713 385.603C448.715 386.203 445.618 386.703 442.521 386.904C439.823 387.104 437.225 387.304 434.528 387.304C432.03 387.204 429.432 387.104 426.934 387.004C422.838 386.703 418.941 385.903 415.144 384.403C411.248 382.902 407.751 380.702 404.653 377.801C402.255 375.6 400.457 372.9 399.258 369.899C397.959 366.898 397.859 363.797 398.259 360.697ZM387.768 367.698C387.968 367.698 387.968 367.798 387.968 367.898C387.968 368.799 387.968 369.599 387.968 370.499C387.868 373.6 388.367 376.601 389.366 379.502C390.565 383.103 392.564 386.203 395.061 389.004C396.66 390.705 398.359 392.205 400.257 393.505C400.657 393.805 401.057 394.105 401.456 394.406C401.556 394.506 401.456 394.606 401.556 394.706C401.156 394.906 400.757 394.706 400.257 394.706C395.161 394.406 390.266 395.106 385.57 397.106C382.372 398.507 379.475 400.507 376.977 402.908C375.678 404.108 374.479 405.508 373.38 406.909C373.18 407.109 373.08 407.209 372.781 407.109C372.781 406.909 372.781 406.609 372.881 406.409C375.279 398.807 377.677 391.205 380.474 383.803C382.472 378.801 384.571 373.8 386.969 368.899C387.168 368.499 387.468 367.998 387.668 367.598C387.668 367.698 387.768 367.698 387.768 367.698ZM365.087 409.21C365.587 404.208 366.786 399.307 368.384 394.506C371.282 385.603 375.079 377.001 379.775 368.899C381.573 365.798 383.472 362.897 385.67 360.096C386.169 359.496 386.669 358.796 387.468 357.996C387.368 358.896 387.068 359.296 386.769 359.796C383.971 364.998 381.473 370.299 378.875 375.6C376.078 381.402 373.68 387.404 371.582 393.505C369.983 398.307 368.584 403.108 367.085 407.909C366.486 409.71 365.986 411.41 365.387 413.211C365.387 413.311 365.187 413.311 365.087 413.311L364.987 413.211C364.987 413.111 364.987 413.111 364.987 413.01C364.987 411.81 364.987 410.51 365.087 409.21ZM929.903 201.854C903.526 201.354 879.846 192.652 857.865 178.648C848.973 172.946 840.48 166.645 831.887 160.543C803.112 140.037 774.936 118.732 746.76 97.5261C725.978 81.8219 704.496 67.118 681.816 54.2145C668.727 46.8125 655.438 39.9107 641.351 34.5092C625.464 28.3076 608.978 24.8066 591.993 23.6063C587.896 23.3062 583.7 23.1062 579.603 24.0064C574.608 25.1067 570.911 27.9075 568.413 32.2086C567.514 33.709 566.814 35.3094 565.915 36.8098C558.521 48.8131 547.831 55.0147 533.743 54.9147C528.547 54.8147 523.751 53.1142 519.055 50.8136C514.16 48.413 509.663 45.4122 505.367 42.0112C499.472 37.31 494.077 32.1086 489.381 26.207C483.286 18.605 477.191 11.0029 470.996 3.40091C469.997 2.20059 469.298 0.700187 467.499 0C466.001 0.900241 465.201 2.6007 464.202 3.90104C459.706 9.90265 455.51 16.1043 450.814 22.0059C442.221 32.9088 432.13 42.1113 420.24 49.3132C416.343 51.6138 412.347 53.4143 407.851 54.1145C394.062 56.115 382.672 52.0139 373.88 41.111C371.781 38.5103 369.983 35.6095 368.484 32.6087C365.287 26.107 360.091 23.2062 353.097 23.2062C335.013 23.2062 317.528 26.307 300.543 32.4087C287.554 37.0099 275.164 42.9115 263.075 49.4132C241.593 60.9163 221.31 74.2199 201.727 88.6237C175.849 107.629 150.171 126.934 124.293 145.939C111.305 155.542 98.2158 165.044 85.127 174.347C71.5387 184.049 56.7513 191.651 40.6651 196.353C30.3739 199.453 19.8828 201.354 9.09206 201.754C6.09463 201.854 3.09735 202.254 0 202.554C0 202.554 1.3988 1239.43 1.49872 1240.23C1.59863 1241.33 1.59848 1251.53 1.59848 1255.54C1.6984 1262.94 2.49781 1270.24 4.19636 1277.44C7.19379 1290.05 13.2885 1300.95 22.3807 1310.15C34.5703 1322.55 48.7582 1331.76 65.4439 1336.86C83.3286 1342.36 100.913 1348.46 118.798 1353.86C138.082 1359.66 157.465 1364.77 176.849 1370.27C228.904 1385.07 280.46 1401.27 330.917 1420.98C357.993 1431.58 384.77 1442.89 410.748 1455.89C429.632 1465.39 447.517 1476.5 463.203 1490.8C464.602 1492.1 465.801 1493.6 467 1495H468.898C468.798 1493.9 469.498 1493.3 470.297 1492.7C485.884 1480.5 501.87 1468.79 519.455 1459.39C537.34 1449.89 555.824 1441.49 574.508 1433.58C628.562 1410.78 683.914 1391.87 740.366 1375.97C773.038 1366.77 805.81 1357.46 838.482 1348.06C847.674 1345.46 856.866 1342.56 865.858 1339.46C879.546 1334.76 892.336 1328.36 903.926 1319.65C912.418 1313.25 919.612 1305.55 925.008 1296.35C928.005 1291.25 930.303 1285.74 931.902 1280.04C932.501 1277.94 932.701 1275.64 933.101 1273.44C933.301 1272.34 933.7 1271.34 934 1270.24V202.754C932.701 202.454 931.302 201.854 929.903 201.854ZM862.162 205.455C862.461 203.755 862.961 202.054 863.46 199.753C872.852 204.055 881.745 207.856 891.137 210.756C900.329 213.557 909.721 215.158 919.312 216.858C919.412 218.058 919.612 218.959 919.712 219.859C919.812 221.459 919.712 223.06 919.712 224.66C919.712 339.991 919.712 455.322 919.712 570.653V578.555C918.113 579.755 917.014 578.855 915.915 578.455C896.232 570.553 878.747 559.25 863.46 544.646C838.881 521.239 823.095 493.032 815.202 460.023C813.903 454.622 813.803 449.42 815.002 443.919C822.396 407.109 829.789 370.299 837.083 333.389C844.776 294.679 852.47 255.968 860.063 217.258C860.763 213.357 861.462 209.456 862.162 205.455ZM811.904 165.244C813.103 165.944 814.103 166.345 815.002 167.045C820.497 170.946 825.892 174.847 831.388 178.748C840.58 185.15 849.872 191.351 859.464 197.953C860.063 199.253 859.364 200.954 859.064 202.654C855.467 220.859 851.771 239.064 848.174 257.169C843.578 280.175 838.981 303.281 834.485 326.287C830.189 348.093 825.893 369.899 821.496 391.705C818.799 405.509 816.001 419.312 813.203 433.116C813.003 434.116 813.203 435.417 811.605 436.117C811.505 435.316 811.305 434.616 811.305 433.916C811.005 427.214 810.606 420.513 810.506 413.811C809.706 381.102 804.411 349.193 794.419 318.085C792.321 311.583 789.923 305.082 787.525 298.68C786.426 295.879 786.326 293.178 786.926 290.278C792.921 260.37 798.816 230.362 804.811 200.454C806.809 190.451 808.707 180.348 810.705 170.346C810.905 168.645 811.405 167.145 811.904 165.244ZM762.447 128.734C763.646 129.435 764.445 129.835 765.244 130.435C779.632 141.038 794.02 151.641 808.407 162.543C800.214 204.055 792.021 245.266 782.929 286.577C782.43 285.576 781.83 284.676 781.43 283.676C771.839 262.17 760.349 241.765 746.46 222.66C744.962 220.559 744.562 218.358 745.062 215.858C746.261 210.256 747.26 204.555 748.359 198.953C752.755 177.047 757.051 155.041 761.448 133.136C761.647 131.735 762.047 130.335 762.447 128.734ZM709.792 90.1241C715.887 93.325 747.56 116.331 758.35 125.334C759.05 126.834 758.65 128.434 758.35 130.035C752.955 157.142 747.56 184.249 742.164 211.357C741.964 212.257 741.565 213.157 741.165 214.457C740.166 213.457 739.367 212.857 738.667 212.057C729.375 200.254 719.484 188.951 708.693 178.448C704.996 174.847 701.399 171.246 697.502 167.945C695.204 166.044 694.705 163.944 695.304 161.243C696.403 156.442 697.203 151.541 698.202 146.639C701.699 129.135 705.196 111.53 708.693 94.0252C708.893 92.8248 709.292 91.6245 709.792 90.1241ZM230.802 92.2247V87.0233C231.901 86.2231 232.701 85.4229 233.6 84.8227C251.984 72.6194 271.068 61.5165 291.151 52.414C304.439 46.4124 318.327 42.1113 332.715 39.8106C340.209 38.6103 347.602 38.2102 353.997 38.8104C354.696 40.0107 355.595 41.3111 356.395 42.6114C358.793 46.6125 361.39 50.4135 364.588 53.8144C372.98 62.8168 383.372 67.9182 395.561 69.4186C406.751 70.8189 417.143 68.4183 426.834 62.9168C438.424 56.215 448.516 47.7128 457.208 37.51C459.906 34.3092 462.504 31.1083 465.201 28.0075C466.001 27.0072 466.9 26.107 467.899 24.9067C468.699 25.6069 469.398 26.207 469.997 26.9072C472.995 30.5082 475.792 34.1091 478.89 37.6101C487.283 47.4127 496.874 55.8149 508.065 62.2166C512.961 65.0174 517.956 67.318 523.552 68.5183C537.14 71.4191 549.929 69.5186 561.719 62.0166C569.812 56.9152 576.206 49.9134 580.503 41.3111C581.502 39.3105 582.701 38.4103 584.899 38.4103C591.193 38.3103 597.288 39.1105 603.483 39.9107C622.367 42.5114 639.852 49.4132 656.837 57.9155C673.123 66.1177 688.71 75.6202 703.897 85.6229C704.397 85.923 704.896 86.4231 705.596 87.0233C705.596 87.9235 705.695 88.6237 705.596 89.2239C700.999 112.63 696.304 135.936 691.708 159.343C691.608 159.943 691.308 160.543 691.108 161.043C689.31 161.343 688.41 159.943 687.411 159.143C679.118 152.341 670.626 145.839 661.733 139.837C624.165 114.231 583.2 96.7259 538.738 87.3234C522.352 83.8224 505.667 81.7219 488.981 80.5215C472.695 79.4212 456.409 79.6213 440.123 80.9217C398.858 84.4226 359.392 95.0254 321.924 112.83C290.051 127.934 261.276 147.539 235.398 171.646C234.199 172.746 233 173.746 232.001 174.747C230.702 174.447 230.802 173.546 230.802 172.846C230.802 171.746 230.802 170.646 230.802 169.445C230.802 143.738 230.802 118.032 230.802 92.2247ZM219.112 1366.27C217.614 1366.97 216.315 1366.17 215.016 1365.77C202.626 1362.16 190.137 1358.56 177.748 1355.06C156.566 1348.96 135.284 1343.16 114.202 1336.86C98.6156 1332.16 83.1287 1326.96 67.642 1321.85C53.3542 1317.15 41.3646 1308.85 31.2733 1297.75C22.4808 1288.04 17.8846 1276.44 17.1852 1263.34C16.9854 1260.14 16.9855 1256.94 16.9855 1253.74C16.9855 910.144 16.9855 566.552 16.9855 222.96V216.858C19.9829 216.358 22.2809 215.858 24.6788 215.558C43.5626 212.857 61.1477 206.355 77.7335 196.953C83.8282 193.452 89.8229 189.751 95.518 185.55C122.695 165.844 149.772 145.939 176.749 126.034C189.138 116.931 201.427 107.729 213.717 98.6264C215.315 97.4261 216.914 96.0257 219.312 95.3255C219.412 96.4258 219.512 97.126 219.612 97.8262C220.211 124.633 219.812 1361.36 219.112 1366.27ZM230.802 333.989C230.802 315.284 230.802 296.579 230.603 277.774C230.603 273.273 231.701 269.472 234.199 265.671C273.765 207.255 327.819 169.045 395.461 149.94C414.145 144.639 433.229 141.638 452.612 140.538C465.401 139.837 478.19 139.837 490.979 140.938C545.333 145.639 594.591 164.044 638.153 196.953C687.211 233.963 720.283 282.276 738.268 341.091C744.162 360.296 747.859 379.902 749.058 399.907C749.658 410.81 750.157 421.613 750.657 432.516C752.056 463.824 759.449 493.532 773.038 521.74C789.124 555.249 812.104 583.156 841.779 605.462C842.878 606.262 843.977 607.162 845.076 608.063L844.776 608.863H767.343C763.046 603.461 758.45 598.06 754.254 592.458C728.176 557.549 710.791 518.739 702.698 475.927C700.2 462.724 698.701 449.42 697.802 435.917C697.303 427.914 697.402 419.912 697.003 411.91C695.604 382.002 688.71 353.395 676.121 326.187C658.336 287.877 632.358 256.369 597.388 232.662C571.81 215.358 543.834 203.654 513.46 197.653C496.774 194.352 479.989 192.451 463.003 193.152C404.653 195.452 353.597 215.958 311.133 256.269C274.964 290.578 252.784 332.789 243.591 381.702C240.494 398.107 239.495 414.711 240.194 431.415C241.893 473.827 254.682 512.737 277.662 548.247C291.85 570.253 309.735 588.858 330.517 604.762C331.616 605.662 332.815 606.462 333.914 607.362C334.114 607.563 334.314 607.863 334.613 608.063C334.413 609.163 333.514 608.963 332.715 608.963C326.92 608.963 321.225 608.963 315.43 608.963C298.045 608.963 280.56 608.963 263.174 608.963H257.879C256.88 607.963 255.981 607.062 255.181 606.062C247.388 597.16 240.394 587.557 233.7 577.855C231.402 574.554 230.503 571.053 230.503 567.052C230.602 548.847 230.602 530.542 230.702 512.337C230.802 453.021 230.802 393.505 230.802 333.989ZM688.71 604.362C690.209 605.862 691.408 606.962 691.508 608.763C689.409 609.163 687.511 608.963 685.313 608.963C685.812 606.662 687.311 605.762 688.71 604.362ZM679.518 608.963H602.084C602.784 607.262 604.182 606.662 605.182 605.862C616.872 597.26 627.662 587.557 637.454 576.754C644.548 568.952 651.042 560.65 657.037 551.948C657.936 550.647 658.836 549.347 660.234 547.446C663.032 552.148 664.331 556.749 666.429 561.05C668.627 565.451 670.526 570.052 672.724 574.454C674.822 578.755 677.02 582.956 679.318 587.157C681.616 591.358 684.014 595.559 686.412 599.861C684.813 603.461 681.916 605.962 679.518 608.963ZM647.046 486.93C643.948 471.526 642.15 456.022 641.451 440.318C641.051 432.216 640.851 424.013 640.551 415.911C639.652 392.305 634.057 369.699 623.966 348.393C602.284 302.381 560.919 268.372 511.462 255.668C491.779 250.567 471.696 248.867 451.513 251.067C411.547 255.368 376.877 271.373 348.102 299.68C321.924 325.487 305.338 356.695 299.443 393.005C290.251 449.52 305.438 499.134 344.405 541.145C366.586 565.151 394.162 580.455 425.535 588.858C440.722 592.959 456.209 594.959 471.996 594.459C549.729 592.158 598.987 545.546 621.667 501.234C628.562 487.73 633.457 473.627 636.755 458.923C637.054 457.422 637.254 455.822 638.553 454.021C641.55 484.73 648.145 513.938 658.736 542.245C658.136 543.345 657.637 544.346 657.037 545.246C641.051 570.052 620.768 590.658 596.589 607.563C594.89 608.763 593.292 609.463 591.294 609.263C590.294 609.163 589.395 609.263 588.396 609.263C508.464 609.263 428.533 609.263 348.601 609.363C344.705 609.363 341.607 608.363 338.41 606.162C292.749 573.553 263.874 529.642 249.986 475.527C245.49 458.123 243.192 440.318 243.591 422.313C244.79 361.997 265.173 309.483 307.237 265.771C338.71 232.962 376.877 212.157 421.139 202.254C440.523 197.853 460.306 196.052 480.189 197.353C535.541 200.854 583.8 221.359 624.065 259.669C658.935 292.878 680.417 333.589 689.709 380.902C692.307 394.305 693.306 407.809 693.706 421.413C694.205 441.418 695.704 461.323 699.9 481.029C709.093 524.34 726.977 563.551 754.054 598.46C756.352 601.361 758.65 604.162 760.948 607.062C761.348 607.563 761.648 608.063 762.047 608.763C761.248 609.063 760.848 609.263 760.448 609.263C739.167 609.263 717.985 609.263 696.703 609.263C695.704 607.763 694.805 606.462 693.906 605.062C670.925 568.452 655.438 529.142 647.046 486.93ZM636.755 422.513C636.255 515.838 561.719 591.258 467.499 590.558C373.88 589.858 300.343 514.138 300.543 422.213C300.543 330.288 374.479 253.268 469.498 253.968C564.616 254.568 637.254 331.389 636.755 422.513ZM230.802 581.456C231.901 582.256 232.201 582.356 232.301 582.556C238.795 591.058 245.19 599.46 251.684 607.963C251.784 608.063 251.684 608.263 251.684 608.363C251.584 608.463 251.584 608.663 251.485 608.763C251.385 608.863 251.185 608.863 250.985 608.863C244.99 608.863 238.895 608.963 232.9 608.963C232.501 608.963 232.001 608.763 231.302 608.563C230.503 604.262 230.902 599.76 230.802 595.359C230.802 591.058 230.802 586.657 230.802 581.456ZM896.332 1306.65C888.539 1312.85 879.846 1317.55 870.754 1321.55C858.864 1326.65 846.475 1330.46 834.086 1334.06C798.016 1344.26 761.847 1354.36 725.778 1364.77C670.326 1380.77 615.972 1399.77 562.818 1422.48C544.034 1430.48 525.45 1438.98 507.565 1449.09C495.176 1456.09 483.286 1463.89 471.996 1472.69C470.897 1473.59 469.698 1474.39 468.399 1475.29C467.5 1474.69 466.7 1474.29 466.001 1473.69C449.215 1459.89 430.631 1449.09 411.148 1439.69C374.179 1421.78 336.112 1406.48 297.345 1392.87C277.162 1385.77 256.78 1379.37 236.497 1372.57C234.699 1371.97 232.8 1371.67 231.202 1370.47C231.102 1369.57 230.902 1368.87 230.902 1368.07C230.902 1168.31 230.902 968.659 230.902 768.906C230.902 768.406 231.102 768.005 231.302 767.305C232.101 767.105 233 766.805 233.899 766.705C235.298 766.605 236.797 766.705 238.196 766.705C463.103 766.705 688.011 766.705 912.918 766.705C914.916 766.705 917.014 766.505 919.712 767.205V772.307C919.712 934.45 919.712 1096.49 919.712 1258.64C919.712 1278.34 911.719 1294.25 896.332 1306.65ZM919.612 754.402C918.513 754.702 917.714 755.102 916.815 755.202C915.416 755.302 913.917 755.302 912.518 755.302C687.611 755.302 462.704 755.302 237.796 755.302C235.698 755.302 233.7 755.302 231.402 755.202C231.202 754.102 230.902 753.201 230.802 752.301C230.702 750.901 230.802 749.401 230.802 748C230.802 707.189 230.802 666.378 230.802 625.567C230.802 624.167 230.902 622.767 230.902 621.166C232.001 620.966 232.9 620.766 233.899 620.666C234.899 620.566 235.798 620.666 236.797 620.666C240.194 620.666 243.491 620.666 246.888 620.666C468.698 620.666 690.608 620.666 912.418 620.566C914.617 620.566 916.814 620.266 919.712 620.966C920.112 665.578 919.712 709.89 919.612 754.402ZM919.013 608.763C917.814 608.863 916.615 608.963 915.416 609.063C895.932 609.063 876.449 609.063 856.866 609.163C854.068 609.163 851.97 608.163 849.872 606.662C821.596 586.857 799.115 561.95 782.53 531.642C770.74 510.136 762.247 487.53 757.951 463.324C756.252 453.721 755.353 444.019 754.554 434.316C753.754 424.614 754.254 414.811 753.554 405.108C751.656 377.201 746.161 349.994 736.469 323.687C721.881 284.276 699.9 249.467 670.126 219.759C639.752 189.451 604.182 167.345 563.817 152.941C544.534 146.039 524.651 141.238 504.268 138.737C485.784 136.437 467.3 135.936 448.815 137.237C412.347 139.837 377.676 149.14 344.805 164.944C300.043 186.45 263.374 217.558 234.799 258.169C233.8 259.569 232.8 260.97 231.701 262.37C230.203 261.47 230.702 260.27 230.702 259.269C230.702 247.466 230.702 235.563 230.702 223.76C230.702 211.257 230.702 198.753 230.702 186.35C230.702 180.148 230.403 181.749 234.199 178.048C265.473 147.94 301.142 124.833 341.307 108.429C363.289 99.5266 385.869 92.8248 409.249 88.7237C429.132 85.2228 449.115 83.4223 469.298 83.6224C548.33 84.4226 618.97 109.329 680.617 158.642C731.274 199.053 766.743 250.367 788.125 311.583C795.818 333.689 801.114 356.395 804.111 379.602C805.31 388.804 805.71 398.107 806.309 407.309C806.709 414.611 806.809 422.013 807.109 429.415C809.706 493.732 848.773 555.349 914.417 581.956C916.015 582.656 917.614 583.356 919.312 584.056C920.112 594.459 920.012 604.562 919.013 608.763Z" fill="url(#paint0_linear)"/>
<path d="M631.953 1276.29C627.357 1276.29 623.959 1274.99 621.861 1272.39C619.763 1269.79 618.664 1266.09 618.664 1261.49L627.756 1259.99V1261.19C627.756 1263.49 628.056 1265.09 628.755 1265.99C629.455 1266.99 630.554 1267.39 632.052 1267.39C633.052 1267.39 634.051 1267.09 634.85 1266.39C635.649 1265.69 636.049 1264.39 636.249 1262.39V1247.99C636.249 1245.49 634.95 1244.19 632.452 1244.19C631.553 1244.19 630.654 1244.39 629.754 1244.89C628.955 1245.39 628.256 1246.19 627.756 1247.39H619.863V1214.99H645.141V1223.59H628.356V1238.29C628.456 1238.29 628.456 1238.29 628.456 1238.29C628.456 1238.29 628.556 1238.29 628.655 1238.29C629.455 1237.49 630.354 1236.89 631.553 1236.49C632.752 1236.09 633.851 1235.89 634.95 1235.89C638.647 1235.89 641.345 1236.89 642.943 1238.99C644.542 1241.09 645.341 1243.69 645.341 1246.79V1259.39C645.341 1265.19 644.242 1269.39 641.944 1272.09C640.046 1274.99 636.649 1276.29 631.953 1276.29Z" />
<path d="M683.206 1263.49C683.206 1265.49 682.806 1267.39 682.107 1268.99C681.408 1270.59 680.508 1271.99 679.309 1273.09C678.11 1274.19 676.712 1274.99 675.113 1275.59C673.514 1276.19 671.816 1276.39 670.017 1276.39C668.119 1276.39 666.42 1276.09 664.822 1275.59C663.223 1274.99 661.824 1274.19 660.625 1273.09C659.426 1271.99 658.527 1270.59 657.828 1268.99C657.128 1267.39 656.729 1265.59 656.729 1263.49V1227.49C656.729 1225.49 657.028 1223.59 657.828 1221.99C658.627 1220.39 659.426 1218.99 660.625 1217.89C661.824 1216.79 663.223 1215.89 664.822 1215.39C666.42 1214.79 668.119 1214.49 670.017 1214.49C673.914 1214.49 677.111 1215.59 679.509 1217.89C682.007 1220.19 683.206 1223.39 683.206 1227.49V1263.49ZM673.814 1227.09C673.814 1225.89 673.414 1224.99 672.715 1224.29C672.015 1223.59 671.116 1223.29 669.917 1223.29C668.718 1223.29 667.819 1223.59 667.02 1224.29C666.22 1224.99 665.921 1225.89 665.921 1227.09V1263.79C665.921 1264.99 666.32 1265.89 667.02 1266.59C667.819 1267.29 668.718 1267.59 669.917 1267.59C671.016 1267.59 671.916 1267.29 672.715 1266.59C673.414 1265.89 673.814 1264.99 673.814 1263.79V1227.09Z" />
<path d="M720.777 1275.79L710.985 1249.59C710.385 1250.99 709.686 1252.39 708.986 1253.79C708.287 1255.19 707.588 1256.59 706.888 1257.99V1275.69H697.496V1214.99H706.888V1239.49H707.288L718.678 1214.99H728.47C726.472 1219.09 724.374 1223.19 722.375 1227.29C720.377 1231.39 718.279 1235.49 716.28 1239.59L730.269 1275.79H720.777Z" />
<path d="M527.043 852.623V845.523H557.517V852.623H527.043ZM527.043 866.122V859.022H557.517V866.122H527.043Z" />
<path d="M527.043 945.113V938.014H557.517V945.113H527.043ZM527.043 958.612V951.513H557.517V958.612H527.043Z" />
<path d="M527.043 1042.21V1035.11H557.517V1042.21H527.043ZM527.043 1055.71V1048.61H557.517V1055.71H527.043Z" />
<path d="M527.043 1137.8V1130.7H557.517V1137.8H527.043ZM527.043 1151.3V1144.2H557.517V1151.3H527.043Z" />
<path d="M527.043 1237.38V1230.29H557.517V1237.38H527.043ZM527.043 1250.78V1243.68H557.517V1250.78H527.043Z" />
<path d="M290.141 1214.29C291.24 1214.29 292.14 1214.39 292.939 1214.69C293.738 1214.99 294.338 1215.39 294.837 1215.89C295.337 1216.39 295.737 1217.09 295.936 1217.79C296.136 1218.49 296.336 1219.29 296.336 1220.19L292.439 1221.19C292.439 1220.29 292.24 1219.49 291.94 1218.89C291.54 1218.29 291.041 1217.99 290.241 1217.99C289.742 1217.99 289.342 1218.09 289.142 1218.29C288.942 1218.49 288.643 1218.79 288.443 1219.09C288.243 1219.39 288.143 1219.69 288.143 1220.09C288.043 1220.49 288.043 1220.79 288.043 1221.09V1234.29C288.043 1234.49 288.043 1234.79 288.143 1235.09C288.143 1235.39 288.343 1235.69 288.443 1235.89C288.643 1236.19 288.842 1236.39 289.142 1236.59C289.442 1236.79 289.742 1236.89 290.241 1236.89C291.74 1236.89 292.439 1235.79 292.539 1233.69C293.239 1233.79 293.838 1233.89 294.537 1233.99C295.237 1234.09 295.836 1234.19 296.536 1234.29C296.436 1236.29 295.936 1237.79 294.937 1238.99C293.938 1240.09 292.339 1240.69 290.341 1240.69C288.243 1240.69 286.644 1240.19 285.645 1239.09C284.646 1237.99 284.146 1236.39 284.146 1234.29V1221.29C284.146 1220.29 284.246 1219.39 284.446 1218.59C284.646 1217.69 285.046 1216.99 285.545 1216.29C286.045 1215.69 286.744 1215.09 287.543 1214.79C288.043 1214.49 288.942 1214.29 290.141 1214.29Z" />
<path d="M300.037 1240.59V1236.09H304.236V1240.59H300.037Z" />
<path d="M318.422 1226.99C319.521 1227.39 320.32 1228.09 320.819 1229.09C321.319 1230.09 321.419 1231.29 321.419 1232.69C321.419 1235.39 320.82 1237.39 319.72 1238.69C318.521 1239.99 316.823 1240.59 314.425 1240.59H309.029V1214.59H314.725C317.023 1214.59 318.721 1215.19 319.72 1216.39C320.72 1217.59 321.219 1219.39 321.219 1221.59C321.219 1222.79 321.019 1223.79 320.62 1224.69C320.22 1225.59 319.52 1226.29 318.521 1226.69V1226.99H318.422ZM317.322 1221.69C317.322 1220.49 317.123 1219.59 316.623 1219.09C316.123 1218.59 315.324 1218.29 314.225 1218.29H312.926V1224.99H314.225C315.224 1224.99 316.023 1224.69 316.523 1224.09C317.122 1223.59 317.322 1222.79 317.322 1221.69ZM317.522 1232.29C317.522 1231.09 317.322 1230.19 316.823 1229.59C316.423 1228.99 315.624 1228.69 314.425 1228.69H312.926V1236.79H314.525C315.124 1236.79 315.724 1236.69 316.123 1236.39C316.523 1236.19 316.823 1235.79 317.023 1235.39C317.222 1234.99 317.322 1234.49 317.422 1233.99C317.522 1233.49 317.522 1232.89 317.522 1232.29Z" />
<path d="M325.814 1240.59V1236.09H330.013V1240.59H325.814Z" />
<path d="M358.988 1262.49L354.692 1251.19L350.995 1240.49H350.595V1275.69H341.203V1214.99H350.395L356.989 1232.29L361.785 1245.49H362.185L367.081 1231.99L373.575 1215.09H382.668V1275.89H373.276V1240.89H372.976L369.179 1251.69L364.883 1262.59H358.988V1262.49Z" />
<path d="M415.237 1275.79L412.839 1263.09H401.648C401.248 1265.19 400.849 1267.29 400.449 1269.39C400.049 1271.49 399.75 1273.59 399.35 1275.69H389.758C391.756 1265.49 393.854 1255.39 395.853 1245.29C397.851 1235.19 399.949 1225.09 401.948 1214.89H412.439L424.729 1275.69H415.237V1275.79ZM407.043 1229.09C406.444 1233.29 405.844 1237.49 405.245 1241.59C404.645 1245.79 403.946 1249.99 403.147 1254.29H411.44L407.543 1229.09H407.043Z" />
<path d="M452.909 1275.79L446.015 1254.89H445.815L438.921 1275.79H428.43L440.719 1243.99C438.821 1239.19 436.922 1234.39 435.024 1229.49C433.126 1224.69 431.227 1219.89 429.329 1214.99H439.92C440.919 1218.09 441.918 1221.09 442.917 1224.09C443.916 1227.09 444.916 1230.09 445.915 1233.19L446.214 1233.09L452.01 1214.89H462.7L450.91 1243.89C453.009 1249.29 455.107 1254.59 457.205 1259.79C459.303 1265.09 461.401 1270.39 463.5 1275.59H452.909V1275.79Z" />
<path d="M426.836 819.426C427.635 819.426 428.534 819.426 429.334 819.426C429.434 819.426 429.534 819.426 429.633 819.526C429.933 819.526 430.233 819.526 430.533 819.626C431.931 819.726 433.43 819.926 434.829 820.226C437.826 820.826 440.724 821.826 443.521 823.325C447.518 825.425 450.915 828.125 453.813 831.525C457.01 835.325 459.208 839.624 460.507 844.424C460.907 845.824 461.107 847.224 461.306 848.623C461.406 849.523 461.506 850.423 461.506 851.423C461.506 852.523 461.506 853.623 461.506 854.723C461.506 855.223 461.506 855.723 461.406 856.223C461.306 857.423 461.107 858.723 460.807 859.923C460.207 862.922 459.208 865.722 457.809 868.422C456.111 871.722 453.813 874.721 451.115 877.321C450.116 878.321 449.117 879.121 447.918 880.021C447.818 880.121 447.718 880.221 447.618 880.221C447.618 880.121 447.518 880.021 447.518 879.921C445.82 874.721 444.121 869.622 442.522 864.422C441.723 862.022 441.024 859.723 440.224 857.323C440.224 857.223 440.124 857.123 440.124 857.023C440.224 856.923 440.324 856.923 440.324 856.823C445.82 852.823 451.215 848.923 456.71 844.924C457.609 844.224 458.609 843.624 459.508 842.924C459.608 842.924 459.608 842.824 459.608 842.724C459.508 842.724 459.408 842.724 459.208 842.724C451.415 842.724 443.621 842.724 435.928 842.724C435.828 842.724 435.728 842.724 435.628 842.724C435.528 842.724 435.528 842.724 435.428 842.724C435.428 842.724 435.428 842.724 435.428 842.624C435.428 842.624 435.428 842.624 435.428 842.524C433.03 835.125 430.632 827.725 428.234 820.326C428.234 820.226 428.135 820.126 428.135 820.026V819.926C428.135 819.926 428.135 819.926 428.135 819.826C427.735 821.126 427.335 822.426 426.836 823.725C426.436 825.025 426.036 826.325 425.637 827.525C425.237 828.825 424.837 830.125 424.338 831.425C423.938 832.725 423.539 834.025 423.039 835.324C422.639 836.624 422.24 837.924 421.84 839.124C421.44 840.424 421.041 841.724 420.541 843.024C420.341 843.024 420.241 843.024 420.142 843.024C412.248 843.024 404.355 843.024 396.461 843.024C396.362 843.024 396.262 843.024 396.262 843.024C396.262 842.924 396.262 842.824 396.362 842.724C398.06 837.624 400.958 833.125 404.754 829.325C408.351 825.825 412.448 823.325 417.244 821.626C420.241 820.626 423.339 820.026 426.436 819.826C426.636 819.426 426.736 819.526 426.836 819.426Z" fill="#FFED00"/>
<path d="M394.555 853.621C394.555 853.121 394.555 852.721 394.555 852.221C394.655 852.021 394.655 851.721 394.655 851.421C394.655 851.121 394.655 850.921 394.655 850.621C394.755 849.421 394.854 848.221 395.054 847.021C395.354 845.522 395.654 844.122 396.153 842.722C396.153 842.622 396.253 842.522 396.253 842.422C396.353 842.522 396.453 842.622 396.653 842.722C402.948 847.321 409.342 851.921 415.637 856.521C415.737 856.621 415.837 856.621 415.936 856.721C415.936 856.821 415.837 856.921 415.837 857.021C415.537 857.821 415.337 858.621 415.037 859.32C412.939 865.82 410.841 872.32 408.643 878.919C408.543 879.219 408.443 879.519 408.343 879.819C408.243 879.719 408.143 879.719 408.043 879.619C404.946 877.319 402.248 874.519 400.15 871.22C396.753 866.02 394.855 860.42 394.655 854.221C394.655 854.221 394.555 853.921 394.555 853.621Z" fill="#FFED00"/>
<path d="M447.81 880.021C447.71 880.121 447.61 880.221 447.51 880.321C445.612 881.721 443.613 882.821 441.415 883.721C439.117 884.721 436.62 885.521 434.122 885.921C432.723 886.121 431.424 886.321 430.025 886.421C429.925 886.421 429.825 886.421 429.725 886.421C428.626 886.421 427.427 886.421 426.328 886.421C426.228 886.421 426.129 886.42 426.029 886.32C425.029 886.221 424.03 886.121 423.031 886.021C421.133 885.721 419.334 885.321 417.536 884.721C414.339 883.621 411.441 882.121 408.644 880.221C408.544 880.121 408.444 880.021 408.344 880.021C408.444 879.921 408.543 879.921 408.743 879.821C415.038 875.221 421.432 870.622 427.727 866.022C427.827 865.922 427.927 865.822 428.027 865.822C428.127 865.922 428.227 865.922 428.327 866.022C429.326 866.722 430.325 867.522 431.324 868.222C436.62 872.122 441.915 875.921 447.21 879.821C447.51 879.921 447.61 880.021 447.81 880.021Z" fill="#FFED00"/>
<path d="M758.757 1227.89C759.156 1227.89 759.556 1227.89 759.956 1227.89H760.056C760.155 1227.89 760.355 1227.89 760.455 1227.89C761.155 1227.89 761.854 1227.99 762.453 1228.19C763.852 1228.49 765.251 1228.99 766.55 1229.69C768.448 1230.69 770.047 1231.99 771.446 1233.59C772.945 1235.39 774.044 1237.49 774.643 1239.79C774.843 1240.49 774.943 1241.09 775.043 1241.79C775.143 1242.19 775.143 1242.69 775.143 1243.09C775.143 1243.59 775.143 1244.19 775.143 1244.69C775.143 1244.89 775.143 1245.19 775.143 1245.39C775.043 1245.99 775.043 1246.59 774.843 1247.19C774.543 1248.59 774.044 1249.99 773.444 1251.19C772.645 1252.79 771.546 1254.19 770.247 1255.39C769.747 1255.89 769.248 1256.29 768.748 1256.69L768.648 1256.79V1256.69C767.849 1254.29 767.05 1251.79 766.25 1249.39C765.851 1248.29 765.551 1247.19 765.151 1245.99C765.151 1245.99 765.151 1245.89 765.151 1245.79L765.251 1245.69C767.849 1243.79 770.447 1241.89 773.045 1239.99C773.444 1239.69 773.944 1239.39 774.343 1238.99C774.343 1238.99 774.443 1238.99 774.443 1238.89C774.343 1238.89 774.343 1238.89 774.243 1238.89C770.547 1238.89 766.85 1238.89 763.153 1238.89H763.053H762.953C761.854 1235.39 760.655 1231.89 759.556 1228.29V1228.19C759.356 1228.79 759.156 1229.39 758.956 1229.99C758.757 1230.59 758.557 1231.19 758.357 1231.79C758.157 1232.39 757.957 1232.99 757.757 1233.59C757.558 1234.19 757.358 1234.79 757.158 1235.39C756.958 1235.99 756.758 1236.59 756.559 1237.19C756.359 1237.79 756.159 1238.39 755.959 1238.99C755.859 1238.99 755.859 1238.99 755.759 1238.99C752.062 1238.99 748.266 1238.99 744.569 1238.99H744.469C744.469 1238.89 744.469 1238.89 744.469 1238.89C745.268 1236.49 746.667 1234.29 748.465 1232.49C750.164 1230.79 752.162 1229.59 754.36 1228.89C755.759 1228.39 757.258 1228.09 758.757 1228.09C758.657 1227.89 758.757 1227.89 758.757 1227.89Z" fill="#FFED00"/>
<path d="M743.461 1244.09C743.461 1243.89 743.461 1243.69 743.461 1243.49C743.461 1243.39 743.561 1243.29 743.561 1243.09C743.561 1242.89 743.561 1242.89 743.561 1242.69C743.561 1242.09 743.661 1241.59 743.761 1240.99C743.861 1240.29 744.06 1239.59 744.26 1238.99C744.26 1238.99 744.26 1238.89 744.36 1238.89C744.46 1238.89 744.46 1238.99 744.56 1238.99C747.558 1241.19 750.555 1243.39 753.553 1245.59L753.653 1245.69C753.653 1245.79 753.653 1245.79 753.653 1245.89C753.553 1246.29 753.453 1246.59 753.253 1246.99C752.254 1250.09 751.255 1253.19 750.255 1256.29C750.255 1256.39 750.156 1256.59 750.056 1256.69L749.956 1256.59C748.457 1255.49 747.158 1254.19 746.159 1252.59C744.56 1250.09 743.661 1247.39 743.561 1244.49C743.461 1244.39 743.461 1244.29 743.461 1244.09Z" fill="#FFED00"/>
<path d="M768.743 1256.69C768.743 1256.79 768.643 1256.79 768.643 1256.79C767.743 1257.39 766.744 1257.99 765.745 1258.39C764.646 1258.89 763.447 1259.19 762.248 1259.49C761.649 1259.59 760.949 1259.69 760.35 1259.69C760.25 1259.69 760.25 1259.69 760.15 1259.69C759.65 1259.69 759.051 1259.69 758.551 1259.69H758.451C757.952 1259.69 757.452 1259.59 757.053 1259.49C756.153 1259.39 755.254 1259.19 754.455 1258.89C752.956 1258.39 751.557 1257.69 750.258 1256.79L750.158 1256.69C750.258 1256.69 750.258 1256.59 750.358 1256.59C753.356 1254.39 756.353 1252.19 759.351 1249.99C759.351 1249.99 759.451 1249.89 759.55 1249.89L759.65 1249.99C760.15 1250.39 760.65 1250.69 761.049 1251.09C763.547 1252.89 766.045 1254.79 768.643 1256.59C768.643 1256.59 768.643 1256.69 768.743 1256.69Z" fill="#FFED00"/>
<path d="M759.358 1029.9C759.758 1029.9 760.157 1029.9 760.557 1029.9H760.657C760.757 1029.9 760.957 1029.9 761.056 1029.9C761.756 1029.9 762.455 1030 763.055 1030.2C764.453 1030.5 765.852 1031 767.151 1031.7C769.049 1032.7 770.648 1034 772.047 1035.6C773.546 1037.4 774.645 1039.5 775.244 1041.8C775.444 1042.5 775.544 1043.1 775.644 1043.8C775.744 1044.2 775.744 1044.7 775.744 1045.1C775.744 1045.6 775.744 1046.2 775.744 1046.7C775.744 1046.9 775.744 1047.2 775.744 1047.4C775.644 1048 775.644 1048.6 775.444 1049.2C775.144 1050.6 774.645 1052 774.045 1053.2C773.246 1054.8 772.147 1056.2 770.848 1057.4C770.348 1057.9 769.849 1058.3 769.349 1058.7L769.249 1058.8V1058.7C768.45 1056.3 767.651 1053.8 766.851 1051.4C766.452 1050.3 766.152 1049.2 765.752 1048C765.752 1048 765.752 1047.9 765.752 1047.8L765.852 1047.7C768.45 1045.8 771.048 1043.9 773.645 1042C774.045 1041.7 774.545 1041.4 774.944 1041C774.944 1041 775.044 1041 775.044 1040.9C774.944 1040.9 774.944 1040.9 774.845 1040.9C771.148 1040.9 767.451 1040.9 763.754 1040.9H763.654H763.554C762.455 1037.4 761.256 1033.9 760.157 1030.3V1030.2C759.957 1030.8 759.758 1031.4 759.558 1032C759.358 1032.6 759.158 1033.2 758.958 1033.8C758.758 1034.4 758.559 1035 758.359 1035.6C758.159 1036.2 757.959 1036.8 757.759 1037.4C757.559 1038 757.359 1038.6 757.16 1039.2C756.96 1039.8 756.76 1040.4 756.56 1041C756.46 1041 756.46 1041 756.361 1041C752.664 1041 748.867 1041 745.17 1041H745.07C745.07 1040.9 745.07 1040.9 745.07 1040.9C745.87 1038.5 747.268 1036.3 749.067 1034.5C750.765 1032.8 752.764 1031.6 754.962 1030.9C756.36 1030.4 757.859 1030.1 759.358 1030.1C759.258 1029.9 759.258 1029.9 759.358 1029.9Z" fill="#FFED00"/>
<path d="M743.963 1046.1C743.963 1045.9 743.963 1045.7 743.963 1045.5C743.963 1045.4 744.063 1045.3 744.063 1045.1C744.063 1044.9 744.063 1044.9 744.063 1044.7C744.063 1044.1 744.163 1043.6 744.263 1043C744.363 1042.3 744.562 1041.6 744.762 1041C744.762 1041 744.762 1040.9 744.862 1040.9C744.962 1040.9 744.962 1041 745.062 1041C748.059 1043.2 751.056 1045.4 754.054 1047.6L754.154 1047.7C754.154 1047.8 754.154 1047.8 754.154 1047.9C754.054 1048.3 753.954 1048.6 753.754 1049C752.755 1052.1 751.756 1055.2 750.757 1058.3C750.757 1058.4 750.657 1058.6 750.557 1058.7L750.457 1058.6C748.958 1057.5 747.659 1056.2 746.66 1054.6C745.062 1052.1 744.163 1049.4 744.063 1046.5C744.063 1046.4 744.063 1046.3 743.963 1046.1Z" fill="#FFED00"/>
<path d="M769.34 1058.7C769.34 1058.8 769.24 1058.8 769.24 1058.8C768.341 1059.4 767.342 1060 766.343 1060.4C765.244 1060.9 764.045 1061.2 762.846 1061.5C762.246 1061.6 761.547 1061.7 760.947 1061.7C760.847 1061.7 760.847 1061.7 760.747 1061.7C760.248 1061.7 759.648 1061.7 759.149 1061.7H759.049C758.549 1061.7 758.05 1061.6 757.65 1061.5C756.751 1061.4 755.852 1061.2 755.052 1060.9C753.554 1060.4 752.155 1059.7 750.856 1058.8L750.756 1058.7C750.856 1058.7 750.856 1058.6 750.956 1058.6C753.953 1056.4 756.951 1054.2 759.948 1052C759.948 1052 760.048 1051.9 760.148 1051.9L760.248 1052C760.747 1052.4 761.247 1052.7 761.646 1053.1C764.144 1054.9 766.642 1056.8 769.24 1058.6C769.14 1058.6 769.24 1058.6 769.34 1058.7Z" fill="#FFED00"/>
<path d="M694.399 882.429C694.499 882.129 694.599 881.929 694.699 881.629C695.898 878.229 697.097 874.929 698.396 871.53C698.396 871.43 698.495 871.33 698.495 871.23C698.495 871.23 698.495 871.13 698.595 871.13C698.695 871.13 698.695 871.13 698.795 871.13C699.095 871.13 699.495 871.23 699.794 871.23C700.094 871.23 700.394 871.33 700.693 871.33C700.793 871.33 700.893 871.33 701.093 871.33C701.193 871.33 701.293 871.33 701.393 871.33C701.893 871.33 702.392 871.33 702.792 871.33C702.892 871.33 702.992 871.33 703.092 871.33C703.191 871.33 703.191 871.33 703.291 871.33C703.491 871.33 703.691 871.33 703.891 871.33C705.789 871.13 707.588 870.73 709.386 870.13C713.583 868.53 716.88 865.93 719.477 862.23C719.577 862.13 719.577 862.03 719.677 861.93V861.83C719.577 861.73 719.478 861.73 719.378 861.63C717.679 860.53 716.081 859.43 714.382 858.331C713.882 858.031 713.383 857.731 712.883 857.431L712.783 857.331C712.783 857.331 712.783 857.331 712.683 857.331L712.583 857.431C712.284 857.831 711.984 858.231 711.684 858.531C710.185 860.23 708.387 861.53 706.189 862.23C705.489 862.43 704.79 862.63 704.091 862.73C703.691 862.83 703.291 862.83 702.892 862.83C702.492 862.83 702.092 862.83 701.693 862.83C701.293 862.83 700.893 862.83 700.394 862.73C699.994 862.73 699.495 862.63 699.095 862.53C697.796 862.23 696.597 861.73 695.498 861.13C693.999 860.23 692.7 859.13 691.601 857.631C690.602 856.331 689.903 854.931 689.503 853.331C689.403 852.831 689.303 852.231 689.203 851.731C689.103 850.931 689.104 850.231 689.104 849.431C689.104 848.931 689.203 848.531 689.203 848.031C689.403 846.931 689.703 845.932 690.103 845.032C691.002 842.832 692.501 841.132 694.399 839.732C695.598 838.832 696.997 838.132 698.495 837.732C698.995 837.632 699.595 837.532 700.094 837.432C700.893 837.332 701.593 837.332 702.392 837.332C702.892 837.332 703.391 837.432 703.891 837.532C704.59 837.632 705.19 837.832 705.889 838.032C708.187 838.832 710.086 840.132 711.584 841.932C711.684 842.032 711.784 842.132 711.784 842.232H711.884C711.984 842.232 711.984 842.132 712.084 842.032C713.683 840.732 715.281 839.532 716.88 838.232C717.279 837.932 717.679 837.532 718.179 837.232C718.278 837.232 718.279 837.132 718.379 837.132V837.032C718.279 836.932 718.278 836.932 718.179 836.832C716.28 834.432 713.882 832.533 711.184 831.233C711.085 831.233 711.085 831.133 710.985 831.133V831.033C710.985 830.933 711.085 830.833 711.085 830.733C712.484 826.933 713.882 823.033 715.281 819.234C715.281 819.134 715.281 819.134 715.381 819.034C715.381 818.934 715.481 818.934 715.581 818.934C715.681 818.934 715.681 819.034 715.781 819.034C722.075 821.933 727.271 826.733 730.768 832.832C732.267 835.432 733.366 838.232 734.165 841.132C734.365 842.032 734.565 843.032 734.764 843.932C734.864 844.432 734.964 844.932 734.964 845.532C735.064 846.131 735.064 846.831 735.164 847.431C735.264 848.631 735.264 849.731 735.164 850.931C735.164 851.531 735.064 852.131 735.064 852.831C734.964 853.331 734.964 853.931 734.864 854.431C734.765 854.931 734.665 855.531 734.565 856.031C734.265 857.331 733.965 858.531 733.566 859.83C732.267 863.73 730.368 867.23 727.87 870.43C724.773 874.229 721.076 877.229 716.68 879.429C714.582 880.529 712.284 881.329 709.986 881.929C709.186 882.129 708.387 882.329 707.488 882.429C706.888 882.529 706.389 882.629 705.789 882.629C705.39 882.629 704.89 882.729 704.49 882.729C704.091 882.729 703.791 882.829 703.391 882.829C702.792 882.829 702.192 882.929 701.593 882.929C700.893 882.929 700.294 882.929 699.595 882.829C699.095 882.829 698.495 882.729 697.996 882.729C697.396 882.629 696.797 882.629 696.197 882.529C695.598 882.429 694.998 882.329 694.499 882.229C694.399 882.529 694.399 882.529 694.399 882.429Z" fill="#FFED00"/>
<path d="M710.585 817.429C710.585 817.529 710.485 817.629 710.485 817.629C709.486 820.229 708.586 822.829 707.587 825.429C707.088 826.728 706.588 828.028 706.188 829.328C706.188 829.428 706.089 829.528 706.089 829.628C706.089 829.628 705.989 829.728 705.989 829.628C705.789 829.628 705.489 829.528 705.289 829.528C704.889 829.428 704.49 829.428 704.09 829.328C703.491 829.228 702.991 829.228 702.392 829.228C701.892 829.228 701.392 829.228 700.793 829.228C700.693 829.228 700.493 829.228 700.393 829.228C699.994 829.228 699.694 829.328 699.294 829.328C698.895 829.328 698.495 829.428 698.095 829.528C697.196 829.728 696.297 829.928 695.497 830.128C692.2 831.128 689.402 832.928 687.005 835.328C685.006 837.228 683.508 839.527 682.409 842.027C681.909 843.327 681.509 844.627 681.209 845.927C681.109 846.527 681.01 847.027 680.91 847.627C680.81 848.227 680.81 848.727 680.81 849.327C680.81 849.427 680.81 849.427 680.81 849.527C680.71 849.727 680.81 850.027 680.81 850.227C680.81 850.427 680.81 850.627 680.81 850.827C680.81 851.027 680.81 851.327 680.91 851.627C680.91 852.326 681.01 852.926 681.11 853.626C681.309 855.026 681.709 856.326 682.209 857.626C683.208 860.426 684.807 862.826 686.905 864.926C688.304 866.325 689.902 867.625 691.701 868.625C692.2 868.925 692.7 869.125 693.199 869.425C693.299 869.425 693.299 869.525 693.399 869.525V869.625C693.399 869.725 693.399 869.725 693.299 869.825C692.9 870.825 692.6 871.825 692.2 872.725C691.301 875.325 690.302 877.925 689.403 880.524C689.403 880.624 689.303 880.624 689.303 880.724C689.303 880.724 689.203 880.824 689.203 880.724C689.103 880.724 689.103 880.624 689.003 880.624C686.005 879.424 683.108 877.725 680.61 875.625C676.913 872.625 674.016 869.025 671.917 864.926C670.718 862.626 669.819 860.226 669.219 857.626C669.02 856.726 668.82 855.926 668.72 855.026C668.62 854.426 668.52 853.826 668.52 853.126C668.42 852.326 668.42 851.527 668.32 850.827C668.32 850.227 668.32 849.627 668.32 849.027C668.32 848.427 668.32 847.827 668.42 847.227C668.42 846.727 668.52 846.227 668.52 845.627C668.62 844.927 668.72 844.227 668.82 843.527C669.02 842.227 669.319 841.027 669.719 839.827C670.918 835.828 672.816 832.128 675.514 828.828C678.312 825.329 681.709 822.429 685.606 820.229C688.104 818.829 690.702 817.829 693.399 817.129C694.299 816.929 695.198 816.729 696.197 816.529C696.796 816.429 697.396 816.329 697.995 816.229C698.495 816.129 698.994 816.129 699.494 816.129C700.293 816.029 701.093 816.029 701.992 816.029C702.292 816.029 702.492 816.029 702.791 816.029C703.291 816.029 703.89 816.029 704.39 816.129C704.99 816.129 705.489 816.229 706.089 816.329C707.587 816.529 709.086 816.829 710.585 817.229C710.385 817.329 710.385 817.329 710.585 817.429C710.485 817.429 710.485 817.429 710.585 817.429Z" fill="#FFED00"/>
<path d="M368.382 886.521V833.125L359.59 840.224V829.425L368.982 821.926H378.374V886.621H368.382V886.521Z" />
<path d="M372.279 1064L367.683 1052L363.686 1040.7H363.187V1078.1H353.195V1013.4H362.987L369.981 1031.8L375.076 1045.8H375.576L380.771 1031.4L387.765 1013.4H397.457V1078.1H387.466V1040.8H387.066L382.969 1052.3L378.473 1063.9H372.279V1064Z" />
<path d="M406.848 1078.1V1013.4H416.839V1078.1H406.848Z" />
<path d="M436.523 1040.5V1078.1H426.531V1013.4H435.524L443.317 1032.6C443.917 1034.2 444.516 1035.8 445.215 1037.3C445.815 1038.8 446.514 1040.4 447.214 1042L450.511 1050.9C450.611 1050.9 450.711 1050.9 450.711 1050.9C450.711 1050.9 450.811 1050.9 450.91 1050.9V1013.4H460.702V1078.1H451.91L444.116 1059C442.917 1055.8 441.618 1052.7 440.419 1049.7C439.22 1046.7 438.022 1043.6 436.823 1040.5H436.523Z" />
<path d="M370.079 1111.3C372.777 1111.3 375.075 1111.7 376.973 1112.4C378.871 1113.1 380.47 1114.2 381.769 1115.5C383.068 1116.8 383.967 1118.4 384.567 1120.2C385.166 1122 385.466 1124 385.466 1126.2L375.674 1128.7C375.674 1126.3 375.275 1124.4 374.375 1122.9C373.476 1121.4 372.077 1120.7 370.079 1120.7C368.88 1120.7 367.981 1120.9 367.182 1121.4C366.482 1121.9 365.882 1122.5 365.483 1123.3C365.083 1124.1 364.784 1124.9 364.684 1125.8C364.484 1126.7 364.484 1127.6 364.484 1128.4V1161.3C364.484 1161.89 364.584 1162.59 364.684 1163.39C364.784 1164.09 365.083 1164.79 365.483 1165.49C365.882 1166.19 366.482 1166.69 367.182 1167.09C367.881 1167.49 368.78 1167.79 369.879 1167.79C373.576 1167.79 375.474 1165.09 375.474 1159.8C377.173 1160.1 378.772 1160.39 380.47 1160.59C382.169 1160.79 383.767 1161.1 385.466 1161.3C385.366 1166.19 383.967 1170.09 381.469 1172.89C378.871 1175.69 375.075 1177.19 370.079 1177.19C364.784 1177.19 360.787 1175.89 358.289 1173.19C355.791 1170.49 354.492 1166.59 354.492 1161.39V1129.2C354.492 1126.8 354.792 1124.5 355.292 1122.4C355.791 1120.3 356.69 1118.4 357.889 1116.8C359.088 1115.2 360.787 1113.9 362.785 1113C364.684 1111.7 367.181 1111.3 370.079 1111.3Z" />
<path d="M392.363 1176.49V1165.29H402.755V1176.49H392.363Z" />
<path d="M435.716 1142.7C438.513 1143.6 440.512 1145.4 441.611 1148C442.71 1150.6 443.209 1153.6 443.209 1156.9C443.209 1163.69 441.81 1168.59 438.913 1171.79C436.015 1174.99 431.619 1176.49 425.724 1176.49H412.336V1111.8H426.424C432.119 1111.8 436.215 1113.3 438.813 1116.3C441.411 1119.3 442.71 1123.7 442.71 1129.4C442.71 1132.4 442.21 1135 441.211 1137.2C440.212 1139.4 438.413 1141.1 435.915 1142.2V1142.7H435.716ZM433.018 1129.6C433.018 1126.6 432.418 1124.5 431.219 1123.2C430.021 1121.9 428.122 1121.2 425.325 1121.2H422.128V1137.9H425.424C428.022 1137.9 429.921 1137.2 431.12 1135.8C432.419 1134.4 433.018 1132.3 433.018 1129.6ZM433.618 1156.1C433.618 1153.1 433.018 1150.8 431.919 1149.3C430.82 1147.8 428.822 1147.1 426.024 1147.1H422.227V1167.19H426.224C427.822 1167.19 429.121 1166.89 430.121 1166.29C431.12 1165.69 431.819 1164.89 432.319 1163.89C432.818 1162.89 433.218 1161.7 433.318 1160.4C433.518 1159 433.618 1157.5 433.618 1156.1Z" />
<path d="M451.91 1176.49V1165.29H462.301V1176.49H451.91Z" />
<path d="M633.153 885.92C628.257 885.92 624.66 884.52 622.462 881.72C620.164 878.92 619.064 875.021 619.064 870.121L628.756 868.521V869.821C628.756 872.221 629.156 873.921 629.855 875.021C630.555 876.021 631.754 876.521 633.352 876.521C634.451 876.521 635.451 876.121 636.25 875.421C637.049 874.721 637.549 873.221 637.649 871.121V855.822C637.649 853.122 636.35 851.823 633.652 851.823C632.653 851.823 631.754 852.123 630.855 852.622C629.955 853.122 629.256 854.022 628.756 855.222H620.363V820.625H647.341V829.824H629.556V845.423C629.655 845.423 629.656 845.423 629.656 845.423C629.656 845.423 629.755 845.423 629.855 845.423C630.655 844.523 631.654 843.923 632.953 843.523C634.252 843.123 635.451 842.923 636.65 842.923C640.646 842.923 643.444 844.023 645.142 846.223C646.841 848.423 647.74 851.223 647.74 854.522V868.021C647.74 874.121 646.541 878.62 644.143 881.52C641.745 884.42 638.048 885.92 633.153 885.92Z" />
<path d="M374.476 926.616V944.415H390.862V954.114H374.476V982.412H364.385V917.217H393.36V926.716H374.476V926.616Z" />
<path d="M392.162 982.309V971.01H402.654V982.309H392.162Z" />
<path d="M435.929 948.213C438.827 949.113 440.725 950.913 441.824 953.512C442.923 956.112 443.423 959.112 443.423 962.512C443.423 969.311 441.924 974.311 439.027 977.511C436.129 980.71 431.633 982.31 425.639 982.31H412.15V917.115H426.338C432.033 917.115 436.229 918.615 438.827 921.615C441.425 924.615 442.723 929.014 442.723 934.814C442.723 937.814 442.224 940.413 441.225 942.713C440.226 944.913 438.427 946.613 435.83 947.813V948.213H435.929ZM433.232 935.014C433.232 932.014 432.632 929.814 431.433 928.514C430.234 927.214 428.236 926.515 425.539 926.515H422.341V943.413H425.639C428.236 943.413 430.134 942.713 431.433 941.213C432.632 939.814 433.232 937.714 433.232 935.014ZM433.831 961.712C433.831 958.612 433.232 956.412 432.133 954.912C431.034 953.412 429.035 952.713 426.238 952.713H422.441V972.911H426.438C428.036 972.911 429.335 972.611 430.334 972.011C431.333 971.411 432.033 970.611 432.532 969.611C433.032 968.611 433.432 967.411 433.532 966.011C433.731 964.612 433.831 963.212 433.831 961.712Z" />
<path d="M452.211 982.309V971.01H462.702V982.309H452.211Z" />
<path d="M633.053 982.914C628.157 982.914 624.56 981.514 622.262 978.715C619.964 975.915 618.865 972.015 618.865 967.015L628.557 965.416V966.715C628.557 969.115 628.957 970.915 629.656 971.915C630.356 972.915 631.554 973.415 633.253 973.415C634.352 973.415 635.351 973.015 636.25 972.315C637.05 971.515 637.549 970.115 637.749 968.015V952.516C637.749 949.817 636.45 948.517 633.753 948.517C632.753 948.517 631.754 948.817 630.855 949.317C629.956 949.817 629.256 950.717 628.757 952.017H620.364V917.119H647.541V926.418H629.556V942.117C629.656 942.117 629.656 942.117 629.656 942.117C629.656 942.117 629.756 942.117 629.856 942.117C630.655 941.217 631.754 940.617 632.953 940.217C634.252 939.817 635.451 939.617 636.65 939.617C640.647 939.617 643.544 940.717 645.243 942.917C646.941 945.117 647.841 947.917 647.841 951.317V964.816C647.841 971.015 646.642 975.515 644.244 978.415C641.746 981.414 638.049 982.914 633.053 982.914Z" />
<path d="M682.117 982.313L671.626 954.215C670.927 955.715 670.227 957.215 669.528 958.714C668.828 960.214 668.029 961.714 667.33 963.214V982.213H657.238V917.018H667.33V943.316H667.829L680.119 917.018H690.61C688.412 921.417 686.214 925.817 684.015 930.217C681.817 934.616 679.619 939.016 677.421 943.416L692.408 982.213H682.117V982.313Z" />
<defs>
<linearGradient id="paint0_linear" x1="-0.158464" y1="747.63" x2="934.082" y2="747.63" gradientUnits="userSpaceOnUse">
<stop offset="0.005618" stop-color="#EFC981"/>
<stop offset="0.1854" stop-color="#F2D78F"/>
<stop offset="0.4101" stop-color="#F8F0E4"/>
<stop offset="0.7303" stop-color="#C55F11"/>
<stop offset="0.9015" stop-color="#E5AF6D"/>
<stop offset="0.9494" stop-color="#EEC687"/>
</linearGradient>
</defs>
</svg>
