<svg width="934" height="1495" viewBox="0 0 934 1495"  xmlns="http://www.w3.org/2000/svg">
<path d="M421.615 718.135V666.439H412.013V718.135H402.611V657.34H431.117V718.135H421.615Z" />
<path d="M455.826 657.439C461.428 657.439 465.528 658.939 468.129 661.839C470.729 664.739 472.03 669.439 472.03 675.938C472.03 678.838 471.73 681.338 471.23 683.737C470.729 686.037 469.829 688.037 468.529 689.737C467.229 691.437 465.528 692.737 463.528 693.637C461.427 694.537 458.827 695.036 455.726 695.036H451.925V718.335H442.523V657.539H455.826V657.439ZM451.825 666.239V685.837H455.126C458.027 685.837 460.027 685.037 461.227 683.337C462.328 681.638 462.928 679.138 462.928 675.838C462.928 672.838 462.428 670.538 461.328 668.739C460.227 667.039 458.227 666.139 455.326 666.139H451.825V666.239Z" />
<path d="M509.434 702.636C509.434 707.935 508.233 711.935 505.833 714.635C503.432 717.335 499.732 718.734 494.63 718.734C489.529 718.734 485.829 717.435 483.528 714.835C481.228 712.235 480.027 708.535 480.027 703.636V673.038C480.027 670.638 480.327 668.439 480.828 666.539C481.428 664.539 482.228 662.839 483.428 661.439C484.628 660.039 486.129 658.939 488.029 658.139C489.929 657.339 492.13 656.939 494.73 656.939C497.531 656.939 499.832 657.339 501.732 658.039C503.632 658.739 505.133 659.839 506.233 661.239C507.333 662.639 508.133 664.339 508.633 666.339C509.134 668.339 509.334 670.538 509.334 673.038V702.636H509.434ZM500.032 672.238C500.032 670.538 499.632 669.038 498.931 667.739C498.231 666.439 496.831 665.739 494.831 665.739C493.73 665.739 492.83 665.939 492.13 666.439C491.43 666.939 490.93 667.539 490.53 668.239C490.129 668.938 489.929 669.738 489.729 670.638C489.629 671.538 489.529 672.338 489.529 673.138V703.736C489.529 705.336 489.929 706.735 490.73 707.935C491.53 709.235 492.83 709.835 494.831 709.835C496.731 709.835 498.131 709.135 498.931 707.835C499.732 706.535 500.132 704.936 500.132 703.036V672.238H500.032Z" />
<path d="M570.75 657.439V718.235H561.348V666.239H552.146V689.637C552.146 694.537 551.946 698.636 551.645 701.936C551.345 705.236 550.645 708.036 549.745 710.335C548.845 712.635 547.545 714.435 545.944 715.935C544.344 717.335 542.344 718.635 539.843 719.735L536.242 712.735C537.743 711.835 539.043 710.935 539.943 709.835C540.943 708.835 541.643 707.536 542.243 706.036C542.844 704.536 543.244 702.636 543.444 700.536C543.644 698.336 543.744 695.636 543.744 692.337V657.439H570.75Z" />
<path d="M603.555 680.138L590.852 718.235H581.75V657.439H590.952V695.937H591.252L603.955 657.439H613.157V718.235H603.855V680.138H603.555Z" />
<path d="M633.464 666.239V718.235H624.062V657.439H650.368V666.239H633.464Z" />
<path d="M673.064 718.134L670.664 705.435H659.461C659.061 707.534 658.661 709.634 658.261 711.734C657.861 713.834 657.561 715.934 657.161 718.034H647.559C649.559 707.834 651.659 697.735 653.66 687.636C655.66 677.537 657.761 667.437 659.761 657.238H670.264L682.566 718.034H673.064V718.134ZM664.862 671.437C664.262 675.637 663.662 679.837 663.062 683.936C662.462 688.136 661.762 692.336 660.962 696.635H669.263L665.363 671.437H664.862Z" />
<path d="M746.293 982.417C746.393 982.117 746.493 981.917 746.593 981.617C747.794 978.217 748.994 974.918 750.294 971.518C750.294 971.418 750.394 971.318 750.394 971.218C750.394 971.218 750.394 971.118 750.494 971.118C750.594 971.118 750.594 971.118 750.694 971.118C750.994 971.118 751.394 971.218 751.694 971.218C751.995 971.218 752.295 971.318 752.595 971.318C752.695 971.318 752.795 971.318 752.995 971.318C753.095 971.318 753.195 971.318 753.295 971.318C753.795 971.318 754.295 971.318 754.695 971.318C754.795 971.318 754.895 971.318 754.995 971.318C755.095 971.318 755.095 971.318 755.195 971.318C755.395 971.318 755.595 971.318 755.795 971.318C757.696 971.118 759.496 970.718 761.296 970.118C765.497 968.518 768.798 965.918 771.399 962.219C771.499 962.119 771.499 962.019 771.599 961.919V961.819C771.499 961.719 771.399 961.719 771.299 961.619C769.598 960.519 767.998 959.419 766.298 958.319C765.797 958.019 765.297 957.719 764.797 957.419L764.697 957.319C764.697 957.319 764.697 957.319 764.597 957.319L764.497 957.419C764.197 957.819 763.897 958.219 763.597 958.519C762.097 960.219 760.296 961.519 758.096 962.219C757.396 962.419 756.696 962.619 755.995 962.719C755.595 962.819 755.195 962.818 754.795 962.818C754.395 962.818 753.995 962.818 753.595 962.818C753.195 962.818 752.795 962.819 752.295 962.719C751.894 962.719 751.394 962.619 750.994 962.519C749.694 962.219 748.494 961.719 747.394 961.119C745.893 960.219 744.593 959.119 743.493 957.619C742.493 956.319 741.792 954.919 741.392 953.319C741.292 952.819 741.192 952.219 741.092 951.719C740.992 950.919 740.992 950.219 740.992 949.42C740.992 948.92 741.092 948.52 741.092 948.02C741.292 946.92 741.592 945.92 741.992 945.02C742.893 942.82 744.393 941.12 746.293 939.72C747.494 938.82 748.894 938.12 750.394 937.72C750.894 937.62 751.494 937.52 751.995 937.42C752.795 937.32 753.495 937.32 754.295 937.32C754.795 937.32 755.295 937.42 755.795 937.52C756.495 937.62 757.096 937.82 757.796 938.02C760.096 938.82 761.997 940.12 763.497 941.92C763.597 942.02 763.697 942.12 763.697 942.22H763.797C763.897 942.22 763.897 942.12 763.997 942.02C765.597 940.72 767.198 939.52 768.798 938.22C769.198 937.92 769.598 937.52 770.098 937.22C770.198 937.22 770.198 937.12 770.298 937.12V937.02C770.198 936.92 770.198 936.92 770.098 936.82C768.198 934.421 765.798 932.521 763.097 931.221C762.997 931.221 762.997 931.121 762.897 931.121V931.021C762.897 930.921 762.997 930.821 762.997 930.721C764.397 926.921 765.797 923.022 767.198 919.222C767.198 919.122 767.198 919.122 767.298 919.022C767.298 918.922 767.398 918.922 767.498 918.922C767.598 918.922 767.598 919.022 767.698 919.022C773.999 921.922 779.2 926.721 782.701 932.821C784.201 935.421 785.302 938.22 786.102 941.12C786.302 942.02 786.502 943.02 786.702 943.92C786.802 944.42 786.902 944.92 786.902 945.52C787.002 946.12 787.002 946.82 787.102 947.42C787.202 948.62 787.202 949.72 787.102 950.919C787.102 951.519 787.002 952.119 787.002 952.819C786.902 953.319 786.902 953.919 786.802 954.419C786.702 954.919 786.602 955.519 786.502 956.019C786.202 957.319 785.902 958.519 785.502 959.819C784.202 963.718 782.301 967.218 779.8 970.418C776.7 974.218 772.999 977.217 768.598 979.417C766.498 980.517 764.197 981.317 761.897 981.917C761.097 982.117 760.296 982.317 759.396 982.417C758.796 982.517 758.296 982.617 757.696 982.617C757.296 982.617 756.796 982.717 756.396 982.717C755.995 982.717 755.695 982.817 755.295 982.817C754.695 982.817 754.095 982.917 753.495 982.917C752.795 982.917 752.195 982.917 751.494 982.817C750.994 982.817 750.394 982.717 749.894 982.717C749.294 982.617 748.694 982.617 748.094 982.517C747.494 982.417 746.893 982.317 746.393 982.217C746.293 982.517 746.293 982.417 746.293 982.417Z" fill="#FFED00"/>
<path d="M762.495 917.417C762.495 917.517 762.395 917.617 762.395 917.617C761.395 920.217 760.494 922.817 759.494 925.417C758.994 926.717 758.494 928.017 758.094 929.317C758.094 929.417 757.994 929.517 757.994 929.617C757.994 929.617 757.894 929.716 757.894 929.617C757.694 929.617 757.394 929.517 757.194 929.517C756.794 929.417 756.394 929.417 755.993 929.317C755.393 929.217 754.893 929.217 754.293 929.217C753.793 929.217 753.293 929.217 752.693 929.217C752.593 929.217 752.393 929.217 752.293 929.217C751.892 929.217 751.592 929.317 751.192 929.317C750.792 929.317 750.392 929.417 749.992 929.517C749.092 929.717 748.192 929.916 747.392 930.116C744.091 931.116 741.29 932.916 738.89 935.316C736.889 937.216 735.389 939.516 734.289 942.016C733.788 943.315 733.388 944.615 733.088 945.915C732.988 946.515 732.888 947.015 732.788 947.615C732.688 948.215 732.688 948.715 732.688 949.315C732.688 949.415 732.688 949.415 732.688 949.515C732.588 949.715 732.688 950.015 732.688 950.215C732.688 950.415 732.688 950.615 732.688 950.815C732.688 951.015 732.688 951.315 732.788 951.615C732.788 952.315 732.888 952.915 732.988 953.615C733.188 955.015 733.588 956.314 734.089 957.614C735.089 960.414 736.689 962.814 738.79 964.914C740.19 966.314 741.79 967.614 743.591 968.613C744.091 968.913 744.591 969.113 745.091 969.413C745.191 969.413 745.191 969.513 745.291 969.513V969.613C745.291 969.713 745.291 969.713 745.191 969.813C744.791 970.813 744.491 971.813 744.091 972.713C743.191 975.313 742.19 977.913 741.29 980.513C741.29 980.613 741.19 980.613 741.19 980.713C741.19 980.713 741.09 980.813 741.09 980.713C740.99 980.713 740.99 980.613 740.89 980.613C737.889 979.413 734.989 977.713 732.488 975.613C728.787 972.613 725.887 969.014 723.786 964.914C722.586 962.614 721.686 960.214 721.086 957.614C720.886 956.714 720.686 955.914 720.586 955.015C720.486 954.415 720.386 953.815 720.386 953.115C720.286 952.315 720.286 951.515 720.186 950.815C720.186 950.215 720.186 949.615 720.186 949.015C720.186 948.415 720.186 947.815 720.286 947.215C720.286 946.715 720.386 946.215 720.386 945.615C720.486 944.915 720.586 944.215 720.686 943.515C720.886 942.216 721.186 941.016 721.586 939.816C722.786 935.816 724.687 932.116 727.387 928.817C730.188 925.317 733.589 922.417 737.489 920.217C739.99 918.817 742.59 917.817 745.291 917.117C746.191 916.917 747.091 916.718 748.092 916.518C748.692 916.418 749.292 916.318 749.892 916.218C750.392 916.118 750.892 916.118 751.392 916.118C752.193 916.018 752.993 916.018 753.893 916.018C754.193 916.018 754.393 916.018 754.693 916.018C755.193 916.018 755.793 916.018 756.293 916.118C756.894 916.118 757.394 916.218 757.994 916.318C759.494 916.518 760.995 916.818 762.495 917.217C762.295 917.317 762.395 917.318 762.495 917.417C762.395 917.318 762.395 917.417 762.495 917.417Z" fill="#FFED00"/>
<path d="M545.848 850.621V843.521H576.354V850.621H545.848ZM545.848 864.02V857.02H576.354V864.12H545.848V864.02Z" />
<path d="M545.848 1043.81V1036.71H576.354V1043.81H545.848ZM545.848 1057.21V1050.11H576.354V1057.21H545.848Z" />
<path d="M545.848 1137.4V1130.3H576.354V1137.4H545.848ZM545.848 1150.9V1143.8H576.354V1150.9H545.848Z" />
<path d="M545.848 1238.89V1231.79H576.354V1238.89H545.848ZM545.848 1252.39V1245.29H576.354V1252.39H545.848Z" />
<path d="M309.693 1215.89C310.793 1215.89 311.693 1215.99 312.493 1216.29C313.294 1216.59 313.894 1216.99 314.394 1217.49C314.894 1217.99 315.294 1218.69 315.494 1219.39C315.694 1220.09 315.894 1220.89 315.894 1221.79L311.993 1222.79C311.993 1221.89 311.793 1221.09 311.493 1220.49C311.193 1219.89 310.593 1219.59 309.793 1219.59C309.293 1219.59 308.893 1219.69 308.692 1219.89C308.392 1220.09 308.192 1220.39 307.992 1220.69C307.792 1220.99 307.692 1221.29 307.692 1221.69C307.592 1222.09 307.592 1222.39 307.592 1222.69V1235.89C307.592 1236.09 307.592 1236.39 307.692 1236.69C307.692 1236.99 307.892 1237.29 307.992 1237.49C308.192 1237.79 308.392 1237.99 308.692 1238.19C308.993 1238.39 309.293 1238.49 309.793 1238.49C311.293 1238.49 311.993 1237.39 312.093 1235.29C312.793 1235.39 313.394 1235.49 314.094 1235.59C314.794 1235.69 315.394 1235.79 316.094 1235.89C316.094 1237.89 315.494 1239.39 314.494 1240.59C313.494 1241.69 311.893 1242.29 309.893 1242.29C307.792 1242.29 306.192 1241.79 305.192 1240.69C304.192 1239.59 303.691 1237.99 303.691 1235.89V1222.89C303.691 1221.89 303.791 1220.99 303.992 1220.19C304.192 1219.29 304.592 1218.59 305.092 1217.89C305.592 1217.29 306.292 1216.69 307.092 1216.39C307.592 1216.09 308.592 1215.89 309.693 1215.89Z" />
<path d="M319.598 1242.09V1237.59H323.801V1242.09H319.598Z" />
<path d="M338.002 1228.49C339.102 1228.89 339.902 1229.59 340.402 1230.59C340.802 1231.59 341.002 1232.79 341.002 1234.19C341.002 1236.89 340.402 1238.89 339.302 1240.19C338.102 1241.49 336.401 1242.09 334.001 1242.09H328.6V1216.09H334.301C336.601 1216.09 338.302 1216.69 339.302 1217.89C340.302 1219.09 340.902 1220.89 340.902 1223.09C340.902 1224.29 340.702 1225.29 340.302 1226.19C339.902 1227.09 339.202 1227.79 338.202 1228.19V1228.49H338.002ZM336.901 1223.29C336.901 1222.09 336.701 1221.19 336.201 1220.69C335.701 1220.19 334.901 1219.89 333.801 1219.89H332.5V1226.59H333.801C334.801 1226.59 335.601 1226.29 336.101 1225.69C336.701 1225.19 336.901 1224.39 336.901 1223.29ZM337.101 1233.89C337.101 1232.69 336.901 1231.79 336.401 1231.19C336.001 1230.59 335.201 1230.29 334.001 1230.29H332.5V1238.39H334.101C334.701 1238.39 335.301 1238.29 335.701 1237.99C336.101 1237.79 336.401 1237.39 336.601 1236.99C336.801 1236.59 336.901 1236.09 337.001 1235.59C337.101 1235.09 337.101 1234.49 337.101 1233.89Z" />
<path d="M345.404 1242.09V1237.59H349.608V1242.09H345.404Z" />
<path d="M378.61 1264.09L374.309 1252.79L370.609 1242.09H370.209V1277.29H360.807V1216.49H370.009L376.61 1233.79L381.411 1246.99H381.811L386.712 1233.49L393.213 1216.59H402.315V1277.39H392.913V1242.39H392.613L388.813 1253.19L384.512 1264.09H378.61Z" />
<path d="M434.92 1277.39L432.519 1264.69H421.317C420.917 1266.79 420.517 1268.89 420.116 1270.99C419.716 1273.09 419.416 1275.19 419.016 1277.29H409.414C411.415 1267.09 413.515 1256.99 415.515 1246.89C417.516 1236.79 419.616 1226.69 421.617 1216.49H432.119L444.422 1277.29H434.92V1277.39ZM426.718 1230.69C426.118 1234.89 425.518 1239.09 424.918 1243.19C424.317 1247.39 423.617 1251.59 422.817 1255.89H431.119L427.218 1230.69H426.718Z" />
<path d="M472.632 1277.39L465.731 1256.49H465.531L458.629 1277.39H448.127L460.43 1245.59C458.529 1240.79 456.629 1235.99 454.728 1231.09C452.828 1226.29 450.928 1221.49 449.027 1216.59H459.629C460.63 1219.69 461.63 1222.69 462.63 1225.69C463.63 1228.69 464.631 1231.69 465.631 1234.79L465.931 1234.69L471.732 1216.49H482.434L470.632 1245.49C472.732 1250.89 474.833 1256.19 476.933 1261.39C479.034 1266.69 481.134 1271.99 483.235 1277.19H472.632V1277.39Z" />
<path d="M446.532 817.322C447.332 817.322 448.233 817.322 449.033 817.322C449.133 817.322 449.233 817.322 449.333 817.422C449.633 817.422 449.933 817.422 450.233 817.522C451.633 817.622 453.134 817.822 454.534 818.122C457.535 818.722 460.435 819.722 463.236 821.222C467.237 823.322 470.637 826.022 473.538 829.421C476.739 833.221 478.939 837.521 480.239 842.32C480.64 843.72 480.84 845.12 481.04 846.52C481.14 847.42 481.24 848.32 481.24 849.32C481.24 850.42 481.24 851.52 481.24 852.62C481.24 853.12 481.24 853.619 481.14 854.119C481.04 855.319 480.84 856.619 480.54 857.819C479.939 860.819 478.939 863.619 477.539 866.319C475.839 869.618 473.538 872.618 470.838 875.218C469.837 876.218 468.837 877.018 467.637 877.918C467.537 878.018 467.437 878.118 467.337 878.118C467.337 878.018 467.237 877.918 467.237 877.818C465.536 872.618 463.836 867.518 462.236 862.319C461.435 859.919 460.735 857.619 459.935 855.219C459.935 855.119 459.835 855.019 459.835 854.919C459.935 854.819 460.035 854.819 460.035 854.719C465.536 850.72 470.938 846.82 476.439 842.82C477.339 842.12 478.339 841.52 479.239 840.82C479.339 840.82 479.339 840.72 479.339 840.62C479.239 840.62 479.139 840.62 478.939 840.62C471.138 840.62 463.336 840.62 455.634 840.62C455.534 840.62 455.434 840.62 455.334 840.62C455.234 840.62 455.234 840.62 455.134 840.62C455.134 840.62 455.134 840.62 455.134 840.52C455.134 840.52 455.134 840.521 455.134 840.421C452.734 833.021 450.333 825.622 447.933 818.222C447.933 818.122 447.833 818.022 447.833 817.922V817.822C447.833 817.822 447.833 817.822 447.833 817.722C447.433 819.022 447.032 820.322 446.532 821.622C446.132 822.922 445.732 824.222 445.332 825.422C444.932 826.722 444.532 828.021 444.032 829.321C443.632 830.621 443.232 831.921 442.731 833.221C442.331 834.521 441.931 835.821 441.531 837.021C441.131 838.321 440.731 839.621 440.231 840.92C440.031 840.92 439.931 840.92 439.831 840.92C431.929 840.92 424.027 840.92 416.126 840.92C416.026 840.92 415.926 840.92 415.926 840.92C415.926 840.82 415.926 840.72 416.026 840.62C417.726 835.521 420.627 831.021 424.428 827.222C428.028 823.722 432.129 821.222 436.93 819.522C439.931 818.522 443.032 817.922 446.132 817.722C446.332 817.422 446.432 817.422 446.532 817.322Z" fill="#FFED00"/>
<path d="M414.217 851.518C414.217 851.018 414.217 850.618 414.217 850.118C414.317 849.918 414.317 849.618 414.317 849.318C414.317 849.018 414.317 848.818 414.317 848.518C414.417 847.318 414.517 846.118 414.717 844.918C415.017 843.418 415.317 842.018 415.817 840.618C415.817 840.518 415.917 840.418 415.917 840.318C416.017 840.418 416.117 840.518 416.317 840.618C422.619 845.218 429.02 849.818 435.321 854.417C435.421 854.517 435.521 854.517 435.621 854.617C435.621 854.717 435.521 854.817 435.521 854.917C435.221 855.717 435.021 856.517 434.721 857.217C432.621 863.717 430.52 870.216 428.32 876.816C428.22 877.116 428.12 877.416 428.02 877.715C427.92 877.615 427.82 877.615 427.72 877.515C424.619 875.216 421.919 872.416 419.818 869.116C416.417 863.917 414.517 858.317 414.317 852.117C414.317 852.117 414.317 851.817 414.217 851.518Z" fill="#FFED00"/>
<path d="M467.53 878.017C467.43 878.117 467.33 878.217 467.23 878.317C465.33 879.717 463.329 880.817 461.129 881.717C458.828 882.717 456.328 883.517 453.827 883.917C452.427 884.117 451.127 884.317 449.726 884.417C449.626 884.417 449.526 884.417 449.426 884.417C448.326 884.417 447.126 884.417 446.025 884.417C445.925 884.417 445.825 884.417 445.725 884.317C444.725 884.217 443.725 884.117 442.725 884.017C440.824 883.717 439.024 883.317 437.223 882.717C434.023 881.617 431.122 880.117 428.322 878.217C428.222 878.117 428.122 878.017 428.021 878.017C428.122 877.917 428.222 877.917 428.422 877.817C434.723 873.218 441.124 868.618 447.426 864.018C447.526 863.918 447.626 863.818 447.726 863.818C447.826 863.918 447.926 863.918 448.026 864.018C449.026 864.718 450.026 865.518 451.027 866.218C456.328 870.118 461.629 873.918 466.93 877.817C467.23 877.817 467.43 877.917 467.53 878.017Z" fill="#FFED00"/>
<path d="M765.588 1229.49C765.988 1229.49 766.388 1229.49 766.789 1229.49H766.889C766.989 1229.49 767.189 1229.49 767.289 1229.49C767.989 1229.49 768.689 1229.59 769.289 1229.79C770.689 1230.09 772.09 1230.59 773.39 1231.29C775.291 1232.29 776.891 1233.59 778.291 1235.19C779.791 1236.99 780.892 1239.09 781.492 1241.39C781.692 1242.09 781.792 1242.69 781.892 1243.39C781.992 1243.79 781.992 1244.29 781.992 1244.69C781.992 1245.19 781.992 1245.79 781.992 1246.29C781.992 1246.49 781.992 1246.79 781.992 1246.99C781.892 1247.59 781.892 1248.19 781.692 1248.79C781.392 1250.19 780.892 1251.59 780.292 1252.79C779.491 1254.39 778.391 1255.79 777.091 1256.99C776.591 1257.49 776.091 1257.89 775.591 1258.29L775.491 1258.39V1258.29C774.69 1255.89 773.89 1253.39 773.09 1250.99C772.69 1249.89 772.39 1248.79 771.99 1247.59C771.99 1247.59 771.99 1247.49 771.99 1247.39L772.09 1247.29C774.69 1245.39 777.291 1243.49 779.892 1241.59C780.292 1241.29 780.792 1240.99 781.192 1240.59C781.192 1240.59 781.292 1240.59 781.292 1240.49C781.192 1240.49 781.192 1240.49 781.092 1240.49C777.391 1240.49 773.69 1240.49 769.989 1240.49H769.889H769.789C768.689 1236.99 767.489 1233.49 766.389 1229.89V1229.79C766.189 1230.39 765.988 1230.99 765.788 1231.59C765.588 1232.19 765.388 1232.79 765.188 1233.39C764.988 1233.99 764.788 1234.59 764.588 1235.19C764.388 1235.79 764.188 1236.39 763.988 1236.99C763.788 1237.59 763.588 1238.19 763.388 1238.79C763.188 1239.39 762.988 1239.99 762.788 1240.59C762.688 1240.59 762.688 1240.59 762.588 1240.59C758.887 1240.59 755.086 1240.59 751.385 1240.59H751.285C751.285 1240.49 751.285 1240.49 751.285 1240.49C752.085 1238.09 753.486 1235.89 755.286 1234.09C756.986 1232.39 758.987 1231.19 761.187 1230.49C762.588 1229.99 764.088 1229.69 765.588 1229.69C765.488 1229.49 765.488 1229.49 765.588 1229.49Z" fill="#FFED00"/>
<path d="M750.186 1245.69C750.186 1245.49 750.186 1245.29 750.186 1245.09C750.186 1244.99 750.286 1244.89 750.286 1244.69C750.286 1244.59 750.286 1244.49 750.286 1244.29C750.286 1243.69 750.386 1243.19 750.486 1242.59C750.586 1241.89 750.786 1241.19 750.986 1240.59C750.986 1240.59 750.986 1240.49 751.086 1240.49C751.186 1240.49 751.186 1240.59 751.286 1240.59C754.286 1242.79 757.287 1244.99 760.288 1247.19L760.388 1247.29C760.388 1247.39 760.388 1247.39 760.388 1247.49C760.288 1247.89 760.188 1248.19 759.988 1248.59C758.988 1251.69 757.987 1254.79 756.987 1257.89C756.987 1257.99 756.887 1258.19 756.787 1258.29L756.687 1258.19C755.187 1257.09 753.886 1255.79 752.886 1254.19C751.286 1251.69 750.386 1248.99 750.286 1246.09C750.286 1245.99 750.186 1245.89 750.186 1245.69Z" fill="#FFED00"/>
<path d="M775.492 1258.29C775.492 1258.39 775.392 1258.39 775.392 1258.39C774.492 1258.99 773.492 1259.59 772.492 1259.99C771.392 1260.49 770.191 1260.79 768.991 1261.09C768.391 1261.19 767.691 1261.29 767.091 1261.29C766.991 1261.29 766.991 1261.29 766.891 1261.29C766.391 1261.29 765.79 1261.29 765.29 1261.29H765.19C764.69 1261.29 764.19 1261.19 763.79 1261.09C762.89 1260.99 761.99 1260.79 761.189 1260.49C759.689 1259.99 758.289 1259.29 756.989 1258.39L756.889 1258.29C756.989 1258.29 756.989 1258.19 757.089 1258.19C760.089 1255.99 763.09 1253.79 766.091 1251.59C766.091 1251.59 766.19 1251.49 766.291 1251.49L766.391 1251.59C766.891 1251.99 767.391 1252.29 767.791 1252.69C770.291 1254.49 772.792 1256.39 775.392 1258.19C775.392 1258.19 775.492 1258.19 775.492 1258.29Z" fill="#FFED00"/>
<path d="M743.596 1031.4C743.996 1031.4 744.396 1031.4 744.796 1031.4H744.896C744.996 1031.4 745.196 1031.4 745.296 1031.4C745.996 1031.4 746.696 1031.5 747.297 1031.7C748.697 1032 750.097 1032.5 751.398 1033.2C753.298 1034.2 754.898 1035.5 756.298 1037.1C757.799 1038.9 758.899 1041 759.499 1043.3C759.699 1044 759.799 1044.6 759.899 1045.3C759.999 1045.7 759.999 1046.2 759.999 1046.6C759.999 1047.1 759.999 1047.7 759.999 1048.2C759.999 1048.4 759.999 1048.7 759.999 1048.9C759.899 1049.5 759.899 1050.1 759.699 1050.7C759.399 1052.1 758.899 1053.5 758.299 1054.7C757.499 1056.3 756.399 1057.7 755.098 1058.9C754.598 1059.4 754.098 1059.8 753.598 1060.2L753.498 1060.3V1060.2C752.698 1057.8 751.898 1055.3 751.097 1052.9C750.697 1051.8 750.397 1050.7 749.997 1049.5C749.997 1049.5 749.997 1049.4 749.997 1049.3L750.097 1049.2C752.698 1047.3 755.298 1045.4 757.899 1043.5C758.299 1043.2 758.799 1042.9 759.199 1042.5C759.199 1042.5 759.299 1042.5 759.299 1042.4C759.199 1042.4 759.199 1042.4 759.099 1042.4C755.398 1042.4 751.698 1042.4 747.997 1042.4H747.897H747.797C746.696 1038.9 745.496 1035.4 744.396 1031.8V1031.7C744.196 1032.3 743.996 1032.9 743.796 1033.5C743.596 1034.1 743.396 1034.7 743.196 1035.3C742.996 1035.9 742.796 1036.5 742.596 1037.1C742.396 1037.7 742.196 1038.3 741.996 1038.9C741.796 1039.5 741.596 1040.1 741.396 1040.7C741.195 1041.3 740.995 1041.9 740.795 1042.5C740.695 1042.5 740.695 1042.5 740.595 1042.5C736.895 1042.5 733.094 1042.5 729.393 1042.5H729.293C729.293 1042.4 729.293 1042.4 729.293 1042.4C730.093 1040 731.493 1037.8 733.294 1036C734.994 1034.3 736.995 1033.1 739.195 1032.4C740.595 1031.9 742.096 1031.6 743.596 1031.6C743.496 1031.5 743.596 1031.5 743.596 1031.4Z" fill="#FFED00"/>
<path d="M728.285 1047.71C728.285 1047.51 728.285 1047.31 728.285 1047.11C728.285 1047.01 728.385 1046.91 728.385 1046.71C728.385 1046.61 728.385 1046.51 728.385 1046.31C728.385 1045.71 728.485 1045.21 728.585 1044.61C728.685 1043.91 728.885 1043.21 729.085 1042.61C729.085 1042.61 729.085 1042.51 729.185 1042.51C729.285 1042.51 729.286 1042.61 729.386 1042.61C732.386 1044.81 735.387 1047.01 738.388 1049.21L738.488 1049.31C738.488 1049.41 738.488 1049.41 738.488 1049.51C738.388 1049.91 738.288 1050.21 738.088 1050.61C737.087 1053.7 736.087 1056.8 735.087 1059.9C735.087 1060 734.987 1060.2 734.887 1060.3L734.787 1060.2C733.286 1059.1 731.986 1057.8 730.986 1056.2C729.386 1053.7 728.485 1051.01 728.385 1048.11C728.285 1048.01 728.285 1047.81 728.285 1047.71Z" fill="#FFED00"/>
<path d="M753.592 1060.3C753.592 1060.4 753.492 1060.4 753.492 1060.4C752.592 1061 751.592 1061.6 750.592 1062C749.491 1062.5 748.291 1062.8 747.091 1063.1C746.491 1063.2 745.791 1063.3 745.19 1063.3C745.09 1063.3 745.091 1063.3 744.99 1063.3C744.49 1063.3 743.89 1063.3 743.39 1063.3H743.29C742.79 1063.3 742.29 1063.2 741.89 1063.1C740.99 1063 740.089 1062.8 739.289 1062.5C737.789 1062 736.389 1061.3 735.088 1060.4L734.988 1060.3C735.088 1060.3 735.088 1060.2 735.188 1060.2C738.189 1058 741.19 1055.8 744.19 1053.6C744.19 1053.6 744.29 1053.5 744.39 1053.5L744.49 1053.6C744.99 1054 745.491 1054.3 745.891 1054.7C748.391 1056.5 750.892 1058.4 753.492 1060.2C753.492 1060.2 753.492 1060.2 753.592 1060.3Z" fill="#FFED00"/>
<path d="M714.379 880.327C714.479 880.027 714.579 879.827 714.679 879.527C715.879 876.128 717.08 872.828 718.38 869.428C718.38 869.328 718.48 869.228 718.48 869.128C718.48 869.128 718.48 869.028 718.58 869.028C718.68 869.028 718.68 869.028 718.78 869.028C719.08 869.028 719.48 869.128 719.78 869.128C720.08 869.128 720.38 869.228 720.68 869.228C720.78 869.228 720.881 869.228 721.081 869.228C721.181 869.228 721.281 869.228 721.381 869.228C721.881 869.228 722.381 869.228 722.781 869.228C722.881 869.228 722.981 869.228 723.081 869.228C723.181 869.228 723.181 869.228 723.281 869.228C723.481 869.228 723.681 869.228 723.881 869.228C725.782 869.028 727.582 868.628 729.382 868.028C733.583 866.428 736.884 863.828 739.484 860.129C739.584 860.029 739.584 859.929 739.684 859.829V859.729C739.584 859.629 739.484 859.629 739.384 859.529C737.684 858.429 736.084 857.329 734.383 856.229C733.883 855.929 733.383 855.629 732.883 855.329L732.783 855.229C732.783 855.229 732.783 855.229 732.683 855.229L732.583 855.329C732.283 855.729 731.983 856.129 731.683 856.429C730.182 858.129 728.382 859.429 726.182 860.129C725.481 860.329 724.781 860.529 724.081 860.629C723.681 860.729 723.281 860.729 722.881 860.729C722.481 860.729 722.081 860.729 721.681 860.729C721.281 860.729 720.881 860.729 720.38 860.629C719.98 860.629 719.48 860.529 719.08 860.429C717.78 860.129 716.58 859.629 715.479 859.029C713.979 858.129 712.679 857.029 711.579 855.529C710.578 854.229 709.878 852.829 709.478 851.229C709.378 850.729 709.278 850.129 709.178 849.63C709.078 848.83 709.078 848.13 709.078 847.33C709.078 846.83 709.178 846.43 709.178 845.93C709.378 844.83 709.678 843.83 710.078 842.93C710.979 840.73 712.479 839.03 714.379 837.63C715.58 836.73 716.98 836.031 718.48 835.631C718.98 835.531 719.58 835.431 720.08 835.331C720.881 835.231 721.581 835.231 722.381 835.231C722.881 835.231 723.381 835.331 723.881 835.431C724.581 835.531 725.181 835.731 725.882 835.931C728.182 836.731 730.082 838.03 731.583 839.83C731.683 839.93 731.783 840.03 731.783 840.13H731.883C731.983 840.13 731.983 840.03 732.083 839.93C733.683 838.63 735.284 837.43 736.884 836.131C737.284 835.831 737.684 835.431 738.184 835.131C738.284 835.131 738.284 835.031 738.384 835.031V834.931C738.284 834.831 738.284 834.831 738.184 834.731C736.284 832.331 733.883 830.431 731.183 829.131C731.083 829.131 731.083 829.031 730.983 829.031V828.931C730.983 828.831 731.083 828.731 731.083 828.631C732.483 824.831 733.883 820.932 735.283 817.132C735.283 817.032 735.284 817.032 735.384 816.932C735.384 816.832 735.484 816.832 735.584 816.832C735.684 816.832 735.684 816.932 735.784 816.932C742.085 819.832 747.286 824.631 750.787 830.731C752.287 833.331 753.387 836.131 754.187 839.03C754.387 839.93 754.587 840.93 754.787 841.83C754.887 842.33 754.988 842.83 754.988 843.43C755.088 844.03 755.088 844.73 755.188 845.33C755.288 846.53 755.288 847.63 755.188 848.83C755.188 849.43 755.088 850.03 755.088 850.729C754.988 851.229 754.988 851.829 754.888 852.329C754.788 852.829 754.687 853.429 754.587 853.929C754.287 855.229 753.987 856.429 753.587 857.729C752.287 861.629 750.387 865.128 747.886 868.328C744.785 872.128 741.085 875.128 736.684 877.327C734.583 878.427 732.283 879.227 729.982 879.827C729.182 880.027 728.382 880.227 727.482 880.327C726.882 880.427 726.382 880.527 725.781 880.527C725.381 880.527 724.881 880.627 724.481 880.627C724.081 880.627 723.781 880.727 723.381 880.727C722.781 880.727 722.181 880.827 721.581 880.827C720.881 880.827 720.28 880.827 719.58 880.727C719.08 880.727 718.48 880.627 717.98 880.627C717.38 880.527 716.78 880.527 716.18 880.427C715.579 880.327 714.979 880.227 714.479 880.127C714.379 880.427 714.379 880.427 714.379 880.327Z" fill="#FFED00"/>
<path d="M730.581 815.328C730.581 815.428 730.481 815.528 730.481 815.528C729.48 818.127 728.58 820.727 727.58 823.327C727.08 824.627 726.58 825.927 726.18 827.227C726.18 827.327 726.08 827.427 726.08 827.527C726.08 827.527 725.98 827.627 725.98 827.527C725.78 827.527 725.479 827.427 725.279 827.427C724.879 827.327 724.479 827.327 724.079 827.227C723.479 827.127 722.979 827.127 722.379 827.127C721.879 827.127 721.379 827.127 720.778 827.127C720.678 827.127 720.479 827.127 720.378 827.127C719.978 827.127 719.678 827.227 719.278 827.227C718.878 827.227 718.478 827.327 718.078 827.427C717.178 827.627 716.278 827.827 715.477 828.027C712.177 829.027 709.376 830.826 706.976 833.226C704.975 835.126 703.475 837.426 702.375 839.926C701.875 841.226 701.474 842.525 701.174 843.825C701.074 844.425 700.974 844.925 700.874 845.525C700.774 846.125 700.774 846.625 700.774 847.225C700.774 847.325 700.774 847.325 700.774 847.425C700.674 847.625 700.774 847.925 700.774 848.125C700.774 848.325 700.774 848.525 700.774 848.725C700.774 848.925 700.774 849.225 700.874 849.525C700.874 850.225 700.974 850.825 701.074 851.525C701.274 852.925 701.674 854.225 702.175 855.524C703.175 858.324 704.775 860.724 706.876 862.824C708.276 864.224 709.876 865.524 711.677 866.524C712.177 866.824 712.677 867.024 713.177 867.324C713.277 867.324 713.277 867.424 713.377 867.424V867.524C713.377 867.624 713.377 867.624 713.277 867.724C712.877 868.723 712.577 869.723 712.177 870.623C711.276 873.223 710.276 875.823 709.376 878.423C709.376 878.523 709.276 878.523 709.276 878.623C709.276 878.623 709.176 878.723 709.176 878.623C709.076 878.623 709.076 878.523 708.976 878.523C705.975 877.323 703.075 875.623 700.574 873.523C696.873 870.523 693.973 866.924 691.872 862.824C690.672 860.524 689.772 858.124 689.172 855.524C688.972 854.625 688.772 853.825 688.672 852.925C688.572 852.325 688.472 851.725 688.472 851.025C688.372 850.225 688.372 849.425 688.271 848.725C688.271 848.125 688.271 847.525 688.271 846.925C688.271 846.325 688.272 845.725 688.372 845.125C688.372 844.625 688.472 844.125 688.472 843.525C688.572 842.825 688.672 842.126 688.772 841.426C688.972 840.126 689.272 838.926 689.672 837.726C690.872 833.726 692.773 830.026 695.473 826.727C698.274 823.227 701.674 820.327 705.575 818.127C708.076 816.727 710.676 815.728 713.377 815.028C714.277 814.828 715.177 814.628 716.178 814.428C716.778 814.328 717.378 814.228 717.978 814.128C718.478 814.028 718.978 814.028 719.478 814.028C720.278 813.928 721.079 813.928 721.979 813.928C722.279 813.928 722.479 813.928 722.779 813.928C723.279 813.928 723.879 813.928 724.379 814.028C724.979 814.028 725.48 814.128 726.08 814.228C727.58 814.428 729.08 814.728 730.581 815.128C730.381 815.228 730.481 815.228 730.581 815.328C730.481 815.328 730.481 815.328 730.581 815.328Z" fill="#FFED00"/>
<path d="M388.007 884.419V831.023L379.205 838.123V827.324L388.607 819.824H398.009V884.519H388.007V884.419Z" />
<path d="M391.909 1065.6L387.308 1053.6L383.307 1042.3H382.807V1079.7H372.805V1015.01H382.607L389.608 1033.4L394.709 1047.4H395.209L400.41 1033L407.412 1015.01H417.114V1079.7H407.112V1042.4H406.712L402.611 1053.9L398.11 1065.5H391.909V1065.6Z" />
<path d="M426.514 1079.7V1015.01H436.515V1079.7H426.514Z" />
<path d="M456.221 1042.1V1079.7H446.219V1015.01H455.221L463.022 1034.2C463.622 1035.8 464.223 1037.4 464.923 1038.9C465.523 1040.4 466.223 1042 466.923 1043.6L470.224 1052.5C470.324 1052.5 470.424 1052.5 470.424 1052.5C470.424 1052.5 470.524 1052.5 470.624 1052.5V1015.01H480.426V1079.7H471.624L463.823 1060.6C462.622 1057.4 461.322 1054.3 460.122 1051.3C458.921 1048.3 457.721 1045.2 456.521 1042.1H456.221Z" />
<path d="M389.707 1110.9C392.407 1110.9 394.708 1111.3 396.608 1112C398.509 1112.7 400.109 1113.8 401.409 1115.1C402.71 1116.4 403.61 1118 404.21 1119.8C404.81 1121.6 405.11 1123.6 405.11 1125.8L395.308 1128.3C395.308 1125.9 394.908 1124 394.008 1122.5C393.108 1121 391.707 1120.3 389.707 1120.3C388.507 1120.3 387.606 1120.5 386.806 1121C386.106 1121.5 385.506 1122.1 385.106 1122.9C384.706 1123.7 384.406 1124.5 384.306 1125.4C384.106 1126.3 384.106 1127.2 384.106 1128V1160.89C384.106 1161.49 384.206 1162.19 384.306 1162.99C384.406 1163.69 384.706 1164.39 385.106 1165.09C385.506 1165.79 386.106 1166.29 386.806 1166.69C387.506 1167.09 388.407 1167.39 389.507 1167.39C393.208 1167.39 395.108 1164.69 395.108 1159.39C396.808 1159.69 398.409 1159.99 400.109 1160.19C401.809 1160.39 403.41 1160.69 405.11 1160.89C405.01 1165.79 403.61 1169.69 401.109 1172.49C398.509 1175.29 394.708 1176.79 389.707 1176.79C384.406 1176.79 380.405 1175.49 377.904 1172.79C375.404 1170.09 374.104 1166.19 374.104 1160.99V1128.8C374.104 1126.4 374.404 1124.1 374.904 1122C375.404 1119.9 376.304 1118 377.504 1116.4C378.705 1114.8 380.405 1113.5 382.405 1112.6C384.406 1111.3 386.806 1110.9 389.707 1110.9Z" />
<path d="M412.016 1176.09V1164.89H422.418V1176.09H412.016Z" />
<path d="M455.415 1142.3C458.216 1143.2 460.216 1145 461.316 1147.6C462.417 1150.2 462.917 1153.2 462.917 1156.5C462.917 1163.29 461.516 1168.19 458.616 1171.39C455.715 1174.59 451.314 1176.09 445.413 1176.09H432.01V1111.4H446.113C451.814 1111.4 455.915 1112.9 458.516 1115.9C461.116 1118.9 462.417 1123.3 462.417 1129C462.417 1132 461.916 1134.6 460.916 1136.8C459.916 1139 458.116 1140.7 455.615 1141.8V1142.3H455.415ZM452.714 1129.2C452.714 1126.2 452.114 1124.1 450.914 1122.8C449.714 1121.5 447.813 1120.8 445.013 1120.8H441.812V1137.5H445.113C447.713 1137.5 449.614 1136.8 450.814 1135.4C452.114 1134 452.714 1131.9 452.714 1129.2ZM453.315 1155.6C453.315 1152.6 452.714 1150.3 451.614 1148.8C450.514 1147.3 448.513 1146.6 445.713 1146.6H441.912V1166.69H445.913C447.513 1166.69 448.814 1166.39 449.814 1165.79C450.814 1165.19 451.514 1164.39 452.014 1163.39C452.514 1162.39 452.914 1161.19 453.014 1159.89C453.214 1158.6 453.315 1157.1 453.315 1155.6Z" />
<path d="M471.627 1176.09V1164.89H482.029V1176.09H471.627Z" />
<path d="M665.472 873.617V883.316H655.67V873.617H636.666V865.118L650.469 818.521H660.271L646.868 864.118H655.67V849.419H665.472V864.118H669.573V873.517H665.472V873.617Z" />
<path d="M544.146 945.113V938.014H574.653V945.113H544.146ZM544.146 958.612V951.513H574.653V958.612H544.146Z" />
<path d="M392.51 926.616V944.415H408.914V954.114H392.51V982.412H382.408V917.217H411.414V926.716H392.51V926.616Z" />
<path d="M410.215 982.309V971.01H420.717V982.309H410.215Z" />
<path d="M453.926 948.213C456.827 949.113 458.727 950.913 459.827 953.512C460.928 956.112 461.428 959.112 461.428 962.512C461.428 969.311 459.927 974.311 457.027 977.511C454.126 980.71 449.625 982.31 443.624 982.31H430.121V917.115H444.324C450.025 917.115 454.226 918.615 456.827 921.615C459.427 924.615 460.727 929.014 460.727 934.814C460.727 937.814 460.227 940.413 459.227 942.713C458.227 944.913 456.427 946.613 453.826 947.813V948.213H453.926ZM451.225 935.014C451.225 932.014 450.625 929.814 449.425 928.514C448.225 927.214 446.224 926.515 443.524 926.515H440.323V943.413H443.624C446.224 943.413 448.125 942.713 449.425 941.213C450.625 939.814 451.225 937.714 451.225 935.014ZM451.826 961.712C451.826 958.612 451.226 956.412 450.125 954.912C449.025 953.412 447.025 952.713 444.224 952.713H440.423V972.911H444.424C446.024 972.911 447.325 972.611 448.325 972.011C449.325 971.411 450.025 970.611 450.525 969.611C451.025 968.611 451.426 967.411 451.526 966.011C451.726 964.612 451.826 963.212 451.826 961.712Z" />
<path d="M470.328 982.309V971.01H480.831V982.309H470.328Z" />
<path d="M644.168 982.313V928.417L635.266 935.516V924.617L644.768 917.018H654.27V982.213H644.168V982.313Z" />
<path d="M693.48 982.313L682.977 954.215C682.277 955.715 681.577 957.215 680.877 958.714C680.177 960.214 679.377 961.714 678.676 963.214V982.213H668.574V917.018H678.676V943.316H679.176L691.479 917.018H701.981C699.781 921.417 697.581 925.817 695.38 930.217C693.18 934.616 690.979 939.016 688.779 943.416L703.782 982.213H693.48V982.313Z" />
<path d="M644.168 1277.89V1223.99L635.266 1231.09V1220.2L644.768 1212.6H654.27V1277.79H644.168V1277.89Z" />
<path d="M697.08 1264.69C697.08 1266.89 696.68 1268.79 695.98 1270.59C695.18 1272.29 694.18 1273.79 692.879 1274.99C691.579 1276.19 690.079 1277.09 688.378 1277.69C686.678 1278.29 684.778 1278.59 682.877 1278.59C680.877 1278.59 678.976 1278.29 677.276 1277.69C675.576 1277.09 674.075 1276.19 672.775 1274.99C671.475 1273.79 670.475 1272.39 669.674 1270.59C668.874 1268.89 668.574 1266.89 668.574 1264.69V1226.09C668.574 1223.89 668.974 1221.89 669.674 1220.19C670.475 1218.49 671.475 1217 672.775 1215.8C674.075 1214.6 675.576 1213.7 677.276 1213.1C678.976 1212.5 680.877 1212.2 682.877 1212.2C687.078 1212.2 690.479 1213.4 693.079 1215.9C695.68 1218.29 696.98 1221.79 696.98 1226.19V1264.69H697.08ZM686.978 1225.59C686.978 1224.39 686.578 1223.39 685.778 1222.59C684.978 1221.89 683.977 1221.49 682.777 1221.49C681.477 1221.49 680.477 1221.89 679.676 1222.59C678.876 1223.29 678.476 1224.29 678.476 1225.59V1264.99C678.476 1266.19 678.876 1267.19 679.676 1267.99C680.477 1268.69 681.477 1269.09 682.777 1269.09C683.977 1269.09 684.978 1268.69 685.778 1267.99C686.578 1267.29 686.978 1266.29 686.978 1264.99V1225.59Z" />
<path d="M731.384 1277.89L720.882 1249.79C720.182 1251.29 719.481 1252.79 718.781 1254.29C718.081 1255.79 717.281 1257.29 716.581 1258.79V1277.79H706.479V1212.6H716.581V1238.89H717.081L729.384 1212.6H739.886C737.685 1217 735.485 1221.4 733.284 1225.79C731.084 1230.19 728.883 1234.59 726.683 1238.99L741.686 1277.79H731.384V1277.89Z" />
<path d="M644.168 1079.7V1025.8L635.266 1032.9V1022L644.768 1014.4H654.27V1079.6H644.168V1079.7Z" />
<path d="M693.48 1079.7L682.977 1051.6C682.277 1053.1 681.577 1054.6 680.877 1056.1C680.177 1057.6 679.377 1059.1 678.676 1060.6V1079.6H668.574V1014.4H678.676V1040.7H679.176L691.479 1014.4H701.981C699.781 1018.8 697.581 1023.2 695.38 1027.6C693.18 1032 690.979 1036.4 688.779 1040.8L703.782 1079.6H693.48V1079.7Z" />
<path d="M651.971 1138.4C653.071 1137.6 654.472 1137.3 656.072 1137.3C659.173 1137.3 661.673 1138.3 663.474 1140.3C665.374 1142.29 666.274 1145.49 666.274 1149.79V1161.19C666.274 1163.29 665.974 1165.29 665.374 1167.09C664.774 1168.89 663.874 1170.49 662.674 1171.79C661.473 1173.09 659.973 1174.19 658.173 1174.89C656.372 1175.69 654.272 1175.99 651.771 1175.99C647.47 1175.99 643.969 1174.79 641.469 1172.29C638.968 1169.89 637.668 1166.59 637.668 1162.49V1154.19C637.668 1151.59 637.768 1149.29 638.068 1147.29C638.368 1145.29 638.868 1143.29 639.568 1141.49L651.571 1110.2H662.173L651.571 1137.9L651.971 1138.4ZM656.172 1149.29C656.172 1148.09 655.772 1147.09 654.972 1146.39C654.172 1145.69 653.171 1145.39 651.971 1145.39C650.571 1145.39 649.471 1145.89 648.77 1146.79C648.07 1147.69 647.67 1148.79 647.67 1150.09V1162.69C647.67 1163.99 648.07 1164.89 648.871 1165.59C649.671 1166.29 650.671 1166.59 651.871 1166.59C653.071 1166.59 654.172 1166.29 654.972 1165.59C655.772 1164.89 656.172 1163.99 656.172 1162.69V1149.29Z" />
<path d="M692.484 1141C692.484 1143.79 691.583 1145.89 689.683 1147.29C687.782 1148.79 685.482 1149.49 682.881 1149.49C680.181 1149.49 677.88 1148.79 676.08 1147.29C674.18 1145.79 673.279 1143.7 673.279 1141V1118.4C673.279 1115.7 674.28 1113.5 676.18 1112C678.08 1110.5 680.381 1109.8 682.981 1109.8C685.682 1109.8 687.983 1110.6 689.883 1112C691.683 1113.5 692.684 1115.6 692.684 1118.4V1141H692.484ZM685.082 1118.8C685.082 1118.2 684.882 1117.7 684.482 1117.3C684.082 1116.8 683.481 1116.6 682.781 1116.6C682.081 1116.6 681.481 1116.8 681.081 1117.3C680.681 1117.8 680.481 1118.3 680.481 1118.8V1140.6C680.481 1141.2 680.681 1141.7 681.081 1142.1C681.481 1142.6 682.081 1142.8 682.881 1142.8C683.582 1142.8 684.082 1142.6 684.482 1142.1C684.882 1141.6 685.082 1141.1 685.082 1140.6V1118.8ZM688.483 1177.09H682.281L711.688 1108.6H717.889L688.483 1177.09ZM727.091 1167.29C727.091 1170.09 726.191 1172.19 724.29 1173.59C722.39 1175.09 720.089 1175.79 717.489 1175.79C714.788 1175.79 712.488 1175.09 710.687 1173.59C708.787 1172.09 707.887 1169.99 707.887 1167.29V1144.69C707.887 1142 708.887 1139.8 710.787 1138.3C712.688 1136.8 714.988 1136.1 717.589 1136.1C720.289 1136.1 722.59 1136.9 724.49 1138.3C726.291 1139.8 727.291 1141.9 727.291 1144.69V1167.29H727.091ZM719.689 1144.99C719.689 1144.39 719.489 1143.89 719.089 1143.5C718.689 1143 718.089 1142.8 717.389 1142.8C716.689 1142.8 716.089 1143 715.688 1143.5C715.288 1143.99 715.088 1144.49 715.088 1144.99V1166.79C715.088 1167.39 715.288 1167.89 715.688 1168.29C716.089 1168.79 716.689 1168.99 717.489 1168.99C718.189 1168.99 718.689 1168.79 719.089 1168.29C719.489 1167.79 719.689 1167.29 719.689 1166.79V1144.99Z" />
<path d="M574.208 411.083C573.908 408.182 573.409 405.281 572.809 402.381C571.311 395.279 569.312 388.378 566.615 381.677C562.818 372.375 557.922 363.673 551.727 355.771C546.532 349.17 540.537 343.369 534.043 338.168C523.252 329.666 511.262 323.365 498.073 319.364C493.477 317.964 488.681 316.864 483.985 316.063C482.087 315.763 480.089 315.463 478.09 315.263C475.792 314.963 473.395 314.863 471.096 314.663C466.4 314.363 461.804 314.563 457.208 314.963C453.911 315.263 450.614 315.663 447.417 316.363C442.521 317.364 437.625 318.464 432.829 320.164C426.035 322.465 419.541 325.565 413.246 329.166C399.957 336.868 388.667 346.87 379.675 359.372C368.384 374.975 361.79 392.379 359.692 411.583C359.292 415.283 359.092 419.084 359.092 423.285C358.993 426.586 359.492 432.387 359.892 436.188C360.291 439.888 360.991 443.489 361.79 447.09C363.589 454.991 366.186 462.693 369.583 469.994C375.478 482.597 383.671 493.599 393.963 503.001C401.656 510.102 410.249 516.104 419.641 520.704C431.131 526.306 443.22 529.806 455.91 531.107C458.907 531.407 461.904 531.607 464.902 531.607C469.997 531.707 475.093 531.207 480.189 530.807C481.887 530.707 483.486 530.607 485.184 530.607C485.784 530.607 486.483 530.607 487.083 530.406C490.18 529.606 493.277 528.806 496.375 528.106C497.774 527.806 499.073 527.406 500.471 527.106C500.971 527.006 501.47 526.906 501.87 526.506C502.57 525.906 503.369 525.605 504.168 525.205C506.766 524.105 509.264 523.005 511.862 521.805C514.459 520.705 517.057 519.504 519.555 518.104C537.44 508.002 551.528 494.099 561.619 476.196C569.212 462.593 573.609 447.99 574.808 432.487C575.107 429.086 575.207 425.785 575.107 422.385C575.107 420.684 575.007 418.984 574.908 417.184C574.508 415.183 574.408 413.183 574.208 411.083ZM447.716 327.266C449.015 325.865 450.314 324.465 451.813 323.265C454.411 321.264 457.308 320.064 460.605 319.964C464.802 319.864 468.998 319.764 473.195 320.164C474.893 320.264 476.592 320.364 478.29 320.564C481.588 320.964 484.885 321.465 488.082 322.165C494.976 323.565 501.57 325.765 508.065 328.566C517.357 332.667 525.75 338.068 533.443 344.669C535.941 346.77 538.239 348.97 540.637 351.271C540.837 351.471 541.037 351.771 541.336 351.971C542.935 353.471 543.834 355.371 544.134 357.472C544.633 360.172 545.133 362.873 545.333 365.573C545.433 366.574 545.533 367.574 545.633 368.574C545.633 368.774 545.333 368.874 545.233 368.874C545.133 368.874 545.033 368.774 544.833 368.774C544.534 368.574 544.134 368.474 543.834 368.274C538.539 365.773 533.043 364.073 527.348 362.973C523.651 362.273 519.955 361.773 516.158 361.473C513.66 361.272 511.162 361.072 508.764 360.872C508.465 360.872 508.265 360.872 507.965 360.772C503.169 360.672 498.473 360.272 493.677 360.272C493.277 360.272 492.878 360.272 492.578 360.272C491.979 360.372 491.479 360.372 490.78 360.472C490.58 360.472 490.58 360.172 490.38 359.972C489.581 358.972 488.781 357.972 487.982 356.972C482.087 350.17 475.493 344.269 468.099 339.168C462.404 335.167 456.309 331.767 450.114 328.766C449.415 328.366 448.616 328.066 447.916 327.666C447.816 327.566 447.716 327.466 447.617 327.366C447.617 327.566 447.617 327.366 447.716 327.266ZM454.211 368.574C457.808 367.674 461.405 366.774 465.002 366.073C467.4 365.573 469.698 365.173 472.096 364.773C475.293 364.273 478.49 363.773 481.687 363.273C483.186 363.073 484.685 362.873 486.284 362.773C487.682 362.673 489.081 362.373 490.38 362.073C492.079 364.273 493.877 366.474 495.576 368.674C497.274 370.874 498.873 373.075 500.471 375.275C506.466 383.777 511.762 392.679 516.557 401.881C519.255 406.982 521.753 412.183 524.151 417.484C524.351 417.984 524.551 418.384 524.751 418.884C524.95 419.384 525.15 419.784 525.45 420.284C525.65 420.684 525.95 420.984 526.249 421.385C525.95 421.885 525.55 422.285 525.25 422.785C524.95 423.285 524.651 423.785 524.351 424.285C520.754 429.986 516.757 435.287 512.561 440.488C508.065 445.99 503.269 451.291 498.373 456.492C493.377 461.893 488.382 467.194 483.386 472.595C482.786 473.195 482.187 473.895 481.587 474.595C479.889 473.795 478.091 473.395 476.292 472.795C465.202 469.494 454.411 465.293 443.82 460.492C435.927 456.892 428.233 452.991 420.64 448.89C419.541 448.29 418.542 447.79 417.542 447.29C417.243 446.89 417.343 446.59 417.343 446.29C417.343 445.389 417.243 444.489 417.243 443.589C416.643 436.188 416.443 428.786 416.843 421.485C416.943 418.784 417.143 415.983 417.343 413.283C417.443 411.683 417.642 410.082 417.842 408.482C418.142 406.182 418.442 403.781 418.841 401.481C419.441 397.48 420.14 393.579 421.039 389.678C421.739 386.578 422.438 383.477 423.237 380.376C423.337 379.776 423.537 379.176 423.637 378.576C423.837 378.476 423.937 378.376 424.137 378.276C427.334 377.076 430.531 375.875 433.828 374.675C440.423 372.275 447.217 370.274 454.211 368.574ZM368.584 393.579C368.784 392.079 368.984 390.678 369.484 389.278C373.28 378.876 378.376 369.174 385.07 360.272C393.463 349.17 403.854 340.268 415.944 333.367C419.141 331.567 422.338 329.966 425.635 328.466C427.834 327.466 430.032 326.866 432.43 326.766C433.828 326.766 435.227 326.666 436.626 326.766C438.824 326.866 440.922 327.366 442.921 328.066C443.22 328.166 443.52 328.366 443.82 328.466C443.72 328.666 443.72 328.866 443.62 329.066C443.32 329.566 442.921 329.966 442.621 330.466C436.726 338.168 432.13 346.57 428.633 355.571C426.135 361.973 424.137 368.474 422.538 375.075C422.338 375.775 422.238 376.476 422.039 377.076C415.944 379.376 410.049 382.177 404.454 385.477C393.963 391.679 384.671 399.38 376.677 408.582C376.278 409.082 375.878 409.482 375.478 409.982C375.179 409.882 374.979 409.682 374.879 409.482C373.48 406.982 372.081 404.481 370.682 401.981C370.283 401.281 369.883 400.48 369.583 399.78C368.684 397.78 368.384 395.779 368.584 393.579ZM430.231 505.301C428.833 505.602 427.334 505.902 425.935 506.202C424.137 506.602 422.338 506.902 420.54 507.202C416.643 507.802 412.846 507.702 409.05 506.602C406.252 505.802 403.754 504.501 401.356 502.801C400.557 502.201 399.758 501.601 398.958 500.901C391.964 494.499 385.77 487.398 380.574 479.496C374.579 470.294 370.183 460.392 367.485 449.69C366.586 446.29 365.887 442.889 365.487 439.388C364.887 433.887 365.387 428.586 367.585 423.485C368.784 420.784 370.383 418.284 372.281 416.083C372.881 415.483 373.28 414.483 374.379 414.583C374.579 414.383 374.779 414.183 374.879 413.983C375.079 413.683 375.378 413.683 375.678 414.083C375.978 414.483 376.278 414.983 376.478 415.383C376.977 416.083 377.477 416.884 377.976 417.584C379.075 419.284 380.474 420.784 382.073 422.085C391.365 429.586 400.957 436.788 410.448 444.089C410.848 444.389 411.148 444.589 411.547 444.889C412.946 445.889 414.245 447.09 415.844 447.89C415.944 451.291 416.243 454.491 416.543 457.792C416.943 462.393 417.642 466.894 418.542 471.395C420.64 482.497 424.237 493.199 429.632 503.201C429.832 503.601 430.132 504.101 430.331 504.601C430.232 504.801 430.231 505.001 430.231 505.301ZM534.442 495.9C531.944 502.301 527.748 507.402 521.753 511.003C515.159 514.903 508.265 518.204 501.071 520.704C495.675 522.605 490.28 524.005 484.685 525.005C481.188 525.606 477.591 526.106 474.094 526.306C470.497 526.606 467 526.706 463.403 526.606C462.504 526.606 461.605 526.506 460.705 526.506C453.512 526.206 447.317 523.605 442.021 518.804C438.924 515.904 436.426 512.603 434.228 508.902C433.828 508.202 433.629 507.502 433.329 506.802C433.229 506.602 433.329 506.302 433.629 506.202C433.728 506.202 433.828 506.102 434.028 506.102C444.519 502.201 454.111 496.8 463.203 490.398C469.198 486.198 474.893 481.697 480.488 477.096C480.988 476.696 481.488 476.096 481.987 475.595C482.387 475.796 482.686 476.096 483.186 476.196C483.786 476.396 484.385 476.596 484.985 476.696C488.582 477.696 492.278 478.396 495.975 478.996C499.372 479.596 502.769 479.996 506.166 480.396C508.365 480.596 510.563 480.696 512.861 480.897C519.255 481.397 525.55 481.297 531.944 481.297C533.543 481.297 535.142 481.397 536.74 481.697C536.84 481.897 536.94 482.197 536.94 482.397C537.14 487.198 536.141 491.599 534.442 495.9ZM569.712 428.186C569.612 430.686 569.312 433.287 569.112 435.787C568.713 439.688 568.013 443.489 567.114 447.29C565.715 453.191 563.917 458.892 561.619 464.593C560.62 467.094 559.221 469.394 557.423 471.395C555.224 473.695 552.627 475.395 549.629 476.496C547.231 477.396 544.633 478.096 542.136 478.796C541.236 478.996 540.337 479.396 539.438 479.496C539.238 479.296 539.238 478.996 539.238 478.796C540.037 474.195 539.738 469.694 539.338 465.093C539.138 462.793 538.838 460.492 538.539 458.292C538.039 454.591 537.24 450.991 536.341 447.39C534.642 440.488 532.544 433.687 530.046 426.986C529.347 425.085 528.547 423.185 527.748 421.385C537.939 406.882 544.534 390.978 547.331 373.575C547.531 373.575 547.631 373.475 547.731 373.475C547.931 373.575 548.23 373.675 548.43 373.775C550.528 375.075 552.627 376.476 554.525 377.976C556.024 379.076 557.423 380.276 558.721 381.577C561.719 384.577 563.817 388.078 565.016 392.079C566.415 396.48 567.514 401.081 568.213 405.681C568.513 407.682 568.913 409.682 569.112 411.683C569.312 414.083 569.612 416.484 569.712 418.884C569.812 421.885 569.812 425.085 569.712 428.186ZM929.904 201.841C903.526 201.34 879.846 192.639 857.865 178.636C848.973 172.935 840.48 166.633 831.887 160.532C803.112 140.028 774.936 118.724 746.76 97.5196C725.978 81.8164 704.497 67.1135 681.816 54.2109C668.727 46.8094 655.439 39.908 641.351 34.5069C625.464 28.3057 608.978 24.805 591.993 23.6047C587.896 23.3047 583.7 23.1046 579.604 24.0048C574.608 25.105 570.911 27.9056 568.413 32.2065C567.514 33.7068 566.815 35.3071 565.915 36.8074C558.522 48.8098 547.831 55.011 533.743 54.911C528.547 54.811 523.751 53.1107 519.055 50.8102C514.16 48.4097 509.663 45.4091 505.367 42.0084C499.472 37.3075 494.077 32.1064 489.381 26.2053C483.286 18.6037 477.191 11.0022 470.997 3.40068C469.997 2.20044 469.298 0.700141 467.5 0C466.001 0.900181 465.201 2.60052 464.202 3.90078C459.706 9.90199 455.51 16.1032 450.814 22.0044C442.221 32.9066 432.13 42.1085 420.24 49.3099C416.343 51.6104 412.347 53.4107 407.851 54.1109C394.063 56.1113 382.672 52.0104 373.88 41.1082C371.782 38.5077 369.983 35.6071 368.484 32.6065C365.287 26.1052 360.092 23.2047 353.098 23.2047C335.013 23.2047 317.528 26.3053 300.543 32.4065C287.554 37.0074 275.164 42.9086 263.075 49.4099C241.593 60.9122 221.31 74.2149 201.727 88.6178C175.849 107.622 150.171 126.925 124.294 145.929C111.305 155.531 98.2159 165.033 85.1272 174.335C71.5388 184.037 56.7515 191.638 40.6652 196.339C30.3741 199.44 19.8829 201.34 9.09219 201.74C6.09475 201.841 3.09735 202.241 0 202.541C0 202.541 1.3988 1239.35 1.49872 1240.15C1.59863 1241.25 1.59861 1242.35 1.59861 1243.55C1.59861 1247.55 1.59861 1251.55 1.59861 1255.55C1.69852 1262.95 2.49793 1270.25 4.19648 1277.46C7.19391 1290.06 13.2886 1300.96 22.3809 1310.16C34.5704 1322.57 48.7582 1331.77 65.4439 1336.87C83.3286 1342.37 100.914 1348.47 118.798 1353.87C138.082 1359.67 157.465 1364.77 176.849 1370.28C228.904 1385.08 280.46 1401.28 330.917 1420.99C357.993 1431.59 384.77 1442.89 410.748 1455.89C429.632 1465.39 447.517 1476.5 463.203 1490.8C464.602 1492.1 465.801 1493.6 467 1495H468.898C468.798 1493.9 469.498 1493.3 470.297 1492.7C485.884 1480.5 501.87 1468.79 519.455 1459.39C537.34 1449.89 555.824 1441.49 574.508 1433.59C628.562 1410.78 683.914 1391.88 740.366 1375.98C773.038 1366.77 805.81 1357.47 838.482 1348.07C847.674 1345.47 856.866 1342.57 865.858 1339.47C879.547 1334.77 892.336 1328.37 903.926 1319.66C912.419 1313.26 919.612 1305.56 925.008 1296.36C928.005 1291.26 930.303 1285.76 931.902 1280.06C932.501 1277.96 932.701 1275.66 933.101 1273.46C933.301 1272.36 933.7 1271.36 934 1270.26V202.741C932.601 202.441 931.302 201.841 929.904 201.841ZM862.161 205.441C862.461 203.741 862.961 202.041 863.46 199.74C872.852 204.041 881.745 207.842 891.137 210.742C900.329 213.543 909.721 215.143 919.312 216.844C919.412 218.044 919.612 218.944 919.712 219.844C919.812 221.444 919.712 223.045 919.712 224.645C919.712 339.968 919.712 455.291 919.712 570.615V578.516C918.114 579.716 917.015 578.816 915.916 578.416C896.232 570.514 878.747 559.212 863.46 544.609C838.881 521.205 823.095 492.999 815.202 459.992C813.903 454.591 813.803 449.39 815.002 443.889C822.396 407.082 829.789 370.274 837.083 333.367C844.776 294.659 852.47 255.951 860.063 217.244C860.663 213.343 861.362 209.442 862.161 205.441ZM811.805 165.233C813.004 165.933 814.003 166.333 814.902 167.034C820.397 170.934 825.793 174.835 831.288 178.736C840.48 185.137 849.772 191.338 859.364 197.94C859.963 199.24 859.264 200.94 858.964 202.641C855.367 220.844 851.671 239.048 848.074 257.152C843.478 280.156 838.881 303.261 834.385 326.266C830.089 348.07 825.793 369.874 821.396 391.679C818.699 405.481 815.901 419.284 813.104 433.087C812.904 434.087 813.104 435.387 811.505 436.088C811.405 435.287 811.205 434.587 811.205 433.887C810.905 427.186 810.506 420.484 810.406 413.783C809.606 381.077 804.311 349.17 794.32 318.064C792.221 311.563 789.823 305.061 787.425 298.66C786.326 295.859 786.227 293.159 786.826 290.258C792.821 260.352 798.716 230.346 804.711 200.44C806.709 190.438 808.607 180.336 810.606 170.334C810.806 168.634 811.305 167.134 811.805 165.233ZM762.447 128.726C763.646 129.426 764.445 129.826 765.245 130.426C779.632 141.028 794.02 151.63 808.407 162.533C800.215 204.041 792.022 245.249 782.929 286.558C782.43 285.557 781.83 284.657 781.431 283.657C771.839 262.153 760.349 241.749 746.461 222.645C744.962 220.544 744.562 218.344 745.062 215.843C746.261 210.242 747.26 204.541 748.359 198.94C752.755 177.036 757.052 155.031 761.448 133.127C761.648 131.726 762.047 130.326 762.447 128.726ZM709.692 90.1181C715.787 93.3187 747.46 116.323 758.25 125.325C758.95 126.825 758.55 128.426 758.25 130.026C752.855 157.132 747.46 184.237 742.064 211.342C741.865 212.243 741.465 213.143 741.065 214.443C740.066 213.443 739.267 212.843 738.567 212.043C729.275 200.24 719.384 188.938 708.593 178.436C704.896 174.835 701.299 171.234 697.403 167.934C695.105 166.033 694.605 163.933 695.205 161.232C696.304 156.431 697.103 151.53 698.102 146.629C701.599 129.126 705.096 111.522 708.593 94.0189C708.893 92.8186 709.292 91.6184 709.692 90.1181ZM230.802 92.2185C230.802 90.4181 230.802 88.7178 230.802 87.0175C231.901 86.2173 232.701 85.4171 233.6 84.817C251.984 72.6146 271.068 61.5123 291.151 52.4105C304.439 46.4093 318.327 42.1085 332.715 39.808C340.209 38.6077 347.602 38.2077 353.997 38.8078C354.696 40.008 355.595 41.3083 356.395 42.6086C358.793 46.6094 361.39 50.4101 364.588 53.8108C372.981 62.8126 383.372 67.9136 395.561 69.4139C406.752 70.8142 417.143 68.4137 426.834 62.9126C438.425 56.2113 448.516 47.7096 457.208 37.5075C459.906 34.3069 462.504 31.1062 465.201 28.0056C466.001 27.0054 466.9 26.1052 467.899 24.905C468.699 25.6051 469.398 26.2053 469.997 26.9054C472.995 30.5061 475.792 34.1068 478.89 37.6075C487.283 47.4095 496.874 55.8112 508.065 62.2125C512.961 65.013 517.956 67.3135 523.552 68.5137C537.14 71.4143 549.929 69.514 561.719 62.0124C569.812 56.9114 576.206 49.91 580.503 41.3083C581.502 39.3079 582.701 38.4077 584.899 38.4077C591.194 38.3077 597.288 39.1078 603.483 39.908C622.367 42.5085 639.852 49.4099 656.837 57.9116C673.123 66.1133 688.71 75.6152 703.897 85.6172C704.397 85.9172 704.896 86.4173 705.596 87.0175C705.596 87.9176 705.696 88.6178 705.596 89.2179C701 112.623 696.304 135.927 691.708 159.332C691.608 159.932 691.308 160.532 691.108 161.032C689.31 161.332 688.41 159.932 687.411 159.132C679.118 152.331 670.626 145.829 661.733 139.828C624.165 114.223 583.201 96.7194 538.739 87.3175C522.353 83.8168 505.667 81.7164 488.981 80.5162C472.695 79.4159 456.409 79.616 440.123 80.9162C398.858 84.4169 359.392 95.0191 321.924 112.823C290.052 127.926 261.276 147.53 235.398 171.634C234.199 172.735 233 173.735 232.001 174.735C230.702 174.435 230.802 173.535 230.802 172.835C230.802 171.734 230.802 170.634 230.802 169.434C230.802 143.729 230.802 118.024 230.802 92.2185ZM219.012 1366.17C217.514 1366.87 216.215 1366.07 214.916 1365.67C202.526 1362.07 190.037 1358.47 177.648 1354.97C156.466 1348.87 135.184 1343.07 114.102 1336.77C98.5157 1332.07 83.0289 1326.87 67.5421 1321.77C53.2544 1317.06 41.2647 1308.76 31.1734 1297.66C22.3809 1287.96 17.7847 1276.36 17.0853 1263.25C16.8855 1260.05 16.8856 1256.85 16.8856 1253.65C16.8856 910.083 16.8856 566.514 16.8856 222.945V216.844C19.883 216.343 22.181 215.843 24.5789 215.543C43.4627 212.843 61.0478 206.341 77.6336 196.94C83.7284 193.439 89.7231 189.738 95.4183 185.537C122.595 165.833 149.672 145.929 176.649 126.025C189.038 116.923 201.328 107.722 213.617 98.6198C215.216 97.4195 216.814 96.0193 219.212 95.3191C219.312 96.4194 219.412 97.1195 219.512 97.8196C220.112 124.625 219.712 1361.27 219.012 1366.17ZM230.603 277.756C230.603 273.255 231.702 269.454 234.199 265.653C273.766 207.242 327.819 169.034 395.461 149.93C414.145 144.629 433.229 141.628 452.612 140.528C465.401 139.828 478.19 139.828 490.979 140.928C545.333 145.629 594.591 164.033 638.153 196.94C687.211 233.947 720.283 282.257 738.268 341.068C744.163 360.272 747.859 379.876 749.058 399.88C749.658 410.782 750.157 421.585 750.657 432.487C752.056 463.793 759.45 493.499 773.038 521.705C789.124 555.211 812.104 583.117 841.779 605.422C842.878 606.222 843.977 607.122 845.076 608.022L844.776 608.822H767.343C763.046 603.421 758.45 598.02 754.254 592.419C728.176 557.512 710.791 518.704 702.698 475.896C700.2 462.693 698.702 449.39 697.802 435.887C697.303 427.886 697.403 419.884 697.003 411.883C695.604 381.977 688.71 353.371 676.121 326.165C658.336 287.858 632.358 256.351 597.388 232.647C571.81 215.343 543.834 203.641 513.46 197.64C496.774 194.339 479.989 192.439 463.003 193.139C404.653 195.439 353.597 215.943 311.134 256.251C274.964 290.558 252.784 332.767 243.591 381.677C240.494 398.08 239.495 414.683 240.194 431.387C241.893 473.795 254.682 512.703 277.662 548.21C291.85 570.214 309.735 588.818 330.517 604.721C331.616 605.622 332.815 606.422 333.914 607.322C334.114 607.522 334.314 607.822 334.613 608.022C334.414 609.122 333.514 608.922 332.715 608.922C326.92 608.922 321.225 608.922 315.43 608.922C298.045 608.922 280.56 608.922 263.175 608.922H257.879C256.88 607.922 255.981 607.022 255.181 606.022C247.388 597.12 240.394 587.518 233.7 577.816C231.402 574.515 230.503 571.015 230.503 567.014C230.603 548.81 230.602 530.506 230.702 512.303C230.702 452.791 230.702 393.279 230.702 333.667C230.802 315.163 230.802 296.46 230.603 277.756ZM688.61 604.321C690.109 605.822 691.308 606.922 691.408 608.722C689.31 609.122 687.411 608.922 685.213 608.922C685.813 606.622 687.211 605.722 688.61 604.321ZM679.418 608.922H601.984C602.684 607.222 604.083 606.622 605.082 605.822C616.772 597.22 627.562 587.518 637.354 576.716C644.448 568.914 650.942 560.612 656.937 551.911C657.836 550.61 658.736 549.31 660.135 547.41C662.932 552.111 664.231 556.712 666.329 561.013C668.527 565.414 670.426 570.014 672.624 574.415C674.722 578.716 676.92 582.917 679.218 587.118C681.516 591.319 683.914 595.52 686.312 599.82C684.813 603.421 681.816 605.922 679.418 608.922ZM647.046 486.898C643.948 471.495 642.15 455.992 641.451 440.288C641.051 432.187 640.851 423.985 640.551 415.883C639.652 392.279 634.057 369.674 623.966 348.37C602.284 302.361 560.92 268.354 511.462 255.651C491.779 250.55 471.696 248.85 451.513 251.05C411.547 255.351 376.877 271.354 348.102 299.66C321.924 325.465 305.339 356.672 299.444 392.979C290.251 449.49 305.438 499.1 344.405 541.109C366.586 565.113 394.162 580.417 425.536 588.818C440.723 592.919 456.209 594.919 471.996 594.419C549.729 592.119 598.987 545.51 621.668 501.201C628.562 487.698 633.457 473.595 636.755 458.892C637.054 457.392 637.254 455.791 638.553 453.991C641.55 484.697 648.145 513.903 658.736 542.209C658.136 543.309 657.637 544.309 657.137 545.209C641.151 570.014 620.868 590.619 596.689 607.522C594.99 608.722 593.392 609.422 591.393 609.222C590.394 609.122 589.495 609.222 588.496 609.222C508.564 609.222 428.633 609.222 348.701 609.322C344.805 609.322 341.707 608.322 338.51 606.122C292.849 573.515 263.974 529.606 250.086 475.495C245.59 458.092 243.292 440.288 243.691 422.285C244.89 361.973 265.273 309.462 307.337 265.753C338.81 232.947 376.977 212.143 421.239 202.241C440.623 197.84 460.406 196.039 480.289 197.34C535.641 200.84 583.9 221.344 624.165 259.652C659.036 292.859 680.517 333.567 689.809 380.876C692.407 394.279 693.406 407.782 693.806 421.385C694.305 441.389 695.804 461.293 700 480.997C709.193 524.305 727.077 563.513 754.154 598.42C756.452 601.321 758.75 604.121 761.048 607.022C761.448 607.522 761.748 608.022 762.147 608.722C761.348 609.022 760.948 609.222 760.549 609.222C739.267 609.222 718.085 609.222 696.803 609.222C695.804 607.722 694.905 606.422 694.005 605.021C670.925 568.414 655.439 529.106 647.046 486.898ZM636.755 422.485C636.255 515.804 561.719 591.219 467.5 590.519C373.88 589.818 300.343 514.103 300.543 422.185C300.543 330.266 374.479 253.251 469.498 253.951C564.516 254.551 637.254 331.367 636.755 422.485ZM230.802 581.417C231.901 582.217 232.201 582.317 232.301 582.517C238.795 591.019 245.19 599.42 251.684 607.922C251.784 608.022 251.684 608.222 251.684 608.322C251.585 608.422 251.585 608.622 251.485 608.722C251.385 608.822 251.185 608.822 250.985 608.822C244.99 608.822 238.895 608.922 232.9 608.922C232.501 608.922 232.001 608.722 231.302 608.522C230.503 604.221 230.902 599.72 230.802 595.32C230.702 591.019 230.802 586.618 230.802 581.417ZM896.232 1306.56C888.439 1312.76 879.746 1317.46 870.654 1321.47C858.764 1326.57 846.375 1330.37 833.986 1333.97C797.917 1344.17 761.748 1354.27 725.678 1364.67C670.226 1380.68 615.872 1399.68 562.718 1422.39C543.934 1430.39 525.35 1438.89 507.465 1448.99C495.076 1455.99 483.186 1463.79 471.896 1472.6C470.797 1473.5 469.598 1474.3 468.299 1475.2C467.4 1474.6 466.6 1474.2 465.901 1473.6C449.115 1459.79 430.531 1448.99 411.048 1439.59C374.08 1421.69 336.012 1406.38 297.245 1392.78C277.063 1385.68 256.68 1379.28 236.397 1372.48C234.599 1371.88 232.701 1371.58 231.102 1370.38C231.002 1369.47 230.802 1368.77 230.802 1367.97C230.802 1168.23 230.802 968.594 230.802 768.854C230.802 768.354 231.002 767.954 231.202 767.254C232.001 767.054 232.9 766.754 233.8 766.654C235.199 766.554 236.697 766.654 238.096 766.654C463.003 766.654 687.911 766.654 912.818 766.654C914.816 766.654 916.915 766.454 919.612 767.154V772.255C919.612 934.388 919.612 1096.42 919.612 1258.55C919.712 1278.26 911.719 1294.16 896.232 1306.56ZM919.512 754.351C918.413 754.651 917.614 755.052 916.715 755.152C915.316 755.252 913.817 755.252 912.419 755.252C687.511 755.252 462.604 755.252 237.696 755.252C235.598 755.252 233.6 755.252 231.302 755.152C231.102 754.051 230.802 753.151 230.702 752.251C230.602 750.851 230.702 749.35 230.702 747.95C230.702 707.142 230.702 666.334 230.702 625.526C230.702 624.125 230.802 622.725 230.802 621.125C231.901 620.925 232.801 620.725 233.8 620.625C234.799 620.525 235.698 620.625 236.697 620.625C240.094 620.625 243.392 620.625 246.789 620.625C468.599 620.625 690.508 620.625 912.318 620.525C914.517 620.525 916.715 620.224 919.612 620.925C920.012 665.534 919.712 709.842 919.512 754.351ZM918.913 608.722C917.714 608.822 916.515 608.922 915.316 609.022C895.833 609.022 876.349 609.022 856.766 609.122C853.969 609.122 851.87 608.122 849.772 606.622C821.496 586.818 799.016 561.913 782.43 531.607C770.64 510.102 762.147 487.498 757.851 463.293C756.152 453.691 755.253 443.989 754.454 434.287C753.654 424.585 754.154 414.783 753.455 405.081C751.556 377.176 746.061 349.97 736.369 323.665C721.782 284.257 699.801 249.45 670.026 219.744C639.652 189.438 604.083 167.334 563.717 152.931C544.434 146.029 524.551 141.228 504.168 138.728C485.684 136.427 467.2 135.927 448.716 137.228C412.247 139.828 377.577 149.13 344.705 164.933C299.943 186.437 263.275 217.544 234.699 258.152C233.7 259.552 232.701 260.952 231.602 262.353C230.103 261.452 230.603 260.252 230.603 259.252C230.603 247.45 230.603 235.547 230.603 223.745C230.603 211.242 230.603 198.74 230.603 186.337C230.603 180.136 230.303 181.736 234.1 178.036C265.373 147.93 301.042 124.825 341.208 108.422C363.189 99.52 385.77 92.8186 409.15 88.7178C429.033 85.2171 449.015 83.4167 469.198 83.6168C548.23 84.4169 618.87 109.322 680.517 158.632C731.174 199.04 766.643 250.35 788.025 311.563C795.718 333.667 801.114 356.372 804.011 379.576C805.21 388.778 805.61 398.08 806.209 407.282C806.609 414.583 806.709 421.985 807.009 429.386C809.607 493.699 848.673 555.311 914.317 581.917C915.915 582.617 917.514 583.317 919.213 584.017C920.112 594.419 919.912 604.521 918.913 608.722Z" fill="url(#paint0_linear)"/>
<defs>
<linearGradient id="paint0_linear" x1="827.664" y1="1364.9" x2="116.242" y2="133.978" gradientUnits="userSpaceOnUse">
<stop stop-color="#77C0A8"/>
<stop offset="0.4888" stop-color="#AAD4BF"/>
<stop offset="1" stop-color="#00646A"/>
</linearGradient>
</defs>
</svg>
