<svg width="26" height="38" viewBox="0 0 26 38"  xmlns="http://www.w3.org/2000/svg">
<path fill-rule="evenodd" clip-rule="evenodd" d="M19.8824 6.08H23.7059C24.9719 6.08232 25.9977 7.10175 26 8.36V35.72C25.9977 36.9782 24.9719 37.9977 23.7059 38H2.29412C1.02808 37.9977 0.00233802 36.9782 0 35.72V8.36C0.00233802 7.10175 1.02808 6.08232 2.29412 6.08H6.11765V5.32C6.11999 4.06175 7.14573 3.04232 8.41177 3.04H9.17647V2.28C9.17881 1.02175 10.2046 0.00232364 11.4706 0H14.5294C15.7954 0.00232364 16.8212 1.02175 16.8235 2.28V3.04H17.5882C18.8543 3.04232 19.88 4.06175 19.8824 5.32V6.08ZM8.41177 4.56C7.98943 4.56 7.64706 4.90026 7.64706 5.32V8.36C7.64706 8.77974 7.98943 9.12 8.41177 9.12H17.5882C18.0106 9.12 18.3529 8.77974 18.3529 8.36V5.32C18.3529 4.90026 18.0106 4.56 17.5882 4.56C17.3611 4.56 17.1564 4.56212 16.9718 4.56404C16.1456 4.5726 15.7234 4.57698 15.5088 4.36808C15.2846 4.14977 15.2871 3.69853 15.2923 2.77571V2.77562V2.77553V2.77542V2.77531V2.77519C15.2932 2.62326 15.2941 2.45855 15.2941 2.28C15.2941 1.86026 14.9517 1.52 14.5294 1.52H11.4706C11.0483 1.52 10.7059 1.86026 10.7059 2.28C10.7059 2.50549 10.708 2.70881 10.7099 2.89212V2.89225V2.89237V2.89248V2.89258V2.89268C10.7185 3.71036 10.7229 4.12988 10.5154 4.34395C10.2967 4.56951 9.8428 4.56698 8.91055 4.56178H8.91048H8.9104H8.91032H8.91024H8.91015C8.75725 4.56093 8.59147 4.56 8.41177 4.56ZM24.4706 35.72C24.4706 36.1397 24.1282 36.48 23.7059 36.48H2.29412C1.87178 36.48 1.52941 36.1397 1.52941 35.72V8.36C1.52941 7.94026 1.87178 7.6 2.29412 7.6H6.11765V8.36C6.11999 9.61825 7.14573 10.6377 8.41176 10.64H17.5882C18.8543 10.6377 19.88 9.61825 19.8824 8.36V7.6H23.7059C24.1282 7.6 24.4706 7.94026 24.4706 8.36V35.72ZM4.58824 15.8333C4.58824 16.1831 4.93061 16.4667 5.35294 16.4667H13C13.4223 16.4667 13.7647 16.1831 13.7647 15.8333C13.7647 15.4836 13.4223 15.2 13 15.2H5.35294C4.93061 15.2 4.58824 15.4836 4.58824 15.8333ZM5.35294 22.5467C4.93061 22.5467 4.58824 22.2631 4.58824 21.9133C4.58824 21.5636 4.93061 21.28 5.35294 21.28H13C13.4223 21.28 13.7647 21.5636 13.7647 21.9133C13.7647 22.2631 13.4223 22.5467 13 22.5467H5.35294ZM4.58824 27.9933C4.58824 28.3431 4.93061 28.6267 5.35294 28.6267H13C13.4223 28.6267 13.7647 28.3431 13.7647 27.9933C13.7647 27.6436 13.4223 27.36 13 27.36H5.35294C4.93061 27.36 4.58824 27.6436 4.58824 27.9933ZM16.2797 21.4953C16.0862 21.303 16.0106 21.0227 16.0815 20.76C16.1319 20.6101 16.2021 20.5262 16.3762 20.4853C16.6321 20.4171 16.8727 20.6567 17.0634 20.8466L17.0821 20.8651L18.2595 21.9699L20.4799 19.7758C20.7829 19.5122 20.9825 19.4119 21.2673 19.6949C21.552 19.9779 21.4519 20.2442 21.1866 20.5453C20.7117 21.0179 20.3206 21.423 19.9921 21.7633C19.0605 22.7284 18.6319 23.1722 18.2222 23.1555C17.8733 23.1413 17.5379 22.793 16.917 22.1481C16.7324 21.9564 16.5226 21.7385 16.2797 21.4953ZM16.0815 14.8488C16.0106 15.1116 16.0862 15.3919 16.2797 15.5842C17.3398 16.6453 17.7695 17.226 18.2222 17.2444C18.7764 17.267 19.365 16.4469 21.1866 14.6342C21.4519 14.3331 21.552 14.0668 21.2673 13.7838C20.9825 13.5008 20.7829 13.6011 20.4799 13.8647L18.2595 16.0588L17.0821 14.954C17.0759 14.9479 17.0697 14.9417 17.0634 14.9355C16.8727 14.7456 16.6321 14.506 16.3762 14.5742C16.2021 14.6151 16.1319 14.699 16.0815 14.8488Z" />
</svg>
