<svg width="18" height="18" viewBox="0 0 18 18"  xmlns="http://www.w3.org/2000/svg">
<g opacity="0.5">
<mask id="path-1-outside-1" maskUnits="userSpaceOnUse" x="-0.0526314" y="-0.0999756" width="18" height="18" fill="black">
<rect  x="-0.0526314" y="-0.0999756" width="18" height="18"/>
<path fillRule="evenodd" clipRule="evenodd" d="M14.9437 9.67142L14.9001 10.0065L16.9474 11.5446L15.3246 14.2415L13.2965 13.4589L12.9324 13.3185L12.6218 13.5423C12.1676 13.8696 11.717 14.1236 11.2562 14.305L10.9076 14.4423L10.5408 16.9H7.35375L7.03848 14.787L6.98702 14.4423L6.63841 14.305C6.15908 14.1163 5.70842 13.8642 5.27925 13.547L4.96732 13.3165L2.56981 14.2415L0.947381 11.5445L2.70985 10.2204L2.9945 10.0065L2.9509 9.67142C2.91239 9.37542 2.89286 9.12957 2.89286 8.90002C2.89286 8.67047 2.91239 8.42463 2.9509 8.12863L2.9945 7.79352L0.947369 6.2555L2.56999 3.55855L4.59807 4.3411L4.96216 4.48159L5.27277 4.25777C5.72704 3.93044 6.17759 3.67649 6.63841 3.49504L6.98702 3.35777L7.35385 0.900024H10.5409L10.8561 3.01302L10.9076 3.35777L11.2562 3.49504C11.7355 3.68377 12.1862 3.93586 12.6154 4.25305L12.9273 4.48358L15.3248 3.5585L16.9472 6.25552L15.1848 7.57966L14.9001 7.79352L14.9437 8.12863C14.983 8.43034 15.0018 8.66503 15.0018 8.90002C15.0018 9.13502 14.983 9.3697 14.9437 9.67142ZM8.95033 11.9611C10.6382 11.9611 12.049 10.6082 12.049 8.90003C12.049 7.1919 10.6382 5.83892 8.95033 5.83892C7.2625 5.83892 5.85167 7.1919 5.85167 8.90003C5.85167 10.6082 7.2625 11.9611 8.95033 11.9611ZM8.95033 11.2111C10.2381 11.2111 11.299 10.1799 11.299 8.90003C11.299 7.62013 10.2381 6.58892 8.95033 6.58892C7.66256 6.58892 6.60167 7.62013 6.60167 8.90003C6.60167 10.1799 7.66256 11.2111 8.95033 11.2111Z"/>
</mask>
<path d="M14.9001 10.0065L14.1564 9.90976C14.1215 10.1778 14.2335 10.4438 14.4496 10.6061L14.9001 10.0065ZM14.9437 9.67142L15.6874 9.76818V9.76818L14.9437 9.67142ZM16.9474 11.5446L17.59 11.9313C17.7882 11.6019 17.7052 11.176 17.3979 10.945L16.9474 11.5446ZM15.3246 14.2415L15.0546 14.9412C15.3945 15.0724 15.7794 14.9403 15.9673 14.6282L15.3246 14.2415ZM13.2965 13.4589L13.5665 12.7592L13.5665 12.7592L13.2965 13.4589ZM12.9324 13.3185L13.2024 12.6187C12.966 12.5275 12.6996 12.5618 12.494 12.71L12.9324 13.3185ZM12.6218 13.5423L13.0603 14.1508L12.6218 13.5423ZM11.2562 14.305L10.9814 13.6072L10.9814 13.6072L11.2562 14.305ZM10.9076 14.4423L10.6328 13.7444C10.3834 13.8426 10.2054 14.0665 10.1658 14.3316L10.9076 14.4423ZM10.5408 16.9V17.65C10.9122 17.65 11.2277 17.3781 11.2825 17.0107L10.5408 16.9ZM7.35375 16.9L6.61197 17.0107C6.66679 17.3781 6.98229 17.65 7.35375 17.65V16.9ZM7.03848 14.787L7.78027 14.6763L7.78026 14.6763L7.03848 14.787ZM6.98702 14.4423L7.72881 14.3316C7.68924 14.0665 7.51121 13.8426 7.26181 13.7444L6.98702 14.4423ZM6.63841 14.305L6.91319 13.6072L6.91319 13.6072L6.63841 14.305ZM5.27925 13.547L4.83348 14.1502L4.83348 14.1502L5.27925 13.547ZM4.96732 13.3165L5.41308 12.7133C5.20673 12.5608 4.93673 12.5244 4.69733 12.6168L4.96732 13.3165ZM2.56981 14.2415L1.92714 14.6282C2.11493 14.9403 2.49991 15.0724 2.8398 14.9413L2.56981 14.2415ZM0.947381 11.5445L0.496881 10.9449C0.189533 11.1758 0.106542 11.6017 0.304706 11.9311L0.947381 11.5445ZM2.70985 10.2204L3.16035 10.82L3.16035 10.82L2.70985 10.2204ZM2.9945 10.0065L3.445 10.6061C3.66108 10.4438 3.7731 10.1778 3.73823 9.90976L2.9945 10.0065ZM2.9509 9.67142L3.69463 9.57465V9.57465L2.9509 9.67142ZM2.9509 8.12863L3.69463 8.22539L2.9509 8.12863ZM2.9945 7.79352L3.73823 7.89029C3.7731 7.62228 3.66108 7.35624 3.445 7.1939L2.9945 7.79352ZM0.947369 6.2555L0.304718 5.86885C0.106524 6.19826 0.189506 6.6242 0.496867 6.85512L0.947369 6.2555ZM2.56999 3.55855L2.83999 2.85883C2.50011 2.72769 2.11515 2.85974 1.92734 3.17189L2.56999 3.55855ZM4.59807 4.3411L4.32807 5.04082L4.32808 5.04082L4.59807 4.3411ZM4.96216 4.48159L4.69218 5.18131C4.92857 5.27252 5.19505 5.23821 5.40062 5.09007L4.96216 4.48159ZM5.27277 4.25777L5.71123 4.86626L5.27277 4.25777ZM6.63841 3.49504L6.36363 2.79719L6.36363 2.79719L6.63841 3.49504ZM6.98702 3.35777L7.26181 4.05562C7.51121 3.95742 7.68924 3.73358 7.72881 3.46848L6.98702 3.35777ZM7.35385 0.900024V0.150024C6.98239 0.150024 6.6669 0.421926 6.61206 0.789312L7.35385 0.900024ZM10.5409 0.900024L11.2826 0.789343C11.2278 0.421943 10.9123 0.150024 10.5409 0.150024V0.900024ZM10.8561 3.01302L10.1143 3.1237L10.1144 3.12374L10.8561 3.01302ZM10.9076 3.35777L10.1658 3.46848C10.2054 3.73358 10.3834 3.95742 10.6328 4.05562L10.9076 3.35777ZM11.2562 3.49504L11.531 2.79719L11.2562 3.49504ZM12.6154 4.25305L12.1696 4.8562V4.8562L12.6154 4.25305ZM12.9273 4.48358L12.4815 5.08673C12.6879 5.23924 12.9579 5.27567 13.1973 5.1833L12.9273 4.48358ZM15.3248 3.5585L15.9675 3.17189C15.7797 2.85971 15.3947 2.72764 15.0548 2.85878L15.3248 3.5585ZM16.9472 6.25552L17.3977 6.85514C17.7051 6.62423 17.7881 6.19832 17.5899 5.86891L16.9472 6.25552ZM15.1848 7.57966L14.7343 6.98004L14.7343 6.98004L15.1848 7.57966ZM14.9001 7.79352L14.4496 7.1939C14.2335 7.35624 14.1215 7.62228 14.1564 7.89029L14.9001 7.79352ZM14.9437 8.12863L15.6874 8.03187V8.03187L14.9437 8.12863ZM15.6438 10.1033L15.6874 9.76818L14.2 9.57465L14.1564 9.90976L15.6438 10.1033ZM17.3979 10.945L15.3506 9.4069L14.4496 10.6061L16.4969 12.1443L17.3979 10.945ZM15.9673 14.6282L17.59 11.9313L16.3047 11.158L14.682 13.8548L15.9673 14.6282ZM13.0265 14.1587L15.0546 14.9412L15.5946 13.5418L13.5665 12.7592L13.0265 14.1587ZM12.6625 14.0182L13.0266 14.1587L13.5665 12.7592L13.2024 12.6187L12.6625 14.0182ZM13.0603 14.1508L13.3709 13.9269L12.494 12.71L12.1834 12.9338L13.0603 14.1508ZM11.531 15.0029C12.0594 14.7948 12.5644 14.5081 13.0603 14.1508L12.1834 12.9338C11.7707 13.2311 11.3747 13.4523 10.9814 13.6072L11.531 15.0029ZM11.1824 15.1401L11.531 15.0029L10.9814 13.6072L10.6328 13.7444L11.1824 15.1401ZM11.2825 17.0107L11.6494 14.553L10.1658 14.3316L9.79898 16.7893L11.2825 17.0107ZM7.35375 17.65H10.5408V16.15H7.35375V17.65ZM6.29669 14.8977L6.61197 17.0107L8.09554 16.7893L7.78027 14.6763L6.29669 14.8977ZM6.24524 14.553L6.29669 14.8977L7.78026 14.6763L7.72881 14.3316L6.24524 14.553ZM6.36362 15.0029L6.71224 15.1401L7.26181 13.7444L6.91319 13.6072L6.36362 15.0029ZM4.83348 14.1502C5.31259 14.5042 5.82039 14.789 6.36363 15.0029L6.91319 13.6072C6.49778 13.4436 6.10425 13.2241 5.72501 12.9438L4.83348 14.1502ZM4.52156 13.9196L4.83348 14.1502L5.72501 12.9438L5.41308 12.7133L4.52156 13.9196ZM2.8398 14.9413L5.2373 14.0162L4.69733 12.6168L2.29983 13.5418L2.8398 14.9413ZM0.304706 11.9311L1.92714 14.6282L3.21249 13.8549L1.59006 11.1579L0.304706 11.9311ZM2.25935 9.62076L0.496881 10.9449L1.39788 12.1442L3.16035 10.82L2.25935 9.62076ZM2.544 9.4069L2.25934 9.62076L3.16035 10.82L3.445 10.6061L2.544 9.4069ZM2.20717 9.76818L2.25077 10.1033L3.73823 9.90976L3.69463 9.57465L2.20717 9.76818ZM2.14286 8.90002C2.14286 9.17237 2.16609 9.45245 2.20717 9.76818L3.69463 9.57465C3.65869 9.29838 3.64286 9.08678 3.64286 8.90002H2.14286ZM2.20717 8.03187C2.16609 8.3476 2.14286 8.62768 2.14286 8.90002H3.64286C3.64286 8.71327 3.65869 8.50166 3.69463 8.22539L2.20717 8.03187ZM2.25077 7.69676L2.20717 8.03187L3.69463 8.22539L3.73823 7.89029L2.25077 7.69676ZM0.496867 6.85512L2.544 8.39315L3.445 7.1939L1.39787 5.65588L0.496867 6.85512ZM1.92734 3.17189L0.304718 5.86885L1.59002 6.64215L3.21265 3.9452L1.92734 3.17189ZM4.86806 3.64139L2.83999 2.85883L2.3 4.25826L4.32807 5.04082L4.86806 3.64139ZM5.23215 3.78187L4.86806 3.64138L4.32808 5.04082L4.69218 5.18131L5.23215 3.78187ZM4.83431 3.64929L4.5237 3.8731L5.40062 5.09007L5.71123 4.86626L4.83431 3.64929ZM6.36363 2.79719C5.83524 3.00524 5.3302 3.29197 4.83431 3.64929L5.71123 4.86626C6.12388 4.56891 6.51993 4.34774 6.91319 4.19289L6.36363 2.79719ZM6.71224 2.65992L6.36363 2.79719L6.91319 4.19289L7.26181 4.05562L6.71224 2.65992ZM6.61206 0.789312L6.24524 3.24706L7.72881 3.46848L8.09563 1.01074L6.61206 0.789312ZM10.5409 0.150024H7.35385V1.65002H10.5409V0.150024ZM11.5979 2.90234L11.2826 0.789343L9.79907 1.01071L10.1143 3.1237L11.5979 2.90234ZM11.6494 3.24705L11.5979 2.90231L10.1144 3.12374L10.1658 3.46848L11.6494 3.24705ZM11.531 2.79719L11.1824 2.65992L10.6328 4.05562L10.9814 4.19289L11.531 2.79719ZM13.0611 3.64989C12.582 3.29581 12.0742 3.01109 11.531 2.79719L10.9814 4.19289C11.3968 4.35646 11.7904 4.57592 12.1696 4.8562L13.0611 3.64989ZM13.3731 3.88042L13.0611 3.64989L12.1696 4.8562L12.4815 5.08673L13.3731 3.88042ZM15.0548 2.85878L12.6573 3.78386L13.1973 5.1833L15.5948 4.25822L15.0548 2.85878ZM17.5899 5.86891L15.9675 3.17189L14.6821 3.94511L16.3046 6.64213L17.5899 5.86891ZM15.6353 8.17929L17.3977 6.85514L16.4967 5.65589L14.7343 6.98004L15.6353 8.17929ZM15.3506 8.39315L15.6353 8.17929L14.7343 6.98004L14.4496 7.1939L15.3506 8.39315ZM15.6874 8.03187L15.6438 7.69676L14.1564 7.89029L14.2 8.22539L15.6874 8.03187ZM15.7518 8.90002C15.7518 8.62214 15.7292 8.35318 15.6874 8.03187L14.2 8.22539C14.2367 8.5075 14.2518 8.70791 14.2518 8.90002H15.7518ZM15.6874 9.76818C15.7292 9.44686 15.7518 9.17791 15.7518 8.90002H14.2518C14.2518 9.09214 14.2367 9.29255 14.2 9.57465L15.6874 9.76818ZM11.299 8.90003C11.299 10.1789 10.2392 11.2111 8.95033 11.2111V12.7111C11.0372 12.7111 12.799 11.0374 12.799 8.90003H11.299ZM8.95033 6.58892C10.2392 6.58892 11.299 7.62116 11.299 8.90003H12.799C12.799 6.76265 11.0372 5.08892 8.95033 5.08892V6.58892ZM6.60167 8.90003C6.60167 7.62116 7.66152 6.58892 8.95033 6.58892V5.08892C6.86349 5.08892 5.10167 6.76265 5.10167 8.90003H6.60167ZM8.95033 11.2111C7.66152 11.2111 6.60167 10.1789 6.60167 8.90003H5.10167C5.10167 11.0374 6.86349 12.7111 8.95033 12.7111V11.2111ZM10.549 8.90003C10.549 9.75171 9.83805 10.4611 8.95033 10.4611V11.9611C10.6382 11.9611 12.049 10.6082 12.049 8.90003H10.549ZM8.95033 7.33892C9.83805 7.33892 10.549 8.04836 10.549 8.90003H12.049C12.049 7.1919 10.6382 5.83892 8.95033 5.83892V7.33892ZM7.35167 8.90003C7.35167 8.04836 8.06262 7.33892 8.95033 7.33892V5.83892C7.2625 5.83892 5.85167 7.1919 5.85167 8.90003H7.35167ZM8.95033 10.4611C8.06262 10.4611 7.35167 9.75171 7.35167 8.90003H5.85167C5.85167 10.6082 7.2625 11.9611 8.95033 11.9611V10.4611Z"  mask="url(#path-1-outside-1)"/>
</g>
</svg>
