<svg width="37" height="30" viewBox="0 0 37 30"  xmlns="http://www.w3.org/2000/svg">
<path d="M25.3276 0C25.1315 0.981729 24.9355 1.99618 24.7395 2.97791C24.5761 3.69785 23.9227 6.61031 23.792 7.36297C23.6287 8.11563 23.0733 11.0608 22.9099 11.8462C22.6159 13.4497 22.2892 15.0205 21.9952 16.6239C21.9298 17.0166 21.7991 17.4093 21.6685 17.802C21.0477 19.3401 20.0676 20.5509 18.6628 21.4017C16.5065 22.7107 14.2522 22.8416 11.9326 21.8926C10.5605 21.3362 9.51502 20.3872 8.69825 19.1437C7.94683 17.9984 7.55478 16.7221 7.52211 15.3477C7.52211 14.8241 7.55478 14.3332 7.62013 13.8097C7.75081 12.8279 7.19541 12.0425 6.21529 11.8462C5.36586 11.6826 4.54909 11.519 3.69966 11.3553C3.2096 11.2572 2.71954 11.159 2.19681 11.0608C1.31471 10.8972 0.465275 11.4535 0.269252 12.3371C0.0405584 13.3842 -0.0247827 14.4314 0.00788786 15.5113C0.105899 18.5547 1.02067 21.3035 2.75221 23.7578C3.63432 25.0014 4.71245 26.114 5.92126 27.0303C7.81615 28.4701 9.93973 29.3864 12.292 29.7791C13.4028 29.9755 14.4809 30.0409 15.5917 29.9755C18.2707 29.8118 20.721 29.0265 22.9426 27.5539C24.4128 26.5721 25.6869 25.3941 26.7324 23.9542C27.9412 22.318 28.758 20.5509 29.2154 18.5874C29.346 18.0311 29.444 17.4421 29.5421 16.8857C29.8361 15.2822 30.1628 13.6788 30.4568 12.0753C30.9142 9.75184 32.2864 3.07608 32.7111 0.752659L32.8745 0H25.3276Z" fill="url(#paint0_linear)"/>
<path d="M36.6667 22.449C36.5687 22.449 36.5033 22.449 36.4053 22.449C35.3599 22.3509 34.3797 22.0563 33.4323 21.5655C32.2888 20.9764 31.4067 20.0929 30.7206 19.013C30.0999 18.0313 29.7079 16.9513 29.6425 15.806C29.6098 15.446 29.6425 15.0861 29.6099 14.6934C29.5772 14.2025 29.5445 13.6789 29.4792 13.1881C29.3485 12.1409 29.1198 11.1264 28.7604 10.112C27.9437 7.88672 26.7022 5.92326 24.9706 4.28705C23.8272 3.20714 22.5203 2.32359 21.0828 1.63638C18.8939 0.621923 16.607 0.163783 14.1894 0.261956C13.3073 0.29468 12.4251 0.392853 11.5757 0.589199C8.70071 1.24369 6.21775 2.65083 4.1595 4.77791C2.32995 6.67592 1.12114 8.90117 0.467733 11.4209C0.173698 12.599 0.0103455 13.7771 0.0103455 14.9552C0.0103455 15.217 0.043016 15.446 0.173698 15.6751C0.500404 16.3296 1.02313 16.6568 1.74188 16.6568C3.11405 16.6568 4.45354 16.6568 5.8257 16.6568C6.34843 16.6568 6.77315 16.4605 7.13252 16.0351C7.42656 15.7078 7.52457 15.2824 7.52457 14.857C7.52457 14.1043 7.65525 13.3844 7.91662 12.6972C8.99474 9.49021 12.2618 7.23223 15.9209 7.78855C17.4891 8.01762 18.8612 8.70483 20.0047 9.85018C21.4422 11.29 22.161 13.0244 22.161 15.0861C22.161 16.3623 22.3243 17.6386 22.651 18.8821C23.3698 21.6309 24.7746 23.9544 26.8329 25.9178C28.1723 27.1941 29.6752 28.1758 31.3741 28.863C32.5175 29.3211 33.661 29.6484 34.9025 29.812C35.4905 29.8775 36.0786 29.9429 36.6667 29.9429V22.449Z" fill="url(#paint1_linear)"/>
<defs>
<linearGradient id="paint0_linear" x1="0.611566" y1="10.6256" x2="29.7653" y2="16.2552" gradientUnits="userSpaceOnUse">
<stop offset="0.2816" stop-color="#00A099"/>
<stop offset="0.777" stop-color="#007581"/>
</linearGradient>
<linearGradient id="paint1_linear" x1="0.00590227" y1="15.0964" x2="38.4102" y2="15.0964" gradientUnits="userSpaceOnUse">
<stop offset="0.4562" stop-color="#00A099"/>
<stop offset="0.9527" stop-color="#007581"/>
</linearGradient>
</defs>
</svg>
