<svg width="24" height="24" viewBox="0 0 24 24" fill="none" xmlns="http://www.w3.org/2000/svg">
<path fill-rule="evenodd" clip-rule="evenodd" d="M0 12C0 5.37321 5.37321 0 12 0C18.6268 0 24 5.37321 24 12C24 18.6268 18.6268 24 12 24C5.37321 24 0 18.6268 0 12ZM2.03571 12C2.03571 17.5018 6.49821 21.9643 12 21.9643C17.5018 21.9643 21.9643 17.5018 21.9643 12C21.9643 6.49821 17.5018 2.03571 12 2.03571C6.49821 2.03571 2.03571 6.49821 2.03571 12ZM11.0909 8.19485C10.8497 7.95373 10.7143 7.62671 10.7143 7.28571C10.7143 6.94472 10.8497 6.61769 11.0909 6.37658C11.332 6.13546 11.659 6 12 6C12.341 6 12.668 6.13546 12.9091 6.37658C13.1503 6.61769 13.2857 6.94472 13.2857 7.28571C13.2857 7.62671 13.1503 7.95373 12.9091 8.19485C12.668 8.43597 12.341 8.57143 12 8.57143C11.659 8.57143 11.332 8.43597 11.0909 8.19485ZM11.1429 10.5C11.1429 10.3821 11.2393 10.2857 11.3571 10.2857H12.6429C12.7607 10.2857 12.8571 10.3821 12.8571 10.5V17.7857C12.8571 17.9036 12.7607 18 12.6429 18H11.3571C11.2393 18 11.1429 17.9036 11.1429 17.7857V10.5Z" fill="white"/>
</svg>
