<svg width="23" height="24" viewBox="0 0 23 24" fill="none" xmlns="http://www.w3.org/2000/svg">
<path d="M22.3655 19.5729H20.0354V17.2429C20.0354 17.1148 19.9306 17.0099 19.8024 17.0099H18.4044C18.2763 17.0099 18.1714 17.1148 18.1714 17.2429V19.5729H15.8414C15.7132 19.5729 15.6084 19.6778 15.6084 19.8059V21.204C15.6084 21.3321 15.7132 21.437 15.8414 21.437H18.1714V23.767C18.1714 23.8951 18.2763 24 18.4044 24H19.8024C19.9306 24 20.0354 23.8951 20.0354 23.767V21.437H22.3655C22.4936 21.437 22.5985 21.3321 22.5985 21.204V19.8059C22.5985 19.6778 22.4936 19.5729 22.3655 19.5729ZM7.26394 11.6042C7.23773 11.3508 7.22317 11.0945 7.22317 10.8353C7.22317 10.3722 7.26686 9.92079 7.34841 9.481C7.36879 9.37615 7.31346 9.26838 7.21734 9.22469C6.82124 9.04703 6.45717 8.80237 6.14262 8.49365C5.77197 8.13426 5.4803 7.70156 5.28623 7.22315C5.09216 6.74474 4.99994 6.23113 5.01546 5.71508C5.04168 4.78016 5.41739 3.89183 6.07272 3.22195C6.79211 2.48508 7.75908 2.08315 8.7872 2.0948C9.7163 2.10354 10.6134 2.46178 11.292 3.09671C11.5221 3.31224 11.7201 3.55107 11.8861 3.80737C11.9444 3.89766 12.058 3.93552 12.157 3.90057C12.6696 3.72291 13.2113 3.59767 13.7676 3.53942C13.9307 3.52194 14.0239 3.34719 13.9511 3.20156C13.0046 1.3288 11.0706 0.0356339 8.8338 0.000683388C5.60671 -0.0488298 2.91552 2.59867 2.91552 5.82576C2.91552 7.65483 3.75725 9.28586 5.07663 10.3548C4.15044 10.7829 3.29707 11.3741 2.55728 12.1139C0.96121 13.7071 0.0583236 15.8099 7.28284e-05 18.0555C-0.000704543 18.0866 0.00474803 18.1175 0.016109 18.1465C0.0274699 18.1754 0.0445096 18.2018 0.0662238 18.224C0.087938 18.2463 0.113888 18.264 0.142543 18.2761C0.171199 18.2881 0.201981 18.2943 0.233076 18.2943H1.86701C1.99225 18.2943 2.0971 18.1953 2.10001 18.0701C2.15535 16.3808 2.8398 14.7993 4.04268 13.5993C4.89896 12.743 5.94748 12.1489 7.0921 11.8605C7.20278 11.8285 7.27851 11.7207 7.26394 11.6042ZM20.3849 10.8353C20.3849 7.64901 17.8248 5.05976 14.6501 5.01025C11.423 4.96074 8.73478 7.60823 8.73478 10.8353C8.73478 12.6644 9.57941 14.2954 10.8959 15.3643C9.9601 15.7981 9.10822 16.3936 8.37945 17.1235C6.78337 18.7167 5.88049 20.8195 5.82224 23.0622C5.82146 23.0932 5.82691 23.1242 5.83827 23.1531C5.84963 23.1821 5.86667 23.2084 5.88839 23.2307C5.9101 23.253 5.93605 23.2706 5.96471 23.2827C5.99336 23.2948 6.02415 23.301 6.05524 23.301H7.68626C7.8115 23.301 7.91635 23.202 7.91926 23.0767C7.9746 21.3875 8.65905 19.8059 9.86193 18.606C11.1172 17.3507 12.7832 16.6604 14.5599 16.6604C17.7753 16.6604 20.3849 14.0537 20.3849 10.8353ZM17.1957 13.4712C16.4909 14.176 15.5559 14.5634 14.5599 14.5634C13.5638 14.5634 12.6288 14.176 11.924 13.4712C11.5723 13.1213 11.2944 12.7044 11.1068 12.2451C10.9192 11.7858 10.8257 11.2935 10.8318 10.7975C10.8405 9.84215 11.2221 8.91888 11.8891 8.23443C12.5881 7.51795 13.523 7.11893 14.522 7.10728C15.5093 7.09854 16.4676 7.483 17.1724 8.17327C17.8947 8.88101 18.2908 9.82759 18.2908 10.8353C18.2879 11.8314 17.9005 12.7663 17.1957 13.4712Z" fill="white"/>
</svg>
