<svg width="16" height="20" viewBox="0 0 16 20" fill="none" xmlns="http://www.w3.org/2000/svg">
<path d="M8 20C11.976 20 16 18.626 16 16V4C16 1.374 11.976 0 8 0C4.024 0 0 1.374 0 4V16C0 18.626 4.024 20 8 20ZM8 18C4.278 18 2 16.705 2 16V14.732C3.541 15.57 5.777 16 8 16C10.223 16 12.459 15.57 14 14.732V16C14 16.705 11.722 18 8 18ZM8 2C11.722 2 14 3.295 14 4C14 4.705 11.722 6 8 6C4.278 6 2 4.705 2 4C2 3.295 4.278 2 8 2ZM2 6.732C3.541 7.57 5.777 8 8 8C10.223 8 12.459 7.57 14 6.732V8C14 8.705 11.722 10 8 10C4.278 10 2 8.705 2 8V6.732ZM2 10.732C3.541 11.57 5.777 12 8 12C10.223 12 12.459 11.57 14 10.732V12C14 12.705 11.722 14 8 14C4.278 14 2 12.705 2 12V10.732Z" fill="white"/>
</svg>
