<svg width="24" height="24" viewBox="0 0 24 24"  xmlns="http://www.w3.org/2000/svg">
<path fill-rule="evenodd" clip-rule="evenodd" d="M12 23C18.0751 23 23 18.0751 23 12C23 5.92487 18.0751 1 12 1C5.92487 1 1 5.92487 1 12C1 18.0751 5.92487 23 12 23ZM24 12C24 18.6274 18.6274 24 12 24C5.37258 24 0 18.6274 0 12C0 5.37258 5.37258 0 12 0C18.6274 0 24 5.37258 24 12Z" fill="#D5C751"/>
<path fill-rule="evenodd" clip-rule="evenodd" d="M9 17L9 6L10 6L10 17L9 17Z" fill="#D5C751"/>
<path fill-rule="evenodd" clip-rule="evenodd" d="M14 17L14 6L15 6L15 17L14 17Z" fill="#D5C751"/>
</svg>
