<svg width="20" height="24" viewBox="0 0 20 24"  xmlns="http://www.w3.org/2000/svg">
<path d="M8.06352 6.53873C8.06352 6.24525 7.82634 6.00807 7.53286 6.00807C7.23938 6.00807 7.00219 6.24525 7.00219 6.53873L7.00182 15.1934C7.00144 16.8803 8.37389 18.2528 10.0608 18.2524C11.7478 18.2528 13.1202 16.8803 13.1198 15.1934L13.1206 4.05992C13.121 2.9757 12.6988 1.95603 11.9317 1.18893C11.1646 0.421831 10.1449 -0.000375061 9.06067 2.50002e-07C7.97608 2.50002e-07 6.95641 0.422206 6.18968 1.18893C5.42296 1.95565 5.00038 2.9757 5.00075 4.05992L5 19.0018C4.99962 20.3368 5.51978 21.5925 6.46364 22.5364C7.40751 23.4802 8.66324 24.0004 9.99816 24C11.3762 24 12.6256 23.4397 13.5308 22.5345C14.4356 21.6296 14.9967 20.3795 14.9963 19.0018L14.9963 6.23362C14.9963 5.94014 14.7591 5.70296 14.4656 5.70296C14.1722 5.70296 13.935 5.94014 13.935 6.23362L13.9354 19.0015C13.9354 21.1729 12.1696 22.9387 9.99853 22.9383C8.94696 22.9383 7.95806 22.5288 7.21461 21.7854C6.47115 21.0419 6.06171 20.053 6.06171 19.0015L6.06208 4.05992C6.06208 3.25905 6.37395 2.50583 6.94027 1.93951C7.50658 1.3732 8.2598 1.06133 9.06067 1.06133C9.86155 1.06133 10.6148 1.3732 11.1811 1.93952C11.7474 2.50583 12.0596 3.25867 12.0593 4.05992L12.0589 15.1937C12.0585 16.2952 11.1627 17.1911 10.0612 17.1914C8.95972 17.1911 8.06389 16.2952 8.06352 15.1937V6.53873Z" />
</svg>
