<svg width="24" height="24" viewBox="0 0 24 24"  xmlns="http://www.w3.org/2000/svg">
<path fill-rule="evenodd" clip-rule="evenodd" d="M12 22.6667C17.891 22.6667 22.6667 17.891 22.6667 12C22.6667 6.10896 17.891 1.33333 12 1.33333C6.10896 1.33333 1.33333 6.10896 1.33333 12C1.33333 17.891 6.10896 22.6667 12 22.6667ZM24 12C24 18.6274 18.6274 24 12 24C5.37258 24 0 18.6274 0 12C0 5.37258 5.37258 0 12 0C18.6274 0 24 5.37258 24 12Z" fill="#66A987"/>
<path fill-rule="evenodd" clip-rule="evenodd" d="M17.2275 7.69385L12.1856 15.5367C11.4661 16.656 9.87441 16.7736 8.99814 15.7722L5.49829 11.7723L6.50173 10.8943L10.0016 14.8942C10.2937 15.228 10.8242 15.1888 11.0641 14.8157L16.1059 6.97284L17.2275 7.69385Z" fill="#66A987"/>
</svg>
