<svg width="24" height="24" viewBox="0 0 24 24"  xmlns="http://www.w3.org/2000/svg">
<path fill-rule="evenodd" clip-rule="evenodd" d="M12 22.6667C17.891 22.6667 22.6667 17.891 22.6667 12C22.6667 6.10896 17.891 1.33333 12 1.33333C6.10896 1.33333 1.33333 6.10896 1.33333 12C1.33333 17.891 6.10896 22.6667 12 22.6667ZM24 12C24 18.6274 18.6274 24 12 24C5.37258 24 0 18.6274 0 12C0 5.37258 5.37258 0 12 0C18.6274 0 24 5.37258 24 12Z" fill="#E57373"/>
<path fill-rule="evenodd" clip-rule="evenodd" d="M16.1953 17.1381L6.86194 7.80475L7.80475 6.86194L17.1381 16.1953L16.1953 17.1381Z" fill="#E57373"/>
<path fill-rule="evenodd" clip-rule="evenodd" d="M6.86194 16.1953L16.1953 6.86194L17.1381 7.80475L7.80475 17.1381L6.86194 16.1953Z" fill="#E57373"/>
</svg>
