<svg width="12" height="12" viewBox="0 0 12 12"  xmlns="http://www.w3.org/2000/svg">
<path fill-rule="evenodd" clip-rule="evenodd" d="M6 11.3333C8.94552 11.3333 11.3333 8.94552 11.3333 6C11.3333 3.05448 8.94552 0.666667 6 0.666667C3.05448 0.666667 0.666667 3.05448 0.666667 6C0.666667 8.94552 3.05448 11.3333 6 11.3333ZM12 6C12 9.31371 9.31371 12 6 12C2.68629 12 0 9.31371 0 6C0 2.68629 2.68629 0 6 0C9.31371 0 12 2.68629 12 6Z" />
<path d="M5.65234 7.72461C5.6582 7.37891 5.70508 7.10059 5.79297 6.88965C5.88086 6.67871 6.06982 6.43115 6.35986 6.14697C6.6499 5.85986 6.83594 5.65771 6.91797 5.54053C7.00293 5.42041 7.06738 5.29004 7.11133 5.14941C7.1582 5.00586 7.18164 4.84326 7.18164 4.66162C7.18164 4.29541 7.0835 4.0083 6.88721 3.80029C6.69385 3.58936 6.42285 3.48389 6.07422 3.48389C5.72266 3.48389 5.43848 3.58496 5.22168 3.78711C5.00781 3.98633 4.89795 4.25732 4.89209 4.6001H4.36914C4.375 4.11963 4.5376 3.73584 4.85693 3.44873C5.17627 3.15869 5.58203 3.01367 6.07422 3.01367C6.57812 3.01367 6.9751 3.16162 7.26514 3.45752C7.55811 3.75049 7.70459 4.14893 7.70459 4.65283C7.70459 4.96924 7.63281 5.2666 7.48926 5.54492C7.3457 5.82031 7.07324 6.14258 6.67188 6.51172C6.34082 6.79004 6.17529 7.19434 6.17529 7.72461H5.65234ZM5.58203 9.19238C5.58203 9.09277 5.61279 9.00928 5.67432 8.94189C5.73877 8.87158 5.82812 8.83643 5.94238 8.83643C6.05371 8.83643 6.1416 8.87158 6.20605 8.94189C6.27344 9.00928 6.30713 9.09277 6.30713 9.19238C6.30713 9.28906 6.27344 9.37109 6.20605 9.43848C6.1416 9.50293 6.05371 9.53516 5.94238 9.53516C5.82812 9.53516 5.73877 9.50293 5.67432 9.43848C5.61279 9.37109 5.58203 9.28906 5.58203 9.19238Z" />
</svg>
