<svg width="18" height="12" viewBox="0 0 18 12" fill="none" xmlns="http://www.w3.org/2000/svg">
<path d="M7.99588 0C3.94487 0 0.500952 3.00666 0 4.99694C0.501311 6.99181 3.9463 10 7.99623 10C12.0501 10 15.4983 6.99219 16 5.0023C15.4987 3.00704 12.0512 0 7.99588 0Z" transform="translate(1 1)" stroke="white" stroke-width="0.5"/>
<path d="M2.60804 0C1.16973 0 0 1.24904 0 2.78318C0 4.31808 1.17008 5.56674 2.60804 5.56674C4.04599 5.56674 5.21643 4.31769 5.21643 2.78318C5.21643 1.24904 4.04635 0 2.60804 0Z" transform="translate(6.39062 3.32471)" stroke="white" stroke-width="0.5"/>
<line y1="-0.25" x2="17.8045" y2="-0.25" transform="translate(16) rotate(141.843)" stroke="white" stroke-width="0.5" stroke-linejoin="round"/>
</svg>
