<svg width="16" height="16" viewBox="0 0 16 16" fill="none" xmlns="http://www.w3.org/2000/svg">
<mask id="path-1-outside-1" maskUnits="userSpaceOnUse" x="0" y="0" width="16" height="16" fill="black">
<rect fill="white" width="16" height="16"/>
<path fill-rule="evenodd" clip-rule="evenodd" d="M13.4412 8.79679L13.4024 9.09466L15.2222 10.4619L13.7798 12.8591L11.977 12.1635L11.6534 12.0386L11.3773 12.2376C10.9735 12.5285 10.573 12.7543 10.1634 12.9155L9.85353 13.0376L9.52746 15.2222H6.69457L6.41432 13.344L6.36858 13.0376L6.0587 12.9155C5.63263 12.7478 5.23205 12.5237 4.85056 12.2418L4.57329 12.0368L2.44217 12.8591L1.00001 10.4618L2.56665 9.28476L2.81967 9.09466L2.78092 8.79679C2.74668 8.53368 2.72932 8.31516 2.72932 8.11111C2.72932 7.90707 2.74668 7.68854 2.78092 7.42543L2.81967 7.12756L1 5.76042L2.44233 3.36313L4.24507 4.05874L4.56871 4.18361L4.8448 3.98467C5.24859 3.6937 5.64908 3.46797 6.0587 3.30668L6.36858 3.18466L6.69465 1H9.52754L9.80779 2.87822L9.85353 3.18466L10.1634 3.30668C10.5895 3.47444 10.9901 3.69852 11.3716 3.98046L11.6488 4.18538L13.7799 3.36309L15.2221 5.76044L13.6555 6.93746L13.4024 7.12756L13.4412 7.42543C13.4761 7.69362 13.4928 7.90222 13.4928 8.11111C13.4928 8.32 13.4761 8.5286 13.4412 8.79679ZM8.11375 10.9154C9.65849 10.9154 10.9515 9.67704 10.9515 8.11113C10.9515 6.54521 9.65849 5.3068 8.11375 5.3068C6.569 5.3068 5.27604 6.54521 5.27604 8.11113C5.27604 9.67704 6.569 10.9154 8.11375 10.9154ZM8.11375 10.1654C9.25843 10.1654 10.2015 9.24882 10.2015 8.11113C10.2015 6.97343 9.25843 6.0568 8.11375 6.0568C6.96906 6.0568 6.02604 6.97343 6.02604 8.11113C6.02604 9.24882 6.96906 10.1654 8.11375 10.1654Z"/>
</mask>
<path d="M13.4024 9.09466L12.6587 8.9979C12.6238 9.26591 12.7359 9.53195 12.9519 9.69429L13.4024 9.09466ZM13.4412 8.79679L12.6975 8.70003V8.70003L13.4412 8.79679ZM15.2222 10.4619L15.8649 10.8486C16.0631 10.5191 15.9801 10.0932 15.6727 9.86226L15.2222 10.4619ZM13.7798 12.8591L13.5098 13.5588C13.8497 13.6899 14.2346 13.5579 14.4224 13.2458L13.7798 12.8591ZM11.977 12.1635L12.247 11.4638L12.247 11.4638L11.977 12.1635ZM11.6534 12.0386L11.9234 11.3389C11.687 11.2477 11.4205 11.282 11.2149 11.4301L11.6534 12.0386ZM11.3773 12.2376L10.9389 11.6291L10.9389 11.6291L11.3773 12.2376ZM10.1634 12.9155L9.88863 12.2177L9.88863 12.2177L10.1634 12.9155ZM9.85353 13.0376L9.57874 12.3397C9.32935 12.4379 9.15131 12.6617 9.11174 12.9268L9.85353 13.0376ZM9.52746 15.2222V15.9722C9.89892 15.9722 10.2144 15.7003 10.2692 15.3329L9.52746 15.2222ZM6.69457 15.2222L5.95278 15.3329C6.0076 15.7003 6.3231 15.9722 6.69457 15.9722V15.2222ZM6.41432 13.344L7.15611 13.2333L7.1561 13.2333L6.41432 13.344ZM6.36858 13.0376L7.11037 12.9268C7.0708 12.6617 6.89277 12.4379 6.64337 12.3397L6.36858 13.0376ZM6.0587 12.9155L6.33349 12.2177L6.33348 12.2177L6.0587 12.9155ZM4.85056 12.2418L4.40479 12.8449H4.4048L4.85056 12.2418ZM4.57329 12.0368L5.01905 11.4337C4.8127 11.2812 4.5427 11.2448 4.3033 11.3371L4.57329 12.0368ZM2.44217 12.8591L1.7995 13.2457C1.98729 13.5579 2.37227 13.69 2.71216 13.5588L2.44217 12.8591ZM1.00001 10.4618L0.549511 9.86216C0.242163 10.0931 0.159172 10.519 0.357336 10.8484L1.00001 10.4618ZM2.56665 9.28476L3.01715 9.88439L3.01715 9.88439L2.56665 9.28476ZM2.81967 9.09466L3.27017 9.69429C3.48625 9.53195 3.59827 9.26591 3.5634 8.9979L2.81967 9.09466ZM2.78092 8.79679L2.03718 8.89356L2.78092 8.79679ZM2.78092 7.42543L2.03718 7.32866L2.78092 7.42543ZM2.81967 7.12756L3.5634 7.22432C3.59827 6.95631 3.48625 6.69027 3.27017 6.52793L2.81967 7.12756ZM1 5.76042L0.357349 5.37377C0.159155 5.70319 0.242137 6.12912 0.549498 6.36004L1 5.76042ZM2.44233 3.36313L2.71233 2.66341C2.37245 2.53227 1.98749 2.66432 1.79968 2.97648L2.44233 3.36313ZM4.24507 4.05874L3.97507 4.75845L3.97508 4.75846L4.24507 4.05874ZM4.56871 4.18361L4.29872 4.88333C4.53512 4.97455 4.80159 4.94023 5.00716 4.7921L4.56871 4.18361ZM4.8448 3.98467L4.40634 3.37618L4.8448 3.98467ZM6.0587 3.30668L6.33348 4.00453L6.0587 3.30668ZM6.36858 3.18466L6.64337 3.88251C6.89277 3.78431 7.0708 3.56047 7.11037 3.29537L6.36858 3.18466ZM6.69465 1V0.25C6.32319 0.25 6.0077 0.521901 5.95286 0.889287L6.69465 1ZM9.52754 1L10.2693 0.889319C10.2145 0.521919 9.89901 0.25 9.52754 0.25V1ZM9.80779 2.87822L9.066 2.9889L9.06601 2.98894L9.80779 2.87822ZM9.85353 3.18466L9.11174 3.29537C9.15131 3.56048 9.32935 3.78431 9.57875 3.88251L9.85353 3.18466ZM10.1634 3.30668L10.4382 2.60883V2.60883L10.1634 3.30668ZM11.3716 3.98046L11.8173 3.37731L11.8173 3.37731L11.3716 3.98046ZM11.6488 4.18538L11.2031 4.78853C11.4094 4.94104 11.6794 4.97747 11.9188 4.8851L11.6488 4.18538ZM13.7799 3.36309L14.4226 2.97648C14.2348 2.6643 13.8498 2.53223 13.51 2.66337L13.7799 3.36309ZM15.2221 5.76044L15.6726 6.36006C15.9799 6.12915 16.0629 5.70324 15.8648 5.37383L15.2221 5.76044ZM13.6555 6.93746L13.205 6.33783L13.205 6.33783L13.6555 6.93746ZM13.4024 7.12756L12.9519 6.52793C12.7359 6.69027 12.6238 6.95631 12.6587 7.22432L13.4024 7.12756ZM13.4412 7.42543L12.6975 7.52219V7.52219L13.4412 7.42543ZM14.1462 9.19143L14.1849 8.89356L12.6975 8.70003L12.6587 8.9979L14.1462 9.19143ZM15.6727 9.86226L13.8529 8.49504L12.9519 9.69429L14.7717 11.0615L15.6727 9.86226ZM14.4224 13.2458L15.8649 10.8486L14.5796 10.0752L13.1372 12.4724L14.4224 13.2458ZM11.7071 12.8632L13.5098 13.5588L14.0498 12.1594L12.247 11.4638L11.7071 12.8632ZM11.3834 12.7383L11.7071 12.8632L12.247 11.4638L11.9234 11.3389L11.3834 12.7383ZM11.8158 12.846L12.0919 12.6471L11.2149 11.4301L10.9389 11.6291L11.8158 12.846ZM10.4382 13.6134C10.9154 13.4255 11.3704 13.167 11.8158 12.846L10.9389 11.6291C10.5767 11.89 10.2307 12.083 9.88863 12.2177L10.4382 13.6134ZM10.1283 13.7354L10.4382 13.6134L9.88863 12.2177L9.57874 12.3397L10.1283 13.7354ZM10.2692 15.3329L10.5953 13.1483L9.11174 12.9268L8.78568 15.1115L10.2692 15.3329ZM6.69457 15.9722H9.52746V14.4722H6.69457V15.9722ZM5.67253 13.4547L5.95278 15.3329L7.43635 15.1115L7.15611 13.2333L5.67253 13.4547ZM5.6268 13.1483L5.67254 13.4547L7.1561 13.2333L7.11037 12.9268L5.6268 13.1483ZM5.78392 13.6134L6.0938 13.7354L6.64337 12.3397L6.33349 12.2177L5.78392 13.6134ZM4.4048 12.8449C4.83622 13.1638 5.29394 13.4205 5.78392 13.6134L6.33348 12.2177C5.97133 12.0751 5.62788 11.8836 5.29632 11.6386L4.4048 12.8449ZM4.12753 12.64L4.40479 12.8449L5.29632 11.6386L5.01905 11.4337L4.12753 12.64ZM2.71216 13.5588L4.84327 12.7366L4.3033 11.3371L2.17219 12.1594L2.71216 13.5588ZM0.357336 10.8484L1.7995 13.2457L3.08485 12.4725L1.64269 10.0752L0.357336 10.8484ZM2.11615 8.68514L0.549511 9.86216L1.45051 11.0614L3.01715 9.88439L2.11615 8.68514ZM2.36917 8.49504L2.11615 8.68514L3.01715 9.88439L3.27017 9.69429L2.36917 8.49504ZM2.03718 8.89356L2.07594 9.19143L3.5634 8.9979L3.52465 8.70003L2.03718 8.89356ZM1.97932 8.11111C1.97932 8.35795 2.00039 8.61071 2.03718 8.89356L3.52465 8.70003C3.49298 8.45665 3.47932 8.27236 3.47932 8.11111H1.97932ZM2.03718 7.32866C2.00039 7.61151 1.97932 7.86427 1.97932 8.11111H3.47932C3.47932 7.94986 3.49298 7.76557 3.52465 7.52219L2.03718 7.32866ZM2.07594 7.03079L2.03718 7.32866L3.52465 7.52219L3.5634 7.22432L2.07594 7.03079ZM0.549498 6.36004L2.36917 7.72718L3.27017 6.52793L1.4505 5.1608L0.549498 6.36004ZM1.79968 2.97648L0.357349 5.37377L1.64265 6.14707L3.08499 3.74978L1.79968 2.97648ZM4.51506 3.35902L2.71233 2.66341L2.17234 4.06285L3.97507 4.75845L4.51506 3.35902ZM4.83869 3.48389L4.51505 3.35902L3.97508 4.75846L4.29872 4.88333L4.83869 3.48389ZM4.40634 3.37618L4.13025 3.57513L5.00716 4.7921L5.28326 4.59315L4.40634 3.37618ZM5.78392 2.60883C5.30674 2.79672 4.85175 3.05523 4.40634 3.37618L5.28326 4.59315C5.64543 4.33218 5.99142 4.13922 6.33348 4.00453L5.78392 2.60883ZM6.0938 2.48681L5.78392 2.60883L6.33348 4.00453L6.64337 3.88251L6.0938 2.48681ZM5.95286 0.889287L5.6268 3.07395L7.11037 3.29537L7.43643 1.11071L5.95286 0.889287ZM9.52754 0.25H6.69465V1.75H9.52754V0.25ZM10.5496 2.76754L10.2693 0.889319L8.78576 1.11068L9.066 2.9889L10.5496 2.76754ZM10.5953 3.07395L10.5496 2.76751L9.06601 2.98894L9.11174 3.29537L10.5953 3.07395ZM10.4382 2.60883L10.1283 2.48681L9.57875 3.88251L9.88863 4.00453L10.4382 2.60883ZM11.8173 3.37731C11.3859 3.05847 10.9282 2.80176 10.4382 2.60883L9.88863 4.00453C10.2508 4.14713 10.5942 4.33858 10.9258 4.58362L11.8173 3.37731ZM12.0946 3.58222L11.8173 3.37731L10.9258 4.58362L11.2031 4.78853L12.0946 3.58222ZM13.51 2.66337L11.3788 3.48566L11.9188 4.8851L14.0499 4.06281L13.51 2.66337ZM15.8648 5.37383L14.4226 2.97648L13.1373 3.7497L14.5794 6.14705L15.8648 5.37383ZM14.106 7.53708L15.6726 6.36006L14.7716 5.16081L13.205 6.33783L14.106 7.53708ZM13.8529 7.72718L14.106 7.53708L13.205 6.33783L12.9519 6.52793L13.8529 7.72718ZM14.1849 7.32866L14.1462 7.03079L12.6587 7.22432L12.6975 7.52219L14.1849 7.32866ZM14.2428 8.11111C14.2428 7.85934 14.2224 7.61646 14.1849 7.32866L12.6975 7.52219C12.7298 7.77078 12.7428 7.94511 12.7428 8.11111H14.2428ZM14.1849 8.89356C14.2224 8.60576 14.2428 8.36288 14.2428 8.11111H12.7428C12.7428 8.27711 12.7298 8.45144 12.6975 8.70003L14.1849 8.89356ZM10.2015 8.11113C10.2015 9.2477 9.25958 10.1654 8.11375 10.1654V11.6654C10.0574 11.6654 11.7015 10.1064 11.7015 8.11113H10.2015ZM8.11375 6.0568C9.25958 6.0568 10.2015 6.97455 10.2015 8.11113H11.7015C11.7015 6.11586 10.0574 4.5568 8.11375 4.5568V6.0568ZM6.02604 8.11113C6.02604 6.97455 6.96792 6.0568 8.11375 6.0568V4.5568C6.17009 4.5568 4.52604 6.11586 4.52604 8.11113H6.02604ZM8.11375 10.1654C6.96792 10.1654 6.02604 9.2477 6.02604 8.11113H4.52604C4.52604 10.1064 6.17009 11.6654 8.11375 11.6654V10.1654ZM9.45145 8.11113C9.45145 8.82059 8.85837 9.41545 8.11375 9.41545V10.9154C9.65849 10.9154 10.9515 9.67705 10.9515 8.11113H9.45145ZM8.11375 6.8068C8.85837 6.8068 9.45145 7.40166 9.45145 8.11113H10.9515C10.9515 6.54521 9.65849 5.3068 8.11375 5.3068V6.8068ZM6.77604 8.11113C6.77604 7.40166 7.36912 6.8068 8.11375 6.8068V5.3068C6.569 5.3068 5.27604 6.54521 5.27604 8.11113H6.77604ZM8.11375 9.41545C7.36912 9.41545 6.77604 8.82059 6.77604 8.11113H5.27604C5.27604 9.67705 6.569 10.9154 8.11375 10.9154V9.41545Z" fill="#798192" mask="url(#path-1-outside-1)"/>
</svg>
