<svg width="15" height="19" viewBox="0 0 15 19"  xmlns="http://www.w3.org/2000/svg">
<path d="M15 16.3611L13.4 13.6167C12.8 12.5611 12.5 11.5056 12.5 10.2389V8.33889C12.5 6.12222 11.1 4.11667 9.3 3.37778V1.9C9.3 0.844444 8.5 0 7.5 0C6.5 0 5.7 0.844444 5.7 1.9V3.37778C3.8 4.22222 2.4 6.12222 2.4 8.33889V10.2389C2.4 11.4 2.1 12.5611 1.5 13.6167L0 16.3611H5.4C5.4 16.4667 5.4 16.5722 5.4 16.7833C5.4 18.05 6.3 19 7.5 19C8.7 19 9.8 18.05 9.8 16.7833C9.8 16.6778 9.8 16.5722 9.8 16.3611H15ZM6.4 1.9C6.4 1.26667 6.9 0.738889 7.5 0.738889C8.1 0.738889 8.6 1.26667 8.6 1.9V3.16667C8.2 3.06111 7.9 3.06111 7.5 3.06111C7.1 3.06111 6.8 3.06111 6.4 3.16667V1.9ZM1.3 15.6222L2.2 14.0389C2.8 12.8778 3.2 11.6111 3.2 10.3444V8.33889C3.2 5.80555 5.1 3.8 7.5 3.8C9.9 3.8 11.8 5.80555 11.8 8.33889V10.2389C11.8 11.5056 12.1 12.8778 12.8 13.9333L13.7 15.5167H9.4H5.6H1.3V15.6222ZM8.99308 16.7469C8.99308 17.5914 8.3 18.2611 7.5 18.2611C6.7 18.2611 6 17.5222 6 16.7833C6 16.6778 6 16.5722 6 16.3611H8.99308C8.99308 16.3611 8.99308 16.5358 8.99308 16.7469Z" />
</svg>
