<svg width="11" height="14" viewBox="0 0 11 14"  xmlns="http://www.w3.org/2000/svg">
<path d="M11 12.0556L9.82667 10.0333C9.38667 9.25555 9.16667 8.47778 9.16667 7.54444V6.14444C9.16667 4.51111 8.14 3.03333 6.82 2.48889V1.4C6.82 0.622222 6.23333 0 5.5 0C4.76667 0 4.18 0.622222 4.18 1.4V2.48889C2.78667 3.11111 1.76 4.51111 1.76 6.14444V7.54444C1.76 8.4 1.54 9.25555 1.1 10.0333L0 12.0556H3.96C3.96 12.1333 3.96 12.2111 3.96 12.3667C3.96 13.3 4.62 14 5.5 14C6.38 14 7.18667 13.3 7.18667 12.3667C7.18667 12.2889 7.18667 12.2111 7.18667 12.0556H11ZM4.69333 1.4C4.69333 0.933333 5.06 0.544444 5.5 0.544444C5.94 0.544444 6.30667 0.933333 6.30667 1.4V2.33333C6.01333 2.25556 5.79333 2.25556 5.5 2.25556C5.20667 2.25556 4.98667 2.25556 4.69333 2.33333V1.4ZM6.59492 12.3398C6.59492 12.9621 6.08667 13.4556 5.5 13.4556C4.91333 13.4556 4.4 12.9111 4.4 12.3667C4.4 12.2889 4.4 12.2111 4.4 12.0556H6.59492C6.59492 12.0556 6.59492 12.1843 6.59492 12.3398Z" />
</svg>
