<svg width="22" height="18" viewBox="0 0 22 18"  xmlns="http://www.w3.org/2000/svg">
<path fill-rule="evenodd" clip-rule="evenodd" d="M2.16479 0C1.50223 0 0.88109 0.0721649 0.756861 0.257732C0.425584 0.721649 0.218536 1.18557 0.0114875 1.65979C-0.0713317 1.81443 0.301355 1.92784 0.88109 1.95876C1.25378 1.98969 1.66787 2 2.08197 2H18.9771H19.5568C20.5093 1.96907 20.9233 1.8866 21.089 1.63918C21.2513 1.40348 21.3782 1.16338 21.5045 0.924633C21.5715 0.797886 21.6383 0.671519 21.7101 0.546392C21.7515 0.453608 21.8033 0.363402 21.8551 0.273196C21.9068 0.18299 21.9586 0.0927835 22 0H2.16479ZM2.16479 8C1.50223 8 0.88109 8.07216 0.756861 8.25773C0.466993 8.72165 0.218536 9.18557 0.0114875 9.65979C-0.0713317 9.81443 0.301355 9.92784 0.88109 9.95876C1.25378 9.98969 1.66787 10 2.08197 10H18.9771H19.5568C20.5093 9.96907 20.9233 9.8866 21.089 9.63918C21.2513 9.40348 21.3782 9.16338 21.5045 8.92463C21.5715 8.79789 21.6383 8.67152 21.7101 8.54639C21.7515 8.45361 21.8033 8.3634 21.8551 8.2732C21.9068 8.18299 21.9586 8.09278 22 8H2.16479ZM0.756861 16.2577C0.88109 16.0722 1.50223 16 2.16479 16H22C21.9586 16.0928 21.9068 16.183 21.8551 16.2732C21.8033 16.3634 21.7515 16.4536 21.7101 16.5464C21.6383 16.6715 21.5715 16.7979 21.5045 16.9246C21.3782 17.1634 21.2513 17.4035 21.089 17.6392C20.9233 17.8866 20.5093 17.9691 19.5568 18H18.9771H2.08197C1.66787 18 1.25378 17.9897 0.88109 17.9588C0.301355 17.9278 -0.0713317 17.8144 0.0114875 17.6598C0.218536 17.1856 0.466993 16.7216 0.756861 16.2577Z" />
</svg>
