<svg width="14" height="14" viewBox="0 0 14 14"  xmlns="http://www.w3.org/2000/svg">
<path d="M12.9025 4.79624L12.9025 4.79635L12.9115 4.79679C13.1898 4.81067 13.4618 5.00239 13.5767 5.39763L13.5788 5.40478L13.5811 5.41185C13.687 5.72855 13.5966 6.07506 13.3598 6.2954L10.6837 8.57344C10.4853 8.72451 10.435 8.97617 10.4884 9.16877L11.2958 12.619L11.2962 12.6206C11.3555 12.8692 11.2998 13.1216 11.1442 13.3367C10.993 13.5232 10.773 13.625 10.5668 13.625C10.4246 13.625 10.2891 13.5801 10.1856 13.4989L10.172 13.4881L10.1574 13.4787L7.25131 11.6027C7.17051 11.5479 7.06667 11.5055 6.94506 11.5055C6.82312 11.5055 6.71905 11.5481 6.63816 11.6031L3.75351 13.4794L3.75264 13.48C3.6366 13.5559 3.48878 13.6021 3.34525 13.6021C3.13236 13.6021 2.91322 13.4913 2.75578 13.2813C2.62151 13.0738 2.57469 12.8176 2.63735 12.5534L3.49036 9.1182L3.49038 9.1182L3.49116 9.11491C3.51321 9.02258 3.52081 8.91021 3.48374 8.79377C3.44784 8.681 3.37884 8.5923 3.29511 8.52848L0.663216 6.25099C0.399935 6.0052 0.312901 5.6777 0.419253 5.34057C0.529254 5.01461 0.799358 4.81119 1.08805 4.79679L1.08806 4.7969L1.09699 4.79624L4.50127 4.5449C4.71842 4.53734 4.91468 4.3943 4.98845 4.18505L6.29812 0.87105L6.29814 0.871059L6.29968 0.867049C6.42067 0.550336 6.67772 0.375 6.99977 0.375C7.30419 0.375 7.5804 0.554345 7.69986 0.86705L7.69984 0.867058L7.70142 0.871049L9.01109 4.18505C9.08485 4.3943 9.28112 4.53734 9.49827 4.5449L12.9025 4.79624Z"  stroke="white" stroke-width="0.75"/>
</svg>
