<svg width="19" height="19" viewBox="0 0 19 19"  xmlns="http://www.w3.org/2000/svg">
<path d="M17.5205 6.37562L17.5205 6.37573L17.5294 6.37617C17.9718 6.39823 18.3845 6.70451 18.5541 7.28797L18.5562 7.29513L18.5586 7.30219C18.7191 7.7825 18.5819 8.30898 18.2201 8.64388L14.5832 11.7399C14.3604 11.9078 14.3026 12.1928 14.364 12.4102L15.4604 17.0953L15.4608 17.0969C15.5514 17.4764 15.4645 17.8597 15.2307 18.1812C15.0013 18.466 14.664 18.625 14.3406 18.625C14.1203 18.625 13.9067 18.5556 13.7406 18.4252L13.727 18.4145L13.7124 18.4051L9.76712 15.8582C9.67471 15.7952 9.55904 15.7486 9.42544 15.7486C9.29154 15.7486 9.17565 15.7954 9.08315 15.8586L5.16708 18.4058L5.1662 18.4063C4.98764 18.5232 4.76166 18.5939 4.53998 18.5939C4.20218 18.5939 3.86578 18.4178 3.63006 18.1013C3.4255 17.7874 3.3552 17.4003 3.4491 17.0052C3.44923 17.0047 3.44936 17.0042 3.44948 17.0036L4.60694 12.3424L4.60695 12.3424L4.60774 12.3391C4.63369 12.2304 4.6413 12.1037 4.60032 11.975C4.56035 11.8495 4.48311 11.7504 4.38758 11.6785L0.81057 8.58315C0.414481 8.21456 0.280627 7.7153 0.441662 7.20636C0.606391 6.7167 1.01719 6.39875 1.46997 6.37617L1.46998 6.37628L1.47891 6.37562L6.10175 6.03431C6.34294 6.02694 6.56298 5.86719 6.64451 5.63294L8.4229 1.13292L8.42292 1.13292L8.42445 1.12892C8.60796 0.648536 9.00569 0.375 9.49969 0.375C9.96823 0.375 10.3929 0.652545 10.5749 1.12892L10.5749 1.12892L10.5765 1.13292L12.3549 5.63293C12.4364 5.86719 12.6564 6.02694 12.8976 6.03431L17.5205 6.37562Z" stroke="white" stroke-width="0.75"/>
</svg>
