<svg width="24" height="24" viewBox="0 0 24 24"  xmlns="http://www.w3.org/2000/svg">
<g clipPath="url(#clip0)">
<path d="M22.1384 7.955L22.1384 7.9551L22.1473 7.95555C22.7539 7.98579 23.3072 8.40664 23.5315 9.17832L23.5336 9.18547L23.536 9.19253C23.7512 9.83649 23.5672 10.543 23.0804 10.9924L18.4825 14.9065C18.2356 15.0911 18.1701 15.4093 18.2396 15.6513L19.625 21.5715L19.6254 21.5732C19.7473 22.0836 19.6291 22.5978 19.3171 23.0258C19.0096 23.4088 18.5551 23.625 18.1144 23.625C17.816 23.625 17.5242 23.531 17.2956 23.3516L17.282 23.3408L17.2674 23.3314L12.2829 20.1136C12.1788 20.0425 12.0513 19.9916 11.9058 19.9916C11.76 19.9916 11.6323 20.0427 11.5282 20.114L6.58064 23.3321L6.57977 23.3327C6.33868 23.4905 6.03455 23.5857 5.73471 23.5857C5.27193 23.5857 4.81828 23.3442 4.50435 22.9213C4.22946 22.501 4.1357 21.983 4.26088 21.4569C4.261 21.4564 4.26113 21.4559 4.26126 21.4553L5.72351 15.5666L5.72353 15.5666L5.72431 15.5634C5.75418 15.4383 5.76178 15.2973 5.7169 15.1563C5.67291 15.0181 5.58754 14.9086 5.48025 14.8287L0.957974 10.9153C0.42905 10.424 0.248341 9.75293 0.46407 9.07215C0.683517 8.4188 1.235 7.98631 1.8519 7.95555L1.8519 7.95566L1.86083 7.955L7.70242 7.52371C7.96748 7.51646 8.21119 7.34012 8.30051 7.08099L10.5477 1.39478L10.5477 1.39479L10.5492 1.39078C10.7953 0.746736 11.3337 0.375 11.9996 0.375C12.6323 0.375 13.2055 0.750745 13.45 1.39078L13.45 1.39079L13.4515 1.39478L15.6987 7.08098C15.788 7.34011 16.0317 7.51646 16.2968 7.52371L22.1384 7.955Z" stroke="white" stroke-width="0.75"/>
</g>
<defs>
<clipPath id="clip0">
<rect width="24" height="24" />
</clipPath>
</defs>
</svg>
