<svg width="30" height="30" viewBox="0 0 30 30"  xmlns="http://www.w3.org/2000/svg">
<path fill-rule="evenodd" clip-rule="evenodd" d="M15 29C22.5939 29 29 22.5939 29 15C29 7.40609 22.5939 1 15 1C7.40609 1 1.00001 7.40609 1.00001 15C1.00001 22.5939 7.40609 29 15 29ZM15 30C23.2843 30 30 23.2843 30 15C30 6.71573 23.2843 0 15 0C6.71574 0 7.62939e-06 6.71573 7.62939e-06 15C7.62939e-06 23.2843 6.71574 30 15 30ZM14.4495 14.4495V9.55048H15.5505V14.4495H20.4495V15.5505H15.5505V20.4495H14.4495V15.5505H9.55049V14.4495H14.4495Z" />
</svg>
