<svg width="50" height="40" viewBox="0 0 50 40"  xmlns="http://www.w3.org/2000/svg">
<path d="M35.0701 11.6322L35.0483 11.8813L35.676 11.9361L35.2567 11.4659L35.0701 11.6322ZM15.5896 11.6322L15.4024 11.4665L14.9884 11.934L15.6107 11.8813L15.5896 11.6322ZM15.4424 28.7211L15.4625 28.4719L14.8553 28.423L15.253 28.8843L15.4424 28.7211ZM35.1799 28.7211L35.3693 28.8843L35.7655 28.4247L35.1605 28.4719L35.1799 28.7211ZM25.302 33.25V33.5L25.3031 33.5L25.302 33.25ZM12.7253 16.9312L12.721 16.6813L12.5309 16.6846L12.4833 16.8686L12.7253 16.9312ZM37.8975 16.9312L38.1396 16.8686L38.092 16.685L37.9024 16.6813L37.8975 16.9312ZM12.3214 20.2317H12.5714L12.5713 20.2276L12.3214 20.2317ZM12.6335 23.1104L12.3891 23.1632L12.4308 23.356L12.628 23.3603L12.6335 23.1104ZM38.0077 23.1104L38.0152 23.3603L38.2108 23.3544L38.2521 23.1632L38.0077 23.1104ZM35.0918 11.3832C28.7793 10.8318 21.8614 10.8502 15.5685 11.3831L15.6107 11.8813C21.8764 11.3508 28.7656 11.3325 35.0483 11.8813L35.0918 11.3832ZM25.339 7.5C29.1379 7.5 32.5414 9.17183 34.8835 11.7986L35.2567 11.4659C32.825 8.73861 29.2882 7 25.339 7V7.5ZM15.7767 11.798C18.118 9.15417 21.5208 7.5 25.339 7.5V7C21.3723 7 17.8349 8.7196 15.4024 11.4665L15.7767 11.798ZM15.4223 28.9703C21.8074 29.4848 29.0731 29.448 35.1994 28.9703L35.1605 28.4719C29.0587 28.9476 21.8195 28.9842 15.4625 28.4719L15.4223 28.9703ZM25.302 33C21.4307 33 17.9734 31.2742 15.6317 28.5579L15.253 28.8843C17.6851 31.7054 21.2783 33.5 25.302 33.5V33ZM34.9906 28.5579C32.6496 31.2733 29.1923 32.982 25.3008 33L25.3031 33.5C29.3434 33.4813 32.9365 31.7062 35.3693 28.8843L34.9906 28.5579ZM12.7296 17.1812C21.1913 17.0346 29.4321 17.0162 37.8927 17.1812L37.9024 16.6813C29.4346 16.5162 21.1877 16.5346 12.721 16.6813L12.7296 17.1812ZM12.5713 20.2276C12.5534 19.1153 12.697 18.0376 12.9673 16.9939L12.4833 16.8686C12.2027 17.9519 12.0526 19.0745 12.0714 20.2357L12.5713 20.2276ZM12.8779 23.0576C12.6794 22.1387 12.5714 21.2029 12.5714 20.2317H12.0714C12.0714 21.2407 12.1837 22.2118 12.3891 23.1632L12.8779 23.0576ZM38.0002 22.8605C29.4504 23.117 21.0093 23.0437 12.639 22.8604L12.628 23.3603C21.0024 23.5437 29.4531 23.6171 38.0152 23.3603L38.0002 22.8605ZM38.0698 20.2317C38.0698 21.2029 37.9618 22.1387 37.7633 23.0576L38.2521 23.1632C38.4575 22.2118 38.5698 21.2407 38.5698 20.2317H38.0698ZM37.6555 16.9939C37.9258 18.0376 38.0698 19.1166 38.0698 20.2317H38.5698C38.5698 19.0731 38.4201 17.9519 38.1396 16.8686L37.6555 16.9939Z" />
</svg>
