<svg width="50" height="40" viewBox="0 0 50 40"  xmlns="http://www.w3.org/2000/svg">
<g clip-path="url(#clip0)">
<path d="M25 33C32.1797 33 38 27.1797 38 20C38 12.8203 32.1797 7 25 7C17.8203 7 12 12.8203 12 20C12 27.1797 17.8203 33 25 33Z" fill="#1D2323"/>
<path d="M37.6143 16.6404V16.4944H37.4675V16.6404V16.4213C29.1007 16.2753 20.954 16.2753 12.5871 16.4213V16.5674V16.4213H12.4404V16.5674C12.1468 17.6629 12 18.7584 12 19.8539C12 20.8764 12.1468 21.8258 12.2936 22.7022V22.8483H12.4404V22.7022V22.8483C20.7338 22.9944 29.0273 23.0674 37.5409 22.8483V22.7022V22.8483H37.6877V22.7022C37.9079 21.7528 37.9813 20.8034 37.9813 19.8539C38.0547 18.8315 37.9079 17.7359 37.6143 16.6404Z" fill="#FFC72E"/>
<path d="M34.752 28.3258L34.8987 28.3989L35.1923 28.1067H34.752V28.3258Z" fill="#FFC72E"/>
<path d="M34.6787 11.6742L35.119 11.7472L34.8255 11.382C32.4035 8.67978 28.954 7 25.0641 7C21.1743 7 17.6514 8.67978 15.3028 11.382L15.0092 11.7472L15.4496 11.6742C21.6146 11.1629 28.4402 11.1629 34.6787 11.6742Z" fill="#FFC72E"/>
<path d="M34.7518 28.1067C28.7336 28.5449 21.541 28.618 15.3025 28.1067V28.2528L15.1558 28.3989C17.5777 31.1742 21.1006 32.927 25.0639 32.927V32.7809V33C29.0271 33 32.55 31.2472 34.972 28.4719L34.7518 28.3258V28.1067Z" fill="#FFC72E"/>
<path d="M15.3027 28.1067H14.8623L15.1559 28.3989L15.3027 28.3258V28.1067Z" fill="#FFC72E"/>
</g>
<defs>
<clipPath id="clip0">
<rect width="26" height="26"  transform="translate(12 7)"/>
</clipPath>
</defs>
</svg>
