<svg width="50" height="40" viewBox="0 0 50 40"  xmlns="http://www.w3.org/2000/svg">
<path fill-rule="evenodd" clip-rule="evenodd" d="M20.4331 20.7737V23.8142H24.5464V20.7737H20.4331ZM24.0323 21.2804H20.9472V23.3074H24.0323V21.2804Z" />
<path fill-rule="evenodd" clip-rule="evenodd" d="M20.4331 24.8277H36.8866V26.8547H20.4331V24.8277ZM20.9472 25.3344H36.3724V26.3479H20.9472V25.3344Z" />
<path fill-rule="evenodd" clip-rule="evenodd" d="M35.8583 31.1442C36.1608 31.3167 36.512 31.4154 36.8866 31.4154C38.0225 31.4154 38.9433 30.5079 38.9433 29.3884C38.9433 28.2689 38.0225 27.3614 36.8866 27.3614C36.512 27.3614 36.1608 27.4601 35.8583 27.6326C35.5558 27.4601 35.2045 27.3614 34.8299 27.3614C33.694 27.3614 32.7732 28.2689 32.7732 29.3884C32.7732 30.5079 33.694 31.4154 34.8299 31.4154C35.2045 31.4154 35.5558 31.3167 35.8583 31.1442ZM34.8299 30.9087C35.6818 30.9087 36.3724 30.228 36.3724 29.3884C36.3724 28.5488 35.6818 27.8682 34.8299 27.8682C33.978 27.8682 33.2874 28.5488 33.2874 29.3884C33.2874 30.228 33.978 30.9087 34.8299 30.9087ZM36.3079 30.798C36.6661 30.4332 36.8866 29.9362 36.8866 29.3884C36.8866 28.8406 36.6661 28.3436 36.3079 27.9788C36.4866 27.9075 36.6819 27.8682 36.8866 27.8682C37.7385 27.8682 38.4291 28.5488 38.4291 29.3884C38.4291 30.228 37.7385 30.9087 36.8866 30.9087C36.6819 30.9087 36.4866 30.8694 36.3079 30.798Z" />
<path d="M23.5181 30.1485H20.9472V29.6418H23.5181V30.1485Z" />
<path d="M25.5748 30.1485H28.1457V29.6418H25.5748V30.1485Z" />
<path fill-rule="evenodd" clip-rule="evenodd" d="M19.4047 17.7332C18.8368 17.7332 18.3764 18.187 18.3764 18.7467V31.9222C18.3764 32.4819 18.8368 32.9357 19.4047 32.9357H39.9717C40.5396 32.9357 41 32.4819 41 31.9222V18.7467C41 18.187 40.5396 17.7332 39.9717 17.7332H19.4047ZM39.9717 18.24H19.4047C19.1207 18.24 18.8905 18.4668 18.8905 18.7467V31.9222C18.8905 32.202 19.1207 32.4289 19.4047 32.4289H39.9717C40.2556 32.4289 40.4858 32.202 40.4858 31.9222V18.7467C40.4858 18.4668 40.2556 18.24 39.9717 18.24Z" />
<path d="M8.36121 24.2099C7.92901 23.8468 7.87735 23.2071 8.24581 22.7812L21.589 7.35599C21.9574 6.93004 22.6065 6.87912 23.0387 7.24226L28.4925 11.8247L27.9733 12.0544L22.7051 7.62789C22.489 7.44632 22.1645 7.47178 21.9802 7.68475L8.63709 23.1099C8.45286 23.3229 8.47869 23.6427 8.69479 23.8243L18.2644 31.8649L18.2719 31.8813C18.4743 32.326 18.7767 32.5856 19.1942 32.4932C19.2837 32.4944 19.3731 32.4727 19.4526 32.4289L20.4331 32.9357H19.9314C19.9314 32.9357 18.8469 33.0248 18.4147 32.6617L8.36121 24.2099Z" />
<path d="M15.3618 25.4902L14.3909 26.6126L15.956 27.9276L16.2938 27.5371L16.0608 27.0254L15.8983 27.2132L15.1157 26.5557L15.5948 26.0019L15.3618 25.4902Z" />
<path d="M13.4977 21.3964L11.2606 23.9825L13.6083 25.955L14.8957 24.4667L14.6627 23.955L13.5506 25.2407L11.9855 23.9256L13.7307 21.9081L13.4977 21.3964Z" />
<path d="M12.7305 19.874C12.498 19.3634 12.7295 18.7636 13.2477 18.5344L32.0118 10.2354C32.53 10.0063 33.1385 10.2345 33.371 10.7451L36.553 17.7332H35.9894L32.9019 10.9526C32.7857 10.6973 32.4814 10.5832 32.2223 10.6978L13.4582 18.9968C13.1991 19.1114 13.0833 19.4112 13.1996 19.6666L18.3766 31.0362L18.3764 31.9222C18.3764 32.0172 18.3899 32.1092 18.4147 32.1965C18.3288 32.1117 18.2567 32.0104 18.2039 31.8946L12.7305 19.874Z" />
<path d="M18.3766 24.0421L17.1331 24.5921L17.9752 26.4414L18.3766 26.2638V25.7084L18.2338 25.7716L17.8127 24.8469L18.3766 24.5975V24.0421Z" />
<path d="M18.3766 19.5986L15.449 20.8935L16.7121 23.6674L18.3766 22.9312V22.3758L16.9707 22.9976L16.1286 21.1483L18.3766 20.1541V19.5986Z" />
</svg>
