<svg width="50" height="40" viewBox="0 0 50 40"  xmlns="http://www.w3.org/2000/svg">
<path d="M20.7187 17.8457H21.0886H21.4586H22.4205H22.7904H23.1604H24.2703H24.5662H24.8622H26.194H26.638H27.3779H27.5999H27.8218H27.8958H28.1918H28.5617H29.0057H30.6335H31.0034H31.3734H36.1088L32.8532 11.0857C32.7052 10.7143 32.3353 10.5657 31.9653 10.5657C31.8173 10.5657 31.6694 10.5657 31.5214 10.64L28.8577 11.9771L28.5617 12.1257L28.2658 12.2743L24.3443 14.2057L24.0483 14.3543L23.7523 14.4286L23.1604 14.7257L13.6155 19.4057C13.3936 19.5543 13.1716 19.7029 13.0976 20C13.0236 20.2229 13.0236 20.52 13.1716 20.7429L15.2434 24.9029L15.3913 25.2L15.5393 25.4971L15.9093 26.24L16.0573 26.5371L16.2052 26.8343L18.5729 31.7371V29.1371V28.6171V28.0971V26.4629L18.277 26.6114L17.5371 25.0514L17.4631 24.8286L17.907 24.6057L18.6469 24.2343V23.64V23.2686L18.499 23.3429L17.907 23.64L17.1671 24.0114L16.9451 23.64L16.7972 23.3429L16.6492 23.0457L15.9093 21.4857L18.6469 20.1486V19.2571C18.6469 18.3657 19.3636 17.8457 20.1775 17.8457H20.7187Z" fill="#FFCC0D"/>
<path d="M18.4989 25.9429V25.0514L18.2029 25.2743L18.4989 25.9429Z" fill="#FFCC0D"/>
<path d="M16.6172 21.9118L17.3152 23.4171L18.499 22.8229V21.6343V21.1143V20.9657L16.6172 21.9118Z" fill="#FFCC0D"/>
<path d="M15.5394 27.6514L13.9856 26.4629L14.7995 25.4229L14.3556 24.6057L13.3197 25.9429L11.0999 24.2343L12.9497 21.7829L12.5798 20.9657C12.4318 20.5943 12.4318 20.1486 12.5798 19.7771C12.7277 19.4057 13.0237 19.0343 13.3937 18.8857L27.7479 11.8286L21.8286 7.22286C21.6807 7.07429 21.4587 7 21.2367 7C20.9408 7 20.6448 7.14857 20.4228 7.37143L8.21429 23.12C7.84434 23.5657 7.99232 24.16 8.36228 24.5314L17.9811 32.1086L15.6874 27.4286L15.5394 27.6514Z" fill="#4D63CE"/>
<path d="M13.3196 22.3771L14.1335 24.0114L13.2456 25.1257L11.9877 24.0857L13.3196 22.3771Z" fill="#4D63CE"/>
<path d="M14.8734 26.3886L15.0953 26.0171L15.4653 26.8343L14.8734 26.3886Z" fill="#4D63CE"/>
<path d="M22.7905 23.7143H22.4205H22.0506H21.6806V23.4914V23.1943V22.8971V22.08H23.3824H24.0483H24.1963V22.3029V23.1943V23.4914V23.7143H23.7524H23.0865H22.7905ZM37.2927 28.32C37.0708 28.32 36.8488 28.3943 36.6268 28.4686C36.5528 28.5429 36.4788 28.5429 36.4048 28.6171C36.3309 28.6914 36.2569 28.7657 36.1829 28.84C36.0349 29.0629 35.8869 29.36 35.8869 29.7314C35.8869 30.0286 36.0349 30.3257 36.1829 30.6229C36.2569 30.6971 36.3309 30.7714 36.4048 30.8457C36.4788 30.92 36.5528 30.9943 36.6268 30.9943C36.8488 31.1429 37.0708 31.1429 37.2927 31.1429C38.1066 31.1429 38.6986 30.4743 38.6986 29.7314C38.6986 28.9143 38.1066 28.32 37.2927 28.32ZM40.0304 18.44C40.5483 18.44 40.9923 18.8857 40.9923 19.4057V31.96C40.9923 32.48 40.5483 32.9257 40.0304 32.9257H20.2748H20.1268C19.9788 32.9257 19.8309 32.8514 19.6829 32.7771C19.6089 32.7029 19.5349 32.6286 19.4609 32.5543L19.3869 32.48C19.3869 32.4057 19.3129 32.4057 19.3129 32.3314C19.1649 32.2571 19.0909 32.1086 19.0909 32.0343C19.0909 27.8743 19.0909 23.64 19.0909 19.48C19.0909 18.96 19.5349 18.5143 20.0528 18.5143C26.712 18.44 33.3712 18.44 40.0304 18.44ZM21.0887 23.4914V23.7871V24.2343H21.6066H21.9766H22.0506H22.4205H22.6425H23.3084H24.8622V23.4914V23.1943V22.8971V22.0057V21.7086V21.4857H24.6403L21.0887 21.4813V23.1943V23.4914ZM24.1223 30.3257V30.0286V29.7314H22.1986H21.8286H21.4587H21.3847V29.8057V30.0286V30.3257H21.7546H24.1223ZM28.7098 30.3257V30.0286V29.7314H26.934H26.2681H26.0461V29.88V30.0286V30.1771V30.3257H28.7098ZM31.0035 27.0571H31.6694H32.3353H37.0708V25.1257H36.4048H35.7389H35.073H25.8241H25.4542H25.0102H21.6806H21.5326H21.3107H21.0887V25.3486V25.4229V25.7943V27.0571H23.5304H23.9004H24.2703H24.3443H25.0102H31.0035ZM36.1829 31.3657C36.4788 31.5886 36.9228 31.7371 37.2927 31.7371C38.4026 31.7371 39.2905 30.8457 39.2905 29.7314C39.2905 28.6171 38.4026 27.7257 37.2927 27.7257C36.8488 27.7257 36.4788 27.8743 36.1829 28.0971C35.8869 27.8743 35.443 27.7257 35.073 27.7257C33.9631 27.7257 33.0752 28.6171 33.0752 29.7314C33.0752 30.8457 33.9631 31.7371 35.073 31.7371C35.5169 31.7371 35.8869 31.5886 36.1829 31.3657ZM34.4811 25.72H33.8152H25.3062H24.9362H24.5663H21.6806V26.4629H23.9744H24.3443H24.7143H24.8622H25.5282H26.1941H32.1874H32.8533H33.5192H36.4048V25.72H35.073H34.4811ZM33.6672 29.7314C33.6672 28.9143 34.3331 28.32 35.073 28.32C35.295 28.32 35.517 28.3943 35.7389 28.4686C35.443 28.84 35.295 29.2114 35.295 29.7314C35.295 30.1771 35.443 30.6229 35.7389 30.9943C35.517 31.1429 35.295 31.1429 35.073 31.1429C34.2591 31.1429 33.6672 30.4743 33.6672 29.7314Z" fill="#499E6B"/>
</svg>
