<svg width="50" height="40" viewBox="0 0 50 40"  xmlns="http://www.w3.org/2000/svg">
<path d="M38.7159 7H11.2841C9.44886 7 8 8.43382 8 10.25V29.75C8 31.5662 9.44886 33 11.2841 33H38.7159C40.5511 33 42 31.5662 42 29.75V24.3015V23.7279H41.4205H32.0511C29.9261 23.7279 28.2841 22.0074 28.2841 19.9044C28.2841 17.8015 30.0227 16.0809 32.0511 16.0809H41.4205H42V15.6029V10.25C41.9034 8.43382 40.4545 7 38.7159 7Z" fill="#009E43"/>
<path d="M32.8 22.6C34.3464 22.6 35.6 21.3464 35.6 19.8C35.6 18.2536 34.3464 17 32.8 17C31.2536 17 30 18.2536 30 19.8C30 21.3464 31.2536 22.6 32.8 22.6Z" fill="#009E43"/>
</svg>
