<svg width="50" height="40" viewBox="0 0 50 40"  xmlns="http://www.w3.org/2000/svg">
<mask id="path-1-inside-1" >
<path fill-rule="evenodd" clip-rule="evenodd" d="M10.8119 7C9.25893 7 8 8.25893 8 9.81191V30.1881C8 31.7411 9.25893 33 10.8119 33H39.1881C40.7411 33 42 31.7411 42 30.1881V24.5217H32.3324C29.8476 24.5217 27.8333 22.4848 27.8333 20C27.8333 17.5153 29.8476 15.4783 32.3324 15.4783H42V9.81191C42 8.25893 40.7411 7 39.1881 7H10.8119ZM32.9334 22.2609C34.1853 22.2609 35.2001 21.2486 35.2001 20C35.2001 18.7514 34.1853 17.7391 32.9334 17.7391C31.6816 17.7391 30.6668 18.7514 30.6668 20C30.6668 21.2486 31.6816 22.2609 32.9334 22.2609Z"/>
</mask>
<path d="M42 24.5217H42.5624V23.9594H42V24.5217ZM42 15.4783V16.0407H42.5624V15.4783H42ZM10.8119 6.43762C8.94834 6.43762 7.43762 7.94834 7.43762 9.81191H8.56238C8.56238 8.56953 9.56953 7.56238 10.8119 7.56238V6.43762ZM7.43762 9.81191V30.1881H8.56238V9.81191H7.43762ZM7.43762 30.1881C7.43762 32.0517 8.94834 33.5624 10.8119 33.5624V32.4376C9.56953 32.4376 8.56238 31.4305 8.56238 30.1881H7.43762ZM10.8119 33.5624H39.1881V32.4376H10.8119V33.5624ZM39.1881 33.5624C41.0517 33.5624 42.5624 32.0517 42.5624 30.1881H41.4376C41.4376 31.4305 40.4305 32.4376 39.1881 32.4376V33.5624ZM42.5624 30.1881V24.5217H41.4376V30.1881H42.5624ZM42 23.9594H32.3324V25.0841H42V23.9594ZM32.3324 23.9594C30.1619 23.9594 28.3957 22.1779 28.3957 20H27.2709C27.2709 22.7917 29.5333 25.0841 32.3324 25.0841V23.9594ZM28.3957 20C28.3957 17.8222 30.1619 16.0407 32.3324 16.0407V14.9159C29.5333 14.9159 27.2709 17.2083 27.2709 20H28.3957ZM32.3324 16.0407H42V14.9159H32.3324V16.0407ZM42.5624 15.4783V9.81191H41.4376V15.4783H42.5624ZM42.5624 9.81191C42.5624 7.94834 41.0517 6.43762 39.1881 6.43762V7.56238C40.4305 7.56238 41.4376 8.56953 41.4376 9.81191H42.5624ZM39.1881 6.43762H10.8119V7.56238H39.1881V6.43762ZM32.9334 22.8233C34.4945 22.8233 35.7625 21.5606 35.7625 20H34.6377C34.6377 20.9367 33.8761 21.6985 32.9334 21.6985V22.8233ZM35.7625 20C35.7625 18.4394 34.4945 17.1768 32.9334 17.1768V18.3015C33.8761 18.3015 34.6377 19.0633 34.6377 20H35.7625ZM32.9334 17.1768C31.3724 17.1768 30.1044 18.4394 30.1044 20H31.2292C31.2292 19.0633 31.9908 18.3015 32.9334 18.3015V17.1768ZM30.1044 20C30.1044 21.5606 31.3724 22.8233 32.9334 22.8233V21.6985C31.9908 21.6985 31.2292 20.9367 31.2292 20H30.1044Z"  mask="url(#path-1-inside-1)"/>
</svg>
