<svg width="50" height="40" viewBox="0 0 50 40"  xmlns="http://www.w3.org/2000/svg">
<mask id="path-1-outside-1" maskUnits="userSpaceOnUse" x="11" y="6" width="28" height="28" fill="black">
<rect  x="11" y="6" width="28" height="28"/>
<path fill-rule="evenodd" clip-rule="evenodd" d="M25 7C17.8184 7 12 12.8184 12 20C12 26.3783 16.6011 31.6854 22.6873 32.7809V21.339C22.6873 20.8034 23.1255 20.3652 23.661 20.3652H25.3895C25.4382 20.3652 25.4869 20.3165 25.4869 20.2678L25.4874 7.00002C25.372 7.00002 25.1461 7 25 7ZM22.4927 18.1498C21.6406 18.1498 20.959 17.4682 20.959 16.6161C20.959 15.764 21.6406 15.0824 22.4927 15.0824C23.3448 15.0824 24.0264 15.764 24.0264 16.6161C24.0264 17.4682 23.3448 18.1498 22.4927 18.1498ZM27.0203 7.14606V20.9007C27.0203 21.4363 26.5821 21.8745 26.0465 21.8745H24.3181C24.2694 21.8745 24.2207 21.9232 24.2207 21.9719V32.9756C24.4885 33 24.7319 33 24.9997 33C32.1814 33 37.9997 27.1816 37.9997 20C37.9997 13.5 33.2282 8.11984 27.0203 7.14606ZM26.9473 26.6704C26.1926 26.6704 25.584 26.0618 25.584 25.3071C25.584 24.5524 26.1926 23.9438 26.9473 23.9438C27.702 23.9438 28.3106 24.5524 28.3106 25.3071C28.3106 26.0618 27.702 26.6704 26.9473 26.6704ZM30.5508 26.6704C29.7961 26.6704 29.1875 26.0618 29.1875 25.3071C29.1875 24.5524 29.7961 23.9438 30.5508 23.9438C31.3055 23.9438 31.9141 24.5524 31.9141 25.3071C31.9384 26.0618 31.3055 26.6704 30.5508 26.6704ZM34.1777 26.6704C33.4231 26.6704 32.8145 26.0618 32.8145 25.3071C32.8145 24.5524 33.4231 23.9438 34.1777 23.9438C34.9324 23.9438 35.541 24.5524 35.541 25.3071C35.541 26.0618 34.9324 26.6704 34.1777 26.6704Z"/>
</mask>
<path d="M22.6873 32.7809L22.5987 33.273C22.7445 33.2992 22.8944 33.2595 23.008 33.1645C23.1216 33.0695 23.1873 32.929 23.1873 32.7809H22.6873ZM25.4869 20.2678L24.9869 20.2678V20.2678H25.4869ZM25.4874 7.00002L25.9874 7.00004C25.9874 6.86743 25.9348 6.74025 25.841 6.64647C25.7472 6.5527 25.62 6.50002 25.4874 6.50002V7.00002ZM27.0203 7.14606L27.0978 6.6521C26.9534 6.62945 26.8064 6.6711 26.6953 6.7661C26.5843 6.86109 26.5203 6.99992 26.5203 7.14606H27.0203ZM24.2207 32.9756H23.7207C23.7207 33.2342 23.9179 33.4502 24.1754 33.4736L24.2207 32.9756ZM37.9997 20H37.4997H37.9997ZM31.9141 25.3071H31.4141C31.4141 25.3125 31.4142 25.3179 31.4144 25.3232L31.9141 25.3071ZM25 6.5C17.5422 6.5 11.5 12.5422 11.5 20H12.5C12.5 13.0945 18.0945 7.5 25 7.5V6.5ZM11.5 20C11.5 26.6249 16.279 32.1354 22.5987 33.273L22.7758 32.2888C16.9232 31.2353 12.5 26.1317 12.5 20H11.5ZM23.1873 32.7809V21.339H22.1873V32.7809H23.1873ZM23.1873 21.339C23.1873 21.0795 23.4016 20.8652 23.661 20.8652V19.8652C22.8493 19.8652 22.1873 20.5272 22.1873 21.339H23.1873ZM23.661 20.8652H25.3895V19.8652H23.661V20.8652ZM25.3895 20.8652C25.5765 20.8652 25.7216 20.7767 25.81 20.6883C25.8984 20.5999 25.9869 20.4547 25.9869 20.2678H24.9869C24.9869 20.1295 25.051 20.0331 25.1029 19.9812C25.1548 19.9293 25.2512 19.8652 25.3895 19.8652V20.8652ZM25.9869 20.2678L25.9874 7.00004L24.9874 7L24.9869 20.2678L25.9869 20.2678ZM25.4874 6.50002C25.4297 6.50002 25.3444 6.50001 25.2552 6.50001C25.1661 6.5 25.073 6.5 25 6.5V7.5C25.073 7.5 25.166 7.5 25.2552 7.50001C25.3443 7.50001 25.4297 7.50002 25.4874 7.50002V6.50002ZM22.4927 17.6498C21.9168 17.6498 21.459 17.192 21.459 16.6161H20.459C20.459 17.7443 21.3645 18.6498 22.4927 18.6498V17.6498ZM21.459 16.6161C21.459 16.0402 21.9168 15.5824 22.4927 15.5824V14.5824C21.3645 14.5824 20.459 15.4879 20.459 16.6161H21.459ZM22.4927 15.5824C23.0686 15.5824 23.5264 16.0402 23.5264 16.6161H24.5264C24.5264 15.4879 23.6209 14.5824 22.4927 14.5824V15.5824ZM23.5264 16.6161C23.5264 17.192 23.0686 17.6498 22.4927 17.6498V18.6498C23.6209 18.6498 24.5264 17.7443 24.5264 16.6161H23.5264ZM26.5203 7.14606V20.9007H27.5203V7.14606H26.5203ZM26.5203 20.9007C26.5203 21.1602 26.306 21.3745 26.0465 21.3745V22.3745C26.8583 22.3745 27.5203 21.7125 27.5203 20.9007H26.5203ZM26.0465 21.3745H24.3181V22.3745H26.0465V21.3745ZM24.3181 21.3745C24.1311 21.3745 23.986 21.463 23.8976 21.5514C23.8091 21.6398 23.7207 21.7849 23.7207 21.9719H24.7207C24.7207 22.1102 24.6566 22.2066 24.6047 22.2585C24.5528 22.3104 24.4564 22.3745 24.3181 22.3745V21.3745ZM23.7207 21.9719V32.9756H24.7207V21.9719H23.7207ZM24.1754 33.4736C24.4692 33.5003 24.7346 33.5 24.9997 33.5V32.5C24.7293 32.5 24.5078 32.4997 24.266 32.4777L24.1754 33.4736ZM24.9997 33.5C32.4575 33.5 38.4997 27.4578 38.4997 20H37.4997C37.4997 26.9055 31.9052 32.5 24.9997 32.5V33.5ZM38.4997 20C38.4997 13.2495 33.5447 7.66337 27.0978 6.6521L26.9428 7.64002C32.9117 8.57631 37.4997 13.7505 37.4997 20H38.4997ZM26.9473 26.1704C26.4687 26.1704 26.084 25.7857 26.084 25.3071H25.084C25.084 26.3379 25.9165 27.1704 26.9473 27.1704V26.1704ZM26.084 25.3071C26.084 24.8286 26.4687 24.4438 26.9473 24.4438V23.4438C25.9165 23.4438 25.084 24.2763 25.084 25.3071H26.084ZM26.9473 24.4438C27.4258 24.4438 27.8106 24.8286 27.8106 25.3071H28.8106C28.8106 24.2763 27.9781 23.4438 26.9473 23.4438V24.4438ZM27.8106 25.3071C27.8106 25.7857 27.4258 26.1704 26.9473 26.1704V27.1704C27.9781 27.1704 28.8106 26.3379 28.8106 25.3071H27.8106ZM30.5508 26.1704C30.0723 26.1704 29.6875 25.7857 29.6875 25.3071H28.6875C28.6875 26.3379 29.52 27.1704 30.5508 27.1704V26.1704ZM29.6875 25.3071C29.6875 24.8286 30.0723 24.4438 30.5508 24.4438V23.4438C29.52 23.4438 28.6875 24.2763 28.6875 25.3071H29.6875ZM30.5508 24.4438C31.0293 24.4438 31.4141 24.8286 31.4141 25.3071H32.4141C32.4141 24.2763 31.5816 23.4438 30.5508 23.4438V24.4438ZM31.4144 25.3232C31.4289 25.7745 31.0446 26.1704 30.5508 26.1704V27.1704C31.5664 27.1704 32.448 26.3491 32.4138 25.291L31.4144 25.3232ZM34.1777 26.1704C33.6992 26.1704 33.3145 25.7857 33.3145 25.3071H32.3145C32.3145 26.3379 33.1469 27.1704 34.1777 27.1704V26.1704ZM33.3145 25.3071C33.3145 24.8286 33.6992 24.4438 34.1777 24.4438V23.4438C33.1469 23.4438 32.3145 24.2763 32.3145 25.3071H33.3145ZM34.1777 24.4438C34.6563 24.4438 35.041 24.8286 35.041 25.3071H36.041C36.041 24.2763 35.2086 23.4438 34.1777 23.4438V24.4438ZM35.041 25.3071C35.041 25.7857 34.6563 26.1704 34.1777 26.1704V27.1704C35.2086 27.1704 36.041 26.3379 36.041 25.3071H35.041Z"  mask="url(#path-1-outside-1)"/>
</svg>
