<svg width="50" height="40" viewBox="0 0 50 40"  xmlns="http://www.w3.org/2000/svg">
<g clip-path="url(#clip0)">
<path d="M25.5493 20.4761C25.6225 20.4028 25.6225 20.3296 25.6225 20.2563V7.21972V7H25.4028C25.2563 7 25.1099 7 24.9634 7C17.7859 7.07324 12 12.8592 12 20.0366C12 26.4085 16.6141 31.6817 22.693 32.7803L22.9127 32.8535V32.6338V21.3549C22.9127 20.9155 23.2789 20.5493 23.7183 20.5493H25.4028C25.4761 20.5493 25.5493 20.5493 25.5493 20.4761ZM22.5465 18.0592C21.8141 18.0592 21.2282 17.4732 21.2282 16.7408C21.2282 16.0085 21.8141 15.4225 22.5465 15.4225C23.2789 15.4225 23.8648 16.0085 23.8648 16.7408C23.8648 17.4732 23.2789 18.0592 22.5465 18.0592Z" fill="#009E43"/>
<path d="M27.014 7.21973C26.9407 7.21973 26.8675 7.21973 26.7943 7.21973C26.7943 7.29297 26.7943 7.36621 26.7943 7.43944V20.9155C26.7943 21.3549 26.4281 21.7211 25.9886 21.7211H24.3041C24.2309 21.7211 24.1576 21.7944 24.0844 21.7944C24.0112 21.8676 24.0112 21.9409 24.0112 22.0141V32.8535V33H24.1576C24.4506 33 24.6703 33 24.9633 33C32.1407 33 37.9999 27.2141 37.9999 20.0366C37.9999 13.5183 33.2393 8.17184 27.014 7.21973ZM35.2168 25.2366C35.2168 25.8958 34.7041 26.4085 34.045 26.4085C33.3858 26.4085 32.8731 25.8958 32.8731 25.2366C32.8731 24.5775 33.3858 24.0648 34.045 24.0648C34.7041 24.138 35.2168 24.6507 35.2168 25.2366ZM31.6281 25.3099H31.7745H31.6281C31.6281 25.969 31.1154 26.4817 30.4562 26.4817C29.7971 26.4817 29.2844 25.969 29.2844 25.3099C29.2844 24.6507 29.7971 24.138 30.4562 24.138C31.1154 24.138 31.6281 24.6507 31.6281 25.3099ZM25.7689 25.2366C25.7689 24.5775 26.2816 24.0648 26.9407 24.0648C27.5999 24.0648 28.1126 24.5775 28.1126 25.2366C28.1126 25.8958 27.5999 26.4085 26.9407 26.4085C26.2816 26.4085 25.7689 25.8958 25.7689 25.2366Z" fill="#009E43"/>
</g>
<defs>
<clipPath id="clip0">
<rect width="27" height="26"  transform="translate(12 7)"/>
</clipPath>
</defs>
</svg>
