<svg width="50" height="40" viewBox="0 0 50 40"  xmlns="http://www.w3.org/2000/svg">
<g clip-path="url(#clip0)">
<path d="M0.100098 24.3083H1.06974V21.3267C1.06974 21.3267 2.40299 20.2843 2.98477 21.3024V24.3083H3.95441V21.3024C3.95441 21.3024 5.45735 20.3328 5.8452 21.3024V24.3083H6.81484V21.2539C6.81484 21.2539 6.81484 20.2843 5.79672 20.2358C4.7786 20.1873 3.85744 20.9146 3.85744 20.9146C3.85744 20.9146 3.66352 20.2843 2.83932 20.2358C2.01513 20.1873 1.04549 20.8661 1.04549 20.8661V20.3328H0.100098V24.3083Z" stroke="white" stroke-width="0.2"/>
<path d="M13.4297 20.3085V24.3325H14.4478V21.2782C14.4478 21.2782 16.2901 20.1631 16.9204 21.3751V24.3325H17.9385V21.3266C17.9385 21.3266 17.8415 19.4358 14.4478 20.6964V20.3085H13.4297Z" stroke="white" stroke-width="0.2"/>
<path d="M10.5206 20.26H9.64791C9.64791 20.26 7.90257 20.3085 7.66016 21.7145V22.9265C7.66016 22.9265 7.85408 24.2355 9.59943 24.381H10.5691C10.5691 24.381 12.3144 24.284 12.5083 22.878V21.7629C12.5083 21.7629 12.5083 20.5024 10.5206 20.26ZM11.4417 23.0235C11.4417 23.6537 10.4721 23.8477 10.4721 23.8477H9.84184C8.8722 23.8477 8.67828 23.072 8.67828 23.072V21.569C8.82372 20.8903 9.69639 20.8418 9.69639 20.8418H10.4721C11.2963 20.8418 11.4417 21.569 11.4417 21.569V23.0235Z" stroke="white" stroke-width="0.2"/>
<path d="M21.623 20.26H20.7504C20.7504 20.26 19.2474 20.3085 18.9565 21.6175V23.2174C18.9565 23.2174 19.199 25.0597 23.2714 24.1386L23.1745 23.5083C23.1745 23.5083 19.9747 24.381 19.9747 23.0235C19.9747 22.5387 19.9747 22.5387 19.9747 22.5387H23.4169V21.7629C23.4169 21.7629 23.5138 20.4539 21.623 20.26ZM22.4715 22.0781H19.9989V21.6417C19.9989 20.866 20.8716 20.8176 20.8716 20.8176H21.5018C22.3745 20.8176 22.4715 21.5933 22.4715 21.5933V22.0781Z" stroke="white" stroke-width="0.2"/>
<path d="M23.9502 20.3085V20.8903H24.7744V23.3144C24.7744 23.3144 24.7744 24.9143 27.5863 24.2356L27.3924 23.7023C27.3924 23.7023 25.7925 24.2841 25.7925 23.1205V20.8903H27.4409V20.3085H25.7925V19.2419L24.7744 19.3389V20.3085H23.9502Z" stroke="white" stroke-width="0.2"/>
<path d="M28.3378 20.5267L28.4832 21.0115C28.4832 21.0115 30.9558 20.2843 31.2952 21.3024V22.0781H29.4528C29.4528 22.0781 28.0469 22.2235 28.0469 23.1447V23.2901C28.0469 23.2901 28.0469 24.3568 29.5498 24.4052H29.9377C29.9377 24.4052 30.7619 24.3083 31.2952 24.0174V24.3083H32.2648V21.3994C32.2648 21.3994 32.5072 19.6055 28.3378 20.5267ZM31.2709 23.5568C31.2709 23.5568 30.6407 23.8962 29.8649 23.8477C29.0892 23.7992 29.0892 23.3144 29.0892 23.3144V23.072C29.3316 22.5872 29.8649 22.5872 29.8649 22.5872H31.2709V23.5568Z" stroke="white" stroke-width="0.2"/>
<path d="M41.2095 20.3085V24.3325H42.2276V21.86C42.2276 21.86 42.373 20.8418 44.2154 20.9388L44.1184 20.2601C44.1184 20.2601 42.9548 20.0661 42.2276 20.9873V20.3085H41.2095Z" stroke="white" stroke-width="0.2"/>
<path d="M44.9912 20.3085V23.3629C44.9912 23.3629 45.1367 25.2537 48.4819 23.8962V24.3325H49.5V20.3085H48.4819V23.3629C48.4819 23.3629 46.4457 24.5749 46.0093 23.1205V20.3085H44.9912Z" stroke="white" stroke-width="0.2"/>
<path d="M38.1098 11.2V11.1H38.0098H35.4888H35.3888V11.2V29.6V29.7H35.4888H38.0098H38.1098V29.6V11.2Z" stroke="white" stroke-width="0.2"/>
<path d="M37.7074 20.7661H35.7764C35.8308 20.622 35.8239 20.4847 35.798 20.3763C35.7904 20.344 35.781 20.3142 35.7711 20.2873H37.7136C37.6439 20.4451 37.6498 20.588 37.6836 20.7009C37.6906 20.7242 37.6987 20.7459 37.7074 20.7661Z" stroke="white" stroke-width="0.2"/>
<path d="M37.7074 22.0993H35.7764C35.8308 21.9552 35.8239 21.8179 35.798 21.7095C35.7904 21.6773 35.781 21.6475 35.7711 21.6206H37.7136C37.6439 21.7784 37.6498 21.9212 37.6836 22.0341C37.6906 22.0574 37.6987 22.0792 37.7074 22.0993Z" stroke="white" stroke-width="0.2"/>
<path d="M37.7074 23.4083H35.7764C35.8308 23.2643 35.8239 23.1269 35.798 23.0185C35.7904 22.9863 35.781 22.9565 35.7711 22.9296H37.7136C37.6439 23.0874 37.6498 23.2302 37.6836 23.3431C37.6906 23.3664 37.6987 23.3882 37.7074 23.4083Z" stroke="white" stroke-width="0.2"/>
<path d="M37.7031 24.6689H35.7802C35.8305 24.5369 35.8233 24.4109 35.7976 24.3107C35.791 24.2849 35.7832 24.2608 35.7748 24.2386H37.7087C37.6442 24.3824 37.6503 24.5138 37.6843 24.619C37.6899 24.6366 37.6963 24.6532 37.7031 24.6689Z" stroke="white" stroke-width="0.2"/>
<path d="M37.7031 25.8324H35.7802C35.8305 25.7004 35.8233 25.5744 35.7976 25.4742C35.791 25.4484 35.7832 25.4243 35.7748 25.4021H37.7087C37.6442 25.5459 37.6503 25.6773 37.6843 25.7825C37.6899 25.8001 37.6963 25.8167 37.7031 25.8324Z" stroke="white" stroke-width="0.2"/>
<path d="M37.6927 26.8505H35.7889C35.8297 26.7426 35.822 26.6391 35.7965 26.5549C35.7925 26.5418 35.7881 26.5293 35.7835 26.5172H37.6983C37.6844 26.5479 37.6744 26.5784 37.668 26.6087C37.6497 26.6947 37.6621 26.7715 37.686 26.8341C37.6882 26.8397 37.6904 26.8452 37.6927 26.8505Z" stroke="white" stroke-width="0.2"/>
<path d="M35.7936 27.7717C35.8008 27.7523 35.8063 27.7328 35.8102 27.7133C35.8257 27.6358 35.815 27.5648 35.7956 27.5068C35.7934 27.5 35.791 27.4934 35.7885 27.4869H37.692C37.6817 27.51 37.6738 27.5332 37.6684 27.5565C37.6492 27.6388 37.6624 27.7124 37.6872 27.7716C37.6872 27.7717 37.6872 27.7717 37.6873 27.7717H35.7936Z" stroke="white" stroke-width="0.2"/>
<path d="M37.6749 28.5474H35.804C35.8059 28.5414 35.8076 28.5353 35.8091 28.5292C35.825 28.4658 35.8167 28.4075 35.7997 28.3595H37.679C37.6755 28.3683 37.6724 28.3773 37.6698 28.3862C37.6523 28.4462 37.6582 28.5011 37.6749 28.5474Z" stroke="white" stroke-width="0.2"/>
<path d="M35.8091 29.1777C35.8231 29.1263 35.8184 29.0787 35.8056 29.0383H37.672C37.6716 29.0394 37.6713 29.0404 37.6709 29.0415C37.6543 29.0915 37.6569 29.1378 37.6692 29.1777H35.8091Z" stroke="white" stroke-width="0.2"/>
<path d="M37.66 29.614H35.8169C35.8183 29.5993 35.8178 29.5851 35.8157 29.5716H37.6611C37.6587 29.5863 37.6585 29.6005 37.66 29.614Z" stroke="white" stroke-width="0.2"/>
<path d="M37.7074 19.4328H35.7764C35.8308 19.2887 35.8239 19.1514 35.798 19.043C35.7904 19.0108 35.781 18.9809 35.7711 18.9541H37.7136C37.6439 19.1119 37.6498 19.2547 37.6836 19.3676C37.6906 19.3909 37.6987 19.4127 37.7074 19.4328Z" stroke="white" stroke-width="0.2"/>
<path d="M37.7031 18.0753H35.7802C35.8305 17.9433 35.8233 17.8173 35.7976 17.7172C35.791 17.6914 35.7832 17.6672 35.7748 17.645H37.7087C37.6442 17.7888 37.6503 17.9202 37.6843 18.0254C37.6899 18.043 37.6963 18.0596 37.7031 18.0753Z" stroke="white" stroke-width="0.2"/>
<path d="M37.7031 16.8633H35.7802C35.8305 16.7313 35.8233 16.6053 35.7976 16.5051C35.791 16.4793 35.7832 16.4552 35.7748 16.433H37.7087C37.6442 16.5768 37.6503 16.7082 37.6843 16.8134C37.6899 16.831 37.6963 16.8476 37.7031 16.8633Z" stroke="white" stroke-width="0.2"/>
<path d="M37.7031 15.6512H35.7803C35.8305 15.5192 35.8233 15.3933 35.7976 15.2931C35.791 15.2673 35.7832 15.2432 35.7748 15.221H37.7087C37.6442 15.3647 37.6503 15.4961 37.6843 15.6013C37.6899 15.6189 37.6963 15.6356 37.7031 15.6512Z" stroke="white" stroke-width="0.2"/>
<path d="M37.6927 14.5361H35.7889C35.8297 14.4282 35.822 14.3247 35.7965 14.2405C35.7925 14.2274 35.7881 14.2149 35.7835 14.2028H37.6983C37.6844 14.2335 37.6744 14.264 37.668 14.2943C37.6497 14.3803 37.6621 14.4571 37.686 14.5197C37.6882 14.5253 37.6904 14.5308 37.6927 14.5361Z" stroke="white" stroke-width="0.2"/>
<path d="M37.6927 13.5665H35.7889C35.8297 13.4586 35.822 13.355 35.7965 13.2708C35.7925 13.2578 35.7881 13.2452 35.7835 13.2332H37.6983C37.6844 13.2638 37.6744 13.2943 37.668 13.3246C37.6497 13.4107 37.6621 13.4875 37.686 13.5501C37.6882 13.5557 37.6904 13.5611 37.6927 13.5665Z" stroke="white" stroke-width="0.2"/>
<path d="M37.6815 12.6938H35.7987C35.8032 12.6811 35.8069 12.6682 35.8097 12.6553C35.8262 12.5812 35.8147 12.5136 35.7945 12.4591C35.7943 12.4586 35.7941 12.458 35.7939 12.4575H37.6853C37.6786 12.4731 37.6731 12.4889 37.669 12.5048C37.6505 12.5762 37.6603 12.6408 37.6815 12.6938Z" stroke="white" stroke-width="0.2"/>
<path d="M35.8091 11.9666C35.8231 11.9153 35.8184 11.8677 35.8056 11.8272H37.672C37.6716 11.8283 37.6713 11.8294 37.6709 11.8305C37.6543 11.8804 37.6569 11.9267 37.6692 11.9666H35.8091Z" stroke="white" stroke-width="0.2"/>
<path d="M35.8136 11.4333C35.8202 11.4006 35.8181 11.3699 35.8112 11.3424H37.6656C37.6569 11.375 37.6576 11.4057 37.6641 11.4333H35.8136Z" stroke="white" stroke-width="0.2"/>
<mask id="path-29-inside-1" >
<path d="M37.8885 11H35.6099C35.6099 11 35.8523 11.0727 35.6099 11.1454H37.8885C37.8885 11.1454 37.5976 11.0824 37.8885 11Z"/>
</mask>
<path d="M37.8885 11L37.943 11.1924L37.8885 10.8V11ZM35.6099 11V10.8L35.5524 11.1916L35.6099 11ZM35.6099 11.1454L35.5524 10.9539L35.6099 11.3454V11.1454ZM37.8885 11.1454V11.3454L37.9309 10.95L37.8885 11.1454ZM37.8885 10.8H35.6099V11.2H37.8885V10.8ZM35.6099 11C35.5524 11.1916 35.5523 11.1916 35.5523 11.1915C35.5523 11.1915 35.5522 11.1915 35.5522 11.1915C35.5521 11.1915 35.5521 11.1915 35.552 11.1915C35.5519 11.1914 35.5518 11.1914 35.5517 11.1914C35.5516 11.1913 35.5514 11.1913 35.5514 11.1913C35.5512 11.1912 35.5513 11.1912 35.5515 11.1913C35.5519 11.1914 35.5529 11.1917 35.5544 11.1923C35.5575 11.1933 35.5619 11.195 35.5665 11.1969C35.5714 11.1989 35.5747 11.2006 35.5764 11.2016C35.579 11.203 35.5745 11.2009 35.567 11.1941C35.5629 11.1904 35.556 11.1837 35.5486 11.1734C35.5412 11.1632 35.5316 11.1472 35.525 11.1255C35.5181 11.1028 35.5153 11.0763 35.5198 11.0481C35.5242 11.0203 35.5347 10.9977 35.5457 10.9811C35.5564 10.9651 35.5672 10.9551 35.5736 10.9499C35.5801 10.9447 35.5844 10.9424 35.5844 10.9423C35.5847 10.9422 35.5824 10.9434 35.5768 10.9456C35.5712 10.9478 35.5633 10.9506 35.5524 10.9539L35.6673 11.337C35.7052 11.3257 35.7418 11.3119 35.7745 11.2943C35.8049 11.2779 35.8472 11.25 35.8785 11.203C35.9156 11.1473 35.9284 11.0774 35.9078 11.0095C35.8905 10.9524 35.8553 10.9155 35.8346 10.8968C35.7932 10.8596 35.7444 10.8378 35.7214 10.8281C35.7071 10.8221 35.6944 10.8175 35.6852 10.8143C35.6806 10.8127 35.6766 10.8114 35.6736 10.8104C35.6721 10.8099 35.6708 10.8095 35.6697 10.8092C35.6692 10.809 35.6688 10.8089 35.6683 10.8087C35.6681 10.8087 35.668 10.8086 35.6678 10.8086C35.6677 10.8085 35.6676 10.8085 35.6676 10.8085C35.6675 10.8085 35.6675 10.8085 35.6674 10.8085C35.6674 10.8085 35.6673 10.8084 35.6099 11ZM35.6099 11.3454H37.8885V10.9454H35.6099V11.3454ZM37.8885 11.1454C37.9309 10.95 37.9309 10.95 37.931 10.95C37.931 10.95 37.931 10.95 37.931 10.95C37.9311 10.95 37.9311 10.95 37.9312 10.95C37.9313 10.9501 37.9313 10.9501 37.9314 10.9501C37.9315 10.9501 37.9316 10.9501 37.9316 10.9501C37.9316 10.9501 37.9313 10.9501 37.9309 10.95C37.93 10.9498 37.9283 10.9494 37.926 10.9488C37.9214 10.9476 37.9149 10.9458 37.908 10.9436C37.9008 10.9414 37.895 10.9392 37.891 10.9375C37.8859 10.9353 37.8888 10.936 37.8959 10.9411C37.8998 10.9438 37.9077 10.9499 37.9167 10.96C37.9256 10.9699 37.9389 10.9875 37.9484 11.0132C37.9585 11.0406 37.9626 11.0733 37.9561 11.1074C37.9499 11.1405 37.9356 11.1649 37.9236 11.1804C37.9119 11.1953 37.9011 11.2037 37.8965 11.207C37.8916 11.2104 37.8894 11.2112 37.892 11.21C37.8977 11.2072 37.9129 11.201 37.943 11.1924L37.834 10.8076C37.7914 10.8196 37.7521 10.8334 37.718 10.8498C37.6874 10.8646 37.6426 10.8902 37.608 10.9346C37.565 10.9898 37.5429 11.0697 37.573 11.1513C37.5963 11.2147 37.6416 11.2509 37.6629 11.2662C37.7085 11.2989 37.7618 11.3169 37.7872 11.325C37.803 11.33 37.817 11.3338 37.8271 11.3364C37.8323 11.3377 37.8365 11.3387 37.8398 11.3395C37.8414 11.3398 37.8427 11.3401 37.8438 11.3404C37.8443 11.3405 37.8448 11.3406 37.8452 11.3407C37.8454 11.3407 37.8456 11.3408 37.8457 11.3408C37.8458 11.3408 37.8459 11.3409 37.846 11.3409C37.846 11.3409 37.846 11.3409 37.8461 11.3409C37.8461 11.3409 37.8462 11.3409 37.8885 11.1454Z"  mask="url(#path-29-inside-1)"/>
</g>
<defs>
<clipPath id="clip0">
<rect width="49.5" height="18.8595"  transform="translate(0 11)"/>
</clipPath>
</defs>
</svg>
