<svg width="50" height="40" viewBox="0 0 50 40"  xmlns="http://www.w3.org/2000/svg">
<path d="M12 33H11.75C11.75 33.1381 11.8619 33.25 12 33.25V33ZM38 33V33.25C38.1381 33.25 38.25 33.1381 38.25 33H38ZM38 7H38.25C38.25 6.86193 38.1381 6.75 38 6.75V7ZM12 7V6.75C11.8619 6.75 11.75 6.86193 11.75 7H12ZM17.353 22.0074H17.603H17.353ZM12 33.25H38V32.75H12V33.25ZM38.25 33V7H37.75V33H38.25ZM38 6.75H12V7.25H38V6.75ZM11.75 7V33H12.25V7H11.75ZM25.0001 9.92648C25.8489 9.92648 26.7353 10.3068 27.5984 10.9944C28.4602 11.681 29.2825 12.6617 29.9964 13.8277C31.4254 16.1615 32.3971 19.1996 32.3971 22.0074H32.8971C32.8971 19.0958 31.8934 15.9684 30.4229 13.5666C29.687 12.3648 28.8285 11.3352 27.91 10.6034C26.9928 9.87262 25.9994 9.42648 25.0001 9.42648V9.92648ZM32.3971 22.0074C32.3971 24.2069 31.7497 26.229 30.5086 27.6967C29.272 29.1593 27.4314 30.0895 25.0001 30.0895V30.5895C27.5712 30.5895 29.5542 29.5999 30.8904 28.0196C32.2223 26.4444 32.8971 24.3004 32.8971 22.0074H32.3971ZM25.0001 30.0895C22.5688 30.0895 20.7282 29.1593 19.4915 27.6967C18.2505 26.229 17.603 24.2069 17.603 22.0074H17.103C17.103 24.3004 17.7778 26.4444 19.1097 28.0196C20.446 29.5999 22.4289 30.5895 25.0001 30.5895V30.0895ZM17.603 22.0074C17.603 19.1915 18.5749 16.1535 20.0037 13.8218C20.7176 12.6569 21.5398 11.6777 22.4016 10.9923C23.2646 10.3059 24.1511 9.92648 25.0001 9.92648V9.42648C24.001 9.42648 23.0076 9.87148 22.0903 10.601C21.1718 11.3315 20.3133 12.3597 19.5774 13.5606C18.1067 15.9605 17.103 19.0879 17.103 22.0074H17.603Z" />
</svg>
