<svg width="50" height="40" viewBox="0 0 50 40"  xmlns="http://www.w3.org/2000/svg">
<path fill-rule="evenodd" clip-rule="evenodd" d="M18.5676 8.49999C23.2945 5.90596 29.2341 6.71929 33.0319 10.4816C36.8298 14.2438 37.5321 20.0102 34.742 24.5244L34.7368 24.5329C34.6759 24.6203 34.5665 24.6589 34.4656 24.6372C34.3626 24.6152 34.2813 24.5339 34.2648 24.4297L34.2644 24.4273C34.066 23.0525 33.5361 22.0031 32.7542 21.243C31.9721 20.4827 30.9255 19.9998 29.6727 19.7795C29.6016 19.7691 29.5326 19.7486 29.4753 19.715C29.4255 19.6857 29.3402 19.6185 29.3362 19.5041C29.3318 19.3781 29.4267 19.3063 29.4866 19.2761C29.5516 19.2434 29.6319 19.2266 29.7179 19.2193C30.4905 19.1539 31.2683 19.1619 32.0388 19.2431C32.0459 19.1822 32.0332 19.3041 32.0388 19.2431C32.0592 19.0196 32.0692 18.7952 32.0687 18.5707C32.0687 14.5111 28.6675 11.2181 24.4706 11.2181C20.2737 11.2181 16.8726 14.5106 16.8726 18.5703C16.8726 22.6304 20.2737 25.9228 24.4706 25.9228H24.6151C24.5197 25.3078 24.4814 24.6853 24.5009 24.0634L24.501 24.061C24.5063 23.9422 24.5167 23.8391 24.5357 23.758C24.5452 23.7176 24.5583 23.6754 24.5783 23.6372C24.5975 23.6005 24.6313 23.5511 24.6908 23.5192C24.7583 23.4829 24.8304 23.4843 24.8896 23.5048C24.942 23.5229 24.9827 23.5548 25.0118 23.5823C25.0704 23.6376 25.127 23.7186 25.1825 23.8113C26.2424 25.5793 27.7509 27.1734 30.6901 27.8002C31.9173 28.0622 33.1689 28.352 34.4495 28.991C35.7325 29.6313 37.0364 30.6177 38.3835 32.2641C38.4673 32.3669 38.5087 32.4839 38.4998 32.6007C38.491 32.7165 38.4339 32.8165 38.3513 32.8859C38.1824 33.0276 37.9183 33.0365 37.7147 32.8615C35.0341 30.5623 32.6289 29.8333 30.4223 29.8333C29.0447 29.8283 27.9081 29.927 26.872 30.0175L26.8495 30.0194C26.0185 30.0915 25.2473 30.1584 24.4713 30.1612C19.0374 30.1609 14.2838 26.618 12.898 21.5317C11.5115 16.4453 13.8405 11.0941 18.5676 8.49999ZM32.7629 10.7381C29.0847 7.09425 23.3315 6.30619 18.7529 8.81886C14.1745 11.3314 11.9199 16.5133 13.2623 21.438C14.604 26.3626 19.2065 29.7945 24.4703 29.795C25.23 29.7922 25.9874 29.7265 26.8246 29.6539L26.8383 29.6527C27.8745 29.5623 29.0259 29.4621 30.4226 29.4671C32.7303 29.4672 35.2221 30.2351 37.964 32.587C38.0007 32.6186 38.032 32.626 38.0523 32.6263C38.0742 32.6267 38.0925 32.6192 38.105 32.6088C38.117 32.5987 38.123 32.5865 38.124 32.5737C38.1249 32.562 38.1227 32.534 38.0886 32.492C36.7715 30.8824 35.5083 29.9311 34.2773 29.3168C33.0439 28.7012 31.8344 28.4195 30.6094 28.1579C27.56 27.5076 25.9753 25.8476 24.8797 24.0335C24.8789 24.047 24.8781 24.0611 24.8775 24.0758C24.8566 24.745 24.9051 25.415 25.0221 26.0748L25.0601 26.289H24.4706C20.0671 26.289 16.4958 22.834 16.4958 18.5703C16.4958 14.3069 20.0671 10.8519 24.4706 10.8519C28.8741 10.8519 32.4455 14.3069 32.4455 18.5703C32.4462 18.8702 32.4289 19.1696 32.3943 19.467L32.3728 19.6511L32.1837 19.6281C31.5737 19.5542 30.344 19.5488 30.344 19.5488C30.3362 19.5507 30.348 19.5475 30.344 19.5488C30.3262 19.5503 30.3567 19.5467 30.344 19.5488C31.3975 19.8181 32.3067 20.29 33.0207 20.9841C33.8058 21.7473 34.3442 22.7689 34.585 24.0584C34.6419 23.9665 34.5312 24.1514 34.585 24.0584C34.6045 24.1627 34.5695 23.9506 34.585 24.0584C37.0907 19.7308 36.3634 14.3047 32.7629 10.7381ZM33.14 23.1463C33.4224 23.2531 33.599 23.506 33.7077 23.7373C33.8203 23.9771 33.8783 24.2322 33.9028 24.3929C33.9443 24.66 33.9259 24.8752 33.8549 25.0332C33.7825 25.1944 33.6442 25.3102 33.467 25.3102C33.3123 25.3102 33.1664 25.2202 33.0435 25.1112C32.9138 24.9961 32.7777 24.8313 32.6407 24.6228C32.498 24.4059 32.3993 24.1736 32.3541 23.9588C32.3102 23.7502 32.3115 23.5304 32.4065 23.3603L32.4093 23.3553C32.5578 23.1084 32.8789 23.0183 33.14 23.1463ZM32.7362 23.5377C32.7034 23.5987 32.6876 23.716 32.7233 23.8855C32.7581 24.0512 32.8374 24.242 32.9582 24.4256C33.0847 24.6179 33.2004 24.7546 33.2975 24.8408C33.3988 24.9306 33.4546 24.9434 33.4662 24.944C33.4727 24.9415 33.49 24.9302 33.5096 24.8866C33.5417 24.8153 33.5659 24.677 33.5302 24.4475C33.509 24.3082 33.4584 24.0883 33.3649 23.8895C33.2688 23.685 33.1448 23.5385 32.9974 23.4853L32.9855 23.481L32.9742 23.4752C32.8895 23.4312 32.7849 23.4598 32.7362 23.5377ZM30.4575 24.9975C30.8143 25.0085 31.1553 25.1404 31.4224 25.3715C31.7018 25.6011 31.8985 25.8632 31.9827 26.1318C32.0686 26.4061 32.0353 26.6859 31.8548 26.9185L31.8506 26.9239C31.6423 27.1728 31.3246 27.3112 30.9951 27.2978C30.6596 27.2969 30.3353 27.1822 30.078 26.974L30.0749 26.9715C29.8065 26.7445 29.6306 26.4451 29.5665 26.1448C29.5026 25.8455 29.5475 25.5287 29.7479 25.29L29.7528 25.2842C29.9304 25.0893 30.1907 24.9841 30.4575 24.9975ZM30.0375 25.5243C29.9284 25.6564 29.8885 25.8508 29.9354 26.0704C29.9823 26.2899 30.1138 26.5183 30.3207 26.6939C30.5111 26.8473 30.7512 26.9316 30.9993 26.9316H31.008C31.2189 26.9411 31.4223 26.8535 31.556 26.6954C31.6527 26.5691 31.6775 26.4151 31.6222 26.2385C31.5649 26.0556 31.4201 25.8488 31.1774 25.6497L31.1733 25.6464C30.9716 25.4713 30.7139 25.3714 30.4438 25.3634L30.4394 25.3633C30.2873 25.3553 30.139 25.4147 30.0375 25.5243Z" />
</svg>
