<svg width="50" height="40" viewBox="0 0 50 40"  xmlns="http://www.w3.org/2000/svg">
<path d="M47.3979 12.3066L47.5712 12.1264L47.5705 12.1258L47.3979 12.3066ZM42.9107 11.0725L42.8745 10.8252L42.6607 10.8565V11.0725H42.9107ZM48.7927 16.0698L48.5438 16.047L48.5436 16.0485L48.7927 16.0698ZM43.7004 24.4681L43.7088 24.718L43.8069 24.7147L43.8766 24.6455L43.7004 24.4681ZM37.8453 24.664L37.6758 24.4802L37.1815 24.9363L37.8537 24.9138L37.8453 24.664ZM43.4579 19.0623L43.266 18.9021L43.2659 18.9021L43.4579 19.0623ZM44.4652 15.7266L44.2395 15.8342L44.2401 15.8354L44.4652 15.7266ZM42.9107 14.9516H42.6607V15.2159L42.9247 15.2012L42.9107 14.9516ZM30.9146 16.7016H30.6646V16.981L30.9423 16.95L30.9146 16.7016ZM30.9146 13.2037L30.8794 12.9562L30.6646 12.9868V13.2037H30.9146ZM35.9987 16.1351L36.0264 16.3836L36.2487 16.3588V16.1351H35.9987ZM35.9987 12.4793H36.2487V12.1911L35.9634 12.2318L35.9987 12.4793ZM26.7736 13.7955L26.7383 13.548L26.5236 13.5786V13.7955H26.7736ZM26.7736 29H26.5236V29.25H26.7736V29ZM30.2597 13.2985H30.5097V13.0103L30.2244 13.051L30.2597 13.2985ZM30.2597 29V29.25H30.5097V29H30.2597ZM12.9888 18.7085H12.7388V18.988L13.0166 18.957L12.9888 18.7085ZM12.9888 15.7687L12.9536 15.5212L12.7388 15.5518V15.7687H12.9888ZM16.8335 18.2789L16.8612 18.5274L17.0835 18.5025V18.2789H16.8335ZM16.8335 15.2211H17.0835V14.933L16.7982 14.9736L16.8335 15.2211ZM9.8323 16.2193L9.79704 15.9718L9.5823 16.0024V16.2193H9.8323ZM9.8323 29H9.5823V29.25H9.8323V29ZM12.4935 15.8403H12.7435V15.5521L12.4582 15.5928L12.4935 15.8403ZM12.4935 29V29.25H12.7435V29H12.4935ZM2 19.9362H1.75V20.2157L2.02775 20.1847L2 19.9362ZM2 17.3376L1.96465 17.0901L1.75 17.1207V17.3376H2ZM8.89963 19.1655L8.92739 19.4139L9.14963 19.3891V19.1655H8.89963ZM8.89963 16.352H9.14963V16.0638L8.86428 16.1045L8.89963 16.352ZM4.20316 29H3.95316V29.25H4.20316V29ZM4.20316 20.0963L4.17723 19.8476L3.95316 19.871V20.0963H4.20316ZM6.72757 29V29.25H6.97757V29H6.72757ZM6.72757 19.833H6.97757V19.5556L6.70164 19.5844L6.72757 19.833ZM12.9888 20.8965L12.967 20.6475L12.7388 20.6675V20.8965H12.9888ZM12.9888 23.8911H12.7388V24.1555L13.0028 24.1407L12.9888 23.8911ZM15.5112 20.6754H15.7612V20.4025L15.4893 20.4264L15.5112 20.6754ZM15.5112 23.75L15.5251 23.9996L15.7612 23.9864V23.75H15.5112ZM12.9888 29H12.7388V29.25H12.9888V29ZM12.9888 26.0496L12.981 25.7998L12.7388 25.8073V26.0496H12.9888ZM16.8335 29V29.25H17.0835V29H16.8335ZM16.8335 25.9296H17.0835V25.6717L16.8257 25.6797L16.8335 25.9296ZM30.9146 19.3318L30.8929 19.0828L30.6646 19.1027V19.3318H30.9146ZM30.9146 22.8929H30.6646V23.157L30.9284 23.1425L30.9146 22.8929ZM34.2473 19.0412H34.4973V18.7685L34.2256 18.7922L34.2473 19.0412ZM34.2473 22.7097L34.2611 22.9593L34.4973 22.9463V22.7097H34.2473ZM30.9146 29H30.6646V29.25H30.9146V29ZM30.9146 25.4979L30.907 25.248L30.6646 25.2554V25.4979H30.9146ZM35.9987 29V29.25H36.2487V29H35.9987ZM35.9987 25.3421H36.2487V25.0843L35.991 25.0922L35.9987 25.3421ZM17.8491 15.0737L17.8138 14.8262L17.5991 14.8568V15.0737H17.8491ZM17.8491 29H17.5991V29.25H17.8491V29ZM20.8812 14.642H21.1312V14.3539L20.846 14.3945L20.8812 14.642ZM20.8812 29V29.25H21.1312V29H20.8812ZM21.4471 29H21.1971V29.25H21.4471V29ZM21.4471 25.7885L21.4394 25.5386L21.1971 25.5461V25.7885H21.4471ZM25.8492 29V29.25H26.0992V29H25.8492ZM25.8492 25.6537H26.0992V25.396L25.8416 25.4039L25.8492 25.6537ZM37.1262 29L36.8762 29.0001L36.8763 29.25H37.1262V29ZM37.1241 25.3042L37.1164 25.0543L36.874 25.0617L36.8741 25.3043L37.1241 25.3042ZM49 29V29.25H49.25V29H49ZM49 24.9398H49.25V24.6821L48.9923 24.69L49 24.9398ZM42.2268 11.1589L42.4768 11.1587L42.4766 10.8491L42.174 10.9145L42.2268 11.1589ZM37.2795 18.6874L37.0298 18.6991L37.042 18.9598L37.3019 18.9364L37.2795 18.6874ZM42.2289 15.1053L42.3255 15.3359L42.479 15.2716L42.4789 15.1052L42.2289 15.1053ZM40.9563 18.3568L40.9787 18.6058L41.2227 18.5839L41.2057 18.3394L40.9563 18.3568ZM47.5705 12.1258C46.4018 11.0097 44.703 10.5573 42.8745 10.8252L42.947 11.3199C44.6543 11.0697 46.1888 11.4976 47.2252 12.4874L47.5705 12.1258ZM49.0417 16.0926C49.1772 14.6122 48.6356 13.1497 47.5712 12.1264L47.2246 12.4868C48.1785 13.4038 48.6655 14.7165 48.5438 16.047L49.0417 16.0926ZM43.8766 24.6455C47.4652 21.0816 48.804 18.8736 49.0418 16.0911L48.5436 16.0485C48.3214 18.6487 47.0902 20.7494 43.5242 24.2907L43.8766 24.6455ZM37.8537 24.9138L43.7088 24.718L43.692 24.2183L37.837 24.4141L37.8537 24.9138ZM43.2659 18.9021C42.509 19.8095 41.1153 21.201 39.9028 22.3728C39.2981 22.957 38.7413 23.484 38.3355 23.865C38.1327 24.0554 37.9676 24.2093 37.8534 24.3156C37.7962 24.3687 37.7518 24.4099 37.7217 24.4378C37.7066 24.4518 37.6951 24.4624 37.6874 24.4695C37.6836 24.4731 37.6806 24.4758 37.6787 24.4776C37.6777 24.4785 37.677 24.4791 37.6765 24.4796C37.6763 24.4798 37.6761 24.48 37.676 24.4801C37.6759 24.4801 37.6759 24.4802 37.6759 24.4802C37.6758 24.4802 37.6758 24.4802 37.8453 24.664C38.0149 24.8477 38.0149 24.8477 38.0149 24.8477C38.015 24.8476 38.015 24.8476 38.0151 24.8475C38.0152 24.8474 38.0154 24.8472 38.0157 24.847C38.0162 24.8465 38.0169 24.8458 38.0179 24.8449C38.0199 24.8431 38.0229 24.8403 38.0268 24.8367C38.0346 24.8295 38.0462 24.8187 38.0614 24.8047C38.0918 24.7766 38.1365 24.7351 38.1938 24.6818C38.3086 24.575 38.4742 24.4206 38.6778 24.2295C39.0847 23.8474 39.6434 23.3187 40.2502 22.7323C41.4605 21.5628 42.8731 20.1535 43.6499 19.2224L43.2659 18.9021ZM44.2401 15.8354C44.4106 16.1879 44.4192 16.6537 44.2513 17.1948C44.084 17.7338 43.7477 18.3249 43.266 18.9021L43.6498 19.2225C44.1629 18.6077 44.5375 17.9595 44.7288 17.3429C44.9195 16.7284 44.9343 16.1223 44.6902 15.6177L44.2401 15.8354ZM42.9247 15.2012C43.5739 15.165 44.0369 15.4092 44.2395 15.8342L44.6908 15.619C44.3753 14.9572 43.6818 14.6582 42.8968 14.702L42.9247 15.2012ZM42.6607 11.0725V14.9516H43.1607V11.0725H42.6607ZM31.1646 16.7016V13.2037H30.6646V16.7016H31.1646ZM35.971 15.8866L30.8869 16.4531L30.9423 16.95L36.0264 16.3836L35.971 15.8866ZM35.7487 12.4793V16.1351H36.2487V12.4793H35.7487ZM30.9499 13.4512L36.0339 12.7268L35.9634 12.2318L30.8794 12.9562L30.9499 13.4512ZM26.5236 13.7955V29H27.0236V13.7955H26.5236ZM30.2244 13.051L26.7383 13.548L26.8089 14.0429L30.295 13.546L30.2244 13.051ZM30.5097 29V13.2985H30.0097V29H30.5097ZM26.7736 29.25H30.2597V28.75H26.7736V29.25ZM13.2388 18.7085V15.7687H12.7388V18.7085H13.2388ZM16.8057 18.0304L12.9611 18.46L13.0166 18.957L16.8612 18.5274L16.8057 18.0304ZM16.5835 15.2211V18.2789H17.0835V15.2211H16.5835ZM13.0241 16.0162L16.8687 15.4686L16.7982 14.9736L12.9536 15.5212L13.0241 16.0162ZM9.5823 16.2193V29H10.0823V16.2193H9.5823ZM12.4582 15.5928L9.79704 15.9718L9.86755 16.4668L12.5288 16.0878L12.4582 15.5928ZM12.7435 29V15.8403H12.2435V29H12.7435ZM9.8323 29.25H12.4935V28.75H9.8323V29.25ZM2.25 19.9362V17.3376H1.75V19.9362H2.25ZM8.87188 18.917L1.97225 19.6878L2.02775 20.1847L8.92739 19.4139L8.87188 18.917ZM8.64963 16.352V19.1655H9.14963V16.352H8.64963ZM2.03535 17.5851L8.93499 16.5995L8.86428 16.1045L1.96465 17.0901L2.03535 17.5851ZM4.45316 29V20.0963H3.95316V29H4.45316ZM6.72757 28.75H4.20316V29.25H6.72757V28.75ZM6.47757 19.833V29H6.97757V19.833H6.47757ZM4.22909 20.3449L6.75349 20.0817L6.70164 19.5844L4.17723 19.8476L4.22909 20.3449ZM12.7388 20.8965V23.8911H13.2388V20.8965H12.7388ZM15.4893 20.4264L12.967 20.6475L13.0107 21.1456L15.533 20.9244L15.4893 20.4264ZM15.7612 23.75V20.6754H15.2612V23.75H15.7612ZM13.0028 24.1407L15.5251 23.9996L15.4972 23.5004L12.9749 23.6415L13.0028 24.1407ZM13.2388 29V26.0496H12.7388V29H13.2388ZM16.8335 28.75H12.9888V29.25H16.8335V28.75ZM16.5835 25.9296V29H17.0835V25.9296H16.5835ZM12.9966 26.2995L16.8413 26.1795L16.8257 25.6797L12.981 25.7998L12.9966 26.2995ZM30.6646 19.3318V22.8929H31.1646V19.3318H30.6646ZM34.2256 18.7922L30.8929 19.0828L30.9363 19.5809L34.2691 19.2903L34.2256 18.7922ZM34.4973 22.7097V19.0412H33.9973V22.7097H34.4973ZM30.9284 23.1425L34.2611 22.9593L34.2336 22.4601L30.9009 22.6433L30.9284 23.1425ZM31.1646 29V25.4979H30.6646V29H31.1646ZM35.9987 28.75H30.9146V29.25H35.9987V28.75ZM35.7487 25.3421V29H36.2487V25.3421H35.7487ZM30.9223 25.7478L36.0063 25.5919L35.991 25.0922L30.907 25.248L30.9223 25.7478ZM17.5991 15.0737V29H18.0991V15.0737H17.5991ZM20.846 14.3945L17.8138 14.8262L17.8843 15.3212L20.9165 14.8895L20.846 14.3945ZM21.1312 29V14.642H20.6312V29H21.1312ZM17.8491 29.25H20.8812V28.75H17.8491V29.25ZM21.6971 29V25.7885H21.1971V29H21.6971ZM25.8492 28.75H21.4471V29.25H25.8492V28.75ZM25.5992 25.6537V29H26.0992V25.6537H25.5992ZM21.4547 26.0384L25.8569 25.9036L25.8416 25.4039L21.4394 25.5386L21.4547 26.0384ZM37.3762 28.9999L37.3741 25.304L36.8741 25.3043L36.8762 29.0001L37.3762 28.9999ZM49 28.75H37.1262V29.25H49V28.75ZM48.75 24.9398V29H49.25V24.9398H48.75ZM37.1318 25.554L49.0077 25.1897L48.9923 24.69L37.1164 25.0543L37.1318 25.554ZM42.174 10.9145C40.3955 11.2987 39.0481 12.16 38.1764 13.4859C37.3081 14.8065 36.9298 16.5601 37.0298 18.6991L37.5293 18.6758C37.4324 16.603 37.8023 14.965 38.5942 13.7606C39.3825 12.5616 40.6073 11.7645 42.2796 11.4032L42.174 10.9145ZM42.4789 15.1052L42.4768 11.1587L41.9768 11.159L41.9789 15.1054L42.4789 15.1052ZM41.2057 18.3394C41.1242 17.1713 41.263 16.4876 41.481 16.0685C41.6924 15.662 41.9934 15.4751 42.3255 15.3359L42.1322 14.8748C41.741 15.0388 41.3228 15.2889 41.0374 15.8379C40.7584 16.3743 40.6226 17.1648 40.7069 18.3742L41.2057 18.3394ZM37.3019 18.9364L40.9787 18.6058L40.9339 18.1078L37.2571 18.4384L37.3019 18.9364Z" />
</svg>
