<svg width="50" height="40" viewBox="0 0 50 40"  xmlns="http://www.w3.org/2000/svg">
<path d="M28.0392 15.5656V7L27.9647 7.0758C27.4431 7.53061 26.8471 7.98542 26.3255 8.44023C23.4196 10.8659 20.5137 13.2915 17.5333 15.6414C16.4157 16.551 15.4471 17.4606 15 18.8251V31.6356C15 31.7114 15.0745 31.863 15.149 32.0146C15.298 32.1662 15.4471 32.3178 15.5961 32.4694C15.9686 32.7726 16.4902 33 16.8627 33H33.6275C33.702 33 33.702 33 33.7765 33C33.851 33 33.9255 33 34 33V17.688C32.3608 17.688 30.7216 17.688 29.0824 17.688C28.7098 17.688 28.4118 17.688 28.0392 17.688C28.0392 17.0058 28.0392 16.3236 28.0392 15.5656Z" fill="#FFCC0D"/>
<path d="M30.9452 17.7326C30.9452 18.564 30.9452 19.2442 30.9452 19.6221C31.0197 21.814 30.9452 24.0058 30.9452 26.1977C30.9452 26.4244 30.8707 26.5756 30.8707 26.6512L30.7961 26.7267C30.7961 26.7267 30.7216 26.8023 30.6471 26.8023C30.6471 26.8023 30.5726 26.8023 30.5726 26.8779C30.5726 26.8779 30.4981 26.8779 30.4981 26.9535C28.7099 27.5581 26.9961 28.1628 25.2079 28.7674C24.3883 29.0698 23.5687 29.2965 22.7491 29.5988C21.6314 29.9767 20.5138 30.3546 19.3961 30.7326L19.2471 30.8081C19.0236 30.8837 18.8001 30.9593 18.5765 31.0349C19.2471 30.5058 19.9922 30.0523 20.6628 29.5233C20.6628 29.5233 20.7373 29.5233 20.7373 29.4477C21.6314 28.7674 22.6001 28.1628 23.4942 27.4826C24.8354 26.5 24.7609 26.5756 25.5805 25.9709C26.251 25.5174 26.7726 25.1395 27.1452 24.9128C27.2942 24.7616 27.5177 24.6105 27.6667 24.3837C27.9648 24.0814 28.0393 23.7035 28.1138 23.4767C28.1138 21.5872 28.1138 19.6221 28.1138 17.7326C29.0079 17.7326 29.9765 17.7326 30.9452 17.7326Z" fill="#E7AD09"/>
<path d="M22.451 18.564C22.451 18.0349 22.749 17.5058 23.0471 17.0523C23.4196 16.5988 23.8667 16.2965 24.3882 16.2209C24.7608 16.1453 25.1333 16.2209 25.4314 16.4477C25.7294 16.6744 25.8039 17.0523 25.8039 17.4302C25.8039 17.9593 25.5804 18.4884 25.2079 18.9419C24.8353 19.3953 24.3882 19.6977 23.8667 19.8488C23.4941 19.9244 23.1216 19.8488 22.8235 19.6221C22.6 19.3198 22.451 18.9419 22.451 18.564H22.6745H22.451Z" fill="black"/>
</svg>
