<svg width="50" height="40" viewBox="0 0 50 40"  xmlns="http://www.w3.org/2000/svg">
<path d="M15 18.8297L14.763 18.7501L14.75 18.7888V18.8297H15ZM15 31.4555H14.75L14.75 31.4598L15 31.4555ZM17.5471 15.5688L17.3915 15.3731L17.3913 15.3733L17.5471 15.5688ZM26.1459 8.53451L25.9863 8.3421L26.1459 8.53451ZM27.7562 7.1993L27.9157 7.39183L27.9164 7.39126L27.7562 7.1993ZM27.8232 7.13384L27.6509 6.95216L27.642 6.96156L27.8232 7.13384ZM27.8232 7.13383L27.9954 7.31551L28.0043 7.30611L27.8232 7.13383ZM28.1672 7.02812H28.4172V6.86627L28.2695 6.80002L28.1672 7.02812ZM28.1912 16.9596H28.4412L28.4411 16.9529L28.1912 16.9596ZM28.1912 16.9596H27.9411L27.9412 16.9659L28.1912 16.9596ZM28.1912 16.96L27.9412 16.9663L27.9413 16.9667L28.1912 16.96ZM28.2066 17.5731H28.4566L28.4565 17.5678L28.2066 17.5731ZM28.2004 19.4112L27.9504 19.41V19.4112H28.2004ZM28.2004 19.4114L28.4504 19.4126V19.4114H28.2004ZM28.2066 23.0884L28.4565 23.085L28.4565 23.0847L28.2066 23.0884ZM27.6485 24.1677L27.5047 23.9632L27.5045 23.9634L27.6485 24.1677ZM18.3737 30.7659L18.5193 30.9691L18.5195 30.969L18.3737 30.7659ZM18.2861 30.8212L18.3831 31.0516L18.3988 31.045L18.4134 31.0363L18.2861 30.8212ZM18.2861 30.8212L18.1891 30.5908L18.1734 30.5974L18.1587 30.6061L18.2861 30.8212ZM18.0055 31.2224L17.7561 31.2054L17.7306 31.5792L18.0855 31.4593L18.0055 31.2224ZM17.9231 31.5143L17.6736 31.4985L17.6499 31.8725L18.0044 31.7507L17.9231 31.5143ZM19.4343 30.9962L19.5153 31.2327L19.5156 31.2326L19.4343 30.9962ZM19.4354 30.9958L19.3544 30.7593L19.3541 30.7594L19.4354 30.9958ZM22.7522 29.8534L22.67 29.6173L22.6699 29.6173L22.7522 29.8534ZM25.204 28.9938L25.1215 28.7578L25.121 28.758L25.204 28.9938ZM25.205 28.9934L25.2876 29.2294L25.288 29.2293L25.205 28.9934ZM30.432 27.1834L30.3526 26.9463L30.3525 26.9464L30.432 27.1834ZM31.077 26.2771H31.327L31.327 26.2752L31.077 26.2771ZM31.072 20.3501L31.322 20.3507V20.3501H31.072ZM31.072 20.3484L30.822 20.3478V20.3484H31.072ZM31.077 17.4V17.15V17.4ZM34 17.4H34.25V17.15H34V17.4ZM34 32.9123L34.1541 33.1092L34.25 33.0341V32.9123H34ZM33.5979 32.9968L33.6094 32.7471H33.6094L33.5979 32.9968ZM17.055 32.9937V32.7437L17.0536 32.7437L17.055 32.9937ZM28.2555 17.4V17.15H28.0055V17.4H28.2555ZM28.2555 23.1157H28.0055L28.0055 23.1191L28.2555 23.1157ZM27.6903 24.2301L27.5442 24.0272L27.5439 24.0275L27.6903 24.2301ZM18.296 31.043L18.1489 30.8408L18.1469 30.8423L18.296 31.043ZM18.2057 31.1014L18.0763 30.8875L18.0763 30.8875L18.2057 31.1014ZM19.7825 30.6241L19.8622 30.861L19.8623 30.861L19.7825 30.6241ZM19.7863 30.6228L19.7067 30.3858L19.7066 30.3858L19.7863 30.6228ZM22.7732 29.6138L22.8539 29.8504L22.854 29.8504L22.7732 29.6138ZM25.1949 28.781L25.2765 29.0173L25.1949 28.781ZM30.3554 27.028L30.2774 26.7904L30.2773 26.7905L30.3554 27.028ZM30.9921 26.1502L31.2421 26.1485L31.2421 26.1483L30.9921 26.1502ZM31.0332 21.3501L30.7833 21.3425L30.7833 21.346L31.0332 21.3501ZM31.0332 21.3499L31.2831 21.3575L31.2832 21.354L31.0332 21.3499ZM31.0769 17.4L31.052 17.1512L30.8269 17.1738V17.4H31.0769ZM23.0392 18.6336L22.7894 18.6243L22.7894 18.6245L23.0392 18.6336ZM24.7966 16.6787L24.84 16.9249L24.8401 16.9249L24.7966 16.6787ZM24.2282 19.6023L24.1809 19.3568L24.1805 19.3568L24.2282 19.6023ZM25.9613 17.6186L26.2113 17.622L26.2113 17.6216L25.9613 17.6186ZM14.75 18.8297V31.4555H15.25V18.8297H14.75ZM17.3913 15.3733C16.2852 16.2545 15.2597 17.2703 14.763 18.7501L15.237 18.9092C15.6873 17.5676 16.6208 16.6264 17.7029 15.7643L17.3913 15.3733ZM25.9863 8.3421C23.1348 10.7077 20.2859 13.071 17.3915 15.3731L17.7027 15.7644C20.6018 13.4586 23.4547 11.0919 26.3055 8.72692L25.9863 8.3421ZM27.5967 7.00678C27.0597 7.45165 26.5229 7.89691 25.9863 8.3421L26.3055 8.72692C26.8422 8.28171 27.3788 7.83657 27.9157 7.39183L27.5967 7.00678ZM27.642 6.96156C27.6174 6.98738 27.6057 6.99928 27.596 7.00735L27.9164 7.39126C27.9522 7.36132 27.9842 7.32728 28.0043 7.30612L27.642 6.96156ZM27.6512 6.95239L27.6512 6.9524L27.9951 7.31528L27.9952 7.31527L27.6512 6.95239ZM28.2695 6.80002C28.1253 6.73534 27.9843 6.73398 27.8576 6.79246C27.7522 6.84111 27.6767 6.92511 27.642 6.96155L28.0043 7.30611C28.0265 7.28279 28.04 7.26887 28.0528 7.25764C28.0647 7.24718 28.069 7.24557 28.0672 7.24641C28.0635 7.24811 28.0564 7.25011 28.0493 7.25C28.0433 7.2499 28.0474 7.2484 28.0649 7.25622L28.2695 6.80002ZM28.4172 15.6307V7.02812H27.9172V15.6307H28.4172ZM28.4411 16.9529C28.4291 16.5083 28.4172 16.0692 28.4172 15.6307H27.9172C27.9172 16.0771 27.9293 16.5229 27.9412 16.9664L28.4411 16.9529ZM28.4412 16.9596V16.9596H27.9412V16.9596H28.4412ZM28.4411 16.9537L28.4411 16.9533L27.9412 16.9659L27.9412 16.9663L28.4411 16.9537ZM28.4565 17.5678C28.4521 17.3622 28.4466 17.1571 28.4411 16.9532L27.9413 16.9667C27.9468 17.1709 27.9523 17.3745 27.9566 17.5785L28.4565 17.5678ZM28.4504 19.4125C28.4535 18.7998 28.4566 18.1865 28.4566 17.5731H27.9566C27.9566 18.185 27.9535 18.7971 27.9504 19.41L28.4504 19.4125ZM28.4504 19.4113V19.4112H27.9504V19.4113H28.4504ZM28.4504 19.4114V19.4113H27.9504V19.4114H28.4504ZM28.4565 23.0847C28.4381 21.8622 28.4442 20.6388 28.4504 19.4126L27.9504 19.4101C27.9442 20.6354 27.938 21.8639 27.9566 23.0922L28.4565 23.0847ZM27.7923 24.3722C28.0088 24.22 28.1829 24.05 28.2985 23.8323C28.4147 23.6137 28.4604 23.3687 28.4565 23.085L27.9566 23.0919C27.9597 23.3169 27.9232 23.4731 27.857 23.5978C27.7903 23.7233 27.6819 23.8387 27.5047 23.9632L27.7923 24.3722ZM18.5195 30.969C21.6024 28.7559 24.6934 26.5569 27.7926 24.372L27.5045 23.9634C24.4042 26.149 21.312 28.3489 18.2279 30.5628L18.5195 30.969ZM18.4134 31.0363C18.4421 31.0193 18.4817 30.9961 18.5193 30.9691L18.2281 30.5627C18.2114 30.5747 18.1912 30.5868 18.1587 30.6061L18.4134 31.0363ZM18.3831 31.0516L18.3831 31.0516L18.1891 30.5908L18.1891 30.5908L18.3831 31.0516ZM18.255 31.2395C18.2599 31.1669 18.2798 31.1378 18.2939 31.1215C18.3155 31.0965 18.3459 31.0763 18.4134 31.0363L18.1587 30.6061C18.1006 30.6405 17.9991 30.6983 17.9161 30.794C17.8255 30.8985 17.7679 31.0328 17.7561 31.2054L18.255 31.2395ZM17.9797 30.9672L17.9255 30.9856L18.0855 31.4593L18.1397 31.441L17.9797 30.9672ZM17.8903 31.0203C17.7728 31.1286 17.6875 31.2799 17.6736 31.4985L18.1726 31.5301C18.1757 31.4811 18.1854 31.4519 18.1939 31.4343C18.2022 31.417 18.2132 31.4027 18.2292 31.3879L17.8903 31.0203ZM18.0044 31.7507C18.5124 31.5762 19.0155 31.4038 19.5153 31.2327L19.3533 30.7597C18.8536 30.9308 18.3502 31.1032 17.8419 31.2779L18.0044 31.7507ZM19.5156 31.2326L19.5167 31.2322L19.3541 30.7594L19.353 30.7598L19.5156 31.2326ZM19.5164 31.2323C20.6341 30.8495 21.7351 30.4725 22.8344 30.0895L22.6699 29.6173C21.572 29.9998 20.4723 30.3764 19.3544 30.7593L19.5164 31.2323ZM22.8344 30.0895C23.6527 29.8046 24.4701 29.517 25.287 29.2296L25.121 28.758C24.304 29.0454 23.4874 29.3327 22.67 29.6173L22.8344 30.0895ZM25.2865 29.2298L25.2876 29.2294L25.1225 28.7575L25.1215 28.7578L25.2865 29.2298ZM25.288 29.2293C27.0282 28.6171 28.7662 28.0057 30.5115 27.4204L30.3525 26.9464C28.6031 27.533 26.8617 28.1456 25.1221 28.7576L25.288 29.2293ZM30.5113 27.4205C30.7705 27.3337 30.9917 27.2192 31.1383 27.0162C31.2848 26.8134 31.327 26.5637 31.327 26.2771H30.827C30.827 26.5245 30.7882 26.6471 30.733 26.7235C30.6779 26.7997 30.5767 26.8713 30.3526 26.9463L30.5113 27.4205ZM31.327 26.2752C31.3121 24.3136 31.3171 22.3291 31.322 20.3507L30.822 20.3495C30.8171 22.3274 30.8121 24.3145 30.827 26.279L31.327 26.2752ZM31.322 20.3501V20.3495H30.822V20.3501H31.322ZM31.322 20.3495V20.3484H30.822V20.3495H31.322ZM31.322 20.3491C31.3245 19.3632 31.327 18.3788 31.327 17.4H30.827C30.827 18.378 30.8245 19.3618 30.822 20.3478L31.322 20.3491ZM34 17.15L31.077 17.15V17.65L34 17.65V17.15ZM34.25 32.9123V17.4H33.75V32.9123H34.25ZM33.5864 33.2466C33.713 33.2524 33.9468 33.2714 34.1541 33.1092L33.8459 32.7154C33.8045 32.7478 33.7599 32.754 33.6094 32.7471L33.5864 33.2466ZM33.4952 33.2437C33.5225 33.2437 33.551 33.2449 33.5864 33.2466L33.6094 32.7471C33.576 32.7456 33.536 32.7437 33.4952 32.7437V33.2437ZM17.055 33.2437H33.4952V32.7437H17.055V33.2437ZM14.75 31.4598C14.7539 31.6851 14.8621 31.9076 15.0007 32.0992C15.143 32.2958 15.3364 32.4864 15.5533 32.6525C15.9798 32.9791 16.5443 33.2465 17.0564 33.2437L17.0536 32.7437C16.6963 32.7457 16.2385 32.5475 15.8574 32.2556C15.6705 32.1124 15.5139 31.9555 15.4058 31.806C15.294 31.6515 15.2513 31.5294 15.25 31.4512L14.75 31.4598ZM31.077 17.15L28.2555 17.15V17.65L31.077 17.65V17.15ZM28.0055 17.4V23.1157H28.5055V17.4H28.0055ZM28.0055 23.1191C28.0087 23.353 27.9715 23.5161 27.9034 23.6466C27.8349 23.7779 27.7241 23.8977 27.5442 24.0272L27.8364 24.433C28.0552 24.2754 28.2305 24.1007 28.3467 23.8778C28.4633 23.6542 28.5094 23.4036 28.5055 23.1124L28.0055 23.1191ZM27.5439 24.0275C24.4079 26.2932 21.2763 28.5643 18.1489 30.8409L18.4432 31.2451C21.57 28.9689 24.7012 26.6981 27.8367 24.4328L27.5439 24.0275ZM18.1469 30.8423C18.1304 30.8546 18.1101 30.8671 18.0763 30.8875L18.3351 31.3153C18.3648 31.2974 18.4061 31.2726 18.4451 31.2437L18.1469 30.8423ZM18.0763 30.8875C18.0301 30.9155 17.957 30.9588 17.8903 31.0203L18.2292 31.3879C18.2531 31.3659 18.2828 31.347 18.3351 31.3153L18.0763 30.8875ZM19.7028 30.3871C19.1331 30.5786 18.5592 30.7716 17.9798 30.9672L18.1397 31.441C18.7188 31.2454 19.2923 31.0526 19.8622 30.861L19.7028 30.3871ZM19.7066 30.3858L19.7028 30.3871L19.8623 30.861L19.8661 30.8597L19.7066 30.3858ZM22.6925 29.3772C21.7033 29.7145 20.7113 30.048 19.7067 30.3858L19.866 30.8597C20.8705 30.522 21.8635 30.1882 22.8539 29.8504L22.6925 29.3772ZM25.1134 28.5446C24.3064 28.8231 23.4998 29.1015 22.6924 29.3772L22.854 29.8504C23.6623 29.5744 24.4696 29.2957 25.2765 29.0173L25.1134 28.5446ZM30.2773 26.7905C28.5501 27.3586 26.8308 27.9519 25.1134 28.5446L25.2765 29.0173C26.9945 28.4244 28.7104 27.8322 30.4335 27.2654L30.2773 26.7905ZM30.7421 26.1519C30.7437 26.387 30.7057 26.5026 30.6527 26.5746C30.5988 26.6477 30.4985 26.7178 30.2774 26.7904L30.4334 27.2655C30.6892 27.1815 30.9091 27.0695 31.0552 26.8713C31.2021 26.6719 31.244 26.427 31.2421 26.1485L30.7421 26.1519ZM30.7833 21.346C30.7567 22.9618 30.7301 24.5871 30.7421 26.1521L31.2421 26.1483C31.2301 24.5903 31.2567 22.9712 31.2832 21.3542L30.7833 21.346ZM30.7833 21.3423L30.7833 21.3425L31.2831 21.3576L31.2831 21.3575L30.7833 21.3423ZM30.8269 17.4C30.8269 18.6854 30.8052 20.0123 30.7833 21.3458L31.2832 21.354C31.3051 20.0213 31.3269 18.6902 31.3269 17.4H30.8269ZM31.0521 17.1512L31.052 17.1512L31.1018 17.6488L31.1018 17.6488L31.0521 17.1512ZM23.2891 18.643C23.3025 18.2848 23.4871 17.8885 23.7841 17.5579C24.0807 17.2279 24.4647 16.991 24.84 16.9249L24.7533 16.4325C24.2435 16.5223 23.765 16.8311 23.4122 17.2237C23.06 17.6157 22.8084 18.1189 22.7894 18.6243L23.2891 18.643ZM24.1805 19.3568C23.884 19.4144 23.6601 19.3523 23.5171 19.2361C23.3759 19.1214 23.2787 18.926 23.2891 18.6428L22.7894 18.6245C22.7743 19.0368 22.9187 19.3942 23.2018 19.6242C23.4831 19.8528 23.8664 19.9272 24.2758 19.8477L24.1805 19.3568ZM25.7113 17.6151C25.7066 17.9559 25.5258 18.3552 25.2271 18.6972C24.9293 19.0382 24.5451 19.2866 24.1809 19.3568L24.2755 19.8477C24.7778 19.751 25.2544 19.4261 25.6037 19.0261C25.952 18.6273 26.2044 18.1183 26.2113 17.622L25.7113 17.6151ZM24.8401 16.9249C25.1256 16.8745 25.3415 16.9358 25.4811 17.0484C25.619 17.1596 25.7146 17.3467 25.7113 17.6155L26.2113 17.6216C26.2161 17.2248 26.0708 16.8816 25.795 16.6592C25.521 16.4382 25.1505 16.3624 24.7532 16.4325L24.8401 16.9249Z" />
</svg>
