<svg width="34" height="34" viewBox="0 0 34 34"  xmlns="http://www.w3.org/2000/svg">
<path fill-rule="evenodd" clip-rule="evenodd" d="M16.5413 21.5413L16.5413 12.4587H17.4587L17.4587 21.5413H16.5413Z" />
<path fill-rule="evenodd" clip-rule="evenodd" d="M12.4587 16.5413H21.5413L21.5413 17.4588H12.4587L12.4587 16.5413Z" />
<path fill-rule="evenodd" clip-rule="evenodd" d="M17 28C23.0751 28 28 23.0751 28 17C28 10.9249 23.0751 6 17 6C10.9249 6 6 10.9249 6 17C6 23.0751 10.9249 28 17 28ZM17 29C23.6274 29 29 23.6274 29 17C29 10.3726 23.6274 5 17 5C10.3726 5 5 10.3726 5 17C5 23.6274 10.3726 29 17 29Z" />
</svg>
