<svg width="25" height="25" viewBox="0 0 25 25"  xmlns="http://www.w3.org/2000/svg">
<circle cx="12.5" cy="12.5" r="12" stroke="white"/>
<path d="M7.6069 16.8797H7.00065V8.98663L5.00002 9.87099V9.19719L7.50586 8.09024H7.6069V16.8797Z" />
<path d="M14.8668 10.3763C14.8668 10.8295 14.7556 11.2366 14.5333 11.5976C14.311 11.9545 14.018 12.2172 13.6543 12.3857C14.0786 12.5582 14.4188 12.8369 14.6748 13.2219C14.9308 13.607 15.0587 14.0521 15.0587 14.5575C15.0587 15.3075 14.8449 15.9031 14.4171 16.3443C13.9894 16.7814 13.4235 17 12.7196 17C12.009 17 11.4398 16.7814 11.012 16.3443C10.5876 15.9071 10.3754 15.3115 10.3754 14.5575C10.3754 14.0602 10.4984 13.617 10.7443 13.2279C10.9901 12.8389 11.3269 12.5582 11.7547 12.3857C11.3909 12.2172 11.1013 11.9545 10.8857 11.5976C10.6702 11.2366 10.5624 10.8295 10.5624 10.3763C10.5624 9.6504 10.7577 9.07286 11.1484 8.64372C11.5425 8.21457 12.0629 8 12.7095 8C13.3562 8 13.8766 8.21658 14.2706 8.64973C14.6681 9.08289 14.8668 9.65842 14.8668 10.3763ZM14.4525 14.5635C14.4525 14.018 14.2891 13.5709 13.9624 13.2219C13.6357 12.869 13.2181 12.6925 12.7095 12.6925C12.2009 12.6925 11.785 12.865 11.4617 13.2099C11.1383 13.5548 10.9766 14.006 10.9766 14.5635C10.9766 15.121 11.1333 15.5662 11.4465 15.8991C11.7597 16.2279 12.1841 16.3924 12.7196 16.3924C13.2417 16.3924 13.661 16.2279 13.9776 15.8991C14.2942 15.5702 14.4525 15.125 14.4525 14.5635ZM14.2605 10.3703C14.2605 9.86898 14.114 9.45187 13.821 9.11898C13.5313 8.78209 13.1608 8.61364 12.7095 8.61364C12.2515 8.61364 11.8793 8.77607 11.593 9.10094C11.3101 9.42179 11.1686 9.84492 11.1686 10.3703C11.1686 10.8837 11.3101 11.2968 11.593 11.6096C11.8793 11.9225 12.2531 12.0789 12.7146 12.0789C13.1693 12.0789 13.5397 11.9225 13.826 11.6096C14.1157 11.2928 14.2605 10.8797 14.2605 10.3703Z" />
<path d="M18.7619 12.4278H21V13.1016H18.7619V16.0013H18.1506V13.1016H15.958V12.4278H18.1506V9.62433H18.7619V12.4278Z" />
</svg>
